<svg width="598" height="523" viewBox="0 0 598 523" fill="none" xmlns="http://www.w3.org/2000/svg">
<path fill-rule="evenodd" clip-rule="evenodd" d="M315.393 484.073C230.617 486.146 137.294 542.056 70.6888 486.416C1.91249 428.962 -10.8302 317.733 7.65728 226.997C23.5826 148.835 95.7023 105.401 157.624 59.74C205.275 24.6015 257.367 -1.53459 315.393 0.0700282C371.847 1.63118 424.84 26.3035 465.14 68.244C505.841 110.601 521.25 167.931 533.445 226.997C550.796 311.039 603.321 410.743 549.06 474.715C494.881 538.59 396.4 482.091 315.393 484.073Z" fill="#93B0F9" fill-opacity="0.15"/>
<path d="M445.448 27H60.5975C46.4799 27 35 40.1263 35 56.2687V357.82C35 373.963 46.4799 387.089 60.5975 387.089H445.448C459.565 387.089 471.045 373.963 471.045 357.82V56.2687C471.045 40.1263 459.565 27 445.448 27Z" fill="#F2F2F2"/>
<path d="M556.409 486.812L571.524 482.017C573.408 473.905 573.283 465.456 571.16 457.403C565.088 470.905 547.272 474.213 537.121 484.99C533.981 488.375 531.643 492.424 530.28 496.836C528.917 501.248 528.565 505.91 529.248 510.477L526.068 521.264C533.496 520.63 540.697 518.393 547.176 514.707C553.656 511.021 559.259 505.975 563.6 499.915C566.002 496.491 567.963 492.779 569.437 488.865C562.991 488.22 556.409 486.812 556.409 486.812Z" fill="#F2F2F2"/>
<path d="M540.256 466.864L551.647 455.832C549.715 447.731 545.835 440.224 540.343 433.963C540.93 448.756 526.459 459.662 522.18 473.835C520.879 478.266 520.592 482.933 521.34 487.489C522.088 492.046 523.852 496.376 526.5 500.158L528.465 511.232C534.83 507.351 540.278 502.137 544.433 495.949C548.589 489.76 551.353 482.744 552.536 475.385C553.159 471.249 553.258 467.052 552.832 462.892C546.775 465.189 540.256 466.864 540.256 466.864Z" fill="#F2F2F2"/>
<path d="M469.361 67.3225H36.6846C36.2345 67.3147 35.8062 67.1631 35.4913 66.9001C35.1764 66.6372 35 66.2839 35 65.9159C35 65.5479 35.1764 65.1946 35.4913 64.9316C35.8062 64.6687 36.2345 64.5171 36.6846 64.5093H469.361C469.811 64.5171 470.239 64.6687 470.554 64.9316C470.869 65.1946 471.045 65.5479 471.045 65.9159C471.045 66.2839 470.869 66.6372 470.554 66.9001C470.239 67.1631 469.811 67.3147 469.361 67.3225V67.3225Z" fill="#00BFA6"/>
<path d="M67.5337 55.7384C73.0169 55.7384 77.462 51.1944 77.462 45.5889C77.462 39.9835 73.0169 35.4395 67.5337 35.4395C62.0505 35.4395 57.6055 39.9835 57.6055 45.5889C57.6055 51.1944 62.0505 55.7384 67.5337 55.7384Z" fill="#00BFA6"/>
<path d="M101.831 55.7384C107.314 55.7384 111.759 51.1944 111.759 45.5889C111.759 39.9835 107.314 35.4395 101.831 35.4395C96.3474 35.4395 91.9023 39.9835 91.9023 45.5889C91.9023 51.1944 96.3474 55.7384 101.831 55.7384Z" fill="#00BFA6"/>
<path d="M136.127 55.7384C141.611 55.7384 146.056 51.1944 146.056 45.5889C146.056 39.9835 141.611 35.4395 136.127 35.4395C130.644 35.4395 126.199 39.9835 126.199 45.5889C126.199 51.1944 130.644 55.7384 136.127 55.7384Z" fill="#00BFA6"/>
<path d="M443.89 37.9551H419.527C419.044 37.9647 418.584 38.1633 418.246 38.5082C417.908 38.8531 417.719 39.3168 417.719 39.7998C417.719 40.2828 417.908 40.7465 418.246 41.0914C418.584 41.4363 419.044 41.6349 419.527 41.6445H443.89C444.373 41.6349 444.833 41.4363 445.171 41.0914C445.509 40.7465 445.699 40.2828 445.699 39.7998C445.699 39.3168 445.509 38.8531 445.171 38.5082C444.833 38.1633 444.373 37.9647 443.89 37.9551V37.9551Z" fill="#00BFA6"/>
<path d="M443.889 44.8799H419.525C419.042 44.8894 418.583 45.088 418.244 45.4329C417.906 45.7778 417.717 46.2416 417.717 46.7246C417.717 47.2076 417.906 47.6714 418.244 48.0163C418.583 48.3612 419.042 48.5598 419.525 48.5693H443.889C444.372 48.5598 444.831 48.3612 445.17 48.0163C445.508 47.6714 445.697 47.2076 445.697 46.7246C445.697 46.2416 445.508 45.7778 445.17 45.4329C444.831 45.088 444.372 44.8894 443.889 44.8799V44.8799Z" fill="#00BFA6"/>
<path d="M443.889 51.7954H419.525C419.042 51.805 418.583 52.0035 418.244 52.3484C417.906 52.6933 417.717 53.1571 417.717 53.6401C417.717 54.1232 417.906 54.5869 418.244 54.9318C418.583 55.2768 419.042 55.4753 419.525 55.4849H443.889C444.372 55.4753 444.831 55.2768 445.17 54.9318C445.508 54.5869 445.697 54.1232 445.697 53.6401C445.697 53.1571 445.508 52.6933 445.17 52.3484C444.831 52.0035 444.372 51.805 443.889 51.7954V51.7954Z" fill="#00BFA6"/>
<path d="M69.8798 136.607C76.6587 136.607 82.1541 131.111 82.1541 124.332C82.1541 117.554 76.6587 112.058 69.8798 112.058C63.1009 112.058 57.6055 117.554 57.6055 124.332C57.6055 131.111 63.1009 136.607 69.8798 136.607Z" fill="#1B67A5"/>
<path d="M382.447 151.511H61.2605C60.2911 151.511 59.3614 151.126 58.676 150.441C57.9905 149.755 57.6055 148.826 57.6055 147.856C57.6055 146.887 57.9905 145.957 58.676 145.272C59.3614 144.586 60.2911 144.201 61.2605 144.201H382.447C383.416 144.201 384.346 144.586 385.031 145.272C385.717 145.957 386.102 146.887 386.102 147.856C386.102 148.826 385.717 149.755 385.031 150.441C384.346 151.126 383.416 151.511 382.447 151.511V151.511Z" fill="#C6C6C6"/>
<path d="M298.208 165.954H61.2587C60.2893 165.954 59.3596 165.569 58.6741 164.884C57.9886 164.198 57.6035 163.269 57.6035 162.299C57.6035 161.33 57.9886 160.4 58.6741 159.715C59.3596 159.029 60.2893 158.644 61.2587 158.644H298.208C299.178 158.644 300.107 159.029 300.793 159.715C301.478 160.4 301.863 161.33 301.863 162.299C301.863 163.269 301.478 164.198 300.793 164.884C300.107 165.569 299.178 165.954 298.208 165.954V165.954Z" fill="#C6C6C6"/>
<path d="M69.8798 328.19C76.6587 328.19 82.1541 322.694 82.1541 315.915C82.1541 309.136 76.6587 303.641 69.8798 303.641C63.1009 303.641 57.6055 309.136 57.6055 315.915C57.6055 322.694 63.1009 328.19 69.8798 328.19Z" fill="#1B67A5"/>
<path d="M382.445 343.095H61.2586C60.7781 343.096 60.3021 343.002 59.858 342.819C59.4139 342.635 59.0103 342.366 58.6703 342.027C58.3302 341.687 58.0605 341.284 57.8764 340.84C57.6924 340.396 57.5977 339.921 57.5977 339.44C57.5977 338.96 57.6924 338.484 57.8764 338.04C58.0605 337.596 58.3302 337.193 58.6703 336.854C59.0103 336.514 59.4139 336.245 59.858 336.062C60.3021 335.878 60.7781 335.784 61.2586 335.785H382.445C383.463 335.842 384.423 336.277 385.137 337.006C385.851 337.734 386.267 338.703 386.303 339.722C386.273 340.198 386.149 340.662 385.938 341.09C385.728 341.517 385.435 341.899 385.076 342.212C384.718 342.526 384.3 342.765 383.849 342.917C383.397 343.068 382.92 343.129 382.445 343.095V343.095Z" fill="#C6C6C6"/>
<path d="M298.208 357.538H61.2587C60.2893 357.538 59.3596 357.152 58.6741 356.467C57.9886 355.781 57.6035 354.852 57.6035 353.882C57.6035 352.913 57.9886 351.983 58.6741 351.298C59.3596 350.612 60.2893 350.227 61.2587 350.227H298.208C299.178 350.227 300.107 350.612 300.793 351.298C301.478 351.983 301.863 352.913 301.863 353.882C301.863 354.852 301.478 355.781 300.793 356.467C300.107 357.152 299.178 357.538 298.208 357.538V357.538Z" fill="#C6C6C6"/>
<path d="M69.8798 225.177C76.6587 225.177 82.1541 219.681 82.1541 212.902C82.1541 206.123 76.6587 200.628 69.8798 200.628C63.1009 200.628 57.6055 206.123 57.6055 212.902C57.6055 219.681 63.1009 225.177 69.8798 225.177Z" fill="#1B67A5"/>
<path d="M382.447 240.082H61.2605C60.2911 240.082 59.3614 239.696 58.676 239.011C57.9905 238.326 57.6055 237.396 57.6055 236.427C57.6055 235.457 57.9905 234.527 58.676 233.842C59.3614 233.157 60.2911 232.771 61.2605 232.771H382.447C383.416 232.771 384.346 233.157 385.031 233.842C385.717 234.527 386.102 235.457 386.102 236.427C386.102 237.396 385.717 238.326 385.031 239.011C384.346 239.696 383.416 240.082 382.447 240.082V240.082Z" fill="#C6C6C6"/>
<path d="M337.718 254.524H61.2587C60.2893 254.524 59.3596 254.139 58.6741 253.454C57.9886 252.768 57.6035 251.839 57.6035 250.869C57.6035 249.9 57.9886 248.97 58.6741 248.284C59.3596 247.599 60.2893 247.214 61.2587 247.214H337.718C338.687 247.214 339.617 247.599 340.302 248.284C340.988 248.97 341.373 249.9 341.373 250.869C341.373 251.839 340.988 252.768 340.302 253.454C339.617 254.139 338.687 254.524 337.718 254.524V254.524Z" fill="#C6C6C6"/>
<path d="M318.954 268.968H61.2587C60.2893 268.968 59.3596 268.583 58.6741 267.897C57.9886 267.212 57.6035 266.282 57.6035 265.312C57.6035 264.343 57.9886 263.413 58.6741 262.728C59.3596 262.042 60.2893 261.657 61.2587 261.657H318.954C319.923 261.657 320.853 262.042 321.538 262.728C322.224 263.413 322.609 264.343 322.609 265.312C322.609 266.282 322.224 267.212 321.538 267.897C320.853 268.583 319.923 268.968 318.954 268.968V268.968Z" fill="#C6C6C6"/>
<path d="M324.286 430.557C374.488 430.557 415.184 389.861 415.184 339.659C415.184 289.458 374.488 248.762 324.286 248.762C274.085 248.762 233.389 289.458 233.389 339.659C233.389 389.861 274.085 430.557 324.286 430.557Z" fill="#00BFA6"/>
<path d="M324.161 371.374C331.333 371.374 337.147 365.56 337.147 358.388C337.147 351.217 331.333 345.403 324.161 345.403C316.99 345.403 311.176 351.217 311.176 358.388C311.176 365.56 316.99 371.374 324.161 371.374Z" fill="#F2F2F2"/>
<path d="M324.161 364.381C327.471 364.381 330.154 361.698 330.154 358.388C330.154 355.078 327.471 352.395 324.161 352.395C320.851 352.395 318.168 355.078 318.168 358.388C318.168 361.698 320.851 364.381 324.161 364.381Z" fill="#00BFA6"/>
<path d="M348.266 387.294H300.307C295.558 387.289 291.005 385.4 287.647 382.042C284.289 378.684 282.4 374.132 282.395 369.383V347.394C282.4 342.645 284.289 338.092 287.647 334.734C291.005 331.376 295.558 329.487 300.307 329.481H348.266C353.015 329.487 357.568 331.376 360.926 334.734C364.283 338.092 366.172 342.645 366.178 347.394V369.383C366.172 374.131 364.283 378.684 360.925 382.042C357.568 385.4 353.015 387.289 348.266 387.294V387.294ZM300.307 331.357C296.055 331.362 291.979 333.053 288.972 336.059C285.966 339.066 284.275 343.142 284.27 347.394V369.383C284.275 373.634 285.966 377.71 288.972 380.717C291.979 383.723 296.055 385.414 300.307 385.418H348.266C352.518 385.414 356.594 383.723 359.6 380.717C362.606 377.71 364.297 373.634 364.302 369.383V347.394C364.297 343.142 362.606 339.066 359.6 336.059C356.594 333.053 352.518 331.362 348.266 331.357L300.307 331.357Z" fill="white"/>
<path d="M427.827 510.44L417.367 510.439L412.391 470.091L427.829 470.092L427.827 510.44Z" fill="#A0616A"/>
<path d="M428.194 521.352L396.027 521.351V520.944C396.028 517.623 397.347 514.439 399.695 512.091C402.043 509.743 405.227 508.424 408.548 508.424H408.548L414.424 503.966L425.387 508.425L428.195 508.425L428.194 521.352Z" fill="#00BFA6"/>
<path d="M501.842 510.44L512.302 510.439L517.279 470.091L501.84 470.092L501.842 510.44Z" fill="#A0616A"/>
<path d="M501.471 521.352L533.638 521.351V520.944C533.638 517.623 532.319 514.439 529.971 512.091C527.623 509.743 524.438 508.424 521.118 508.424H521.117L515.241 503.966L504.279 508.425L501.471 508.425L501.471 521.352Z" fill="#00BFA6"/>
<path d="M411.93 440.442C412.085 438.14 413.313 425.407 413.313 425.407L416.255 398.406L421.441 326.831L421.779 322.145L448.943 316.93L467.508 308.03L489.574 315.084L506.756 321.527C506.756 321.527 506.785 324.286 506.918 327.618C507.094 331.979 507.403 337.327 508.139 338.717C509.367 341.174 509.058 354.362 509.058 354.362C509.058 354.362 510.279 381.194 511.816 384.136C513.354 387.079 513.662 393.206 513.199 394.434C512.736 395.662 514.736 427.886 514.736 427.886C514.736 427.886 519.871 484.911 516.65 493.509C513.428 502.108 501.254 496.475 501.254 496.475C501.254 496.475 501.842 494.18 498.312 493.099C494.781 492.018 484.028 411.16 484.028 411.16C484.028 411.16 482.027 394.581 480.188 389.829C478.349 385.078 476.658 371.728 476.658 371.728C476.658 371.728 465.301 349.632 465.154 344.719C465.154 344.719 463.668 340.122 462.263 345.182C460.858 350.243 456.717 362.364 456.717 362.364L452.679 377.252L447.927 399.494L444.853 418.221C444.853 418.221 440.248 443.075 439.513 444.149C438.777 445.223 439.513 467.929 439.513 467.929C439.513 467.929 435.953 487.266 430.922 490.642C425.891 494.018 412.561 490.696 412.561 490.696C412.561 490.696 411.776 442.744 411.93 440.442Z" fill="#1B67A5"/>
<path d="M423.519 256.867L429.558 275.057L422.106 283.927L425.387 287.303L422.967 292.076L416.656 342.108L451.256 355.23L462.907 340.622L472.094 355.23L512.13 345.447L501.92 281.647V277.476L499.037 269.422V252.372L506.649 201.62L483.928 193.662L473.065 185.063L469.549 197.156L454.581 194.493L454.191 185.409L442.738 196.229L433.095 198.979L421.547 201.62L420.076 205.298L423.018 204.563L422.541 252.409L423.519 256.867Z" fill="#1B67A5"/>
<path d="M413.176 323.421L418.987 267.174L420.521 244.025L404.256 241.084C404.256 241.084 404.901 257.636 402.77 266.976C400.667 276.191 402.491 322.186 402.621 323.416C401.426 324.484 400.584 325.89 400.206 327.447C399.828 329.004 399.931 330.639 400.502 332.136C401.074 333.633 402.086 334.922 403.406 335.831C404.725 336.74 406.289 337.227 407.892 337.228C409.494 337.229 411.059 336.743 412.379 335.835C413.7 334.927 414.713 333.64 415.286 332.143C415.859 330.647 415.964 329.012 415.587 327.454C415.21 325.897 414.37 324.49 413.176 323.421V323.421Z" fill="#A0616A"/>
<path d="M397.311 278.83L401.835 279.764L417.355 282.978L418.215 283.155L420.047 275.873L422.172 273.607L426.218 252.409L426.431 251.306L432.543 238.243L436.772 198.979L421.047 201.804C420.966 201.885 420.892 201.973 420.819 202.061C418.56 204.621 416.95 208.181 414.316 211.763C405.747 223.421 399.172 251.747 399.43 267.267C399.437 267.517 399.179 267.789 398.871 268.069C397.412 269.409 396.461 271.211 396.177 273.172C395.893 275.132 396.293 277.13 397.311 278.83Z" fill="#1B67A5"/>
<path d="M514.284 323.421L508.473 267.174L506.939 244.025L523.204 241.084C523.204 241.084 522.56 257.636 524.69 266.976C526.793 276.191 524.969 322.186 524.839 323.416C526.034 324.484 526.876 325.89 527.254 327.447C527.632 329.004 527.529 330.639 526.958 332.136C526.386 333.633 525.374 334.922 524.055 335.831C522.735 336.74 521.171 337.227 519.568 337.228C517.966 337.229 516.401 336.743 515.081 335.835C513.76 334.927 512.747 333.64 512.174 332.143C511.601 330.647 511.496 329.012 511.873 327.454C512.25 325.897 513.091 324.49 514.284 323.421V323.421Z" fill="#A0616A"/>
<path d="M530.15 278.83L525.627 279.764L510.107 282.978L509.246 283.155L507.415 275.873L505.289 273.607L501.244 252.409L501.03 251.306L494.918 238.243L496.315 198.979L506.415 201.804C506.496 201.885 506.569 201.973 506.643 202.061C508.901 204.621 510.512 208.181 513.145 211.763C521.714 223.421 528.289 251.747 528.032 267.267C528.024 267.517 528.282 267.789 528.591 268.069C530.049 269.409 531 271.211 531.285 273.172C531.569 275.132 531.168 277.13 530.15 278.83V278.83Z" fill="#1B67A5"/>
<path d="M446.802 204.788L454.191 185.408L473.065 185.062L479.328 204.788L501.839 330.541C501.839 330.541 432.874 349.747 433.574 326.661C434.309 302.388 437.628 270.146 437.628 270.146L446.802 204.788Z" fill="#00BFA6"/>
<path d="M463.206 179.988C475.486 179.988 485.44 170.033 485.44 157.754C485.44 145.475 475.486 135.521 463.206 135.521C450.927 135.521 440.973 145.475 440.973 157.754C440.973 170.033 450.927 179.988 463.206 179.988Z" fill="#A0616A"/>
<path d="M439.66 141.625C443.28 137.685 447.807 130.474 461.521 127.445C478.466 123.703 486.473 139.011 482.2 139.262C494.695 143.046 486.668 168.904 483.086 166.735C483.055 166.714 483.026 166.691 482.998 166.666C481.071 165.248 479.454 163.451 478.245 161.386C477.036 159.321 476.261 157.032 475.967 154.657L475.287 148.538C475.19 153.517 470.101 154.175 464.903 152.342C465.21 151.25 465.797 150.258 466.605 149.462C467.413 148.666 468.414 148.095 469.511 147.805C465.887 151.09 461.283 153.093 456.409 153.505C456.664 152.259 457.184 151.081 457.932 150.052C458.68 149.023 459.639 148.165 460.746 147.537L460.541 147.336C458.511 149.048 456.18 150.368 453.667 151.228C450.802 152.049 447.368 151.605 445.404 149.362C444.876 148.743 444.476 148.024 444.23 147.248C444.655 151.191 442.01 155.692 439.956 154.919C438.247 154.587 437.25 144.248 439.66 141.625Z" fill="#2F2E41"/>
<path d="M598 521.349C598.001 521.496 597.972 521.641 597.916 521.777C597.86 521.912 597.778 522.036 597.674 522.139C597.571 522.243 597.448 522.325 597.312 522.381C597.176 522.437 597.031 522.466 596.884 522.465H334.048C333.752 522.465 333.468 522.348 333.259 522.138C333.049 521.929 332.932 521.645 332.932 521.349C332.932 521.053 333.049 520.769 333.259 520.56C333.468 520.351 333.752 520.233 334.048 520.233H596.884C597.031 520.233 597.176 520.262 597.312 520.317C597.448 520.373 597.571 520.456 597.674 520.559C597.778 520.663 597.86 520.786 597.916 520.922C597.972 521.057 598.001 521.203 598 521.349Z" fill="#CCCCCC"/>
<path d="M353.318 331.607H295.256V314.524C295.256 300.741 308.279 289.527 324.287 289.527C340.295 289.527 353.318 300.741 353.318 314.524V331.607ZM297.131 329.732H351.443V314.524C351.443 301.775 339.261 291.403 324.287 291.403C309.313 291.403 297.131 301.775 297.131 314.524V329.732Z" fill="white"/>
<path d="M339.157 325.085H309.417C308.079 325.084 306.797 324.551 305.851 323.605C304.905 322.659 304.373 321.376 304.371 320.038V313.24C304.371 303.761 313.306 296.049 324.287 296.049C335.269 296.049 344.204 303.761 344.204 313.24V320.038C344.202 321.376 343.67 322.659 342.724 323.605C341.778 324.551 340.495 325.084 339.157 325.085V325.085ZM324.287 297.925C314.34 297.925 306.247 304.795 306.247 313.24V320.038C306.247 320.879 306.582 321.685 307.176 322.28C307.771 322.874 308.577 323.209 309.417 323.21H339.157C339.998 323.209 340.804 322.874 341.399 322.28C341.993 321.685 342.327 320.879 342.328 320.038V313.24C342.328 304.795 334.235 297.925 324.287 297.925Z" fill="white"/>
</svg>
