<svg width="445" height="380" viewBox="0 0 445 380" fill="none" xmlns="http://www.w3.org/2000/svg">
<g clip-path="url(#clip0_266_1671)">
<path d="M392.699 378.519L392.709 378.076C392.909 370.646 394.724 363.348 398.026 356.691C401.328 350.034 406.039 344.176 411.831 339.526C415.101 336.943 418.682 334.782 422.491 333.095L422.854 332.933L422.916 333.326C423.654 338.018 424.822 342.806 425.366 344.932L429.014 330.683L429.419 330.566C431.278 330.02 433.257 330.043 435.103 330.633C436.948 331.224 438.574 332.353 439.772 333.877C441.022 335.401 441.788 337.265 441.97 339.229C442.153 341.193 441.744 343.166 440.796 344.895C439.945 346.48 439.11 348.135 438.301 349.735C435.524 355.233 432.652 360.919 428.466 365.336C425.266 368.648 421.366 371.203 417.053 372.814C412.739 374.424 408.121 375.05 403.535 374.646L392.699 378.519Z" fill="#F2F2F2"/>
<path d="M347.217 371.929L340.87 371.929L337.85 347.419L347.218 347.42L347.217 371.929Z" fill="#FFB6B6"/>
<path d="M347.442 378.558L327.922 378.558V378.31C327.922 376.293 328.723 374.359 330.147 372.933C331.572 371.506 333.505 370.705 335.52 370.705H335.52L339.086 367.997L345.738 370.705L347.442 370.705L347.442 378.558Z" fill="#2F2E41"/>
<path d="M412.925 354.028L407.91 357.924L390.512 340.415L397.913 334.665L412.925 354.028Z" fill="#FFB6B6"/>
<path d="M417.162 359.127L401.741 371.107L401.59 370.912C400.354 369.318 399.802 367.299 400.054 365.298C400.306 363.296 401.342 361.477 402.933 360.24L402.934 360.24L404.092 355.912L411.006 353.969L412.352 352.923L417.162 359.127Z" fill="#2F2E41"/>
<path d="M385.468 235.442C385.468 235.442 385.035 242.078 384.488 251.564C384.399 253.12 384.927 254.81 384.833 256.502C384.77 257.625 384.086 258.717 384.022 259.887C383.955 261.123 384.9 262.217 384.833 263.495C384.767 264.743 383.689 266.175 383.624 267.453C382.924 281.206 380.388 297.669 382.928 302.272C384.18 304.54 403.249 335.963 403.249 335.963C403.249 335.963 394.358 349.313 391.818 344.863C388.463 338.986 362.607 311.489 362.607 306.238C362.607 300.994 356.625 261.689 356.625 261.689L352.453 284.949L350.541 289.558L351.142 292.264L349.906 295.915L349.839 299.528L348.636 306.238C348.636 306.238 352.255 358.518 350.217 359.973C348.172 361.435 338.272 364.061 337.104 361.435C335.941 358.81 331.49 306.874 331.49 306.874C331.49 306.874 330.271 283.074 328.95 260.952C328.873 259.668 327.972 258.117 327.902 256.852C327.819 255.383 328.391 253.476 328.315 252.052C328.232 250.419 327.508 249.268 327.438 247.704C326.898 235.62 326.816 226.097 327.781 224.648C330.696 220.274 333.319 216.778 333.319 216.778C333.319 216.778 374.977 206.569 385.468 219.689L385.468 235.442Z" fill="#00BFA6"/>
<path d="M348.001 110.294L358.046 109.731L365.615 113.868L386.665 233.196C386.665 233.196 365.147 243.153 351.811 239.339C338.475 235.524 324.432 235.739 324.432 235.739L334.665 121.736L342.921 114.108L348.001 110.294Z" fill="#D2D2D2"/>
<path d="M364.758 112.824L380.306 119.18C382.693 119.296 384.971 120.219 386.768 121.796C388.565 123.374 389.775 125.514 390.202 127.868L389.17 158.605L383.563 173.228L387.561 206.538L385.468 210.733L387.277 215.015C384.621 219.331 385.162 224.986 386.738 231.075H384.833L381.023 230.44C381.023 230.44 372.634 233.355 370.915 222.884C366.417 195.477 363.877 207.555 363.877 207.555L361.662 122.517L364.758 112.824Z" fill="#1B67A5"/>
<path d="M343.555 112.837L329.031 128.079C326.644 128.196 324.366 129.118 322.569 130.696C320.772 132.273 319.562 134.414 319.135 136.768L325.139 184.034L322.321 202.17L323.869 206.283L322.748 210.932L324.504 215.183L323.234 220.904L325.139 229.168L334.664 226.625L334.591 219.847L337.132 127.673L343.555 112.837Z" fill="#1B67A5"/>
<path d="M295.119 191.189L275.335 205.56C274.577 205.6 273.843 205.838 273.206 206.252C272.569 206.666 272.053 207.24 271.709 207.917C271.364 208.594 271.204 209.35 271.244 210.108C271.285 210.867 271.524 211.602 271.938 212.238C272.352 212.875 272.926 213.391 273.603 213.735C274.279 214.079 275.035 214.239 275.793 214.197C276.55 214.156 277.284 213.916 277.92 213.501C278.555 213.086 279.07 212.51 279.413 211.832L306.316 197.456L295.119 191.189Z" fill="#FFB6B6"/>
<path d="M322.599 130.636C318.839 132.372 309.55 176.82 306.824 177.762C304.097 178.704 305.138 178.563 304.756 179.35C304.373 180.136 304.281 183.659 301.664 184.073C299.046 184.486 285.219 197.105 285.219 197.105L288.724 208.802C288.724 208.802 315.333 193.584 322.67 185.157C330.007 176.73 333.957 133.394 333.957 133.394L334.707 129.07C334.707 129.07 326.359 128.9 322.599 130.636Z" fill="#1B67A5"/>
<path d="M382.268 185.321L364.637 202.27C363.891 202.412 363.197 202.749 362.623 203.246C362.049 203.743 361.616 204.383 361.367 205.101C361.119 205.819 361.063 206.589 361.207 207.335C361.351 208.081 361.688 208.776 362.185 209.35C362.683 209.924 363.322 210.357 364.039 210.605C364.757 210.853 365.527 210.907 366.272 210.762C367.017 210.618 367.711 210.279 368.283 209.781C368.856 209.282 369.288 208.642 369.534 207.923L394.217 189.993L382.268 185.321Z" fill="#FFB6B6"/>
<path d="M384.832 134.45C381.345 136.685 394.596 169.108 392.024 170.415C389.452 171.723 390.464 171.44 390.193 172.271C389.922 173.103 390.312 176.605 387.776 177.374C385.24 178.142 373.27 192.539 373.27 192.539L378.342 203.644C378.342 203.644 402.618 184.921 408.733 175.568C414.847 166.214 410.868 163.056 410.868 163.056C403.282 146.927 396.187 120.623 385.467 122.372C385.467 122.372 388.319 132.215 384.832 134.45Z" fill="#1B67A5"/>
<path d="M350.154 107.777C359.556 107.777 367.177 100.147 367.177 90.7359C367.177 81.3247 359.556 73.6953 350.154 73.6953C340.752 73.6953 333.131 81.3247 333.131 90.7359C333.131 100.147 340.752 107.777 350.154 107.777Z" fill="#FFB6B6"/>
<path d="M367.392 101.717C367.392 101.717 363.643 102.746 361.461 103.319C361.574 101.693 362.277 100.172 362.634 98.582C362.991 96.9921 362.913 95.1222 361.733 93.9996C360.553 92.877 358.094 93.3144 357.904 94.9297C356.905 92.7922 355.905 90.6508 354.902 88.5055C352.043 94.3965 346.198 89.3764 339.824 90.8649C336.573 91.6316 332.498 91.3022 330.781 88.4344C331.746 87.6234 332.559 86.6467 333.182 85.5501C332.192 85.8411 331.161 85.9718 330.129 85.9374C330.152 84.9116 330.422 83.9064 330.914 83.0065C331.407 82.1066 332.108 81.3383 332.959 80.7662C333.876 80.1662 331.607 78.0316 332.407 77.2802C334.048 75.7465 335.149 76.788 336.118 74.7664C336.743 73.5164 337.706 72.467 338.897 71.7379C340.089 71.0087 341.461 70.629 342.857 70.6419C345.643 70.7072 350.635 70.6803 351.716 73.2495C355.161 70.9922 359.956 71.63 363.323 73.998C366.122 75.9586 369.307 81.8849 370.01 85.2303C370.713 88.5757 369.164 98.801 367.392 101.717Z" fill="#2F2E41"/>
<path d="M156.536 64.2067H47.5332C45.5728 64.2319 43.6755 63.5128 42.2234 62.1941C40.7713 60.8754 39.8722 59.055 39.7069 57.0993C39.6363 56.0562 39.7804 55.0097 40.1304 54.0247C40.4805 53.0397 41.0289 52.1371 41.7418 51.3731C42.4547 50.609 43.3168 49.9997 44.2746 49.5829C45.2325 49.1661 46.2656 48.9508 47.31 48.9502H156.536C158.557 48.9502 160.496 49.7539 161.925 51.1845C163.354 52.615 164.157 54.5553 164.157 56.5785C164.157 58.6016 163.354 60.5419 161.925 61.9725C160.496 63.403 158.557 64.2067 156.536 64.2067H156.536Z" fill="#00BFA6"/>
<path d="M219.239 76.6024H40.0081C39.8397 76.6024 39.6781 76.5355 39.559 76.4163C39.4399 76.297 39.373 76.1353 39.373 75.9667C39.373 75.7981 39.4399 75.6365 39.559 75.5173C39.6781 75.398 39.8397 75.3311 40.0081 75.3311H219.239C219.407 75.3311 219.568 75.398 219.688 75.5173C219.807 75.6365 219.874 75.7981 219.874 75.9667C219.874 76.1353 219.807 76.297 219.688 76.4163C219.568 76.5355 219.407 76.6024 219.239 76.6024Z" fill="#E6E6E6"/>
<path d="M211.786 64.5241H47.311C45.2057 64.5241 43.1867 63.6869 41.698 62.1967C40.2094 60.7065 39.373 58.6854 39.373 56.5779C39.373 54.4705 40.2094 52.4494 41.698 50.9592C43.1867 49.469 45.2057 48.6318 47.311 48.6318H211.786C213.891 48.6318 215.91 49.469 217.399 50.9592C218.887 52.4494 219.723 54.4705 219.723 56.5779C219.723 58.6854 218.887 60.7065 217.399 62.1967C215.91 63.6869 213.891 64.5241 211.786 64.5241V64.5241ZM47.311 49.9032C45.5426 49.9032 43.8466 50.6064 42.5961 51.8582C41.3456 53.11 40.6431 54.8077 40.6431 56.5779C40.6431 58.3482 41.3456 60.0459 42.5961 61.2977C43.8466 62.5495 45.5426 63.2527 47.311 63.2527H211.786C213.554 63.2527 215.25 62.5495 216.5 61.2977C217.751 60.0459 218.453 58.3482 218.453 56.5779C218.453 54.8077 217.751 53.11 216.5 51.8582C215.25 50.6064 213.554 49.9032 211.786 49.9032H47.311Z" fill="#3F3D56"/>
<path d="M107.638 123.962H47.5332C45.5728 123.987 43.6755 123.268 42.2234 121.949C40.7713 120.63 39.8722 118.81 39.7069 116.854C39.6363 115.811 39.7804 114.765 40.1304 113.78C40.4805 112.795 41.0289 111.892 41.7418 111.128C42.4547 110.364 43.3168 109.755 44.2746 109.338C45.2325 108.921 46.2656 108.706 47.31 108.705H107.639C109.66 108.705 111.598 109.509 113.027 110.939C114.456 112.37 115.259 114.31 115.259 116.333C115.259 118.356 114.456 120.297 113.027 121.727C111.598 123.158 109.66 123.962 107.639 123.962H107.638Z" fill="#00BFA6"/>
<path d="M219.239 136.357H40.0081C39.8397 136.357 39.6781 136.29 39.559 136.171C39.4399 136.052 39.373 135.89 39.373 135.722C39.373 135.553 39.4399 135.391 39.559 135.272C39.6781 135.153 39.8397 135.086 40.0081 135.086H219.239C219.407 135.086 219.568 135.153 219.688 135.272C219.807 135.391 219.874 135.553 219.874 135.722C219.874 135.89 219.807 136.052 219.688 136.171C219.568 136.29 219.407 136.357 219.239 136.357Z" fill="#E6E6E6"/>
<path d="M211.786 124.279H47.311C45.2057 124.279 43.1867 123.442 41.698 121.952C40.2094 120.461 39.373 118.44 39.373 116.333C39.373 114.225 40.2094 112.204 41.698 110.714C43.1867 109.224 45.2057 108.387 47.311 108.387H211.786C213.891 108.387 215.91 109.224 217.399 110.714C218.887 112.204 219.723 114.225 219.723 116.333C219.723 118.44 218.887 120.461 217.399 121.952C215.91 123.442 213.891 124.279 211.786 124.279ZM47.311 109.658C45.5426 109.658 43.8466 110.361 42.5961 111.613C41.3456 112.865 40.6431 114.563 40.6431 116.333C40.6431 118.103 41.3456 119.801 42.5961 121.053C43.8466 122.304 45.5426 123.008 47.311 123.008H211.786C213.554 123.008 215.25 122.304 216.5 121.053C217.751 119.801 218.453 118.103 218.453 116.333C218.453 114.563 217.751 112.865 216.5 111.613C215.25 110.361 213.554 109.658 211.786 109.658H47.311Z" fill="#3F3D56"/>
<path d="M188.288 183.716H47.5332C45.5728 183.741 43.6755 183.022 42.2234 181.703C40.7713 180.384 39.8722 178.564 39.7069 176.608C39.6363 175.565 39.7804 174.519 40.1304 173.533C40.4805 172.548 41.0289 171.646 41.7418 170.882C42.4547 170.118 43.3168 169.508 44.2746 169.092C45.2325 168.675 46.2656 168.46 47.31 168.459H188.288C190.309 168.459 192.248 169.263 193.677 170.693C195.106 172.124 195.909 174.064 195.909 176.087C195.909 178.11 195.106 180.051 193.677 181.481C192.248 182.912 190.309 183.716 188.288 183.716H188.288Z" fill="#00BFA6"/>
<path d="M219.239 196.112H40.0081C39.8397 196.112 39.6781 196.045 39.559 195.926C39.4399 195.807 39.373 195.645 39.373 195.477C39.373 195.308 39.4399 195.146 39.559 195.027C39.6781 194.908 39.8397 194.841 40.0081 194.841H219.239C219.407 194.841 219.568 194.908 219.688 195.027C219.807 195.146 219.874 195.308 219.874 195.477C219.874 195.645 219.807 195.807 219.688 195.926C219.568 196.045 219.407 196.112 219.239 196.112Z" fill="#E6E6E6"/>
<path d="M211.786 184.034H47.311C45.2057 184.034 43.1867 183.197 41.698 181.706C40.2094 180.216 39.373 178.195 39.373 176.088C39.373 173.98 40.2094 171.959 41.698 170.469C43.1867 168.979 45.2057 168.142 47.311 168.142H211.786C213.891 168.142 215.91 168.979 217.399 170.469C218.887 171.959 219.723 173.98 219.723 176.088C219.723 178.195 218.887 180.216 217.399 181.706C215.91 183.197 213.891 184.034 211.786 184.034V184.034ZM47.311 169.413C45.5426 169.413 43.8466 170.116 42.5961 171.368C41.3456 172.62 40.6431 174.317 40.6431 176.088C40.6431 177.858 41.3456 179.556 42.5961 180.807C43.8466 182.059 45.5426 182.762 47.311 182.762H211.786C213.554 182.762 215.25 182.059 216.5 180.807C217.751 179.556 218.453 177.858 218.453 176.088C218.453 174.317 217.751 172.62 216.5 171.368C215.25 170.116 213.554 169.413 211.786 169.413H47.311Z" fill="#3F3D56"/>
<path d="M146.194 56.4529H144.924V7.47754H236.786V8.74892H146.194V56.4529Z" fill="#CCCCCC"/>
<path d="M240.713 15.1878C244.903 15.1878 248.299 11.7879 248.299 7.59388C248.299 3.39989 244.903 0 240.713 0C236.523 0 233.127 3.39989 233.127 7.59388C233.127 11.7879 236.523 15.1878 240.713 15.1878Z" fill="#CCCCCC"/>
<path d="M102.104 116.208H103.374V88.21H11.5117V89.4813H102.104V116.208Z" fill="#CCCCCC"/>
<path d="M7.58609 95.9202C11.7758 95.9202 15.1722 92.5203 15.1722 88.3263C15.1722 84.1323 11.7758 80.7324 7.58609 80.7324C3.39641 80.7324 0 84.1323 0 88.3263C0 92.5203 3.39641 95.9202 7.58609 95.9202Z" fill="#CCCCCC"/>
<path d="M188.106 178.121H186.836V213.111H264.728V211.84H188.106V178.121Z" fill="#CCCCCC"/>
<path d="M268.654 220.588C272.844 220.588 276.241 217.188 276.241 212.994C276.241 208.8 272.844 205.4 268.654 205.4C264.465 205.4 261.068 208.8 261.068 212.994C261.068 217.188 264.465 220.588 268.654 220.588Z" fill="#CCCCCC"/>
<path d="M444.244 379.805L271.672 380C271.573 380 271.474 379.981 271.382 379.943C271.29 379.905 271.207 379.85 271.136 379.779C271.066 379.709 271.01 379.625 270.972 379.533C270.934 379.441 270.914 379.343 270.914 379.243C270.914 379.144 270.934 379.045 270.972 378.953C271.01 378.861 271.066 378.778 271.136 378.707C271.207 378.637 271.29 378.581 271.382 378.543C271.474 378.505 271.573 378.486 271.672 378.486L444.244 378.291C444.444 378.291 444.636 378.371 444.778 378.513C444.92 378.655 445 378.847 445 379.048C445 379.249 444.92 379.441 444.778 379.583C444.636 379.725 444.444 379.805 444.244 379.805Z" fill="#CACACA"/>
<path d="M374.722 112.839C374.326 112.218 373.704 111.775 372.988 111.605C372.271 111.435 371.517 111.551 370.885 111.928C371.818 110.63 371.115 108.41 369.652 107.513C367.994 106.497 365.9 106.666 363.966 106.868L348.118 108.525C346.291 108.716 344.413 108.922 342.786 109.777C341.159 110.632 339.821 112.3 339.915 114.137C338.673 113.681 337.346 113.501 336.028 113.61C334.725 113.815 333.44 114.768 333.301 116.081C333.078 118.188 335.578 119.404 337.614 119.982C341.395 121.054 345.176 122.127 348.957 123.199L347.791 123.448C355.231 124.099 362.721 123.015 369.671 120.28C371.264 119.651 372.877 118.898 373.992 117.598C375.107 116.297 375.594 114.314 374.722 112.839Z" fill="#D2D2D2"/>
</g>
<defs>
<clipPath id="clip0_266_1671">
<rect width="445" height="380" fill="white"/>
</clipPath>
</defs>
</svg>
