<svg width="432" height="344" viewBox="0 0 432 344" fill="none" xmlns="http://www.w3.org/2000/svg">
<g clip-path="url(#clip0_266_1561)">
<path d="M379.475 333.812L370.495 333.811L366.223 299.186L379.477 299.186L379.475 333.812Z" fill="#FFB6B6"/>
<path d="M379.791 343.177L352.174 343.176V342.827C352.174 336.893 356.987 332.083 362.923 332.082H362.924L367.968 328.257L377.38 332.083L379.791 332.083L379.791 343.177V343.177Z" fill="#2F2E41"/>
<path d="M339.661 333.812L330.68 333.811L326.408 299.186L339.663 299.186L339.661 333.812Z" fill="#FFB6B6"/>
<path d="M339.976 343.177L312.359 343.176V342.827C312.36 336.893 317.172 332.083 323.109 332.082H323.109L328.154 328.257L337.566 332.083L339.977 332.083L339.976 343.177V343.177Z" fill="#2F2E41"/>
<path d="M335.381 140.573L387.195 141.664C387.195 141.664 396.51 156.929 389.398 178.463L390.195 184.46L386.922 193.728L385.286 222.078L386.922 226.439L385.831 234.617C385.831 234.617 390.195 288.59 379.287 315.849L366.197 315.304L361.288 244.183L364.015 238.978L363.47 236.798L356.925 204.087L350.38 220.987V230.378L344.381 237.343C344.381 237.343 346.562 301.674 340.563 314.759H325.908L320.383 227.53L325.837 176.828L324.746 173.557L326.382 171.921L325.291 166.469L335.381 140.573L335.381 140.573V140.573Z" fill="#00BFA6"/>
<path d="M357.47 41.077L373.287 37.2607L377.65 47.6192C377.65 47.6192 400.224 59.6132 401.315 75.9686C401.315 75.9686 404.375 89.053 401.648 95.05C398.921 101.047 387.467 120.128 387.467 120.128C387.467 120.128 397.83 153.384 395.103 155.02C392.376 156.655 327.473 153.384 327.473 150.113C327.473 146.842 338.274 112.496 338.274 112.496L340.562 53.6162L355.288 48.1644L357.47 41.077L357.47 41.077V41.077Z" fill="#1B67A5"/>
<path d="M399.636 175.282C396.326 173.614 394.994 169.58 396.662 166.271C396.83 165.938 397.028 165.63 397.241 165.339L388.439 105.021L400.624 105.411L406.998 164.181C409.308 166.139 410.074 169.486 408.651 172.309C406.983 175.618 402.947 176.949 399.636 175.282H399.636V175.282Z" fill="#FFB6B6"/>
<path d="M284.021 146.814C282.688 143.356 284.412 139.473 287.871 138.141C288.219 138.006 288.572 137.911 288.925 137.838L322.925 87.2363L331.692 95.704L296.933 143.53C297.329 146.532 295.649 149.525 292.698 150.662C289.239 151.994 285.354 150.271 284.021 146.814V146.814Z" fill="#FFB6B6"/>
<path d="M377.433 89.808C373.991 77.9854 379.709 65.9234 392.027 65.9817C395.587 65.9985 398.353 67.0312 399.12 69.8898C401.803 79.895 403.266 94.998 403.266 94.998L406.449 111.078L404.521 114.417L408.54 125.193L406.591 130.291L406.169 156.325L396.352 155.78L385.535 135.933L381.399 133.474C381.399 133.474 384.72 101.385 378.114 92.1456L377.433 89.808H377.433V89.808Z" fill="#1B67A5"/>
<path d="M333.46 60.7119C339.2 49.8174 353.897 47.2368 362.717 55.8329C365.266 58.3175 366.538 60.9812 365.102 63.5697C360.079 72.6295 348.434 82.3842 348.434 82.3842L334.093 105.429L330.386 106.491L325.788 117.033L315.934 128.614L302.882 135.495L295.246 127.862L296.867 118.051L316.517 91.8803C316.517 91.8803 330.655 74.0991 332.325 62.8659L333.46 60.7119V60.7118V60.7119Z" fill="#1B67A5"/>
<path d="M360.476 37.8911C360.837 37.9345 361.197 37.9671 361.556 37.9835C362.67 38.0446 363.772 37.981 364.833 37.8012C368.058 37.2845 370.987 35.7578 373.248 33.5189C375.638 31.1565 377.273 28.0032 377.715 24.4135C378.751 15.9402 372.715 8.22166 364.238 7.18632C355.883 6.15983 348.267 12.0012 347.051 20.28C347.032 20.4082 347.012 20.5309 346.998 20.6585C345.963 29.1372 351.993 36.851 360.476 37.8911V37.8912V37.8911Z" fill="#FFB6B6"/>
<path d="M343.564 19.7125C345.76 20.7979 349.348 17.3855 350.722 19.3488C350.945 18.9245 351.192 18.5142 351.435 18.1262C351.656 17.7789 351.971 17.0377 352.336 16.9108C351.874 18.0242 351.976 19.532 352.455 20.824C354.621 21.6329 357.456 19.8422 359.461 17.724C362.609 14.4027 367.749 22.9195 366.534 27.3271C368.081 25.439 371.437 26.5039 372.574 28.6627C373.711 30.816 371.79 32.5414 371.38 34.9433L374.48 34.5497C376.437 32.645 376.3 29.4356 377.911 27.2281C380.602 23.5338 381.645 19.7644 379.622 15.9516C377.827 12.5804 377.66 8.21733 374.368 6.27372C375.806 5.57078 370.691 6.66894 372.057 4.37814C373.43 2.09214 366.115 1.81468 365.638 3.03939C363.548 0.538881 361.439 -1.10975 358.868 0.893867C356.343 2.86511 356.604 4.93711 353.639 4.75143C352.247 4.66524 352.4 7.25884 351.573 8.38961C350.75 9.51433 347.553 10.2364 347.397 10.116C346.553 9.45557 343.68 15.0777 343.68 15.0777C343.68 15.0777 341.35 18.6125 343.564 19.7125H343.564V19.7125Z" fill="#2F2E41"/>
<path d="M150.03 117.84C201.987 117.84 244.107 159.943 244.107 211.879C244.107 263.815 201.987 305.918 150.03 305.918C98.072 305.918 26.1647 254.425 55.9521 211.879C85.7394 169.333 98.072 117.84 150.03 117.84V117.84Z" fill="#F2F2F2"/>
<path d="M275.948 122.313C275.104 122.313 274.418 122.999 274.418 123.843V172.773C274.418 173.617 275.104 174.303 275.948 174.303C276.791 174.303 277.477 173.617 277.477 172.773V123.843C277.477 122.999 276.791 122.313 275.948 122.313Z" fill="#3F3D56"/>
<path d="M18.9555 85.6152C18.1118 85.6152 17.4258 86.301 17.4258 87.1443V99.377C17.4258 100.22 18.1118 100.906 18.9555 100.906C19.7992 100.906 20.4852 100.22 20.4852 99.377V87.1443C20.4852 86.301 19.7992 85.6152 18.9555 85.6152Z" fill="#3F3D56"/>
<path d="M18.9555 122.313C18.1118 122.313 17.4258 122.999 17.4258 123.843V147.543C17.4258 148.387 18.1118 149.073 18.9555 149.073C19.7992 149.073 20.4852 148.387 20.4852 147.543V123.843C20.4852 122.999 19.7992 122.313 18.9555 122.313Z" fill="#3F3D56"/>
<path d="M18.9555 155.953C18.1118 155.953 17.4258 156.639 17.4258 157.482V181.183C17.4258 182.026 18.1118 182.712 18.9555 182.712C19.7992 182.712 20.4852 182.026 20.4852 181.183V157.482C20.4852 156.639 19.7992 155.953 18.9555 155.953Z" fill="#3F3D56"/>
<path d="M156.151 37.4482C155.307 37.4482 154.621 38.134 154.621 38.9773V62.6782C154.621 63.5215 155.307 64.2073 156.151 64.2073C156.994 64.2073 157.681 63.5215 157.681 62.6782V38.9773C157.681 38.134 156.994 37.4482 156.151 37.4482V37.4482Z" fill="#3F3D56"/>
<path d="M390.499 330.748C392.079 330.847 392.952 328.885 391.757 327.741L391.638 327.268C391.653 327.23 391.669 327.193 391.685 327.155C393.283 323.346 398.699 323.372 400.283 327.187C401.689 330.572 403.48 333.964 403.921 337.543C404.118 339.123 404.029 340.733 403.678 342.284C406.974 335.089 408.708 327.233 408.708 319.332C408.708 317.346 408.599 315.361 408.377 313.381C408.194 311.761 407.942 310.152 407.616 308.557C405.852 299.935 402.033 291.723 396.525 284.864C393.877 283.417 391.669 281.155 390.335 278.444C389.856 277.466 389.481 276.415 389.303 275.343C389.604 275.383 390.439 270.795 390.212 270.514C390.632 269.877 391.383 269.56 391.842 268.938C394.123 265.847 397.266 266.387 398.906 270.588C402.411 272.356 402.445 275.288 400.295 278.108C398.926 279.903 398.738 282.33 397.538 284.251C397.661 284.409 397.79 284.562 397.913 284.72C400.178 287.624 402.137 290.745 403.788 294.024C403.322 290.38 404.011 285.99 405.185 283.16C406.522 279.936 409.029 277.22 411.236 274.433C413.887 271.085 419.323 272.546 419.79 276.79C419.794 276.831 419.799 276.872 419.803 276.913C419.475 277.098 419.154 277.295 418.84 277.502C417.051 278.685 417.669 281.458 419.79 281.785L419.838 281.792C419.719 282.972 419.517 284.143 419.22 285.293C422.052 296.238 415.939 300.225 407.211 300.404C407.018 300.503 406.83 300.601 406.638 300.695C407.522 303.184 408.228 305.737 408.752 308.325C409.221 310.611 409.547 312.922 409.73 315.243C409.958 318.171 409.938 321.114 409.691 324.038L409.706 323.934C410.333 320.714 412.082 317.707 414.621 315.623C418.404 312.517 423.748 311.373 427.829 308.877C429.793 307.675 432.31 309.228 431.968 311.504L431.951 311.613C431.343 311.86 430.75 312.147 430.177 312.468C429.85 312.653 429.528 312.849 429.215 313.056C427.425 314.239 428.044 317.012 430.164 317.339L430.212 317.346C430.247 317.351 430.276 317.356 430.311 317.361C429.268 319.835 427.816 322.132 425.998 324.112C424.228 333.666 416.624 334.573 408.49 331.79H408.485C407.596 335.662 406.297 339.444 404.627 343.049H390.844C390.795 342.896 390.75 342.738 390.706 342.585C391.98 342.664 393.265 342.59 394.52 342.358C393.497 341.104 392.474 339.839 391.452 338.585C391.427 338.561 391.407 338.536 391.388 338.511C390.869 337.869 390.345 337.232 389.826 336.59L389.826 336.589C389.794 334.619 390.03 332.655 390.498 330.748L390.499 330.748L390.499 330.748H390.499Z" fill="#F2F2F2"/>
<path d="M0 343.09C0 343.595 0.405398 344 0.910228 344H430.983C431.487 344 431.893 343.595 431.893 343.09C431.893 342.586 431.487 342.181 430.983 342.181H0.910228C0.405398 342.181 0 342.586 0 343.09Z" fill="#CCCCCC"/>
<path d="M108.897 205.54H55.9531V204.011H108.897C113.496 204.011 117.238 200.27 117.238 195.672V159.89H118.768V195.672C118.768 201.113 114.34 205.54 108.897 205.54H108.897Z" fill="#00BFA6"/>
<path d="M209.92 283.106H89.5039V284.636H209.92V283.106Z" fill="#00BFA6"/>
<path d="M286.32 195.315H222.002C218.531 195.315 215.707 192.492 215.707 189.022V125.515C215.707 122.045 218.531 119.223 222.002 119.223H286.32C289.791 119.223 292.615 122.045 292.615 125.515V189.022C292.615 192.492 289.791 195.315 286.32 195.315Z" fill="#E6E6E6"/>
<path d="M233.979 121.098C224.923 121.098 217.582 128.436 217.582 137.488V187.675C217.582 190.859 220.164 193.44 223.349 193.44H262.678C278.176 193.44 290.739 180.882 290.739 165.391V126.862C290.739 123.679 288.157 121.098 284.972 121.098H233.979V121.098V121.098Z" fill="white"/>
<path d="M271.388 139.552H236.8C236.14 139.552 235.604 139.016 235.604 138.356C235.604 137.697 236.14 137.16 236.8 137.16H271.388C272.048 137.16 272.584 137.697 272.584 138.356C272.584 139.016 272.048 139.552 271.388 139.552Z" fill="#E6E6E6"/>
<path d="M271.388 165.06H236.8C236.14 165.06 235.604 164.524 235.604 163.864C235.604 163.204 236.14 162.668 236.8 162.668H271.388C272.048 162.668 272.584 163.204 272.584 163.864C272.584 164.524 272.048 165.06 271.388 165.06Z" fill="#E6E6E6"/>
<path d="M285.433 152.315H222.755C222.095 152.315 221.559 151.778 221.559 151.119C221.559 150.459 222.096 149.923 222.755 149.923H285.433C286.093 149.923 286.63 150.459 286.63 151.119C286.63 151.778 286.093 152.315 285.433 152.315V152.315Z" fill="#E6E6E6"/>
<path d="M286.074 175.432H263.431C262.771 175.432 262.234 174.896 262.234 174.236C262.234 173.577 262.771 173.04 263.431 173.04H286.074C286.734 173.04 287.27 173.576 287.27 174.236C287.27 174.896 286.734 175.432 286.074 175.432Z" fill="#E6E6E6"/>
<path d="M151.222 321.851H100.149C97.3927 321.851 95.1504 319.61 95.1504 316.854V266.425C95.1504 263.67 97.3927 261.429 100.149 261.429H151.222C153.978 261.429 156.22 263.67 156.22 266.425V316.854C156.22 319.61 153.978 321.851 151.222 321.851H151.222V321.851Z" fill="#E6E6E6"/>
<path d="M109.661 262.917C102.47 262.917 96.6406 268.744 96.6406 275.932V315.784C96.6406 318.312 98.691 320.362 101.22 320.362H132.45C144.756 320.362 154.732 310.39 154.732 298.089V267.495C154.732 264.967 152.682 262.917 150.152 262.917H109.661L109.661 262.917H109.661Z" fill="white"/>
<path d="M139.364 277.573H111.9C111.376 277.573 110.949 277.146 110.949 276.623C110.949 276.099 111.376 275.673 111.9 275.673H139.364C139.888 275.673 140.314 276.099 140.314 276.623C140.314 277.146 139.888 277.573 139.364 277.573Z" fill="#E6E6E6"/>
<path d="M139.364 297.827H111.9C111.376 297.827 110.949 297.401 110.949 296.877C110.949 296.354 111.376 295.928 111.9 295.928H139.364C139.888 295.928 140.314 296.354 140.314 296.877C140.314 297.401 139.888 297.827 139.364 297.827Z" fill="#E6E6E6"/>
<path d="M150.518 287.706H100.747C100.223 287.706 99.7969 287.28 99.7969 286.756C99.7969 286.233 100.223 285.807 100.747 285.807H150.518C151.042 285.807 151.468 286.233 151.468 286.756C151.468 287.28 151.042 287.706 150.518 287.706Z" fill="#E6E6E6"/>
<path d="M151.024 306.064H133.044C132.52 306.064 132.094 305.638 132.094 305.114C132.094 304.59 132.52 304.164 133.044 304.164H151.024C151.548 304.164 151.974 304.59 151.974 305.114C151.974 305.638 151.548 306.064 151.024 306.064Z" fill="#E6E6E6"/>
<path d="M115.524 159.503H77.7532C75.7149 159.503 74.0566 157.846 74.0566 155.808V118.513C74.0566 116.476 75.7149 114.818 77.7532 114.818H115.524C117.562 114.818 119.221 116.476 119.221 118.513V155.808C119.221 157.846 117.562 159.503 115.524 159.503V159.503V159.503Z" fill="#E6E6E6"/>
<path d="M84.7875 115.919C79.4694 115.919 75.1582 120.228 75.1582 125.544V155.017C75.1582 156.886 76.6745 158.402 78.545 158.402H101.641C110.742 158.402 118.119 151.027 118.119 141.93V119.304C118.119 117.435 116.603 115.919 114.733 115.919H84.7875V115.919L84.7875 115.919Z" fill="white"/>
<path d="M106.754 126.757H86.4431C86.0556 126.757 85.7402 126.442 85.7402 126.055C85.7402 125.668 86.0555 125.353 86.4431 125.353H106.754C107.142 125.353 107.457 125.668 107.457 126.055C107.457 126.442 107.142 126.757 106.754 126.757Z" fill="#E6E6E6"/>
<path d="M106.754 141.737H86.4431C86.0556 141.737 85.7402 141.422 85.7402 141.034C85.7402 140.647 86.0555 140.332 86.4431 140.332H106.754C107.142 140.332 107.457 140.647 107.457 141.034C107.457 141.422 107.142 141.737 106.754 141.737Z" fill="#E6E6E6"/>
<path d="M115.002 134.253H78.195C77.8075 134.253 77.4922 133.937 77.4922 133.55C77.4922 133.163 77.8075 132.848 78.195 132.848H115.002C115.39 132.848 115.705 133.163 115.705 133.55C115.705 133.937 115.39 134.253 115.002 134.253Z" fill="#E6E6E6"/>
<path d="M115.379 147.828H102.082C101.694 147.828 101.379 147.513 101.379 147.125C101.379 146.738 101.694 146.423 102.082 146.423H115.379C115.766 146.423 116.081 146.738 116.081 147.125C116.081 147.513 115.766 147.828 115.379 147.828Z" fill="#E6E6E6"/>
<path d="M225.752 206.527C229.976 206.527 233.401 203.104 233.401 198.882C233.401 194.659 229.976 191.236 225.752 191.236C221.528 191.236 218.104 194.659 218.104 198.882C218.104 203.104 221.528 206.527 225.752 206.527Z" fill="#00BFA6"/>
<path d="M117.906 167.535C122.131 167.535 125.555 164.112 125.555 159.89C125.555 155.667 122.131 152.244 117.906 152.244C113.682 152.244 110.258 155.667 110.258 159.89C110.258 164.112 113.682 167.535 117.906 167.535Z" fill="#00BFA6"/>
<path d="M154.619 272.277C158.843 272.277 162.268 268.854 162.268 264.632C162.268 260.409 158.843 256.986 154.619 256.986C150.395 256.986 146.971 260.409 146.971 264.632C146.971 268.854 150.395 272.277 154.619 272.277Z" fill="#00BFA6"/>
<path d="M171.142 60.2858C176.407 60.2858 180.675 56.1096 180.675 50.9579C180.675 45.8062 176.407 41.6299 171.142 41.6299C165.877 41.6299 161.609 45.8062 161.609 50.9579C161.609 56.1096 165.877 60.2858 171.142 60.2858Z" fill="#F2F2F2"/>
<path d="M247.562 47.7671H196.251C194.491 47.7671 193.059 46.3355 193.059 44.5759C193.059 42.8164 194.491 41.3848 196.251 41.3848H247.562C249.322 41.3848 250.754 42.8164 250.754 44.5759C250.754 46.3355 249.322 47.7671 247.562 47.7671V47.7671Z" fill="#F2F2F2"/>
<path d="M287.604 58.5678H196.251C194.491 58.5678 193.059 57.1362 193.059 55.3767C193.059 53.6171 194.491 52.1855 196.251 52.1855H287.604C289.365 52.1855 290.797 53.6171 290.797 55.3767C290.797 57.1362 289.365 58.5678 287.604 58.5678Z" fill="#F2F2F2"/>
<path d="M33.1635 99.4908C36.5708 99.4908 39.3329 96.788 39.3329 93.4539C39.3329 90.1198 36.5708 87.417 33.1635 87.417C29.7563 87.417 26.9941 90.1198 26.9941 93.4539C26.9941 96.788 29.7563 99.4908 33.1635 99.4908Z" fill="#F2F2F2"/>
<path d="M82.6212 91.3883H49.4138C48.2746 91.3883 47.3477 90.4618 47.3477 89.3231C47.3477 88.1843 48.2746 87.2578 49.4138 87.2578H82.6212C83.7604 87.2578 84.6873 88.1843 84.6873 89.3231C84.6873 90.4618 83.7604 91.3883 82.6212 91.3883H82.6212Z" fill="#F2F2F2"/>
<path d="M108.536 98.3786H49.4138C48.2746 98.3786 47.3477 97.4521 47.3477 96.3133C47.3477 95.1746 48.2746 94.248 49.4138 94.248H108.536C109.676 94.248 110.602 95.1746 110.602 96.3133C110.602 97.4521 109.676 98.3786 108.536 98.3786Z" fill="#F2F2F2"/>
<path d="M218.259 314.328C221.666 314.328 224.429 311.625 224.429 308.291C224.429 304.957 221.666 302.254 218.259 302.254C214.852 302.254 212.09 304.957 212.09 308.291C212.09 311.625 214.852 314.328 218.259 314.328Z" fill="#F2F2F2"/>
<path d="M267.717 306.225H234.509C233.37 306.225 232.443 305.299 232.443 304.16C232.443 303.021 233.37 302.095 234.509 302.095H267.717C268.856 302.095 269.783 303.021 269.783 304.16C269.783 305.299 268.856 306.225 267.717 306.225V306.225Z" fill="#F2F2F2"/>
<path d="M293.632 313.215H234.509C233.37 313.215 232.443 312.289 232.443 311.15C232.443 310.011 233.37 309.085 234.509 309.085H293.632C294.771 309.085 295.698 310.011 295.698 311.15C295.698 312.289 294.771 313.215 293.632 313.215V313.215Z" fill="#F2F2F2"/>
<path d="M144.104 119.246H142.574V191.878H144.104V119.246Z" fill="#E6E6E6"/>
<path d="M143.339 196.466C145.874 196.466 147.928 194.412 147.928 191.878C147.928 189.345 145.874 187.291 143.339 187.291C140.805 187.291 138.75 189.345 138.75 191.878C138.75 194.412 140.805 196.466 143.339 196.466Z" fill="#E6E6E6"/>
<path d="M212.941 249.219C215.475 249.219 217.53 247.166 217.53 244.632C217.53 242.099 215.475 240.045 212.941 240.045C210.406 240.045 208.352 242.099 208.352 244.632C208.352 247.166 210.406 249.219 212.941 249.219Z" fill="#E6E6E6"/>
<path d="M89.0325 186.526C91.567 186.526 93.6217 184.472 93.6217 181.939C93.6217 179.405 91.567 177.352 89.0325 177.352C86.498 177.352 84.4434 179.405 84.4434 181.939C84.4434 184.472 86.498 186.526 89.0325 186.526Z" fill="#E6E6E6"/>
<path d="M87.3374 181.946L62.2402 182.705L62.2865 184.234L87.3837 183.475L87.3374 181.946Z" fill="#E6E6E6"/>
<path d="M250.275 262.193H212.219V244.632H213.748V260.664H250.275V262.193Z" fill="#E6E6E6"/>
<path d="M87.1497 236.616C89.6842 236.616 91.7388 234.562 91.7388 232.029C91.7388 229.495 89.6842 227.441 87.1497 227.441C84.6152 227.441 82.5605 229.495 82.5605 232.029C82.5605 234.562 84.6152 236.616 87.1497 236.616Z" fill="#E6E6E6"/>
<path d="M124.029 249.59H85.9727V232.028H87.5024V248.061H124.029V249.59Z" fill="#E6E6E6"/>
<path d="M240.475 214.573H57.6875V216.102H240.475V214.573Z" fill="#E6E6E6"/>
</g>
<defs>
<clipPath id="clip0_266_1561">
<rect width="432" height="344" fill="white"/>
</clipPath>
</defs>
</svg>
