<svg width="408" height="328" viewBox="0 0 408 328" fill="none" xmlns="http://www.w3.org/2000/svg">
<g clip-path="url(#clip0_266_1341)">
<path d="M192.908 304.271C228.222 304.271 261.546 293.204 289.277 272.264L288.431 271.224C260.944 291.979 227.912 302.95 192.908 302.95C157.876 302.95 124.824 291.963 97.3243 271.179L96.4777 272.219C124.221 293.188 157.566 304.271 192.908 304.271V304.271Z" fill="#3F3D56"/>
<path d="M35.9484 259.388C34.5797 259.474 33.8232 257.778 34.8587 256.789L34.9618 256.38C34.9482 256.348 34.9346 256.315 34.9208 256.282C33.5366 252.99 28.8454 253.013 27.473 256.31C26.2548 259.236 24.7039 262.168 24.322 265.262C24.1509 266.627 24.2279 268.019 24.5317 269.359C21.6774 263.14 20.1754 256.35 20.1754 249.52C20.1754 247.804 20.2696 246.089 20.4621 244.377C20.6205 242.977 20.8387 241.586 21.1211 240.207C22.6488 232.755 25.9567 225.657 30.7281 219.728C33.0218 218.477 34.9346 216.523 36.09 214.179C36.5051 213.334 36.8303 212.425 36.9844 211.499C36.7233 211.533 36.0001 207.568 36.197 207.324C35.8332 206.774 35.1822 206.5 34.7849 205.963C32.8089 203.291 30.0866 203.757 28.6655 207.389C25.6296 208.917 25.6002 211.451 27.463 213.889C28.6481 215.44 28.811 217.538 29.8508 219.199C29.7438 219.335 29.6326 219.468 29.5256 219.604C27.5638 222.114 25.867 224.812 24.4366 227.646C24.8409 224.496 24.244 220.701 23.2265 218.255C22.0683 215.469 19.8973 213.121 17.9855 210.712C15.6891 207.818 10.9802 209.081 10.5756 212.75C10.5717 212.785 10.5679 212.821 10.5642 212.856C10.8482 213.016 11.1263 213.186 11.3981 213.365C12.9481 214.387 12.4124 216.784 10.5758 217.067L10.5342 217.073C10.6369 218.093 10.8124 219.105 11.0691 220.099C8.61655 229.56 13.9115 233.005 21.472 233.16C21.6389 233.245 21.8015 233.331 21.9684 233.412C21.2024 235.563 20.5905 237.77 20.1369 240.006C19.7304 241.983 19.4479 243.98 19.2896 245.986C19.0927 248.517 19.1099 251.061 19.3239 253.588L19.311 253.498C18.7676 250.715 17.2527 248.116 15.0531 246.315C11.7765 243.63 7.1471 242.641 3.61215 240.483C1.91052 239.445 -0.269969 240.787 0.0270086 242.755L0.0414855 242.849C0.567829 243.062 1.08129 243.31 1.5777 243.587C1.86166 243.747 2.13987 243.917 2.41162 244.096C3.96163 245.119 3.42593 247.515 1.58934 247.798L1.54773 247.804C1.51779 247.809 1.49211 247.813 1.46221 247.817C2.36513 249.956 3.62321 251.94 5.19798 253.652C6.73152 261.911 13.3181 262.694 20.3637 260.289H20.368C21.1382 263.635 22.2637 266.905 23.7101 270.021H35.6492C35.692 269.888 35.7306 269.752 35.7691 269.619C34.665 269.688 33.5524 269.624 32.4655 269.423C33.3513 268.339 34.2371 267.246 35.1229 266.162C35.1443 266.141 35.1614 266.12 35.1785 266.098C35.6278 265.543 36.0815 264.993 36.5308 264.438L36.531 264.437C36.5591 262.734 36.3544 261.036 35.9488 259.389L35.9484 259.388V259.388Z" fill="#F2F2F2"/>
<path d="M372.024 259.388C373.393 259.474 374.149 257.778 373.114 256.789L373.011 256.38C373.024 256.348 373.038 256.315 373.051 256.282C374.436 252.99 379.127 253.013 380.499 256.31C381.717 259.236 383.268 262.168 383.65 265.262C383.821 266.627 383.744 268.019 383.441 269.359C386.295 263.14 387.797 256.35 387.797 249.52C387.797 247.804 387.703 246.089 387.51 244.377C387.352 242.977 387.134 241.586 386.851 240.207C385.323 232.755 382.016 225.657 377.244 219.728C374.951 218.477 373.038 216.523 371.882 214.179C371.467 213.334 371.142 212.425 370.988 211.499C371.249 211.533 371.972 207.568 371.775 207.324C372.139 206.774 372.79 206.5 373.187 205.963C375.163 203.291 377.886 203.757 379.307 207.389C382.343 208.917 382.372 211.451 380.509 213.889C379.324 215.44 379.161 217.538 378.121 219.199C378.228 219.335 378.34 219.468 378.447 219.604C380.409 222.114 382.105 224.812 383.536 227.646C383.131 224.496 383.728 220.701 384.746 218.255C385.904 215.469 388.075 213.121 389.987 210.712C392.283 207.818 396.992 209.081 397.397 212.75C397.401 212.785 397.404 212.821 397.408 212.856C397.124 213.016 396.846 213.186 396.574 213.365C395.024 214.387 395.56 216.784 397.396 217.067L397.438 217.073C397.335 218.093 397.16 219.105 396.903 220.099C399.356 229.56 394.061 233.005 386.5 233.16C386.333 233.245 386.171 233.331 386.004 233.412C386.77 235.563 387.382 237.77 387.835 240.006C388.242 241.983 388.524 243.98 388.683 245.986C388.88 248.517 388.862 251.061 388.648 253.588L388.661 253.498C389.205 250.715 390.72 248.116 392.919 246.315C396.196 243.63 400.825 242.641 404.36 240.483C406.062 239.445 408.242 240.787 407.945 242.755L407.931 242.849C407.404 243.062 406.891 243.31 406.395 243.587C406.111 243.747 405.832 243.917 405.561 244.096C404.011 245.119 404.546 247.515 406.383 247.798L406.425 247.804C406.455 247.809 406.48 247.813 406.51 247.817C405.607 249.956 404.349 251.94 402.774 253.652C401.241 261.911 394.654 262.694 387.609 260.289H387.604C386.834 263.635 385.709 266.905 384.262 270.021H372.323C372.28 269.888 372.242 269.752 372.203 269.619C373.307 269.688 374.42 269.624 375.507 269.423C374.621 268.339 373.735 267.246 372.849 266.162C372.828 266.141 372.811 266.12 372.794 266.098C372.344 265.543 371.891 264.993 371.442 264.438L371.441 264.437C371.413 262.734 371.618 261.036 372.024 259.389L372.024 259.388V259.388Z" fill="#F2F2F2"/>
<path d="M308.177 271.685L308.734 272.336C330.479 253.838 342.951 226.891 342.951 198.405C342.951 172.456 332.821 148.062 314.426 129.714C296.031 111.367 271.573 101.262 245.558 101.262C219.542 101.262 195.084 111.367 176.689 129.714C158.294 148.062 148.164 172.456 148.164 198.405C148.164 226.891 160.636 253.838 182.381 272.336L182.938 271.685" fill="#F2F2F2"/>
<path d="M94.9955 271.307L95.8554 270.302C62.5714 241.988 43.4823 200.742 43.4823 157.141C43.4823 75.1541 110.356 8.45302 192.554 8.45302C274.753 8.45302 341.626 75.1541 341.626 157.141C341.626 200.742 322.537 241.988 289.253 270.302L290.113 271.307C323.692 242.742 342.951 201.13 342.951 157.141C342.951 117.071 327.307 79.3999 298.902 51.0672C270.496 22.7349 232.728 7.13135 192.554 7.13135C152.38 7.13135 114.612 22.7349 86.2065 51.0672C57.801 79.3998 42.1572 117.071 42.1572 157.141C42.1572 201.13 61.4162 242.742 94.9955 271.307V271.307Z" fill="#3F3D56"/>
<path d="M146.297 271.043C146.297 271.479 145.946 271.829 145.508 271.829H0.882172C0.444914 271.829 0.0937454 271.479 0.0937454 271.043C0.0937454 270.607 0.444914 270.256 0.882172 270.256H145.508C145.946 270.256 146.297 270.607 146.297 271.043Z" fill="#CCCCCC"/>
<path d="M191.892 7.79248H193.217V53.6557H191.892V7.79248Z" fill="#3F3D56"/>
<path d="M295.446 154.961H341.428V156.283H295.446V154.961Z" fill="#3F3D56"/>
<path d="M290.721 44.2599L291.748 45.0957L262.675 80.6275L261.648 79.7917L290.721 44.2599Z" fill="#3F3D56"/>
<path d="M277.86 216.602L313.477 245.609L312.639 246.633L277.022 217.626L277.86 216.602Z" fill="#3F3D56"/>
<path d="M43.6828 154.961H89.6641V156.283H43.6828V154.961Z" fill="#3F3D56"/>
<path d="M94.3904 44.2593L123.461 79.793L122.434 80.6287L93.3636 45.095L94.3904 44.2593Z" fill="#3F3D56"/>
<path d="M107.254 216.606L108.092 217.63L72.4679 246.629L71.6302 245.605L107.254 216.606Z" fill="#3F3D56"/>
<path d="M192.554 171.018C182.309 171.018 174.003 162.734 174.003 152.515C174.003 142.296 182.309 134.012 192.554 134.012C202.8 134.012 211.105 142.296 211.105 152.515C211.105 162.734 202.8 171.018 192.554 171.018Z" fill="#3F3D56"/>
<path d="M107.087 223.225C103.428 223.225 100.462 220.266 100.462 216.616C100.462 212.966 103.428 210.008 107.087 210.008C110.747 210.008 113.713 212.966 113.713 216.616C113.713 220.266 110.747 223.225 107.087 223.225Z" fill="#3F3D56"/>
<path d="M92.5113 163.749C88.8522 163.749 85.8859 160.791 85.8859 157.141C85.8859 153.491 88.8522 150.533 92.5113 150.533C96.1704 150.533 99.1367 153.491 99.1367 157.141C99.1367 160.791 96.1704 163.749 92.5113 163.749Z" fill="#3F3D56"/>
<path d="M124.314 87.0927C120.655 87.0927 117.689 84.134 117.689 80.4843C117.689 76.8346 120.655 73.876 124.314 73.876C127.973 73.876 130.939 76.8346 130.939 80.4843C130.939 84.134 127.973 87.0927 124.314 87.0927Z" fill="#3F3D56"/>
<path d="M193.218 61.9809C189.559 61.9809 186.593 59.0222 186.593 55.3725C186.593 51.7228 189.559 48.7642 193.218 48.7642C196.877 48.7642 199.844 51.7228 199.844 55.3725C199.844 59.0222 196.877 61.9809 193.218 61.9809Z" fill="#3F3D56"/>
<path d="M261.459 87.0927C257.799 87.0927 254.833 84.134 254.833 80.4843C254.833 76.8346 257.799 73.876 261.459 73.876C265.118 73.876 268.084 76.8346 268.084 80.4843C268.084 84.134 265.118 87.0927 261.459 87.0927Z" fill="#3F3D56"/>
<path d="M295.25 161.767C291.59 161.767 288.624 158.808 288.624 155.158C288.624 151.508 291.59 148.55 295.25 148.55C298.909 148.55 301.875 151.508 301.875 155.158C301.875 158.808 298.909 161.767 295.25 161.767Z" fill="#3F3D56"/>
<path d="M276.699 222.563C273.04 222.563 270.073 219.605 270.073 215.955C270.073 212.305 273.04 209.347 276.699 209.347C280.358 209.347 283.324 212.305 283.324 215.955C283.324 219.605 280.358 222.563 276.699 222.563Z" fill="#3F3D56"/>
<path d="M228.955 160.473C225.296 160.473 222.329 157.514 222.329 153.865C222.329 150.215 225.296 147.256 228.955 147.256C232.614 147.256 235.58 150.215 235.58 153.865C235.58 157.514 232.614 160.473 228.955 160.473Z" fill="#3F3D56"/>
<path d="M76.0477 142.439L224.32 148.807C226.879 148.917 228.864 151.075 228.754 153.628L228.754 153.628C228.643 156.18 226.48 158.16 223.921 158.05L75.6486 151.682C73.0896 151.572 71.1045 149.414 71.2147 146.861C71.3249 144.309 73.4887 142.329 76.0477 142.439Z" fill="#00BFA6"/>
<path d="M141.616 322.303L149.344 322.302L153.02 292.574L141.615 292.575L141.616 322.303Z" fill="#A0616A"/>
<path d="M168.089 322.128C168.33 322.532 168.457 323.836 168.457 324.306C168.457 325.751 167.283 326.922 165.834 326.922H141.904C140.916 326.922 140.115 326.123 140.115 325.138V324.144C140.115 324.144 138.931 321.157 141.369 317.476C141.369 317.476 144.398 320.359 148.924 315.844L150.259 313.432L159.921 320.48L165.276 321.138C166.448 321.282 167.487 321.115 168.089 322.128V322.128Z" fill="#2F2E41"/>
<path d="M100.925 322.303L108.652 322.302L112.328 292.574L100.924 292.575L100.925 322.303Z" fill="#A0616A"/>
<path d="M127.398 322.128C127.639 322.532 127.766 323.836 127.766 324.306C127.766 325.751 126.591 326.922 125.143 326.922H101.213C100.225 326.922 99.4237 326.123 99.4237 325.138V324.144C99.4237 324.144 98.2399 321.157 100.677 317.476C100.677 317.476 103.706 320.359 108.233 315.844L109.567 313.432L119.229 320.48L124.585 321.138C125.757 321.282 126.795 321.115 127.398 322.128V322.128Z" fill="#2F2E41"/>
<path d="M82.9618 82.9947L82.1439 117.909L89.7201 149.333L96.7734 146.996L94.7189 118.369L96.5264 79.7949L82.9618 82.9947Z" fill="#A0616A"/>
<path d="M89.5677 154.351C88.9136 149.848 90.5562 145.884 93.2367 145.496C95.9172 145.109 98.6204 148.445 99.2745 152.948C99.9287 157.451 98.286 161.415 95.6056 161.803C92.9251 162.19 90.2218 158.854 89.5677 154.351Z" fill="#A0616A"/>
<path d="M100.793 51.4092C100.793 51.4092 87.7931 51.3797 85.5977 58.9775C83.315 66.8775 79.6736 96.3422 81.2486 96.3439L97.4788 98.3899L100.793 51.4092Z" fill="#00BFA6"/>
<path d="M151.031 86.716L158.195 120.901L172.737 149.784L179.072 145.908L170.545 118.497L159.536 80.5234L151.031 86.716Z" fill="#A0616A"/>
<path d="M173.732 154.705C172.068 150.468 172.764 146.235 175.286 145.25C177.808 144.265 181.201 146.9 182.865 151.137C184.528 155.373 183.833 159.606 181.311 160.592C178.789 161.577 175.396 158.941 173.732 154.705Z" fill="#A0616A"/>
<path d="M153.347 52.8154C153.347 52.8154 146.238 55.9775 144.25 63.6319C142.442 70.5946 137.972 101.234 151.107 99.7958L167.67 98.4742C167.788 82.2124 160.75 66.88 153.347 52.8154V52.8154Z" fill="#00BFA6"/>
<path d="M155.453 152.515L158.104 176.305L156.778 243.154L154.128 305.829H140.111L124.314 191.504L114.068 305.829H97.7914L93.1744 228.511C93.1744 228.511 89.8617 156.48 95.8246 150.533C101.787 144.585 155.453 152.515 155.453 152.515Z" fill="#2F2E41"/>
<path d="M111.394 39.1821H133.099L137.896 45.7905C137.896 45.7905 147.172 47.1121 153.134 53.0597L153.797 116.5L158.104 157.984L93.1796 156.15L97.1497 133.351L94.5047 53.3328C94.5047 53.3328 101.456 45.1296 106.094 46.4513L111.394 39.1821V39.1821Z" fill="#00BFA6"/>
<path d="M127.756 35.6488C118.787 35.6488 111.516 28.3965 111.516 19.4504C111.516 10.5042 118.787 3.25195 127.756 3.25195C136.725 3.25195 143.996 10.5042 143.996 19.4504C143.996 28.3965 136.725 35.6488 127.756 35.6488Z" fill="#A0616A"/>
<path d="M113.802 4.36661C115.619 2.77068 118.112 1.85193 120.491 2.01476C121.933 2.11345 123.334 1.66113 124.614 0.991715C124.701 0.946395 124.789 0.905132 124.879 0.868159C125.686 0.535468 126.583 0.49819 127.456 0.519297C129.048 0.557791 130.93 -1.03411 132.176 1.17357C136.893 0.287562 137.328 3.02152 139.523 4.63256C140.145 4.26664 144.168 4.93324 144.591 5.59161C144.914 6.09298 145.138 6.60378 145.29 7.09979C145.387 7.41796 144.798 8.57881 144.843 8.87841C144.888 9.17801 145.566 8.61638 145.571 8.88464C145.586 9.60271 145.486 10.1856 145.402 10.5106C145.186 11.3403 147.395 10.2774 148.119 10.7378C148.844 11.1982 148.105 13.3283 148.814 13.8128C149.66 14.3907 149.1 15.0296 148.363 15.785C147.855 16.3056 147.262 16.8816 146.988 17.5311C146.317 19.1232 150.008 20.534 148.309 20.1976C146.556 19.8504 145.984 22.5721 144.509 21.5652C141.172 19.2874 141.293 19.4743 138.38 22.2721C137.572 23.049 135.983 20.0067 134.914 20.3481C132.899 20.9915 131.253 23.1478 129.922 26.4072C129.734 26.8685 131.519 34.3952 131.601 34.8865C131.792 36.031 126.45 33.4485 126.464 34.6968C126.483 36.3443 123.546 34.2676 122.701 35.7116C122.595 35.58 116.639 32.8783 116.354 32.6685L112.227 28.6899C109.522 24.0724 108.489 18.5034 109.359 13.2263C109.907 9.90257 111.268 6.59281 113.802 4.36661H113.802Z" fill="#2F2E41"/>
<path d="M193.336 327.214C193.336 327.65 192.985 328 192.547 328H47.9212C47.484 328 47.1328 327.65 47.1328 327.214C47.1328 326.778 47.484 326.427 47.9212 326.427H192.547C192.985 326.427 193.336 326.778 193.336 327.214Z" fill="#CCCCCC"/>
<path d="M408 271.043C408 271.479 407.649 271.829 407.212 271.829H262.585C262.148 271.829 261.797 271.479 261.797 271.043C261.797 270.607 262.148 270.256 262.585 270.256H407.212C407.649 270.256 408 270.607 408 271.043Z" fill="#CCCCCC"/>
</g>
<defs>
<clipPath id="clip0_266_1341">
<rect width="408" height="328" fill="white" transform="matrix(-1 0 0 1 408 0)"/>
</clipPath>
</defs>
</svg>
