<svg width="399" height="299" viewBox="0 0 399 299" fill="none" xmlns="http://www.w3.org/2000/svg">
<g clip-path="url(#clip0_266_1234)">
<path d="M277.22 29.9877C285.513 29.9877 292.236 23.2747 292.236 14.9939C292.236 6.71298 285.513 0 277.22 0C268.926 0 262.203 6.71298 262.203 14.9939C262.203 23.2747 268.926 29.9877 277.22 29.9877Z" fill="#00BFA6"/>
<path d="M317.474 286.291L312.066 286.402L309.051 265.164L317.032 264.999L317.474 286.291Z" fill="#FFB6B6"/>
<path d="M300.407 295.379C300.436 296.712 301.54 297.77 302.874 297.744L313.627 297.521L315.398 293.658L316.201 297.466L320.258 297.384L318.835 283.76L317.421 283.708L311.654 283.479L309.793 283.409L309.873 287.273L301.408 293.372C300.765 293.837 300.39 294.587 300.407 295.379V295.379Z" fill="#2F2E41"/>
<path d="M353.869 286.291L348.46 286.402L345.445 265.164L353.427 264.999L353.869 286.291Z" fill="#FFB6B6"/>
<path d="M336.801 295.379C336.83 296.712 337.934 297.77 339.269 297.744L350.021 297.521L351.792 293.658L352.595 297.466L356.652 297.384L355.23 283.76L353.816 283.708L348.048 283.479L346.187 283.409L346.268 287.273L337.803 293.372C337.159 293.837 336.785 294.587 336.801 295.379V295.379Z" fill="#2F2E41"/>
<path d="M322.924 122.998L352.703 122.172L351.049 124.65L354.817 128.366C354.817 128.366 368.419 146.95 364.284 163.881C360.148 180.813 362.476 280.911 362.476 280.911L338.227 278.272L340.916 177.302L321.063 215.295L326.836 276.887L306.174 276.826L299.557 210.339L322.924 122.998V122.998Z" fill="#2F5675"/>
<path d="M198.355 43.1158C198.467 43.3915 198.854 43.3915 198.966 43.1157C199.747 41.1918 200.86 39.0372 202.07 37.3907C202.264 37.1271 201.997 36.7748 201.689 36.886L199.095 37.8233V21.7866H198.226V37.8233L195.631 36.8859C195.323 36.7747 195.056 37.127 195.249 37.3906C196.46 39.0372 197.573 41.1918 198.355 43.1158H198.355Z" fill="#3F3D56"/>
<path d="M215.37 59.6273C215.286 59.9128 215.589 60.1531 215.848 60.0067C217.659 58.9854 219.872 57.9892 221.845 57.4514C222.161 57.3653 222.172 56.9235 221.861 56.8194L219.246 55.9422L229.234 43.3841L228.554 42.8447L218.565 55.4029L217.117 53.0572C216.945 52.7788 216.516 52.8888 216.504 53.2156C216.426 55.2566 215.956 57.635 215.37 59.6273V59.6273Z" fill="#3F3D56"/>
<path d="M278.806 88.9284L294.845 87.0825L297.179 96.0836L280.153 97.4327C279.79 97.8074 279.368 98.1365 278.889 98.4026C276.28 99.8498 272.99 98.9113 271.54 96.3063C270.091 93.7014 271.031 90.4164 273.64 88.9692C275.304 88.0463 277.243 88.0973 278.806 88.9284V88.9284Z" fill="#FFB6B6"/>
<path d="M355.601 68.1674L349.324 58.6562C348.183 59.5609 347.182 60.4705 346.426 61.2752L345.124 62.1698L340.92 65.9233L329.016 76.5339L325.057 80.0675L320.637 80.8422L310.881 82.5565L296.107 86.526L285.228 87.2296C285.223 87.4495 285.223 87.7794 285.223 88.1892C285.218 90.3233 285.268 94.6415 285.688 96.9956C285.834 97.8152 286.024 98.395 286.274 98.5699C286.354 98.6249 294.686 96.0271 295.106 96.0221C298.495 96.0171 304.159 96.9456 315.587 95.4612C322.374 94.5716 328.351 93.7619 330.864 93.417L330.919 93.4071L332.736 92.5274L352.683 82.8813L358.704 79.9675C358.204 75.9392 357.168 71.9658 355.601 68.1674V68.1674Z" fill="#00BFA6"/>
<path d="M11.3576 13.9648C5.08496 13.9648 0 19.0421 0 25.3052V217.382H1.00111V92.7726C1.00111 49.8002 35.8898 14.9644 78.9274 14.9644L277.99 14.7827L277.808 13.9648H11.3576Z" fill="#2F5675"/>
<path d="M63.9244 45.8793C66.2622 45.8793 68.1574 43.9449 68.1574 41.5586C68.1574 39.1723 66.2622 37.2378 63.9244 37.2378C61.5866 37.2378 59.6914 39.1723 59.6914 41.5586C59.6914 43.9449 61.5866 45.8793 63.9244 45.8793Z" fill="#2F5675"/>
<path d="M78.5474 45.8793C80.8853 45.8793 82.7804 43.9449 82.7804 41.5586C82.7804 39.1723 80.8853 37.2378 78.5474 37.2378C76.2096 37.2378 74.3145 39.1723 74.3145 41.5586C74.3145 43.9449 76.2096 45.8793 78.5474 45.8793Z" fill="#2F5675"/>
<path d="M93.1705 45.8793C95.5083 45.8793 97.4035 43.9449 97.4035 41.5586C97.4035 39.1723 95.5083 37.2378 93.1705 37.2378C90.8327 37.2378 88.9375 39.1723 88.9375 41.5586C88.9375 43.9449 90.8327 45.8793 93.1705 45.8793Z" fill="#2F5675"/>
<path d="M166.942 92.4624C160.669 92.4624 155.584 97.5396 155.584 103.803L155.584 185.924H156.585V171.27C156.585 128.298 191.474 93.462 234.511 93.462L306.934 93.2803L306.752 92.4625L166.942 92.4624V92.4624Z" fill="#F2F2F2"/>
<path d="M208.995 143.428C208.443 143.428 207.994 143.876 207.994 144.427V159.921C207.994 160.472 208.443 160.921 208.995 160.921C209.547 160.921 209.996 160.472 209.996 159.921V144.427C209.996 143.876 209.547 143.428 208.995 143.428Z" fill="#3F3D56"/>
<path d="M218.807 158.357C222.252 158.357 225.045 155.627 225.045 152.259C225.045 148.892 222.252 146.162 218.807 146.162C215.361 146.162 212.568 148.892 212.568 152.259C212.568 155.627 215.361 158.357 218.807 158.357Z" fill="#00BFA6"/>
<path d="M268.817 150.173L235.238 150.173C234.086 150.173 233.148 149.237 233.148 148.087C233.148 146.937 234.086 146.001 235.238 146.001L268.817 146.001C269.969 146.001 270.907 146.937 270.907 148.087C270.907 149.237 269.969 150.173 268.817 150.173Z" fill="#F2F2F2"/>
<path d="M295.023 157.234L235.238 157.234C234.086 157.234 233.148 156.298 233.148 155.148C233.148 153.997 234.086 153.062 235.238 153.062L295.023 153.062C296.175 153.062 297.112 153.997 297.112 155.148C297.112 156.298 296.175 157.234 295.023 157.234Z" fill="#F2F2F2"/>
<path d="M212.088 116.851C214.426 116.851 216.321 114.916 216.321 112.53C216.321 110.143 214.426 108.209 212.088 108.209C209.751 108.209 207.855 110.143 207.855 112.53C207.855 114.916 209.751 116.851 212.088 116.851Z" fill="#F2F2F2"/>
<path d="M226.71 116.851C229.047 116.851 230.943 114.916 230.943 112.53C230.943 110.143 229.047 108.209 226.71 108.209C224.372 108.209 222.477 110.143 222.477 112.53C222.477 114.916 224.372 116.851 226.71 116.851Z" fill="#F2F2F2"/>
<path d="M241.335 116.851C243.672 116.851 245.568 114.916 245.568 112.53C245.568 110.143 243.672 108.209 241.335 108.209C238.997 108.209 237.102 110.143 237.102 112.53C237.102 114.916 238.997 116.851 241.335 116.851Z" fill="#F2F2F2"/>
<path d="M45.2277 84.668C44.6755 84.668 44.2266 85.1163 44.2266 85.6676V101.161C44.2266 101.713 44.6755 102.161 45.2277 102.161C45.7798 102.161 46.2288 101.713 46.2288 101.161V85.6676C46.2288 85.1163 45.7798 84.668 45.2277 84.668Z" fill="#3F3D56"/>
<path d="M55.0393 99.5976C58.4848 99.5976 61.2779 96.8675 61.2779 93.4997C61.2779 90.132 58.4848 87.4019 55.0393 87.4019C51.5939 87.4019 48.8008 90.132 48.8008 93.4997C48.8008 96.8675 51.5939 99.5976 55.0393 99.5976Z" fill="#00BFA6"/>
<path d="M105.052 91.4134H71.4721C70.3201 91.4134 69.3828 90.4776 69.3828 89.3273C69.3828 88.1771 70.3201 87.2412 71.4721 87.2412H105.052C106.204 87.2412 107.141 88.1771 107.141 89.3273C107.141 90.4776 106.204 91.4134 105.052 91.4134Z" fill="#F2F2F2"/>
<path d="M131.257 98.474H71.4721C70.3201 98.474 69.3828 97.5381 69.3828 96.3879C69.3828 95.2376 70.3201 94.3018 71.4721 94.3018H131.257C132.409 94.3018 133.347 95.2376 133.347 96.3879C133.347 97.5381 132.409 98.474 131.257 98.474Z" fill="#F2F2F2"/>
<path d="M45.2277 127.65C44.6755 127.65 44.2266 128.099 44.2266 128.65V144.144C44.2266 144.695 44.6755 145.143 45.2277 145.143C45.7798 145.143 46.2288 144.695 46.2288 144.144V128.65C46.2288 128.099 45.7798 127.65 45.2277 127.65Z" fill="#3F3D56"/>
<path d="M55.0393 142.58C58.4848 142.58 61.2779 139.85 61.2779 136.482C61.2779 133.114 58.4848 130.384 55.0393 130.384C51.5939 130.384 48.8008 133.114 48.8008 136.482C48.8008 139.85 51.5939 142.58 55.0393 142.58Z" fill="#00BFA6"/>
<path d="M105.052 134.396H71.4721C70.3201 134.396 69.3828 133.46 69.3828 132.31C69.3828 131.159 70.3201 130.224 71.4721 130.224H105.052C106.204 130.224 107.141 131.159 107.141 132.31C107.141 133.46 106.204 134.396 105.052 134.396Z" fill="#F2F2F2"/>
<path d="M131.257 141.456H71.4721C70.3201 141.456 69.3828 140.521 69.3828 139.37C69.3828 138.22 70.3201 137.284 71.4721 137.284H131.257C132.409 137.284 133.347 138.22 133.347 139.37C133.347 140.521 132.409 141.456 131.257 141.456Z" fill="#F2F2F2"/>
<path d="M45.2277 170.633C44.6755 170.633 44.2266 171.081 44.2266 171.632V187.126C44.2266 187.677 44.6755 188.126 45.2277 188.126C45.7798 188.126 46.2288 187.677 46.2288 187.126V171.632C46.2288 171.081 45.7798 170.633 45.2277 170.633Z" fill="#3F3D56"/>
<path d="M55.0393 185.562C58.4848 185.562 61.2779 182.832 61.2779 179.465C61.2779 176.097 58.4848 173.367 55.0393 173.367C51.5939 173.367 48.8008 176.097 48.8008 179.465C48.8008 182.832 51.5939 185.562 55.0393 185.562Z" fill="#00BFA6"/>
<path d="M105.052 177.378H71.4721C70.3201 177.378 69.3828 176.442 69.3828 175.292C69.3828 174.142 70.3201 173.206 71.4721 173.206H105.052C106.204 173.206 107.141 174.142 107.141 175.292C107.141 176.442 106.204 177.378 105.052 177.378Z" fill="#F2F2F2"/>
<path d="M131.257 184.439H71.4721C70.3201 184.439 69.3828 183.503 69.3828 182.353C69.3828 181.202 70.3201 180.267 71.4721 180.267H131.257C132.409 180.267 133.347 181.202 133.347 182.353C133.347 183.503 132.409 184.439 131.257 184.439Z" fill="#F2F2F2"/>
<path d="M360.678 139.004C360.059 143.711 327.967 132.567 324.138 130.508C316.975 126.664 324.469 130.606 324.469 130.606L323.637 107.017L322.769 92.9621C322.769 92.9621 322.284 89.2286 321.268 84.4656C321.037 83.396 320.792 82.1565 320.637 80.842C320.196 77.0486 320.532 72.6404 324.271 69.9715L337.31 50.5594L343.732 50.1846L349.324 58.6561L355.601 68.1672C357.167 71.9657 358.203 75.939 358.704 79.9674C358.939 81.8516 359.059 83.7509 359.059 85.6551C359.059 89.0087 358.694 92.3723 357.953 95.681L354.024 106.681C354.024 106.681 353.529 108.543 355.255 109.585C358.757 111.7 351.668 117.513 356.006 124.714C356.006 124.714 355.601 128.023 357.533 128.313C359.465 128.608 360.939 137.022 360.678 139.004V139.004Z" fill="#00BFA6"/>
<path d="M298.332 150.313L307.855 137.295L316.061 141.689L305.503 155.095C305.533 155.615 305.489 156.148 305.359 156.68C304.654 159.576 301.732 161.352 298.832 160.648C295.932 159.944 294.152 157.026 294.857 154.131C295.307 152.284 296.66 150.896 298.332 150.313V150.313Z" fill="#FFB6B6"/>
<path d="M338.55 68.1947C336.377 66.6343 333.833 65.5306 331.033 65.0408C327.212 64.3753 325.07 69.8647 324.227 75.2186C323.84 77.7 323.726 80.1537 323.859 81.9448L323.634 83.5114L323.502 91.6216L323.192 110.371L313.627 124.51L309.623 134.006L301.439 144.45C301.599 144.604 301.843 144.828 302.144 145.109C303.714 146.558 306.917 149.449 308.937 150.738C309.639 151.183 310.192 151.436 310.49 151.374C310.584 151.353 316.346 145.811 316.63 145.502C318.542 143.424 318.918 140.636 324.697 132.533C329.96 125.158 335.093 117.825 336.947 115.171L336.981 115.123L345.312 87.6865L346.07 85.1994C346.878 78.3882 343.805 71.9636 338.55 68.1947V68.1947Z" fill="#00BFA6"/>
<path d="M333.824 68.6056C333.809 68.5996 333.795 68.5925 333.779 68.5864C333.65 68.5971 333.523 68.6048 333.398 68.6056H333.824Z" fill="#2F2E41"/>
<path d="M337.562 47.0601C345.604 47.0601 352.122 40.5512 352.122 32.522C352.122 24.4928 345.604 17.9839 337.562 17.9839C329.521 17.9839 323.002 24.4928 323.002 32.522C323.002 40.5512 329.521 47.0601 337.562 47.0601Z" fill="#FFB6B6"/>
<path d="M317.847 28.4811C316.864 21.4334 319.73 19.2772 324.214 18.6385C333.085 14.035 335.117 15.1922 337.93 15.6918L338.964 15.4698C342.136 14.7884 343.286 15.0791 346.107 16.1438C352.057 18.384 355.966 24.0645 356.399 30.3987C356.697 34.7653 355.326 35.4451 357.861 38.9913C359.981 41.9519 358.36 46.1072 354.8 46.8718L351.488 51.8727C350.681 50.8546 350.036 49.7877 349.305 48.4508C349.017 49.6436 348.985 51.0095 349.135 52.378C345.837 54.0183 342.236 54.6971 338.417 54.6806C337.803 53.8632 337.252 52.9529 337.325 51.9273C337.113 52.9549 336.854 53.9787 336.809 55.0261C334.406 53.4814 332.421 53.9352 330.835 56.3094C326.83 52.9953 326.517 45.4015 331.277 43.4993C335.304 41.8901 328.951 30.6245 324.62 30.3948C324.592 30.3933 323.438 34.7489 323.397 34.6671C322.786 33.4464 323.066 32.7773 322.335 31.4404C322.095 32.446 322.03 33.5723 322.109 34.7187C321.077 34.4937 320.032 34.1644 318.977 33.7254C317.754 32.0665 317.281 30.3286 317.847 28.4811V28.4811Z" fill="#2F2E41"/>
<path d="M371.841 290.337C372.875 290.402 373.447 289.119 372.665 288.371L372.587 288.062C372.597 288.037 372.607 288.013 372.618 287.988C373.663 285.498 377.208 285.515 378.245 288.009C379.165 290.222 380.337 292.439 380.625 294.779C380.754 295.812 380.696 296.864 380.467 297.878C382.623 293.175 383.758 288.039 383.758 282.874C383.758 281.576 383.687 280.278 383.541 278.984C383.422 277.925 383.257 276.873 383.043 275.83C381.889 270.194 379.39 264.825 375.785 260.342C374.052 259.396 372.607 257.917 371.734 256.145C371.421 255.506 371.175 254.818 371.059 254.118C371.256 254.144 371.802 251.145 371.653 250.961C371.928 250.544 372.42 250.337 372.72 249.931C374.213 247.91 376.27 248.263 377.344 251.009C379.637 252.165 379.659 254.082 378.252 255.926C377.357 257.098 377.234 258.686 376.448 259.941C376.529 260.045 376.613 260.145 376.694 260.248C378.176 262.146 379.458 264.186 380.539 266.33C380.233 263.948 380.684 261.078 381.453 259.228C382.328 257.12 383.968 255.345 385.412 253.523C387.147 251.334 390.705 252.289 391.011 255.064C391.014 255.091 391.016 255.117 391.019 255.144C390.805 255.265 390.595 255.394 390.389 255.529C389.218 256.302 389.623 258.115 391.01 258.329L391.042 258.334C390.964 259.105 390.832 259.87 390.638 260.622C392.491 267.777 388.49 270.383 382.778 270.5C382.652 270.565 382.529 270.63 382.403 270.691C382.982 272.318 383.444 273.987 383.787 275.678C384.094 277.173 384.308 278.684 384.427 280.201C384.576 282.115 384.563 284.039 384.401 285.95L384.411 285.882C384.822 283.778 385.966 281.812 387.628 280.449C390.103 278.419 393.601 277.671 396.272 276.039C397.557 275.253 399.204 276.269 398.98 277.757L398.969 277.828C398.572 277.99 398.184 278.177 397.809 278.387C397.594 278.508 397.384 278.636 397.179 278.772C396.007 279.545 396.412 281.357 397.8 281.571L397.831 281.576C397.854 281.579 397.873 281.583 397.896 281.586C397.214 283.203 396.263 284.704 395.073 285.999C393.915 292.245 388.939 292.837 383.616 291.018H383.612C383.03 293.549 382.18 296.022 381.087 298.378H372.067C372.035 298.278 372.006 298.175 371.977 298.075C372.811 298.127 373.651 298.078 374.473 297.927C373.803 297.107 373.134 296.28 372.465 295.46C372.449 295.444 372.436 295.428 372.423 295.412C372.083 294.992 371.741 294.576 371.401 294.156L371.401 294.156C371.38 292.867 371.535 291.583 371.841 290.337L371.841 290.337V290.337Z" fill="#F2F2F2"/>
<path d="M270.953 298.405C270.953 298.735 271.218 299 271.549 299H398.334C398.665 299 398.93 298.735 398.93 298.405C398.93 298.075 398.665 297.811 398.334 297.811H271.549C271.218 297.811 270.953 298.075 270.953 298.405Z" fill="#CCCCCC"/>
<path d="M207.242 70.3295H190.363C189.315 70.3295 188.462 69.4782 188.462 68.4318C186.23 61.9186 186.274 55.5366 188.462 49.2781C188.462 48.2317 189.315 47.3804 190.363 47.3804H207.242C208.29 47.3804 209.143 48.2317 209.143 49.2781V68.4318C209.143 69.4782 208.29 70.3295 207.242 70.3295Z" fill="#E6E6E6"/>
<path d="M193.978 47.9458C191.244 47.9458 189.027 50.159 189.027 52.8892V68.0254C189.027 68.9856 189.807 69.7641 190.769 69.7641H200.103C204.782 69.7641 208.575 65.9766 208.575 61.3045V49.6845C208.575 48.7242 207.796 47.9458 206.834 47.9458H193.978V47.9458Z" fill="white"/>
<path d="M202.733 53.512H194.83C194.631 53.512 194.469 53.3502 194.469 53.1513C194.469 52.9523 194.631 52.7905 194.83 52.7905H202.733C202.932 52.7905 203.094 52.9523 203.094 53.1513C203.094 53.3502 202.932 53.512 202.733 53.512Z" fill="#E6E6E6"/>
<path d="M202.733 61.2049H194.83C194.631 61.2049 194.469 61.043 194.469 60.8441C194.469 60.6452 194.631 60.4834 194.83 60.4834H202.733C202.932 60.4834 203.094 60.6452 203.094 60.8441C203.094 61.043 202.932 61.2049 202.733 61.2049Z" fill="#E6E6E6"/>
<path d="M206.974 57.3612H190.59C190.391 57.3612 190.229 57.1993 190.229 57.0004C190.229 56.8014 190.391 56.6396 190.59 56.6396H206.974C207.173 56.6396 207.335 56.8014 207.335 57.0004C207.335 57.1993 207.173 57.3612 206.974 57.3612Z" fill="#E6E6E6"/>
<path d="M207.167 64.3328H200.33C200.131 64.3328 199.969 64.171 199.969 63.9721C199.969 63.7731 200.131 63.6113 200.33 63.6113H207.167C207.366 63.6113 207.528 63.7731 207.528 63.9721C207.528 64.171 207.366 64.3328 207.167 64.3328Z" fill="#E6E6E6"/>
</g>
<defs>
<clipPath id="clip0_266_1234">
<rect width="399" height="299" fill="white"/>
</clipPath>
</defs>
</svg>
