<svg width="467" height="388" viewBox="0 0 467 388" fill="none" xmlns="http://www.w3.org/2000/svg">
<g clip-path="url(#clip0_266_1297)">
<path d="M256.489 138.392H278.994C280.699 138.392 282.335 137.714 283.541 136.508C284.746 135.302 285.424 133.666 285.424 131.96C285.424 130.255 284.746 128.619 283.541 127.413C282.335 126.207 280.699 125.529 278.994 125.529H256.489C254.783 125.529 253.148 126.207 251.942 127.413C250.736 128.619 250.059 130.255 250.059 131.96C250.059 133.666 250.736 135.302 251.942 136.508C253.148 137.714 254.783 138.392 256.489 138.392Z" fill="#CCCCCC"/>
<path d="M229.965 160.097H278.994C280.699 160.097 282.335 159.419 283.541 158.213C284.746 157.007 285.424 155.371 285.424 153.666C285.424 151.96 284.746 150.324 283.541 149.118C282.335 147.912 280.699 147.234 278.994 147.234H229.965C228.259 147.234 226.624 147.912 225.418 149.118C224.212 150.324 223.535 151.96 223.535 153.666C223.535 155.371 224.212 157.007 225.418 158.213C226.624 159.419 228.259 160.097 229.965 160.097Z" fill="#CCCCCC"/>
<path d="M252.471 233.251H274.976C276.682 233.251 278.317 232.573 279.523 231.367C280.729 230.161 281.406 228.525 281.406 226.82C281.406 225.114 280.729 223.478 279.523 222.272C278.317 221.066 276.682 220.389 274.976 220.389H252.471C250.766 220.389 249.13 221.066 247.924 222.272C246.718 223.478 246.041 225.114 246.041 226.82C246.041 228.525 246.718 230.161 247.924 231.367C249.13 232.573 250.766 233.251 252.471 233.251Z" fill="#CCCCCC"/>
<path d="M225.947 254.956H274.976C276.682 254.956 278.317 254.278 279.523 253.072C280.729 251.866 281.406 250.231 281.406 248.525C281.406 246.819 280.729 245.183 279.523 243.977C278.317 242.771 276.682 242.094 274.976 242.094H225.947C224.242 242.094 222.606 242.771 221.4 243.977C220.195 245.183 219.517 246.819 219.517 248.525C219.517 250.231 220.195 251.866 221.4 253.072C222.606 254.278 224.242 254.956 225.947 254.956Z" fill="#CCCCCC"/>
<path d="M104.579 230.839H127.084C128.789 230.839 130.424 230.161 131.63 228.955C132.836 227.749 133.514 226.113 133.514 224.408C133.514 222.702 132.836 221.066 131.63 219.86C130.424 218.654 128.789 217.977 127.084 217.977H104.579C102.873 217.977 101.238 218.654 100.032 219.86C98.826 221.066 98.1485 222.702 98.1485 224.408C98.1485 226.113 98.826 227.749 100.032 228.955C101.238 230.161 102.873 230.839 104.579 230.839Z" fill="#CCCCCC"/>
<path d="M78.0546 252.544H127.084C128.789 252.544 130.424 251.866 131.63 250.66C132.836 249.454 133.514 247.818 133.514 246.113C133.514 244.407 132.836 242.771 131.63 241.565C130.424 240.359 128.789 239.682 127.084 239.682H78.0546C76.3493 239.682 74.7138 240.359 73.5079 241.565C72.3021 242.771 71.6246 244.407 71.6246 246.113C71.6246 247.818 72.3021 249.454 73.5079 250.66C74.7138 251.866 76.3493 252.544 78.0546 252.544Z" fill="#CCCCCC"/>
<path d="M106.991 142.411H129.496C131.201 142.411 132.837 141.734 134.042 140.527C135.248 139.321 135.926 137.686 135.926 135.98C135.926 134.274 135.248 132.639 134.042 131.432C132.837 130.226 131.201 129.549 129.496 129.549H106.991C105.285 129.549 103.65 130.226 102.444 131.432C101.238 132.639 100.561 134.274 100.561 135.98C100.561 137.686 101.238 139.321 102.444 140.527C103.65 141.734 105.285 142.411 106.991 142.411Z" fill="#CCCCCC"/>
<path d="M80.4667 164.116H129.496C131.201 164.116 132.837 163.439 134.042 162.233C135.248 161.026 135.926 159.391 135.926 157.685C135.926 155.979 135.248 154.344 134.042 153.138C132.837 151.931 131.201 151.254 129.496 151.254H80.4667C78.7614 151.254 77.1259 151.931 75.92 153.138C74.7142 154.344 74.0367 155.979 74.0367 157.685C74.0367 159.391 74.7142 161.026 75.92 162.233C77.1259 163.439 78.7614 164.116 80.4667 164.116Z" fill="#CCCCCC"/>
<path d="M253.954 341.695H276.459C278.164 341.695 279.799 341.018 281.005 339.812C282.211 338.606 282.889 336.97 282.889 335.264C282.889 333.558 282.211 331.923 281.005 330.717C279.799 329.511 278.164 328.833 276.459 328.833H253.954C252.248 328.833 250.613 329.511 249.407 330.717C248.201 331.923 247.523 333.558 247.523 335.264C247.523 336.97 248.201 338.606 249.407 339.812C250.613 341.018 252.248 341.695 253.954 341.695Z" fill="#CCCCCC"/>
<path d="M227.43 363.4H276.459C278.164 363.4 279.799 362.723 281.005 361.517C282.211 360.311 282.889 358.675 282.889 356.969C282.889 355.264 282.211 353.628 281.005 352.422C279.799 351.216 278.164 350.538 276.459 350.538H227.43C225.724 350.538 224.089 351.216 222.883 352.422C221.677 353.628 221 355.264 221 356.969C221 358.675 221.677 360.311 222.883 361.517C224.089 362.723 225.724 363.4 227.43 363.4Z" fill="#CCCCCC"/>
<path d="M318.702 166.93C305.385 166.93 294.589 156.132 294.589 142.813C294.589 129.494 305.385 118.696 318.702 118.696C332.019 118.696 342.814 129.494 342.814 142.813C342.814 156.132 332.019 166.93 318.702 166.93Z" fill="#00BFA6"/>
<path d="M307.447 153.666H329.952C330.591 153.665 331.204 153.411 331.656 152.959C332.108 152.507 332.363 151.894 332.363 151.254V134.373C332.363 133.733 332.108 133.12 331.656 132.668C331.204 132.216 330.591 131.962 329.952 131.961H323.617C323.204 131.959 322.799 132.064 322.439 132.265C322.079 132.466 321.778 132.757 321.563 133.108L319.796 135.98H307.447C306.808 135.981 306.195 136.235 305.743 136.688C305.291 137.14 305.036 137.753 305.036 138.392V151.254C305.036 151.894 305.291 152.507 305.743 152.959C306.195 153.411 306.808 153.665 307.447 153.666V153.666ZM329.952 133.569C330.165 133.569 330.369 133.654 330.52 133.804C330.671 133.955 330.755 134.16 330.756 134.373V151.254C330.755 151.467 330.671 151.672 330.52 151.822C330.369 151.973 330.165 152.058 329.952 152.058H307.447C307.234 152.058 307.03 151.973 306.879 151.822C306.728 151.672 306.643 151.467 306.643 151.254V138.392C306.643 138.179 306.728 137.975 306.879 137.824C307.03 137.673 307.234 137.588 307.447 137.588H320.694L322.932 133.951C323.003 133.834 323.104 133.737 323.224 133.67C323.344 133.603 323.479 133.568 323.617 133.569H329.952Z" fill="white"/>
<path d="M170.809 170.949C157.492 170.949 146.697 160.152 146.697 146.833C146.697 133.513 157.492 122.716 170.809 122.716C184.126 122.716 194.922 133.513 194.922 146.833C194.922 160.152 184.126 170.949 170.809 170.949Z" fill="#00BFA6"/>
<path d="M160.361 162.106H181.259C181.898 162.106 182.511 161.851 182.963 161.399C183.415 160.947 183.669 160.334 183.67 159.695V133.97C183.669 133.331 183.415 132.718 182.963 132.266C182.511 131.814 181.898 131.559 181.259 131.559H166.116C165.567 131.559 165.034 131.747 164.606 132.09L158.851 136.716C158.569 136.941 158.342 137.227 158.185 137.553C158.029 137.878 157.949 138.235 157.95 138.596V159.695C157.95 160.334 158.205 160.947 158.657 161.399C159.109 161.851 159.722 162.106 160.361 162.106V162.106ZM181.259 133.166C181.472 133.167 181.676 133.251 181.827 133.402C181.977 133.553 182.062 133.757 182.062 133.97V159.695C182.062 159.908 181.977 160.112 181.827 160.263C181.676 160.414 181.472 160.498 181.259 160.499H160.361C160.148 160.498 159.944 160.414 159.793 160.263C159.642 160.112 159.558 159.908 159.557 159.695V138.596C159.557 138.476 159.584 138.357 159.636 138.248C159.688 138.14 159.764 138.044 159.858 137.969L165.613 133.343C165.756 133.229 165.933 133.167 166.116 133.166H181.259Z" fill="white"/>
<path d="M164.379 142.813H177.239C177.452 142.813 177.657 142.728 177.808 142.577C177.958 142.427 178.043 142.222 178.043 142.009C178.043 141.796 177.958 141.591 177.808 141.441C177.657 141.29 177.452 141.205 177.239 141.205H164.379C164.166 141.205 163.962 141.29 163.811 141.441C163.66 141.591 163.575 141.796 163.575 142.009C163.575 142.222 163.66 142.427 163.811 142.577C163.962 142.728 164.166 142.813 164.379 142.813Z" fill="white"/>
<path d="M164.379 147.636H177.239C177.452 147.636 177.657 147.551 177.808 147.401C177.958 147.25 178.043 147.045 178.043 146.832C178.043 146.619 177.958 146.415 177.808 146.264C177.657 146.113 177.452 146.028 177.239 146.028H164.379C164.166 146.028 163.962 146.113 163.811 146.264C163.66 146.415 163.575 146.619 163.575 146.832C163.575 147.045 163.66 147.25 163.811 147.401C163.962 147.551 164.166 147.636 164.379 147.636Z" fill="white"/>
<path d="M164.379 152.459H177.239C177.452 152.459 177.657 152.375 177.808 152.224C177.958 152.073 178.043 151.869 178.043 151.655C178.043 151.442 177.958 151.238 177.808 151.087C177.657 150.936 177.452 150.852 177.239 150.852H164.379C164.166 150.852 163.962 150.936 163.811 151.087C163.66 151.238 163.575 151.442 163.575 151.655C163.575 151.869 163.66 152.073 163.811 152.224C163.962 152.375 164.166 152.459 164.379 152.459Z" fill="white"/>
<path d="M319.38 370.234C306.063 370.234 295.267 359.436 295.267 346.117C295.267 332.797 306.063 322 319.38 322C332.697 322 343.492 332.797 343.492 346.117C343.492 359.436 332.697 370.234 319.38 370.234Z" fill="#00BFA6"/>
<path d="M308.127 354.96H330.632C331.271 354.959 331.884 354.705 332.336 354.253C332.788 353.801 333.042 353.188 333.043 352.548V339.686C333.042 339.047 332.788 338.434 332.336 337.982C331.884 337.529 331.271 337.275 330.632 337.274H308.127C307.487 337.275 306.874 337.529 306.422 337.982C305.97 338.434 305.716 339.047 305.715 339.686V352.548C305.716 353.188 305.97 353.801 306.422 354.253C306.874 354.705 307.487 354.959 308.127 354.96V354.96ZM330.632 338.882C330.845 338.882 331.049 338.967 331.2 339.118C331.35 339.269 331.435 339.473 331.435 339.686V352.548C331.435 352.762 331.35 352.966 331.2 353.117C331.049 353.267 330.845 353.352 330.632 353.352H308.127C307.913 353.352 307.709 353.267 307.558 353.117C307.408 352.966 307.323 352.762 307.323 352.548V339.686C307.323 339.473 307.408 339.269 307.558 339.118C307.709 338.967 307.913 338.882 308.127 338.882H330.632Z" fill="white"/>
<path d="M319.38 348.238C319.832 348.239 320.275 348.113 320.658 347.874L332.667 340.368C332.847 340.255 332.975 340.074 333.023 339.867C333.07 339.659 333.034 339.441 332.921 339.261C332.808 339.08 332.628 338.952 332.42 338.904C332.213 338.855 331.995 338.892 331.814 339.004L319.806 346.511C319.678 346.59 319.53 346.632 319.38 346.632C319.229 346.632 319.082 346.59 318.954 346.511L306.946 339.004C306.766 338.892 306.548 338.855 306.34 338.904C306.133 338.952 305.953 339.08 305.84 339.261C305.727 339.441 305.69 339.659 305.738 339.867C305.786 340.074 305.914 340.255 306.094 340.368L318.102 347.874C318.485 348.113 318.928 348.239 319.38 348.238V348.238Z" fill="white"/>
<path d="M318.702 261.789C305.385 261.789 294.589 250.992 294.589 237.672C294.589 224.353 305.385 213.556 318.702 213.556C332.019 213.556 342.814 224.353 342.814 237.672C342.814 250.992 332.019 261.789 318.702 261.789Z" fill="#00BFA6"/>
<path d="M307.447 246.515H329.952C330.591 246.514 331.204 246.26 331.656 245.808C332.108 245.355 332.363 244.742 332.363 244.103V231.241C332.363 230.601 332.108 229.988 331.656 229.536C331.204 229.084 330.591 228.83 329.952 228.829H307.447C306.808 228.83 306.195 229.084 305.743 229.536C305.291 229.988 305.036 230.601 305.036 231.241V244.103C305.036 244.742 305.291 245.355 305.743 245.808C306.195 246.26 306.808 246.514 307.447 246.515ZM329.952 230.437C330.165 230.437 330.369 230.522 330.52 230.673C330.671 230.823 330.756 231.028 330.756 231.241V244.103C330.756 244.316 330.671 244.521 330.52 244.671C330.369 244.822 330.165 244.907 329.952 244.907H307.447C307.234 244.907 307.029 244.822 306.879 244.671C306.728 244.521 306.643 244.316 306.643 244.103V231.241C306.643 231.028 306.728 230.823 306.879 230.673C307.029 230.522 307.234 230.437 307.447 230.437H329.952Z" fill="white"/>
<path d="M311.014 246.515H327.189C327.471 246.515 327.749 246.441 327.993 246.3C328.238 246.158 328.44 245.956 328.582 245.711C328.723 245.467 328.797 245.189 328.797 244.907C328.797 244.625 328.722 244.348 328.581 244.103L323.709 235.662C323.568 235.418 323.365 235.215 323.121 235.074C322.876 234.933 322.599 234.858 322.317 234.858C322.035 234.858 321.758 234.933 321.513 235.074C321.269 235.215 321.066 235.418 320.925 235.662L317.778 241.114L315.955 237.955C315.814 237.711 315.611 237.508 315.367 237.367C315.122 237.226 314.845 237.152 314.563 237.152C314.281 237.152 314.003 237.226 313.759 237.367C313.515 237.508 313.312 237.711 313.171 237.955L309.622 244.103C309.481 244.348 309.407 244.625 309.407 244.907C309.407 245.189 309.481 245.467 309.622 245.711C309.763 245.956 309.966 246.158 310.211 246.3C310.455 246.441 310.732 246.515 311.014 246.515H311.014ZM311.014 244.907L314.563 238.759L317.082 243.123C317.152 243.246 317.254 243.347 317.376 243.418C317.498 243.488 317.637 243.525 317.778 243.525V243.525C317.919 243.525 318.058 243.488 318.18 243.418C318.302 243.347 318.404 243.246 318.474 243.123L322.317 236.466L327.189 244.907H311.014Z" fill="white"/>
<path d="M309.859 235.26C308.971 235.26 308.252 234.541 308.252 233.653C308.252 232.765 308.971 232.045 309.859 232.045C310.747 232.045 311.467 232.765 311.467 233.653C311.467 234.541 310.747 235.26 309.859 235.26Z" fill="white"/>
<path d="M169.202 259.377C155.885 259.377 145.089 248.58 145.089 235.26C145.089 221.941 155.885 211.144 169.202 211.144C182.519 211.144 193.314 221.941 193.314 235.26C193.314 248.58 182.519 259.377 169.202 259.377Z" fill="#00BFA6"/>
<path d="M169.202 235.662C170.632 235.662 172.031 235.238 173.221 234.443C174.41 233.648 175.337 232.518 175.885 231.196C176.432 229.874 176.576 228.419 176.297 227.016C176.017 225.612 175.328 224.323 174.317 223.311C173.305 222.3 172.016 221.611 170.613 221.331C169.21 221.052 167.755 221.196 166.434 221.743C165.112 222.291 163.982 223.218 163.187 224.408C162.392 225.598 161.968 226.996 161.968 228.427C161.97 230.346 162.733 232.185 164.089 233.541C165.445 234.897 167.284 235.66 169.202 235.662V235.662ZM169.202 222.8C170.315 222.8 171.402 223.13 172.328 223.749C173.253 224.367 173.974 225.246 174.4 226.274C174.826 227.302 174.937 228.434 174.72 229.525C174.503 230.617 173.967 231.619 173.18 232.406C172.393 233.193 171.391 233.729 170.299 233.947C169.208 234.164 168.077 234.052 167.049 233.626C166.021 233.2 165.142 232.479 164.524 231.554C163.905 230.628 163.575 229.54 163.575 228.427C163.577 226.936 164.171 225.505 165.225 224.45C166.28 223.395 167.71 222.802 169.202 222.8Z" fill="white"/>
<path d="M162.772 249.329H175.632C176.378 249.328 177.093 249.031 177.62 248.504C178.148 247.976 178.444 247.261 178.445 246.515C178.445 244.063 177.471 241.712 175.738 239.978C174.005 238.244 171.654 237.271 169.202 237.271C166.751 237.271 164.4 238.244 162.666 239.978C160.933 241.712 159.959 244.063 159.959 246.515C159.96 247.261 160.257 247.976 160.784 248.504C161.311 249.031 162.026 249.328 162.772 249.329ZM169.202 238.878C171.227 238.881 173.167 239.686 174.599 241.118C176.03 242.549 176.836 244.491 176.838 246.515C176.837 246.835 176.71 247.141 176.484 247.368C176.258 247.594 175.952 247.721 175.632 247.721H162.772C162.452 247.721 162.146 247.594 161.92 247.368C161.694 247.141 161.567 246.835 161.566 246.515C161.569 244.491 162.374 242.549 163.805 241.118C165.237 239.686 167.178 238.881 169.202 238.878V238.878Z" fill="white"/>
<path d="M401.946 378.792H392.092L387.404 340.777L401.947 340.778L401.946 378.792Z" fill="#FFB8B8"/>
<path d="M373.09 387.942L404.059 387.944L404.06 375.976L385.056 375.976C381.882 375.975 378.839 377.236 376.595 379.48C374.351 381.725 373.09 384.768 373.09 387.942V387.942L373.09 387.942Z" fill="#2F2E41"/>
<path d="M438.918 378.792H429.064L424.377 340.777L438.92 340.778L438.918 378.792Z" fill="#FFB8B8"/>
<path d="M410.063 387.942L441.032 387.944L441.032 375.976L422.028 375.976C418.855 375.975 415.812 377.236 413.567 379.48C411.323 381.725 410.063 384.768 410.062 387.942V387.942L410.063 387.942Z" fill="#2F2E41"/>
<path d="M437.716 265.574C436.654 264.891 435.755 263.983 435.082 262.915C434.409 261.847 433.978 260.644 433.82 259.392C433.662 258.139 433.781 256.867 434.167 255.665C434.554 254.464 435.199 253.361 436.058 252.436L429.57 160.344L448.26 162.157L448.773 252.343C450.232 253.888 451.073 255.916 451.137 258.04C451.201 260.165 450.483 262.239 449.12 263.87C447.757 265.501 445.844 266.576 443.742 266.89C441.64 267.203 439.496 266.735 437.716 265.574H437.716Z" fill="#FFB8B8"/>
<path d="M401.653 359.647C402.537 359.644 403.39 359.319 404.051 358.732C404.712 358.145 405.137 357.336 405.245 356.459L410.972 308.545C411.053 307.87 411.375 307.247 411.879 306.792C412.383 306.336 413.034 306.078 413.714 306.065C414.393 306.053 415.054 306.287 415.574 306.723C416.094 307.16 416.439 307.771 416.545 308.442L423.76 354.318C423.891 355.171 424.323 355.949 424.979 356.509C425.635 357.07 426.47 357.377 427.333 357.373H439.028C439.505 357.373 439.977 357.279 440.418 357.095C440.859 356.912 441.259 356.643 441.595 356.304C441.931 355.965 442.197 355.563 442.377 355.121C442.557 354.679 442.648 354.206 442.644 353.728L437.063 252.009C437.061 251.143 436.746 250.306 436.178 249.654C435.609 249.001 434.823 248.575 433.966 248.455L390.568 242.155C390.052 242.08 389.527 242.117 389.027 242.265C388.527 242.412 388.065 242.665 387.672 243.008C387.279 243.35 386.965 243.773 386.751 244.248C386.537 244.724 386.428 245.239 386.432 245.76L387.189 355.537C387.195 356.462 387.556 357.35 388.196 358.017C388.837 358.685 389.709 359.081 390.633 359.125L401.481 359.642C401.539 359.645 401.596 359.647 401.653 359.647Z" fill="#00BFA6"/>
<path d="M424.152 255.851C428.326 255.835 432.466 255.098 436.39 253.672C437.055 253.427 437.632 252.99 438.05 252.417C438.467 251.845 438.706 251.161 438.735 250.452C439.109 242.143 441.3 199.37 447.676 173.28C448.916 168.162 448.613 162.791 446.805 157.845C444.998 152.899 441.767 148.599 437.52 145.487C437.177 145.24 436.827 144.998 436.471 144.76C432.783 142.305 428.528 140.834 424.111 140.488C419.694 140.141 415.262 140.931 411.236 142.782C407.078 144.643 403.464 147.538 400.74 151.19C398.016 154.842 396.272 159.131 395.673 163.649L385.274 240.863C385.208 241.346 385.239 241.837 385.368 242.307C385.497 242.777 385.719 243.216 386.023 243.597C386.319 243.976 386.69 244.291 387.112 244.522C387.534 244.753 387.998 244.896 388.477 244.942C392.08 245.302 399.553 246.698 409.117 252.013C413.717 254.561 418.894 255.883 424.152 255.851V255.851Z" fill="#2F5675"/>
<path d="M436.865 191.846L453.977 187.205C454.902 186.953 455.69 186.345 456.167 185.513C456.644 184.681 456.771 183.693 456.521 182.767L450.506 160.576C449.861 158.199 448.36 156.145 446.291 154.809C444.222 153.474 441.732 152.952 439.301 153.344C436.87 153.736 434.67 155.015 433.125 156.933C431.581 158.851 430.801 161.274 430.937 163.733L432.307 188.554C432.336 189.092 432.486 189.617 432.744 190.09C433.003 190.563 433.363 190.972 433.8 191.287C434.237 191.603 434.739 191.817 435.269 191.914C435.799 192.01 436.344 191.987 436.865 191.846V191.846Z" fill="#2F5675"/>
<path d="M417.816 132.297C406.913 132.297 398.075 123.458 398.075 112.553C398.075 101.648 406.913 92.8086 417.816 92.8086C428.718 92.8086 437.557 101.648 437.557 112.553C437.557 123.458 428.718 132.297 417.816 132.297Z" fill="#FFB8B8"/>
<path d="M346.279 151.345C346.378 151.779 346.442 152.219 346.472 152.663L380.999 172.585L389.391 167.753L398.338 179.468L380.384 192.266L340.994 161.186C339.387 161.78 337.638 161.871 335.978 161.447C334.318 161.023 332.827 160.104 331.703 158.811C330.578 157.519 329.874 155.915 329.683 154.212C329.492 152.509 329.824 150.789 330.635 149.28C331.445 147.77 332.696 146.544 334.221 145.763C335.746 144.982 337.472 144.683 339.17 144.908C340.868 145.132 342.458 145.868 343.728 147.018C344.998 148.168 345.888 149.677 346.279 151.345V151.345Z" fill="#FFB8B8"/>
<path d="M383.859 173.546L398.732 183.2C399.537 183.721 400.516 183.902 401.454 183.702C402.391 183.502 403.212 182.938 403.735 182.135L416.249 162.847C417.59 160.781 418.118 158.292 417.732 155.86C417.347 153.427 416.074 151.224 414.16 149.674C412.246 148.125 409.826 147.339 407.367 147.468C404.908 147.597 402.584 148.632 400.843 150.374L383.27 167.954C382.889 168.335 382.598 168.797 382.418 169.305C382.238 169.813 382.174 170.355 382.231 170.891C382.287 171.427 382.463 171.943 382.744 172.403C383.026 172.862 383.407 173.253 383.859 173.546Z" fill="#2F5675"/>
<path d="M431.785 128.174C428.102 132.098 421.262 129.992 420.782 124.631C420.745 124.215 420.748 123.796 420.791 123.381C421.038 121.006 422.41 118.851 422.081 116.344C422.007 115.72 421.775 115.125 421.406 114.616C418.471 110.686 411.582 116.374 408.813 112.816C407.114 110.634 409.111 107.199 407.808 104.761C406.087 101.542 400.993 103.13 397.798 101.367C394.243 99.4063 394.455 93.9513 396.795 90.6333C399.649 86.5868 404.653 84.4276 409.594 84.1164C414.535 83.8052 419.442 85.1412 424.055 86.9393C429.297 88.9822 434.494 91.8056 437.72 96.4152C441.642 102.021 442.02 109.557 440.058 116.112C438.865 120.099 434.792 124.97 431.785 128.174Z" fill="#2F2E41"/>
<path d="M353.671 388H466.196C466.409 388 466.614 387.916 466.765 387.765C466.915 387.614 467 387.41 467 387.196C467 386.983 466.915 386.779 466.765 386.628C466.614 386.477 466.409 386.393 466.196 386.393H353.671C353.457 386.393 353.253 386.477 353.102 386.628C352.952 386.779 352.867 386.983 352.867 387.196C352.867 387.41 352.952 387.614 353.102 387.765C353.253 387.916 353.457 388 353.671 388Z" fill="#3F3D56"/>
</g>
<defs>
<clipPath id="clip0_266_1297">
<rect width="467" height="388" fill="white" transform="matrix(-1 0 0 1 467 0)"/>
</clipPath>
</defs>
</svg>
