<svg width="508" height="359" viewBox="0 0 508 359" fill="none" xmlns="http://www.w3.org/2000/svg">
<g clip-path="url(#clip0_266_1522)">
<path d="M34.0892 359L33.469 357.853C41.7843 353.353 52.1332 347.752 57.5385 338.562C62.8669 329.502 62.9864 317.199 57.8505 306.455C53.4797 297.31 45.4507 289.118 34.6319 282.763C32.4978 281.509 30.2577 280.321 28.0913 279.172C22.8547 276.395 17.4398 273.523 12.975 269.449C6.82549 263.837 2.17262 254.42 5.64056 246.032C6.78109 243.355 8.64895 241.051 11.032 239.382C13.4152 237.714 16.218 236.747 19.1224 236.593L19.1959 237.896C16.5352 238.037 13.9673 238.922 11.7836 240.45C9.59991 241.977 7.88791 244.087 6.8419 246.539C3.61928 254.334 8.04069 263.18 13.8537 268.485C18.1964 272.447 23.5371 275.28 28.7019 278.019C30.8806 279.174 33.1337 280.369 35.2922 281.637C46.3361 288.125 54.5435 296.512 59.0268 305.891C64.3475 317.022 64.2079 329.795 58.6623 339.224C53.0728 348.727 42.547 354.424 34.0892 359Z" fill="#F1F1F1"/>
<path d="M27.3867 243.47C33.6883 243.47 38.7967 240.987 38.7967 237.925C38.7967 234.862 33.6883 232.379 27.3867 232.379C21.085 232.379 15.9766 234.862 15.9766 237.925C15.9766 240.987 21.085 243.47 27.3867 243.47Z" fill="#F1F1F1"/>
<path d="M36.5156 280.007C42.8172 280.007 47.9256 277.524 47.9256 274.461C47.9256 271.398 42.8172 268.915 36.5156 268.915C30.2139 268.915 25.1055 271.398 25.1055 274.461C25.1055 277.524 30.2139 280.007 36.5156 280.007Z" fill="#F1F1F1"/>
<path d="M15.6523 285.879C21.9539 285.879 27.0624 283.396 27.0624 280.333C27.0624 277.27 21.9539 274.787 15.6523 274.787C9.35066 274.787 4.24219 277.27 4.24219 280.333C4.24219 283.396 9.35066 285.879 15.6523 285.879Z" fill="#F1F1F1"/>
<path d="M48.2499 316.543C54.5516 316.543 59.66 314.06 59.66 310.997C59.66 307.934 54.5516 305.451 48.2499 305.451C41.9483 305.451 36.8398 307.934 36.8398 310.997C36.8398 314.06 41.9483 316.543 48.2499 316.543Z" fill="#F1F1F1"/>
<path d="M71.0722 316.544C77.3738 316.544 82.4823 314.061 82.4823 310.998C82.4823 307.935 77.3738 305.452 71.0722 305.452C64.7706 305.452 59.6621 307.935 59.6621 310.998C59.6621 314.061 64.7706 316.544 71.0722 316.544Z" fill="#F1F1F1"/>
<path d="M491.397 302.733H305.685C301.283 302.728 297.063 300.976 293.95 297.861C290.838 294.747 289.087 290.524 289.082 286.119V16.6137C289.087 12.209 290.838 7.98612 293.95 4.87153C297.063 1.75694 301.283 0.00497162 305.685 0H491.397C495.799 0.00497335 500.019 1.75694 503.132 4.87153C506.244 7.98612 507.995 12.209 508 16.6137V286.119C507.995 290.524 506.244 294.747 503.132 297.861C500.019 300.976 495.799 302.728 491.397 302.733V302.733Z" fill="#E6E6E6"/>
<path d="M491.725 292.133H305.358C304.001 292.131 302.7 291.591 301.741 290.631C300.781 289.671 300.242 288.369 300.24 287.011V15.721C300.242 14.3632 300.781 13.0614 301.741 12.1013C302.7 11.1412 304.001 10.6012 305.358 10.5996H491.725C493.082 10.6012 494.382 11.1412 495.342 12.1013C496.301 13.0614 496.841 14.3632 496.843 15.721V287.011C496.841 288.369 496.301 289.671 495.342 290.631C494.382 291.591 493.082 292.131 491.725 292.133V292.133Z" fill="white"/>
<path d="M397.834 6.50144C398.614 6.50144 399.247 5.86868 399.247 5.08812C399.247 4.30757 398.614 3.6748 397.834 3.6748C397.054 3.6748 396.422 4.30757 396.422 5.08812C396.422 5.86868 397.054 6.50144 397.834 6.50144Z" fill="white"/>
<path d="M473.659 189.241H323.423C323.299 189.241 323.179 189.191 323.091 189.103C323.003 189.014 322.953 188.895 322.953 188.77V116.714C322.953 116.589 323.003 116.469 323.091 116.381C323.179 116.293 323.299 116.243 323.423 116.243C323.548 116.243 323.668 116.293 323.756 116.381C323.844 116.469 323.893 116.589 323.893 116.714V188.3H473.659C473.784 188.3 473.903 188.35 473.991 188.438C474.079 188.526 474.128 188.646 474.128 188.77C474.128 188.895 474.079 189.014 473.991 189.102C473.903 189.19 473.784 189.24 473.659 189.241V189.241Z" fill="#3F3D56"/>
<path d="M355.521 184.065H341.857C341.487 184.065 341.132 183.918 340.87 183.656C340.609 183.394 340.461 183.039 340.461 182.669V163.819C340.461 163.449 340.609 163.094 340.87 162.832C341.132 162.571 341.487 162.423 341.857 162.423H355.521C355.891 162.423 356.246 162.571 356.508 162.832C356.769 163.094 356.916 163.449 356.917 163.819V182.669C356.916 183.039 356.769 183.394 356.508 183.656C356.246 183.918 355.891 184.065 355.521 184.065Z" fill="#00BFA6"/>
<path d="M380.441 184.066H366.777C366.407 184.065 366.052 183.918 365.79 183.656C365.529 183.394 365.381 183.039 365.381 182.669V145.941C365.381 145.571 365.529 145.216 365.79 144.954C366.052 144.693 366.407 144.545 366.777 144.545H380.441C380.811 144.545 381.166 144.693 381.428 144.954C381.689 145.216 381.836 145.571 381.837 145.941V182.669C381.836 183.039 381.689 183.394 381.428 183.656C381.166 183.918 380.811 184.065 380.441 184.066V184.066Z" fill="#00BFA6"/>
<path d="M405.359 184.065H391.695C391.325 184.065 390.97 183.918 390.708 183.656C390.446 183.394 390.299 183.039 390.299 182.669V163.819C390.299 163.449 390.446 163.094 390.708 162.832C390.97 162.571 391.325 162.423 391.695 162.423H405.359C405.729 162.423 406.084 162.571 406.345 162.832C406.607 163.094 406.754 163.449 406.755 163.819V182.669C406.754 183.039 406.607 183.394 406.345 183.656C406.084 183.918 405.729 184.065 405.359 184.065V184.065Z" fill="#00BFA6"/>
<path d="M430.279 184.066H416.614C416.253 184.073 415.903 183.937 415.641 183.688C415.38 183.438 415.228 183.094 415.219 182.732V138.821C415.228 138.459 415.38 138.116 415.641 137.866C415.903 137.616 416.253 137.48 416.614 137.488H430.279C430.641 137.48 430.991 137.616 431.252 137.866C431.514 138.116 431.666 138.459 431.675 138.821V182.732C431.666 183.094 431.514 183.438 431.252 183.688C430.991 183.937 430.641 184.073 430.279 184.066V184.066Z" fill="#00BFA6"/>
<path d="M455.199 184.065H441.534C441.164 184.065 440.81 183.918 440.548 183.656C440.286 183.394 440.139 183.039 440.139 182.669V126.181C440.139 125.81 440.286 125.455 440.548 125.194C440.81 124.932 441.164 124.785 441.534 124.784H455.199C455.569 124.785 455.924 124.932 456.185 125.194C456.447 125.455 456.594 125.81 456.595 126.181V182.669C456.594 183.039 456.447 183.394 456.185 183.656C455.924 183.918 455.569 184.065 455.199 184.065V184.065Z" fill="#00BFA6"/>
<path d="M348.688 156.777C350.246 156.777 351.509 155.513 351.509 153.954C351.509 152.395 350.246 151.131 348.688 151.131C347.13 151.131 345.867 152.395 345.867 153.954C345.867 155.513 347.13 156.777 348.688 156.777Z" fill="#3F3D56"/>
<path d="M373.61 138.428C375.168 138.428 376.431 137.164 376.431 135.605C376.431 134.046 375.168 132.782 373.61 132.782C372.052 132.782 370.789 134.046 370.789 135.605C370.789 137.164 372.052 138.428 373.61 138.428Z" fill="#3F3D56"/>
<path d="M398.528 156.777C400.086 156.777 401.349 155.513 401.349 153.954C401.349 152.395 400.086 151.131 398.528 151.131C396.97 151.131 395.707 152.395 395.707 153.954C395.707 155.513 396.97 156.777 398.528 156.777Z" fill="#3F3D56"/>
<path d="M423.446 129.489C425.004 129.489 426.267 128.225 426.267 126.666C426.267 125.107 425.004 123.843 423.446 123.843C421.888 123.843 420.625 125.107 420.625 126.666C420.625 128.225 421.888 129.489 423.446 129.489Z" fill="#3F3D56"/>
<path d="M448.366 119.138C449.924 119.138 451.187 117.874 451.187 116.315C451.187 114.756 449.924 113.492 448.366 113.492C446.808 113.492 445.545 114.756 445.545 116.315C445.545 117.874 446.808 119.138 448.366 119.138Z" fill="#3F3D56"/>
<path d="M398.588 154.587L373.61 135.865L348.972 154.331L348.408 153.578L373.61 134.689L398.469 153.322L423.172 126.27L423.272 126.23L448.191 116.183L448.543 117.056L423.723 127.063L398.588 154.587Z" fill="#3F3D56"/>
<path d="M179.06 146.464C178.106 146.463 177.164 146.672 176.3 147.076C175.437 147.48 174.672 148.069 174.061 148.802L144.845 147.888L143.702 142.959L128.582 150.342L130.538 163.841L175.064 158.136C175.883 158.773 176.842 159.205 177.862 159.396C178.882 159.587 179.933 159.532 180.927 159.235C181.921 158.938 182.83 158.408 183.578 157.688C184.326 156.969 184.892 156.081 185.228 155.099C185.564 154.117 185.661 153.069 185.511 152.041C185.361 151.014 184.968 150.038 184.364 149.193C183.761 148.348 182.965 147.66 182.042 147.185C181.12 146.711 180.097 146.463 179.06 146.464H179.06Z" fill="#9F616A"/>
<path d="M124.943 350.417H132.936L136.739 319.564L124.941 319.565L124.943 350.417Z" fill="#9F616A"/>
<path d="M122.902 347.805L138.644 347.805H138.645C141.306 347.805 143.857 348.863 145.739 350.745C147.62 352.628 148.677 355.181 148.677 357.843V358.17L122.903 358.17L122.902 347.805Z" fill="#2F2E41"/>
<path d="M94.7812 344.056L102.461 346.277L114.674 317.693L103.34 314.416L94.7812 344.056Z" fill="#9F616A"/>
<path d="M93.5453 340.98L108.669 345.353L108.669 345.354C111.225 346.093 113.383 347.818 114.668 350.149C115.953 352.48 116.26 355.227 115.522 357.785L115.431 358.098L90.6699 350.938L93.5453 340.98Z" fill="#2F2E41"/>
<path d="M115.125 216.446C115.125 216.446 112.282 224.384 116.767 235.215L120.228 279.82L121.252 343.259H135.825L144.644 278.588L149.94 219.947L115.125 216.446Z" fill="#00BFA6"/>
<path d="M106.93 216.446C106.93 216.446 104.086 224.384 108.572 235.215L112.033 279.82L94.8008 340.239H109.373L136.449 278.588L141.745 219.947L106.93 216.446Z" fill="#00BFA6"/>
<path d="M149.678 114.137C158.522 114.137 165.692 106.963 165.692 98.1125C165.692 89.2624 158.522 82.0879 149.678 82.0879C140.834 82.0879 133.664 89.2624 133.664 98.1125C133.664 106.963 140.834 114.137 149.678 114.137Z" fill="#9F616A"/>
<path d="M151.819 137.092L148.574 122.003L132.05 112.614L128.699 117.309C128.699 117.309 105.054 123.526 107.914 150.695C110.773 177.864 109.469 190.913 109.469 190.913L102.949 220.926C102.949 220.926 104.956 221.271 151.021 229.324L152.977 164.079L151.819 137.092Z" fill="#1B67A5"/>
<path opacity="0.1" d="M135.791 283.923L120.785 314.254V322.949L135.791 283.923Z" fill="black"/>
<path d="M132.413 103.181C133.94 107.273 139.717 107.84 141.755 103.977C141.914 103.677 142.043 103.363 142.141 103.038C142.699 101.183 142.348 99.1393 143.379 97.3654C143.63 96.9216 143.99 96.5493 144.425 96.2838C147.852 94.2611 151.225 100.679 154.412 98.8836C156.366 97.7825 155.948 94.5851 157.687 93.168C159.982 91.2977 163.297 94.0833 166.24 93.7652C169.514 93.4113 171.064 89.2607 170.352 86.0432C169.484 82.1193 166.416 78.9344 162.816 77.1526C159.216 75.3708 155.126 74.8328 151.111 74.7329C146.549 74.6194 141.776 75.104 137.918 77.5439C133.228 80.5111 130.585 86.0348 130 91.557C129.644 94.9162 131.166 99.8394 132.413 103.181Z" fill="#2F2E41"/>
<path d="M210.885 213.173C210.908 213.174 210.932 213.173 210.955 213.172C223.02 212.54 234.392 207.334 242.758 198.612C251.124 189.889 255.856 178.306 255.991 166.217C256.127 154.128 251.655 142.441 243.487 133.533C235.319 124.625 224.067 119.165 212.019 118.263C211.87 118.251 211.72 118.271 211.579 118.32C211.437 118.369 211.308 118.446 211.198 118.548C211.089 118.647 211.001 118.769 210.941 118.904C210.88 119.039 210.849 119.186 210.848 119.334L209.809 212.075C209.806 212.363 209.918 212.641 210.12 212.847C210.321 213.053 210.596 213.17 210.885 213.173V213.173Z" fill="#1B67A5"/>
<path d="M173.615 133.599C173.985 133.603 174.338 133.754 174.597 134.019L206.503 166.669C206.631 166.8 206.732 166.955 206.8 167.125C206.868 167.295 206.902 167.477 206.9 167.66L206.402 212.037C206.401 212.227 206.36 212.415 206.283 212.589C206.205 212.763 206.092 212.919 205.952 213.047C205.811 213.177 205.644 213.277 205.463 213.34C205.282 213.402 205.09 213.428 204.899 213.413C196.028 212.749 187.518 209.622 180.325 204.384C173.132 199.147 167.541 192.005 164.181 183.763C160.82 175.521 159.823 166.504 161.302 157.726C162.781 148.948 166.677 140.757 172.552 134.072C172.679 133.928 172.834 133.812 173.008 133.731C173.182 133.649 173.371 133.604 173.563 133.599C173.58 133.599 173.597 133.599 173.615 133.599Z" fill="#E6E6E6"/>
<path d="M206.059 117.885C206.415 117.889 206.756 118.029 207.013 118.275C207.151 118.407 207.261 118.565 207.334 118.741C207.408 118.917 207.445 119.106 207.442 119.297L206.993 159.336C206.99 159.612 206.905 159.881 206.75 160.108C206.594 160.336 206.375 160.512 206.119 160.615C205.863 160.717 205.583 160.742 205.313 160.685C205.044 160.628 204.797 160.493 204.604 160.296L176.763 131.804C176.634 131.672 176.533 131.517 176.465 131.347C176.397 131.177 176.363 130.994 176.365 130.811C176.367 130.628 176.406 130.446 176.478 130.278C176.55 130.109 176.655 129.956 176.786 129.828C176.803 129.812 176.82 129.796 176.838 129.78C184.935 122.648 195.2 118.457 205.972 117.887C206.001 117.885 206.03 117.885 206.059 117.885Z" fill="#00BFA6"/>
<path d="M162.759 164.732C161.805 164.731 160.863 164.94 160 165.345C159.136 165.749 158.371 166.338 157.761 167.07L128.544 166.156L127.401 161.228L112.281 168.611L114.237 182.109L158.763 176.404C159.582 177.041 160.542 177.473 161.561 177.664C162.581 177.856 163.632 177.8 164.626 177.503C165.62 177.206 166.529 176.676 167.277 175.957C168.025 175.237 168.591 174.35 168.927 173.368C169.263 172.385 169.36 171.337 169.21 170.31C169.06 169.283 168.667 168.306 168.064 167.462C167.46 166.617 166.664 165.929 165.742 165.454C164.819 164.979 163.796 164.732 162.759 164.732H162.759Z" fill="#9F616A"/>
<path d="M109.818 174.17L109.006 133.958C108.978 132.551 109.228 131.152 109.743 129.842C110.259 128.532 111.028 127.338 112.007 126.328C112.987 125.318 114.157 124.512 115.449 123.957C116.742 123.402 118.131 123.109 119.538 123.094C120.944 123.08 122.34 123.345 123.643 123.874C124.947 124.402 126.132 125.185 127.132 126.175C128.132 127.165 128.925 128.344 129.467 129.643C130.008 130.941 130.287 132.335 130.287 133.742V163.13L109.818 174.17Z" fill="#1B67A5"/>
<path d="M249.066 358.843H0.652005C0.479083 358.843 0.313242 358.774 0.190967 358.652C0.0686927 358.53 0 358.364 0 358.191C0 358.017 0.0686927 357.852 0.190967 357.729C0.313242 357.607 0.479083 357.538 0.652005 357.538H249.066C249.239 357.538 249.405 357.607 249.527 357.729C249.649 357.852 249.718 358.017 249.718 358.191C249.718 358.364 249.649 358.53 249.527 358.652C249.405 358.774 249.239 358.843 249.066 358.843Z" fill="#CBCBCB"/>
</g>
<defs>
<clipPath id="clip0_266_1522">
<rect width="508" height="359" fill="white"/>
</clipPath>
</defs>
</svg>
