<svg width="400" height="316" viewBox="0 0 400 316" fill="none" xmlns="http://www.w3.org/2000/svg">
<g clip-path="url(#clip0_266_1704)">
<path d="M399.999 6.57617H160.117V120.396H399.999V6.57617Z" fill="#E6E6E6"/>
<path d="M393.14 16.3359H166.977V111.3H393.14V16.3359Z" fill="white"/>
<path d="M399.898 0H160.016V10.1902H399.898V0Z" fill="#00BFA6"/>
<path d="M167.588 7.88094C168.631 7.88094 169.477 7.03534 169.477 5.99223C169.477 4.94912 168.631 4.10352 167.588 4.10352C166.545 4.10352 165.699 4.94912 165.699 5.99223C165.699 7.03534 166.545 7.88094 167.588 7.88094Z" fill="white"/>
<path d="M174.758 7.88094C175.801 7.88094 176.647 7.03534 176.647 5.99223C176.647 4.94912 175.801 4.10352 174.758 4.10352C173.715 4.10352 172.869 4.94912 172.869 5.99223C172.869 7.03534 173.715 7.88094 174.758 7.88094Z" fill="white"/>
<path d="M181.928 7.88094C182.971 7.88094 183.817 7.03534 183.817 5.99223C183.817 4.94912 182.971 4.10352 181.928 4.10352C180.885 4.10352 180.039 4.94912 180.039 5.99223C180.039 7.03534 180.885 7.88094 181.928 7.88094Z" fill="white"/>
<path d="M339.897 31.7031H302.295V95.9349H339.897V31.7031Z" fill="#F2F2F2"/>
<path d="M296.067 31.7012H220.223V49.3817H296.067V31.7012Z" fill="#00BFA6"/>
<path d="M296.067 54.3057H220.223V73.329H296.067V54.3057Z" fill="#F2F2F2"/>
<path d="M296.067 78.2529H220.223V95.9334H296.067V78.2529Z" fill="#F2F2F2"/>
<path d="M114.448 189.92C114.455 188.618 114.187 187.329 113.661 186.138C113.136 184.946 112.364 183.879 111.398 183.007C110.431 182.134 109.291 181.476 108.052 181.075C106.813 180.674 105.503 180.539 104.209 180.679C103.799 180.725 103.393 180.8 102.994 180.903L71.7106 154.09L73.58 144.014L58.1609 139.018L53.512 155.164C52.962 157.102 53.0516 159.166 53.7675 161.049C54.4833 162.932 55.7872 164.534 57.4856 165.617L95.9697 189.956C95.9699 190.259 95.9857 190.561 96.0169 190.862C96.1575 192.157 96.57 193.407 97.2275 194.531C97.885 195.655 98.7726 196.628 99.8322 197.385C100.892 198.142 102.099 198.667 103.376 198.925C104.652 199.183 105.969 199.168 107.24 198.882C107.609 198.8 107.973 198.695 108.329 198.568C110.11 197.924 111.651 196.75 112.745 195.204C113.839 193.658 114.433 191.814 114.448 189.92V189.92Z" fill="#9F616A"/>
<path d="M36.6735 221.018H77.0081C77.0081 222.177 118.578 223.118 118.578 223.118C119.23 223.609 119.825 224.173 120.35 224.798C121.929 226.681 122.792 229.061 122.787 231.519V233.199C122.786 235.983 121.679 238.654 119.71 240.623C117.741 242.592 115.07 243.699 112.285 243.7H36.6735C33.889 243.697 31.2193 242.59 29.2504 240.621C27.2815 238.652 26.1743 235.983 26.1719 233.199V231.519C26.1757 228.735 27.2834 226.066 29.252 224.097C31.2206 222.129 33.8895 221.021 36.6735 221.018V221.018Z" fill="#E6E6E6"/>
<path d="M80.5467 243.282H69.625V313.848H80.5467V243.282Z" fill="#E6E6E6"/>
<path d="M111.633 314.726C111.633 316.048 95.0827 315.237 74.667 315.237C54.2513 315.237 37.7012 316.048 37.7012 314.726C37.7012 313.405 54.2513 302.928 74.667 302.928C95.0827 302.928 111.633 313.405 111.633 314.726Z" fill="#E6E6E6"/>
<path d="M101.774 305.193L112.073 305.192L116.973 278.48L101.771 278.482L101.774 305.193Z" fill="#9F616A"/>
<path d="M99.1471 315.177L132.358 315.176V314.756C132.358 313.058 132.024 311.377 131.374 309.809C130.724 308.241 129.772 306.816 128.572 305.616C127.372 304.416 125.947 303.464 124.378 302.814C122.81 302.164 121.129 301.83 119.432 301.83H119.43L99.1465 301.831L99.1471 315.177Z" fill="#2F2E41"/>
<path d="M117.178 288.629L137.712 242.587C139.426 238.706 139.616 234.322 138.243 230.308C136.87 226.294 134.035 222.944 130.303 220.926L85.7647 197.045L65.4409 195.316L46.6936 193.612L46.5585 193.841C46.3856 194.133 42.3547 201.095 45.0794 208.729C47.1462 214.519 52.5221 219.042 61.0577 222.171C80.9809 229.476 103.996 235.719 112.966 238.064C113.363 238.165 113.733 238.35 114.054 238.604C114.374 238.859 114.636 239.179 114.824 239.542C115.012 239.902 115.124 240.296 115.153 240.701C115.181 241.105 115.125 241.512 114.989 241.894L95.9126 284.75C95.7134 285.293 95.6416 285.875 95.7029 286.451C95.7642 287.026 95.9569 287.58 96.2661 288.07C96.5754 288.559 96.9929 288.971 97.4864 289.273C97.98 289.576 98.5365 289.761 99.1129 289.815L113.367 290.852C113.488 290.864 113.609 290.87 113.728 290.87C114.459 290.869 115.173 290.658 115.785 290.26C116.397 289.862 116.881 289.296 117.178 288.629V288.629Z" fill="#01B79F"/>
<path d="M95.0523 305.193L105.351 305.192L110.252 278.48L95.0508 278.482L95.0523 305.193Z" fill="#9F616A"/>
<path d="M92.4264 315.177L125.637 315.176V314.756C125.637 313.058 125.303 311.377 124.653 309.809C124.004 308.241 123.052 306.816 121.851 305.616C120.651 304.416 119.226 303.464 117.658 302.814C116.089 302.164 114.409 301.83 112.711 301.83H112.71L92.4258 301.831L92.4264 315.177Z" fill="#2F2E41"/>
<path d="M109.618 291.149L130.152 245.107C131.866 241.226 132.056 236.842 130.683 232.828C129.31 228.814 126.475 225.464 122.743 223.446L78.2047 199.565L57.8809 197.836L43.1971 196.563L43.1991 196.361C43.0262 196.653 38.9954 203.615 41.7201 211.249C43.7868 217.039 44.962 221.562 53.4977 224.692C73.4209 231.996 96.4361 238.239 105.406 240.584C105.803 240.686 106.173 240.87 106.494 241.124C106.814 241.379 107.076 241.699 107.264 242.062C107.452 242.422 107.564 242.816 107.593 243.221C107.621 243.625 107.565 244.032 107.429 244.414L88.3526 287.27C88.1533 287.813 88.0816 288.395 88.1429 288.971C88.2042 289.547 88.3969 290.1 88.7061 290.59C89.0153 291.079 89.4328 291.491 89.9264 291.794C90.42 292.096 90.9765 292.281 91.5529 292.335L105.807 293.373C105.928 293.384 106.049 293.39 106.168 293.39C106.898 293.39 107.613 293.178 108.225 292.78C108.837 292.383 109.321 291.816 109.618 291.149Z" fill="#00BFA6"/>
<path d="M70.9199 197.403C71.9044 196.707 86.0423 204.124 88.5627 198.243C76.8008 168.841 84.906 156.144 77.7012 139.283C76.4323 136.375 74.5206 133.792 72.1099 131.729C69.6992 129.666 66.8522 128.176 63.7829 127.371L45.0903 126.428L44.9935 126.474C40.7754 128.54 37.3354 131.91 35.1836 136.085C33.0318 140.26 32.2827 145.017 33.0474 149.651C33.1139 168.001 44.0938 181.996 40.2546 195.305C40.0936 195.862 40.0466 196.445 40.1165 197.02C40.1863 197.595 40.3716 198.15 40.6611 198.652C40.9419 199.137 41.3189 199.559 41.7691 199.893C42.2193 200.226 42.7331 200.464 43.2787 200.592L67.9605 197.299C68.5371 197.437 69.1363 197.449 69.7182 197.337C70.3001 197.224 70.8513 196.989 71.335 196.646L70.9199 197.403Z" fill="#1B67A5"/>
<path d="M51.3298 119.446C62.726 119.446 71.9643 110.208 71.9643 98.8127C71.9643 87.4174 62.726 78.1797 51.3298 78.1797C39.9337 78.1797 30.6953 87.4174 30.6953 98.8127C30.6953 110.208 39.9337 119.446 51.3298 119.446Z" fill="#9F616A"/>
<path d="M44.7572 117.752C45.8535 118.232 48.0987 109.496 47.093 107.749C45.5973 105.151 45.6857 105.17 44.6929 103.451C43.7 101.731 43.4778 99.3786 44.7636 97.866C46.0493 96.3535 49.0247 96.5542 49.6115 98.4506C49.234 94.8485 52.7972 91.953 56.3266 91.1393C59.8561 90.3256 63.579 90.8308 67.128 90.1067C71.2467 89.2664 75.532 85.8142 73.8887 81.2854C73.6067 80.5314 73.1845 79.8376 72.6444 79.2406C70.7458 77.106 68.0899 76.1945 65.4931 75.3132C60.091 73.4798 54.5411 71.6233 48.8399 71.8257C39.4724 72.1583 30.6178 78.6334 27.4617 87.4588C27.0688 88.56 26.7644 89.6908 26.5515 90.8404C24.5946 101.362 30.7048 111.74 40.6289 115.746L44.7572 117.752Z" fill="#2F2E41"/>
<path d="M152.968 150.931L155.334 164.98C155.36 165.137 155.343 165.298 155.284 165.445L136.72 211.828C136.646 212.011 136.512 212.164 136.339 212.261C136.167 212.358 135.966 212.392 135.771 212.359C135.576 212.325 135.398 212.226 135.268 212.078C135.137 211.929 135.061 211.74 135.053 211.543L134.266 192.904C134.261 192.78 134.283 192.657 134.329 192.542L151.313 150.749C151.384 150.575 151.51 150.428 151.672 150.332C151.834 150.236 152.022 150.195 152.209 150.215C152.396 150.236 152.572 150.317 152.709 150.446C152.845 150.575 152.936 150.746 152.968 150.931V150.931Z" fill="#3F3D56"/>
<path d="M151.654 152.01L153.902 164.08L137.428 206.405L135.289 192.789L151.654 152.01Z" fill="#00BFA6"/>
<path d="M79.5774 211.612C79.9827 213.194 133.2 214.907 133.751 214.428C134.247 213.815 134.676 213.151 135.031 212.448C135.589 211.452 136.106 210.453 136.106 210.453L135.231 193.624L82.8084 188.022C82.8084 188.022 80.4892 202.066 79.7611 208.518C79.5966 209.541 79.5351 210.577 79.5774 211.612Z" fill="#3F3D56"/>
<path opacity="0.1" d="M128.371 195.404L128.376 209.903L105.189 208.255L106.215 193.829L128.371 195.404Z" fill="black"/>
<path opacity="0.1" d="M98.1582 197.916L98.2985 197.899L97.2037 204.062L84.3223 203.147L84.762 196.964L98.1582 197.916Z" fill="black"/>
<path opacity="0.1" d="M79.5774 211.612C79.9827 213.195 133.2 214.907 133.751 214.429C134.247 213.815 134.676 213.152 135.031 212.448L79.7611 208.519C79.5966 209.541 79.5351 210.578 79.5774 211.612Z" fill="black"/>
<path d="M58.2076 186.48L103.098 194.857C103.211 195.138 103.337 195.414 103.478 195.682C104.088 196.829 104.932 197.835 105.957 198.635C106.981 199.435 108.162 200.01 109.423 200.324C110.69 200.642 112.009 200.686 113.294 200.454C114.579 200.221 115.799 199.716 116.873 198.974C118.819 197.639 120.179 195.609 120.677 193.303C121.174 190.996 120.77 188.587 119.548 186.568C118.326 184.55 116.378 183.075 114.103 182.447C111.828 181.818 109.399 182.084 107.314 183.189C106.951 183.384 106.602 183.603 106.269 183.847L67.2783 170.528L65.2826 160.477L49.1094 161.547L50.7852 178.397C50.9886 180.363 51.8205 182.211 53.1575 183.668C54.4946 185.124 56.2656 186.11 58.2076 186.48V186.48Z" fill="#9F616A"/>
<path d="M48.5626 169.063L72.0635 161.339L66.5815 145.6C65.8535 143.51 64.4102 141.745 62.5065 140.616C60.6028 139.487 58.3613 139.068 56.1782 139.431V139.431C53.9698 139.799 51.9657 140.945 50.528 142.661C49.0903 144.377 48.3137 146.551 48.3385 148.79L48.5626 169.063Z" fill="#1B67A5"/>
<path d="M197.642 316H0.517388C0.380168 316 0.248568 315.945 0.151539 315.848C0.05451 315.751 0 315.619 0 315.482C0 315.345 0.05451 315.213 0.151539 315.116C0.248568 315.019 0.380168 314.965 0.517388 314.965H197.642C197.779 314.965 197.911 315.019 198.008 315.116C198.105 315.213 198.16 315.345 198.16 315.482C198.16 315.619 198.105 315.751 198.008 315.848C197.911 315.945 197.779 316 197.642 316Z" fill="#CBCBCB"/>
<path d="M274.322 299.7C283.777 304.593 287.98 315.246 287.98 315.246C287.98 315.246 276.855 317.966 267.4 313.073C257.946 308.181 253.742 297.528 253.742 297.528C253.742 297.528 264.867 294.807 274.322 299.7Z" fill="#F1F1F1"/>
<path d="M271.299 303.224C276.941 312.251 287.9 315.579 287.9 315.579C287.9 315.579 289.711 304.271 284.069 295.244C278.427 286.216 267.468 282.889 267.468 282.889C267.468 282.889 265.657 294.197 271.299 303.224Z" fill="#F1F1F1"/>
<path d="M305.259 315.794H246.277C246.14 315.794 246.008 315.74 245.911 315.643C245.814 315.546 245.76 315.414 245.76 315.277C245.76 315.14 245.814 315.008 245.911 314.911C246.008 314.814 246.14 314.76 246.277 314.76H305.259C305.397 314.76 305.528 314.814 305.625 314.911C305.722 315.008 305.777 315.14 305.777 315.277C305.777 315.414 305.722 315.546 305.625 315.643C305.528 315.74 305.397 315.794 305.259 315.794Z" fill="#CBCBCB"/>
</g>
<defs>
<clipPath id="clip0_266_1704">
<rect width="400" height="316" fill="white"/>
</clipPath>
</defs>
</svg>
