<svg width="455" height="274" viewBox="0 0 455 274" fill="none" xmlns="http://www.w3.org/2000/svg">
<g clip-path="url(#clip0_266_1388)">
<path d="M262.624 220.131C261.562 220.131 260.524 220.445 259.641 221.035C258.758 221.624 258.069 222.462 257.663 223.442C257.256 224.422 257.15 225.5 257.357 226.54C257.564 227.581 258.076 228.536 258.827 229.286C259.578 230.036 260.535 230.547 261.577 230.754C262.618 230.961 263.698 230.855 264.68 230.449C265.661 230.043 266.5 229.355 267.09 228.473C267.68 227.592 267.995 226.555 267.995 225.494C267.995 224.072 267.429 222.707 266.422 221.702C265.415 220.696 264.049 220.131 262.624 220.131ZM262.624 228.794C261.971 228.794 261.332 228.601 260.788 228.238C260.245 227.876 259.821 227.36 259.571 226.757C259.321 226.154 259.255 225.49 259.383 224.85C259.51 224.21 259.825 223.622 260.287 223.16C260.75 222.699 261.338 222.384 261.98 222.257C262.621 222.13 263.285 222.195 263.889 222.445C264.493 222.694 265.009 223.118 265.372 223.66C265.736 224.203 265.929 224.841 265.929 225.494V225.494C265.929 226.369 265.581 227.209 264.961 227.828C264.342 228.447 263.501 228.794 262.624 228.794V228.794Z" fill="#E4E4E4"/>
<path d="M241.969 216.005H262.625V236.421C262.625 237.133 262.341 237.817 261.837 238.321C261.332 238.825 260.648 239.108 259.934 239.108H244.66C243.946 239.108 243.261 238.825 242.757 238.321C242.252 237.817 241.969 237.133 241.969 236.421V216.005V216.005Z" fill="#E4E4E4"/>
<path d="M310.886 239.574H0.418928C0.30379 239.562 0.197369 239.507 0.12006 239.421C0.0427522 239.335 0 239.223 0 239.107C0 238.992 0.0427522 238.88 0.12006 238.794C0.197369 238.708 0.30379 238.653 0.418928 238.641H310.886C311.001 238.653 311.108 238.708 311.185 238.794C311.262 238.88 311.305 238.992 311.305 239.107C311.305 239.223 311.262 239.335 311.185 239.421C311.108 239.507 311.001 239.562 310.886 239.574V239.574Z" fill="#CACACA"/>
<path d="M41.7912 230.758L39.8711 240.239L75.5775 252.148L78.4118 238.155L41.7912 230.758Z" fill="#FFB6B6"/>
<path d="M45.3818 228.965L41.5999 247.637L41.5998 247.638C40.9603 250.794 39.0918 253.566 36.4052 255.347C33.7186 257.127 30.434 257.768 27.2739 257.13L26.8867 257.052L33.0788 226.48L45.3818 228.965Z" fill="#2F2E41"/>
<path d="M82.2525 100.159C95.6425 100.159 106.497 89.3192 106.497 75.9476C106.497 62.5761 95.6425 51.7363 82.2525 51.7363C68.8625 51.7363 58.0078 62.5761 58.0078 75.9476C58.0078 89.3192 68.8625 100.159 82.2525 100.159Z" fill="#FEB8B8"/>
<path d="M104.899 55.0607C101.274 49.1828 95.6 44.8515 88.9691 42.9007L85.9927 45.0697V42.2533C84.4002 42.0099 82.7884 41.9161 81.1784 41.9732L78.6105 44.2935V42.166C74.8085 42.6378 71.1455 43.8912 67.8527 45.8471C64.5599 47.803 61.7087 50.4191 59.4787 53.5302C53.9021 61.5585 52.9608 72.7276 58.4457 80.8203C59.9512 76.1994 61.7788 71.8636 63.2848 67.2432C64.4682 67.4043 65.6676 67.4101 66.8525 67.2605L68.6842 62.9919L69.196 67.0798C74.8741 66.586 83.2957 65.5012 88.6784 64.5075L88.1549 61.3713L91.2865 63.9773C92.9355 63.5983 93.9147 63.2543 93.8338 62.9915C97.8372 69.4365 102.736 73.5529 106.739 79.9979C108.26 70.9101 110.01 63.3537 104.899 55.0607Z" fill="#2F2E41"/>
<path d="M90.1414 234.382C124.619 234.382 152.568 226.575 152.568 216.945C152.568 207.314 124.619 199.507 90.1414 199.507C55.6641 199.507 27.7148 207.314 27.7148 216.945C27.7148 226.575 55.6641 234.382 90.1414 234.382Z" fill="#1B67A5"/>
<path d="M134.397 138.208C133.564 133.2 132.704 128.095 130.373 123.583C128.841 120.627 126.409 117.811 123.13 117.226C122.484 117.169 121.85 117.022 121.244 116.79C120.284 116.328 107.375 108.969 105.323 107.687C103.562 106.587 100.781 104.55 99.3784 104.55C97.9678 104.519 92.5586 105.776 71.4462 104.128C67.8949 105.551 64.456 107.24 61.1585 109.179C61.0905 109.134 39.2458 120.849 38.4251 120.818C36.8709 120.753 35.4262 121.746 34.5352 122.998C33.6444 124.249 33.2266 125.798 32.7891 127.296C37.5603 137.907 41.9258 148.531 46.6975 159.142C46.921 159.542 47.0397 159.991 47.0426 160.449C46.9467 160.924 46.7437 161.371 46.449 161.756C44.109 165.51 44.1834 170.231 44.439 174.643C44.6949 179.055 45.0112 183.715 43.0368 187.669C42.4998 188.755 41.8014 189.749 41.2907 190.834C40.0945 193.293 39.6623 201.158 40.3609 203.799L127.89 206.304C126.008 201.137 134.397 138.208 134.397 138.208Z" fill="#00BFA6"/>
<path d="M25.2218 159.612C25.0471 160.874 25.0295 162.152 25.1694 163.418L26.4239 181.41C26.5417 183.106 26.6576 184.797 26.817 186.489C27.118 189.772 27.5677 193.028 28.1257 196.28C28.1383 196.742 28.3339 197.18 28.6694 197.498C29.0049 197.816 29.453 197.988 29.9154 197.976C35.4378 199.143 41.1434 199.096 46.7794 198.778C55.3796 198.299 77.3822 197.392 78.7265 195.648C80.0707 193.904 79.2873 191.084 77.5346 189.674C75.7818 188.264 46.7462 184.826 46.7462 184.826C47.0299 182.581 47.8857 180.466 48.6976 178.335C50.1559 174.554 51.5179 170.649 51.5441 166.599C51.5703 162.549 50.0423 158.291 46.72 155.97C43.9871 154.065 40.4685 153.712 37.1382 153.791C34.7152 153.86 30.5287 153.28 28.3155 154.227C26.5641 154.997 25.5489 157.9 25.2218 159.612Z" fill="#FBBEBE"/>
<path d="M134.552 200.282C136.006 199.729 137.608 199.929 139.166 200.139C144.182 200.823 149.273 201.525 153.922 203.526C156.105 204.459 158.183 205.706 159.658 207.54C160.967 209.192 161.732 211.215 162.457 213.207L164.133 217.794C164.846 219.517 165.337 221.323 165.596 223.169C166.12 228.658 162.361 233.832 157.633 236.684C152.905 239.535 147.339 240.55 141.917 241.614C136.495 242.678 131.051 243.854 125.651 245.102C123.133 245.754 120.577 246.256 117.998 246.605C112.219 247.259 106.177 246.296 100.685 248.205C98.5021 248.969 96.3586 250.102 94.0945 250.629C92.5895 250.946 91.0679 251.177 89.5368 251.323L79.1427 252.508C77.0291 252.79 74.9012 252.953 72.7692 252.996C68.2293 252.996 63.7632 251.923 59.3547 250.849C58.8862 250.767 58.4403 250.587 58.0459 250.322C57.3476 249.772 57.1948 248.8 57.0943 247.92C56.649 244.022 56.2595 240.121 55.9258 236.215C55.8211 234.946 55.7426 233.573 56.4367 232.505C57.3098 231.198 59.0125 230.787 60.5667 230.534C67.1567 229.458 73.8327 228.995 80.5085 229.152C83.0446 226.62 87.2269 226.607 90.5492 225.229C91.7714 224.668 92.9543 224.026 94.0898 223.306C100.032 219.844 106.673 217.748 113.529 217.172C114.872 217.132 116.206 216.942 117.506 216.606C120.077 215.808 122.422 213.637 125.063 214.169C125.39 213.267 125.617 212.059 126.372 211.44C126.745 211.121 127.21 210.908 127.555 210.568C128.284 209.831 128.349 208.671 128.24 207.643C128.13 206.614 127.886 205.559 128.152 204.556C128.263 204.176 128.426 203.814 128.637 203.479C129.942 201.224 131.92 200.064 134.552 200.282Z" fill="#1B67A5"/>
<path d="M32.5355 127.619C32.1103 128.064 31.7805 128.591 31.5665 129.167C28.0378 137.109 25.9535 145.615 25.4113 154.286C25.4208 154.709 25.3232 155.127 25.1276 155.503C24.9346 155.752 24.7199 155.984 24.4858 156.196C24.2818 156.437 24.1274 156.717 24.0314 157.018C23.9354 157.319 23.8998 157.636 23.9266 157.951C23.9534 158.266 24.042 158.572 24.1874 158.853C24.3328 159.134 24.5321 159.383 24.774 159.587C24.8137 159.62 24.8544 159.652 24.8962 159.683C25.6165 158.33 27.3407 157.887 28.8733 157.77C36.2116 157.19 43.3797 160.599 50.7399 160.342C50.2206 158.55 49.4737 156.828 49.0502 155.015C47.1774 146.963 51.8486 138.196 48.9848 130.44C48.4127 128.888 47.4569 127.362 45.9509 126.682C45.3273 126.431 44.6747 126.259 44.0084 126.169C42.1486 125.833 38.4463 124.399 36.6481 124.975C35.9844 125.188 35.7227 125.811 35.1726 126.188C34.3368 126.721 33.2282 126.917 32.5355 127.619Z" fill="#00BFA6"/>
<path d="M134.45 154.227C132.236 153.28 128.05 153.86 125.627 153.791C122.297 153.712 118.778 154.065 116.045 155.97C112.723 158.291 111.195 162.549 111.221 166.599C111.247 170.649 112.609 174.554 114.067 178.335C114.879 180.466 115.735 182.581 116.019 184.826C116.019 184.826 86.9833 188.264 85.2305 189.674C83.4777 191.084 82.6943 193.904 84.0386 195.648C85.3829 197.392 127.327 199.143 132.85 197.976C133.312 197.988 133.76 197.816 134.096 197.498C134.431 197.18 134.627 196.742 134.639 196.28C135.197 193.028 135.647 189.772 135.948 186.489C136.107 184.797 136.223 183.106 136.341 181.41L137.596 163.418C137.736 162.152 137.718 160.874 137.543 159.612C137.216 157.9 136.201 154.997 134.45 154.227Z" fill="#FBBEBE"/>
<path d="M127.593 126.188C127.043 125.811 126.781 125.188 126.117 124.975C124.319 124.399 120.617 125.833 118.757 126.169C118.091 126.259 117.438 126.431 116.814 126.682C115.308 127.362 114.353 128.888 113.78 130.44C110.917 138.196 115.588 146.963 113.715 155.015C113.292 156.828 112.545 158.55 112.025 160.342C119.386 160.599 126.554 157.19 133.892 157.77C135.425 157.887 137.149 158.33 137.869 159.683C137.911 159.652 137.952 159.62 137.991 159.587C138.233 159.383 138.433 159.134 138.578 158.853C138.723 158.572 138.812 158.266 138.839 157.951C138.865 157.636 138.83 157.319 138.734 157.018C138.638 156.717 138.484 156.437 138.279 156.196C138.045 155.984 137.831 155.752 137.638 155.503C137.442 155.127 137.345 154.709 137.354 154.286C136.812 145.615 134.728 137.109 131.199 129.167C130.985 128.591 130.655 128.064 130.23 127.619C129.537 126.917 128.428 126.721 127.593 126.188Z" fill="#00BFA6"/>
<path d="M139.867 244.292L138.591 253.881L100.947 253.528L102.831 239.376L139.867 244.292Z" fill="#FFB6B6"/>
<path d="M149.501 243.081L145.386 274L144.995 273.948C141.799 273.523 138.903 271.849 136.943 269.292C134.983 266.735 134.121 263.506 134.545 260.314L134.545 260.314L137.059 241.43L149.501 243.081Z" fill="#2F2E41"/>
<path d="M51.3058 205.135C51.3058 205.571 50.6206 205.135 50.5579 204.668C50.0779 201.142 47.2749 198.234 44.0096 196.821C40.7443 195.409 37.0247 195.335 33.4888 195.67C28.1412 196.176 22.1384 198.221 20.1827 203.212C19.72 204.379 15.3853 214.769 15.8083 217.106C16.9478 223.34 21.2171 228.672 26.3903 232.364C31.5636 236.057 37.608 238.263 43.6376 240.252C59.5789 245.503 75.9346 249.404 92.5313 251.914C95.2203 252.32 97.9359 252.694 100.511 253.557C102.816 254.329 104.973 255.484 107.226 256.391C112.464 258.492 118.1 259.242 123.683 259.979C124.635 260.101 125.726 260.188 126.429 259.543C127.338 258.703 127.037 257.237 126.778 256.029C125.831 251.438 126.626 246.659 129.009 242.62C129.944 241.051 131.159 239.442 130.983 237.625C130.773 235.507 128.66 234.007 126.556 233.667C124.452 233.327 122.313 233.828 120.199 234.103C119.475 234.269 118.716 234.194 118.038 233.889C117.724 233.677 117.44 233.425 117.192 233.139C115.736 231.737 113.873 230.831 111.87 230.552C109.867 230.272 107.827 230.633 106.042 231.583C105.261 232.019 104.079 231.047 103.266 230.681L94.085 226.531C83.538 221.766 72.9387 216.979 61.7803 213.962C60.89 213.787 60.0438 213.436 59.2919 212.929C58.7375 212.493 58.3402 211.902 57.8294 211.416C56.716 210.365 55.1651 209.947 53.8307 209.201C52.4963 208.456 51.0001 206.63 51.3058 205.135Z" fill="#1B67A5"/>
<path d="M75.073 198.835C78.6869 198.835 81.6166 195.909 81.6166 192.3C81.6166 188.691 78.6869 185.766 75.073 185.766C71.459 185.766 68.5293 188.691 68.5293 192.3C68.5293 195.909 71.459 198.835 75.073 198.835Z" fill="#FBBEBE"/>
<path d="M89.5632 198.835C93.1772 198.835 96.1069 195.909 96.1069 192.3C96.1069 188.691 93.1772 185.766 89.5632 185.766C85.9492 185.766 83.0195 188.691 83.0195 192.3C83.0195 195.909 85.9492 198.835 89.5632 198.835Z" fill="#FBBEBE"/>
<path d="M129.955 207.026H40.0547C39.0051 207.024 37.9989 206.608 37.2567 205.866C36.5145 205.125 36.097 204.12 36.0957 203.072V148.608C36.097 147.559 36.5145 146.555 37.2567 145.813C37.9989 145.072 39.0051 144.655 40.0547 144.654H129.955C131.004 144.655 132.011 145.072 132.753 145.813C133.495 146.555 133.912 147.559 133.914 148.608V203.072C133.912 204.12 133.495 205.125 132.753 205.866C132.011 206.608 131.004 207.024 129.955 207.026Z" fill="#CCCCCC"/>
<path d="M84.7873 178.455C86.2339 178.455 87.4066 177.284 87.4066 175.839C87.4066 174.395 86.2339 173.224 84.7873 173.224C83.3407 173.224 82.168 174.395 82.168 175.839C82.168 177.284 83.3407 178.455 84.7873 178.455Z" fill="white"/>
<path d="M405.72 98.2307H288.919C288.299 98.2299 287.705 97.9838 287.267 97.5463C286.829 97.1088 286.583 96.5156 286.582 95.8969V73.9124H287.517V95.8969C287.517 96.2681 287.665 96.624 287.928 96.8866C288.191 97.1491 288.547 97.2967 288.919 97.2971H405.72C406.092 97.2967 406.448 97.1491 406.711 96.8866C406.974 96.624 407.122 96.2681 407.122 95.8969V73.7588H408.057V95.8969C408.056 96.5156 407.81 97.1088 407.372 97.5463C406.934 97.9838 406.34 98.2299 405.72 98.2307V98.2307Z" fill="#3F3D56"/>
<path d="M448.063 73.4453H173.594V74.3788H448.063V73.4453Z" fill="#3F3D56"/>
<path d="M173.613 81.869C178.053 81.869 181.653 78.2742 181.653 73.8398C181.653 69.4053 178.053 65.8105 173.613 65.8105C169.172 65.8105 165.572 69.4053 165.572 73.8398C165.572 78.2742 169.172 81.869 173.613 81.869Z" fill="#00BFA6"/>
<path d="M255.318 81.869C259.758 81.869 263.358 78.2742 263.358 73.8398C263.358 69.4053 259.758 65.8105 255.318 65.8105C250.877 65.8105 247.277 69.4053 247.277 73.8398C247.277 78.2742 250.877 81.869 255.318 81.869Z" fill="#00BFA6"/>
<path d="M310.767 105.469C315.207 105.469 318.807 101.874 318.807 97.4394C318.807 93.005 315.207 89.4102 310.767 89.4102C306.326 89.4102 302.727 93.005 302.727 97.4394C302.727 101.874 306.326 105.469 310.767 105.469Z" fill="#3F3D56"/>
<path d="M352.919 105.469C357.36 105.469 360.959 101.874 360.959 97.4394C360.959 93.005 357.36 89.4102 352.919 89.4102C348.479 89.4102 344.879 93.005 344.879 97.4394C344.879 101.874 348.479 105.469 352.919 105.469Z" fill="#CCCCCC"/>
<path d="M332.493 81.869C336.934 81.869 340.534 78.2742 340.534 73.8398C340.534 69.4053 336.934 65.8105 332.493 65.8105C328.053 65.8105 324.453 69.4053 324.453 73.8398C324.453 78.2742 328.053 81.869 332.493 81.869Z" fill="#00BFA6"/>
<path d="M446.96 81.869C451.401 81.869 455.001 78.2742 455.001 73.8398C455.001 69.4053 451.401 65.8105 446.96 65.8105C442.52 65.8105 438.92 69.4053 438.92 73.8398C438.92 78.2742 442.52 81.869 446.96 81.869Z" fill="#00BFA6"/>
<path d="M407.591 81.869C412.032 81.869 415.631 78.2742 415.631 73.8398C415.631 69.4053 412.032 65.8105 407.591 65.8105C403.151 65.8105 399.551 69.4053 399.551 73.8398C399.551 78.2742 403.151 81.869 407.591 81.869Z" fill="#00BFA6"/>
<path d="M318.044 0H303.131V10.264H318.044V0Z" fill="#3F3D56"/>
<path d="M181.128 0H166.215V10.264H181.128V0Z" fill="#00BFA6"/>
<path d="M231.642 0H216.729V10.264H231.642V0Z" fill="#CCCCCC"/>
<path d="M198.546 74.379C198.422 74.379 198.303 74.3298 198.215 74.2423C198.127 74.1548 198.078 74.036 198.078 73.9122V50.8719C198.079 50.2531 198.325 49.6599 198.763 49.2224C199.202 48.7849 199.796 48.5388 200.415 48.5381H223.166C223.29 48.5381 223.409 48.5873 223.496 48.6748C223.584 48.7623 223.633 48.8811 223.633 49.0048C223.633 49.1286 223.584 49.2474 223.496 49.3349C223.409 49.4224 223.29 49.4716 223.166 49.4716H200.415C200.043 49.472 199.687 49.6197 199.424 49.8822C199.161 50.1447 199.013 50.5006 199.013 50.8719V73.9122C199.013 74.036 198.964 74.1548 198.876 74.2423C198.788 74.3298 198.669 74.379 198.546 74.379V74.379Z" fill="#3F3D56"/>
<path d="M224.234 56.8602C228.674 56.8602 232.274 53.2654 232.274 48.831C232.274 44.3966 228.674 40.8018 224.234 40.8018C219.793 40.8018 216.193 44.3966 216.193 48.831C216.193 53.2654 219.793 56.8602 224.234 56.8602Z" fill="#E6E6E6"/>
<path d="M378.495 73.9122H377.561V50.8719C377.561 50.2531 377.808 49.6599 378.246 49.2224C378.684 48.7849 379.278 48.5388 379.898 48.5381H402.648V49.4716H379.898C379.526 49.472 379.169 49.6197 378.907 49.8822C378.644 50.1447 378.496 50.5006 378.495 50.8719V73.9122Z" fill="#3F3D56"/>
<path d="M403.718 56.8602C408.159 56.8602 411.758 53.2654 411.758 48.831C411.758 44.3966 408.159 40.8018 403.718 40.8018C399.277 40.8018 395.678 44.3966 395.678 48.831C395.678 53.2654 399.277 56.8602 403.718 56.8602Z" fill="#E6E6E6"/>
</g>
<defs>
<clipPath id="clip0_266_1388">
<rect width="455" height="274" fill="white"/>
</clipPath>
</defs>
</svg>
