<svg width="340" height="330" viewBox="0 0 340 330" fill="none" xmlns="http://www.w3.org/2000/svg">
<g clip-path="url(#clip0_266_1493)">
<path d="M216.857 73.9746H198.766V227.598C198.766 230.008 198.29 232.395 197.364 234.621C196.438 236.848 195.08 238.872 193.369 240.576C191.658 242.28 189.627 243.632 187.391 244.555C185.155 245.477 182.759 245.952 180.339 245.952H42.0293V246.127C42.0293 248.538 42.5059 250.924 43.4319 253.151C44.358 255.378 45.7153 257.401 47.4264 259.106C49.1375 260.81 51.1689 262.162 53.4046 263.084C55.6402 264.007 58.0364 264.481 60.4563 264.481H216.857C219.277 264.481 221.673 264.007 223.909 263.084C226.144 262.162 228.176 260.81 229.887 259.106C231.598 257.401 232.955 255.378 233.881 253.151C234.807 250.924 235.284 248.538 235.284 246.127V92.3287C235.284 87.4609 233.342 82.7925 229.887 79.3504C226.431 75.9083 221.744 73.9746 216.857 73.9746V73.9746Z" fill="#F2F2F2"/>
<path d="M302.616 318.104C302.937 318.119 303.254 318.035 303.525 317.864C303.795 317.694 304.007 317.444 304.131 317.149C304.254 316.855 304.284 316.529 304.216 316.217C304.148 315.905 303.985 315.622 303.75 315.405L303.642 314.981C303.657 314.947 303.671 314.913 303.685 314.879C304.008 314.12 304.548 313.473 305.239 313.019C305.93 312.565 306.74 312.324 307.567 312.327C308.395 312.33 309.203 312.577 309.89 313.036C310.578 313.495 311.114 314.146 311.43 314.908C312.697 317.947 314.31 320.991 314.707 324.204C314.882 325.624 314.808 327.064 314.489 328.459C317.465 321.995 319.01 314.968 319.02 307.856C319.02 306.072 318.921 304.289 318.721 302.515C318.557 301.061 318.328 299.618 318.036 298.184C316.441 290.408 313.017 283.119 308.045 276.917C305.639 275.609 303.693 273.598 302.469 271.154C302.026 270.276 301.713 269.338 301.539 268.37C301.811 268.406 302.563 264.288 302.358 264.035C302.736 263.464 303.413 263.179 303.826 262.621C305.881 259.846 308.712 260.331 310.19 264.102C313.348 265.689 313.378 268.321 311.441 270.853C310.208 272.463 310.039 274.643 308.958 276.367C309.069 276.509 309.185 276.646 309.296 276.788C311.33 279.393 313.102 282.19 314.588 285.139C314.227 281.835 314.658 278.493 315.847 275.387C317.051 272.493 319.309 270.055 321.297 267.553C321.823 266.881 322.537 266.379 323.349 266.111C324.161 265.844 325.035 265.821 325.859 266.048C326.684 266.274 327.423 266.739 327.982 267.384C328.542 268.028 328.897 268.824 329.003 269.669C329.007 269.706 329.011 269.743 329.015 269.78C328.719 269.946 328.43 270.122 328.148 270.308C327.792 270.545 327.517 270.883 327.358 271.278C327.198 271.673 327.163 272.106 327.255 272.522C327.347 272.937 327.564 273.316 327.876 273.607C328.187 273.898 328.58 274.088 329.003 274.153L329.046 274.159C328.941 275.22 328.755 276.27 328.49 277.302C331.04 287.127 325.534 290.705 317.671 290.866C317.498 290.955 317.328 291.043 317.155 291.128C318.648 295.342 319.584 299.731 319.941 304.186C320.142 306.814 320.131 309.454 319.905 312.081L319.918 311.988C320.488 309.067 322.052 306.432 324.346 304.527C327.754 301.739 332.568 300.713 336.244 298.471C336.635 298.222 337.089 298.088 337.554 298.087C338.018 298.086 338.473 298.217 338.865 298.465C339.257 298.713 339.569 299.067 339.766 299.487C339.962 299.906 340.034 300.372 339.973 300.83L339.958 300.928C339.41 301.151 338.876 301.407 338.36 301.695C338.065 301.861 337.776 302.037 337.493 302.223C337.138 302.46 336.862 302.798 336.703 303.193C336.544 303.588 336.508 304.021 336.601 304.437C336.693 304.852 336.909 305.23 337.221 305.522C337.533 305.813 337.926 306.003 338.348 306.068L338.391 306.074C338.423 306.079 338.449 306.083 338.48 306.088C337.544 308.315 336.23 310.364 334.595 312.147C333 320.724 326.151 321.538 318.824 319.04H318.819C318.015 322.52 316.851 325.907 315.344 329.146H302.928C302.883 329.009 302.843 328.867 302.803 328.73C303.952 328.802 305.106 328.733 306.238 328.526C305.317 327.4 304.396 326.265 303.475 325.139C303.454 325.118 303.435 325.096 303.417 325.073C302.95 324.497 302.478 323.925 302.011 323.348L302.01 323.348C301.986 321.581 302.189 319.819 302.616 318.105L302.616 318.104Z" fill="#F2F2F2"/>
<path d="M165.863 53.0773C166.316 53.7613 166.914 54.3392 167.613 54.7708C168.313 55.2024 169.098 55.4776 169.915 55.5771C170.732 55.6767 171.56 55.5984 172.344 55.3476C173.127 55.0967 173.847 54.6794 174.452 54.1244L200.266 65.7245L205.243 59.4016L174.482 45.8472C173.469 44.9014 172.142 44.3588 170.753 44.3223C169.365 44.2858 168.011 44.7578 166.949 45.649C165.886 46.5402 165.189 47.7887 164.989 49.1577C164.789 50.5268 165.1 51.9214 165.863 53.0773H165.863Z" fill="#A0616A"/>
<path d="M276.643 60.3104L279.203 74.761C279.323 75.4352 279.299 76.1268 279.135 76.7914C278.97 77.456 278.667 78.079 278.247 78.6203C277.826 79.1616 277.296 79.6093 276.691 79.9346C276.087 80.26 275.42 80.4558 274.735 80.5094L231.232 83.9169L180.096 61.1215L186.203 49.5732L230.594 63.575L276.643 60.3104Z" fill="#00BFA6"/>
<path d="M174.828 49.9541H18.427C8.25003 49.9541 0 58.1715 0 68.3082V222.107C0 232.243 8.25003 240.461 18.427 240.461H174.828C185.005 240.461 193.255 232.243 193.255 222.107V68.3082C193.255 58.1715 185.005 49.9541 174.828 49.9541Z" fill="#F2F2F2"/>
<path d="M18.4265 53.7285C16.5043 53.7285 14.6009 54.1056 12.825 54.8383C11.0491 55.571 9.43548 56.6449 8.07627 57.9988C6.71705 59.3526 5.63886 60.9598 4.90326 62.7287C4.16766 64.4976 3.78906 66.3935 3.78906 68.3081V222.107C3.78906 225.974 5.33121 229.682 8.07627 232.416C10.8213 235.15 14.5444 236.686 18.4265 236.686H118.245C127.598 236.686 136.859 234.852 145.5 231.287C154.14 227.722 161.991 222.496 168.605 215.909C175.218 209.322 180.464 201.502 184.043 192.895C187.622 184.289 189.464 175.064 189.464 165.749V68.3081C189.464 66.3935 189.086 64.4976 188.35 62.7287C187.614 60.9598 186.536 59.3526 185.177 57.9988C183.818 56.6449 182.204 55.571 180.428 54.8383C178.653 54.1056 176.749 53.7285 174.827 53.7285H18.4265Z" fill="white"/>
<path d="M140.349 100.404H52.5645C51.759 100.404 50.9865 100.085 50.4169 99.5178C49.8473 98.9505 49.5273 98.181 49.5273 97.3787C49.5273 96.5764 49.8473 95.8069 50.4169 95.2396C50.9865 94.6722 51.759 94.3535 52.5645 94.3535H140.349C141.154 94.3535 141.927 94.6722 142.497 95.2396C143.066 95.8069 143.386 96.5764 143.386 97.3787C143.386 98.181 143.066 98.9505 142.497 99.5178C141.927 100.085 141.154 100.404 140.349 100.404Z" fill="#F2F2F2"/>
<path d="M140.349 164.915H52.5645C51.759 164.915 50.9865 164.596 50.4169 164.029C49.8473 163.461 49.5273 162.692 49.5273 161.889C49.5273 161.087 49.8473 160.318 50.4169 159.75C50.9865 159.183 51.759 158.864 52.5645 158.864H140.349C141.154 158.864 141.927 159.183 142.497 159.75C143.066 160.318 143.386 161.087 143.386 161.889C143.386 162.692 143.066 163.461 142.497 164.029C141.927 164.596 141.154 164.915 140.349 164.915Z" fill="#F2F2F2"/>
<path d="M175.995 132.68H16.9161C16.1106 132.68 15.3381 132.362 14.7685 131.794C14.1989 131.227 13.8789 130.457 13.8789 129.655C13.8789 128.853 14.1989 128.083 14.7685 127.516C15.3381 126.949 16.1106 126.63 16.9161 126.63H175.995C176.801 126.63 177.573 126.949 178.143 127.516C178.712 128.083 179.032 128.853 179.032 129.655C179.032 130.457 178.712 131.227 178.143 131.794C177.573 132.362 176.801 132.68 175.995 132.68V132.68Z" fill="#F2F2F2"/>
<path d="M271.148 124.003L255.301 157.631L316.262 151.481L303.537 119.199L271.148 124.003Z" fill="#A0616A"/>
<path d="M285.321 317.284L279.541 317.235L276.982 294.512L285.512 294.584L285.321 317.284Z" fill="#A0616A"/>
<path d="M266.805 326.438C266.8 327.121 267.066 327.778 267.547 328.264C268.027 328.751 268.682 329.028 269.367 329.035L280.859 329.13L282.87 325.069L283.609 329.151L287.945 329.19L286.85 314.629L285.342 314.53L279.188 314.107L277.203 313.975L277.168 318.094L267.937 324.331C267.591 324.565 267.308 324.879 267.11 325.246C266.913 325.613 266.808 326.022 266.805 326.438V326.438Z" fill="#2F2E41"/>
<path d="M221.354 317.311L215.844 315.573L220.101 293.104L228.234 295.668L221.354 317.311Z" fill="#A0616A"/>
<path d="M200.958 320.643C200.752 321.294 200.813 322 201.129 322.605C201.444 323.211 201.988 323.668 202.641 323.875L213.597 327.329L216.718 324.035L216.22 328.154L220.354 329.46L223.602 315.222L222.19 314.685L216.433 312.48L214.574 311.772L213.325 315.7L202.662 318.96C202.262 319.082 201.899 319.299 201.602 319.592C201.305 319.886 201.084 320.246 200.958 320.643V320.643Z" fill="#2F2E41"/>
<path d="M313.485 142.024L258.056 152.141C258.056 152.141 249.166 158.765 251.544 161.137C253.922 163.509 254.291 163.142 252.729 164.698C251.166 166.255 247.788 168.335 247.754 169.697C247.721 171.059 222.917 232.138 222.917 232.138C222.917 232.138 225.673 230.766 223.606 232.824C221.539 234.883 221.539 236.584 221.539 236.584L211.893 301.453L227.558 302.372L242.898 243.232L277.114 187.983C277.114 187.983 280.509 237.251 280.651 240.528C280.794 243.805 282.861 239.687 280.794 243.805C278.727 247.923 277.349 245.178 278.727 247.923C280.105 250.668 273.762 306.555 273.762 306.555H288.062L318.729 190.716C318.729 190.716 329.641 157.599 313.485 142.024Z" fill="#1B67A5"/>
<path d="M297.157 49.3682L274.954 47.0703L269.201 54.5092L262.5 58.0643C259.664 59.5688 257.323 61.855 255.757 64.6497C254.191 67.4444 253.467 70.6291 253.67 73.8231L261.502 119.2C261.502 119.2 254.887 134.037 259.435 137.729C263.983 141.422 255.918 150.568 265.636 145.965C275.353 141.362 317.312 146.651 317.312 146.651L308.355 121.259L315.046 96.3069L315.782 75.3852C315.92 71.4756 314.755 67.6306 312.47 64.4493C310.184 61.2681 306.906 58.9294 303.146 57.7978L302.211 57.5162L297.157 49.3682Z" fill="#00BFA6"/>
<path d="M327.723 32.4137C327.868 38.6472 325.529 44.6831 322.169 49.9847C321.171 46.8897 319.376 44.0729 317.505 41.3877C318.448 47.1966 317.443 53.1533 314.645 58.3359C314.547 58.4062 314.444 58.4714 314.339 58.5314C311.6 60.1724 308.128 60.837 305.166 59.6518C311.287 53.0795 312.066 42.19 306.934 34.8181C305.481 32.7263 303.602 30.8762 302.702 28.4957C301.281 24.6974 302.647 20.5154 303.508 16.5553C304.314 12.8697 304.455 8.48374 301.973 5.78262C302.238 5.40515 302.599 5.10467 303.019 4.912C303.439 4.71932 303.903 4.64137 304.364 4.68612C305.894 4.90147 307.008 6.22659 307.718 7.59139C308.427 8.95615 308.895 10.4688 309.884 11.6476C311.716 13.854 314.834 14.3756 317.462 15.5385C323.827 18.3623 327.57 25.4775 327.723 32.4137Z" fill="#2F2E41"/>
<path d="M163.744 329.183C163.744 329.29 163.765 329.397 163.806 329.496C163.847 329.595 163.907 329.685 163.984 329.761C164.06 329.837 164.15 329.897 164.25 329.938C164.35 329.979 164.456 330 164.564 330H339.084C339.301 330 339.51 329.914 339.663 329.76C339.817 329.607 339.904 329.399 339.904 329.183C339.904 328.966 339.817 328.759 339.663 328.605C339.51 328.452 339.301 328.366 339.084 328.366H164.564C164.456 328.366 164.35 328.387 164.25 328.428C164.15 328.469 164.06 328.529 163.984 328.605C163.907 328.681 163.847 328.771 163.806 328.87C163.765 328.969 163.744 329.076 163.744 329.183Z" fill="#CCCCCC"/>
<path d="M329.098 176.889C332.522 176.889 335.299 174.124 335.299 170.713C335.299 167.301 332.522 164.536 329.098 164.536C325.673 164.536 322.896 167.301 322.896 170.713C322.896 174.124 325.673 176.889 329.098 176.889Z" fill="#00BFA6"/>
<path d="M274.148 28.8497C274.511 27.5817 272.004 35.3326 273.214 35.4725C278.724 36.1021 286.287 39.3796 290.125 40.9087C290.298 40.8887 290.471 40.8687 290.638 40.8437C291.05 40.7987 291.452 40.7338 291.848 40.6589C300.783 38.9749 304.22 25.3031 304.22 25.1782C304.22 24.5636 302.739 7.68267 300.406 7.43286C299.793 7.36664 299.177 7.33327 298.561 7.33292H292.771C291.573 7.07579 290.359 6.90049 289.137 6.80825H289.127C277.472 5.92378 268.283 12.9994 269.142 21.6091C269.147 21.6191 269.157 21.6291 269.162 21.6391C269.411 22.0089 269.629 22.3587 269.823 22.6935C270.011 23.0083 270.168 23.3081 270.305 23.5929C271.368 25.7916 268.637 28.5582 270.448 29.0746C272.856 29.7614 264.114 52.3353 273.646 52.3353C269.009 53.6483 273.144 32.3475 274.148 28.8497Z" fill="#2F2E41"/>
<path d="M284.551 42.0944C292.121 42.0944 298.257 35.9819 298.257 28.4418C298.257 20.9016 292.121 14.7891 284.551 14.7891C276.981 14.7891 270.844 20.9016 270.844 28.4418C270.844 35.9819 276.981 42.0944 284.551 42.0944Z" fill="#A0616A"/>
<path d="M269.143 22.3529C269.371 22.4728 269.595 22.5828 269.824 22.6927C270.063 22.8076 270.301 22.9226 270.54 23.0275C275.13 25.1012 278.866 25.3311 281.133 22.3529C281.194 20.7859 281.547 19.2438 282.175 17.8057C282.064 19.4128 282.489 21.0114 283.385 22.3529H287.949C292.65 25.461 295.065 25.7858 291.802 35.9895C290.892 38.8328 287.274 55.3776 288.697 57.8311C289.109 57.7861 293.489 39.6644 293.886 39.5895C302.821 37.9055 308.499 23.2424 307.772 22.4129C307.775 20.0541 307.231 17.7264 306.181 15.6121C304.853 12.9333 302.782 10.6896 300.214 9.14604C298.683 8.40671 297.087 7.80954 295.446 7.36213C295.405 7.35212 295.37 7.34212 295.329 7.33215C294.826 7.19722 294.313 7.0723 293.799 6.96736C292.739 6.74431 291.666 6.58248 290.587 6.48267C290.511 6.47766 290.434 6.47266 290.363 6.47266C289.932 6.47366 289.509 6.58925 289.138 6.80747C289.133 6.80747 289.133 6.81245 289.128 6.81245C288.863 6.9668 288.631 7.17236 288.447 7.41707C288.122 7.8288 287.947 8.33766 287.949 8.86118H282.866C282.678 8.86118 282.49 8.86618 282.302 8.87616C278.91 8.99163 275.683 10.3638 273.253 12.7243C270.822 15.0847 269.364 18.2634 269.163 21.6384C269.148 21.8782 269.143 22.113 269.143 22.3529Z" fill="#2F2E41"/>
<path d="M299.112 17.9889C304.099 17.9889 308.142 13.962 308.142 8.99447C308.142 4.02696 304.099 0 299.112 0C294.125 0 290.082 4.02696 290.082 8.99447C290.082 13.962 294.125 17.9889 299.112 17.9889Z" fill="#2F2E41"/>
<path d="M329.167 173.259C329.608 172.567 329.893 171.788 330.001 170.975C330.11 170.163 330.04 169.337 329.796 168.554C329.553 167.771 329.142 167.05 328.591 166.441C328.04 165.832 327.363 165.349 326.607 165.027L326.651 136.819L318.821 134.889L319.014 168.391C318.563 169.7 318.61 171.128 319.146 172.404C319.681 173.681 320.668 174.717 321.92 175.317C323.171 175.917 324.601 176.039 325.936 175.66C327.272 175.281 328.422 174.427 329.167 173.259V173.259Z" fill="#A0616A"/>
<path d="M290.393 69.6421L302.577 61.394C303.146 61.0092 303.789 60.7471 304.465 60.6244C305.141 60.5017 305.835 60.5212 306.504 60.6817C307.172 60.8422 307.799 61.14 308.345 61.5561C308.89 61.9722 309.343 62.4974 309.673 63.0979L330.621 101.227L330.701 157.029L317.622 156.213L312.253 110.143L290.393 69.6421Z" fill="#00BFA6"/>
<path d="M196.813 196.194H66.5898C63.7574 196.194 61.041 197.315 59.0381 199.31C57.0353 201.305 55.9102 204.011 55.9102 206.832C55.9102 209.653 57.0353 212.359 59.0381 214.354C61.041 216.349 63.7574 217.469 66.5898 217.469H196.813C199.645 217.469 202.362 216.349 204.365 214.354C206.367 212.359 207.492 209.653 207.492 206.832C207.492 204.011 206.367 201.305 204.365 199.31C202.362 197.315 199.645 196.194 196.813 196.194V196.194Z" fill="white"/>
<path d="M196.812 218.155H66.5894C63.5742 218.155 60.6825 216.962 58.5505 214.839C56.4185 212.715 55.2207 209.835 55.2207 206.832C55.2207 203.828 56.4185 200.948 58.5505 198.824C60.6825 196.701 63.5742 195.508 66.5894 195.508H196.812C199.828 195.508 202.719 196.701 204.851 198.824C206.983 200.948 208.181 203.828 208.181 206.832C208.181 209.835 206.983 212.715 204.851 214.839C202.719 216.962 199.828 218.155 196.812 218.155V218.155ZM66.5894 196.88C63.9397 196.88 61.3985 197.929 59.5249 199.795C57.6513 201.661 56.5987 204.192 56.5987 206.832C56.5987 209.471 57.6513 212.002 59.5249 213.868C61.3985 215.734 63.9397 216.783 66.5894 216.783H196.812C199.462 216.783 202.003 215.734 203.877 213.868C205.75 212.002 206.803 209.471 206.803 206.832C206.803 204.192 205.75 201.661 203.877 199.795C202.003 197.929 199.462 196.88 196.812 196.88H66.5894Z" fill="#00BFA6"/>
<path d="M204.491 242.617H147.024C146.218 242.617 145.445 242.298 144.876 241.731C144.306 241.163 143.986 240.394 143.986 239.592C143.986 238.789 144.306 238.02 144.876 237.452C145.445 236.885 146.218 236.566 147.024 236.566H204.491C205.297 236.566 206.069 236.885 206.639 237.452C207.209 238.02 207.529 238.789 207.529 239.592C207.529 240.394 207.209 241.163 206.639 241.731C206.069 242.298 205.297 242.617 204.491 242.617V242.617Z" fill="#00BFA6"/>
</g>
<defs>
<clipPath id="clip0_266_1493">
<rect width="340" height="330" fill="white"/>
</clipPath>
</defs>
</svg>
