<svg width="458" height="391" viewBox="0 0 458 391" fill="none" xmlns="http://www.w3.org/2000/svg">
<g clip-path="url(#clip0_266_1200)">
<path d="M213.24 357.849C215.895 358.783 218.747 359.017 221.519 358.528C224.291 358.04 226.89 356.845 229.067 355.06C234.61 350.404 236.348 342.737 237.762 335.635L241.945 314.63L233.188 320.663C226.89 325.002 220.451 329.48 216.091 335.764C211.73 342.048 209.828 350.627 213.33 357.427" fill="#E4E4E4"/>
<path d="M214.592 384.743C213.489 376.708 212.355 368.57 213.13 360.449C213.817 353.237 216.016 346.194 220.493 340.417C222.87 337.357 225.762 334.735 229.039 332.669C229.893 332.13 230.679 333.484 229.829 334.021C224.158 337.607 219.773 342.901 217.304 349.141C214.577 356.08 214.139 363.645 214.609 371.016C214.893 375.474 215.496 379.902 216.102 384.325C216.15 384.525 216.12 384.736 216.018 384.915C215.917 385.094 215.751 385.227 215.555 385.289C215.355 385.343 215.142 385.315 214.961 385.213C214.781 385.111 214.648 384.941 214.592 384.742L214.592 384.743Z" fill="#F2F2F2"/>
<path d="M222.523 371.851C223.662 373.583 225.228 374.992 227.069 375.944C228.91 376.895 230.965 377.355 233.036 377.281C238.359 377.028 242.795 373.313 246.788 369.784L258.6 359.349L250.783 358.974C245.161 358.705 239.393 358.452 234.038 360.189C228.684 361.925 223.745 366.099 222.766 371.644" fill="#E4E4E4"/>
<path d="M211.474 389.361C216.78 379.967 222.935 369.527 233.933 366.19C236.99 365.265 240.197 364.934 243.379 365.214C244.382 365.3 244.131 366.847 243.13 366.761C237.796 366.318 232.473 367.727 228.055 370.751C223.805 373.646 220.495 377.671 217.694 381.938C215.978 384.553 214.441 387.278 212.905 390C212.413 390.869 210.977 390.241 211.474 389.361Z" fill="#F2F2F2"/>
<path d="M387.61 275.493H0V0H387.61V275.493Z" fill="white"/>
<path d="M31.5736 113.15C30.5719 113.15 29.6113 113.548 28.903 114.257C28.1948 114.965 27.7969 115.927 27.7969 116.929C27.7969 117.931 28.1948 118.892 28.903 119.601C29.6113 120.309 30.5719 120.708 31.5736 120.708H162.47C163.471 120.706 164.429 120.307 165.136 119.598C165.843 118.89 166.24 117.93 166.24 116.929C166.24 115.928 165.843 114.968 165.136 114.259C164.429 113.551 163.471 113.152 162.47 113.15H31.5736Z" fill="#00BFA6"/>
<path d="M31.5737 135.823C30.5721 135.821 29.6106 136.217 28.9009 136.924C28.1911 137.631 27.7912 138.591 27.7891 139.594C27.787 140.596 28.1828 141.558 28.8896 142.268C29.5964 142.978 30.5562 143.378 31.5578 143.38H162.567C163.569 143.38 164.529 142.982 165.238 142.274C165.946 141.565 166.344 140.604 166.344 139.602C166.344 138.599 165.946 137.638 165.238 136.93C164.529 136.221 163.569 135.823 162.567 135.823H31.5737Z" fill="#00BFA6"/>
<path d="M31.5737 158.172C30.5721 158.17 29.6106 158.566 28.9009 159.273C28.1911 159.98 27.7912 160.941 27.7891 161.943C27.787 162.945 28.1828 163.907 28.8896 164.617C29.5964 165.327 30.5562 165.727 31.5578 165.73H61.0388C62.0404 165.73 63.0011 165.331 63.7093 164.623C64.4176 163.914 64.8155 162.953 64.8155 161.951C64.8155 160.948 64.4176 159.987 63.7093 159.279C63.0011 158.57 62.0404 158.172 61.0388 158.172H31.5737Z" fill="#00BFA6"/>
<path d="M387.61 275.493H0V0H387.61V275.493ZM6.37167 269.118H381.238V6.37524H6.37167V269.118Z" fill="#E5E5E5"/>
<path d="M265.647 214.959C263.846 214.956 262.118 215.669 260.842 216.941C259.566 218.213 258.848 219.94 258.844 221.742C258.84 223.543 259.551 225.273 260.822 226.55C262.092 227.828 263.817 228.548 265.618 228.553H330.486C331.379 228.554 332.263 228.379 333.088 228.038C333.913 227.697 334.663 227.196 335.294 226.565C335.926 225.933 336.427 225.184 336.769 224.359C337.111 223.534 337.287 222.649 337.287 221.756C337.287 220.863 337.111 219.978 336.769 219.153C336.427 218.328 335.926 217.578 335.294 216.947C334.663 216.316 333.913 215.815 333.088 215.474C332.263 215.133 331.379 214.958 330.486 214.959H265.647Z" fill="#E4E4E4"/>
<path d="M265.647 132.642C263.846 132.64 262.118 133.353 260.842 134.625C259.566 135.897 258.848 137.623 258.844 139.425C258.84 141.227 259.551 142.957 260.822 144.234C262.092 145.511 263.817 146.232 265.618 146.237H330.486C331.379 146.238 332.263 146.062 333.088 145.721C333.913 145.38 334.663 144.88 335.294 144.248C335.926 143.617 336.427 142.867 336.769 142.042C337.111 141.217 337.287 140.333 337.287 139.439C337.287 138.546 337.111 137.662 336.769 136.837C336.427 136.012 335.926 135.262 335.294 134.631C334.663 133.999 333.913 133.499 333.088 133.158C332.263 132.816 331.379 132.641 330.486 132.642H265.647Z" fill="#E4E4E4"/>
<path d="M31.5737 218.107C31.0778 218.106 30.5865 218.203 30.1278 218.392C29.6692 218.58 29.2523 218.858 28.9009 219.208C28.5494 219.558 28.2704 219.974 28.0796 220.432C27.8888 220.89 27.7901 221.382 27.7891 221.878C27.788 222.374 27.8847 222.866 28.0735 223.324C28.2623 223.783 28.5397 224.201 28.8896 224.552C29.2396 224.904 29.6553 225.183 30.1131 225.374C30.5709 225.565 31.0619 225.664 31.5578 225.665H162.567C163.569 225.665 164.529 225.266 165.238 224.558C165.946 223.849 166.344 222.888 166.344 221.886C166.344 220.884 165.946 219.922 165.238 219.214C164.529 218.505 163.569 218.107 162.567 218.107H31.5737Z" fill="#E4E4E4"/>
<path d="M31.5737 240.456C31.0778 240.455 30.5865 240.551 30.1278 240.74C29.6692 240.929 29.2523 241.207 28.9009 241.557C28.5494 241.907 28.2704 242.323 28.0796 242.781C27.8889 243.239 27.7901 243.73 27.7891 244.226C27.788 244.723 27.8847 245.214 28.0735 245.673C28.2623 246.132 28.5397 246.549 28.8896 246.901C29.2396 247.252 29.6553 247.532 30.1131 247.723C30.5709 247.913 31.0619 248.012 31.5578 248.013H61.0388C62.0404 248.013 63.0011 247.615 63.7093 246.906C64.4176 246.198 64.8155 245.237 64.8155 244.234C64.8155 243.232 64.4176 242.271 63.7093 241.562C63.0011 240.854 62.0404 240.456 61.0388 240.456H31.5737Z" fill="#E4E4E4"/>
<path d="M31.5736 195.434C30.5719 195.434 29.6113 195.832 28.903 196.54C28.1948 197.249 27.7969 198.21 27.7969 199.212C27.7969 200.215 28.1948 201.176 28.903 201.884C29.6113 202.593 30.5719 202.991 31.5736 202.991H162.47C163.471 202.989 164.429 202.59 165.136 201.882C165.843 201.173 166.24 200.213 166.24 199.212C166.24 198.211 165.843 197.251 165.136 196.543C164.429 195.834 163.471 195.435 162.47 195.434H31.5736Z" fill="#E4E4E4"/>
<path d="M265.647 50.3906C263.846 50.3881 262.118 51.1012 260.842 52.3731C259.566 53.6451 258.848 55.3717 258.844 57.1736C258.84 58.9755 259.551 60.7052 260.822 61.9825C262.092 63.2598 263.817 63.9802 265.618 63.9853H330.486C331.379 63.9862 332.263 63.811 333.088 63.4698C333.913 63.1286 334.663 62.6281 335.294 61.9968C335.926 61.3655 336.427 60.6159 336.769 59.7908C337.111 58.9656 337.287 58.0812 337.287 57.188C337.287 56.2948 337.111 55.4103 336.769 54.5852C336.427 53.76 335.926 53.0104 335.294 52.3791C334.663 51.7478 333.913 51.2473 333.088 50.9061C332.263 50.5649 331.379 50.3897 330.486 50.3906H265.647Z" fill="#E4E4E4"/>
<path d="M279.312 69.3136C286.041 69.3136 291.496 63.8558 291.496 57.1233C291.496 50.3909 286.041 44.9331 279.312 44.9331C272.584 44.9331 267.129 50.3909 267.129 57.1233C267.129 63.8558 272.584 69.3136 279.312 69.3136Z" fill="#CACACA"/>
<path d="M300.606 142.387C300.471 143.366 300.552 144.362 300.844 145.306C301.135 146.25 301.63 147.118 302.293 147.85C302.956 148.582 303.772 149.159 304.682 149.542C305.592 149.924 306.575 150.102 307.562 150.063L314.032 164.082L323.505 162.226L314.091 142.557C313.916 140.903 313.14 139.371 311.912 138.251C310.683 137.131 309.086 136.501 307.424 136.48C305.762 136.459 304.15 137.048 302.893 138.137C301.637 139.226 300.823 140.738 300.606 142.387V142.387Z" fill="#FFB6B6"/>
<path d="M366.148 195.439L339.751 182.375L321.124 150.743L308.104 157.045L325.001 193.586L367.686 218.241L366.148 195.439Z" fill="#2F5675"/>
<path d="M306.553 382.432L298.255 382.431L294.307 358.492L306.554 358.493L306.553 382.432Z" fill="#FFB6B6"/>
<path d="M308.669 390.48L281.912 390.479V390.14C281.912 387.377 283.01 384.726 284.963 382.772C286.916 380.818 289.565 379.72 292.327 379.72H292.327L308.669 379.721L308.669 390.48Z" fill="#2F2E41"/>
<path d="M389.383 367.203L383.593 373.151L363.699 359.278L372.245 350.5L389.383 367.203Z" fill="#FFB6B6"/>
<path d="M396.622 371.302L377.953 390.48L377.71 390.244C375.732 388.315 374.6 385.68 374.563 382.916C374.527 380.153 375.589 377.488 377.516 375.509L377.516 375.508L388.919 363.795L396.622 371.302Z" fill="#2F2E41"/>
<path d="M316.811 239.962H311.072C296.152 256.275 284.763 275.498 277.62 296.424L270.764 316.51L295.2 367.702L310.448 367.974L293.02 313.625L310.578 290.328L311.463 337.16L367.975 366.798L379.285 350.08L333.3 324.921L341.131 285.086C341.131 285.086 356.887 271.94 347.712 251.387L316.811 239.962Z" fill="#00BFA6"/>
<path d="M392.348 187.83L368.498 177.378L342.248 189.017C342.248 189.017 334.815 193.248 339.553 204.083L311.072 239.962C311.072 239.962 311.125 239.977 346.918 251.387L379.212 222.932C384.115 218.611 387.879 213.148 390.17 207.026C392.461 200.903 393.209 194.31 392.348 187.83V187.83Z" fill="#2F5675"/>
<path d="M388.345 177.07C397.526 177.07 404.969 169.623 404.969 160.436C404.969 151.25 397.526 143.803 388.345 143.803C379.164 143.803 371.721 151.25 371.721 160.436C371.721 169.623 379.164 177.07 388.345 177.07Z" fill="#FFB6B6"/>
<path d="M409.875 138.363C406.059 135.257 400.142 134.579 396.203 137.526C389.334 133.919 380.05 135.801 375.126 141.799C373.354 143.957 372.098 146.878 372.975 149.529C373.852 152.181 377.633 153.74 379.604 151.762L379.569 152.577C381.344 154.356 382.575 156.605 383.117 159.059C383.659 161.514 383.489 164.073 382.627 166.434C381.765 168.795 380.248 170.862 378.253 172.39C376.258 173.918 373.868 174.844 371.365 175.06C376.813 177.262 382.261 179.464 387.708 181.666C390 182.592 392.366 183.533 394.838 183.521C397.31 183.508 399.945 182.306 400.904 180.027C401.594 182.142 402.283 184.257 402.973 186.373C407.033 179.909 410.373 173.019 412.933 165.827C414.582 161.191 415.916 156.343 415.737 151.425C415.559 146.507 413.69 141.469 409.875 138.363Z" fill="#2F2E41"/>
<path d="M279.312 233.881C286.041 233.881 291.496 228.424 291.496 221.691C291.496 214.959 286.041 209.501 279.312 209.501C272.584 209.501 267.129 214.959 267.129 221.691C267.129 228.424 272.584 233.881 279.312 233.881Z" fill="#CACACA"/>
<path d="M317.217 151.63C323.945 151.63 329.4 146.172 329.4 139.44C329.4 132.707 323.945 127.25 317.217 127.25C310.488 127.25 305.033 132.707 305.033 139.44C305.033 146.172 310.488 151.63 317.217 151.63Z" fill="#00BFA6"/>
<path d="M317.528 135.615C317.393 136.593 317.474 137.59 317.766 138.533C318.057 139.477 318.552 140.346 319.215 141.078C319.878 141.809 320.694 142.387 321.604 142.769C322.514 143.152 323.497 143.33 324.484 143.291L330.954 157.31L340.427 155.454L331.013 135.785C330.838 134.131 330.062 132.599 328.834 131.478C327.605 130.358 326.008 129.728 324.346 129.707C322.684 129.686 321.072 130.276 319.815 131.365C318.559 132.454 317.745 133.966 317.528 135.615V135.615Z" fill="#FFB6B6"/>
<path d="M383.068 188.667L356.67 175.602L338.043 143.971L325.023 150.272L341.92 186.814L384.606 211.469L383.068 188.667Z" fill="#2F5675"/>
<path d="M457.324 391H199.442C199.263 391 199.091 390.929 198.964 390.802C198.837 390.675 198.766 390.502 198.766 390.323C198.766 390.143 198.837 389.971 198.964 389.844C199.091 389.717 199.263 389.646 199.442 389.646H457.324C457.504 389.646 457.676 389.717 457.803 389.844C457.93 389.971 458.001 390.143 458.001 390.323C458.001 390.502 457.93 390.675 457.803 390.802C457.676 390.929 457.504 391 457.324 391Z" fill="#CACACA"/>
</g>
<defs>
<clipPath id="clip0_266_1200">
<rect width="458" height="391" fill="white"/>
</clipPath>
</defs>
</svg>
