<svg width="298" height="350" viewBox="0 0 298 350" fill="none" xmlns="http://www.w3.org/2000/svg">
<g clip-path="url(#clip0_279_3896)">
<path d="M70.2796 142.849C81.5638 142.849 90.7115 133.679 90.7115 122.366C90.7115 111.054 81.5638 101.884 70.2796 101.884C58.9953 101.884 49.8477 111.054 49.8477 122.366C49.8477 133.679 58.9953 142.849 70.2796 142.849Z" fill="#2F2E41"/>
<path d="M71.9971 142.889C81.2355 142.889 88.7247 135.381 88.7247 126.12C88.7247 116.858 81.2355 109.351 71.9971 109.351C62.7587 109.351 55.2695 116.858 55.2695 126.12C55.2695 135.381 62.7587 142.889 71.9971 142.889Z" fill="#A0616A"/>
<path d="M135.7 177.127C135.435 177.395 135.191 177.684 134.97 177.99L101.215 176.795L97.3544 169.536L85.666 173.945L91.2548 187.464C91.7063 188.556 92.4989 189.471 93.5136 190.073C94.5283 190.675 95.7105 190.931 96.8825 190.802L135.08 186.598C135.967 187.75 137.184 188.604 138.568 189.047C139.951 189.489 141.437 189.498 142.826 189.074C144.215 188.649 145.443 187.811 146.345 186.67C147.247 185.529 147.781 184.139 147.876 182.686C147.972 181.234 147.623 179.786 146.878 178.536C146.132 177.287 145.025 176.295 143.703 175.691C142.381 175.088 140.907 174.903 139.478 175.16C138.048 175.417 136.731 176.104 135.7 177.13V177.127Z" fill="#A0616A"/>
<path d="M81.1705 180.472C80.7404 180.279 80.3568 179.995 80.0462 179.639C79.7356 179.284 79.5051 178.865 79.3705 178.412L74.6711 162.594C74.1605 161.508 73.8683 160.333 73.8112 159.134C73.754 157.935 73.9331 156.737 74.3381 155.608C74.7431 154.478 75.3661 153.44 76.1716 152.552C76.977 151.665 77.9491 150.945 79.0322 150.434C80.1153 149.923 81.2883 149.631 82.4841 149.575C83.6798 149.518 84.8749 149.699 86.0011 150.106C87.1272 150.513 88.1623 151.138 89.0472 151.946C89.9321 152.754 90.6495 153.729 91.1583 154.816L100.266 168.631C100.525 169.026 100.697 169.471 100.77 169.938C100.842 170.405 100.814 170.883 100.686 171.337C100.558 171.792 100.333 172.214 100.028 172.574C99.7226 172.934 99.3435 173.224 98.9163 173.424L83.905 180.449C83.4779 180.649 83.0128 180.755 82.5413 180.758C82.0699 180.762 81.6032 180.663 81.1732 180.47L81.1705 180.472Z" fill="#00BFA6"/>
<path d="M114.416 341.075L121.749 337.073L109.841 306.812L99.0176 312.718L114.416 341.075Z" fill="#A0616A"/>
<path d="M111.242 339.695L125.684 331.814C126.893 331.154 128.219 330.74 129.588 330.594C130.956 330.448 132.34 330.574 133.659 330.965C134.979 331.355 136.21 332.002 137.28 332.869C138.35 333.736 139.24 334.806 139.898 336.018L139.898 336.018L140.061 336.318L116.414 349.222L111.242 339.695Z" fill="#2F2E41"/>
<path d="M33.7203 341.107H42.0694L46.0421 308.821H33.7148L33.7203 341.107Z" fill="#A0616A"/>
<path d="M31.5898 338.375H48.0341C50.8133 338.375 53.4786 339.482 55.4438 341.452C57.4089 343.422 58.513 346.094 58.513 348.88V349.222H31.5905L31.5898 338.375Z" fill="#2F2E41"/>
<path d="M85.6046 197.814L88.3288 230.586L118.717 321.977C118.946 322.664 118.892 323.414 118.569 324.062C118.246 324.71 117.68 325.203 116.994 325.432C116.918 325.457 116.842 325.479 116.764 325.498L107.45 327.721C106.854 327.863 106.227 327.8 105.67 327.541C105.114 327.282 104.662 326.842 104.386 326.293L65.5357 249.034C65.409 248.783 65.2078 248.576 64.9595 248.444C64.7113 248.312 64.4283 248.259 64.1493 248.295C63.8702 248.33 63.609 248.451 63.4012 248.641C63.1935 248.831 63.0496 249.081 62.9892 249.356L45.8945 327.437C45.7613 328.045 45.4248 328.59 44.9409 328.98C44.457 329.37 43.8546 329.583 43.2336 329.583H34.5664C34.2092 329.583 33.8555 329.513 33.5253 329.377C33.1951 329.241 32.8949 329.04 32.6419 328.788C32.3889 328.535 32.188 328.235 32.0508 327.904C31.9135 327.574 31.8425 327.219 31.8418 326.861C31.8418 326.846 31.8419 326.83 31.8421 326.815C32.6362 272.672 30.0169 210.983 50.8683 201.224L54.2736 192.349L85.6046 197.814Z" fill="#1B67A5"/>
<path d="M53.2932 194.673L49.783 173.387C49.2018 169.896 49.5066 166.315 50.6694 162.973C51.8321 159.631 53.8154 156.637 56.4363 154.266C58.9981 151.917 62.1084 150.253 65.4805 149.427C68.8526 148.601 72.378 148.639 75.7315 149.537C75.9304 149.591 76.13 149.646 76.3295 149.702C80.4552 150.887 84.1187 153.313 86.8252 156.652C89.5317 159.991 91.151 164.082 91.4641 168.373C92.1343 177.617 91.5322 191.029 84.8728 202.422L84.7434 202.643L53.2932 194.673Z" fill="#00BFA6"/>
<path d="M88.6362 117.207C84.8138 119.849 80.2766 121.254 75.634 121.235C77.2901 122.386 79.1755 123.164 81.1602 123.514C74.9877 124.842 68.6084 124.878 62.4214 123.62C61.0461 123.399 59.7191 122.942 58.4985 122.27C57.8903 121.929 57.3604 121.464 56.9432 120.905C56.5261 120.345 56.2311 119.704 56.0773 119.023C55.6687 116.668 57.496 114.529 59.3982 113.088C62.31 110.914 65.6674 109.417 69.2274 108.704C72.7875 107.99 76.4611 108.079 79.9826 108.964C82.2819 109.56 84.5853 110.567 86.0788 112.418C87.5724 114.27 88.0151 117.124 86.5917 119.03L88.6362 117.207Z" fill="#2F2E41"/>
<path d="M70.0114 101.783C71.9504 93.9315 65.0008 85.2141 56.935 85.3773C48.7533 85.5432 42.7321 92.9558 38.5932 100.032C34.4544 107.108 30.3422 115.132 22.7456 118.18C20.2312 119.188 17.5066 119.555 14.816 119.248C12.1253 118.94 9.55278 117.969 7.32895 116.42C5.10512 114.87 3.29953 112.792 2.07405 110.371C0.848569 107.95 0.241502 105.263 0.307274 102.549C-0.714321 111.146 0.700256 120.45 6.23253 127.1C11.7648 133.751 22.0557 136.748 29.4568 132.278C33.6794 129.726 36.3825 125.289 38.6089 120.876C40.8353 116.464 42.8165 111.81 46.1898 108.202C49.5631 104.593 54.7794 102.199 59.4746 103.717C61.338 104.32 63.01 105.492 64.9354 105.851C66.8608 106.21 69.2847 105.291 69.5476 103.346L70.0114 101.783Z" fill="#2F2E41"/>
<path d="M29.6921 244.099C28.9978 243.283 28.4904 242.325 28.2056 241.291C27.9208 240.258 27.8654 239.174 28.0436 238.117C28.2217 237.059 28.6289 236.054 29.2365 235.171C29.8441 234.289 30.6373 233.551 31.5603 233.009L46.0703 167.806L60.7901 173.862L41.8995 236.048C42.7093 237.664 42.899 239.521 42.4327 241.267C41.9663 243.013 40.8764 244.527 39.3699 245.52C37.8634 246.514 36.0453 246.918 34.2612 246.656C32.477 246.394 30.851 245.484 29.6921 244.099V244.099Z" fill="#A0616A"/>
<path d="M40.3239 177.161C40.0919 176.749 39.9514 176.292 39.9119 175.82C39.8724 175.349 39.9349 174.875 40.0951 174.43L45.6751 158.9C46.1447 156.524 47.5367 154.432 49.5448 153.085C51.553 151.738 54.0128 151.245 56.3831 151.716C58.7534 152.187 60.84 153.582 62.184 155.596C63.528 157.609 64.0192 160.075 63.5496 162.451V162.451L62.7016 178.989C62.6774 179.461 62.552 179.922 62.334 180.341C62.1159 180.76 61.8104 181.127 61.4381 181.417C61.0658 181.707 60.6355 181.913 60.1766 182.021C59.7177 182.129 59.2409 182.137 58.7787 182.044L42.5354 178.767C42.0731 178.674 41.6363 178.482 41.2547 178.204C40.8732 177.926 40.556 177.569 40.3246 177.157L40.3239 177.161Z" fill="#00BFA6"/>
<path d="M204.512 2.4982C204.202 1.76248 203.685 1.13376 203.023 0.689757C202.361 0.245756 201.584 0.00595248 200.788 0H126.442C125.373 0.000542737 124.349 0.426348 123.593 1.18385C122.837 1.94136 122.413 2.9686 122.412 4.03987V98.325C122.413 99.3963 122.837 100.424 123.593 101.181C124.349 101.939 125.373 102.364 126.442 102.365H200.788C201.856 102.363 202.88 101.937 203.635 101.18C204.391 100.423 204.816 99.396 204.817 98.325V4.04123C204.819 3.51158 204.715 2.98692 204.512 2.4982ZM203.922 98.3243C203.921 99.1568 203.59 99.9547 203.003 100.543C202.416 101.132 201.62 101.463 200.79 101.465H126.442C125.611 101.465 124.814 101.134 124.227 100.545C123.639 99.9561 123.309 99.1573 123.309 98.3243V4.04123C123.311 3.20877 123.641 2.41087 124.228 1.82223C124.816 1.23359 125.612 0.902179 126.442 0.900555H200.788C201.414 0.903135 202.025 1.09289 202.544 1.44557C203.062 1.79826 203.464 2.29785 203.698 2.88054C203.743 2.99647 203.783 3.11476 203.816 3.2349C203.887 3.49935 203.923 3.77207 203.923 4.04601L203.922 98.3243Z" fill="#CCCCCC"/>
<path d="M188.995 22.2619H166.602C166.127 22.2619 165.671 22.0727 165.335 21.7359C164.999 21.3991 164.811 20.9422 164.811 20.4659C164.811 19.9896 164.999 19.5328 165.335 19.196C165.671 18.8591 166.127 18.6699 166.602 18.6699H188.995C189.464 18.6791 189.911 18.8723 190.239 19.2082C190.568 19.544 190.752 19.9956 190.752 20.4659C190.752 20.9363 190.568 21.3878 190.239 21.7237C189.911 22.0595 189.464 22.2527 188.995 22.2619H188.995Z" fill="#CCCCCC"/>
<path d="M188.995 31.6906H166.602C166.127 31.6906 165.671 31.5014 165.335 31.1646C164.999 30.8278 164.811 30.371 164.811 29.8946C164.811 29.4183 164.999 28.9615 165.335 28.6247C165.671 28.2879 166.127 28.0986 166.602 28.0986H188.995C189.464 28.1078 189.911 28.3011 190.239 28.6369C190.568 28.9727 190.752 29.4243 190.752 29.8946C190.752 30.365 190.568 30.8166 190.239 31.1524C189.911 31.4882 189.464 31.6814 188.995 31.6906H188.995Z" fill="#CCCCCC"/>
<path d="M155.116 37.0593H138.748C138.213 37.0587 137.701 36.8457 137.323 36.4669C136.945 36.0882 136.733 35.5746 136.732 35.039V15.6795C136.733 15.1438 136.945 14.6303 137.323 14.2515C137.701 13.8727 138.213 13.6597 138.748 13.6592H155.116C155.65 13.6599 156.162 13.873 156.54 14.2517C156.918 14.6304 157.13 15.1439 157.131 15.6795V35.039C157.13 35.5746 156.918 36.0882 156.54 36.4669C156.162 36.8457 155.65 37.0587 155.116 37.0593V37.0593Z" fill="#CCCCCC"/>
<path d="M188.839 50.9963H138.231C137.756 50.9963 137.3 50.8071 136.964 50.4702C136.628 50.1334 136.439 49.6766 136.439 49.2003C136.439 48.724 136.628 48.2671 136.964 47.9303C137.3 47.5935 137.756 47.4043 138.231 47.4043H188.839C189.314 47.4043 189.77 47.5935 190.106 47.9303C190.442 48.2671 190.63 48.724 190.63 49.2003C190.63 49.6766 190.442 50.1334 190.106 50.4702C189.77 50.8071 189.314 50.9963 188.839 50.9963V50.9963Z" fill="#CCCCCC"/>
<path d="M188.839 60.4279H138.231C137.756 60.4279 137.3 60.2387 136.964 59.9019C136.628 59.5651 136.439 59.1083 136.439 58.6319C136.439 58.1556 136.628 57.6988 136.964 57.362C137.3 57.0252 137.756 56.8359 138.231 56.8359H188.839C189.314 56.8359 189.77 57.0252 190.106 57.362C190.442 57.6988 190.63 58.1556 190.63 58.6319C190.63 59.1083 190.442 59.5651 190.106 59.9019C189.77 60.2387 189.314 60.4279 188.839 60.4279Z" fill="#CCCCCC"/>
<path d="M188.839 69.8537H138.231C137.756 69.8537 137.3 69.6645 136.964 69.3277C136.628 68.9909 136.439 68.534 136.439 68.0577C136.439 67.5814 136.628 67.1246 136.964 66.7878C137.3 66.451 137.756 66.2617 138.231 66.2617H188.839C189.314 66.2617 189.77 66.451 190.106 66.7878C190.442 67.1246 190.63 67.5814 190.63 68.0577C190.63 68.534 190.442 68.9909 190.106 69.3277C189.77 69.6645 189.314 69.8537 188.839 69.8537V69.8537Z" fill="#CCCCCC"/>
<path d="M188.839 79.2844H138.231C137.756 79.2844 137.3 79.0952 136.964 78.7583C136.628 78.4215 136.439 77.9647 136.439 77.4884C136.439 77.0121 136.628 76.5552 136.964 76.2184C137.3 75.8816 137.756 75.6924 138.231 75.6924H188.839C189.314 75.6924 189.77 75.8816 190.106 76.2184C190.442 76.5552 190.63 77.0121 190.63 77.4884C190.63 77.9647 190.442 78.4215 190.106 78.7583C189.77 79.0952 189.314 79.2844 188.839 79.2844V79.2844Z" fill="#CCCCCC"/>
<path d="M188.839 88.7102H138.231C137.756 88.7102 137.3 88.5209 136.964 88.1841C136.628 87.8473 136.439 87.3905 136.439 86.9142C136.439 86.4378 136.628 85.981 136.964 85.6442C137.3 85.3074 137.756 85.1182 138.231 85.1182H188.839C189.314 85.1182 189.77 85.3074 190.106 85.6442C190.442 85.981 190.63 86.4378 190.63 86.9142C190.63 87.3905 190.442 87.8473 190.106 88.1841C189.77 88.5209 189.314 88.7102 188.839 88.7102Z" fill="#CCCCCC"/>
<path d="M249.412 58.169C249.019 57.2338 248.361 56.4346 247.52 55.8703C246.678 55.306 245.69 55.0014 244.678 54.9941H150.198C148.84 54.9949 147.537 55.536 146.577 56.4988C145.617 57.4615 145.077 58.767 145.076 60.1285V179.952C145.077 181.314 145.617 182.619 146.577 183.582C147.537 184.544 148.84 185.086 150.198 185.086H244.682C246.039 185.085 247.341 184.543 248.301 183.581C249.261 182.618 249.801 181.313 249.803 179.952V60.1285C249.806 59.4559 249.674 58.7896 249.415 58.169H249.412Z" fill="#E6E6E6"/>
<path d="M241.719 178.359H153.423C152.151 178.358 151.154 176.963 151.154 175.183V64.0303C151.156 62.2487 152.153 60.8535 153.423 60.8535H241.719C242.992 60.8552 243.988 62.2504 243.988 64.0303V175.183C243.987 176.964 242.99 178.359 241.719 178.359Z" fill="white"/>
<path d="M249.412 58.169C249.019 57.2338 248.361 56.4346 247.52 55.8703C246.678 55.306 245.69 55.0014 244.678 54.9941H150.198C148.84 54.9949 147.537 55.536 146.577 56.4988C145.617 57.4615 145.077 58.767 145.076 60.1285V179.952C145.077 181.314 145.617 182.619 146.577 183.582C147.537 184.544 148.84 185.086 150.198 185.086H244.682C246.039 185.085 247.341 184.543 248.301 183.581C249.261 182.618 249.801 181.313 249.803 179.952V60.1285C249.806 59.4559 249.674 58.7896 249.415 58.169H249.412ZM248.662 179.952C248.661 181.011 248.241 182.026 247.494 182.775C246.747 183.524 245.735 183.945 244.678 183.946H150.198C149.141 183.946 148.128 183.525 147.381 182.777C146.634 182.028 146.214 181.012 146.214 179.953V60.1292C146.215 59.0703 146.635 58.0552 147.382 57.3065C148.129 56.5578 149.142 56.1365 150.198 56.135H244.682C245.477 56.1381 246.254 56.3787 246.913 56.8262C247.571 57.2737 248.082 57.9078 248.38 58.6476C248.438 58.795 248.488 58.9454 248.53 59.0982C248.62 59.4344 248.666 59.781 248.666 60.1292L248.662 179.952Z" fill="#3F3D56"/>
<path d="M229.695 83.2837H201.236C200.632 83.2837 200.053 83.0432 199.626 82.6151C199.199 82.1871 198.959 81.6065 198.959 81.0012C198.959 80.3958 199.199 79.8153 199.626 79.3873C200.053 78.9592 200.632 78.7187 201.236 78.7188H229.695C230.299 78.7187 230.878 78.9592 231.305 79.3873C231.732 79.8153 231.972 80.3958 231.972 81.0012C231.972 81.6065 231.732 82.1871 231.305 82.6151C230.878 83.0432 230.299 83.2837 229.695 83.2837V83.2837Z" fill="#3F3D56"/>
<path d="M229.695 95.2661H201.236C200.632 95.2661 200.053 95.0256 199.626 94.5976C199.199 94.1695 198.959 93.589 198.959 92.9836C198.959 92.3783 199.199 91.7977 199.626 91.3697C200.053 90.9416 200.632 90.7012 201.236 90.7012H229.695C230.299 90.7012 230.878 90.9416 231.305 91.3697C231.732 91.7977 231.972 92.3783 231.972 92.9836C231.972 93.589 231.732 94.1695 231.305 94.5976C230.878 95.0256 230.299 95.2661 229.695 95.2661V95.2661Z" fill="#3F3D56"/>
<path d="M186.634 102.089H165.837C165.158 102.088 164.507 101.818 164.026 101.336C163.546 100.855 163.276 100.202 163.275 99.5212V74.9175C163.276 74.2367 163.546 73.5839 164.026 73.1025C164.507 72.6211 165.158 72.3503 165.837 72.3496H186.634C187.314 72.3503 187.965 72.6211 188.445 73.1025C188.925 73.5839 189.195 74.2367 189.196 74.9175V99.5212C189.195 100.202 188.925 100.855 188.445 101.336C187.965 101.818 187.314 102.088 186.634 102.089Z" fill="#00BFA6"/>
<path d="M229.498 119.802H165.181C164.577 119.802 163.998 119.562 163.571 119.134C163.144 118.706 162.904 118.125 162.904 117.52C162.904 116.914 163.144 116.334 163.571 115.906C163.998 115.478 164.577 115.237 165.181 115.237H229.498C230.102 115.237 230.681 115.478 231.108 115.906C231.535 116.334 231.775 116.914 231.775 117.52C231.775 118.125 231.535 118.706 231.108 119.134C230.681 119.562 230.102 119.802 229.498 119.802V119.802Z" fill="#E6E6E6"/>
<path d="M229.498 131.785H165.182C164.578 131.786 163.998 131.547 163.57 131.121C163.142 130.694 162.9 130.114 162.898 129.509C162.897 128.903 163.135 128.322 163.561 127.893C163.987 127.463 164.565 127.221 165.169 127.22H229.498C230.102 127.22 230.681 127.46 231.108 127.888C231.535 128.316 231.775 128.897 231.775 129.502C231.775 130.108 231.535 130.688 231.108 131.116C230.681 131.544 230.102 131.785 229.498 131.785V131.785Z" fill="#E6E6E6"/>
<path d="M229.498 143.767H165.181C164.577 143.767 163.998 143.527 163.571 143.099C163.144 142.67 162.904 142.09 162.904 141.485C162.904 140.879 163.144 140.299 163.571 139.871C163.998 139.443 164.577 139.202 165.181 139.202H229.498C230.102 139.2 230.682 139.439 231.11 139.866C231.538 140.293 231.779 140.873 231.781 141.478C231.783 142.084 231.545 142.665 231.119 143.094C230.693 143.523 230.114 143.765 229.511 143.767H229.498Z" fill="#E6E6E6"/>
<path d="M229.498 155.749H165.182C164.883 155.749 164.586 155.691 164.31 155.577C164.033 155.463 163.782 155.296 163.57 155.084C163.358 154.873 163.189 154.622 163.074 154.345C162.959 154.069 162.899 153.772 162.898 153.472C162.898 153.173 162.956 152.876 163.069 152.598C163.183 152.321 163.35 152.069 163.561 151.857C163.772 151.644 164.022 151.475 164.298 151.36C164.574 151.244 164.87 151.184 165.169 151.184H229.498C230.102 151.184 230.681 151.424 231.108 151.852C231.535 152.28 231.775 152.861 231.775 153.466C231.775 154.071 231.535 154.652 231.108 155.08C230.681 155.508 230.102 155.749 229.498 155.749V155.749Z" fill="#E6E6E6"/>
<path d="M229.498 167.731H165.182C164.578 167.733 163.998 167.494 163.57 167.067C163.142 166.64 162.9 166.06 162.898 165.455C162.897 164.849 163.135 164.268 163.561 163.839C163.987 163.41 164.565 163.168 165.169 163.166H229.498C230.102 163.166 230.681 163.406 231.108 163.835C231.535 164.263 231.775 164.843 231.775 165.448C231.775 166.054 231.535 166.634 231.108 167.062C230.681 167.49 230.102 167.731 229.498 167.731V167.731Z" fill="#E6E6E6"/>
<path d="M261.223 83.0423C281.534 83.0423 298 66.5356 298 46.1735C298 25.8114 281.534 9.30469 261.223 9.30469C240.911 9.30469 224.445 25.8114 224.445 46.1735C224.445 66.5356 240.911 83.0423 261.223 83.0423Z" fill="#00BFA6"/>
<path d="M267.015 47.3966V27.0566H256.566V47.3966H251.688L256.738 56.1666L261.79 64.938L266.843 56.1666L271.894 47.3953L267.015 47.3966Z" fill="white"/>
<path d="M274.895 350H15.4096C15.2289 350 15.0557 349.928 14.928 349.8C14.8003 349.672 14.7285 349.499 14.7285 349.318C14.7285 349.136 14.8003 348.963 14.928 348.835C15.0557 348.707 15.2289 348.635 15.4096 348.635H274.895C275.075 348.635 275.248 348.707 275.376 348.835C275.504 348.963 275.576 349.136 275.576 349.318C275.576 349.499 275.504 349.672 275.376 349.8C275.248 349.928 275.075 350 274.895 350Z" fill="#E6E6E6"/>
<path d="M252.725 343.928C246.187 348.649 237.715 348.886 229.526 348.306C228.382 348.226 227.247 348.131 226.12 348.028H226.098C226.044 348.023 225.99 348.018 225.938 348.015L225.243 347.946L225.298 348.05L225.468 348.372C225.407 348.264 225.345 348.159 225.284 348.051C225.266 348.019 225.246 347.986 225.228 347.954C223.107 344.253 221.006 340.416 220.466 336.19C219.911 331.803 221.471 326.836 225.322 324.681C225.827 324.399 226.361 324.174 226.916 324.011C227.146 323.943 227.38 323.884 227.616 323.833C229.061 323.512 230.564 323.582 231.973 324.036C233.382 324.49 234.644 325.312 235.63 326.418C236.617 327.523 237.292 328.872 237.586 330.326C237.88 331.78 237.782 333.286 237.303 334.689C240.568 331.333 239.959 325.889 238.833 321.338C237.706 316.787 236.338 311.724 238.633 307.637C239.283 306.541 240.157 305.595 241.197 304.862C242.238 304.128 243.422 303.624 244.671 303.382C244.748 303.366 244.825 303.349 244.902 303.334C247.902 302.725 251.021 303.273 253.635 304.869C258.45 307.91 260.923 313.676 261.725 319.325C263.019 328.415 260.157 338.56 252.725 343.928Z" fill="#F2F2F2"/>
</g>
<defs>
<clipPath id="clip0_279_3896">
<rect width="298" height="350" fill="white"/>
</clipPath>
</defs>
</svg>
