<svg width="665" height="552" viewBox="0 0 665 552" fill="none" xmlns="http://www.w3.org/2000/svg">
<mask id="mask0_280_4028" style="mask-type:alpha" maskUnits="userSpaceOnUse" x="0" y="0" width="665" height="552">
<rect width="665" height="552" fill="#D9D9D9"/>
</mask>
<g mask="url(#mask0_280_4028)">
<path fill-rule="evenodd" clip-rule="evenodd" d="M394.393 518.073C309.617 520.146 216.294 576.056 149.689 520.416C80.9125 462.962 68.1698 351.733 86.6573 260.997C102.583 182.835 174.702 139.401 236.624 93.74C284.275 58.6015 336.367 32.4654 394.393 34.07C450.847 35.6312 503.84 60.3035 544.14 102.244C584.841 144.601 600.25 201.931 612.445 260.997C629.796 345.039 682.321 444.743 628.06 508.715C573.881 572.59 475.4 516.091 394.393 518.073Z" fill="#93B0F9" fill-opacity="0.15"/>
<path d="M601.352 127.638H488.352V127.045C488.352 126.584 488.169 126.141 487.843 125.815C487.517 125.489 487.075 125.306 486.615 125.306H438.851C438.39 125.306 437.948 125.489 437.622 125.815C437.296 126.141 437.113 126.584 437.113 127.045V127.638H323.648C321.62 127.638 319.676 128.444 318.243 129.879C316.809 131.314 316.004 133.261 316.004 135.291V290.213C316.004 292.242 316.809 294.189 318.243 295.624C319.676 297.059 321.62 297.866 323.648 297.866H601.352C603.379 297.866 605.323 297.059 606.757 295.624C608.19 294.189 608.995 292.242 608.995 290.213V135.291C608.995 133.261 608.19 131.314 606.757 129.879C605.323 128.444 603.379 127.638 601.352 127.638V127.638Z" fill="#E9E9E9"/>
<path d="M329.727 143.925C329.537 143.925 329.355 144.001 329.221 144.135C329.087 144.269 329.012 144.451 329.012 144.641V291.588C329.012 291.778 329.087 291.96 329.221 292.094C329.355 292.229 329.537 292.304 329.727 292.304H595.274C595.463 292.304 595.645 292.229 595.779 292.094C595.913 291.96 595.989 291.778 595.989 291.588V144.641C595.989 144.451 595.913 144.269 595.779 144.135C595.645 144.001 595.463 143.925 595.274 143.925H329.727Z" fill="#00BFA6"/>
<path d="M462.267 136.965C463.811 136.965 465.062 135.712 465.062 134.166C465.062 132.621 463.811 131.368 462.267 131.368C460.724 131.368 459.473 132.621 459.473 134.166C459.473 135.712 460.724 136.965 462.267 136.965Z" fill="#00BFA6"/>
<path d="M614.085 287.424H587.491V284.674C587.491 284.523 587.321 284.401 587.111 284.401H577.993C577.783 284.401 577.613 284.523 577.613 284.674V287.424H571.914V284.674C571.914 284.523 571.744 284.401 571.534 284.401H562.417C562.207 284.401 562.037 284.523 562.037 284.674V287.424H556.338V284.674C556.338 284.523 556.168 284.401 555.958 284.401H546.84C546.63 284.401 546.46 284.523 546.46 284.674V287.424H540.762V284.674C540.762 284.523 540.592 284.401 540.382 284.401H531.264C531.054 284.401 530.884 284.523 530.884 284.674V287.424H525.185V284.674C525.185 284.523 525.015 284.401 524.805 284.401H515.687C515.478 284.401 515.307 284.523 515.307 284.674V287.424H509.609V284.674C509.609 284.523 509.439 284.401 509.229 284.401H500.111C499.901 284.401 499.731 284.523 499.731 284.674V287.424H494.032V284.674C494.032 284.523 493.862 284.401 493.652 284.401H422.229C422.019 284.401 421.849 284.523 421.849 284.674V287.424H416.15V284.674C416.15 284.523 415.98 284.401 415.771 284.401H406.653C406.443 284.401 406.273 284.523 406.273 284.674V287.424H400.574V284.674C400.574 284.523 400.404 284.401 400.194 284.401H391.076C390.866 284.401 390.696 284.523 390.696 284.674V287.424H384.998V284.674C384.998 284.523 384.828 284.401 384.618 284.401H375.5C375.29 284.401 375.12 284.523 375.12 284.674V287.424H369.421V284.674C369.421 284.523 369.251 284.401 369.041 284.401H359.923C359.714 284.401 359.544 284.523 359.544 284.674V287.424H353.845V284.674C353.845 284.523 353.675 284.401 353.465 284.401H344.347C344.137 284.401 343.967 284.523 343.967 284.674V287.424H338.268V284.674C338.268 284.523 338.098 284.401 337.889 284.401H328.771C328.561 284.401 328.391 284.523 328.391 284.674V287.424H310.915C305.879 287.424 301.797 290.362 301.797 293.987V296.954C301.797 300.579 305.879 303.517 310.915 303.517H614.085C619.12 303.517 623.203 300.579 623.203 296.954V293.987C623.203 290.362 619.12 287.424 614.085 287.424Z" fill="#C4C4C4"/>
<path d="M431.582 205.748H353.093C352.929 205.748 352.772 205.683 352.656 205.567C352.54 205.451 352.475 205.294 352.475 205.13C352.475 204.965 352.54 204.808 352.656 204.692C352.772 204.576 352.929 204.511 353.093 204.511H431.582C431.746 204.511 431.903 204.576 432.019 204.692C432.135 204.808 432.2 204.965 432.2 205.13C432.2 205.294 432.135 205.451 432.019 205.567C431.903 205.683 431.746 205.748 431.582 205.748Z" fill="#F2F2F2"/>
<path d="M431.582 219.362H353.093C352.929 219.362 352.772 219.296 352.656 219.18C352.54 219.064 352.475 218.907 352.475 218.743C352.475 218.579 352.54 218.421 352.656 218.305C352.772 218.189 352.929 218.124 353.093 218.124H431.582C431.746 218.124 431.903 218.189 432.019 218.305C432.135 218.421 432.2 218.579 432.2 218.743C432.2 218.907 432.135 219.064 432.019 219.18C431.903 219.296 431.746 219.362 431.582 219.362Z" fill="#F2F2F2"/>
<path d="M431.582 232.975H353.093C353.011 232.975 352.931 232.959 352.855 232.928C352.78 232.897 352.712 232.852 352.654 232.794C352.597 232.737 352.551 232.669 352.52 232.593C352.489 232.518 352.473 232.438 352.473 232.356C352.473 232.275 352.489 232.194 352.52 232.119C352.551 232.044 352.597 231.975 352.654 231.918C352.712 231.86 352.78 231.815 352.855 231.784C352.931 231.753 353.011 231.737 353.093 231.737H431.582C431.664 231.737 431.744 231.753 431.819 231.784C431.894 231.815 431.963 231.86 432.02 231.918C432.078 231.975 432.124 232.044 432.155 232.119C432.186 232.194 432.202 232.275 432.202 232.356C432.202 232.438 432.186 232.518 432.155 232.593C432.124 232.669 432.078 232.737 432.02 232.794C431.963 232.852 431.894 232.897 431.819 232.928C431.744 232.959 431.664 232.975 431.582 232.975Z" fill="#F2F2F2"/>
<path d="M564.767 170.168H467.737C466.713 170.168 465.883 170.999 465.883 172.024V265.461C465.883 266.487 466.713 267.318 467.737 267.318H564.767C565.791 267.318 566.622 266.487 566.622 265.461V172.024C566.622 170.999 565.791 170.168 564.767 170.168Z" fill="white"/>
<path d="M486.055 221.582C486.388 215.698 488.797 210.123 492.852 205.852C496.908 201.581 502.347 198.89 508.2 198.261C514.052 197.631 519.938 199.103 524.808 202.414C529.677 205.725 533.214 210.66 534.787 216.339C535.088 216.328 535.389 216.316 535.693 216.316C536.728 216.326 537.755 216.501 538.736 216.835C551.091 220.897 547.837 239.365 534.834 239.365H502.875C500.615 239.371 498.377 238.921 496.294 238.041C494.212 237.161 492.328 235.869 490.756 234.243C489.184 232.617 487.956 230.69 487.145 228.578C486.335 226.465 485.958 224.211 486.038 221.949C486.043 221.827 486.049 221.705 486.055 221.582Z" fill="#00BFA6"/>
<path d="M515.184 221.195V211.017H509.71V221.195H505.34L508.893 227.358L512.447 233.521L516.001 227.358L519.554 221.195H515.184Z" fill="white"/>
<path d="M126.687 516.692C112.061 517.981 97.6355 512.6 87.4276 502.047C80.837 495.098 76.3143 486.155 71.9405 477.505C70.6673 474.988 69.3512 472.386 68.0123 469.891C64.9583 464.327 65.5964 457.465 69.624 452.559C73.4837 447.655 79.9388 445.593 85.927 447.351L86.5652 447.535L92.3095 469.949C93.1664 466.606 95.0057 459.073 96.1673 451.693L96.2649 451.075L96.8369 451.329C102.835 453.983 108.474 457.382 113.623 461.445C132.084 476.252 143.096 498.431 143.735 522.088L143.75 522.785L126.687 516.692V516.692Z" fill="#F2F2F2"/>
<path d="M313.934 524.283L35.1845 524.59C34.5269 524.587 33.9966 524.051 34 523.393C34.0034 522.74 34.5317 522.212 35.1845 522.209L313.934 521.901C314.592 521.899 315.127 522.431 315.129 523.088C315.131 523.746 314.6 524.281 313.942 524.283H313.934Z" fill="#CACACA"/>
<path d="M247.875 511.51H238.494L234.031 475.324L247.877 475.325L247.875 511.51Z" fill="#FFB6B6"/>
<path d="M248.206 521.296L219.357 521.295V520.93C219.358 514.729 224.385 509.702 230.586 509.702H230.587L235.856 505.704L245.688 509.703L248.207 509.703L248.206 521.296V521.296Z" fill="#F2F2F2"/>
<path d="M218.905 478.991L209.923 481.698L195.205 448.341L208.462 444.345L218.905 478.991Z" fill="#FFB6B6"/>
<path d="M222.047 488.265L194.426 496.591L194.321 496.242C192.531 490.305 195.893 484.041 201.83 482.25L201.831 482.25L205.722 476.901L216.29 477.892L218.701 477.165L222.047 488.265Z" fill="#F2F2F2"/>
<path d="M206.022 282.244C206.022 282.244 195.985 297.565 192.434 307.988C183.733 333.532 179.571 327.403 169.551 389.51C183.147 435.385 196.611 465.628 196.611 465.628C196.611 465.628 216.846 459.937 216.846 456.143C216.846 452.349 203.936 406.084 202.039 400.709C200.142 395.334 196.98 393.437 199.826 389.011C202.671 384.585 226.045 345.889 226.045 345.889C226.045 345.889 225.412 411.845 226.045 413.109C226.677 414.374 229.718 490.326 229.718 490.326C229.718 490.326 250.527 500.978 251.789 489.626C252.105 486.781 252.504 411.514 252.504 410.249C252.504 408.985 271.767 291.143 262.599 286.4C253.43 281.658 206.022 282.244 206.022 282.244V282.244Z" fill="#2F5675"/>
<path d="M163.971 293.162C164.506 288.336 168.852 284.858 173.678 285.393C174.193 285.45 174.702 285.553 175.198 285.699L193.378 260.289L199.201 275.445L181.044 297.251C179.356 301.832 174.273 304.176 169.693 302.488C165.86 301.075 163.494 297.22 163.971 293.162L163.971 293.162V293.162Z" fill="#FFB6B6"/>
<path d="M189.041 289.224L176.953 280.058L202.329 240.983L222.712 162.461L238.849 177.488C241.643 178.349 243.953 180.331 245.229 182.962C246.527 185.611 249.284 181.174 248.253 183.939L225.553 245.231L225.521 245.274L189.041 289.224V289.224Z" fill="#3F3D56"/>
<path d="M231.767 159.244L214.574 165.925L207.509 175.685L190.379 263.539L191.061 266.505L189.355 268.791L188.686 272.227L190.346 275.086L187.43 278.668C187.43 278.668 188.201 281.522 191.061 305.836C192.826 320.838 221.38 311.598 221.38 311.598L234.344 178.359L231.767 159.244V159.244Z" fill="#1B67A4"/>
<path d="M268.464 170.596L253.632 157.328L231.699 158.65L219.072 174.005L194.582 300.837L246.07 305.127L268.464 170.596Z" fill="#E6E6E6"/>
<path d="M255.464 159.462L268.954 169.819L274.128 177.369C283.197 182.553 287.39 193.385 284.175 203.324L267.79 261.084L267.407 262.264C267.017 263.408 268.884 272.465 267.955 282.22C267.713 284.762 270.661 287.595 270.44 290.103C270.267 292.066 266.917 293.735 266.769 295.538C266.636 297.165 268.399 298.712 268.295 300.115C268.029 302.848 267.284 305.513 266.093 307.987C252.135 313.761 225.18 309.573 225.18 309.573L249.604 177.952L255.464 159.462V159.462Z" fill="#1B67A4"/>
<path d="M240.382 152.222C253.791 152.222 264.662 141.352 264.662 127.942C264.662 114.533 253.791 103.662 240.382 103.662C226.972 103.662 216.102 114.533 216.102 127.942C216.102 141.352 226.972 152.222 240.382 152.222Z" fill="#FFB6B6"/>
<path d="M271.862 128.981C270.453 136.961 264.754 144.856 256.795 146.372L256.644 146.172C257.088 142.712 257.281 139.226 257.224 135.738C257.193 133.503 255.357 131.715 253.121 131.746C251.454 131.768 249.971 132.811 249.386 134.372C249.529 131.333 248.242 128.23 247.412 125.298C246.583 122.373 246.018 119.598 243.129 118.64C240.719 117.846 238.094 118.397 235.62 118.962C232.202 119.734 230.464 119.555 230.157 118.69C228.892 119.153 227.627 119.615 226.361 120.076C225.379 120.434 224.279 120.095 223.667 119.248L223.656 119.234C221.447 119.806 219.237 120.373 217.027 120.936C216.608 119.52 216.267 118.083 216.005 116.631C217.898 115.085 219.252 112.98 219.873 110.616C218.549 111.379 217.113 111.929 215.618 112.247C215.514 108.859 216.988 105.615 219.609 103.465C224.836 99.2677 230.078 96.6932 236.772 97.0294C244.867 97.437 247.291 106.147 254.649 102.75C263.946 98.4595 273.271 121 271.862 128.981V128.981Z" fill="#00BFA6"/>
<path d="M135.75 143.783C133.624 142.073 130.515 142.407 128.8 144.529L74.4441 211.957C72.7341 214.083 73.0678 217.192 75.1899 218.907L170.565 295.792C172.691 297.502 175.8 297.168 177.514 295.046L231.871 227.618C233.581 225.492 233.247 222.383 231.125 220.668L135.75 143.783V143.783Z" fill="#CCCCCC"/>
<path d="M138.909 264.86L80.5294 217.798C78.2454 215.952 77.8862 212.606 79.7267 210.318L129.027 149.161C130.873 146.877 134.219 146.518 136.507 148.358L226.493 220.899C228.777 222.744 229.136 226.091 227.295 228.379L203.474 257.929C187.543 277.645 158.66 280.745 138.909 264.86L138.909 264.86Z" fill="white"/>
<path d="M158.375 193.91L144.502 182.726C143.768 182.139 143.649 181.068 144.236 180.334C144.823 179.6 145.894 179.481 146.628 180.068L146.638 180.076L160.511 191.26C161.24 191.853 161.351 192.924 160.759 193.654C160.169 194.379 159.105 194.493 158.375 193.91Z" fill="#00BFA6"/>
<path d="M185.106 224.398L140.135 188.145C139.401 187.558 139.282 186.487 139.869 185.753C140.456 185.019 141.527 184.9 142.261 185.487L142.271 185.495L187.242 221.748C187.972 222.341 188.082 223.413 187.49 224.142C186.9 224.868 185.836 224.982 185.106 224.398V224.398Z" fill="#E6E6E6"/>
<path d="M180.091 230.618L135.119 194.365C134.385 193.778 134.266 192.707 134.853 191.973C135.44 191.239 136.511 191.12 137.245 191.707L137.255 191.715L182.227 227.968C182.956 228.561 183.067 229.633 182.474 230.362C181.885 231.087 180.821 231.201 180.091 230.618Z" fill="#E6E6E6"/>
<path d="M175.079 236.837L130.108 200.584C129.374 199.997 129.255 198.926 129.841 198.192C130.428 197.458 131.499 197.339 132.233 197.926L132.244 197.934L177.215 234.187C177.944 234.78 178.055 235.852 177.463 236.581C176.873 237.306 175.809 237.421 175.079 236.837H175.079V236.837Z" fill="#E6E6E6"/>
<path d="M170.064 243.057L125.092 206.804C124.358 206.217 124.239 205.146 124.826 204.412C125.413 203.678 126.484 203.559 127.218 204.146L127.228 204.154L172.199 240.407C172.929 241 173.04 242.072 172.447 242.801C171.857 243.526 170.793 243.64 170.064 243.057Z" fill="#E6E6E6"/>
<path d="M160.27 241.857C163.389 238.136 168.934 237.647 172.656 240.767C173.052 241.099 173.419 241.466 173.751 241.863L202.963 230.777L199.415 246.621L172.219 254.719C168.276 257.598 162.746 256.734 159.868 252.791C157.459 249.491 157.625 244.971 160.27 241.858V241.857V241.857Z" fill="#FFB6B6"/>
<path d="M183.326 253.182L178.34 238.855L221.111 220.379L274.259 180.893L280.968 189.175C284.666 193.74 283.963 200.439 279.397 204.137C279.248 204.257 279.096 204.374 278.941 204.486L238.094 236.78L238.043 236.798L225.365 240.594L222.526 240.76L219.497 242.351L216.805 241.475L213.08 244.273L208.802 245.554L183.326 253.182V253.182Z" fill="#1B67A4"/>
<path d="M382.579 267C379.18 267.004 376.426 269.758 376.422 273.157V381.048C376.426 384.447 379.18 387.201 382.579 387.205H535.187C538.586 387.201 541.34 384.447 541.344 381.048V273.157C541.34 269.758 538.586 267.004 535.187 267H382.579V267Z" fill="#E6E6E6"/>
<path d="M480.302 381.954H386.89C383.232 381.95 380.268 378.985 380.264 375.327V277.471C380.268 273.813 383.232 270.849 386.89 270.845H530.875C534.533 270.849 537.497 273.813 537.501 277.471V324.754C537.466 356.33 511.878 381.918 480.302 381.954V381.954Z" fill="white"/>
<path d="M443.712 297.926H421.514C420.344 297.926 419.395 296.977 419.395 295.806C419.395 294.635 420.344 293.686 421.514 293.686H443.712C444.883 293.686 445.832 294.635 445.832 295.806C445.832 296.977 444.883 297.926 443.712 297.926H443.712Z" fill="#00BFA6"/>
<path d="M493.473 306.596H421.514C420.344 306.596 419.395 305.647 419.395 304.476C419.395 303.306 420.344 302.356 421.514 302.356H493.473C494.643 302.356 495.592 303.306 495.592 304.476C495.592 305.647 494.643 306.596 493.473 306.596Z" fill="#E6E6E6"/>
<path d="M493.473 316.548H421.514C420.344 316.548 419.395 315.599 419.395 314.428C419.395 313.257 420.344 312.308 421.514 312.308H493.473C494.643 312.308 495.592 313.257 495.592 314.428C495.592 315.599 494.643 316.548 493.473 316.548Z" fill="#E6E6E6"/>
<path d="M493.473 326.5H421.514C420.344 326.5 419.395 325.551 419.395 324.38C419.395 323.209 420.344 322.26 421.514 322.26H493.473C494.643 322.26 495.592 323.209 495.592 324.38C495.592 325.551 494.643 326.5 493.473 326.5Z" fill="#E6E6E6"/>
<path d="M493.473 336.452H421.514C420.344 336.452 419.395 335.503 419.395 334.332C419.395 333.161 420.344 332.212 421.514 332.212H493.473C494.643 332.212 495.592 333.161 495.592 334.332C495.592 335.503 494.643 336.452 493.473 336.452Z" fill="#E6E6E6"/>
<path d="M551.167 342.327H521.043C515.053 342.327 510.196 347.183 510.196 353.174C510.196 359.165 505.34 364.021 499.349 364.021H398.919C392.929 364.021 388.072 359.165 388.072 353.174V353.174L386.086 342.178L386.216 342.327L386.086 342.178L367.882 318.969C366.673 317.404 364.801 316.494 362.823 316.512H328.683C325.134 316.516 322.259 319.392 322.254 322.941L321.549 342.178H308.643C297.242 342.178 288 351.42 288 362.82V497.265C288 507.383 296.202 515.584 306.319 515.584H551.167C561.278 515.572 569.471 507.377 569.481 497.265V360.64C569.481 350.526 561.282 342.327 551.167 342.327H551.167Z" fill="#E6E6E6"/>
<path d="M386.096 341.682H322.254V322.445C322.258 318.896 325.134 316.02 328.683 316.016H362.823C364.801 315.998 366.673 316.907 367.882 318.473L386.096 341.682V341.682Z" fill="#CCCCCC"/>
<path d="M418.784 500.79H312.185C305.159 500.782 299.465 495.089 299.457 488.063V458.91C299.465 451.884 305.159 446.19 312.185 446.182H440.129C447.155 446.19 452.849 451.884 452.857 458.91V466.718C452.835 485.527 437.593 500.769 418.784 500.79V500.79Z" fill="white"/>
<path d="M342.87 468.173H316.559C312.995 468.173 310.105 465.283 310.105 461.719C310.105 458.155 312.995 455.265 316.559 455.265H342.87C346.435 455.261 349.328 458.146 349.332 461.711C349.337 465.275 346.451 468.168 342.887 468.173H342.87H342.87Z" fill="#00BFA6"/>
<path d="M432.229 488.527H316.559C312.995 488.527 310.105 485.637 310.105 482.073C310.105 478.509 312.995 475.619 316.559 475.619H432.229C435.794 475.615 438.687 478.5 438.692 482.065C438.696 485.629 435.81 488.522 432.246 488.527H432.23L432.229 488.527Z" fill="#00BFA6"/>
<path d="M559.543 531.674C545.093 531.674 533.379 519.96 533.379 505.51C533.379 491.061 545.093 479.347 559.543 479.347C573.993 479.347 585.707 491.061 585.707 505.51C585.707 519.96 573.993 531.674 559.543 531.674Z" fill="#00BFA6"/>
<path d="M569.869 502.93H562.126V495.187C562.126 493.761 560.971 492.606 559.545 492.606C558.12 492.606 556.964 493.761 556.964 495.187V502.93H549.221C547.796 502.93 546.641 504.085 546.641 505.511C546.641 506.936 547.796 508.091 549.221 508.091H556.964V515.834C556.964 517.26 558.12 518.415 559.545 518.415C560.971 518.415 562.126 517.26 562.126 515.834V508.091H569.869C571.294 508.091 572.45 506.936 572.45 505.511C572.45 504.085 571.294 502.93 569.869 502.93Z" fill="white"/>
</g>
</svg>
