<svg width="484" height="322" viewBox="0 0 484 322" fill="none" xmlns="http://www.w3.org/2000/svg">
<g clip-path="url(#clip0_279_3756)">
<path d="M307.404 178.828C309.098 178.474 310.585 177.469 311.545 176.03C312.504 174.591 312.859 172.833 312.533 171.135C312.46 170.759 312.353 170.391 312.215 170.035L329.811 154.881L318.307 151.629L303.362 166.519C301.792 167.267 300.58 168.602 299.988 170.236C299.395 171.87 299.47 173.671 300.196 175.25C300.813 176.575 301.863 177.651 303.173 178.301C304.482 178.951 305.975 179.137 307.404 178.828L307.404 178.828Z" fill="#FFB6B6"/>
<path d="M421.666 286.297L422.305 271.93C428.972 268.369 436.408 266.489 443.968 266.451C433.563 274.95 434.864 291.331 427.81 302.76C425.583 306.307 422.585 309.309 419.039 311.541C415.493 313.774 411.489 315.181 407.325 315.657L398.618 320.983C397.424 314.329 397.687 307.495 399.39 300.953C401.094 294.41 404.196 288.314 408.485 283.085C410.92 280.175 413.712 277.584 416.795 275.371C418.88 280.864 421.666 286.297 421.666 286.297Z" fill="#F2F2F2"/>
<path d="M399.232 313.59L391.348 313.589L387.598 283.209L399.233 283.21L399.232 313.59Z" fill="#FFB6B6"/>
<path d="M401.242 321.225L375.822 321.224V320.903C375.822 318.281 376.865 315.767 378.72 313.913C380.576 312.059 383.092 311.018 385.716 311.018H385.717L390.36 307.498L399.024 311.018L401.243 311.018L401.242 321.225Z" fill="#2F2E41"/>
<path d="M362.606 313.59L354.723 313.589L350.973 283.209L362.608 283.21L362.606 313.59Z" fill="#FFB6B6"/>
<path d="M364.617 321.225L339.197 321.224V320.903C339.197 318.281 340.24 315.767 342.095 313.913C343.951 312.059 346.467 311.018 349.091 311.018H349.092L353.735 307.498L362.399 311.018L364.618 311.018L364.617 321.225Z" fill="#2F2E41"/>
<path d="M359.194 147.497L410.472 148.777C420.211 154.062 420.359 165.501 417.168 179.081C417.168 179.081 418.245 187.153 416.091 189.306C413.936 191.458 412.859 191.458 413.936 195.225C415.013 198.992 409.322 205.144 410.013 205.835C410.705 206.526 412.32 210.293 412.32 210.293L406.934 240.966C406.934 240.966 403.164 294.24 402.087 295.317C401.009 296.393 399.932 295.317 401.009 298.007C402.087 300.698 403.164 299.622 402.087 300.698C401.132 301.726 400.233 302.804 399.394 303.927H386.371C386.371 303.927 385.39 298.545 385.39 298.007C385.39 297.469 384.312 294.24 384.312 293.702C384.312 293.164 385.265 292.213 385.265 292.213C385.594 291.119 385.816 289.996 385.928 288.859C385.928 287.783 389.16 246.347 389.16 246.347L382.697 192.534L367.077 245.271C367.077 245.271 367.077 291.55 365.999 292.626C364.922 293.702 364.922 293.164 365.461 295.317C365.999 297.469 368.154 296.931 366.538 298.545C364.922 300.16 364.384 297.469 364.922 300.16L365.461 302.85L349.302 303.081C349.302 303.081 347.148 298.545 348.225 296.931C349.302 295.317 349.238 295.757 347.924 293.115C346.609 290.474 346.071 289.935 346.609 289.397C347.148 288.859 347.148 285.997 347.148 285.997L349.841 234.508C349.841 234.508 350.38 180.158 350.38 178.543C350.42 177.712 350.267 176.884 349.932 176.122V173.931L351.995 166.166L359.194 147.497Z" fill="#00BFA6"/>
<path d="M306.812 161.348L315.479 168.331L362.723 131.743L359.927 68.0625C357.27 70.1862 355.061 72.8152 353.428 75.7973C351.794 78.7795 350.768 82.0556 350.41 85.4363L342.316 121.409L306.812 161.348Z" fill="#2F5675"/>
<path d="M351.541 163.583C368.264 165.718 383.672 159.249 398.226 154.366C404.797 152.162 411.416 154.463 417.515 150.735C414.878 124.779 417.439 95.541 423.041 64.3834C423.361 62.6196 423.028 60.7998 422.103 59.2635C421.179 57.7273 419.726 56.5795 418.017 56.0344L399.963 50.8593L394.405 44.7329L380.048 48.374L375.023 57.4491L357.754 69.1071C356.746 69.7872 355.956 70.7436 355.479 71.8615C355.002 72.9793 354.859 74.211 355.066 75.4084C360.254 104.711 359.052 134.787 351.541 163.583V163.583Z" fill="#2F5675"/>
<path d="M404.912 171.616C406.446 170.814 407.602 169.442 408.132 167.796C408.662 166.15 408.523 164.361 407.745 162.817C407.573 162.476 407.37 162.151 407.14 161.845L419.929 142.469L407.974 142.477L397.662 160.876C396.356 162.023 395.554 163.639 395.431 165.372C395.307 167.105 395.871 168.818 397.001 170.139C397.957 171.245 399.26 171.994 400.698 172.263C402.135 172.531 403.622 172.303 404.912 171.616L404.912 171.616Z" fill="#FFB6B6"/>
<path d="M401.301 153.528L409.128 163.583L436.524 122.805L434.155 81.3776C433.853 76.1012 432.221 70.9868 429.409 66.5101C426.597 62.0335 422.698 58.3401 418.074 55.7734V55.7734L418.633 119.454L401.301 153.528Z" fill="#2F5675"/>
<path d="M381.631 42.3624C391.307 42.3624 399.151 34.5256 399.151 24.8584C399.151 15.1913 391.307 7.35449 381.631 7.35449C371.955 7.35449 364.111 15.1913 364.111 24.8584C364.111 34.5256 371.955 42.3624 381.631 42.3624Z" fill="#FFB6B6"/>
<path d="M370.468 14.5859C371.146 14.5912 371.821 14.6797 372.477 14.8493C373.771 15.1601 375.085 15.3802 376.41 15.5082C380.466 15.8894 384.277 17.6175 387.234 20.4166C390.192 23.2156 392.125 26.9241 392.725 30.9497C393.743 30.0629 396.06 28.4317 397.959 29.9477C397.988 29.9718 398.004 29.9842 398.071 29.9525C399.332 29.3549 401.571 21.9986 401.638 15.5216C401.674 12.0838 401.132 7.69387 398.35 6.30369L398.203 6.23045L398.164 6.07124C397.979 5.29793 395.901 3.9779 392.291 2.95048C385.73 1.08339 375.95 -2.55375 370.443 2.79893C370.026 4.60344 368.67 8.46511 367.3 8.90283C365.783 9.38731 364.474 9.80543 364.267 11.6643C364.095 14.3096 364.107 16.9636 364.305 19.6072C364.819 17.9896 365.827 16.5737 367.189 15.559C368.157 14.9078 369.302 14.5683 370.468 14.5859V14.5859Z" fill="#2F2E41"/>
<path d="M484 321.335C484 321.423 483.983 321.509 483.95 321.59C483.916 321.671 483.867 321.744 483.806 321.806C483.744 321.868 483.67 321.916 483.59 321.95C483.509 321.983 483.422 322 483.335 322H0.665336C0.488878 322 0.319654 321.93 0.194879 321.805C0.0701051 321.681 0 321.511 0 321.335C0 321.159 0.0701051 320.99 0.194879 320.865C0.319654 320.74 0.488878 320.67 0.665336 320.67H483.335C483.422 320.67 483.509 320.687 483.59 320.72C483.67 320.754 483.744 320.803 483.806 320.865C483.867 320.926 483.916 321 483.95 321.08C483.983 321.161 484 321.248 484 321.335Z" fill="#CCCCCC"/>
<path d="M199.755 56.4868L133.991 71.2691C132.229 71.6673 130.697 72.7475 129.731 74.2727C128.765 75.798 128.444 77.6437 128.838 79.4051L146.872 159.488L224.142 142.12C224.777 141.979 225.358 141.659 225.815 141.197L207.899 61.6343C207.5 59.8738 206.419 58.3432 204.892 57.3782C203.366 56.4132 201.518 56.0926 199.755 56.4868V56.4868Z" fill="#E6E6E6"/>
<path d="M175.866 67.514L139.825 75.615C138.221 75.9773 136.826 76.9607 135.946 78.3493C135.066 79.7379 134.773 81.4186 135.132 83.0225L152.087 158.316L220.713 142.89L208.366 88.0574C206.775 81.0316 202.46 74.9231 196.368 71.0718C190.275 67.2205 182.902 65.941 175.866 67.514V67.514Z" fill="white"/>
<path d="M207.516 138.832L162.272 149.001C162.078 149.045 161.895 149.126 161.732 149.24C161.57 149.354 161.431 149.499 161.325 149.667C161.218 149.834 161.146 150.021 161.112 150.217C161.078 150.413 161.083 150.613 161.127 150.807C161.17 151 161.252 151.184 161.366 151.346C161.481 151.508 161.626 151.646 161.794 151.752C161.962 151.858 162.15 151.93 162.346 151.964C162.542 151.997 162.742 151.992 162.936 151.948L208.179 141.778C208.374 141.735 208.557 141.654 208.72 141.54C208.883 141.426 209.021 141.281 209.128 141.113C209.234 140.945 209.307 140.758 209.341 140.563C209.375 140.367 209.37 140.166 209.326 139.973C209.283 139.779 209.201 139.595 209.087 139.433C208.972 139.271 208.826 139.133 208.658 139.027C208.49 138.921 208.302 138.849 208.106 138.816C207.911 138.782 207.71 138.788 207.516 138.832Z" fill="#E4E4E4"/>
<path d="M206.204 133.005L160.96 143.174C160.569 143.262 160.228 143.502 160.014 143.841C159.799 144.18 159.728 144.59 159.816 144.981C159.904 145.372 160.144 145.712 160.483 145.926C160.822 146.141 161.233 146.212 161.624 146.124L206.868 135.954C207.062 135.911 207.245 135.829 207.408 135.715C207.57 135.601 207.708 135.455 207.814 135.288C207.921 135.12 207.993 134.933 208.027 134.737C208.061 134.542 208.056 134.341 208.012 134.148C207.968 133.954 207.887 133.771 207.773 133.609C207.658 133.446 207.513 133.308 207.345 133.202C207.177 133.096 206.99 133.024 206.794 132.99C206.598 132.956 206.398 132.961 206.204 133.005H206.204Z" fill="#E4E4E4"/>
<path d="M179.261 132.942L159.648 137.35C159.257 137.438 158.917 137.678 158.703 138.016C158.489 138.355 158.418 138.764 158.506 139.155C158.594 139.546 158.833 139.886 159.172 140.1C159.511 140.314 159.921 140.385 160.312 140.297L179.924 135.889C180.118 135.846 180.302 135.765 180.465 135.65C180.628 135.536 180.766 135.391 180.873 135.224C180.979 135.056 181.052 134.869 181.086 134.673C181.12 134.477 181.115 134.277 181.071 134.083C181.028 133.889 180.946 133.706 180.831 133.544C180.717 133.381 180.571 133.243 180.403 133.137C180.235 133.031 180.047 132.959 179.851 132.926C179.655 132.892 179.455 132.898 179.261 132.942V132.942Z" fill="#E4E4E4"/>
<path d="M202.145 114.979L156.902 125.149C156.708 125.192 156.524 125.274 156.362 125.388C156.2 125.502 156.061 125.648 155.955 125.815C155.741 126.154 155.67 126.564 155.758 126.955C155.846 127.347 156.086 127.687 156.425 127.901C156.764 128.115 157.174 128.186 157.566 128.098L202.809 117.929C203.003 117.885 203.187 117.804 203.349 117.69C203.511 117.575 203.65 117.43 203.756 117.262C203.862 117.094 203.934 116.907 203.968 116.712C204.002 116.516 203.997 116.316 203.953 116.122C203.91 115.929 203.828 115.745 203.714 115.583C203.599 115.421 203.454 115.283 203.286 115.177C203.118 115.07 202.931 114.998 202.735 114.965C202.54 114.931 202.339 114.936 202.145 114.979V114.979Z" fill="#E4E4E4"/>
<path d="M200.834 109.155L155.591 119.325C155.397 119.368 155.213 119.449 155.051 119.563C154.888 119.677 154.75 119.823 154.643 119.99C154.537 120.158 154.464 120.345 154.43 120.541C154.396 120.736 154.401 120.937 154.445 121.13C154.489 121.324 154.57 121.507 154.685 121.669C154.799 121.832 154.945 121.97 155.113 122.076C155.281 122.182 155.468 122.254 155.664 122.287C155.86 122.321 156.06 122.315 156.254 122.271L201.498 112.102C201.692 112.058 201.875 111.977 202.037 111.863C202.2 111.749 202.338 111.604 202.444 111.436C202.551 111.269 202.623 111.082 202.657 110.886C202.691 110.691 202.686 110.49 202.642 110.297C202.598 110.103 202.517 109.92 202.403 109.758C202.288 109.596 202.143 109.458 201.975 109.352C201.807 109.246 201.62 109.174 201.424 109.14C201.229 109.106 201.028 109.112 200.834 109.155V109.155Z" fill="#E4E4E4"/>
<path d="M173.891 109.09L154.279 113.498C154.085 113.542 153.901 113.623 153.739 113.737C153.577 113.852 153.438 113.997 153.332 114.165C153.226 114.332 153.154 114.519 153.12 114.715C153.086 114.911 153.091 115.111 153.135 115.305C153.178 115.498 153.26 115.681 153.374 115.844C153.488 116.006 153.634 116.144 153.802 116.25C153.97 116.356 154.157 116.428 154.353 116.462C154.548 116.496 154.749 116.491 154.943 116.448L174.555 112.039C174.749 111.996 174.932 111.914 175.095 111.8C175.257 111.686 175.395 111.54 175.502 111.373C175.608 111.205 175.68 111.018 175.714 110.822C175.748 110.627 175.743 110.426 175.699 110.233C175.656 110.039 175.574 109.856 175.46 109.693C175.345 109.531 175.2 109.393 175.032 109.287C174.864 109.181 174.677 109.109 174.481 109.075C174.285 109.041 174.085 109.046 173.891 109.09V109.09Z" fill="#E4E4E4"/>
<path d="M196.774 91.1272L151.531 101.297C151.139 101.385 150.799 101.625 150.584 101.963C150.369 102.302 150.298 102.712 150.387 103.103C150.475 103.495 150.715 103.835 151.054 104.049C151.393 104.263 151.803 104.334 152.195 104.246L197.438 94.0768C197.632 94.0332 197.816 93.9519 197.978 93.8375C198.14 93.7231 198.279 93.5779 198.385 93.4102C198.491 93.2424 198.563 93.0554 198.597 92.8598C198.631 92.6642 198.626 92.4638 198.582 92.2702C198.539 92.0765 198.457 91.8933 198.343 91.7311C198.228 91.5688 198.083 91.4307 197.915 91.3245C197.747 91.2184 197.56 91.1463 197.364 91.1125C197.168 91.0786 196.968 91.0836 196.774 91.1272V91.1272Z" fill="#E6E6E6"/>
<path d="M195.464 85.3035L150.22 95.4731C150.026 95.5167 149.843 95.598 149.68 95.7124C149.518 95.8267 149.38 95.9719 149.273 96.1397C149.059 96.4785 148.988 96.8886 149.076 97.2797C149.164 97.6708 149.404 98.011 149.743 98.2253C150.082 98.4397 150.493 98.5107 150.884 98.4227L196.128 88.253C196.322 88.2095 196.505 88.1282 196.667 88.0138C196.83 87.8994 196.968 87.7542 197.074 87.5864C197.18 87.4187 197.253 87.2317 197.286 87.0361C197.32 86.8405 197.315 86.6401 197.272 86.4464C197.228 86.2528 197.147 86.0696 197.032 85.9073C196.918 85.7451 196.772 85.6069 196.605 85.5008C196.437 85.3947 196.249 85.3226 196.054 85.2887C195.858 85.2549 195.657 85.2599 195.464 85.3035V85.3035Z" fill="#E6E6E6"/>
<path d="M168.52 85.2375L148.907 89.6459C148.516 89.7339 148.176 89.9737 147.961 90.3125C147.746 90.6513 147.675 91.0614 147.763 91.4525C147.852 91.8436 148.092 92.1838 148.431 92.3981C148.77 92.6125 149.18 92.6835 149.572 92.5955L169.184 88.1871C169.378 88.1435 169.561 88.0622 169.724 87.9479C169.886 87.8335 170.024 87.6883 170.131 87.5205C170.237 87.3528 170.309 87.1657 170.343 86.9701C170.377 86.7745 170.372 86.5742 170.328 86.3805C170.284 86.1868 170.203 86.0037 170.089 85.8414C169.974 85.6792 169.829 85.541 169.661 85.4349C169.493 85.3287 169.306 85.2567 169.11 85.2228C168.914 85.189 168.714 85.194 168.52 85.2375Z" fill="#E6E6E6"/>
<path d="M68.5545 149.404C68.1258 149.405 67.7148 149.575 67.4116 149.878C67.1085 150.181 66.938 150.591 66.9375 151.02V318.067C66.938 318.495 67.1085 318.906 67.4116 319.209C67.7147 319.512 68.1257 319.682 68.5545 319.683H278.188C278.617 319.682 279.028 319.512 279.331 319.209C279.634 318.906 279.805 318.495 279.805 318.067V177.834C279.805 177.406 279.634 176.995 279.331 176.693C279.028 176.39 278.617 176.219 278.188 176.219H157.872C156.651 176.22 155.473 175.765 154.57 174.944L127.521 150.389C126.823 149.755 125.913 149.404 124.97 149.404H68.5545Z" fill="#1B67A5"/>
<path d="M318.732 105.712L206.485 57.4992C203.475 56.2106 200.077 56.1673 197.035 57.3789C193.993 58.5904 191.557 60.9578 190.26 63.9618L131.443 200.648L263.328 257.296C264.409 257.764 265.603 257.912 266.766 257.721L325.201 121.922C326.49 118.915 326.534 115.52 325.321 112.481C324.108 109.442 321.739 107.008 318.732 105.712Z" fill="#E6E6E6"/>
<path d="M271.935 96.5014L210.42 70.0793C207.68 68.9054 204.585 68.8653 201.815 69.9678C199.046 71.0703 196.826 73.2254 195.645 75.9604L140.346 204.471L257.478 254.783L297.75 161.194C302.897 149.193 303.07 135.643 298.231 123.515C293.391 111.387 283.934 101.672 271.935 96.5014V96.5014Z" fill="white"/>
<path d="M242.434 234.798L165.212 201.63C164.882 201.487 164.526 201.411 164.166 201.406C163.806 201.4 163.448 201.466 163.114 201.599C162.779 201.732 162.474 201.93 162.216 202.181C161.958 202.431 161.752 202.731 161.609 203.061C161.467 203.392 161.392 203.747 161.387 204.107C161.382 204.467 161.449 204.824 161.582 205.158C161.716 205.492 161.914 205.797 162.166 206.054C162.417 206.312 162.717 206.517 163.048 206.659L240.27 239.828C240.601 239.97 240.956 240.046 241.316 240.052C241.677 240.057 242.034 239.991 242.369 239.858C242.703 239.725 243.009 239.527 243.267 239.277C243.525 239.026 243.731 238.726 243.873 238.396C244.015 238.065 244.091 237.71 244.096 237.35C244.1 236.99 244.034 236.633 243.9 236.299C243.767 235.965 243.568 235.66 243.317 235.403C243.065 235.145 242.765 234.94 242.434 234.798V234.798Z" fill="#E4E4E4"/>
<path d="M246.712 224.853L169.491 191.684C168.822 191.398 168.068 191.388 167.392 191.657C166.717 191.926 166.176 192.452 165.889 193.12C165.602 193.787 165.592 194.541 165.861 195.216C166.13 195.891 166.656 196.431 167.324 196.719L244.546 229.887C244.877 230.029 245.233 230.105 245.593 230.11C245.953 230.115 246.31 230.049 246.645 229.915C246.979 229.782 247.284 229.584 247.542 229.333C247.8 229.082 248.006 228.783 248.149 228.452C248.291 228.122 248.367 227.767 248.371 227.407C248.376 227.047 248.31 226.69 248.177 226.356C248.043 226.021 247.845 225.717 247.594 225.459C247.343 225.201 247.043 224.995 246.712 224.853H246.712Z" fill="#E4E4E4"/>
<path d="M207.244 196.122L173.769 181.744C173.439 181.602 173.083 181.526 172.723 181.521C172.363 181.516 172.006 181.582 171.671 181.715C171.337 181.848 171.032 182.045 170.774 182.296C170.516 182.547 170.31 182.846 170.168 183.177C170.026 183.507 169.95 183.862 169.946 184.222C169.941 184.581 170.007 184.938 170.141 185.272C170.274 185.606 170.472 185.911 170.723 186.168C170.975 186.426 171.274 186.631 171.605 186.773L205.08 201.151C205.41 201.294 205.765 201.369 206.125 201.375C206.485 201.38 206.843 201.314 207.177 201.181C207.512 201.048 207.817 200.85 208.075 200.599C208.332 200.348 208.538 200.049 208.681 199.719C208.823 199.388 208.898 199.033 208.903 198.674C208.908 198.314 208.842 197.957 208.708 197.623C208.575 197.289 208.377 196.984 208.125 196.727C207.874 196.469 207.574 196.264 207.244 196.122V196.122Z" fill="#E4E4E4"/>
<path d="M259.951 194.088L182.729 160.919C182.061 160.633 181.307 160.623 180.632 160.893C179.957 161.162 179.416 161.688 179.129 162.355C178.842 163.022 178.832 163.776 179.101 164.45C179.369 165.125 179.895 165.666 180.563 165.953L257.785 199.122C258.116 199.265 258.471 199.341 258.832 199.346C259.192 199.351 259.55 199.285 259.885 199.152C260.22 199.019 260.525 198.821 260.784 198.57C261.042 198.319 261.248 198.019 261.391 197.688C261.533 197.358 261.609 197.002 261.613 196.642C261.618 196.282 261.552 195.924 261.418 195.59C261.284 195.255 261.086 194.951 260.834 194.693C260.582 194.435 260.282 194.229 259.951 194.088V194.088Z" fill="#E4E4E4"/>
<path d="M264.229 184.148L187.007 150.979C186.677 150.836 186.321 150.76 185.961 150.755C185.601 150.749 185.243 150.815 184.909 150.948C184.574 151.081 184.269 151.279 184.011 151.53C183.753 151.781 183.547 152.08 183.404 152.41C183.262 152.741 183.187 153.096 183.182 153.456C183.177 153.816 183.244 154.173 183.377 154.507C183.511 154.841 183.709 155.146 183.961 155.403C184.212 155.661 184.512 155.866 184.843 156.008L262.065 189.177C262.396 189.319 262.751 189.395 263.111 189.401C263.471 189.406 263.829 189.34 264.164 189.207C264.498 189.074 264.804 188.877 265.062 188.626C265.32 188.375 265.526 188.075 265.668 187.745C265.81 187.414 265.886 187.059 265.891 186.699C265.895 186.339 265.829 185.982 265.695 185.648C265.562 185.314 265.363 185.009 265.112 184.752C264.86 184.494 264.56 184.289 264.229 184.148V184.148Z" fill="#E4E4E4"/>
<path d="M224.762 155.411L191.287 141.033C190.619 140.746 189.865 140.736 189.189 141.006C188.514 141.275 187.973 141.801 187.686 142.468C187.399 143.136 187.389 143.89 187.658 144.565C187.927 145.24 188.453 145.78 189.121 146.067L222.596 160.445C222.926 160.588 223.282 160.663 223.642 160.668C224.003 160.673 224.36 160.607 224.695 160.474C225.029 160.341 225.335 160.143 225.593 159.892C225.851 159.641 226.057 159.341 226.199 159.011C226.341 158.68 226.417 158.325 226.422 157.965C226.427 157.605 226.36 157.248 226.227 156.913C226.093 156.579 225.895 156.274 225.644 156.017C225.393 155.759 225.093 155.553 224.762 155.411V155.411Z" fill="#E4E4E4"/>
<path d="M277.47 153.377L200.248 120.208C199.58 119.922 198.826 119.913 198.151 120.182C197.476 120.452 196.936 120.978 196.649 121.645C196.362 122.312 196.351 123.065 196.62 123.74C196.889 124.414 197.414 124.955 198.081 125.242L275.303 158.411C275.634 158.553 275.99 158.629 276.35 158.634C276.71 158.639 277.068 158.573 277.403 158.44C277.737 158.307 278.042 158.109 278.3 157.858C278.559 157.607 278.765 157.307 278.907 156.977C279.049 156.646 279.125 156.291 279.13 155.931C279.134 155.571 279.068 155.214 278.935 154.879C278.801 154.545 278.603 154.24 278.352 153.982C278.1 153.725 277.801 153.519 277.47 153.377V153.377Z" fill="#00BFA6"/>
<path d="M281.748 143.436L204.526 110.267C203.858 109.981 203.103 109.972 202.428 110.241C201.754 110.511 201.213 111.037 200.926 111.704C200.639 112.371 200.629 113.124 200.898 113.799C201.166 114.474 201.692 115.014 202.36 115.302L279.581 148.471C279.912 148.614 280.269 148.691 280.629 148.696C280.99 148.702 281.348 148.636 281.684 148.503C282.019 148.37 282.325 148.172 282.584 147.921C282.842 147.67 283.049 147.37 283.191 147.039C283.334 146.708 283.41 146.352 283.414 145.991C283.419 145.631 283.352 145.273 283.218 144.938C283.084 144.604 282.885 144.299 282.633 144.041C282.38 143.783 282.08 143.578 281.748 143.436V143.436Z" fill="#00BFA6"/>
<path d="M242.279 114.701L208.805 100.322C208.137 100.036 207.382 100.026 206.707 100.295C206.031 100.564 205.491 101.09 205.203 101.758C204.916 102.425 204.906 103.179 205.175 103.854C205.444 104.529 205.971 105.07 206.639 105.357L240.113 119.735C240.444 119.877 240.8 119.953 241.16 119.958C241.52 119.963 241.878 119.897 242.212 119.763C242.547 119.63 242.852 119.432 243.11 119.181C243.368 118.93 243.574 118.631 243.717 118.3C243.859 117.97 243.935 117.614 243.939 117.254C243.944 116.895 243.878 116.537 243.745 116.203C243.611 115.869 243.413 115.564 243.162 115.306C242.91 115.048 242.61 114.843 242.279 114.701V114.701Z" fill="#00BFA6"/>
<path d="M158.941 155.359L93.1762 170.141C91.4142 170.539 89.8822 171.62 88.9163 173.145C87.9504 174.67 87.6295 176.516 88.024 178.277L106.057 258.36L183.327 240.992C183.962 240.851 184.543 240.531 185.001 240.069L167.084 160.506C166.686 158.746 165.605 157.215 164.078 156.25C162.551 155.285 160.704 154.965 158.941 155.359Z" fill="#E6E6E6"/>
<path d="M135.052 166.386L99.0109 174.487C97.4063 174.849 96.0112 175.832 95.1313 177.221C94.2515 178.61 93.9588 180.29 94.3175 181.894L111.272 257.188L179.899 241.762L167.552 186.929C165.961 179.903 161.646 173.795 155.553 169.943C149.46 166.092 142.087 164.813 135.052 166.386V166.386Z" fill="white"/>
<path d="M166.701 237.703L121.458 247.873C121.264 247.916 121.08 247.997 120.918 248.111C120.755 248.225 120.617 248.371 120.51 248.538C120.404 248.706 120.332 248.893 120.298 249.089C120.264 249.284 120.269 249.485 120.312 249.678C120.356 249.872 120.437 250.055 120.552 250.217C120.666 250.38 120.812 250.518 120.98 250.624C121.148 250.73 121.335 250.802 121.531 250.835C121.727 250.869 121.928 250.863 122.121 250.819L167.365 240.65C167.559 240.607 167.743 240.526 167.906 240.412C168.068 240.298 168.207 240.153 168.313 239.985C168.42 239.817 168.492 239.63 168.526 239.434C168.56 239.238 168.556 239.038 168.512 238.844C168.468 238.65 168.387 238.467 168.272 238.305C168.157 238.142 168.012 238.004 167.844 237.898C167.675 237.792 167.488 237.721 167.292 237.687C167.096 237.654 166.895 237.659 166.701 237.703V237.703Z" fill="#E4E4E4"/>
<path d="M165.389 231.876L120.146 242.046C119.754 242.134 119.414 242.374 119.199 242.712C118.985 243.051 118.914 243.461 119.002 243.852C119.09 244.244 119.33 244.584 119.669 244.798C120.008 245.012 120.418 245.083 120.81 244.995L166.054 234.826C166.445 234.738 166.785 234.498 167 234.159C167.215 233.82 167.286 233.41 167.198 233.019C167.109 232.628 166.869 232.288 166.53 232.074C166.191 231.859 165.781 231.788 165.389 231.876V231.876Z" fill="#E4E4E4"/>
<path d="M138.446 231.814L118.834 236.222C118.64 236.266 118.457 236.347 118.295 236.461C118.133 236.575 117.995 236.72 117.888 236.888C117.782 237.055 117.71 237.242 117.676 237.438C117.643 237.633 117.648 237.833 117.691 238.027C117.735 238.22 117.816 238.403 117.93 238.565C118.045 238.727 118.19 238.865 118.358 238.971C118.525 239.077 118.712 239.149 118.908 239.183C119.104 239.217 119.304 239.212 119.498 239.169L139.11 234.76C139.304 234.717 139.488 234.636 139.65 234.522C139.813 234.408 139.952 234.263 140.058 234.095C140.165 233.927 140.237 233.74 140.271 233.545C140.305 233.349 140.3 233.148 140.257 232.955C140.213 232.761 140.132 232.577 140.017 232.415C139.902 232.253 139.757 232.115 139.589 232.009C139.42 231.903 139.233 231.831 139.037 231.797C138.841 231.764 138.64 231.769 138.446 231.814V231.814Z" fill="#E4E4E4"/>
<path d="M161.331 213.851L116.087 224.021C115.893 224.065 115.71 224.146 115.548 224.26C115.385 224.375 115.247 224.52 115.141 224.688C114.926 225.026 114.855 225.436 114.943 225.828C115.031 226.219 115.271 226.559 115.61 226.773C115.949 226.988 116.36 227.059 116.751 226.971L161.995 216.801C162.386 216.713 162.727 216.473 162.941 216.134C163.156 215.796 163.227 215.385 163.139 214.994C163.051 214.603 162.811 214.263 162.472 214.049C162.133 213.834 161.722 213.763 161.331 213.851V213.851Z" fill="#E4E4E4"/>
<path d="M160.02 208.027L114.776 218.197C114.582 218.24 114.399 218.321 114.236 218.435C114.074 218.55 113.935 218.695 113.829 218.862C113.722 219.03 113.65 219.217 113.616 219.413C113.582 219.608 113.587 219.809 113.631 220.002C113.674 220.196 113.756 220.379 113.87 220.542C113.985 220.704 114.13 220.842 114.298 220.948C114.466 221.054 114.654 221.126 114.85 221.159C115.045 221.193 115.246 221.188 115.44 221.144L160.683 210.974C160.877 210.931 161.061 210.849 161.223 210.735C161.385 210.621 161.524 210.476 161.63 210.308C161.736 210.141 161.808 209.954 161.842 209.758C161.876 209.563 161.871 209.362 161.828 209.169C161.784 208.975 161.703 208.792 161.588 208.63C161.474 208.468 161.328 208.33 161.161 208.224C160.993 208.118 160.805 208.046 160.61 208.012C160.414 207.978 160.214 207.984 160.02 208.027V208.027Z" fill="#E4E4E4"/>
<path d="M133.076 207.962L113.464 212.37C113.073 212.458 112.732 212.698 112.518 213.037C112.303 213.375 112.232 213.785 112.32 214.177C112.408 214.568 112.648 214.908 112.987 215.122C113.326 215.337 113.737 215.408 114.128 215.32L133.741 210.911C134.132 210.823 134.473 210.583 134.687 210.245C134.902 209.906 134.973 209.496 134.885 209.105C134.797 208.714 134.557 208.373 134.218 208.159C133.878 207.945 133.468 207.874 133.076 207.962Z" fill="#E4E4E4"/>
<path d="M155.96 189.999L110.716 200.169C110.522 200.212 110.339 200.294 110.176 200.408C110.014 200.523 109.876 200.668 109.77 200.835C109.555 201.174 109.484 201.584 109.572 201.976C109.66 202.367 109.9 202.707 110.239 202.921C110.578 203.135 110.989 203.206 111.38 203.118L156.624 192.949C156.818 192.905 157.001 192.824 157.163 192.71C157.326 192.595 157.464 192.45 157.57 192.282C157.677 192.114 157.749 191.927 157.783 191.732C157.816 191.536 157.811 191.336 157.768 191.142C157.724 190.949 157.643 190.765 157.528 190.603C157.414 190.441 157.269 190.303 157.101 190.197C156.933 190.09 156.746 190.018 156.55 189.985C156.354 189.951 156.153 189.956 155.96 189.999H155.96Z" fill="#E6E6E6"/>
<path d="M154.647 184.175L109.404 194.345C109.21 194.388 109.026 194.47 108.864 194.584C108.702 194.698 108.563 194.844 108.457 195.011C108.243 195.35 108.171 195.76 108.26 196.151C108.348 196.542 108.588 196.883 108.927 197.097C109.266 197.311 109.676 197.382 110.068 197.294L155.311 187.125C155.703 187.037 156.043 186.797 156.258 186.458C156.472 186.119 156.543 185.709 156.455 185.318C156.367 184.927 156.127 184.587 155.788 184.372C155.449 184.158 155.039 184.087 154.647 184.175H154.647Z" fill="#E6E6E6"/>
<path d="M127.705 184.11L108.093 188.518C107.702 188.606 107.361 188.846 107.147 189.185C106.932 189.523 106.861 189.933 106.949 190.325C107.037 190.716 107.277 191.056 107.616 191.27C107.955 191.485 108.366 191.556 108.757 191.468L128.37 187.059C128.563 187.016 128.747 186.934 128.909 186.82C129.072 186.706 129.21 186.56 129.316 186.393C129.422 186.225 129.494 186.038 129.528 185.842C129.562 185.647 129.557 185.446 129.514 185.253C129.47 185.059 129.389 184.876 129.274 184.713C129.16 184.551 129.014 184.413 128.846 184.307C128.679 184.201 128.491 184.129 128.296 184.095C128.1 184.061 127.899 184.066 127.705 184.11Z" fill="#E6E6E6"/>
<path d="M67.1639 193.28C66.9516 193.28 66.7414 193.321 66.5452 193.403C66.349 193.484 66.1708 193.603 66.0206 193.753C65.8705 193.903 65.7513 194.081 65.67 194.277C65.5888 194.473 65.5469 194.683 65.5469 194.895C65.5469 194.955 65.5966 319.365 65.5966 319.365C65.6409 319.76 65.8293 320.125 66.1258 320.389C66.4222 320.654 66.8059 320.8 67.2035 320.8H292.395C292.793 320.8 293.177 320.654 293.473 320.389C293.77 320.125 293.958 319.76 294.002 319.365L308.019 195.076C308.045 194.85 308.022 194.621 307.953 194.405C307.884 194.188 307.77 193.988 307.618 193.819C307.468 193.648 307.282 193.512 307.074 193.419C306.866 193.326 306.641 193.279 306.413 193.28L67.1639 193.28Z" fill="#1B67A5"/>
<path d="M83.0558 200.167C80.7711 200.174 78.5808 201.079 76.9583 202.686C75.3358 204.293 74.4113 206.473 74.3848 208.755L74.666 305.173C74.6559 306.318 74.8728 307.452 75.3041 308.512C75.7354 309.572 76.3725 310.536 77.1788 311.348C77.985 312.161 78.9443 312.806 80.0013 313.246C81.0583 313.686 82.1921 313.913 83.3373 313.912H226.288C242.683 313.923 258.506 307.895 270.731 296.98C282.956 286.065 290.724 271.03 292.549 254.751L297.618 209.801C297.755 208.589 297.634 207.362 297.263 206.2C296.893 205.038 296.281 203.967 295.467 203.058C294.654 202.149 293.658 201.421 292.543 200.923C291.429 200.425 290.222 200.167 289.001 200.167H83.0558ZM302.119 200.167L302.093 199.609H302.119V200.167Z" fill="#00BFA6"/>
<path d="M145.498 272.403H90.1204C89.5482 272.403 88.9994 272.176 88.5948 271.772C88.1902 271.368 87.9629 270.819 87.9629 270.248C87.9629 269.676 88.1902 269.128 88.5948 268.723C88.9994 268.319 89.5482 268.092 90.1204 268.092H145.498C148.28 268.053 148.308 272.442 145.498 272.403Z" fill="#E4E4E4"/>
<path d="M220.097 283.68H90.1204C89.5482 283.68 88.9994 283.453 88.5948 283.048C88.1902 282.644 87.9629 282.096 87.9629 281.524C87.9629 280.952 88.1902 280.404 88.5948 280C88.9994 279.596 89.5482 279.368 90.1204 279.368H220.097C222.879 279.33 222.907 283.719 220.097 283.68Z" fill="#E4E4E4"/>
</g>
<defs>
<clipPath id="clip0_279_3756">
<rect width="484" height="322" fill="white"/>
</clipPath>
</defs>
</svg>
