<svg width="461" height="352" viewBox="0 0 461 352" fill="none" xmlns="http://www.w3.org/2000/svg">
<g clip-path="url(#clip0_279_3847)">
<path d="M42.5435 351.45L42.522 351.59C42.4965 351.454 42.4719 351.315 42.4486 351.178C42.4059 350.956 42.3689 350.735 42.334 350.512C40.9497 341.8 41.7115 332.881 44.5533 324.53C45.0996 322.9 45.7217 321.3 46.4198 319.729C49.0894 313.648 52.8738 308.12 57.5778 303.43C59.1051 301.867 60.8477 300.531 62.7529 299.46C63.0326 299.312 63.3139 299.172 63.6014 299.042C65.3634 298.188 67.3471 297.9 69.2793 298.22C69.9812 298.352 70.6614 298.58 71.3007 298.898C71.5249 299.007 71.7408 299.127 71.9525 299.254C73.244 300.101 74.3468 301.205 75.1917 302.498C76.0366 303.79 76.6055 305.243 76.8628 306.765C77.2298 309.036 77.1459 311.357 76.6158 313.596C76.5703 313.81 76.5214 314.023 76.4691 314.235C76.0933 315.727 75.6211 317.193 75.0555 318.624C69.3943 333.186 57.228 346.106 42.5435 351.45Z" fill="#F2F2F2"/>
<path d="M71.2628 298.945C66.8453 305.291 62.6724 311.798 58.7441 318.466C54.8205 325.129 51.1534 331.933 47.743 338.881C45.8351 342.767 44.0107 346.694 42.2697 350.659C42.0769 351.098 42.7272 351.48 42.9224 351.035C46.0317 343.956 49.4059 337.002 53.045 330.172C56.6819 323.349 60.5742 316.67 64.7219 310.136C67.0427 306.48 69.4405 302.875 71.9155 299.321C72.1923 298.923 71.5385 298.549 71.2628 298.945Z" fill="white"/>
<path d="M75.9902 313.634C72.6707 317.947 67.7845 320.778 62.391 321.514C60.8863 321.719 59.3629 321.749 57.8513 321.603C57.3676 321.558 57.3643 322.311 57.8437 322.357C63.4692 322.83 69.0543 321.065 73.3864 317.447C74.6016 316.431 75.6944 315.278 76.6429 314.01C76.9334 313.624 76.2787 313.25 75.9902 313.634V313.634Z" fill="white"/>
<path d="M47.6381 337.03C46.8663 335.931 46.2251 334.746 45.7273 333.498C44.5901 330.655 44.1865 327.571 44.5535 324.53C45.0997 322.9 45.7218 321.3 46.4199 319.729C46.4622 319.791 46.4876 319.863 46.4937 319.938C46.4998 320.012 46.4864 320.087 46.4547 320.155C45.9632 321.333 45.6098 322.564 45.4016 323.823C44.6545 328.314 45.6917 332.919 48.2922 336.656C48.3251 336.697 48.347 336.746 48.3557 336.797C48.3645 336.849 48.3598 336.902 48.3422 336.952C48.3131 337.017 48.2674 337.074 48.2095 337.116C48.1517 337.158 48.0838 337.185 48.0126 337.193C47.9414 337.201 47.8694 337.19 47.8037 337.161C47.7379 337.133 47.6809 337.087 47.6381 337.03V337.03Z" fill="white"/>
<path d="M62.8652 298.983C61.9567 302.602 62.2272 306.417 63.6376 309.872C63.6875 309.958 63.7695 310.022 63.8657 310.048C63.9619 310.074 64.0646 310.061 64.1514 310.012C64.2364 309.961 64.2983 309.879 64.3244 309.784C64.3505 309.688 64.3388 309.586 64.2917 309.499C62.9711 306.22 62.7261 302.608 63.5919 299.181C63.6144 299.086 63.5991 298.986 63.5492 298.902C63.4993 298.818 63.4187 298.757 63.3244 298.731C63.2301 298.705 63.1295 298.717 63.0439 298.764C62.9582 298.811 62.8941 298.89 62.8652 298.983H62.8652Z" fill="white"/>
<path d="M42.451 333.263L42.4967 333.396C42.411 333.288 42.3247 333.176 42.2403 333.066C42.0997 332.889 41.9639 332.71 41.8294 332.529C36.5554 325.457 33.0861 317.205 31.7222 308.49C31.4485 306.793 31.2559 305.087 31.1443 303.372C30.6827 296.747 31.4654 290.093 33.452 283.756C34.0785 281.663 35.0005 279.67 36.1903 277.837C36.3692 277.576 36.553 277.321 36.7474 277.073C37.9107 275.498 39.5338 274.322 41.3934 273.708C42.0762 273.499 42.7847 273.385 43.4988 273.37C43.7479 273.362 43.9947 273.368 44.2415 273.383C45.7786 273.533 47.2682 273.999 48.617 274.751C49.9657 275.503 51.1446 276.525 52.0799 277.754C53.46 279.595 54.4642 281.689 55.035 283.918C55.094 284.128 55.1497 284.339 55.2019 284.552C55.5624 286.047 55.8255 287.565 55.9895 289.095C57.7425 304.62 52.9719 321.711 42.451 333.263Z" fill="#F2F2F2"/>
<path d="M43.486 273.429C42.5229 281.1 41.851 288.801 41.4705 296.53C41.0916 304.252 41.0061 311.981 41.214 319.717C41.3305 324.045 41.5392 328.369 41.8401 332.69C41.8733 333.168 42.6266 333.204 42.5929 332.719C42.057 325.007 41.8136 317.281 41.8627 309.543C41.9131 301.811 42.2567 294.089 42.8937 286.377C43.2502 282.062 43.6986 277.756 44.2389 273.459C44.2992 272.978 43.5462 272.95 43.486 273.429V273.429Z" fill="white"/>
<path d="M54.4978 284.242C53.5621 289.603 50.5506 294.379 46.116 297.535C44.8788 298.416 43.5438 299.15 42.1376 299.723C41.6881 299.907 42.0352 300.576 42.4809 300.394C47.6824 298.2 51.8085 294.044 53.9634 288.828C54.5678 287.364 54.9997 285.835 55.2506 284.272C55.3283 283.795 54.5749 283.768 54.4978 284.242V284.242Z" fill="white"/>
<path d="M40.262 318.127C39.0678 317.512 37.9493 316.76 36.9289 315.887C34.6006 313.897 32.8102 311.353 31.7224 308.49C31.4487 306.793 31.2561 305.087 31.1445 303.372C31.2107 303.407 31.2665 303.459 31.3066 303.522C31.3467 303.585 31.3695 303.658 31.373 303.733C31.4851 305.004 31.7442 306.258 32.1451 307.47C33.5701 311.794 36.6283 315.391 40.6677 317.492C40.7158 317.513 40.7577 317.546 40.7895 317.588C40.8212 317.63 40.8418 317.679 40.8491 317.731C40.8537 317.802 40.8396 317.873 40.808 317.938C40.7765 318.002 40.7286 318.057 40.6693 318.097C40.6099 318.137 40.5411 318.161 40.4696 318.166C40.3982 318.171 40.3266 318.158 40.262 318.127V318.127Z" fill="white"/>
<path d="M36.0688 277.363C36.946 280.99 38.9581 284.242 41.8124 286.647C41.8967 286.7 41.9986 286.718 42.096 286.697C42.1934 286.675 42.2784 286.616 42.3326 286.532C42.384 286.448 42.4008 286.346 42.3795 286.25C42.3582 286.153 42.3003 286.068 42.2181 286.012C39.5254 283.723 37.6298 280.637 36.8045 277.201C36.7802 277.106 36.7201 277.025 36.6369 276.973C36.5537 276.922 36.4538 276.905 36.3584 276.926C36.2629 276.947 36.1794 277.005 36.1253 277.086C36.0713 277.167 36.051 277.267 36.0688 277.363L36.0688 277.363Z" fill="white"/>
<path d="M42.7769 351.543L42.8873 351.631C42.7567 351.585 42.6237 351.538 42.4931 351.49C42.2797 351.417 42.0688 351.339 41.8578 351.259C33.604 348.14 26.2357 343.055 20.3914 336.446C19.2464 335.163 18.165 333.829 17.1473 332.445C13.1892 327.111 10.2645 321.084 8.52443 314.674C7.92467 312.573 7.62791 310.398 7.64314 308.213C7.65319 307.897 7.67072 307.583 7.70088 307.269C7.83247 305.316 8.56678 303.451 9.80261 301.932C10.2653 301.388 10.801 300.911 11.3945 300.514C11.6004 300.373 11.8114 300.245 12.0273 300.125C13.4033 299.424 14.9092 299.014 16.4509 298.921C17.9925 298.829 19.5366 299.056 20.9865 299.588C23.1411 300.395 25.1154 301.619 26.7969 303.19C26.9601 303.335 27.1208 303.484 27.2791 303.634C28.3886 304.7 29.4278 305.837 30.3901 307.038C40.2307 319.175 45.4184 336.145 42.7769 351.543Z" fill="#F2F2F2"/>
<path d="M11.4153 300.57C14.7364 307.552 18.3185 314.402 22.1617 321.12C26.0025 327.83 30.0942 334.389 34.4368 340.795C36.8666 344.379 39.372 347.91 41.9529 351.388C42.2385 351.773 42.8926 351.398 42.6034 351.008C37.9968 344.798 33.6298 338.419 29.5023 331.873C25.3798 325.331 21.5095 318.64 17.8913 311.799C15.8673 307.971 13.9254 304.101 12.0657 300.19C11.8577 299.753 11.208 300.134 11.4153 300.57Z" fill="white"/>
<path d="M26.5199 303.752C28.6195 308.773 28.655 314.419 26.6187 319.465C26.0505 320.873 25.3212 322.211 24.4451 323.451C24.1655 323.848 24.8184 324.225 25.0956 323.831C28.2966 319.182 29.5342 313.459 28.5398 307.903C28.2606 306.345 27.8011 304.824 27.1703 303.372C26.9788 302.928 26.3296 303.311 26.5199 303.752Z" fill="white"/>
<path d="M32.7774 339.968C31.4399 340.093 30.0925 340.062 28.7623 339.875C25.7283 339.452 22.8495 338.273 20.3907 336.446C19.2456 335.163 18.1642 333.83 17.1465 332.445C17.2211 332.439 17.296 332.452 17.3638 332.484C17.4316 332.516 17.49 332.564 17.5332 332.626C18.3127 333.637 19.2067 334.554 20.1973 335.359C23.7273 338.235 28.2415 339.619 32.7774 339.215C32.8291 339.207 32.8822 339.212 32.9314 339.23C32.9806 339.248 33.0244 339.278 33.0585 339.318C33.1009 339.376 33.1275 339.443 33.1355 339.515C33.1436 339.586 33.1329 339.658 33.1045 339.724C33.076 339.789 33.0309 339.846 32.9735 339.889C32.9161 339.932 32.8485 339.959 32.7774 339.968V339.968Z" fill="white"/>
<path d="M7.28415 307.879C9.9772 310.462 13.4248 312.12 17.1252 312.609C17.3286 312.636 17.4999 312.417 17.5018 312.232C17.4995 312.133 17.4591 312.039 17.3889 311.969C17.3188 311.899 17.2244 311.858 17.1252 311.856C13.6229 311.376 10.3634 309.797 7.81682 307.346C7.46767 307.01 6.9343 307.541 7.28413 307.879H7.28415Z" fill="white"/>
<path d="M94.1934 252.219C94.929 251.715 95.5451 251.055 95.9983 250.287C96.4515 249.519 96.7308 248.661 96.8164 247.774C96.9021 246.886 96.792 245.991 96.494 245.151C96.196 244.31 95.7174 243.545 95.0917 242.91L97.4583 190.1L85.4099 191.452L86.1099 243.107C85.1117 244.229 84.5598 245.678 84.5586 247.179C84.5574 248.68 85.1071 250.129 86.1035 251.252C87.0999 252.376 88.4738 253.094 89.9648 253.272C91.4558 253.45 92.9604 253.076 94.1934 252.219V252.219Z" fill="#FFB8B8"/>
<path d="M116.172 341.615L123.029 342.82L129.807 316.952L120.822 315.173L116.172 341.615Z" fill="#FFB8B8"/>
<path d="M135.135 351.51L113.584 347.722L115.047 339.398L128.272 341.722C129.365 341.914 130.41 342.32 131.347 342.916C132.284 343.512 133.094 344.286 133.731 345.195C134.368 346.104 134.82 347.129 135.061 348.213C135.302 349.296 135.327 350.417 135.135 351.51V351.51V351.51Z" fill="#2F2E41"/>
<path d="M97.3507 345.046L104.313 345.046L107.625 318.198L97.3496 318.199L97.3507 345.046Z" fill="#FFB8B8"/>
<path d="M117.74 351.509L95.8585 351.51L95.8582 343.058L109.286 343.057C111.528 343.057 113.678 343.948 115.264 345.533C116.849 347.117 117.74 349.267 117.74 351.509V351.509L117.74 351.509Z" fill="#2F2E41"/>
<path d="M126.968 337.694C126.859 337.694 126.751 337.688 126.643 337.675L118.448 337.001C118.075 336.957 117.715 336.838 117.389 336.65C117.063 336.463 116.779 336.212 116.554 335.911C116.329 335.61 116.167 335.267 116.078 334.902C115.99 334.537 115.976 334.158 116.039 333.788L123.606 291.388L118.493 264.435C118.451 264.216 118.331 264.02 118.156 263.882C117.981 263.744 117.762 263.674 117.539 263.685C117.316 263.697 117.105 263.788 116.944 263.942C116.784 264.097 116.684 264.304 116.664 264.526L110.272 336.418C110.202 337.139 109.854 337.805 109.302 338.275C108.75 338.745 108.037 338.983 107.314 338.937L99.5933 338.65C98.9167 338.602 98.2811 338.308 97.8064 337.823C97.3318 337.339 97.051 336.698 97.017 336.02L96.498 249.856L136.524 244.854L139.321 288.025L139.309 288.071L129.66 335.577C129.513 336.18 129.168 336.717 128.68 337.101C128.192 337.485 127.589 337.694 126.968 337.694V337.694Z" fill="#1B67A5"/>
<path d="M109.694 155.878C117.398 155.878 123.643 149.635 123.643 141.934C123.643 134.232 117.398 127.989 109.694 127.989C101.991 127.989 95.7461 134.232 95.7461 141.934C95.7461 149.635 101.991 155.878 109.694 155.878Z" fill="#FFB8B8"/>
<path d="M122.837 256.153C120.656 256.166 118.516 255.554 116.672 254.39C109.915 250.168 102.241 251.846 98.2679 253.222C97.8736 253.36 97.4533 253.407 97.0382 253.36C96.6231 253.313 96.2242 253.172 95.8711 252.949C95.522 252.73 95.227 252.435 95.0083 252.086C94.7895 251.736 94.6526 251.342 94.6078 250.933L87.3827 186.423C86.1719 175.614 92.6845 165.452 102.868 162.26C103.251 162.14 103.64 162.026 104.035 161.919C107.204 161.06 110.523 160.905 113.758 161.467C116.993 162.028 120.066 163.291 122.76 165.167C125.504 167.064 127.799 169.54 129.484 172.419C131.168 175.298 132.201 178.511 132.509 181.832L138.592 246.775C138.633 247.195 138.576 247.62 138.426 248.014C138.275 248.409 138.035 248.764 137.724 249.05C135.592 251.022 129.404 256.153 122.837 256.153Z" fill="#00BFA6"/>
<path d="M100.837 200.256L84.5366 198.464C84.0728 198.413 83.6254 198.263 83.225 198.024C82.8245 197.784 82.4804 197.461 82.216 197.077C81.9517 196.693 81.7732 196.256 81.693 195.796C81.6127 195.337 81.6324 194.865 81.7508 194.414L85.8999 178.605C86.1743 176.234 87.3779 174.069 89.2467 172.584C91.1156 171.099 93.4972 170.415 95.8694 170.683C98.2416 170.951 100.411 172.148 101.901 174.012C103.392 175.876 104.082 178.255 103.821 180.628L104.437 196.908C104.454 197.374 104.371 197.838 104.193 198.27C104.015 198.701 103.746 199.088 103.404 199.406C103.062 199.724 102.656 199.964 102.213 200.111C101.77 200.258 101.301 200.307 100.837 200.256V200.256Z" fill="#00BFA6"/>
<path d="M138.528 249.957C139.197 249.368 139.729 248.639 140.087 247.822C140.444 247.006 140.618 246.12 140.596 245.229C140.574 244.337 140.357 243.462 139.959 242.663C139.562 241.865 138.995 241.163 138.297 240.608L134.28 187.897L122.475 190.554L129.405 241.886C128.549 243.12 128.176 244.624 128.355 246.115C128.535 247.605 129.256 248.978 130.38 249.973C131.505 250.968 132.955 251.515 134.457 251.513C135.958 251.51 137.407 250.956 138.528 249.957V249.957Z" fill="#FFB8B8"/>
<path d="M117.947 196.943C117.605 196.625 117.336 196.238 117.158 195.807C116.98 195.376 116.897 194.911 116.914 194.445L117.53 178.165C117.269 175.793 117.959 173.414 119.45 171.549C120.94 169.685 123.11 168.488 125.482 168.22C127.854 167.952 130.236 168.636 132.105 170.121C133.973 171.606 135.177 173.771 135.451 176.142L139.6 191.951C139.719 192.403 139.739 192.874 139.658 193.334C139.578 193.793 139.4 194.23 139.135 194.614C138.871 194.999 138.527 195.321 138.126 195.561C137.726 195.8 137.278 195.951 136.815 196.002L120.514 197.793C120.05 197.845 119.581 197.795 119.138 197.648C118.695 197.502 118.289 197.261 117.947 196.943V196.943Z" fill="#00BFA6"/>
<path d="M108.865 156.403C108.617 156.403 108.37 156.374 108.129 156.317L108.058 156.3C95.7945 154.425 93.0843 147.323 92.4894 144.358C91.8737 141.287 92.5748 138.323 94.1591 137.172C93.2954 134.446 93.434 132.028 94.5722 129.984C96.5572 126.418 100.865 125.212 101.443 125.065C104.883 122.528 109 124.221 109.749 124.565C116.404 122.103 118.947 124.152 119.407 124.61C122.382 125.144 124.195 126.293 124.797 128.025C125.928 131.279 122.352 135.326 122.199 135.497L122.12 135.585L116.793 135.839C116.288 135.863 115.793 135.993 115.341 136.221C114.889 136.448 114.49 136.768 114.17 137.16C113.849 137.552 113.615 138.006 113.482 138.494C113.349 138.983 113.319 139.493 113.396 139.993V139.993C113.541 140.638 113.723 141.274 113.942 141.898C114.852 144.741 115.533 147.169 114.654 148.092C114.455 148.27 114.209 148.389 113.946 148.435C113.682 148.481 113.411 148.451 113.163 148.35C112.33 148.128 111.765 148.174 111.483 148.489C111.046 148.977 111.179 150.212 111.859 151.967C112.072 152.522 112.13 153.124 112.025 153.709C111.92 154.295 111.658 154.84 111.265 155.286C110.97 155.635 110.602 155.915 110.188 156.108C109.773 156.301 109.322 156.402 108.865 156.403Z" fill="#2F2E41"/>
<path d="M273.593 200.98H204.877C202.317 200.978 199.863 199.96 198.054 198.15C196.244 196.341 195.226 193.888 195.223 191.329V88.0955C195.226 85.5366 196.244 83.0833 198.054 81.2739C199.863 79.4645 202.317 78.4467 204.877 78.4438H273.593C276.153 78.4467 278.607 79.4645 280.417 81.2739C282.227 83.0833 283.245 85.5366 283.247 88.0955V191.329C283.245 193.888 282.227 196.341 280.417 198.15C278.607 199.96 276.153 200.978 273.593 200.98V200.98ZM204.877 79.5793C202.619 79.5819 200.453 80.4799 198.856 82.0765C197.259 83.673 196.361 85.8376 196.358 88.0955V191.329C196.361 193.587 197.259 195.751 198.856 197.348C200.453 198.944 202.619 199.842 204.877 199.845H273.593C275.852 199.842 278.017 198.944 279.614 197.348C281.211 195.751 282.109 193.587 282.112 191.329V88.0955C282.109 85.8376 281.211 83.673 279.614 82.0765C278.017 80.4799 275.852 79.5819 273.593 79.5793H204.877Z" fill="#3F3D56"/>
<path d="M263.086 128.074H215.382C214.102 128.072 212.875 127.563 211.97 126.659C211.065 125.754 210.556 124.527 210.555 123.248V100.538C210.556 99.2588 211.065 98.0321 211.97 97.1274C212.875 96.2227 214.102 95.7138 215.382 95.7124H263.086C264.365 95.7139 265.592 96.2228 266.497 97.1275C267.402 98.0322 267.911 99.2588 267.913 100.538V123.248C267.911 124.527 267.402 125.754 266.497 126.659C265.592 127.563 264.365 128.072 263.086 128.074Z" fill="#00BFA6"/>
<path d="M259.678 149.364H218.789C217.584 149.364 216.429 148.886 215.577 148.034C214.725 147.182 214.246 146.027 214.246 144.822C214.246 143.618 214.725 142.462 215.577 141.611C216.429 140.759 217.584 140.28 218.789 140.28H259.678C260.883 140.28 262.039 140.759 262.891 141.611C263.743 142.462 264.221 143.618 264.221 144.822C264.221 146.027 263.743 147.182 262.891 148.034C262.039 148.886 260.883 149.364 259.678 149.364Z" fill="#CCCCCC"/>
<path d="M259.678 166.396H218.789C217.584 166.396 216.429 165.918 215.577 165.066C214.725 164.214 214.246 163.059 214.246 161.854C214.246 160.65 214.725 159.495 215.577 158.643C216.429 157.791 217.584 157.312 218.789 157.312H259.678C260.883 157.312 262.039 157.791 262.891 158.643C263.743 159.495 264.221 160.65 264.221 161.854C264.221 163.059 263.743 164.214 262.891 165.066C262.039 165.918 260.883 166.396 259.678 166.396Z" fill="#CCCCCC"/>
<path d="M259.678 183.429H218.789C217.584 183.429 216.429 182.95 215.577 182.098C214.725 181.247 214.246 180.091 214.246 178.887C214.246 177.682 214.725 176.527 215.577 175.675C216.429 174.823 217.584 174.345 218.789 174.345H259.678C260.883 174.345 262.039 174.823 262.891 175.675C263.743 176.527 264.221 177.682 264.221 178.887C264.221 180.091 263.743 181.247 262.891 182.098C262.039 182.95 260.883 183.429 259.678 183.429Z" fill="#CCCCCC"/>
<path d="M441.124 258.89H372.408C369.849 258.887 367.395 257.869 365.585 256.06C363.775 254.251 362.757 251.797 362.754 249.239V146.005C362.757 143.446 363.775 140.993 365.585 139.184C367.395 137.374 369.849 136.356 372.408 136.354H441.124C443.684 136.356 446.138 137.374 447.948 139.184C449.758 140.993 450.776 143.446 450.779 146.005V249.239C450.776 251.797 449.758 254.251 447.948 256.06C446.138 257.869 443.684 258.887 441.124 258.89ZM372.408 137.489C370.15 137.492 367.985 138.39 366.388 139.986C364.791 141.583 363.892 143.747 363.89 146.005V249.239C363.892 251.496 364.791 253.661 366.388 255.258C367.985 256.854 370.15 257.752 372.408 257.755H441.124C443.383 257.752 445.548 256.854 447.145 255.258C448.742 253.661 449.64 251.496 449.643 249.239V146.005C449.64 143.747 448.742 141.583 447.145 139.986C445.548 138.39 443.383 137.492 441.124 137.489H372.408Z" fill="#3F3D56"/>
<path d="M427.21 161.854H386.321C385.116 161.854 383.96 161.376 383.108 160.524C382.256 159.672 381.777 158.517 381.777 157.312C381.777 156.108 382.256 154.953 383.108 154.101C383.96 153.249 385.116 152.771 386.321 152.771H427.21C428.414 152.771 429.57 153.249 430.422 154.101C431.274 154.953 431.753 156.108 431.753 157.312C431.753 158.517 431.274 159.672 430.422 160.524C429.57 161.376 428.414 161.854 427.21 161.854Z" fill="#CCCCCC"/>
<path d="M427.21 178.887H386.321C385.116 178.887 383.96 178.408 383.108 177.556C382.256 176.705 381.777 175.549 381.777 174.345C381.777 173.14 382.256 171.985 383.108 171.133C383.96 170.281 385.116 169.803 386.321 169.803H427.21C428.414 169.803 429.57 170.281 430.422 171.133C431.274 171.985 431.753 173.14 431.753 174.345C431.753 175.549 431.274 176.705 430.422 177.556C429.57 178.408 428.414 178.887 427.21 178.887Z" fill="#CCCCCC"/>
<path d="M430.617 222.319H382.913C381.633 222.317 380.406 221.808 379.501 220.904C378.597 219.999 378.087 218.772 378.086 217.493V194.783C378.087 193.504 378.597 192.277 379.501 191.373C380.406 190.468 381.633 189.959 382.913 189.958H430.617C431.897 189.959 433.124 190.468 434.029 191.373C434.933 192.277 435.443 193.504 435.444 194.783V217.493C435.443 218.772 434.933 219.999 434.029 220.904C433.124 221.808 431.897 222.317 430.617 222.319V222.319Z" fill="#E6E6E6"/>
<path d="M427.21 242.474H386.321C385.116 242.474 383.96 241.995 383.108 241.143C382.256 240.291 381.777 239.136 381.777 237.932C381.777 236.727 382.256 235.572 383.108 234.72C383.96 233.868 385.116 233.39 386.321 233.39H427.21C428.414 233.39 429.57 233.868 430.422 234.72C431.274 235.572 431.753 236.727 431.753 237.932C431.753 239.136 431.274 240.291 430.422 241.143C429.57 241.995 428.414 242.474 427.21 242.474Z" fill="#CCCCCC"/>
<path d="M399.099 94.8126H330.383C327.823 94.8097 325.369 93.7919 323.559 91.9825C321.749 90.1731 320.731 87.7199 320.729 85.161V21.1018C320.731 18.5429 321.749 16.0897 323.559 14.2803C325.369 12.4709 327.823 11.4531 330.383 11.4502H399.099C401.659 11.4531 404.113 12.4709 405.922 14.2803C407.732 16.0897 408.75 18.5429 408.753 21.1018V85.161C408.75 87.7199 407.732 90.1731 405.922 91.9825C404.113 93.7919 401.659 94.8097 399.099 94.8126V94.8126ZM330.383 12.5857C328.124 12.5882 325.959 13.4863 324.362 15.0828C322.765 16.6794 321.867 18.844 321.864 21.1018V85.161C321.867 87.4188 322.765 89.5835 324.362 91.18C325.959 92.7765 328.124 93.6746 330.383 93.6771H399.099C401.357 93.6746 403.523 92.7765 405.12 91.18C406.717 89.5835 407.615 87.4188 407.618 85.161V21.1018C407.615 18.844 406.717 16.6794 405.12 15.0828C403.523 13.4863 401.357 12.5882 399.099 12.5857H330.383Z" fill="#3F3D56"/>
<path d="M385.186 74.7059H344.297C343.092 74.7059 341.937 74.2274 341.085 73.3756C340.233 72.5239 339.754 71.3686 339.754 70.164C339.754 68.9594 340.233 67.8042 341.085 66.9524C341.937 66.1006 343.092 65.6221 344.297 65.6221H385.186C386.391 65.6221 387.547 66.1006 388.399 66.9524C389.251 67.8042 389.729 68.9594 389.729 70.164C389.729 71.3686 389.251 72.5239 388.399 73.3756C387.547 74.2274 386.391 74.7059 385.186 74.7059Z" fill="#CCCCCC"/>
<path d="M385.186 57.6737H344.297C343.092 57.6737 341.937 57.1952 341.085 56.3434C340.233 55.4916 339.754 54.3364 339.754 53.1318C339.754 51.9272 340.233 50.7719 341.085 49.9202C341.937 49.0684 343.092 48.5898 344.297 48.5898H385.186C386.391 48.5898 387.547 49.0684 388.399 49.9202C389.251 50.7719 389.729 51.9272 389.729 53.1318C389.729 54.3364 389.251 55.4916 388.399 56.3434C387.547 57.1952 386.391 57.6737 385.186 57.6737Z" fill="#CCCCCC"/>
<path d="M385.186 40.6415H344.297C343.092 40.6415 341.937 40.163 341.085 39.3112C340.233 38.4594 339.754 37.3041 339.754 36.0996C339.754 34.895 340.233 33.7397 341.085 32.8879C341.937 32.0361 343.092 31.5576 344.297 31.5576H385.186C386.391 31.5576 387.547 32.0361 388.399 32.8879C389.251 33.7397 389.729 34.895 389.729 36.0996C389.729 37.3041 389.251 38.4594 388.399 39.3112C387.547 40.163 386.391 40.6415 385.186 40.6415Z" fill="#CCCCCC"/>
<path d="M277.568 94.245C284.781 94.245 290.629 88.3987 290.629 81.187C290.629 73.9752 284.781 68.1289 277.568 68.1289C270.354 68.1289 264.506 73.9752 264.506 81.187C264.506 88.3987 270.354 94.245 277.568 94.245Z" fill="#00BFA6"/>
<path d="M276.273 86.1684C275.98 86.169 275.693 86.074 275.458 85.8977L275.444 85.8868L272.374 83.5373C272.231 83.4286 272.111 83.2929 272.021 83.1378C271.931 82.9827 271.872 82.8113 271.848 82.6334C271.824 82.4556 271.836 82.2748 271.882 82.1014C271.928 81.928 272.008 81.7654 272.117 81.6229C272.226 81.4805 272.363 81.361 272.518 81.2713C272.673 81.1816 272.845 81.1235 273.023 81.1002C273.201 81.077 273.382 81.0891 273.555 81.1359C273.729 81.1827 273.891 81.2632 274.033 81.3728L276.021 82.897L280.72 76.7711C280.829 76.629 280.965 76.5098 281.12 76.4202C281.275 76.3306 281.446 76.2725 281.623 76.249C281.801 76.2256 281.981 76.2374 282.154 76.2836C282.327 76.3299 282.49 76.4098 282.632 76.5188L282.603 76.5584L282.633 76.5194C282.919 76.7396 283.107 77.0646 283.154 77.4229C283.201 77.7813 283.105 78.1438 282.885 78.4309L277.358 85.6363C277.231 85.8024 277.066 85.9368 276.878 86.029C276.69 86.1213 276.483 86.169 276.273 86.1684V86.1684Z" fill="white"/>
<path d="M447.939 152.723C455.153 152.723 461 146.876 461 139.665C461 132.453 455.153 126.606 447.939 126.606C440.725 126.606 434.877 132.453 434.877 139.665C434.877 146.876 440.725 152.723 447.939 152.723Z" fill="#3F3D56"/>
<path d="M446.644 144.646C446.351 144.647 446.065 144.552 445.829 144.375L445.815 144.364L442.745 142.015C442.602 141.906 442.482 141.77 442.392 141.615C442.302 141.46 442.243 141.289 442.219 141.111C442.195 140.933 442.207 140.752 442.253 140.579C442.299 140.406 442.379 140.243 442.488 140.1C442.597 139.958 442.734 139.839 442.889 139.749C443.045 139.659 443.216 139.601 443.394 139.578C443.572 139.555 443.753 139.567 443.926 139.613C444.1 139.66 444.262 139.741 444.404 139.85L446.392 141.375L451.091 135.249C451.2 135.107 451.336 134.987 451.491 134.898C451.646 134.808 451.817 134.75 451.995 134.727C452.172 134.703 452.353 134.715 452.526 134.761C452.699 134.807 452.861 134.887 453.003 134.996L452.974 135.036L453.004 134.997C453.29 135.217 453.478 135.542 453.525 135.9C453.573 136.259 453.476 136.621 453.256 136.908L447.729 144.114C447.602 144.28 447.437 144.414 447.249 144.507C447.061 144.599 446.854 144.647 446.644 144.646Z" fill="white"/>
<path d="M406.482 26.1161C413.695 26.1161 419.543 20.2698 419.543 13.0581C419.543 5.84629 413.695 0 406.482 0C399.268 0 393.42 5.84629 393.42 13.0581C393.42 20.2698 399.268 26.1161 406.482 26.1161Z" fill="#3F3D56"/>
<path d="M405.187 18.0395C404.894 18.0401 404.607 17.9451 404.372 17.7689L404.358 17.7579L401.288 15.4084C401.145 15.2997 401.025 15.164 400.935 15.0089C400.845 14.8538 400.786 14.6824 400.762 14.5045C400.738 14.3267 400.75 14.1459 400.796 13.9725C400.842 13.7991 400.922 13.6365 401.031 13.494C401.14 13.3516 401.277 13.2321 401.432 13.1424C401.588 13.0527 401.759 12.9946 401.937 12.9713C402.115 12.9481 402.296 12.9602 402.469 13.007C402.643 13.0538 402.805 13.1343 402.947 13.2439L404.935 14.7681L409.634 8.64219C409.743 8.50011 409.879 8.38087 410.034 8.2913C410.189 8.20172 410.36 8.14356 410.538 8.12012C410.715 8.09669 410.896 8.10845 411.069 8.15473C411.242 8.20102 411.404 8.28092 411.546 8.38987L411.517 8.42952L411.547 8.39044C411.833 8.61071 412.021 8.93567 412.068 9.29402C412.116 9.65237 412.019 10.0149 411.799 10.3019L406.272 17.5074C406.145 17.6735 405.98 17.8078 405.792 17.9001C405.604 17.9924 405.397 18.0401 405.187 18.0395Z" fill="white"/>
<path d="M216.939 352H0.567902C0.417285 352 0.272836 351.94 0.166334 351.834C0.0598319 351.727 0 351.583 0 351.432C0 351.282 0.0598319 351.138 0.166334 351.031C0.272836 350.925 0.417285 350.865 0.567902 350.865H216.939C217.089 350.865 217.234 350.925 217.34 351.031C217.447 351.138 217.506 351.282 217.506 351.432C217.506 351.583 217.447 351.727 217.34 351.834C217.234 351.94 217.089 352 216.939 352Z" fill="#3F3D56"/>
</g>
<defs>
<clipPath id="clip0_279_3847">
<rect width="461" height="352" fill="white"/>
</clipPath>
</defs>
</svg>
