<svg width="340" height="327" viewBox="0 0 340 327" fill="none" xmlns="http://www.w3.org/2000/svg">
<g clip-path="url(#clip0_279_3809)">
<path d="M15.9761 251.145C18.4742 225.617 33.5727 200.135 57.5961 191.222C48.7189 217.661 49.4692 246.393 59.7143 272.332C63.7015 282.321 69.1753 293.016 65.9365 303.273C63.9215 309.656 58.7148 314.634 52.8328 317.816C46.9504 320.998 40.3723 322.612 33.8762 324.196L32.6182 325.295C21.6367 302.12 13.4781 276.673 15.9761 251.145Z" fill="#F0F0F0"/>
<path d="M57.848 191.697C44.284 207.725 35.7468 228.196 34.2542 249.181C33.9315 253.718 33.9985 258.349 35.1028 262.784C36.2124 267.099 38.4557 271.037 41.5998 274.19C44.4724 277.189 47.7576 279.923 49.852 283.569C52.0596 287.412 52.2559 291.838 50.9219 296.016C49.2897 301.128 45.9202 305.347 42.4819 309.359C38.6644 313.814 34.6286 318.38 33.108 324.193C32.9237 324.897 31.8429 324.57 32.0268 323.867C34.6726 313.753 44.2568 307.797 48.6628 298.635C50.7188 294.36 51.5003 289.439 49.3539 285.039C47.477 281.191 44.0917 278.368 41.1569 275.357C38.0754 272.195 35.6848 268.7 34.3892 264.441C33.0639 260.085 32.8159 255.447 33.0213 250.922C33.5636 240.663 35.7136 230.554 39.3926 220.964C43.5307 209.996 49.5125 199.818 57.079 190.869C57.5475 190.315 58.3135 191.147 57.848 191.697L57.848 191.697Z" fill="white"/>
<path d="M34.3804 242.334C30.8703 241.577 27.7431 239.596 25.5574 236.744C23.3717 233.892 22.2698 230.355 22.4484 226.765C22.4571 226.618 22.5221 226.481 22.6298 226.382C22.7376 226.283 22.8796 226.229 23.026 226.233C23.1724 226.236 23.3117 226.296 23.4146 226.401C23.5175 226.505 23.5759 226.645 23.5776 226.792C23.4051 230.135 24.4318 233.429 26.4726 236.081C28.5133 238.733 31.4336 240.567 34.7064 241.252C35.4174 241.402 35.0874 242.483 34.3804 242.334V242.334Z" fill="white"/>
<path d="M39.9437 272.861C46.1455 268.931 50.6397 262.805 52.5303 255.704C52.717 255.001 53.7979 255.328 53.6114 256.031C51.6303 263.416 46.9404 269.782 40.4777 273.857C39.8615 274.245 39.3308 273.247 39.9437 272.861Z" fill="white"/>
<path d="M44.6061 211.039C45.9033 211.615 47.3231 211.86 48.7381 211.751C50.153 211.642 51.5188 211.183 52.7127 210.415C53.3237 210.019 53.8537 211.018 53.2467 211.411C51.9236 212.253 50.4147 212.758 48.8517 212.882C47.2886 213.006 45.7191 212.745 44.2801 212.122C44.1396 212.074 44.0223 211.975 43.9522 211.844C43.8821 211.713 43.8643 211.561 43.9026 211.417C43.9464 211.274 44.0449 211.154 44.1767 211.083C44.3084 211.013 44.4627 210.997 44.6061 211.039H44.6061Z" fill="white"/>
<path d="M132.664 234.742C132.289 235 131.915 235.257 131.54 235.525C126.523 239.019 121.797 242.915 117.41 247.175C117.066 247.499 116.722 247.833 116.387 248.166C105.927 258.542 97.4824 270.772 91.4819 284.235C89.0991 289.594 87.127 295.127 85.5827 300.786C83.4503 308.601 81.7595 317.245 77.304 323.708C76.8467 324.388 76.3479 325.038 75.8103 325.656L34.0539 326.746C33.9578 326.701 33.8614 326.665 33.7648 326.62L32.0996 326.74C32.1589 326.442 32.2268 326.135 32.2861 325.838C32.3197 325.665 32.3627 325.492 32.3964 325.319C32.4218 325.204 32.4477 325.089 32.464 324.984C32.4723 324.945 32.4811 324.907 32.4896 324.878C32.506 324.773 32.5323 324.676 32.5489 324.581C32.9236 322.862 33.3109 321.144 33.711 319.425C33.7108 319.415 33.7108 319.415 33.7198 319.406C36.8017 306.316 41.0022 293.369 47.032 281.472C47.2135 281.115 47.3943 280.747 47.5949 280.389C50.3426 275.041 53.5222 269.928 57.102 265.099C59.0707 262.461 61.1715 259.925 63.3964 257.5C69.1571 251.244 75.8648 245.935 83.2734 241.767C98.0437 233.46 115.303 229.974 131.435 234.392C131.847 234.505 132.251 234.619 132.664 234.742Z" fill="#F0F0F0"/>
<path d="M132.583 235.274C112.114 239.896 92.9873 251.095 79.1753 266.951C76.1891 270.379 73.4579 274.117 71.6726 278.323C69.9639 282.437 69.3866 286.934 70.0008 291.347C70.491 295.472 71.4696 299.636 70.9494 303.809C70.4011 308.208 67.8959 311.861 64.3183 314.393C59.941 317.49 54.7131 318.828 49.5552 319.959C43.8283 321.215 37.86 322.428 33.15 326.153C32.5794 326.604 31.9133 325.691 32.4831 325.24C40.6776 318.76 51.9116 319.782 60.9393 315.122C65.1519 312.948 68.7354 309.49 69.6678 304.683C70.4831 300.479 69.4776 296.185 68.9453 292.012C68.3863 287.63 68.5793 283.398 70.106 279.217C71.6678 274.939 74.2588 271.087 77.1443 267.597C83.7464 259.733 91.5426 252.958 100.247 247.518C110.147 241.255 121.044 236.734 132.467 234.15C133.174 233.99 133.286 235.116 132.583 235.274H132.583Z" fill="white"/>
<path d="M83.3944 261.56C81.0469 258.84 79.7415 255.373 79.7115 251.778C79.6814 248.184 80.9286 244.696 83.2304 241.937C83.698 241.38 84.584 242.081 84.1157 242.639C81.9676 245.204 80.8062 248.453 80.841 251.801C80.8758 255.148 82.1046 258.372 84.3056 260.892C84.7832 261.44 83.8693 262.105 83.3944 261.56V261.56Z" fill="white"/>
<path d="M69.4766 289.288C76.792 289.888 84.0645 287.705 89.844 283.175C90.4163 282.726 91.0825 283.639 90.511 284.088C84.4879 288.79 76.9151 291.046 69.3039 290.405C68.5785 290.343 68.7551 289.226 69.4766 289.288H69.4766Z" fill="white"/>
<path d="M110.378 242.737C111.068 243.979 112.054 245.03 113.249 245.795C114.445 246.561 115.811 247.018 117.226 247.124C117.952 247.177 117.775 248.294 117.054 248.242C115.491 248.117 113.982 247.611 112.66 246.767C111.337 245.924 110.241 244.769 109.467 243.404C109.383 243.282 109.349 243.132 109.372 242.985C109.395 242.838 109.472 242.706 109.589 242.614C109.71 242.527 109.861 242.49 110.009 242.513C110.157 242.536 110.289 242.616 110.378 242.737V242.737Z" fill="white"/>
<path d="M209.854 101.432C209.854 101.432 202.406 132.916 211.509 132.916C220.612 132.916 242.129 97.2896 242.129 97.2896L234.681 88.1758L221.312 106.758L220.612 97.2896L209.854 101.432Z" fill="#A0616A"/>
<path d="M240.144 98.6584C244.146 98.6584 247.39 95.4106 247.39 91.4042C247.39 87.3977 244.146 84.1499 240.144 84.1499C236.143 84.1499 232.898 87.3977 232.898 91.4042C232.898 95.4106 236.143 98.6584 240.144 98.6584Z" fill="#A0616A"/>
<path d="M203.539 315.866L213.184 315.866L217.773 278.62L203.537 278.621L203.539 315.866Z" fill="#A0616A"/>
<path d="M203.2 325.94L232.859 325.939V325.563C232.859 322.498 231.643 319.558 229.478 317.391C227.313 315.223 224.377 314.006 221.315 314.006H221.314L215.897 309.891L205.788 314.006L203.199 314.006L203.2 325.94Z" fill="#2F2E41"/>
<path d="M99.793 303.819L108.423 308.131L129.142 276.856L116.404 270.493L99.793 303.819Z" fill="#A0616A"/>
<path d="M94.9941 312.68L121.533 325.939L121.7 325.603C123.067 322.861 123.29 319.687 122.32 316.779C121.349 313.872 119.265 311.47 116.526 310.101L116.525 310.101L113.513 303.997L102.633 303.16L100.317 302.002L94.9941 312.68Z" fill="#2F2E41"/>
<path d="M317.621 325.976H0V327.226H317.621V325.976Z" fill="#CCCCCC"/>
<path d="M141.182 158.549C141.182 158.549 137.328 204.948 136.5 214.89C135.933 221.122 134.541 227.252 132.362 233.118C132.362 233.118 130.707 236.432 130.707 239.746L111.949 273.877C111.949 273.877 106.216 278.095 107.044 281.409C107.871 284.723 103.588 286.711 103.588 286.711L123.342 290.523C123.342 290.523 122.515 288.037 124.997 287.209C127.48 286.38 129.456 279.194 129.456 279.194L157.189 233.946L177.051 192.52C177.051 192.52 188.637 229.804 191.12 233.946C191.12 233.946 200.223 280.344 201.878 284.487C203.534 288.629 204.361 288.629 203.534 290.286C202.706 291.943 202.706 293.6 203.534 294.429C204.361 295.258 220.085 294.429 220.085 294.429L215.947 235.603L208.499 165.178L170.431 153.579L141.182 158.549Z" fill="#00BFA6"/>
<path d="M178.453 47.7842C188.052 47.7842 195.832 39.9943 195.832 30.385C195.832 20.7757 188.052 12.9858 178.453 12.9858C168.855 12.9858 161.074 20.7757 161.074 30.385C161.074 39.9943 168.855 47.7842 178.453 47.7842Z" fill="#A0616A"/>
<path d="M210.155 73.2114L189.466 60.6623C189.466 60.6623 188.893 52.8697 182.998 52.503C180.039 52.3189 175.598 52.0374 168.933 51.6072C167.524 51.5163 166.574 59.2311 164.96 59.1264L143.121 64.9261L146.432 121.266C146.432 121.266 141.466 143.637 143.121 147.779C144.776 151.922 138.983 153.579 140.639 154.407C142.294 155.236 140.639 161.036 140.639 161.036C140.639 161.036 172.914 177.606 208.5 165.178L205.19 154.407C205.64 152.999 205.725 151.5 205.435 150.05C205.145 148.6 204.491 147.248 203.534 146.122C203.534 146.122 206.845 141.151 202.707 137.008C202.707 137.008 204.362 129.552 200.224 126.237L199.396 114.638L201.879 108.838L210.155 73.2114Z" fill="#1B67A5"/>
<path d="M163.372 40.3248L162.887 39.1951C162.824 39.0491 156.678 24.503 162.126 15.5305C164.648 11.3767 169.233 9.03152 175.755 8.56069C185.959 7.82202 192.942 10.2453 196.517 15.7583C197.117 16.6926 197.454 17.7714 197.493 18.8812C197.532 19.9909 197.271 21.0907 196.739 22.0649C196.207 23.0391 195.422 23.8517 194.467 24.4172C193.513 24.9827 192.423 25.2803 191.314 25.2787H191.177L189.302 22.8414L189.193 23.0785C188.514 24.5487 186.955 25.3536 185.13 25.1773C184.819 25.155 184.544 25.4234 184.323 25.9977C184.249 26.249 184.108 26.4756 183.916 26.6537C183.724 26.8318 183.488 26.9549 183.232 27.01C181.883 27.2729 179.96 25.5716 179.099 24.7237C179.066 24.9188 178.991 25.1046 178.88 25.2683C178.769 25.4321 178.624 25.5701 178.455 25.673C177.548 26.1969 176.136 25.5125 175.731 25.2945C172.503 25.9811 170.413 25.7975 169.518 24.7493C168.911 29.0481 167.609 36.7857 166.047 37.2146C165.883 37.2521 165.712 37.2362 165.559 37.169C165.406 37.1018 165.278 36.987 165.194 36.8415C164.818 36.3527 164.482 36.1091 164.272 36.1775C163.764 36.3394 163.464 38.0145 163.421 39.0957L163.372 40.3248Z" fill="#2F2E41"/>
<path d="M201.052 74.0401L209.307 72.6973C215.254 78.4177 219.305 85.8268 220.914 93.9248C223.396 107.181 224.224 109.667 224.224 109.667L204.362 114.638L193.604 93.9248L201.052 74.0401Z" fill="#1B67A5"/>
<path d="M164.418 91.2824L159.316 156.032L289.511 166.314L294.613 101.564L164.418 91.2824Z" fill="white"/>
<path d="M178.327 96.299C175.141 94.0211 171.096 93.8564 169.551 93.8891C170.022 95.3624 171.487 99.1409 174.673 101.42C177.867 103.704 181.908 103.863 183.451 103.831C182.979 102.359 181.514 98.5785 178.327 96.299Z" fill="#00BFA6"/>
<path d="M190.897 137.501L169.992 135.85C169.374 135.801 168.753 135.874 168.163 136.066C167.574 136.257 167.028 136.563 166.557 136.966C166.086 137.369 165.698 137.861 165.417 138.413C165.136 138.966 164.966 139.569 164.917 140.187C164.868 140.806 164.942 141.428 165.133 142.018C165.324 142.608 165.63 143.154 166.032 143.626C166.435 144.098 166.926 144.486 167.478 144.767C168.03 145.049 168.632 145.219 169.25 145.268V145.268L190.155 146.919C191.403 147.017 192.638 146.616 193.59 145.802C194.542 144.989 195.132 143.83 195.23 142.581C195.328 141.332 194.927 140.095 194.115 139.143C193.302 138.19 192.145 137.599 190.897 137.501V137.501Z" fill="#00BFA6"/>
<path d="M289.481 95.2707L172.27 86.0131C170.906 85.9057 169.535 86.0681 168.235 86.4911C166.934 86.9141 165.729 87.5895 164.69 88.4786C163.65 89.3678 162.795 90.4533 162.174 91.6732C161.553 92.893 161.178 94.2234 161.071 95.5883L156.563 152.758C156.347 155.515 157.233 158.246 159.026 160.349C160.82 162.453 163.375 163.757 166.129 163.975L283.34 173.233C284.703 173.34 286.074 173.178 287.375 172.755C288.675 172.332 289.88 171.656 290.92 170.767C291.96 169.878 292.815 168.792 293.435 167.572C294.056 166.353 294.431 165.022 294.538 163.657L298.822 109.32L298.908 108.21L299.045 106.482C299.152 105.117 298.99 103.745 298.567 102.443C298.145 101.14 297.47 99.9345 296.582 98.8934C295.694 97.8523 294.61 96.9965 293.391 96.3749C292.173 95.7534 290.844 95.3781 289.481 95.2707V95.2707ZM286.019 145.011L285.277 154.43C285.141 156.094 284.353 157.636 283.085 158.719C281.817 159.802 280.172 160.339 278.509 160.212L262.828 158.975C261.167 158.839 259.627 158.05 258.544 156.78C257.462 155.51 256.926 153.864 257.054 152.199L257.796 142.781C257.933 141.117 258.721 139.576 259.989 138.493C261.257 137.409 262.902 136.872 264.564 136.999L280.239 138.238C281.901 138.374 283.441 139.163 284.524 140.432C285.607 141.701 286.144 143.347 286.019 145.011V145.011ZM163.879 140.1C164.001 138.576 164.722 137.163 165.883 136.17C167.044 135.177 168.552 134.686 170.074 134.804L190.979 136.456C191.734 136.515 192.47 136.721 193.146 137.065C193.821 137.408 194.422 137.881 194.915 138.457C195.407 139.033 195.782 139.701 196.016 140.422C196.251 141.143 196.341 141.903 196.282 142.659C196.224 143.415 196.016 144.152 195.673 144.828C195.329 145.504 194.856 146.105 194.28 146.598C193.705 147.09 193.037 147.465 192.317 147.699C191.597 147.933 190.837 148.023 190.082 147.964L190.072 147.966L169.167 146.314C168.412 146.255 167.676 146.046 167.001 145.702C166.327 145.357 165.727 144.882 165.236 144.305C164.745 143.728 164.372 143.059 164.139 142.338C163.907 141.616 163.818 140.856 163.879 140.1V140.1ZM168.355 93.5157L168.212 92.9302L168.813 92.8751C169.048 92.8498 174.609 92.35 178.938 95.4456C183.267 98.5413 184.594 103.973 184.652 104.2L184.789 104.787L184.189 104.847C183.338 104.911 182.482 104.905 181.631 104.83C178.925 104.672 176.311 103.788 174.063 102.271C169.734 99.1756 168.407 93.7442 168.355 93.5157V93.5157Z" fill="#00BFA6"/>
<path d="M268.434 151.258L261.64 150.721C261.155 150.684 260.676 150.841 260.306 151.157C259.937 151.473 259.708 151.923 259.67 152.408C259.632 152.894 259.787 153.374 260.102 153.744C260.418 154.115 260.867 154.345 261.351 154.384L268.146 154.921C268.63 154.958 269.11 154.801 269.479 154.485C269.849 154.169 270.078 153.719 270.116 153.233C270.154 152.748 269.999 152.268 269.683 151.897C269.368 151.527 268.919 151.297 268.434 151.258V151.258Z" fill="#00BFA6"/>
<path d="M280.978 152.248L274.184 151.712C273.699 151.675 273.22 151.832 272.851 152.148C272.482 152.464 272.253 152.914 272.215 153.399C272.176 153.884 272.332 154.364 272.647 154.735C272.962 155.105 273.411 155.335 273.895 155.375L280.689 155.911C281.174 155.948 281.653 155.791 282.022 155.475C282.391 155.159 282.62 154.709 282.658 154.224C282.697 153.739 282.541 153.259 282.226 152.888C281.911 152.518 281.462 152.288 280.978 152.248V152.248Z" fill="#00BFA6"/>
<path d="M268.806 146.549L262.012 146.012C261.527 145.975 261.048 146.132 260.679 146.448C260.31 146.765 260.081 147.214 260.043 147.699C260.005 148.184 260.16 148.665 260.475 149.035C260.79 149.405 261.239 149.635 261.723 149.675L268.518 150.211C269.002 150.249 269.482 150.092 269.851 149.776C270.221 149.46 270.45 149.009 270.488 148.524C270.526 148.039 270.37 147.559 270.055 147.188C269.74 146.818 269.291 146.588 268.806 146.549V146.549Z" fill="#00BFA6"/>
<path d="M281.348 147.539L274.554 147.003C274.069 146.965 273.59 147.122 273.22 147.438C272.851 147.754 272.622 148.205 272.584 148.69C272.546 149.175 272.701 149.655 273.016 150.026C273.332 150.396 273.781 150.626 274.265 150.665L281.06 151.202C281.544 151.239 282.024 151.083 282.394 150.766C282.763 150.45 282.992 150 283.03 149.515C283.068 149.029 282.913 148.549 282.597 148.179C282.282 147.808 281.833 147.578 281.348 147.539V147.539Z" fill="#00BFA6"/>
<path d="M269.177 141.839L262.382 141.303C261.898 141.265 261.418 141.422 261.049 141.738C260.679 142.055 260.45 142.505 260.412 142.99C260.374 143.475 260.529 143.956 260.845 144.326C261.16 144.696 261.609 144.926 262.094 144.965L268.888 145.502C269.372 145.539 269.852 145.382 270.221 145.066C270.59 144.75 270.819 144.3 270.857 143.815C270.895 143.33 270.74 142.85 270.425 142.479C270.11 142.109 269.661 141.879 269.177 141.839V141.839Z" fill="#00BFA6"/>
<path d="M281.72 142.83L274.926 142.293C274.441 142.256 273.962 142.413 273.593 142.729C273.224 143.046 272.995 143.496 272.957 143.981C272.919 144.466 273.074 144.946 273.389 145.316C273.704 145.687 274.153 145.917 274.637 145.956L281.432 146.493C281.916 146.53 282.395 146.373 282.765 146.057C283.134 145.74 283.362 145.29 283.401 144.805C283.439 144.321 283.283 143.84 282.968 143.47C282.653 143.1 282.205 142.869 281.72 142.83V142.83Z" fill="#00BFA6"/>
<path d="M159.33 113.627L159.242 114.74L296.832 125.561L296.92 124.448L159.33 113.627Z" fill="white"/>
<path d="M298.909 108.21L298.822 109.32L294.034 108.944L243.016 104.932L243.108 103.82L294.12 107.834L298.909 108.21Z" fill="#3F3D56"/>
<path d="M130.707 96.4103C130.707 96.4103 123.259 127.895 132.362 127.895C141.466 127.895 162.983 92.2676 162.983 92.2676L155.535 83.1538L142.166 101.736L141.466 92.2677L130.707 96.4103Z" fill="#A0616A"/>
<path d="M160.998 93.636C165 93.636 168.244 90.3881 168.244 86.3817C168.244 82.3753 165 79.1274 160.998 79.1274C156.996 79.1274 153.752 82.3753 153.752 86.3817C153.752 90.3881 156.996 93.636 160.998 93.636Z" fill="#A0616A"/>
<path d="M149.15 69.897L144.185 64.9258C144.185 64.9258 134.254 70.7255 133.426 76.5252C132.599 82.325 128.461 100.553 128.461 100.553L143.771 101.795L148.737 94.3386L149.15 69.897Z" fill="#1B67A5"/>
</g>
<defs>
<clipPath id="clip0_279_3809">
<rect width="340" height="327" fill="white"/>
</clipPath>
</defs>
</svg>
