<svg width="67" height="67" viewBox="0 0 67 67" fill="none" xmlns="http://www.w3.org/2000/svg">
<ellipse cx="32.9805" cy="32.7057" rx="32.9804" ry="32.706" transform="rotate(-180 32.9805 32.7057)" fill="url(#paint0_linear_285_4125)"/>
<path d="M48.3477 16.6309L64.8378 40.7446C62.0451 55.7117 45.2732 65.4129 34.9319 65.4129L17.7189 47.3544L32.7058 37.4223L26.0803 31.874L48.3477 16.6309Z" fill="#767676" fill-opacity="0.32"/>
<rect x="16.2012" y="15.5195" width="34.0984" height="34.9233" rx="8" fill="white"/>
<path d="M33.5312 15.5215H42.3009C46.7192 15.5215 50.3009 19.1032 50.3009 23.5215V42.4448C50.3009 46.8631 46.7192 50.4448 42.3009 50.4448H33.5312V15.5215Z" fill="#494949" fill-opacity="0.09"/>
<path d="M34.5512 30.7639L41.9595 23.0269H36.7089V21.3623H44.6885V29.6852H43.0926V24.2087L35.6748 31.9374L34.5512 30.7656V30.7639ZM39.8257 35.0302C40.4843 35.0303 41.1163 35.3012 41.5844 35.7843C41.76 35.9674 41.9547 36.1572 42.1701 36.3569L42.8564 36.9944C43.0958 37.2192 43.3208 37.4539 43.5283 37.6952C43.7357 37.9383 43.932 38.1863 44.1155 38.4376C44.2975 38.6873 44.4347 38.957 44.5257 39.2433C44.6183 39.5296 44.6725 39.8159 44.6885 40.1022C44.6879 40.7885 44.4281 41.4469 43.9655 41.9349C43.541 42.3777 43.1596 42.7672 42.8181 43.1068C42.4946 43.4305 42.1395 43.7179 41.7584 43.9641C41.3913 44.1971 40.9812 44.3719 40.5247 44.4851C39.9964 44.6059 39.457 44.6668 38.9161 44.6665C37.9695 44.66 37.0289 44.5109 36.1232 44.2237C35.1348 43.9156 34.1779 43.5063 33.2665 43.0019C32.2925 42.4637 31.3631 41.8417 30.4881 41.1426C29.58 40.4215 28.7214 39.635 27.9186 38.7889C27.1127 37.9399 26.3642 37.0411 25.6748 36.0972C25.008 35.1905 24.4195 34.2241 23.9161 33.2092C23.4478 32.2643 23.0643 31.2763 22.7702 30.2579C22.4963 29.3306 22.3533 28.3667 22.3457 27.3964C22.3457 26.7373 22.4 26.1746 22.5085 25.7052C22.6091 25.256 22.7772 24.8263 23.0064 24.4318C23.2298 24.0489 23.5059 23.6827 23.8299 23.3265C24.1539 22.9703 24.5321 22.5675 24.963 22.1164C25.4316 21.6329 26.0642 21.3619 26.7233 21.3623C27.1382 21.3623 27.5372 21.4788 27.9202 21.7119C28.3032 21.9482 28.6735 22.2329 29.031 22.5725C29.3869 22.9104 29.7172 23.2649 30.0157 23.6378C30.3141 24.0107 30.5966 24.3319 30.8615 24.5999C31.3246 25.0882 31.5844 25.7474 31.5844 26.4343C31.5902 26.7459 31.5359 27.0555 31.4249 27.3448C31.3238 27.6013 31.1896 27.8421 31.0259 28.0606C30.8662 28.2698 30.6906 28.4652 30.5008 28.6449C30.3093 28.828 30.1354 29.0011 29.9774 29.1659C29.8307 29.3172 29.6932 29.4779 29.5656 29.647C29.4525 29.7935 29.3952 29.9784 29.4044 30.1663C29.4044 30.2712 29.4794 30.436 29.6279 30.6607C29.8205 30.9418 30.0289 31.2108 30.2519 31.4664C30.8717 32.1927 31.5163 32.8956 32.1845 33.5737C32.5579 33.9566 32.9202 34.3228 33.2697 34.679C33.6176 35.0352 33.956 35.3731 34.2799 35.6944C34.6039 36.014 34.8784 36.287 35.1018 36.5134C35.3253 36.7381 35.5008 36.9129 35.6253 37.0327C35.7675 37.1865 35.958 37.2817 36.1619 37.301C36.3659 37.3203 36.5697 37.2623 36.736 37.1376C36.8845 37.0244 37.0393 36.8846 37.1973 36.7215C37.3553 36.555 37.5164 36.3736 37.6824 36.1738C37.8484 35.9741 38.0399 35.7926 38.257 35.6278C38.4724 35.463 38.7006 35.3199 38.9432 35.1984C39.2211 35.0706 39.524 35.013 39.8273 35.0302H39.8257ZM38.9161 43.0019C39.4236 43.0019 39.8465 42.9537 40.188 42.8588C40.5213 42.7668 40.8374 42.6172 41.1232 42.416C41.4057 42.2163 41.6706 41.9832 41.9212 41.7152C42.1701 41.4456 42.4734 41.1293 42.8308 40.7664C43.0064 40.5833 43.0926 40.3669 43.0926 40.1155C43.0926 40.0024 43.0255 39.8426 42.8931 39.6328C42.7363 39.3919 42.5696 39.1581 42.3936 38.932C42.181 38.6563 41.9517 38.395 41.7073 38.1497C41.452 37.8917 41.2014 37.652 40.9604 37.4356C40.7507 37.2443 40.5301 37.0664 40.2997 36.9029C40.1002 36.7647 39.9422 36.6948 39.8257 36.6948C39.6471 36.6962 39.4733 36.7549 39.3278 36.8629C39.1598 36.9841 39.0047 37.1236 38.865 37.2791C38.7166 37.4456 38.5538 37.627 38.3798 37.8267C38.2043 38.0265 38.0128 38.2079 37.8053 38.3727C37.5978 38.5375 37.3696 38.6807 37.1191 38.8022C36.8451 38.928 36.5467 38.9856 36.2477 38.9703C35.9203 38.9725 35.5958 38.9058 35.2936 38.7742C34.9914 38.6426 34.7178 38.4489 34.489 38.2046L28.5426 31.999C28.313 31.7612 28.1308 31.4783 28.0064 31.1667C27.8805 30.8486 27.8128 30.5087 27.8069 30.1646C27.8069 29.8267 27.8612 29.5271 27.9681 29.2674C28.0766 29.0078 28.2091 28.7647 28.3671 28.5383C28.5267 28.3136 28.7006 28.1189 28.8921 27.9541C29.0836 27.7893 29.2576 27.6162 29.4156 27.4331C29.5736 27.2516 29.7108 27.0918 29.8273 26.952C29.9449 26.808 30.0029 26.6212 29.9885 26.4326C29.9885 26.3194 29.9215 26.1596 29.789 25.9499C29.6344 25.7121 29.4682 25.4826 29.2911 25.2624C29.0742 24.9912 28.8452 24.7306 28.6049 24.4817C28.3662 24.2311 28.1165 23.9922 27.8564 23.766C27.64 23.5776 27.4152 23.3998 27.1829 23.2333C26.9754 23.0852 26.8222 23.0169 26.7217 23.0252C26.6036 23.0231 26.4863 23.0462 26.377 23.0931C26.2678 23.1401 26.1689 23.2099 26.0865 23.2982C25.7851 23.6125 25.4819 23.9249 25.1769 24.2354C24.9246 24.487 24.6988 24.766 24.5034 25.0677C24.3142 25.3662 24.175 25.696 24.0916 26.0431C23.9922 26.4732 23.9419 26.9141 23.9416 27.3565C23.9416 28.1888 24.0693 29.046 24.3278 29.9299C24.6024 30.857 24.9615 31.7544 25.4003 32.6099C25.8583 33.5105 26.4057 34.3877 27.0457 35.2366C27.6856 36.0856 28.3719 36.8962 29.1044 37.6669C30.5387 39.1808 32.1762 40.4693 33.9655 41.4922C34.7706 41.9502 35.6188 42.3206 36.4967 42.5974C37.2812 42.8485 38.0956 42.9841 38.9161 43.0003V43.0019Z" fill="url(#paint1_linear_285_4125)"/>
<defs>
<linearGradient id="paint0_linear_285_4125" x1="32.9805" y1="-0.000297546" x2="32.9805" y2="65.4116" gradientUnits="userSpaceOnUse">
<stop stop-color="#44D695"/>
<stop offset="1" stop-color="#185FA5"/>
</linearGradient>
<linearGradient id="paint1_linear_285_4125" x1="33.5171" y1="21.3623" x2="33.5171" y2="44.6665" gradientUnits="userSpaceOnUse">
<stop stop-color="#2176A2"/>
<stop offset="1" stop-color="#44D695"/>
</linearGradient>
</defs>
</svg>
