<svg width="67" height="67" viewBox="0 0 67 67" fill="none" xmlns="http://www.w3.org/2000/svg">
<ellipse cx="32.9787" cy="32.7274" rx="32.9783" ry="32.7277" transform="rotate(-180 32.9787 32.7274)" fill="url(#paint0_linear_285_4103)"/>
<path d="M47.2548 17.5858L64.8386 40.7703C62.046 55.7474 45.2752 65.455 34.9345 65.455L18.2143 47.8725L32.7086 37.4458L26.0835 31.8938L47.2548 17.5858Z" fill="#797979" fill-opacity="0.4"/>
<rect x="16.2031" y="15.5288" width="34.0962" height="34.9465" rx="8" fill="white"/>
<path d="M33.5352 15.5312H42.3038C46.7221 15.5312 50.3038 19.113 50.3038 23.5313V42.4778C50.3038 46.896 46.7221 50.4778 42.3038 50.4778H33.5352V15.5312Z" fill="#494949" fill-opacity="0.09"/>
<path d="M42.4715 23.0014C42.8881 23.0014 43.2877 23.174 43.5823 23.4813C43.8769 23.7886 44.0424 24.2054 44.0424 24.64V37.7487C44.0424 38.1833 43.8769 38.6001 43.5823 38.9074C43.2877 39.2146 42.8881 39.3873 42.4715 39.3873H38.5442C38.0564 39.3873 37.5753 39.5057 37.1391 39.7333C36.7028 39.9608 36.3233 40.2911 36.0307 40.6982L33.0459 44.8487L30.0612 40.6982C29.7685 40.2911 29.389 39.9608 28.9528 39.7333C28.5165 39.5057 28.0354 39.3873 27.5477 39.3873H23.6204C23.2037 39.3873 22.8042 39.2146 22.5096 38.9074C22.2149 38.6001 22.0494 38.1833 22.0494 37.7487V24.64C22.0494 24.2054 22.2149 23.7886 22.5096 23.4813C22.8042 23.174 23.2037 23.0014 23.6204 23.0014H42.4715ZM23.6204 21.3628C22.7871 21.3628 21.988 21.7081 21.3987 22.3227C20.8095 22.9372 20.4785 23.7708 20.4785 24.64V37.7487C20.4785 38.6179 20.8095 39.4514 21.3987 40.066C21.988 40.6806 22.7871 41.0259 23.6204 41.0259H27.5477C27.7916 41.0259 28.0321 41.0851 28.2502 41.1989C28.4684 41.3126 28.6581 41.4778 28.8044 41.6813L31.7892 45.8319C31.9355 46.0354 32.1253 46.2005 32.3434 46.3143C32.5615 46.4281 32.802 46.4873 33.0459 46.4873C33.2898 46.4873 33.5303 46.4281 33.7485 46.3143C33.9666 46.2005 34.1563 46.0354 34.3027 45.8319L37.2874 41.6813C37.4338 41.4778 37.6235 41.3126 37.8416 41.1989C38.0598 41.0851 38.3003 41.0259 38.5442 41.0259H42.4715C43.3047 41.0259 44.1039 40.6806 44.6931 40.066C45.2823 39.4514 45.6133 38.6179 45.6133 37.7487V24.64C45.6133 23.7708 45.2823 22.9372 44.6931 22.3227C44.1039 21.7081 43.3047 21.3628 42.4715 21.3628H23.6204Z" fill="url(#paint1_linear_285_4103)"/>
<path d="M25.1914 27.0981C25.1914 26.8808 25.2742 26.6724 25.4215 26.5188C25.5688 26.3651 25.7686 26.2788 25.9769 26.2788H40.1152C40.3235 26.2788 40.5233 26.3651 40.6706 26.5188C40.8179 26.6724 40.9007 26.8808 40.9007 27.0981C40.9007 27.3154 40.8179 27.5238 40.6706 27.6774C40.5233 27.8311 40.3235 27.9174 40.1152 27.9174H25.9769C25.7686 27.9174 25.5688 27.8311 25.4215 27.6774C25.2742 27.5238 25.1914 27.3154 25.1914 27.0981ZM25.1914 31.1946C25.1914 30.9773 25.2742 30.7689 25.4215 30.6153C25.5688 30.4616 25.7686 30.3753 25.9769 30.3753H40.1152C40.3235 30.3753 40.5233 30.4616 40.6706 30.6153C40.8179 30.7689 40.9007 30.9773 40.9007 31.1946C40.9007 31.4119 40.8179 31.6203 40.6706 31.7739C40.5233 31.9276 40.3235 32.0139 40.1152 32.0139H25.9769C25.7686 32.0139 25.5688 31.9276 25.4215 31.7739C25.2742 31.6203 25.1914 31.4119 25.1914 31.1946ZM25.1914 35.2911C25.1914 35.0738 25.2742 34.8654 25.4215 34.7117C25.5688 34.5581 25.7686 34.4718 25.9769 34.4718H33.8315C34.0398 34.4718 34.2396 34.5581 34.3869 34.7117C34.5342 34.8654 34.617 35.0738 34.617 35.2911C34.617 35.5083 34.5342 35.7167 34.3869 35.8704C34.2396 36.024 34.0398 36.1103 33.8315 36.1103H25.9769C25.7686 36.1103 25.5688 36.024 25.4215 35.8704C25.2742 35.7167 25.1914 35.5083 25.1914 35.2911Z" fill="url(#paint2_linear_285_4103)"/>
<defs>
<linearGradient id="paint0_linear_285_4103" x1="32.9787" y1="-0.000289917" x2="32.9787" y2="65.4551" gradientUnits="userSpaceOnUse">
<stop stop-color="#44D695"/>
<stop offset="1" stop-color="#1962A5"/>
</linearGradient>
<linearGradient id="paint1_linear_285_4103" x1="33.0459" y1="21.3628" x2="33.0459" y2="46.4873" gradientUnits="userSpaceOnUse">
<stop stop-color="#1963A4"/>
<stop offset="1" stop-color="#44D695"/>
</linearGradient>
<linearGradient id="paint2_linear_285_4103" x1="33.046" y1="26.2788" x2="33.046" y2="36.1103" gradientUnits="userSpaceOnUse">
<stop stop-color="#1963A4"/>
<stop offset="1" stop-color="#44D695"/>
</linearGradient>
</defs>
</svg>
