<svg width="711" height="599" viewBox="0 0 711 599" fill="none" xmlns="http://www.w3.org/2000/svg">
<path fill-rule="evenodd" clip-rule="evenodd" d="M446.2 525.335C359.056 527.466 263.128 584.907 194.663 527.742C123.966 468.714 110.867 354.438 129.871 261.216C146.241 180.913 220.375 136.289 284.025 89.3768C333.007 53.2756 386.554 26.4234 446.2 28.072C504.23 29.6759 558.703 55.0241 600.129 98.1137C641.966 141.631 657.805 200.532 670.34 261.216C688.176 347.56 742.167 449.996 686.391 515.721C630.7 581.346 529.469 523.299 446.2 525.335Z" fill="#93B0F9" fill-opacity="0.15"/>
<path d="M517.885 317.506L509.307 313.903L503.422 271H425.06L418.682 313.727L411.007 317.556C410.64 317.739 410.346 318.04 410.172 318.411C409.998 318.782 409.954 319.201 410.049 319.6C410.143 319.998 410.37 320.353 410.691 320.608C411.013 320.862 411.412 321 411.822 321H517.178C517.598 321 518.006 320.855 518.332 320.589C518.657 320.323 518.881 319.953 518.964 319.542C519.047 319.13 518.985 318.703 518.788 318.332C518.592 317.961 518.272 317.669 517.885 317.506V317.506Z" fill="#E6E6E6"/>
<path d="M633.535 275H294.465C286.644 274.982 279.15 271.861 273.626 266.323C268.102 260.784 265 253.279 265 245.455V215H663V245.455C663 253.279 659.898 260.784 654.374 266.323C648.85 271.862 641.356 274.982 633.535 275V275Z" fill="#CCCCCC"/>
<path d="M664 240H265V29.5455C265.009 21.7122 268.124 14.2024 273.661 8.66347C279.199 3.12455 286.707 0.00888453 294.539 0H634.461C642.293 0.00886561 649.801 3.12453 655.339 8.66346C660.876 14.2024 663.991 21.7122 664 29.5455V240Z" fill="#E6E6E6"/>
<path d="M632.019 223H296.981C293.009 222.996 289.201 221.417 286.393 218.609C283.584 215.802 282.004 211.996 282 208.026V31.9736C282.004 28.0037 283.584 24.1977 286.393 21.3906C289.201 18.5835 293.009 17.0045 296.981 17H632.019C635.991 17.0045 639.799 18.5835 642.607 21.3906C645.416 24.1977 646.995 28.0037 647 31.9736V208.026C646.996 211.996 645.416 215.802 642.607 218.609C639.799 221.417 635.991 222.996 632.019 223V223Z" fill="white"/>
<path d="M485 107.311C485 107.339 485.001 107.367 485.003 107.396C485.924 121.918 492.329 135.543 502.917 145.5C513.505 155.458 527.48 161 542 161C556.52 161 570.495 155.458 581.083 145.5C591.67 135.543 598.076 121.918 598.997 107.396C599.009 107.216 598.984 107.036 598.923 106.867C598.863 106.697 598.768 106.542 598.644 106.411C598.523 106.281 598.376 106.177 598.213 106.106C598.05 106.035 597.873 105.999 597.696 106L486.304 106C485.958 106.001 485.626 106.139 485.382 106.385C485.137 106.631 485 106.964 485 107.311V107.311Z" fill="#00BFA6"/>
<path d="M580 61.2698C580 61.7174 579.822 62.1467 579.506 62.4637L540.494 101.506C540.338 101.663 540.153 101.788 539.948 101.872C539.744 101.957 539.525 102.001 539.303 102H485.686C485.456 102.001 485.229 101.954 485.017 101.863C484.806 101.771 484.616 101.637 484.46 101.468C484.301 101.299 484.178 101.1 484.1 100.881C484.022 100.663 483.989 100.431 484.003 100.2C484.686 89.4585 488.348 79.1204 494.578 70.3472C500.808 61.574 509.359 54.7134 519.271 50.5362C529.182 46.3591 540.061 45.0309 550.686 46.7009C561.31 48.371 571.259 52.9731 579.413 59.9901C579.589 60.142 579.732 60.3284 579.833 60.5377C579.933 60.7471 579.99 60.9749 579.999 61.2071C580 61.2281 580 61.249 580 61.2698Z" fill="#1B67A5"/>
<path d="M522 183.608C521.978 185.684 521.342 187.708 520.17 189.423C518.999 191.138 517.345 192.466 515.419 193.241C513.492 194.016 511.379 194.203 509.346 193.777C507.314 193.351 505.453 192.331 504 190.848C502.546 189.365 501.566 187.484 501.181 185.443C500.797 183.402 501.027 181.293 501.841 179.382C502.655 177.472 504.018 175.846 505.756 174.71C507.495 173.574 509.531 172.979 511.608 173.001C514.391 173.032 517.049 174.167 518.997 176.155C520.945 178.144 522.025 180.824 522 183.608Z" fill="#00BFA6"/>
<path d="M551 184.103C550.979 186.08 550.373 188.008 549.257 189.641C548.142 191.274 546.567 192.539 544.732 193.278C542.897 194.016 540.884 194.193 538.949 193.787C537.013 193.382 535.241 192.411 533.857 190.998C532.473 189.585 531.539 187.794 531.173 185.85C530.807 183.907 531.025 181.898 531.801 180.079C532.577 178.259 533.874 176.711 535.53 175.629C537.186 174.547 539.125 173.98 541.103 174.001C543.754 174.031 546.285 175.111 548.14 177.005C549.995 178.899 551.024 181.451 551 184.103V184.103Z" fill="#1B67A5"/>
<path d="M581 184.608C580.978 186.684 580.342 188.708 579.17 190.423C577.999 192.138 576.345 193.466 574.419 194.241C572.492 195.016 570.379 195.203 568.346 194.777C566.314 194.351 564.453 193.331 563 191.848C561.546 190.365 560.566 188.484 560.181 186.443C559.797 184.402 560.027 182.293 560.841 180.383C561.655 178.472 563.018 176.846 564.756 175.71C566.495 174.574 568.531 173.979 570.608 174.001C573.391 174.032 576.049 175.167 577.997 177.155C579.945 179.144 581.025 181.824 581 184.608V184.608Z" fill="#E6E6E6"/>
<path d="M432.027 72.9707L337.117 72.0004C336.192 71.9902 335.275 72.1618 334.416 72.5052C333.558 72.8487 332.776 73.3573 332.115 74.002C331.454 74.6468 330.927 75.415 330.564 76.2627C330.202 77.1105 330.01 78.0212 330 78.9428C329.991 79.8644 330.164 80.7789 330.509 81.6339C330.854 82.4889 331.365 83.2677 332.013 83.9258C332.66 84.5839 333.432 85.1084 334.283 85.4694C335.134 85.8303 336.048 86.0205 336.973 86.0293L431.883 86.9996C432.808 87.0098 433.725 86.8382 434.584 86.4948C435.442 86.1513 436.224 85.6427 436.885 84.998C437.546 84.3532 438.073 83.585 438.436 82.7373C438.799 81.8895 438.99 80.9788 439 80.0572C439.009 79.1356 438.836 78.2211 438.491 77.3661C438.146 76.5111 437.635 75.7323 436.987 75.0742C436.34 74.4161 435.568 73.8916 434.717 73.5306C433.866 73.1697 432.952 72.9794 432.027 72.9707V72.9707Z" fill="#E6E6E6"/>
<path d="M431.088 110.971L337.054 110.001C335.458 109.981 333.903 110.513 332.65 111.508C331.398 112.503 330.522 113.901 330.171 115.467C329.82 117.033 330.013 118.673 330.72 120.113C331.427 121.552 332.603 122.704 334.053 123.376C334.948 123.798 335.923 124.02 336.911 124.029L430.945 125C431.861 125.01 432.771 124.839 433.622 124.496C434.473 124.153 435.248 123.644 435.903 122.999C436.558 122.355 437.081 121.586 437.44 120.738C437.8 119.89 437.99 118.979 438 118.057C438.009 117.135 437.838 116.22 437.495 115.365C437.153 114.51 436.646 113.731 436.004 113.073C435.362 112.415 434.598 111.89 433.754 111.53C432.91 111.169 432.004 110.979 431.088 110.971V110.971Z" fill="#E6E6E6"/>
<path d="M431.023 149.971L336.117 149C335.192 148.99 334.274 149.162 333.416 149.505C332.558 149.849 331.776 150.357 331.115 151.002C330.454 151.647 329.927 152.415 329.564 153.263C329.202 154.11 329.01 155.021 329 155.943C328.991 156.864 329.164 157.779 329.509 158.634C329.854 159.489 330.365 160.268 331.013 160.926C331.66 161.584 332.432 162.108 333.283 162.469C334.134 162.83 335.048 163.021 335.972 163.029L430.879 164C431.804 164.01 432.722 163.839 433.581 163.496C434.44 163.153 435.222 162.644 435.884 161.999C436.545 161.355 437.072 160.586 437.435 159.738C437.798 158.89 437.99 157.979 438 157.057C438.009 156.135 437.836 155.22 437.491 154.365C437.145 153.51 436.634 152.731 435.986 152.073C435.338 151.415 434.566 150.89 433.715 150.529C432.863 150.169 431.949 149.979 431.023 149.971V149.971Z" fill="#E6E6E6"/>
<path d="M404.53 72.7083L337.071 72.0004C336.152 71.99 335.24 72.165 334.388 72.5152C333.535 72.8654 332.758 73.3841 332.101 74.0416C331.445 74.6991 330.921 75.4825 330.561 76.3471C330.2 77.2116 330.01 78.1403 330 79.0802C329.991 80.02 330.163 80.9526 330.506 81.8245C330.849 82.6964 331.357 83.4906 332 84.1618C332.643 84.8329 333.409 85.3678 334.255 85.7359C335.1 86.1039 336.008 86.298 336.927 86.3068L402.981 87C404.323 86.4539 405.495 85.5447 406.37 84.3698C407.246 83.1949 407.792 81.7984 407.952 80.33C408.111 78.8616 407.876 77.3766 407.274 76.034C406.671 74.6915 405.723 73.5418 404.53 72.7083V72.7083Z" fill="#00BFA6"/>
<path d="M372.944 110.382L337.003 110.001C335.418 109.981 333.875 110.524 332.631 111.539C331.387 112.554 330.518 113.98 330.17 115.578C329.821 117.177 330.013 118.85 330.715 120.319C331.416 121.788 332.584 122.964 334.024 123.649L367.035 124C369.126 124.021 371.139 123.183 372.632 121.671C374.126 120.158 374.977 118.095 374.999 115.933C375.031 113.878 374.295 111.89 372.944 110.382V110.382Z" fill="#00BFA6"/>
<path d="M423.591 149.902L336.091 149C335.17 148.99 334.255 149.162 333.4 149.507C332.545 149.852 331.766 150.363 331.107 151.011C330.449 151.659 329.924 152.43 329.562 153.282C329.201 154.133 329.01 155.048 329 155.974C328.991 156.9 329.163 157.818 329.507 158.677C329.851 159.536 330.36 160.318 331.006 160.979C331.651 161.641 332.419 162.167 333.267 162.53C334.115 162.892 335.026 163.084 335.947 163.092L424.01 164C425.258 163.278 426.288 162.229 426.99 160.966C427.692 159.702 428.04 158.271 427.996 156.825C427.953 155.379 427.521 153.971 426.745 152.752C425.969 151.533 424.879 150.548 423.59 149.902H423.591Z" fill="#00BFA6"/>
<g clip-path="url(#clip0_262_41)">
<path d="M58.0381 488.729C60.4252 489.569 62.9882 489.779 65.4801 489.34C67.9721 488.901 70.309 487.827 72.2657 486.222C77.2489 482.038 78.8116 475.147 80.0825 468.764L83.8426 449.885L75.9705 455.307C70.3089 459.207 64.5202 463.231 60.6006 468.88C56.6809 474.528 54.9709 482.238 58.1193 488.35" fill="#E6E6E6"/>
<path d="M59.2541 512.901C58.2633 505.68 57.2439 498.365 57.9405 491.066C58.5579 484.584 60.5349 478.254 64.5596 473.062C66.6959 470.312 69.2954 467.955 72.2413 466.098C73.0092 465.613 73.7163 466.831 72.9516 467.314C67.8543 470.536 63.9117 475.295 61.6922 480.903C59.241 487.14 58.8474 493.939 59.2696 500.564C59.5248 504.57 60.0671 508.55 60.6118 512.526C60.6548 512.706 60.628 512.895 60.5367 513.056C60.4454 513.217 60.2965 513.337 60.1202 513.392C59.9402 513.44 59.7484 513.416 59.5864 513.324C59.4243 513.232 59.3051 513.079 59.2546 512.9L59.2541 512.901Z" fill="#F2F2F2"/>
<path d="M66.3867 501.313C67.4104 502.87 68.8176 504.137 70.4728 504.992C72.128 505.847 73.9755 506.261 75.8371 506.194C80.6223 505.967 84.61 502.628 88.1993 499.456L98.8183 490.077L91.7906 489.74C86.7365 489.498 81.5521 489.271 76.7383 490.832C71.9245 492.393 67.485 496.144 66.6049 501.128" fill="#E6E6E6"/>
<path d="M56.4539 517.052C61.2241 508.609 66.7566 499.225 76.6433 496.226C79.392 495.394 82.2742 495.097 85.1347 495.348C86.0364 495.426 85.8112 496.816 84.9114 496.739C80.1164 496.341 75.3307 497.607 71.3598 500.325C67.5387 502.927 64.5634 506.545 62.0456 510.38C60.503 512.73 59.1214 515.179 57.7398 517.625C57.2983 518.407 56.0073 517.843 56.4539 517.052Z" fill="#F2F2F2"/>
<path d="M535.972 498.782C534.585 500.025 532.9 500.89 531.082 501.294C529.263 501.697 527.371 501.625 525.588 501.084C521.02 499.641 518.018 495.393 515.358 491.409L507.488 479.626L514.369 481.098C519.317 482.156 524.387 483.262 528.642 486.002C532.897 488.742 536.231 493.503 535.808 498.547" fill="#E6E6E6"/>
<path d="M541.554 516.537C539.099 507.155 536.148 496.668 527.356 491.24C524.911 489.734 522.2 488.71 519.371 488.221C518.479 488.066 518.342 489.468 519.231 489.623C523.969 490.464 528.272 492.912 531.416 496.555C534.446 500.047 536.398 504.305 537.852 508.657C538.743 511.324 539.453 514.045 540.164 516.763C540.391 517.632 541.784 517.416 541.554 516.537Z" fill="#F2F2F2"/>
<path d="M444.885 379.14H284.053C282.769 379.138 281.538 378.627 280.63 377.719C279.721 376.81 279.21 375.578 279.209 374.294V320.017C279.21 318.733 279.721 317.501 280.63 316.592C281.538 315.684 282.769 315.173 284.053 315.171H444.885C446.17 315.173 447.401 315.684 448.309 316.592C449.217 317.501 449.728 318.733 449.73 320.017V374.294C449.728 375.579 449.217 376.81 448.309 377.719C447.401 378.627 446.17 379.138 444.885 379.14Z" fill="#F1F1F1"/>
<path d="M347.029 329.709H304.398V334.556H347.029V329.709Z" fill="#00BFA6"/>
<path d="M403.223 335.525C404.828 335.525 406.13 334.223 406.13 332.617C406.13 331.011 404.828 329.709 403.223 329.709C401.618 329.709 400.316 331.011 400.316 332.617C400.316 334.223 401.618 335.525 403.223 335.525Z" fill="#00BFA6"/>
<path d="M412.912 335.525C414.518 335.525 415.819 334.223 415.819 332.617C415.819 331.011 414.518 329.709 412.912 329.709C411.307 329.709 410.006 331.011 410.006 332.617C410.006 334.223 411.307 335.525 412.912 335.525Z" fill="#00BFA6"/>
<path d="M422.602 335.525C424.207 335.525 425.508 334.223 425.508 332.617C425.508 331.011 424.207 329.709 422.602 329.709C420.997 329.709 419.695 331.011 419.695 332.617C419.695 334.223 420.997 335.525 422.602 335.525Z" fill="#00BFA6"/>
<path d="M444.885 447.954H284.053C282.769 447.953 281.538 447.442 280.63 446.533C279.721 445.625 279.21 444.393 279.209 443.108V388.832C279.21 387.547 279.721 386.315 280.63 385.407C281.538 384.498 282.769 383.987 284.053 383.986H444.885C446.17 383.987 447.401 384.498 448.309 385.407C449.217 386.315 449.728 387.547 449.73 388.832V443.108C449.728 444.393 449.217 445.625 448.309 446.533C447.401 447.442 446.17 447.953 444.885 447.954V447.954Z" fill="#F1F1F1"/>
<path d="M347.029 398.524H304.398V403.37H347.029V398.524Z" fill="#00BFA6"/>
<path d="M403.223 404.339C404.828 404.339 406.13 403.037 406.13 401.432C406.13 399.826 404.828 398.524 403.223 398.524C401.618 398.524 400.316 399.826 400.316 401.432C400.316 403.037 401.618 404.339 403.223 404.339Z" fill="#00BFA6"/>
<path d="M412.912 404.339C414.518 404.339 415.819 403.037 415.819 401.432C415.819 399.826 414.518 398.524 412.912 398.524C411.307 398.524 410.006 399.826 410.006 401.432C410.006 403.037 411.307 404.339 412.912 404.339Z" fill="#00BFA6"/>
<path d="M422.602 404.339C424.207 404.339 425.508 403.037 425.508 401.432C425.508 399.826 424.207 398.524 422.602 398.524C420.997 398.524 419.695 399.826 419.695 401.432C419.695 403.037 420.997 404.339 422.602 404.339Z" fill="#00BFA6"/>
<path d="M444.885 516.769H284.053C282.769 516.767 281.538 516.256 280.63 515.348C279.721 514.439 279.21 513.207 279.209 511.923V457.646C279.21 456.362 279.721 455.13 280.63 454.221C281.538 453.313 282.769 452.802 284.053 452.8H444.885C446.17 452.802 447.401 453.313 448.309 454.221C449.217 455.13 449.728 456.362 449.73 457.646V511.923C449.728 513.207 449.217 514.439 448.309 515.348C447.401 516.256 446.17 516.767 444.885 516.769V516.769Z" fill="#F1F1F1"/>
<path d="M347.029 467.338H304.398V472.184H347.029V467.338Z" fill="#00BFA6"/>
<path d="M403.223 473.154C404.828 473.154 406.13 471.852 406.13 470.246C406.13 468.64 404.828 467.338 403.223 467.338C401.618 467.338 400.316 468.64 400.316 470.246C400.316 471.852 401.618 473.154 403.223 473.154Z" fill="#00BFA6"/>
<path d="M412.912 473.154C414.518 473.154 415.819 471.852 415.819 470.246C415.819 468.64 414.518 467.338 412.912 467.338C411.307 467.338 410.006 468.64 410.006 470.246C410.006 471.852 411.307 473.154 412.912 473.154Z" fill="#00BFA6"/>
<path d="M422.602 473.154C424.207 473.154 425.508 471.852 425.508 470.246C425.508 468.64 424.207 467.338 422.602 467.338C420.997 467.338 419.695 468.64 419.695 470.246C419.695 471.852 420.997 473.154 422.602 473.154Z" fill="#00BFA6"/>
<path d="M384.253 262.171L384.075 262.039L384.071 262.036C383.842 261.866 383.581 261.742 383.304 261.673C383.027 261.603 382.738 261.589 382.456 261.63C382.173 261.672 381.901 261.769 381.656 261.916C381.411 262.063 381.197 262.256 381.027 262.486L344.825 311.245H340.843V310.309C340.843 310.078 340.751 309.857 340.588 309.693C340.425 309.53 340.203 309.438 339.972 309.438H337.596C337.365 309.438 337.144 309.53 336.981 309.693C336.817 309.857 336.726 310.078 336.726 310.309V311.245H335.35V310.309C335.35 310.078 335.259 309.857 335.095 309.693C334.932 309.53 334.711 309.438 334.48 309.438H332.104C331.873 309.438 331.651 309.53 331.488 309.693C331.325 309.857 331.233 310.078 331.233 310.309V311.245H329.862V310.309C329.862 310.078 329.771 309.857 329.607 309.693C329.444 309.53 329.223 309.438 328.992 309.438H326.616C326.385 309.438 326.163 309.53 326 309.693C325.837 309.857 325.745 310.078 325.745 310.309V311.245H324.37V310.309C324.37 310.078 324.278 309.857 324.115 309.693C323.952 309.53 323.73 309.438 323.499 309.438H321.123C320.892 309.438 320.671 309.53 320.508 309.693C320.344 309.857 320.253 310.078 320.253 310.309V311.245H318.882V310.309C318.882 310.078 318.79 309.857 318.627 309.693C318.464 309.53 318.242 309.438 318.011 309.438H315.635C315.521 309.438 315.408 309.461 315.302 309.505C315.196 309.548 315.101 309.612 315.02 309.693C314.939 309.774 314.875 309.87 314.831 309.976C314.787 310.081 314.765 310.195 314.765 310.309V311.245H313.389V310.309C313.389 310.078 313.298 309.857 313.135 309.693C312.971 309.53 312.75 309.438 312.519 309.438H310.143C309.912 309.438 309.691 309.53 309.527 309.693C309.364 309.857 309.272 310.078 309.272 310.309V311.245H307.897V310.309C307.897 310.078 307.805 309.857 307.642 309.693C307.479 309.53 307.257 309.438 307.027 309.438H304.65C304.42 309.438 304.198 309.53 304.035 309.693C303.872 309.857 303.78 310.078 303.78 310.309V311.245H302.409V310.309C302.409 310.078 302.317 309.857 302.154 309.693C301.991 309.53 301.77 309.438 301.539 309.438H299.162C298.932 309.438 298.71 309.53 298.547 309.693C298.384 309.857 298.292 310.078 298.292 310.309V311.245H296.917V310.309C296.917 310.078 296.825 309.857 296.662 309.693C296.498 309.53 296.277 309.438 296.046 309.438H293.67C293.439 309.438 293.218 309.53 293.054 309.693C292.891 309.857 292.8 310.078 292.8 310.309V311.245H291.429V310.309C291.429 310.078 291.337 309.857 291.174 309.693C291.01 309.53 290.789 309.438 290.558 309.438H288.182C287.951 309.438 287.73 309.53 287.567 309.693C287.403 309.857 287.312 310.078 287.312 310.309V311.245H285.588C285.302 311.245 285.019 311.301 284.755 311.411C284.491 311.52 284.251 311.681 284.049 311.883C283.847 312.085 283.687 312.325 283.578 312.589C283.468 312.853 283.412 313.136 283.412 313.422V315.499C283.412 315.785 283.468 316.068 283.578 316.332C283.687 316.596 283.847 316.836 284.049 317.038C284.251 317.24 284.491 317.4 284.755 317.51C285.019 317.619 285.302 317.676 285.588 317.676H344.464C345.21 317.675 345.933 317.418 346.511 316.947C347.089 316.476 347.488 315.821 347.639 315.09L347.662 315.107L384.699 265.221L384.703 265.216C385.047 264.753 385.193 264.172 385.108 263.6C385.024 263.029 384.716 262.515 384.253 262.171V262.171Z" fill="#00BFA6"/>
<path d="M155.465 498.279L162.778 502.023L180.693 475.587L169.9 470.061L155.465 498.279Z" fill="#FFB7B7"/>
<path d="M154.822 494.936L169.225 502.309L169.225 502.309C171.659 503.555 173.499 505.718 174.339 508.321C175.179 510.924 174.952 513.754 173.706 516.189L173.553 516.487L149.973 504.416L154.822 494.936Z" fill="#2F5675"/>
<path d="M239.929 508.521H248.144L252.053 476.823H239.928L239.929 508.521Z" fill="#FFB7B7"/>
<path d="M237.832 505.839L254.011 505.838H254.011C256.746 505.838 259.368 506.925 261.302 508.859C263.235 510.793 264.321 513.416 264.322 516.152V516.487L237.833 516.488L237.832 505.839Z" fill="#2F5675"/>
<path d="M201.501 249.964C201.501 249.964 195.999 245.748 195.999 256.047L195.131 290.08L204.83 322.231L210.476 311.803L208.16 289.211L201.501 249.964Z" fill="#1B629B"/>
<path d="M260.349 343.051C260.349 343.051 266.729 374.129 258.648 399.634L254.183 497.698L237.809 496.421L232.068 423.672L226.539 387.509L215.056 420.481L177.206 490.253L159.77 476.639C159.77 476.639 179.092 423.897 193.367 412.823L200.526 331.252L260.349 343.051Z" fill="#2F5675"/>
<path d="M257.321 198.695C262.267 189.644 258.942 178.297 249.895 173.349C240.847 168.402 229.504 171.728 224.558 180.779C219.613 189.829 222.938 201.177 231.985 206.124C241.032 211.072 252.376 207.745 257.321 198.695Z" fill="#FFB7B7"/>
<path d="M239.619 193.698C241.857 193.99 243.545 191.699 244.328 189.582C245.111 187.464 245.707 184.999 247.653 183.855C250.311 182.293 253.713 184.172 256.753 183.656C260.186 183.074 262.418 179.435 262.593 175.956C262.768 172.477 261.384 169.131 260.026 165.923L259.552 169.91C259.615 168.559 259.331 167.214 258.726 166.004C258.122 164.794 257.217 163.76 256.099 163L256.71 168.849C256.58 168.042 256.291 167.269 255.862 166.573C255.432 165.878 254.87 165.275 254.206 164.797C253.543 164.32 252.792 163.978 251.997 163.792C251.201 163.606 250.376 163.579 249.57 163.712L249.666 167.197C245.701 166.726 241.702 166.253 237.725 166.613C233.748 166.972 229.743 168.231 226.729 170.851C222.22 174.77 220.574 181.223 221.126 187.173C221.679 193.122 224.134 198.712 226.693 204.111C227.337 205.469 228.227 207.002 229.72 207.175C231.061 207.331 232.289 206.209 232.706 204.924C233.027 203.606 233.015 202.228 232.67 200.916C232.292 198.911 231.817 196.861 232.171 194.852C232.526 192.842 233.971 190.856 235.996 190.61C238.021 190.364 240.093 192.679 239.119 194.472L239.619 193.698Z" fill="#00BFA6"/>
<path d="M261.504 351.363L199.186 347.34L203.876 327.901L260.833 340.638L261.504 351.363Z" fill="#CBCBCB"/>
<path d="M223.072 215.207L226.981 209.778C226.981 209.778 231.35 211.264 243.05 217.09L243.877 222.176L264.187 347.14L227.27 345.547L217.217 345.333L213.927 337.956L209.871 345.177L200.054 344.968L190.064 339.175L199.909 309.052L203.094 281.536L198.172 255.612C198.172 255.612 191.978 231.808 215.833 218.972L223.072 215.207Z" fill="#1D74BA"/>
<path d="M306.278 309.806C305.374 310.036 304.431 310.064 303.514 309.89C302.598 309.716 301.731 309.342 300.975 308.796C300.218 308.251 299.59 307.545 299.136 306.731C298.681 305.916 298.411 305.011 298.343 304.081L276.441 298.212L285.252 290.386L304.7 297.159C306.27 297.149 307.789 297.716 308.97 298.752C310.15 299.789 310.91 301.222 311.104 302.781C311.299 304.34 310.915 305.916 310.026 307.211C309.136 308.505 307.803 309.429 306.278 309.806V309.806Z" fill="#FFB7B7"/>
<path d="M296.47 306.493C296.009 306.744 295.501 306.895 294.978 306.936C294.456 306.978 293.93 306.909 293.436 306.734L257.406 293.054C248.617 289.937 241.258 283.732 236.699 275.594L221.674 248.782C220.619 247.604 219.807 246.229 219.283 244.737C218.76 243.244 218.536 241.663 218.624 240.084C218.712 238.505 219.111 236.958 219.797 235.533C220.483 234.108 221.444 232.833 222.624 231.779C223.803 230.726 225.179 229.916 226.672 229.395C228.165 228.874 229.746 228.653 231.324 228.744C232.903 228.835 234.448 229.237 235.871 229.926C237.294 230.615 238.568 231.578 239.618 232.76L265.624 273.993L298.352 293.188C298.993 293.609 299.49 294.217 299.775 294.929C300.059 295.642 300.119 296.425 299.944 297.172L298.317 304.071C298.142 304.811 297.746 305.48 297.181 305.989C296.965 306.184 296.726 306.353 296.47 306.493V306.493Z" fill="#1B67A5"/>
<path d="M574.392 517.863H0.608466C0.44709 517.863 0.292324 517.799 0.178215 517.685C0.0641056 517.571 0 517.416 0 517.255C0 517.093 0.0641056 516.938 0.178215 516.824C0.292324 516.71 0.44709 516.646 0.608466 516.646H574.392C574.553 516.646 574.708 516.71 574.822 516.824C574.936 516.938 575 517.093 575 517.255C575 517.416 574.936 517.571 574.822 517.685C574.708 517.799 574.553 517.863 574.392 517.863Z" fill="#CBCBCB"/>
</g>
<path d="M632.993 483.243L656.81 487.004C664.872 477.142 670.43 465.44 673 452.915C655.585 467.319 629.101 459.664 607.983 467.528C601.416 470.032 595.49 473.996 590.645 479.129C585.8 484.261 582.16 490.429 579.995 497.175L568.355 509.828C578.892 514.042 590.207 515.899 601.521 515.269C612.836 514.64 623.881 511.54 633.896 506.182C639.484 503.12 644.669 499.36 649.328 494.989C640.994 489.687 632.993 483.243 632.993 483.243Z" fill="#F2F2F2"/>
<path d="M624.452 445.09L647.288 437.844C650.133 425.588 649.943 412.822 646.735 400.656C637.562 421.056 610.645 426.056 595.31 442.339C590.566 447.455 587.034 453.572 584.975 460.238C582.917 466.904 582.385 473.948 583.419 480.847L578.615 497.146C589.837 496.186 600.716 492.805 610.505 487.236C620.294 481.667 628.759 474.041 635.317 464.886C638.946 459.713 641.908 454.104 644.135 448.191C634.396 447.217 624.452 445.09 624.452 445.09Z" fill="#F2F2F2"/>
<path d="M673 517.627C673 517.73 672.987 517.831 672.96 517.926C672.933 518.021 672.894 518.107 672.844 518.18C672.795 518.253 672.736 518.31 672.671 518.349C672.606 518.388 672.536 518.408 672.466 518.408H370.534C370.392 518.408 370.256 518.326 370.156 518.179C370.056 518.033 370 517.834 370 517.627C370 517.42 370.056 517.221 370.156 517.075C370.256 516.928 370.392 516.846 370.534 516.846H672.466C672.536 516.846 672.606 516.866 672.671 516.905C672.736 516.944 672.795 517.002 672.844 517.074C672.894 517.147 672.933 517.233 672.96 517.328C672.987 517.423 673 517.524 673 517.627V517.627Z" fill="#CCCCCC"/>
<path d="M443.145 383.964C443.668 384.783 444.365 385.478 445.186 385.999C446.007 386.52 446.932 386.855 447.896 386.98C448.86 387.105 449.84 387.017 450.766 386.722C451.693 386.427 452.544 385.933 453.258 385.274L474.09 396.436L472.973 384.205L453.362 375.481C452.175 374.353 450.616 373.7 448.98 373.646C447.344 373.591 445.745 374.139 444.485 375.184C443.226 376.23 442.394 377.701 442.147 379.32C441.9 380.938 442.255 382.59 443.145 383.964H443.145Z" fill="#FFB7B7"/>
<path d="M458.322 388.232L466.486 376.964L505.813 395.555L554.752 386.373C557.171 385.919 559.66 386.003 562.043 386.62C564.425 387.236 566.643 388.369 568.539 389.939C570.434 391.509 571.961 393.477 573.01 395.703C574.06 397.93 574.606 400.36 574.611 402.821V402.821C574.614 407.266 572.854 411.532 569.716 414.681C566.579 417.83 562.32 419.606 557.874 419.619L501.791 419.723L458.322 388.232Z" fill="#1B67A5"/>
<path d="M445.748 582.86L437.488 578.91L448.834 544.387L461.024 550.218L445.748 582.86Z" fill="#FFB7B7"/>
<path d="M501.122 577.295C500.521 577.671 499.92 578.041 499.314 578.411C498.106 579.151 496.887 579.879 495.668 580.595C495.055 580.953 494.436 581.311 493.823 581.663V581.681L493.787 581.687L493.775 581.693L492.84 581.924L491.5 578.381L490.881 576.749L490.007 574.437L488.406 570.209L479.973 547.944L493.083 544.71L493.574 546.718H493.581L493.823 547.713L498.404 566.29L499.338 570.088L499.368 570.203L499.933 572.472L500.418 574.437L500.958 576.634L501.122 577.295Z" fill="#FFB7B7"/>
<path d="M579.53 499.814C578.695 501.176 577.842 502.532 576.983 503.876C575.387 506.378 573.748 508.843 572.066 511.271C572.066 511.277 572.06 511.277 572.054 511.283C571.073 512.207 569.99 513.011 568.825 513.68C568.777 513.717 568.722 513.742 568.673 513.773C567.816 514.255 566.903 514.627 565.956 514.881C565.615 514.968 565.267 515.055 564.926 515.141C563.696 515.439 562.477 515.693 561.265 515.916C559.108 516.306 556.976 516.584 554.856 516.758C554.685 516.776 554.515 516.789 554.344 516.801C545.626 517.451 537.139 516.405 528.281 514.689C523.907 513.847 519.441 512.838 514.817 511.791C513.306 511.444 511.789 511.104 510.254 510.763C510.138 510.738 510.016 510.707 509.894 510.682C507.701 510.193 505.471 509.71 503.187 509.233C500.311 508.633 497.344 508.05 494.261 507.499L494.481 511.915C494.663 515.312 495.358 518.66 496.54 521.842C497.856 525.756 498.898 528.853 496.698 535.3L495.638 538.421C496.188 539.971 496.376 541.63 496.189 543.266C496.002 544.903 495.444 546.473 494.56 547.853L494.347 548.182L503.187 570.916L503.759 572.39H499.233L493.664 572.397H484.227L470.611 544.627L469.959 543.301V543.233L471.366 489.867C471.385 489.397 471.421 488.92 471.482 488.449C471.73 486.31 472.395 484.242 473.438 482.366C474.481 480.49 475.881 478.844 477.556 477.525C479.161 476.249 481 475.311 482.965 474.765C484.931 474.218 486.983 474.074 489.004 474.341L493.664 474.954L503.187 476.206L509.894 477.091L510.028 477.11L529.81 479.711L531.23 473.827L531.492 473.728L539.82 470.625L568.624 459.893L568.697 459.868L570.592 459.162L570.818 459.534C570.885 459.645 570.952 459.757 571.013 459.868C572.885 463.281 574.41 466.879 575.564 470.607C577.503 476.697 579.1 482.893 580.346 489.168C580.401 489.44 580.45 489.688 580.492 489.911L580.51 489.979C580.529 490.084 580.541 490.152 580.547 490.171C581.211 492.983 580.748 496.414 579.53 499.814Z" fill="#2F5675"/>
<path d="M580.403 480.646C580.312 480.251 580.197 479.849 580.076 479.459C579.114 476.509 577.994 473.615 576.72 470.791C575.29 467.576 573.576 464.133 571.534 460.404C570.547 458.599 569.484 456.722 568.347 454.772C567.778 453.795 567.186 452.8 566.572 451.786C566.548 451.739 566.522 451.694 566.494 451.65L566.318 451.353L537.978 455.223L527.425 456.664L526.795 462.03L526.644 463.36C526.638 463.36 526.638 463.36 526.644 463.366L526.22 466.989V466.995L525.656 471.781L525.608 471.774L509.948 469.703L493.809 467.57L485.14 466.426C483.131 466.159 481.09 466.303 479.136 466.848C477.181 467.394 475.353 468.331 473.757 469.604C472.091 470.922 470.7 472.565 469.663 474.438C468.626 476.31 467.964 478.375 467.717 480.51C467.663 480.943 467.626 481.388 467.608 481.827L459.43 501.606C454.536 513.434 451.419 525.949 450.185 538.726L444.188 558.294L445.042 558.375L457.751 559.58L461.108 559.902L468.498 548.891C469.341 547.636 470.14 546.343 470.885 545.02C472.112 542.859 473.203 540.621 474.151 538.318L490.138 499.491C491.374 499.708 492.597 499.914 493.809 500.11C499.413 501.037 504.792 501.793 509.948 502.379C526.71 504.289 541.226 504.437 554.147 502.818C557.776 502.366 561.284 501.773 564.67 501.037C565.912 500.771 567.138 500.485 568.347 500.178C568.632 500.11 568.911 500.042 569.19 499.967C571.693 499.308 573.995 498.019 575.884 496.217C577.773 494.416 579.189 492.159 580.003 489.655C580.975 486.752 581.113 483.627 580.403 480.646V480.646Z" fill="#2F5675"/>
<path d="M448.388 577.223L439.452 572.94L438.051 572.267L435.812 577.763L420.184 581.203C419.411 581.372 418.713 581.785 418.191 582.379C417.669 582.974 417.351 583.719 417.283 584.508C417.215 585.296 417.401 586.085 417.814 586.76C418.227 587.435 418.845 587.96 419.577 588.259L434.847 594.489L439.695 590.127L438.505 595.982L444.257 598.33L450.56 578.267L448.388 577.223Z" fill="#F2F2F2"/>
<path d="M503.307 568.758L503.877 570.202H503.307V568.758Z" fill="#2F2E41"/>
<path d="M500.194 570.51L490.83 573.755L489.361 574.262L491.637 579.743L482.953 593.184C482.523 593.848 482.317 594.632 482.364 595.422C482.412 596.211 482.71 596.965 483.217 597.573C483.723 598.18 484.411 598.61 485.179 598.799C485.947 598.989 486.756 598.927 487.486 598.624L502.721 592.307L503.096 585.797L506.37 590.794L512.109 588.415L502.472 569.724L500.194 570.51Z" fill="#F2F2F2"/>
<path d="M578.206 488.628C577.65 488.627 577.102 488.492 576.61 488.233L527.198 462.413L526.627 460.076L525.551 452.679L525.566 452.61L530.265 430.944C530.179 430.758 529.999 430.453 529.796 430.108C527.698 426.554 521.313 415.735 533.498 400.839L554.892 375.897L573.254 375.106L573.463 375.37C578.372 381.533 581.684 388.813 583.102 396.563C584.52 404.314 584.002 412.294 581.592 419.796L579.68 454.326L581.731 461.3C582.93 465.398 582.732 469.778 581.168 473.751L581.638 485.043C581.656 485.505 581.581 485.967 581.417 486.4C581.253 486.834 581.003 487.229 580.683 487.564C580.363 487.899 579.978 488.165 579.553 488.348C579.127 488.531 578.669 488.626 578.206 488.628L578.206 488.628Z" fill="#1B67A5"/>
<path d="M535.427 518.325C536.256 517.821 536.967 517.137 537.511 516.32C538.055 515.503 538.418 514.574 538.575 513.597C538.731 512.62 538.678 511.62 538.418 510.667C538.159 509.713 537.699 508.83 537.071 508.08L548.832 487.276L536.693 487.98L527.386 507.627C526.23 508.795 525.53 510.359 525.42 512.022C525.309 513.684 525.796 515.331 526.787 516.65C527.778 517.969 529.205 518.867 530.798 519.176C532.39 519.485 534.038 519.182 535.427 518.325L535.427 518.325Z" fill="#FFB7B7"/>
<path d="M540.138 502.084L529.16 493.534L549.108 454.877L541.633 405.649C541.264 403.215 541.435 400.731 542.134 398.371C542.833 396.011 544.043 393.834 545.678 391.994C547.312 390.154 549.332 388.697 551.594 387.726C553.855 386.754 556.303 386.293 558.763 386.374V386.374C563.206 386.525 567.407 388.433 570.445 391.678C573.483 394.923 575.11 399.241 574.968 403.684L573.122 459.737L540.138 502.084Z" fill="#1B67A5"/>
<path d="M543.115 365.532V347.363C543.111 340.905 545.672 334.711 550.235 330.142C554.798 325.573 560.989 323.004 567.447 323C573.904 322.996 580.098 325.557 584.667 330.12C589.236 334.683 591.805 340.874 591.809 347.331V347.363C596.1 356.305 593.416 360.556 591.809 365.532C591.808 366.399 591.463 367.23 590.85 367.842C590.237 368.455 589.407 368.8 588.54 368.801H546.386C545.519 368.8 544.688 368.456 544.075 367.843C543.462 367.23 543.117 366.399 543.115 365.532V365.532Z" fill="#00BFA6"/>
<path d="M559.479 367.621C569.544 367.621 577.703 359.461 577.703 349.396C577.703 339.331 569.544 331.171 559.479 331.171C549.413 331.171 541.254 339.331 541.254 349.396C541.254 359.461 549.413 367.621 559.479 367.621Z" fill="#FFB7B7"/>
<path d="M578.552 354.174C578.387 354.148 578.222 354.113 578.056 354.087C575.214 353.583 572.371 353.087 569.537 352.574L569.276 346.15L565.842 351.905C558.009 354.504 550.681 353.035 543.787 349.792C541.513 348.713 539.306 347.496 537.18 346.15C537.759 342.597 539.125 339.218 541.178 336.261C543.231 333.304 545.92 330.843 549.046 329.058C549.307 328.911 549.559 328.78 549.82 328.65C549.821 328.65 549.822 328.65 549.823 328.649C549.824 328.649 549.825 328.648 549.826 328.647C549.827 328.646 549.828 328.645 549.828 328.644C549.828 328.643 549.829 328.642 549.829 328.641C550.272 328.432 550.724 328.233 551.176 328.05C554.715 326.667 558.574 326.317 562.305 327.04C566.035 327.763 569.483 329.53 572.249 332.136C577.813 337.448 580.317 346.219 578.552 354.174Z" fill="#00BFA6"/>
<defs>
<clipPath id="clip0_262_41">
<rect width="575" height="355" fill="white" transform="translate(0 163)"/>
</clipPath>
</defs>
</svg>
