<svg width="69" height="69" viewBox="0 0 69 69" fill="none" xmlns="http://www.w3.org/2000/svg">
<ellipse cx="33.964" cy="33.7058" rx="33.9643" ry="33.7063" transform="rotate(-180 33.964 33.7058)" fill="url(#paint0_linear_214_206)"/>
<path d="M47.6527 17.6104L66.7742 41.9914C63.8982 57.4163 46.6259 67.4141 35.9761 67.4141L18.7551 48.8028L33.6836 38.5674L26.8605 32.8494L47.6527 17.6104Z" fill="#737373" fill-opacity="0.47"/>
<rect x="16.686" y="15.9951" width="35.1156" height="35.9914" rx="8" fill="white"/>
<path d="M34.5337 15.9971H43.8036C48.2219 15.9971 51.8036 19.5788 51.8036 23.9971V43.9885C51.8036 48.4068 48.2219 51.9885 43.8036 51.9885H34.5337V15.9971Z" fill="#494949" fill-opacity="0.09"/>
<g clip-path="url(#clip0_214_206)">
<path opacity="0.3" d="M44.1048 32.9042L42.013 32.7549L41.6028 30.7197C41.2688 29.027 40.3526 27.5021 39.0109 26.4057C37.6692 25.3093 35.9853 24.7095 34.2473 24.709C31.4308 24.709 28.8878 26.2558 27.5753 28.7252L26.8917 30.0141L25.4288 30.1634C24.091 30.3107 22.8553 30.9436 21.9593 31.9405C21.0634 32.9374 20.5704 34.2278 20.5752 35.5635C20.5752 38.5621 23.0225 40.9908 26.0441 40.9908H43.8177C46.0736 40.9908 47.9193 39.1591 47.9193 36.9204C47.9193 34.8173 46.2513 33.0399 44.1048 32.9042ZM36.2297 34.2067V38.2772H32.2512V34.2067H28.7785L34.2473 28.7794L39.7161 34.2067H36.2297Z" fill="white"/>
<path d="M44.2977 30.1908C43.8385 27.8811 42.5854 25.8013 40.7526 24.3066C38.9198 22.8119 36.621 21.9951 34.2487 21.9956C30.2975 21.9956 26.8658 24.2208 25.1568 27.4772C23.1474 27.6927 21.289 28.6375 19.9389 30.1302C18.5887 31.6228 17.8421 33.558 17.8423 35.5638C17.8423 40.0549 21.5201 43.7047 26.0455 43.7047H43.8192C47.5927 43.7047 50.6552 40.6654 50.6552 36.9206C50.6552 33.3386 47.8524 30.435 44.2977 30.1908ZM43.8192 40.9911H26.0455C23.024 40.9911 20.5767 38.5624 20.5767 35.5638C20.5767 32.7823 22.6685 30.4622 25.4439 30.1772L26.9069 30.028L27.5905 28.739C28.2192 27.5243 29.1735 26.5054 30.3483 25.7944C31.5231 25.0834 32.8727 24.7079 34.2487 24.7092C37.8308 24.7092 40.9207 27.2329 41.618 30.72L42.0281 32.7552L44.12 32.9044C45.1477 32.973 46.1112 33.4254 46.8164 34.1706C47.5216 34.9158 47.9162 35.8984 47.9208 36.9206C47.9208 39.1594 46.0751 40.9911 43.8192 40.9911ZM28.7799 34.207H32.2663V38.2774H36.2312V34.207H39.7176L34.2487 28.7797L28.7799 34.207Z" fill="url(#paint1_linear_214_206)"/>
</g>
<defs>
<linearGradient id="paint0_linear_214_206" x1="33.964" y1="-0.000411987" x2="33.964" y2="67.4121" gradientUnits="userSpaceOnUse">
<stop stop-color="#3FC997"/>
<stop offset="1" stop-color="#1B68A5"/>
</linearGradient>
<linearGradient id="paint1_linear_214_206" x1="34.2487" y1="21.9956" x2="34.2487" y2="43.7047" gradientUnits="userSpaceOnUse">
<stop stop-color="#1C6CA4"/>
<stop offset="1" stop-color="#3DC498"/>
</linearGradient>
<clipPath id="clip0_214_206">
<rect width="32.8129" height="24.5656" fill="white" transform="translate(17.8423 20.5674)"/>
</clipPath>
</defs>
</svg>
