<svg width="73" height="69" viewBox="0 0 73 69" fill="none" xmlns="http://www.w3.org/2000/svg">
<ellipse cx="35.946" cy="33.7046" rx="35.4256" ry="33.7046" transform="rotate(-180 35.946 33.7046)" fill="url(#paint0_linear_214_141)"/>
<path d="M51.2813 18.1111L70.17 41.9876C67.1701 57.4117 49.1548 67.4091 38.0468 67.4091L20.0858 49.3018L35.6557 38.5638L28.5389 32.8461L51.2813 18.1111Z" fill="#797979" fill-opacity="0.4"/>
<rect x="17.9272" y="15.9922" width="36.6264" height="35.9896" rx="8" fill="white"/>
<path d="M36.5469 15.9946H46.5599C50.9781 15.9946 54.5599 19.5764 54.5599 23.9946V43.9842C54.5599 48.4025 50.9781 51.9842 46.5599 51.9842H36.5469V15.9946Z" fill="#494949" fill-opacity="0.09"/>
<path d="M36.2417 26.5609C45.4075 26.5609 52.4557 30.237 52.4557 34.2745C52.4557 38.3121 45.4022 41.9881 36.2417 41.9881C27.0759 41.9881 20.0278 38.3121 20.0278 34.2745C20.0278 30.237 27.0813 26.5609 36.2417 26.5609ZM36.2417 25.7056C26.7925 25.7056 19.1294 29.5394 19.1294 34.2745C19.1294 39.0096 26.7925 42.8435 36.2417 42.8435C45.691 42.8435 53.3541 39.0096 53.3541 34.2745C53.3541 29.5394 45.691 25.7056 36.2417 25.7056ZM30.7979 33.5872C30.4124 35.4686 29.1366 35.4554 27.5228 35.4386C27.3679 35.437 27.2098 35.4354 27.0492 35.4354L27.7818 31.8408C27.9668 31.8408 28.1464 31.8391 28.3198 31.8374C30.0504 31.8207 31.1576 31.8101 30.7979 33.5872ZM24.338 39.0758H26.3005L26.7658 36.7948C27.0097 36.7948 27.2434 36.7967 27.4678 36.7985C29.2651 36.813 30.4674 36.8226 31.5893 35.8223C32.985 34.6004 33.3487 32.4263 32.354 31.3367C31.8353 30.7665 31.0011 30.4865 29.8674 30.4865H26.0866L24.338 39.0758ZM34.2685 28.2004H36.2203L35.7551 30.4814C35.979 30.4814 36.2007 30.4793 36.4186 30.4773C37.8404 30.464 39.1013 30.4522 39.7551 31.0262C40.4133 31.602 40.2615 32.3117 39.6996 34.9388C39.5859 35.4706 39.4553 36.0809 39.3113 36.7846H37.3326C37.4888 36.0181 37.6209 35.3849 37.7304 34.8598C38.1986 32.6157 38.2545 32.348 38.0118 32.1005C37.7692 31.8524 37.2663 31.8558 36.1703 31.8633C35.9615 31.8647 35.7312 31.8663 35.477 31.8663L34.4717 36.7846H32.5198L34.2685 28.2004ZM46.1348 33.5872C45.7482 35.478 44.4579 35.4608 42.8949 35.4399C42.7282 35.4377 42.5583 35.4354 42.3861 35.4354L43.1188 31.8408C43.3049 31.8408 43.4854 31.8391 43.6595 31.8374C45.3964 31.8207 46.4945 31.8102 46.1348 33.5872ZM39.6749 39.0758H41.6428L42.1081 36.7948C42.3342 36.7948 42.5504 36.796 42.7577 36.7972C44.668 36.808 45.8172 36.8144 46.9316 35.8223C48.3273 34.6004 48.691 32.4263 47.6963 31.3367C47.1776 30.7665 46.3434 30.4865 45.2097 30.4865H41.4289L39.6749 39.0758Z" fill="url(#paint1_linear_214_141)"/>
<path d="M36.2417 26.5609C45.4075 26.5609 52.4557 30.237 52.4557 34.2745C52.4557 38.3121 45.4022 41.9881 36.2417 41.9881C27.0759 41.9881 20.0278 38.3121 20.0278 34.2745C20.0278 30.237 27.0813 26.5609 36.2417 26.5609ZM36.2417 25.7056C26.7925 25.7056 19.1294 29.5394 19.1294 34.2745C19.1294 39.0096 26.7925 42.8435 36.2417 42.8435C45.691 42.8435 53.3541 39.0096 53.3541 34.2745C53.3541 29.5394 45.691 25.7056 36.2417 25.7056ZM30.7979 33.5872C30.4124 35.4686 29.1366 35.4554 27.5228 35.4386C27.3679 35.437 27.2098 35.4354 27.0492 35.4354L27.7818 31.8408C27.9668 31.8408 28.1464 31.8391 28.3198 31.8374C30.0504 31.8207 31.1576 31.8101 30.7979 33.5872ZM24.338 39.0758H26.3005L26.7658 36.7948C27.0097 36.7948 27.2434 36.7967 27.4678 36.7985C29.2651 36.813 30.4674 36.8226 31.5893 35.8223C32.985 34.6004 33.3487 32.4263 32.354 31.3367C31.8353 30.7665 31.0011 30.4865 29.8674 30.4865H26.0866L24.338 39.0758ZM34.2685 28.2004H36.2203L35.7551 30.4814C35.979 30.4814 36.2007 30.4793 36.4186 30.4773C37.8404 30.464 39.1013 30.4522 39.7551 31.0262C40.4133 31.602 40.2615 32.3117 39.6996 34.9388C39.5859 35.4706 39.4553 36.0809 39.3113 36.7846H37.3326C37.4888 36.0181 37.6209 35.3849 37.7304 34.8598C38.1986 32.6157 38.2545 32.348 38.0118 32.1005C37.7692 31.8524 37.2663 31.8558 36.1703 31.8633C35.9615 31.8647 35.7312 31.8663 35.477 31.8663L34.4717 36.7846H32.5198L34.2685 28.2004ZM46.1348 33.5872C45.7482 35.478 44.4579 35.4608 42.8949 35.4399C42.7282 35.4377 42.5583 35.4354 42.3861 35.4354L43.1188 31.8408C43.3049 31.8408 43.4854 31.8391 43.6595 31.8374C45.3964 31.8207 46.4945 31.8102 46.1348 33.5872ZM39.6749 39.0758H41.6428L42.1081 36.7948C42.3342 36.7948 42.5504 36.796 42.7577 36.7972C44.668 36.808 45.8172 36.8144 46.9316 35.8223C48.3273 34.6004 48.691 32.4263 47.6963 31.3367C47.1776 30.7665 46.3434 30.4865 45.2097 30.4865H41.4289L39.6749 39.0758Z" stroke="#44D695"/>
<defs>
<linearGradient id="paint0_linear_214_141" x1="35.946" y1="4.57764e-05" x2="35.946" y2="67.4092" gradientUnits="userSpaceOnUse">
<stop stop-color="#44D695"/>
<stop offset="1" stop-color="#1962A5"/>
</linearGradient>
<linearGradient id="paint1_linear_214_141" x1="29.0728" y1="26.1595" x2="35.6514" y2="43.0731" gradientUnits="userSpaceOnUse">
<stop stop-color="#1A64A5"/>
<stop offset="1" stop-color="#42CF96"/>
</linearGradient>
</defs>
</svg>
