<svg width="73" height="69" viewBox="0 0 73 69" fill="none" xmlns="http://www.w3.org/2000/svg">
<ellipse cx="36.3" cy="33.7069" rx="35.4256" ry="33.7071" transform="rotate(-180 36.3 33.7069)" fill="url(#paint0_linear_214_194)"/>
<path d="M52.1662 17.6086L70.5251 41.9903C67.5253 57.4156 49.5099 67.4138 38.4019 67.4138L20.4401 48.8023L36.0108 38.5663L28.894 32.8481L52.1662 17.6086Z" fill="#5C5C5C" fill-opacity="0.35"/>
<rect x="18.2861" y="15.9946" width="36.6265" height="35.9924" rx="8" fill="white"/>
<path d="M36.9014 15.9971H46.9144C51.3327 15.9971 54.9144 19.5788 54.9144 23.9971V43.9894C54.9144 48.4077 51.3327 51.9894 46.9144 51.9894H36.9014V15.9971Z" fill="#494949" fill-opacity="0.09"/>
<g clip-path="url(#clip0_214_194)">
<path d="M36.198 21.6791C36.155 21.6865 36.1126 21.6965 36.071 21.7091C35.8416 21.758 35.6371 21.8811 35.4924 22.0574C35.3477 22.2337 35.2717 22.4523 35.2774 22.6759V23.6428H26.1323C25.3239 23.6428 24.5485 23.9484 23.9768 24.4923C23.4051 25.0362 23.084 25.774 23.084 26.5433V39.112C23.084 40.7131 24.4496 42.0125 26.1323 42.0125H35.2774V42.3751L29.7518 45.0039C29.5076 45.116 29.3203 45.3159 29.231 45.5595C29.1417 45.8031 29.1578 46.0705 29.2757 46.3028C29.3936 46.5351 29.6037 46.7133 29.8597 46.7983C30.1157 46.8832 30.3967 46.8679 30.6409 46.7558L35.2774 44.5504V44.913C35.2774 45.1694 35.3845 45.4153 35.575 45.5966C35.7656 45.7779 36.024 45.8798 36.2935 45.8798C36.563 45.8798 36.8215 45.7779 37.012 45.5966C37.2026 45.4153 37.3096 45.1694 37.3096 44.913V44.5504L41.9462 46.7558C42.1904 46.8679 42.4714 46.8832 42.7274 46.7983C42.9834 46.7133 43.1935 46.5351 43.3114 46.3028C43.4293 46.0705 43.4453 45.8031 43.3561 45.5595C43.2668 45.3159 43.0795 45.116 42.8353 45.0039L37.3096 42.3751V42.0125H46.4547C48.1374 42.0125 49.5031 40.7131 49.5031 39.112V26.5433C49.5031 25.774 49.1819 25.0362 48.6102 24.4923C48.0386 23.9484 47.2632 23.6428 46.4547 23.6428H37.3096V22.6759C37.3148 22.5385 37.289 22.4015 37.2341 22.2743C37.1791 22.147 37.0963 22.0324 36.9911 21.938C36.8858 21.8437 36.7607 21.7718 36.6239 21.7271C36.4872 21.6825 36.342 21.6661 36.198 21.6791V21.6791ZM25.1162 26.5433H47.4708V39.112H25.1162V26.5433ZM44.2955 27.5101C44.0679 27.5334 43.8552 27.6291 43.6919 27.7818L40.358 30.9549L38.0402 28.7476C37.9292 28.6393 37.7931 28.5572 37.6426 28.508C37.4922 28.4589 37.3318 28.444 37.1742 28.4646C37.0167 28.4852 36.8664 28.5407 36.7355 28.6266C36.6046 28.7125 36.4967 28.8265 36.4205 28.9594L33.4037 33.9753L32.165 31.0139C32.1049 30.861 32.005 30.725 31.8748 30.6188C31.7445 30.5125 31.5881 30.4394 31.4201 30.4062C31.2521 30.373 31.078 30.3808 30.914 30.4289C30.75 30.477 30.6015 30.5638 30.4823 30.6813L27.434 33.5818C27.3379 33.6731 27.2617 33.7816 27.2097 33.901C27.1576 34.0203 27.1308 34.1483 27.1308 34.2775C27.1308 34.4068 27.1575 34.5347 27.2094 34.6542C27.2613 34.7736 27.3375 34.8821 27.4335 34.9735C27.5295 35.0649 27.6435 35.1375 27.769 35.1869C27.8944 35.2364 28.0289 35.2619 28.1647 35.262C28.3006 35.262 28.4351 35.2366 28.5606 35.1872C28.6861 35.1378 28.8001 35.0653 28.8962 34.974L30.8329 33.1312L32.2941 36.5751C32.363 36.7478 32.4826 36.8981 32.6385 37.0082C32.7945 37.1183 32.9803 37.1835 33.174 37.1962C33.3678 37.2089 33.5613 37.1686 33.7316 37.0799C33.902 36.9912 34.0421 36.858 34.1353 36.6959L37.5332 31.0458L39.6284 33.0403C39.7232 33.1336 39.8367 33.2078 39.9622 33.2584C40.0877 33.3091 40.2227 33.3352 40.359 33.3352C40.4954 33.3352 40.6303 33.3091 40.7558 33.2584C40.8813 33.2078 40.9949 33.1336 41.0896 33.0403L45.1541 29.173C45.3146 29.0316 45.4229 28.8447 45.4628 28.6401C45.5028 28.4355 45.4722 28.224 45.3758 28.0372C45.2793 27.8504 45.1221 27.6982 44.9275 27.6033C44.7328 27.5083 44.5112 27.4756 44.2955 27.5101Z" fill="url(#paint1_linear_214_194)"/>
</g>
<defs>
<linearGradient id="paint0_linear_214_194" x1="36.3" y1="-0.000213623" x2="36.3" y2="67.4141" gradientUnits="userSpaceOnUse">
<stop stop-color="#43D296"/>
<stop offset="1" stop-color="#1A65A5"/>
</linearGradient>
<linearGradient id="paint1_linear_214_194" x1="25.7237" y1="24.1496" x2="44.7029" y2="46.7209" gradientUnits="userSpaceOnUse">
<stop stop-color="#1C6BA4"/>
<stop offset="1" stop-color="#44D695"/>
</linearGradient>
<clipPath id="clip0_214_194">
<rect width="26.4191" height="25.1375" fill="white" transform="translate(23.084 21.709)"/>
</clipPath>
</defs>
</svg>
