<svg width="73" height="69" viewBox="0 0 73 69" fill="none" xmlns="http://www.w3.org/2000/svg">
<ellipse cx="36.4244" cy="33.6823" rx="35.4266" ry="33.6824" transform="rotate(-180 36.4244 33.6823)" fill="url(#paint0_linear_214_234)"/>
<path d="M52.9321 17.1276L70.6453 41.9612C67.6454 57.3752 49.6296 67.366 38.5212 67.366L20.0315 48.7683L36.13 38.5397L29.013 32.8257L52.9321 17.1276Z" fill="#767676" fill-opacity="0.32"/>
<rect x="18.3979" y="15.9829" width="36.6275" height="35.966" rx="8" fill="white"/>
<path d="M38.0588 22.9873L46.5691 24.9416C46.9316 25.0235 47.2529 25.2164 47.4799 25.4886C47.7069 25.7607 47.8261 26.0958 47.8179 26.4386C47.3284 43.1154 36.7099 45.67 36.7099 45.67C36.7099 45.67 26.0915 43.1154 25.602 26.4386C25.5936 26.0962 25.7124 25.7613 25.9389 25.4892C26.1654 25.2171 26.486 25.024 26.8479 24.9416L35.3583 22.9873C36.2448 22.7835 37.1723 22.7835 38.0588 22.9873V22.9873Z" fill="white" stroke="url(#paint1_linear_214_234)" stroke-width="3.5" stroke-linecap="round" stroke-linejoin="round"/>
<path d="M37.0132 15.9849H47.0267C51.445 15.9849 55.0267 19.5666 55.0267 23.9849V43.9508C55.0267 48.3691 51.445 51.9508 47.0267 51.9508H37.0132V15.9849Z" fill="#494949" fill-opacity="0.09"/>
<defs>
<linearGradient id="paint0_linear_214_234" x1="36.4244" y1="-0.000114441" x2="36.4244" y2="67.3647" gradientUnits="userSpaceOnUse">
<stop stop-color="#44D695"/>
<stop offset="1" stop-color="#185FA5"/>
</linearGradient>
<linearGradient id="paint1_linear_214_234" x1="27.9563" y1="23.1276" x2="39.1203" y2="50.1855" gradientUnits="userSpaceOnUse">
<stop stop-color="#1A65A4"/>
<stop offset="1" stop-color="#44D695"/>
</linearGradient>
</defs>
</svg>
