<svg width="435" height="433" viewBox="0 0 435 433" fill="none" xmlns="http://www.w3.org/2000/svg">
<path d="M101.139 0C69.8073 7.93582 61.1006 16.4044 55.6279 36.0747L73.6755 378H407.164C427.902 366.931 434.265 350.44 434.628 299.577C424.333 197.51 411.769 139.329 393.04 36.0747C383.596 21.7603 381.543 12.2025 344.39 10.9793L101.139 0Z" fill="url(#paint0_linear_224_508)"/>
<path d="M0.62793 337.695L38.1479 55.5321C47.1267 34.2465 55.1274 24.4931 81.671 13.5078C165.554 5.63801 233.499 3.95855 347.312 0C376.645 8.8112 394.238 13.5281 408.845 55.5321C412.328 169.345 415.995 250.574 415.598 324.938C414.4 357.978 407.046 371.127 381.08 384.222C223.725 413.091 137.615 428.655 63.6614 433C19.065 419.114 0.955128 399.961 0.62793 337.695Z" fill="#00173E"/>
<defs>
<linearGradient id="paint0_linear_224_508" x1="245.128" y1="0" x2="245.128" y2="378" gradientUnits="userSpaceOnUse">
<stop stop-color="#1E6AA1"/>
<stop offset="1" stop-color="#59D0A5"/>
</linearGradient>
</defs>
</svg>
