<svg width="346" height="406" viewBox="0 0 346 406" fill="none" xmlns="http://www.w3.org/2000/svg">
<path d="M37.6868 78.379C40.7256 156.216 42.7452 198.621 49.3207 262.625C54.883 287.099 60.7669 297.226 79.8597 304.134C155.897 325.839 209.237 343.216 271.092 358.024C296.277 357.42 305.255 350.859 313.265 336.177C326.953 284.391 329.512 227.689 339.442 155.573C340.773 127.761 335.267 116.465 313.265 104.596C232.658 70.7466 115.489 24.489 115.489 24.489C115.489 24.489 93.0918 13.7125 79.8597 16.4784C64.3842 21.3314 57.6517 26.7048 49.3207 37.5974C39.7095 50.4499 37.1921 59.3868 37.6868 78.379Z" fill="url(#paint0_linear_224_506)"/>
<g filter="url(#filter0_d_224_506)">
<path d="M33.8197 76.8502C26.8797 154.437 23.4599 196.752 21.7966 261.071C24.1834 286.056 28.724 296.852 46.7766 306.145C119.414 337.395 170.093 361.451 229.548 384.048C254.602 386.669 264.346 381.31 274.168 367.773C294.365 318.162 304.155 262.253 323.225 191.999C328.102 164.586 324.087 152.679 303.783 138.093C228.166 94.2136 117.874 33.352 117.874 33.352C117.874 33.352 97.0395 19.7999 83.5624 20.8509C67.5933 23.685 60.2289 28.1534 50.5733 37.8912C39.3974 49.409 35.7579 57.9507 33.8197 76.8502Z" fill="current"/>
<path d="M33.8197 76.8502C26.8797 154.437 23.4599 196.752 21.7966 261.071C24.1834 286.056 28.724 296.852 46.7766 306.145C119.414 337.395 170.093 361.451 229.548 384.048C254.602 386.669 264.346 381.31 274.168 367.773C294.365 318.162 304.155 262.253 323.225 191.999C328.102 164.586 324.087 152.679 303.783 138.093C228.166 94.2136 117.874 33.352 117.874 33.352C117.874 33.352 97.0395 19.7999 83.5624 20.8509C67.5933 23.685 60.2289 28.1534 50.5733 37.8912C39.3974 49.409 35.7579 57.9507 33.8197 76.8502Z" stroke="#EDEDED"/>
</g>
<defs>
<filter id="filter0_d_224_506" x="1.2959" y="0.292969" width="344.304" height="404.899" filterUnits="userSpaceOnUse" color-interpolation-filters="sRGB">
<feFlood flood-opacity="0" result="BackgroundImageFix"/>
<feColorMatrix in="SourceAlpha" type="matrix" values="0 0 0 0 0 0 0 0 0 0 0 0 0 0 0 0 0 0 127 0" result="hardAlpha"/>
<feOffset/>
<feGaussianBlur stdDeviation="10"/>
<feComposite in2="hardAlpha" operator="out"/>
<feColorMatrix type="matrix" values="0 0 0 0 0 0 0 0 0 0 0 0 0 0 0 0 0 0 0.1 0"/>
<feBlend mode="normal" in2="BackgroundImageFix" result="effect1_dropShadow_224_506"/>
<feBlend mode="normal" in="SourceGraphic" in2="effect1_dropShadow_224_506" result="shape"/>
</filter>
<linearGradient id="paint0_linear_224_506" x1="188.628" y1="16.0244" x2="188.628" y2="358.024" gradientUnits="userSpaceOnUse">
<stop stop-color="#1B67A4"/>
<stop offset="1" stop-color="#5CD6A5"/>
</linearGradient>
</defs>
</svg>
