<svg width="346" height="405" viewBox="0 0 346 405" fill="none" xmlns="http://www.w3.org/2000/svg">
<g filter="url(#filter0_d_224_507)">
<path d="M311.44 76.8502C318.38 154.437 321.8 196.752 323.463 261.071C321.077 286.056 316.536 296.852 298.483 306.145C225.845 337.395 175.165 361.451 115.71 384.048C90.6547 386.669 80.9107 381.31 71.0888 367.773C50.8912 318.162 41.1011 262.253 22.0309 191.999C17.1542 164.586 21.1698 152.679 41.4735 138.093C117.091 94.2136 227.385 33.352 227.385 33.352C227.385 33.352 248.22 19.7999 261.697 20.8509C277.666 23.685 285.031 28.1534 294.686 37.8912C305.862 49.409 309.502 57.9507 311.44 76.8502Z" fill="url(#paint0_linear_224_507)"/>
</g>
<path d="M307.941 78.379C304.902 156.216 302.883 198.621 296.307 262.625C290.745 287.099 284.861 297.226 265.768 304.134C189.73 325.839 136.389 343.216 74.5327 358.024C49.348 357.42 40.3693 350.859 32.3592 336.177C18.6718 284.391 16.1119 227.689 6.18256 155.573C4.85159 127.761 10.3569 116.465 32.3592 104.596C112.967 70.7466 230.138 24.489 230.138 24.489C230.138 24.489 252.535 13.7125 265.768 16.4784C281.243 21.3314 287.976 26.7048 296.307 37.5974C305.918 50.4499 308.436 59.3868 307.941 78.379Z" fill="white" stroke="#EDEDED"/>
<defs>
<filter id="filter0_d_224_507" x="0.15625" y="0.792969" width="343.308" height="403.899" filterUnits="userSpaceOnUse" color-interpolation-filters="sRGB">
<feFlood flood-opacity="0" result="BackgroundImageFix"/>
<feColorMatrix in="SourceAlpha" type="matrix" values="0 0 0 0 0 0 0 0 0 0 0 0 0 0 0 0 0 0 127 0" result="hardAlpha"/>
<feOffset/>
<feGaussianBlur stdDeviation="10"/>
<feComposite in2="hardAlpha" operator="out"/>
<feColorMatrix type="matrix" values="0 0 0 0 0 0 0 0 0 0 0 0 0 0 0 0 0 0 0.1 0"/>
<feBlend mode="normal" in2="BackgroundImageFix" result="effect1_dropShadow_224_507"/>
<feBlend mode="normal" in="SourceGraphic" in2="effect1_dropShadow_224_507" result="shape"/>
</filter>
<linearGradient id="paint0_linear_224_507" x1="153.762" y1="34.3101" x2="197.497" y2="373.502" gradientUnits="userSpaceOnUse">
<stop stop-color="#1E6BA1"/>
<stop offset="1" stop-color="#56CBA5"/>
</linearGradient>
</defs>
</svg>
