<svg width="71" height="74" viewBox="0 0 71 74" fill="none" xmlns="http://www.w3.org/2000/svg">
<path d="M32.656 28.4V22.466H43.742V56H37.118V28.4H32.656Z" fill="white"/>
<ellipse cx="34.8056" cy="33.6823" rx="34.8057" ry="33.6824" transform="rotate(-180 34.8056 33.6823)" fill="url(#paint0_linear_261_2179)"/>
<path d="M51.023 17.1276L68.4258 41.9612C65.4785 57.3752 47.7784 67.366 36.8647 67.366L18.699 48.7683L34.5154 38.5397L27.5232 32.8257L51.023 17.1276Z" fill="#767676" fill-opacity="0.32"/>
<rect x="17.0977" y="15.9824" width="35.9856" height="35.966" rx="8" fill="white"/>
<path d="M35.3867 15.9844H45.0846C49.5028 15.9844 53.0846 19.5661 53.0846 23.9844V43.9504C53.0846 48.3686 49.5028 51.9504 45.0846 51.9504H35.3867V15.9844Z" fill="#494949" fill-opacity="0.09"/>
<path d="M29.296 25.4V20.756H37.972V47H32.788V25.4H29.296Z" fill="url(#paint1_linear_261_2179)"/>
<defs>
<linearGradient id="paint0_linear_261_2179" x1="34.8056" y1="-0.000114441" x2="34.8056" y2="67.3647" gradientUnits="userSpaceOnUse">
<stop stop-color="#44D695"/>
<stop offset="1" stop-color="#185FA5"/>
</linearGradient>
<linearGradient id="paint1_linear_261_2179" x1="35" y1="7" x2="35" y2="61" gradientUnits="userSpaceOnUse">
<stop stop-color="#1963A4"/>
<stop offset="1" stop-color="#44D695"/>
</linearGradient>
</defs>
</svg>
