<svg width="71" height="74" viewBox="0 0 71 74" fill="none" xmlns="http://www.w3.org/2000/svg">
<path d="M32.656 28.4V22.466H43.742V56H37.118V28.4H32.656Z" fill="white"/>
<ellipse cx="34.8056" cy="33.6823" rx="34.8057" ry="33.6824" transform="rotate(-180 34.8056 33.6823)" fill="url(#paint0_linear_261_2203)"/>
<path d="M51.023 17.1276L68.4258 41.9612C65.4785 57.3752 47.7784 67.366 36.8647 67.366L18.699 48.7683L34.5154 38.5397L27.5232 32.8257L51.023 17.1276Z" fill="#767676" fill-opacity="0.32"/>
<rect x="17.0977" y="15.9824" width="35.9856" height="35.966" rx="8" fill="white"/>
<path d="M35.3867 15.9844H45.0846C49.5028 15.9844 53.0846 19.5661 53.0846 23.9844V43.9504C53.0846 48.3686 49.5028 51.9504 45.0846 51.9504H35.3867V15.9844Z" fill="#494949" fill-opacity="0.09"/>
<path d="M26.98 27.668C27.1 25.268 27.94 23.42 29.5 22.124C31.084 20.804 33.16 20.144 35.728 20.144C37.48 20.144 38.98 20.456 40.228 21.08C41.476 21.68 42.412 22.508 43.036 23.564C43.684 24.596 44.008 25.772 44.008 27.092C44.008 28.604 43.612 29.888 42.82 30.944C42.052 31.976 41.128 32.672 40.048 33.032V33.176C41.44 33.608 42.52 34.376 43.288 35.48C44.08 36.584 44.476 38 44.476 39.728C44.476 41.168 44.14 42.452 43.468 43.58C42.82 44.708 41.848 45.596 40.552 46.244C39.28 46.868 37.744 47.18 35.944 47.18C33.232 47.18 31.024 46.496 29.32 45.128C27.616 43.76 26.716 41.744 26.62 39.08H31.516C31.564 40.256 31.96 41.204 32.704 41.924C33.472 42.62 34.516 42.968 35.836 42.968C37.06 42.968 37.996 42.632 38.644 41.96C39.316 41.264 39.652 40.376 39.652 39.296C39.652 37.856 39.196 36.824 38.284 36.2C37.372 35.576 35.956 35.264 34.036 35.264H32.992V31.124H34.036C37.444 31.124 39.148 29.984 39.148 27.704C39.148 26.672 38.836 25.868 38.212 25.292C37.612 24.716 36.736 24.428 35.584 24.428C34.456 24.428 33.58 24.74 32.956 25.364C32.356 25.964 32.008 26.732 31.912 27.668H26.98Z" fill="url(#paint1_linear_261_2203)"/>
<defs>
<linearGradient id="paint0_linear_261_2203" x1="34.8056" y1="-0.000114441" x2="34.8056" y2="67.3647" gradientUnits="userSpaceOnUse">
<stop stop-color="#44D695"/>
<stop offset="1" stop-color="#185FA5"/>
</linearGradient>
<linearGradient id="paint1_linear_261_2203" x1="36" y1="7" x2="36" y2="61" gradientUnits="userSpaceOnUse">
<stop stop-color="#1963A4"/>
<stop offset="1" stop-color="#44D695"/>
</linearGradient>
</defs>
</svg>
