<svg width="71" height="74" viewBox="0 0 71 74" fill="none" xmlns="http://www.w3.org/2000/svg">
<path d="M32.656 28.4V22.466H43.742V56H37.118V28.4H32.656Z" fill="white"/>
<ellipse cx="34.8056" cy="33.6823" rx="34.8057" ry="33.6824" transform="rotate(-180 34.8056 33.6823)" fill="url(#paint0_linear_261_2191)"/>
<path d="M51.023 17.1276L68.4258 41.9612C65.4785 57.3752 47.7784 67.366 36.8647 67.366L18.699 48.7683L34.5154 38.5397L27.5232 32.8257L51.023 17.1276Z" fill="#767676" fill-opacity="0.32"/>
<rect x="17.0977" y="15.9824" width="35.9856" height="35.966" rx="8" fill="white"/>
<path d="M35.3867 15.9844H45.0846C49.5028 15.9844 53.0846 19.5661 53.0846 23.9844V43.9504C53.0846 48.3686 49.5028 51.9504 45.0846 51.9504H35.3867V15.9844Z" fill="#494949" fill-opacity="0.09"/>
<path d="M28.492 41.312C30.796 39.392 32.632 37.796 34 36.524C35.368 35.228 36.508 33.884 37.42 32.492C38.332 31.1 38.788 29.732 38.788 28.388C38.788 27.164 38.5 26.204 37.924 25.508C37.348 24.812 36.46 24.464 35.26 24.464C34.06 24.464 33.136 24.872 32.488 25.688C31.84 26.48 31.504 27.572 31.48 28.964H26.584C26.68 26.084 27.532 23.9 29.14 22.412C30.772 20.924 32.836 20.18 35.332 20.18C38.068 20.18 40.168 20.912 41.632 22.376C43.096 23.816 43.828 25.724 43.828 28.1C43.828 29.972 43.324 31.76 42.316 33.464C41.308 35.168 40.156 36.656 38.86 37.928C37.564 39.176 35.872 40.688 33.784 42.464H44.404V46.64H26.62V42.896L28.492 41.312Z" fill="url(#paint1_linear_261_2191)"/>
<defs>
<linearGradient id="paint0_linear_261_219" x1="34.8056" y1="-0.000114441" x2="34.8056" y2="67.3647" gradientUnits="userSpaceOnUse">
<stop stop-color="#44D695"/>
<stop offset="1" stop-color="#185FA5"/>
</linearGradient>
<linearGradient id="paint1_linear_261_2191" x1="35.5" y1="7" x2="35.5" y2="61" gradientUnits="userSpaceOnUse">
<stop stop-color="#1963A4"/>
<stop offset="1" stop-color="#44D695"/>
</linearGradient>
</defs>
</svg>
