<svg width="67" height="67" viewBox="0 0 67 67" fill="none" xmlns="http://www.w3.org/2000/svg">
<ellipse cx="32.9786" cy="32.7298" rx="32.9784" ry="32.7301" transform="rotate(-180 32.9786 32.7298)" fill="url(#paint0_linear_285_4080)"/>
<path d="M47.7479 17.0984L64.8386 40.7735C62.046 55.7516 45.2752 65.46 34.9345 65.46L18.2135 47.3879L32.7085 37.4487L26.0834 31.8963L47.7479 17.0984Z" fill="#5C5C5C" fill-opacity="0.35"/>
<rect x="16.207" y="15.5312" width="34.0963" height="34.9491" rx="8" fill="white"/>
<path d="M33.5371 15.5332H42.3058C46.7241 15.5332 50.3058 19.1149 50.3058 23.5332V42.4823C50.3058 46.9006 46.7241 50.4823 42.3058 50.4823H33.5371V15.5332Z" fill="#494949" fill-opacity="0.09"/>
<path d="M44.3613 30.8257V40.6696L38.8413 35.3541L37.7838 36.3724L43.2063 41.6013H24.6063L29.8563 36.3724L28.7763 35.3685L23.3613 40.7635V28.2546L32.6838 37.1885C32.9649 37.4575 33.345 37.6085 33.7413 37.6085C34.1376 37.6085 34.5178 37.4575 34.7988 37.1885L41.4213 30.8474C40.8928 30.7146 40.3874 30.5077 39.9213 30.2335L33.7263 36.163L24.3438 27.1568H37.4688C37.3238 26.6877 37.2456 26.2018 37.2363 25.7124H23.3613C22.9635 25.7124 22.582 25.8646 22.3007 26.1355C22.0194 26.4064 21.8613 26.7738 21.8613 27.1568V41.6013C21.8613 41.9844 22.0194 42.3518 22.3007 42.6227C22.582 42.8936 22.9635 43.0457 23.3613 43.0457H44.3613C44.7592 43.0457 45.1407 42.8936 45.422 42.6227C45.7033 42.3518 45.8613 41.9844 45.8613 41.6013V30.1902C45.3965 30.4719 44.891 30.686 44.3613 30.8257Z" fill="url(#paint1_linear_285_4080)"/>
<path d="M42.8613 29.2222C44.9324 29.2222 46.6113 27.6055 46.6113 25.6111C46.6113 23.6167 44.9324 22 42.8613 22C40.7903 22 39.1113 23.6167 39.1113 25.6111C39.1113 27.6055 40.7903 29.2222 42.8613 29.2222Z" fill="url(#paint2_linear_285_4080)"/>
<defs>
<linearGradient id="paint0_linear_285_4080" x1="32.9786" y1="-0.000274658" x2="32.9786" y2="65.46" gradientUnits="userSpaceOnUse">
<stop stop-color="#43D296"/>
<stop offset="1" stop-color="#1A65A5"/>
</linearGradient>
<linearGradient id="paint1_linear_285_4080" x1="33.8613" y1="25.7124" x2="33.8613" y2="43.0457" gradientUnits="userSpaceOnUse">
<stop stop-color="#1962A4"/>
<stop offset="1" stop-color="#44D695"/>
</linearGradient>
<linearGradient id="paint2_linear_285_4080" x1="42.8613" y1="22" x2="42.5365" y2="35.0668" gradientUnits="userSpaceOnUse">
<stop stop-color="#1962A4"/>
<stop offset="1" stop-color="#44D695"/>
</linearGradient>
</defs>
</svg>
