<svg width="491" height="350" viewBox="0 0 491 350" fill="none" xmlns="http://www.w3.org/2000/svg">
<g clip-path="url(#clip0_264_950)">
<path d="M448.337 314.856C452.643 322.466 448.992 348.169 448.992 348.169C448.992 348.169 425.079 338.049 420.773 330.442C418.71 326.788 418.183 322.465 419.307 318.423C420.431 314.38 423.114 310.949 426.767 308.883C430.42 306.818 434.744 306.286 438.788 307.406C442.833 308.526 446.267 311.206 448.337 314.856V314.856Z" fill="#00BFA6"/>
<path d="M449.339 348.136L448.831 348.243C443.938 325.003 426.852 309.243 426.68 309.086L427.029 308.702C427.202 308.86 444.411 324.727 449.339 348.136Z" fill="white"/>
<path d="M487.465 323.521C481.622 334.118 448.676 348.475 448.676 348.475C448.676 348.475 443.245 312.958 449.085 302.363C451.891 297.275 456.604 293.51 462.188 291.896C467.771 290.281 473.767 290.951 478.856 293.756C483.946 296.562 487.712 301.274 489.327 306.856C490.941 312.438 490.272 318.432 487.465 323.521Z" fill="#00BFA6"/>
<path d="M448.968 348.86L448.473 348.34C472.313 325.704 478.484 294.135 478.544 293.818L479.25 293.951C479.19 294.27 472.981 326.061 448.968 348.86Z" fill="white"/>
<path d="M115.434 243.273C111.664 243.261 107.91 242.775 104.261 241.828L103.542 241.629L102.874 241.295C78.7508 229.203 58.3991 213.231 42.3845 193.823C29.1277 177.662 18.7921 159.314 11.8425 139.602C3.53181 116.003 -0.466436 91.102 0.038608 66.0878C0.0487988 65.5627 0.0574235 65.1573 0.0574235 64.878C0.0574235 52.7184 6.80854 42.0493 17.2567 37.6969C25.2531 34.3659 97.8573 4.55167 103.103 2.39751C112.982 -2.55147 123.522 1.57923 125.209 2.30158C128.992 3.84796 196.11 31.2934 210.614 38.1983C225.562 45.3146 229.55 58.0989 229.55 64.5309C229.55 93.6506 224.506 120.865 214.557 145.419C206.522 165.293 195.135 183.641 180.89 199.663C153.407 230.584 125.916 241.546 125.651 241.643C122.365 242.773 118.909 243.325 115.434 243.273ZM108.97 227.263C111.353 227.798 116.84 228.599 120.417 227.295C124.96 225.638 147.969 213.709 169.471 189.519C199.178 156.095 214.252 114.08 214.274 64.6383C214.221 63.6367 213.509 56.4925 204.046 51.9876C189.823 45.2163 120.06 16.697 119.357 16.4096L119.164 16.3279C117.702 15.7154 113.049 14.4252 109.842 16.1055L109.2 16.4048C108.422 16.7241 31.3519 48.3708 23.1323 51.7948C17.3825 54.1899 15.3338 60.1236 15.3338 64.878C15.3338 65.2255 15.3248 65.7309 15.3121 66.3841C14.6552 100.214 22.4855 183.458 108.97 227.263Z" fill="#3F3D56"/>
<path d="M106.298 9.34101C106.298 9.34101 28.5273 41.2748 20.1948 44.7459C11.8622 48.2169 7.69589 56.5475 7.69589 64.878C7.69589 73.2086 1.44648 181.911 106.298 234.469C106.298 234.469 115.814 237.101 123.034 234.469C130.254 231.836 221.912 187.407 221.912 64.5309C221.912 64.5309 221.912 52.0351 207.33 45.093C192.748 38.1508 122.247 9.34101 122.247 9.34101C122.247 9.34101 113.589 5.52284 106.298 9.34101Z" fill="#00BFA6"/>
<path opacity="0.1" d="M114.631 34.333V204.688C114.631 204.688 36.1657 166.928 36.8601 67.6552L114.631 34.333Z" fill="black"/>
<path d="M115.655 156.769L90.6602 124.639L105.196 113.336L117.031 128.549L157.012 86.354L170.382 99.0181L115.655 156.769Z" fill="white"/>
<path d="M490.4 349.999H262.006C261.847 349.999 261.694 349.936 261.582 349.824C261.469 349.711 261.406 349.559 261.406 349.4C261.406 349.241 261.469 349.089 261.582 348.976C261.694 348.864 261.847 348.801 262.006 348.801H490.4C490.559 348.801 490.711 348.864 490.824 348.976C490.936 349.089 490.999 349.241 490.999 349.4C490.999 349.559 490.936 349.711 490.824 349.824C490.711 349.936 490.559 349.999 490.4 349.999Z" fill="#CACACA"/>
<path d="M328.029 340.553L337.3 340.553L341.711 304.802L328.027 304.802L328.029 340.553Z" fill="#FFB8B8"/>
<path d="M325.664 337.527L343.922 337.526H343.923C347.009 337.527 349.968 338.752 352.15 340.934C354.332 343.115 355.558 346.074 355.558 349.159V349.537L325.665 349.538L325.664 337.527Z" fill="#2F2E41"/>
<path d="M359.201 340.553L368.472 340.553L372.882 304.802L359.199 304.802L359.201 340.553Z" fill="#FFB8B8"/>
<path d="M356.836 337.527L375.094 337.526H375.095C378.181 337.527 381.14 338.752 383.322 340.934C385.504 343.115 386.73 346.074 386.73 349.159V349.537L356.836 349.538L356.836 337.527Z" fill="#2F2E41"/>
<path d="M342.599 215.004L344.823 328.425L326.833 327.309L314.352 255.067L310.41 205.81L342.599 215.004Z" fill="#2F5675"/>
<path d="M373.474 195.959L375.995 330.223L355.014 329.623L350.482 249.812L342.599 220.915L310.41 205.81L315.665 169.689L362.963 169.032L373.474 195.959Z" fill="#2F5675"/>
<path d="M337.301 75.7727C346.187 75.7727 353.39 68.5714 353.39 59.6881C353.39 50.8048 346.187 43.6035 337.301 43.6035C328.416 43.6035 321.213 50.8048 321.213 59.6881C321.213 68.5714 328.416 75.7727 337.301 75.7727Z" fill="#FFB8B8"/>
<path d="M350.647 82.5483L353.111 86.2809L359.681 104.67L354.425 176.255L323.55 176.913L319.609 94.8181L327.866 84.5003L350.647 82.5483Z" fill="#00BFA6"/>
<path d="M307.125 96.7886L301.87 96.1318C301.87 96.1318 300.556 96.7886 299.899 101.386C299.242 105.983 291.359 146.702 291.359 146.702L301.87 196.615L313.694 180.853L306.468 153.269L313.694 125.686L307.125 96.7886Z" fill="#2F5675"/>
<path d="M374.131 96.1328H378.072L387.926 149.329L378.729 190.705L369.532 175.6L372.16 159.181L370.847 144.732L366.248 136.194L374.131 96.1328Z" fill="#2F5675"/>
<path d="M346.81 59.6881L343.884 58.957C343.884 58.957 341.69 46.528 336.571 47.9902C331.452 49.4524 318.289 50.9147 318.289 45.0657C318.289 39.2168 330.721 34.099 338.034 34.8301C345.347 35.5612 354.687 37.9867 357.048 48.7213C360.832 65.9294 349.239 70.276 349.239 70.276L349.432 69.6494C349.967 67.9097 350.006 66.055 349.542 64.2947C349.079 62.5344 348.132 60.9387 346.81 59.6881V59.6881Z" fill="#2F2E41"/>
<path d="M302.527 96.1319L323.549 87.5941L328.475 83.982L343.256 149.329L350.153 82.0117L377.415 96.1319L368.219 140.791L366.905 157.867L370.846 171.659C370.846 171.659 384.641 181.51 380.043 192.018C375.445 202.526 370.189 203.183 370.189 203.183C370.189 203.183 347.854 182.167 346.54 176.913C345.227 171.659 343.256 162.464 343.256 162.464C343.256 162.464 332.088 204.496 318.95 203.839C305.812 203.183 305.812 189.391 305.812 189.391L309.097 174.942L314.352 159.837L311.724 134.88L302.527 96.1319Z" fill="#2F5675"/>
</g>
<defs>
<clipPath id="clip0_264_950">
<rect width="491" height="350" fill="white"/>
</clipPath>
</defs>
</svg>
