<svg width="360" height="430" viewBox="0 0 360 430" fill="none" xmlns="http://www.w3.org/2000/svg">
<path d="M67.3848 376.463L88.6189 376.462H88.6198C92.2086 376.463 95.6504 377.937 98.1881 380.56C100.726 383.184 102.152 386.743 102.152 390.453V390.908L67.3854 390.909L67.3848 376.463Z" fill="#2F2E41"/>
<path d="M103 376.463L123.716 376.462H123.717C127.218 376.463 130.576 377.937 133.052 380.56C135.528 383.184 136.919 386.743 136.919 390.453V390.908L103.001 390.909L103 376.463Z" fill="#2F2E41"/>
<path d="M133.148 280.435L144.199 376.625H101.729L104.273 311.878L102.153 282.135L104.273 254.091L93.041 240.203L133.148 239.645V280.435Z" fill="#2F5675"/>
<path d="M64.8672 280.435L53.8166 376.624H96.287L93.743 311.877L95.863 282.134L93.743 254.091L104.975 240.202L69.0805 242.618L64.8672 280.435Z" fill="#2F5675"/>
<path d="M343.247 23.8838H159.303C152.555 23.8838 147.068 29.376 147.068 36.1301V162.302C147.068 169.056 152.555 174.548 159.303 174.548H343.247C349.995 174.548 355.482 169.056 355.482 162.302V36.1301C355.482 29.3759 349.995 23.8838 343.247 23.8838Z" fill="#F2F2F2"/>
<path d="M323.29 33.6025H139.346C132.598 33.6025 127.111 39.0947 127.111 45.8488V172.021C127.111 178.775 132.598 184.267 139.346 184.267H323.29C330.038 184.267 335.525 178.775 335.525 172.021V45.8488C335.525 39.0947 330.038 33.6025 323.29 33.6025ZM334.238 134.885C334.238 161.447 312.726 182.979 286.19 182.979H139.346C133.299 182.979 128.398 178.073 128.398 172.021V45.8488C128.398 39.7966 133.299 34.8903 139.346 34.8903H323.29C329.337 34.8903 334.238 39.7966 334.238 45.8489V134.885Z" fill="#2F5675"/>
<path d="M153.387 156.923L152.299 156.237C153.006 155.111 153.737 154.02 154.469 152.994L155.516 153.742C154.798 154.748 154.082 155.818 153.387 156.923H153.387Z" fill="#CCCCCC"/>
<path d="M160.481 147.747L159.561 146.848C161.524 144.834 163.59 143.105 165.701 141.709L166.41 142.784C164.375 144.129 162.38 145.799 160.481 147.747V147.747ZM192.577 139.618C191.041 139.618 189.641 139.422 188.593 139.25L188.801 137.979C189.863 138.153 191.141 138.331 192.577 138.331C193.844 138.331 195.09 138.191 196.386 137.904L196.663 139.162C195.276 139.469 193.939 139.618 192.577 139.618V139.618ZM173.327 139.448L172.94 138.22C174.322 137.784 175.753 137.457 177.195 137.248C178.433 137.068 179.616 136.981 180.812 136.981H180.892V138.269H180.812C179.678 138.269 178.555 138.352 177.379 138.522C176.006 138.721 174.642 139.033 173.327 139.448H173.327ZM203.991 135.727L203.169 134.736C204.944 133.26 206.217 131.476 207.564 129.586L208.102 128.834L209.146 129.587L208.611 130.334C207.214 132.293 205.894 134.144 203.991 135.727V135.727ZM214.309 123.92L213.517 122.904C215.251 121.55 217.21 120.452 219.506 119.549C219.897 119.395 220.271 119.257 220.63 119.135L221.045 120.354C220.704 120.47 220.349 120.601 219.977 120.747C217.798 121.605 215.944 122.642 214.309 123.92V123.92ZM229.84 119.447C229.407 119.447 228.997 119.443 228.602 119.438L228.617 118.151C229.02 118.155 229.441 118.156 229.887 118.159C231.401 118.159 233.509 118.116 236.401 117.781L236.549 119.06C233.562 119.406 231.42 119.442 229.84 119.447V119.447ZM244.375 117.76L244.12 116.498C246.431 116.031 249.119 115.474 251.78 114.787L252.102 116.033C249.41 116.729 246.702 117.289 244.375 117.76ZM259.68 113.592L259.199 112.398C261.779 111.357 264.018 110.183 266.047 108.808L266.768 109.875C264.663 111.301 262.345 112.517 259.68 113.592V113.592ZM272.679 104.391L271.635 103.638C271.994 103.139 272.304 102.653 272.604 102.183C273.49 100.794 274.406 99.3586 276.587 97.5962L276.74 97.4739L277.537 98.4843L277.395 98.5978C275.377 100.229 274.557 101.515 273.688 102.876C273.379 103.361 273.058 103.863 272.679 104.391V104.391ZM284.22 94.7327L283.751 93.5336C286.043 92.6339 288.633 91.9098 291.448 91.3813L291.685 92.6471C288.95 93.1608 286.438 93.8625 284.22 94.7327V94.7327Z" fill="#CCCCCC"/>
<path d="M299.549 91.7012L299.469 90.4159C300.719 90.3377 302.026 90.2861 303.353 90.2622L303.377 91.5499C302.068 91.5732 300.78 91.6241 299.549 91.7012V91.7012Z" fill="#CCCCCC"/>
<path d="M167.732 47.5557H149.682C148.775 47.5557 148.035 48.2961 148.035 49.204C148.035 50.1182 148.775 50.8587 149.682 50.8587H167.732C168.639 50.8587 169.378 50.1182 169.378 49.204C169.378 48.2961 168.639 47.5557 167.732 47.5557V47.5557Z" fill="#E6E6E6"/>
<path d="M197.964 47.5557H179.914C179.007 47.5557 178.268 48.2961 178.268 49.204C178.268 50.1182 179.007 50.8587 179.914 50.8587H197.964C198.871 50.8587 199.611 50.1182 199.611 49.204C199.611 48.2961 198.871 47.5557 197.964 47.5557Z" fill="#E6E6E6"/>
<path d="M228.196 47.5557H210.147C209.24 47.5557 208.5 48.2961 208.5 49.204C208.5 50.1182 209.24 50.8587 210.147 50.8587H228.196C229.103 50.8587 229.843 50.1182 229.843 49.204C229.843 48.2961 229.103 47.5557 228.196 47.5557Z" fill="#E6E6E6"/>
<path d="M312.047 155.937H148.018V157.224H312.047V155.937Z" fill="#E6E6E6"/>
<path d="M303.382 61.9323C291.707 62.2349 282.998 65.6731 277.479 72.1375C275.44 74.5327 274.61 76.4192 273.735 78.4152C272.867 80.3854 271.979 82.4136 269.914 85.0599V82.8708C271.194 80.9907 271.882 79.4196 272.558 77.8937C273.471 75.8076 274.34 73.8373 276.501 71.307C282.265 64.5464 291.296 60.96 303.344 60.6445L303.382 61.9323V61.9323Z" fill="#CCCCCC"/>
<path d="M273.735 78.4148C272.866 80.3851 271.978 82.4133 269.914 85.0596C269.669 85.375 269.405 85.7034 269.122 86.0447C261.674 94.9107 251.722 97.821 243.72 100.165C243.219 100.313 242.73 100.448 242.254 100.577C235.139 102.508 231.241 102.437 228.34 102.392C225.426 102.341 223.503 102.309 220.062 104.279C213.751 107.878 211.165 113.145 208.663 118.238C206.084 123.479 203.652 128.43 197.451 130.755C193.148 132.364 190.125 131.566 186.928 130.729C184.181 130.001 179.231 112.093 174.847 109.481C165.797 111.381 160.297 140.986 153.434 156.838L152.25 156.323C159.294 140.071 165.096 110.215 174.577 108.219C178.803 107.331 184.368 128.72 187.256 129.48C190.253 130.272 193.077 131.012 197.001 129.544C202.726 127.407 204.939 122.893 207.505 117.671C209.975 112.649 212.774 106.957 219.418 103.159C223.169 101.015 225.349 101.053 228.36 101.105C231.228 101.156 235.101 101.221 242.254 99.2439C242.614 99.1409 242.981 99.0379 243.36 98.9284C251.195 96.6363 260.94 93.7839 268.132 85.2205C268.839 84.3771 269.425 83.598 269.914 82.8704C271.194 80.9903 271.882 79.4193 272.557 77.8933C273.471 75.8072 274.609 76.4189 273.735 78.4149V78.4148Z" fill="#00BFA6"/>
<path d="M76.1822 225.719C75.673 223.944 74.801 222.43 73.7628 221.351L69.991 204.14L61.7695 206.156L66.4808 223.397C66.171 224.856 66.233 226.598 66.7422 228.372C67.9055 232.427 70.9617 235.12 73.5685 234.387C76.1752 233.654 77.3454 229.774 76.1822 225.719L76.1822 225.719Z" fill="#FFB6B6"/>
<path d="M75.0461 112.823C75.0461 112.823 62.0625 112.557 58.7611 122.021C55.7561 130.635 52.1939 154.301 54.1196 155.669L62.3163 213.929L74.0047 212.322L71.0049 142.418L75.0461 112.823V112.823Z" fill="#00BFA6"/>
<path d="M135.168 220.967L132.865 282.134H102.311L101.076 254.725L95.6467 282.134H64.8398L66.9834 235.016L71.2031 225.107L74.0592 218.392L135.168 220.967Z" fill="#2F5675"/>
<path d="M110.725 101.208L89.4982 99.9204L82.4224 108.935L66.9844 114.729L74.0601 183.623L70.8439 224.83C70.8439 224.83 115.872 260.887 135.169 220.967L130.023 172.677L131.31 116.661L116.515 110.222L110.725 101.208Z" fill="#00BFA6"/>
<path d="M151.592 85.5371C151.822 87.7694 151.53 89.8686 150.856 91.5518L154.392 112.678L144.3 114.068L141.799 92.488C140.796 90.9782 140.081 88.9831 139.851 86.7508C139.325 81.6512 141.527 77.2455 144.769 76.9104C148.011 76.5753 151.066 80.4376 151.592 85.5371V85.5371H151.592Z" fill="#FFB6B6"/>
<path d="M134.012 119.08C130.533 113.127 121.902 112.566 118.037 118.275C116.98 119.835 117.275 121.59 117.022 123.697C115.951 132.645 133.081 159.084 144.933 162.128C146.489 162.528 147.375 164.207 148.945 164.545H148.945C153.595 165.545 157.925 161.851 157.674 157.096L154.454 96.1167L140.928 100.735L141.794 132.394L134.012 119.08L134.012 119.08Z" fill="#00BFA6"/>
<path d="M102.315 98.2537C112.642 98.2537 121.013 89.8744 121.013 79.538C121.013 69.2016 112.642 60.8223 102.315 60.8223C91.9885 60.8223 83.6172 69.2016 83.6172 79.538C83.6172 89.8744 91.9885 98.2537 102.315 98.2537Z" fill="#FFB6B6"/>
<path d="M119.731 65.7952C119.57 65.8338 122.192 63.2756 122.304 63.2197C124.877 61.932 122.233 74.5195 120.374 74.1654C115.801 73.2962 113.826 71.5706 112.051 75.8781C111.555 77.0757 111.247 78.4278 110.282 79.2842C108.957 80.4496 106.757 80.353 105.676 81.7437C104.808 82.8641 105.059 84.5123 105.702 85.7743C106.345 87.0427 107.323 88.118 107.908 89.4122C108.564 90.8673 105.766 95.4967 104.698 98.0979V98.1043L104.692 98.1196C104.408 98.8019 103.734 96.8364 103.022 96.6402C102.17 96.4054 100.915 98.4187 99.5587 98.0528C99.5523 98.0528 99.5459 98.0464 99.5394 98.0464C98.2465 97.6858 96.8056 97.2995 95.3776 96.9132H95.3712C91.3508 95.8186 90.3345 97.3897 90.1415 97.3446L87.6457 94.7305C86.7892 94.1063 86.886 92.091 86.282 91.5498C85.7881 91.1071 84.5567 92.13 84.1938 91.7045C82.4143 89.6184 82.0049 87.5315 80.9559 83.4113C79.9974 79.6447 78.0098 68.3706 82.0944 67.8619C85.9475 67.379 83.1301 62.0092 87.0089 62.2088C86.7773 61.2301 87.2083 60.1806 87.9095 59.4595C88.6042 58.7319 89.5304 58.2812 90.4632 57.8949C95.0624 56.0148 94.2969 54.3988 99.1471 55.4933C99.6295 54.8172 106.634 55.2679 107.509 55.4933C107.574 55.5061 105.342 56.0406 108.796 55.4933C108.667 56.2853 110.854 56.633 110.726 57.4249C111.208 56.7746 116.393 60.509 116.515 61.2881C116.676 62.2603 115.209 61.7645 116.187 61.9126C116.766 62.0028 117.756 63.1811 117.66 63.767C118.078 63.2004 118.496 62.6402 118.921 62.0736C118.998 62.08 119.069 62.0929 119.146 62.1058C121.101 62.4792 118.859 68.8779 118.94 66.8833C119.088 63.2197 121.68 65.3638 119.731 65.7952V65.7952Z" fill="#2F2E41"/>
<path d="M320.319 165.409C320.463 165.764 320.961 165.764 321.105 165.409C322.109 162.931 323.539 160.155 325.094 158.034C325.343 157.694 325 157.24 324.604 157.384L321.27 158.591V137.932H320.154V158.591L316.819 157.383C316.423 157.24 316.08 157.694 316.329 158.034C317.884 160.155 319.314 162.931 320.319 165.409V165.409Z" fill="#2F5675"/>
<path d="M342.182 186.68C342.075 187.048 342.464 187.358 342.797 187.169C345.124 185.853 347.968 184.57 350.504 183.877C350.91 183.766 350.923 183.197 350.524 183.063L347.163 181.933L359.999 165.755L359.125 165.06L346.289 181.238L344.427 178.216C344.207 177.858 343.656 177.999 343.64 178.42C343.54 181.05 342.935 184.114 342.182 186.68V186.68Z" fill="#2F5675"/>
<path d="M331.74 200.467H310.049C308.702 200.467 307.606 199.371 307.606 198.022C304.738 189.632 304.795 181.41 307.606 173.348C307.606 172 308.702 170.903 310.049 170.903H331.74C333.087 170.903 334.182 172 334.182 173.348V198.022C334.182 199.371 333.087 200.467 331.74 200.467Z" fill="#E6E6E6"/>
<path d="M314.696 171.631C311.182 171.631 308.334 174.483 308.334 178V197.499C308.334 198.736 309.336 199.739 310.572 199.739H322.567C328.58 199.739 333.455 194.86 333.455 188.841V173.871C333.455 172.634 332.453 171.631 331.217 171.631H314.696V171.631Z" fill="white"/>
<path d="M325.946 178.802H315.791C315.534 178.802 315.326 178.594 315.326 178.337C315.326 178.081 315.535 177.873 315.791 177.873H325.946C326.202 177.873 326.41 178.081 326.41 178.337C326.41 178.594 326.202 178.802 325.946 178.802Z" fill="#E6E6E6"/>
<path d="M325.946 188.713H315.791C315.534 188.713 315.326 188.504 315.326 188.248C315.326 187.992 315.535 187.783 315.791 187.783H325.946C326.202 187.783 326.41 187.992 326.41 188.248C326.41 188.504 326.202 188.713 325.946 188.713Z" fill="#E6E6E6"/>
<path d="M331.396 183.761H310.341C310.085 183.761 309.877 183.552 309.877 183.296C309.877 183.039 310.085 182.831 310.341 182.831H331.396C331.652 182.831 331.86 183.039 331.86 183.296C331.86 183.552 331.652 183.761 331.396 183.761Z" fill="#E6E6E6"/>
<path d="M331.642 192.742H322.857C322.601 192.742 322.393 192.534 322.393 192.278C322.393 192.021 322.601 191.813 322.857 191.813H331.642C331.898 191.813 332.107 192.021 332.107 192.278C332.107 192.534 331.898 192.742 331.642 192.742Z" fill="#E6E6E6"/>
<path d="M134.824 15.9178C139.251 15.9178 142.841 12.4007 142.841 8.06215C142.841 3.72362 139.251 0.206543 134.824 0.206543C130.396 0.206543 126.807 3.72362 126.807 8.06215C126.807 12.4007 130.396 15.9178 134.824 15.9178Z" fill="#00BFA6"/>
<path d="M199.093 5.37489H155.941C154.46 5.37489 153.256 4.16926 153.256 2.68745C153.256 1.20563 154.46 0 155.941 0H199.093C200.574 0 201.778 1.20563 201.778 2.68745C201.778 4.16926 200.574 5.37489 199.093 5.37489Z" fill="#F2F2F2"/>
<path d="M232.77 14.4706H155.941C154.46 14.4706 153.256 13.265 153.256 11.7831C153.256 10.3013 154.46 9.0957 155.941 9.0957H232.77C234.25 9.0957 235.454 10.3013 235.454 11.7831C235.454 13.265 234.25 14.4706 232.77 14.4706V14.4706Z" fill="#F2F2F2"/>
</svg>
