<svg width="448" height="338" viewBox="0 0 448 338" fill="none" xmlns="http://www.w3.org/2000/svg">
<g clip-path="url(#clip0_264_895)">
<path d="M206.596 72.106H96.0798C95.5372 72.1054 95.017 71.8897 94.6333 71.5063C94.2497 71.1229 94.0338 70.6031 94.0332 70.0609V42.6667C94.0338 42.1245 94.2497 41.6047 94.6333 41.2213C95.017 40.8379 95.5372 40.6222 96.0798 40.6216H206.596C207.138 40.6222 207.659 40.8379 208.042 41.2213C208.426 41.6047 208.642 42.1245 208.642 42.6667V70.0609C208.642 70.6031 208.426 71.1229 208.042 71.5063C207.659 71.8897 207.138 72.1054 206.596 72.106V72.106ZM96.0798 41.4396C95.7542 41.44 95.4421 41.5694 95.2119 41.7994C94.9817 42.0294 94.8522 42.3413 94.8518 42.6667V70.0609C94.8522 70.3863 94.9817 70.6982 95.2119 70.9282C95.4421 71.1582 95.7542 71.2876 96.0798 71.288H206.596C206.921 71.2876 207.234 71.1582 207.464 70.9282C207.694 70.6982 207.823 70.3863 207.824 70.0609V42.6667C207.823 42.3413 207.694 42.0294 207.464 41.7994C207.234 41.5694 206.921 41.44 206.596 41.4396L96.0798 41.4396Z" fill="#3F3D56"/>
<path d="M113.253 63.6437C117.857 63.6437 121.589 59.9139 121.589 55.3131C121.589 50.7122 117.857 46.9824 113.253 46.9824C108.648 46.9824 104.916 50.7122 104.916 55.3131C104.916 59.9139 108.648 63.6437 113.253 63.6437Z" fill="#00BFA6"/>
<path d="M132.507 49.7593C132.138 49.7593 131.785 49.9056 131.524 50.1659C131.264 50.4263 131.117 50.7795 131.117 51.1477C131.117 51.516 131.264 51.8691 131.524 52.1295C131.785 52.3899 132.138 52.5362 132.507 52.5362H198.009C198.378 52.5362 198.731 52.3899 198.992 52.1295C199.253 51.8691 199.399 51.516 199.399 51.1477C199.399 50.7795 199.253 50.4263 198.992 50.1659C198.731 49.9056 198.378 49.7593 198.009 49.7593H132.507Z" fill="#E6E6E6"/>
<path d="M132.507 58.0898C132.138 58.0898 131.785 58.2361 131.524 58.4965C131.264 58.7569 131.117 59.11 131.117 59.4783C131.117 59.8465 131.264 60.1997 131.524 60.4601C131.785 60.7204 132.138 60.8667 132.507 60.8667H160.693C160.875 60.8671 161.056 60.8314 161.225 60.7618C161.394 60.6921 161.548 60.5899 161.677 60.461C161.806 60.332 161.909 60.1788 161.979 60.0102C162.049 59.8416 162.085 59.6608 162.085 59.4783C162.085 59.2957 162.049 59.115 161.979 58.9464C161.909 58.7777 161.806 58.6246 161.677 58.4956C161.548 58.3666 161.394 58.2644 161.225 58.1948C161.056 58.1252 160.875 58.0895 160.693 58.0898H132.507Z" fill="#E6E6E6"/>
<path d="M158.618 169.754H109.5C108.957 169.754 108.437 169.538 108.053 169.155C107.67 168.771 107.454 168.252 107.453 167.709V116.592C107.454 116.05 107.67 115.53 108.053 115.147C108.437 114.763 108.957 114.548 109.5 114.547H158.618C159.161 114.548 159.681 114.763 160.065 115.147C160.448 115.53 160.664 116.05 160.665 116.592V167.709C160.664 168.252 160.448 168.771 160.065 169.155C159.681 169.538 159.161 169.754 158.618 169.754ZM109.5 115.365C109.174 115.365 108.862 115.495 108.632 115.725C108.402 115.955 108.272 116.267 108.272 116.592V167.709C108.272 168.035 108.402 168.347 108.632 168.577C108.862 168.807 109.174 168.936 109.5 168.936H158.618C158.944 168.936 159.256 168.807 159.486 168.577C159.716 168.347 159.846 168.035 159.846 167.709V116.592C159.846 116.267 159.716 115.955 159.486 115.725C159.256 115.495 158.944 115.365 158.618 115.365H109.5Z" fill="#3F3D56"/>
<path d="M119.966 125.088C119.597 125.088 119.244 125.234 118.983 125.495C118.723 125.755 118.576 126.108 118.576 126.476C118.576 126.845 118.723 127.198 118.983 127.458C119.244 127.718 119.597 127.865 119.966 127.865H148.152C148.52 127.865 148.874 127.718 149.134 127.458C149.395 127.198 149.541 126.845 149.541 126.476C149.541 126.108 149.395 125.755 149.134 125.495C148.874 125.234 148.52 125.088 148.152 125.088H119.966Z" fill="#E6E6E6"/>
<path d="M119.964 133.269C119.782 133.268 119.601 133.304 119.432 133.374C119.263 133.443 119.109 133.545 118.98 133.674C118.851 133.803 118.748 133.956 118.678 134.125C118.608 134.294 118.572 134.474 118.572 134.657C118.572 134.84 118.608 135.02 118.678 135.189C118.748 135.358 118.851 135.511 118.98 135.64C119.109 135.769 119.263 135.871 119.432 135.94C119.601 136.01 119.782 136.046 119.964 136.045H148.15C148.519 136.045 148.872 135.899 149.133 135.639C149.393 135.378 149.54 135.025 149.54 134.657C149.54 134.289 149.393 133.936 149.133 133.675C148.872 133.415 148.519 133.269 148.15 133.269H119.964Z" fill="#E6E6E6"/>
<path d="M134.058 159.213C132.329 159.213 130.638 158.7 129.199 157.74C127.761 156.78 126.64 155.415 125.978 153.818C125.316 152.221 125.143 150.464 125.481 148.768C125.818 147.073 126.651 145.516 127.874 144.294C129.097 143.071 130.656 142.239 132.352 141.902C134.049 141.565 135.807 141.738 137.405 142.399C139.004 143.061 140.369 144.181 141.33 145.618C142.292 147.055 142.804 148.745 142.804 150.473C142.802 152.791 141.88 155.012 140.24 156.65C138.6 158.289 136.377 159.21 134.058 159.213V159.213Z" fill="#00BFA6"/>
<path d="M239.082 0H288.2C288.743 0.000636661 289.263 0.216305 289.647 0.599697C290.03 0.983088 290.246 1.5029 290.247 2.04509V53.1625C290.246 53.7046 290.03 54.2245 289.647 54.6078C289.263 54.9912 288.743 55.2069 288.2 55.2075H239.082C238.539 55.2069 238.019 54.9912 237.635 54.6078C237.252 54.2245 237.036 53.7046 237.035 53.1625V2.04509C237.036 1.5029 237.252 0.983088 237.635 0.599697C238.019 0.216305 238.539 0.000636661 239.082 0V0ZM288.2 54.3895C288.526 54.3892 288.838 54.2598 289.068 54.0297C289.298 53.7997 289.428 53.4878 289.428 53.1625V2.04509C289.428 1.71977 289.298 1.40787 289.068 1.17783C288.838 0.947785 288.526 0.818392 288.2 0.818036H239.082C238.756 0.818392 238.444 0.947785 238.214 1.17783C237.984 1.40787 237.854 1.71977 237.854 2.04509V53.1625C237.854 53.4878 237.984 53.7997 238.214 54.0297C238.444 54.2598 238.756 54.3892 239.082 54.3895H288.2Z" fill="#3F3D56"/>
<path d="M277.734 44.666C278.102 44.666 278.456 44.5198 278.716 44.2594C278.977 43.999 279.123 43.6458 279.123 43.2776C279.123 42.9094 278.977 42.5562 278.716 42.2958C278.456 42.0354 278.102 41.8892 277.734 41.8892H249.548C249.179 41.8892 248.826 42.0354 248.565 42.2958C248.305 42.5562 248.158 42.9094 248.158 43.2776C248.158 43.6458 248.305 43.999 248.565 44.2594C248.826 44.5198 249.179 44.666 249.548 44.666H277.734Z" fill="#E6E6E6"/>
<path d="M277.734 36.4859C278.102 36.4859 278.456 36.3396 278.716 36.0792C278.977 35.8188 279.123 35.4657 279.123 35.0974C279.123 34.7292 278.977 34.376 278.716 34.1157C278.456 33.8553 278.102 33.709 277.734 33.709H249.548C249.179 33.709 248.826 33.8553 248.565 34.1157C248.305 34.376 248.158 34.7292 248.158 35.0974C248.158 35.4657 248.305 35.8188 248.565 36.0792C248.826 36.3396 249.179 36.4859 249.548 36.4859H277.734Z" fill="#E6E6E6"/>
<path d="M263.641 10.5415C265.37 10.5415 267.061 11.0541 268.5 12.0144C269.938 12.9747 271.059 14.3396 271.721 15.9366C272.383 17.5335 272.556 19.2908 272.218 20.9861C271.881 22.6814 271.048 24.2387 269.825 25.4609C268.602 26.6832 267.043 27.5155 265.347 27.8527C263.65 28.19 261.892 28.0169 260.294 27.3554C258.695 26.6939 257.33 25.5738 256.369 24.1365C255.407 22.6993 254.895 21.0096 254.895 19.2811C254.897 16.964 255.819 14.7426 257.459 13.1042C259.099 11.4657 261.322 10.5441 263.641 10.5415Z" fill="#00BFA6"/>
<path d="M94.6661 105.754C103.358 99.0269 113.513 94.4397 124.309 92.3635C135.19 90.2915 146.411 90.8677 157.023 94.0433C162.357 95.6305 167.483 97.8496 172.289 100.653C177.187 103.515 181.613 107.037 185.871 110.766C190.184 114.543 194.356 118.489 198.859 122.046C211.715 132.314 227.675 137.924 244.133 137.96C245.493 137.963 246.851 137.925 248.209 137.848C248.945 137.808 248.95 136.658 248.209 136.699C231.433 137.622 214.866 132.619 201.408 122.567C196.741 119.08 192.48 115.092 188.129 111.228C183.911 107.482 179.581 103.838 174.795 100.828C163.091 93.4598 149.474 89.6984 135.643 90.0134C121.813 90.3284 108.382 94.7059 97.0252 102.6C95.9453 103.35 94.8906 104.134 93.8528 104.941C93.2694 105.395 94.0885 106.203 94.6661 105.754V105.754Z" fill="#3F3D56"/>
<path d="M94.0552 111.309C97.3563 111.309 100.032 108.635 100.032 105.336C100.032 102.038 97.3563 99.3638 94.0552 99.3638C90.7542 99.3638 88.0781 102.038 88.0781 105.336C88.0781 108.635 90.7542 111.309 94.0552 111.309Z" fill="#3F3D56"/>
<path d="M316.415 190.61C319.716 190.61 322.392 187.936 322.392 184.638C322.392 181.339 319.716 178.665 316.415 178.665C313.114 178.665 310.438 181.339 310.438 184.638C310.438 187.936 313.114 190.61 316.415 190.61Z" fill="#3F3D56"/>
<path d="M347.727 150.614H250.199C249.656 150.614 249.136 150.398 248.752 150.015C248.369 149.631 248.153 149.112 248.152 148.569V97.861C248.153 97.3188 248.369 96.799 248.752 96.4156C249.136 96.0322 249.656 95.8166 250.199 95.8159H347.727C348.27 95.8166 348.79 96.0322 349.174 96.4156C349.557 96.799 349.773 97.3188 349.774 97.861V148.569C349.773 149.112 349.557 149.631 349.174 150.015C348.79 150.398 348.27 150.614 347.727 150.614ZM250.199 96.634C249.873 96.6343 249.561 96.7637 249.331 96.9938C249.101 97.2238 248.971 97.5357 248.971 97.861V148.569C248.971 148.895 249.101 149.207 249.331 149.437C249.561 149.667 249.873 149.796 250.199 149.796H347.727C348.053 149.796 348.365 149.667 348.595 149.437C348.825 149.207 348.955 148.895 348.955 148.569V97.861C348.955 97.5357 348.825 97.2238 348.595 96.9938C348.365 96.7637 348.053 96.6343 347.727 96.634H250.199Z" fill="#3F3D56"/>
<path d="M266.554 122.11C271.158 122.11 274.89 118.38 274.89 113.779C274.89 109.178 271.158 105.449 266.554 105.449C261.949 105.449 258.217 109.178 258.217 113.779C258.217 118.38 261.949 122.11 266.554 122.11Z" fill="#00BFA6"/>
<path d="M285.806 108.226C285.623 108.225 285.442 108.261 285.274 108.331C285.105 108.4 284.951 108.502 284.822 108.631C284.693 108.76 284.59 108.913 284.52 109.082C284.45 109.251 284.414 109.431 284.414 109.614C284.414 109.797 284.45 109.977 284.52 110.146C284.59 110.315 284.693 110.468 284.822 110.597C284.951 110.726 285.105 110.828 285.274 110.898C285.442 110.967 285.623 111.003 285.806 111.002H338.321C338.69 111.002 339.043 110.856 339.304 110.596C339.564 110.335 339.711 109.982 339.711 109.614C339.711 109.246 339.564 108.893 339.304 108.632C339.043 108.372 338.69 108.226 338.321 108.226H285.806Z" fill="#E6E6E6"/>
<path d="M285.806 116.556C285.623 116.556 285.442 116.591 285.274 116.661C285.105 116.731 284.951 116.833 284.822 116.962C284.693 117.091 284.59 117.244 284.52 117.413C284.45 117.581 284.414 117.762 284.414 117.945C284.414 118.127 284.45 118.308 284.52 118.477C284.59 118.645 284.693 118.798 284.822 118.927C284.951 119.056 285.105 119.158 285.274 119.228C285.442 119.298 285.623 119.333 285.806 119.333H313.992C314.361 119.333 314.714 119.187 314.975 118.926C315.235 118.666 315.382 118.313 315.382 117.945C315.382 117.576 315.235 117.223 314.975 116.963C314.714 116.702 314.361 116.556 313.992 116.556H285.806Z" fill="#E6E6E6"/>
<path d="M260.157 129.875C259.1 129.875 258.24 130.497 258.24 131.263C258.24 132.028 259.1 132.651 260.157 132.651H337.543C338.6 132.651 339.46 132.028 339.46 131.263C339.46 130.497 338.6 129.875 337.543 129.875H260.157Z" fill="#E6E6E6"/>
<path d="M260.157 138.205C259.1 138.205 258.24 138.828 258.24 139.594C258.24 140.359 259.1 140.982 260.157 140.982H337.543C338.6 140.982 339.46 140.359 339.46 139.594C339.46 138.828 338.6 138.205 337.543 138.205H260.157Z" fill="#E6E6E6"/>
<path d="M242.36 190.198C247.862 187.813 254.005 189.893 259.191 192.091C261.862 193.223 264.505 194.432 267.269 195.326C269.594 196.076 271.975 196.64 274.39 197.012C279.236 197.754 284.165 197.784 289.02 197.101C293.899 196.422 298.655 195.04 303.138 192.999C307.597 190.98 311.718 188.287 315.357 185.016C315.82 184.598 316.274 184.171 316.719 183.734C317.249 183.215 316.435 182.403 315.906 182.921C312.402 186.335 308.378 189.173 303.986 191.33C299.612 193.479 294.946 194.977 290.137 195.775C285.312 196.588 280.393 196.673 275.543 196.027C273.124 195.7 270.735 195.181 268.398 194.475C265.714 193.603 263.081 192.581 260.511 191.414C255.277 189.168 249.461 186.968 243.709 188.517C243.05 188.7 242.405 188.93 241.78 189.206C241.102 189.5 241.687 190.49 242.36 190.198V190.198Z" fill="#3F3D56"/>
<path d="M240.234 204.295H194.156L205 185.526C205.194 185.19 205.474 184.911 205.81 184.716C206.147 184.522 206.529 184.42 206.917 184.42C207.306 184.42 207.688 184.522 208.025 184.716C208.361 184.911 208.641 185.19 208.835 185.526L213.467 193.544L221.344 179.912C221.587 179.49 221.937 179.141 222.358 178.898C222.78 178.654 223.258 178.526 223.745 178.526C224.231 178.526 224.709 178.654 225.131 178.898C225.552 179.141 225.902 179.49 226.146 179.912L240.234 204.295Z" fill="#00BFA6"/>
<path d="M240.276 204.29H191.158C190.615 204.289 190.095 204.073 189.711 203.69C189.328 203.307 189.112 202.787 189.111 202.245V174.85C189.112 174.308 189.328 173.788 189.711 173.405C190.095 173.021 190.615 172.806 191.158 172.805H240.276C240.819 172.806 241.339 173.021 241.723 173.405C242.106 173.788 242.322 174.308 242.323 174.85V202.245C242.322 202.787 242.106 203.307 241.723 203.69C241.339 204.073 240.819 204.289 240.276 204.29ZM191.158 173.623C190.832 173.624 190.52 173.753 190.29 173.983C190.06 174.213 189.93 174.525 189.93 174.85V202.245C189.93 202.57 190.06 202.882 190.29 203.112C190.52 203.342 190.832 203.471 191.158 203.472H240.276C240.602 203.471 240.914 203.342 241.144 203.112C241.374 202.882 241.504 202.57 241.504 202.245V174.85C241.504 174.525 241.374 174.213 241.144 173.983C240.914 173.753 240.602 173.624 240.276 173.623H191.158Z" fill="#3F3D56"/>
<path d="M336.617 180.18L327.861 184.622C324.736 186.208 321.721 185.937 320.566 182.63C320.291 181.843 320.189 181.007 320.268 180.177C320.347 179.347 320.604 178.544 321.022 177.823C321.441 177.102 322.01 176.48 322.691 175.999C323.372 175.518 324.149 175.19 324.969 175.037L333.29 173.485L368.928 161.67L390.515 146.374L398.429 158.972L373.485 172.422L336.617 180.18Z" fill="#FFB8B8"/>
<path d="M377.486 327.644L370.787 326.528L371.532 313.885H378.603L377.486 327.644Z" fill="#FFB8B8"/>
<path d="M442.499 315.295L436.016 317.316L430.979 305.694L437.29 302.51L442.499 315.295Z" fill="#FFB8B8"/>
<path d="M438.89 304.216L430.702 307.563L391.627 256.245L379.347 316.488L371.16 315C365.908 263.063 361.625 210.087 366.88 185.032L397.21 183.73L410.979 227.611L417.677 257.36L438.89 304.216Z" fill="#2F5675"/>
<path d="M377.118 337.869C375.893 338.132 374.616 337.996 373.474 337.482L369.495 335.693C366.158 335.522 363.886 336.186 362.028 333.764C361.504 333.071 361.175 332.251 361.075 331.389C360.975 330.526 361.108 329.653 361.46 328.859V328.859C361.809 328.062 362.363 327.373 363.067 326.861C363.771 326.35 364.598 326.034 365.464 325.948L370.929 322.506L371.216 325.086C373.714 326.501 376.68 325.89 379.822 324.513L381.538 330.513C381.759 331.286 381.819 332.097 381.713 332.895C381.608 333.692 381.34 334.46 380.925 335.15C380.511 335.839 379.959 336.437 379.304 336.905C378.649 337.372 377.905 337.701 377.118 337.869Z" fill="#2F2E41"/>
<path d="M445.152 325.563C444.079 326.208 442.827 326.494 441.58 326.379L437.235 325.978C434.023 326.899 432.09 328.264 429.546 326.576C428.825 326.091 428.248 325.422 427.873 324.639C427.498 323.856 427.34 322.986 427.415 322.121C427.486 321.255 427.786 320.423 428.285 319.711C428.785 318.998 429.464 318.432 430.255 318.069L434.306 313.041L435.416 315.388C438.238 315.915 440.845 314.374 443.37 312.053L446.942 317.171C447.402 317.83 447.722 318.578 447.882 319.366C448.041 320.155 448.037 320.968 447.869 321.755C447.702 322.542 447.374 323.286 446.906 323.941C446.439 324.596 445.842 325.148 445.152 325.563V325.563Z" fill="#2F2E41"/>
<path d="M386.046 130.925C393.445 130.925 399.443 124.931 399.443 117.537C399.443 110.144 393.445 104.15 386.046 104.15C378.647 104.15 372.648 110.144 372.648 117.537C372.648 124.931 378.647 130.925 386.046 130.925Z" fill="#FFB8B8"/>
<path d="M402.421 145.799L384.93 142.081L382.697 127.578L394.978 124.975L402.421 145.799Z" fill="#FFB8B8"/>
<path d="M397.582 185.589H366.322L373.368 167.912C372.856 161.829 375.436 157.356 379.129 153.461L383.813 141.709C391.382 136.731 397.088 137.103 403.164 143.568C410.369 153.761 405.382 169.083 397.582 185.589Z" fill="#00BFA6"/>
<path d="M383.442 223.149L382.552 232.92C382.235 236.408 380.402 238.817 376.986 238.036C376.173 237.851 375.409 237.492 374.748 236.984C374.087 236.476 373.543 235.831 373.154 235.094C372.765 234.357 372.54 233.544 372.495 232.712C372.449 231.88 372.584 231.048 372.891 230.273L375.999 222.405L384.93 185.961L383.442 159.559H398.327L396.467 187.821L383.442 223.149Z" fill="#FFB8B8"/>
<path d="M399.443 160.302H382.324L383.524 149.143C383.603 147.213 384.401 145.382 385.762 144.01C387.122 142.638 388.947 141.824 390.878 141.727V141.727C391.901 141.676 392.924 141.828 393.888 142.175C394.851 142.522 395.737 143.056 396.493 143.747C397.249 144.437 397.86 145.271 398.291 146.2C398.722 147.128 398.965 148.133 399.005 149.155L399.443 160.302Z" fill="#00BFA6"/>
<path d="M402.627 103.772C405.409 103.772 407.663 101.519 407.663 98.74C407.663 95.9609 405.409 93.708 402.627 93.708C399.846 93.708 397.592 95.9609 397.592 98.74C397.592 101.519 399.846 103.772 402.627 103.772Z" fill="#2F2E41"/>
<path d="M397.438 97.5081C397.521 96.2314 398.088 95.0342 399.023 94.1604C399.958 93.2866 401.191 92.8019 402.472 92.805C402.368 92.7918 402.265 92.7758 402.159 92.769C400.826 92.6842 399.515 93.1315 398.512 94.0126C397.51 94.8938 396.899 96.1366 396.813 97.4679C396.727 98.7992 397.174 100.11 398.056 101.112C398.937 102.114 400.18 102.726 401.512 102.812C401.618 102.819 401.723 102.816 401.827 102.816C400.557 102.656 399.396 102.017 398.581 101.031C397.765 100.045 397.357 98.7848 397.438 97.5081V97.5081Z" fill="#2F2E41"/>
<path d="M397.41 99.6566C392.919 95.9338 380.037 100.665 379.206 103.168C373.133 103.995 368.535 107.536 368.535 113.832V113.832C372.146 115.31 376.252 115.127 380.691 113.832C387.767 119.594 388.252 126.838 383.949 135.158L389.243 135.264L395.806 125.68L396.12 135.401L408.255 135.158V121.226C408.295 116.594 407.228 112.019 405.143 107.882C403.252 104.21 400.317 102.067 397.41 99.6566Z" fill="#2F2E41"/>
<path d="M386.109 124.271C387.439 124.271 388.517 122.763 388.517 120.902C388.517 119.042 387.439 117.534 386.109 117.534C384.779 117.534 383.701 119.042 383.701 120.902C383.701 122.763 384.779 124.271 386.109 124.271Z" fill="#FFB8B8"/>
<path d="M83.1191 125.177C83.1191 125.177 84.5687 100.106 92.094 105.803C99.6192 111.5 88.8076 127.502 88.8076 127.502L83.1191 125.177Z" fill="#FFB9B9"/>
<path d="M55.1227 199.545C55.1227 199.545 71.8389 218.298 62.4865 219.587C53.134 220.876 49.4551 201.921 49.4551 201.921L55.1227 199.545Z" fill="#FFB9B9"/>
<path d="M33.3088 110.78C35.4068 111.332 37.295 112.491 38.7361 114.111C40.1773 115.732 41.1071 117.742 41.409 119.889L46.7262 157.707L54.1804 187.874C54.1804 187.874 57.9074 191.226 56.4166 193.089C54.9258 194.951 58.2801 202.772 58.2801 202.772L48.9625 205.751C48.9625 205.751 47.8443 197.93 45.9808 197.558C44.3431 197.23 26.0099 148.291 21.5908 136.436C20.9815 134.801 20.6367 133.871 20.6367 133.871C20.6367 133.871 21.3821 108.918 33.3088 110.78Z" fill="#575A89"/>
<path d="M35.0119 308L40.7351 318.135C45.1671 327.591 41.2286 329.308 30.3618 324.621L27.8848 312.654L35.0119 308Z" fill="#FFB9B9"/>
<path d="M37.8981 321.47C37.8981 321.47 40.615 317.05 41.5977 317.79C42.5803 318.53 46.6334 321.736 46.6334 321.736L51.9128 326.789C51.9128 326.789 69.7495 328.673 58.4157 334.918C47.0818 341.163 40.8184 335.985 40.8184 335.985C40.8184 335.985 24.9443 336.81 25.2003 332.384C25.4564 327.959 30.5759 320.957 30.5759 320.957C30.5759 320.957 37.0282 325.28 37.8981 321.47Z" fill="#2F2E41"/>
<path d="M9.61523 193.442L14.9807 258.317C14.9807 258.317 15.1596 297.099 20.8828 304.605C26.6059 312.111 26.7848 315.864 26.7848 315.864L38.5888 309.788C38.5888 309.788 32.5079 299.662 33.7599 298.112C34.5316 297.129 35.0808 295.991 35.3695 294.775L32.1502 254.742L38.2311 185.042L9.61523 193.442Z" fill="#00BFA6"/>
<path d="M24.2807 308.001L19.273 321.226L7.91602 316.481L13.9076 306.571L24.2807 308.001Z" fill="#FFB9B9"/>
<path d="M15.9256 316.771C15.9256 316.771 20.185 314.111 20.7175 315.175C21.2499 316.239 23.3796 320.762 23.3796 320.762L25.7756 327.412C25.7756 327.412 40.4174 336.723 27.9053 337.255C15.3932 337.787 12.1986 330.604 12.1986 330.604C12.1986 330.604 -1.91079 324.486 0.21894 320.762C2.34867 317.037 9.80268 313.175 9.80268 313.175C9.80268 313.175 13.5297 319.698 15.9256 316.771Z" fill="#2F2E41"/>
<path d="M55.0429 193.621L57.9045 253.313C57.9045 253.313 31.7925 307.286 28.931 308.715C28.0783 309.155 27.3224 309.762 26.7081 310.498C26.0937 311.235 25.6333 312.087 25.354 313.005L9.61523 309.073L16.7692 297.635L32.508 259.389C32.508 259.389 35.0118 258.317 35.7272 254.742C36.4427 251.168 37.8734 251.168 34.2965 250.453C30.7195 249.738 30.7195 246.164 30.7195 246.164L18.9154 191.833L55.0429 193.621Z" fill="#00BFA6"/>
<path d="M56.2883 87.9646C57.554 80.1703 52.257 72.8264 44.4569 71.5615C36.6569 70.2967 29.3076 75.5899 28.0419 83.3842C26.7761 91.1785 32.0732 98.5224 39.8732 99.7873C47.6732 101.052 55.0225 95.7589 56.2883 87.9646Z" fill="#FFB9B9"/>
<path d="M29.4671 86.5684C29.4671 86.5684 28.394 104.798 26.9632 106.585C25.5324 108.372 41.9865 108.015 41.9865 108.015C41.9865 108.015 40.9134 92.6448 41.9865 91.215C43.0596 89.7853 29.4671 86.5684 29.4671 86.5684Z" fill="#FFB9B9"/>
<path d="M56.1134 197.553C56.1134 197.553 15.6934 193.979 8.18359 197.553C8.18359 197.553 10.9482 187.305 10.2338 186.234C9.7143 185.451 11.1476 156.259 10.6977 139.419C10.4426 129.917 8.24853 120.638 14.6265 113.583C16.7973 111.187 19.2186 109.175 21.7745 108.192C21.7745 108.192 21.0601 101.402 24.6364 101.045C24.6364 101.045 38.2319 99.6126 43.2369 103.905C44.8372 105.267 45.8437 109.421 45.9504 112.999C43.4734 125.171 44.3501 138.678 46.623 152.69C46.7622 153.579 46.9152 154.474 47.0683 155.369C49.4803 169.265 53.1262 183.592 56.1134 197.553Z" fill="#2F5675"/>
<path d="M34.6907 89.8876C35.9007 89.8155 37.0822 90.2241 38.2838 90.3835C42.5829 90.9539 47.0553 87.8365 48.0045 83.6079C48.0806 83.0448 48.2486 82.498 48.5017 81.9892C49.1634 80.9097 50.6702 80.7039 51.9124 80.9521C53.1546 81.2004 54.3321 81.7813 55.5972 81.8476C57.5504 81.9501 59.4257 80.7484 60.4666 79.0937C61.4503 77.3866 61.8687 75.4124 61.6618 73.4534L60.7254 74.4354C60.3449 73.6311 60.198 72.7361 60.3014 71.8524C59.8052 71.7204 59.2834 71.7178 58.7859 71.845C58.2884 71.9722 57.832 72.2249 57.4602 72.5789C56.6346 72.6667 57.2577 71.0485 56.6443 70.4893C56.346 70.3061 55.9904 70.2397 55.646 70.3027C53.8895 70.3196 52.4685 68.9771 51.0844 67.8963C48.6861 66.028 45.8816 64.7497 42.8975 64.1647C40.9141 63.7782 38.8049 63.716 36.9239 64.4541C35.4055 65.1352 34.035 66.1066 32.8899 67.3136C29.9449 70.1432 27.3372 73.468 26.112 77.3626C25.116 80.5526 25.0878 83.9659 26.031 87.1719C26.5246 88.8369 28.0124 94.539 30.1905 94.6718C32.9273 94.8386 31.2841 90.0907 34.6907 89.8876Z" fill="#2F2E41"/>
<path d="M40.6125 112.535L45.7386 113.084C45.7386 113.084 50.7706 122.839 50.4051 124.874C50.0397 126.909 49.2439 125.673 51.5087 128.929C53.7736 132.185 60.2002 140.599 60.996 141.835C61.7919 143.07 83.4876 126.529 82.1388 121.573C82.1388 121.573 88.9909 126.485 91.9265 127.139C91.9265 127.139 69.5673 156.441 66.4515 160.191C63.3357 163.941 60.828 163.171 56.546 160.947C52.264 158.724 30.6016 136.546 30.6016 136.546L40.6125 112.535Z" fill="#2F5675"/>
<path opacity="0.1" d="M47.0685 155.369L29.252 137.565L33.7606 136.096L46.6232 152.689C46.7624 153.579 46.9155 154.474 47.0685 155.369Z" fill="black"/>
</g>
<defs>
<clipPath id="clip0_264_895">
<rect width="448" height="338" fill="white"/>
</clipPath>
</defs>
</svg>
