<svg width="506" height="393" viewBox="0 0 506 393" fill="none" xmlns="http://www.w3.org/2000/svg">
<g clip-path="url(#clip0_264_869)">
<path d="M7.78321 361.956C11.0899 373.436 20.7449 381.472 30.8162 388.298C32.2225 389.252 33.6292 390.183 35.0363 391.092C35.0458 391.097 35.0556 391.106 35.0653 391.11C35.133 391.153 35.2008 391.197 35.2639 391.241C35.5543 391.428 35.8448 391.616 36.1328 391.801L35.9746 391.872C35.9746 391.872 35.8193 391.955 35.9893 391.885C36.0398 391.864 36.0928 391.845 36.1433 391.824C41.9942 389.462 47.9489 386.927 52.4327 382.503C57.084 377.909 59.8022 370.704 57.2835 364.668C56.9525 363.878 56.5343 363.127 56.0368 362.429C55.8325 362.136 55.6125 361.856 55.3834 361.582C53.9941 359.885 52.1783 358.589 50.1226 357.827C48.067 357.065 45.8456 356.865 43.6871 357.247C41.5285 357.63 39.5107 358.58 37.8409 360.002C36.1712 361.423 34.9099 363.264 34.1868 365.335C33.4469 358.44 39.1275 352.665 44.5943 348.404C50.0636 344.145 56.2781 339.507 57.3355 332.651C57.9259 328.836 56.6004 325.139 54.1858 322.172C54.1111 322.082 54.0364 321.992 53.9594 321.904C51.0202 318.448 46.8861 316.228 42.383 315.689C33.9967 314.816 25.8506 319.259 19.7581 325.094C9.95226 334.483 4.0242 348.904 7.78321 361.956Z" fill="#00BFA6"/>
<path d="M23.5466 346.941C21.9371 349.447 20.7014 352.174 19.8785 355.037C19.1826 357.596 18.8728 360.244 18.9596 362.895C19.184 368.349 20.714 373.669 23.4208 378.408C25.4598 382.004 27.9447 385.327 30.8164 388.298C32.2226 389.252 33.6293 390.183 35.0364 391.092C35.046 391.097 35.0558 391.106 35.0654 391.11C35.1331 391.153 35.2009 391.197 35.264 391.241C35.5544 391.428 35.845 391.616 36.133 391.801C36.133 391.801 35.8195 391.955 35.9894 391.885C36.04 391.864 36.093 391.845 36.1434 391.824C35.619 387.521 36.1328 383.156 37.6415 379.093C39.1503 375.03 41.6102 371.388 44.815 368.472C48.0276 365.601 51.8727 363.53 56.0369 362.429C55.8326 362.137 55.6126 361.856 55.3835 361.582C53.7752 362.033 52.21 362.626 50.706 363.353C45.3298 365.937 40.9277 370.184 38.1514 375.466C35.6599 380.263 34.5876 385.671 35.0604 391.056C34.82 390.838 34.5794 390.615 34.3459 390.395C29.8999 386.247 25.951 381.485 23.2784 375.99C20.9599 371.336 19.8203 366.184 19.9602 360.986C20.1783 355.318 22.4349 350.068 25.7022 345.497C29.2831 340.621 33.5134 336.258 38.2756 332.529C43.0748 328.683 48.3264 325.438 53.9132 322.868C54.0392 322.809 54.1378 322.704 54.1886 322.574C54.2394 322.445 54.2384 322.301 54.186 322.172C54.1487 322.056 54.0673 321.96 53.9595 321.904C53.9041 321.88 53.844 321.869 53.7836 321.871C53.7233 321.874 53.6643 321.89 53.6111 321.919C52.9213 322.237 52.2363 322.559 51.5568 322.895C45.8971 325.694 40.6069 329.187 35.8077 333.291C31.1719 337.247 26.8076 341.765 23.5466 346.941Z" fill="white"/>
<path d="M155.947 383.166H164.733L168.913 349.25L155.945 349.251L155.947 383.166Z" fill="#FFB7B7"/>
<path d="M153.705 380.296L171.009 380.295H171.009C173.934 380.295 176.738 381.458 178.806 383.527C180.874 385.597 182.036 388.404 182.036 391.33V391.689L153.706 391.69L153.705 380.296Z" fill="#2F2E41"/>
<path d="M108.374 383.166H117.161L121.341 349.25L108.373 349.251L108.374 383.166Z" fill="#FFB7B7"/>
<path d="M106.133 380.296L123.436 380.295H123.437C126.362 380.295 129.166 381.458 131.234 383.527C133.302 385.597 134.464 388.404 134.464 391.33V391.689L106.133 391.69L106.133 380.296Z" fill="#2F2E41"/>
<path d="M104.795 229.452V319.001L107.06 376.811H125.749L131.979 267.992L144.439 312.767L152.367 375.677L175.02 374.544L159.73 229.452H104.795Z" fill="#2F5675"/>
<path d="M126.52 148.972C134.027 148.972 140.112 142.882 140.112 135.37C140.112 127.858 134.027 121.768 126.52 121.768C119.013 121.768 112.928 127.858 112.928 135.37C112.928 142.882 119.013 148.972 126.52 148.972Z" fill="#FFB8B8"/>
<path d="M120.872 152.516L117.254 156.34L113.855 232.853L154.066 231.72L144.438 164.842L135.943 156.695L131.633 152.516H120.872Z" fill="#00BFA6"/>
<path d="M114.422 160.874L117.474 155.917L118.386 166.542C118.386 166.542 125.749 190.346 125.182 211.316C124.616 232.286 128.014 281.594 123.483 282.161C118.953 282.728 99.6971 283.862 99.6971 279.894C99.6971 275.927 98.5645 170.509 98.5645 170.509L114.422 160.874Z" fill="#2F5675"/>
<path d="M135.03 155.917L142.738 162.007L159.728 168.242C159.728 168.242 159.728 240.788 163.126 257.79C166.524 274.793 172.754 276.494 164.825 277.06C156.897 277.627 157.463 274.793 157.463 274.793C157.463 274.793 134.243 202.248 135.376 184.111C136.508 165.975 133.897 155.917 135.03 155.917Z" fill="#2F5675"/>
<path d="M113.661 139.625C113.661 139.625 114.816 137.596 114.548 130.816C114.279 124.035 124.596 127.87 133.217 127.223C141.838 126.577 140.013 138.543 140.013 138.543C140.013 138.543 140.635 137.832 141.966 132.056C143.298 126.281 140.274 120.526 140.274 120.526C139.384 114.457 134.585 116.402 134.585 116.402C136.896 117.302 136.452 119.227 136.452 119.227C134.496 115.795 129.697 117.74 129.697 117.74C123.297 113.721 116.811 119.014 116.811 119.014C109.079 120.77 113.613 126.923 113.613 126.923C105.838 130.855 113.661 139.625 113.661 139.625Z" fill="#2F2E41"/>
<path d="M99.7157 271.699C100.292 271.09 100.727 270.362 100.992 269.566C101.256 268.77 101.343 267.925 101.246 267.092C101.149 266.259 100.871 265.457 100.431 264.743C99.9908 264.029 99.3996 263.42 98.6991 262.96L101.147 250.079L93.6885 246.681L90.4861 264.92C89.791 266.149 89.5705 267.59 89.8665 268.971C90.1625 270.352 90.9543 271.576 92.092 272.412C93.2297 273.248 94.6341 273.637 96.0392 273.505C97.4443 273.374 98.7525 272.731 99.7157 271.699V271.699Z" fill="#FFB7B7"/>
<path d="M101.396 170.509L99.892 169.702C99.892 169.702 91.768 172.776 92.3344 175.043C92.9007 177.31 87.8037 256.657 89.5027 259.491C91.2017 262.325 104.794 260.058 104.794 260.058L101.396 170.509Z" fill="#2F5675"/>
<path d="M166.048 266.357C165.393 265.833 164.861 265.172 164.489 264.421C164.117 263.669 163.914 262.845 163.895 262.006C163.876 261.168 164.041 260.335 164.378 259.567C164.715 258.799 165.216 258.114 165.846 257.561L161.641 245.143L168.558 240.745L174.251 258.365C175.11 259.486 175.527 260.883 175.425 262.292C175.323 263.7 174.708 265.022 173.697 266.007C172.686 266.993 171.348 267.572 169.939 267.637C168.529 267.701 167.144 267.246 166.048 266.357V266.357Z" fill="#FFB7B7"/>
<path d="M159.41 255.531C159.41 255.531 173.185 255.894 174.476 252.852C175.767 249.81 159.748 171.932 159.996 169.609C160.243 167.285 151.772 165.366 151.772 165.366L150.395 166.373L159.41 255.531Z" fill="#2F5675"/>
<path d="M250.022 393H0.654508C0.480922 393 0.314445 392.931 0.191701 392.808C0.0689564 392.685 0 392.519 0 392.345C0 392.171 0.0689564 392.005 0.191701 391.882C0.314445 391.759 0.480922 391.69 0.654508 391.69H250.022C250.196 391.69 250.362 391.759 250.485 391.882C250.608 392.005 250.677 392.171 250.677 392.345C250.677 392.519 250.608 392.685 250.485 392.808C250.362 392.931 250.196 393 250.022 393Z" fill="#CBCBCB"/>
<path d="M505.999 201.74H275.836V58.3403H505.999V201.74ZM281.191 196.381H500.644V63.6996H281.191V196.381Z" fill="#E5E5E5"/>
<path d="M503.322 61.02H278.514V199.06H503.322V61.02Z" fill="white"/>
<path d="M503.322 96.0056V87.53H472.136V61.02H463.666V87.53H408.146V61.02H399.676V87.53H314.042V61.02H305.573V87.53H278.514V96.0056H305.573V128.967H278.514V137.442H305.573V172.757H278.514V181.233H351.213V199.06H359.682V181.233H399.676V199.06H408.146V181.233H503.322V172.757H408.146V137.442H503.322V128.966H472.136V96.0056L503.322 96.0056ZM399.676 96.0056V106.365H314.042V96.0056H399.676ZM314.042 114.84H399.676V128.967H314.042V114.84ZM314.042 172.757V137.442H351.213V172.757L314.042 172.757ZM399.676 172.757H359.682V137.442H399.676V172.757ZM463.666 128.967H408.146V96.0056H463.666V128.967Z" fill="#E6E6E6"/>
<path d="M444.77 40.641C444.77 63.0865 404.159 113.088 404.159 113.088C404.159 113.088 363.549 63.0865 363.549 40.641C363.549 29.8624 367.827 19.5252 375.443 11.9035C383.059 4.28181 393.389 0 404.159 0C414.93 0 425.259 4.28181 432.875 11.9035C440.491 19.5252 444.77 29.8624 444.77 40.641V40.641Z" fill="#00BFA6"/>
<path d="M422.723 38.8742C422.723 42.5487 421.635 46.1407 419.595 49.196C417.555 52.2513 414.655 54.6326 411.263 56.0387C407.871 57.4449 404.138 57.8128 400.537 57.096C396.936 56.3791 393.628 54.6097 391.031 52.0114C388.435 49.4131 386.667 46.1027 385.95 42.4987C385.234 38.8948 385.602 35.1592 387.007 31.7644C388.412 28.3696 390.792 25.468 393.845 23.4265C396.897 21.385 400.487 20.2954 404.159 20.2954C406.597 20.2943 409.011 20.7741 411.264 21.7074C413.517 22.6406 415.564 24.0091 417.288 25.7345C419.013 27.4599 420.38 29.5085 421.313 31.7631C422.245 34.0177 422.725 36.4341 422.723 38.8742V38.8742Z" fill="white"/>
<path d="M404.158 142.421C410.204 142.421 415.105 137.516 415.105 131.465C415.105 125.415 410.204 120.51 404.158 120.51C398.112 120.51 393.211 125.415 393.211 131.465C393.211 137.516 398.112 142.421 404.158 142.421Z" fill="#00BFA6"/>
</g>
<defs>
<clipPath id="clip0_264_869">
<rect width="506" height="393" fill="white"/>
</clipPath>
</defs>
</svg>
