<svg width="658" height="525" viewBox="0 0 658 525" fill="none" xmlns="http://www.w3.org/2000/svg">
<path fill-rule="evenodd" clip-rule="evenodd" d="M386.2 497.335C299.056 499.466 203.128 556.907 134.663 499.742C63.9659 440.714 50.8674 326.438 69.8711 233.216C86.2411 152.913 160.375 108.289 224.025 61.3768C273.007 25.2756 326.554 -1.57662 386.2 0.0719604C444.23 1.67589 498.703 27.0241 540.129 70.1137C581.966 113.631 597.805 172.532 610.34 233.216C628.176 319.56 682.167 421.996 626.391 487.721C570.7 553.346 469.469 495.299 386.2 497.335Z" fill="#93B0F9" fill-opacity="0.15"/>
<path d="M100.213 158.622C123.029 148.914 151.446 155.065 179.199 159.334C179.457 154.164 182.587 147.872 179.308 144.265C175.324 139.883 175.691 135.279 178.088 130.648C184.218 118.807 175.436 106.207 166.568 95.7298C164.569 93.3737 162.043 91.5225 159.195 90.3265C156.346 89.1306 153.256 88.6236 150.175 88.8467L133.748 90.0206C129.751 90.3062 125.936 91.8064 122.814 94.3203C119.692 96.8343 117.412 100.242 116.279 104.088V104.088C112.357 109.425 110.257 114.747 111.579 120.041C105.704 124.058 104.717 128.907 107.357 134.373C109.596 137.814 109.572 141.164 107.255 144.422C104.213 148.575 101.882 153.205 100.36 158.124L100.213 158.622Z" fill="#00BFA6"/>
<path d="M642.407 452.934H177.395C173.26 452.934 169.294 451.29 166.37 448.365C163.445 445.44 161.803 441.472 161.803 437.335C330.37 417.736 495.769 417.736 657.999 437.335C657.999 441.472 656.357 445.44 653.433 448.365C650.509 451.29 646.543 452.934 642.407 452.934Z" fill="#CCCCCC"/>
<path d="M657.999 438.252L161.803 437.335L219.31 340.531L219.585 340.072V126.727C219.585 124.137 220.095 121.573 221.085 119.18C222.076 116.788 223.528 114.614 225.358 112.783C227.188 110.952 229.361 109.499 231.753 108.508C234.144 107.517 236.707 107.008 239.296 107.008H577.755C580.343 107.008 582.907 107.517 585.298 108.508C587.689 109.499 589.862 110.952 591.693 112.783C593.523 114.614 594.975 116.788 595.965 119.18C596.956 121.573 597.465 124.137 597.465 126.727V341.54L657.999 438.252Z" fill="#E6E6E6"/>
<path d="M238.846 120.771C237.144 120.773 235.512 121.451 234.308 122.655C233.105 123.859 232.428 125.492 232.426 127.195V321.72C232.428 323.423 233.105 325.056 234.308 326.26C235.512 327.464 237.144 328.141 238.846 328.143H580.956C582.658 328.141 584.29 327.464 585.493 326.26C586.697 325.056 587.374 323.423 587.376 321.72V127.195C587.374 125.492 586.697 123.859 585.493 122.655C584.29 121.451 582.658 120.773 580.956 120.771H238.846Z" fill="white"/>
<path d="M240.28 353.835C239.754 353.836 239.239 353.988 238.797 354.272C238.354 354.555 238.001 354.96 237.78 355.438L220.061 393.976C219.868 394.395 219.783 394.856 219.815 395.317C219.847 395.777 219.994 396.223 220.243 396.611C220.492 397 220.835 397.32 221.24 397.541C221.644 397.763 222.098 397.879 222.56 397.879H595.199C595.668 397.879 596.129 397.759 596.539 397.531C596.948 397.302 597.293 396.973 597.539 396.573C597.786 396.174 597.926 395.719 597.947 395.25C597.968 394.781 597.869 394.315 597.659 393.895L578.398 355.357C578.171 354.899 577.82 354.513 577.385 354.245C576.951 353.976 576.449 353.834 575.938 353.835H240.28Z" fill="#C1C1C1"/>
<path d="M408.526 117.56C410.805 117.56 412.653 115.711 412.653 113.431C412.653 111.15 410.805 109.302 408.526 109.302C406.246 109.302 404.398 111.15 404.398 113.431C404.398 115.711 406.246 117.56 408.526 117.56Z" fill="white"/>
<path d="M371.899 405.22C371.295 405.22 370.707 405.42 370.227 405.788C369.746 406.156 369.401 406.672 369.243 407.257L364.798 423.773C364.688 424.181 364.673 424.609 364.755 425.023C364.837 425.438 365.014 425.828 365.271 426.163C365.527 426.499 365.858 426.77 366.237 426.957C366.615 427.144 367.032 427.242 367.455 427.242H451.986C452.424 427.242 452.856 427.137 453.246 426.935C453.636 426.734 453.972 426.443 454.227 426.085C454.481 425.728 454.646 425.315 454.709 424.88C454.771 424.446 454.728 424.003 454.585 423.588L448.87 407.072C448.683 406.531 448.332 406.062 447.866 405.73C447.4 405.398 446.842 405.22 446.27 405.22H371.899Z" fill="#C1C1C1"/>
<path d="M597.466 336.86V340.53H219.311L219.595 340.072V336.86H597.466Z" fill="#CCCCCC"/>
<path d="M586.918 185.461C622.376 185.461 651.121 156.704 651.121 121.23C651.121 85.7569 622.376 57 586.918 57C551.459 57 522.715 85.7569 522.715 121.23C522.715 156.704 551.459 185.461 586.918 185.461Z" fill="#00BFA6"/>
<path d="M613.516 149.216H560.319C559.346 149.216 558.414 148.829 557.726 148.14C557.038 147.452 556.651 146.519 556.65 145.546V113.431C556.651 112.458 557.038 111.525 557.726 110.837C558.414 110.149 559.346 109.762 560.319 109.761H613.516C614.489 109.762 615.421 110.149 616.109 110.837C616.797 111.525 617.184 112.458 617.185 113.431V145.546C617.184 146.519 616.797 147.452 616.109 148.14C615.421 148.829 614.489 149.216 613.516 149.216ZM560.319 113.431V145.546H613.519L613.516 113.431L560.319 113.431Z" fill="white"/>
<path d="M603.427 113.431H570.408V98.7495C570.408 88.1158 577.352 80.3979 586.918 80.3979C596.483 80.3979 603.427 88.1158 603.427 98.7495L603.427 113.431ZM574.077 109.76H599.758V98.7495C599.758 90.1055 594.478 84.0683 586.918 84.0683C579.357 84.0683 574.077 90.1055 574.077 98.7495L574.077 109.76Z" fill="white"/>
<path d="M586.919 132.241C588.945 132.241 590.587 130.598 590.587 128.571C590.587 126.544 588.945 124.9 586.919 124.9C584.893 124.9 583.25 126.544 583.25 128.571C583.25 130.598 584.893 132.241 586.919 132.241Z" fill="white"/>
<path d="M542.099 262.162H277.705C276.407 262.16 275.162 261.644 274.244 260.726C273.326 259.807 272.81 258.562 272.809 257.264V191.651C272.81 190.352 273.326 189.107 274.244 188.189C275.162 187.271 276.407 186.754 277.705 186.752H542.099C543.398 186.754 544.642 187.271 545.56 188.189C546.478 189.107 546.994 190.352 546.996 191.651V257.264C546.994 258.562 546.478 259.807 545.56 260.726C544.642 261.644 543.398 262.16 542.099 262.162V262.162ZM277.705 188.712C276.926 188.713 276.179 189.023 275.628 189.574C275.078 190.125 274.768 190.872 274.767 191.651V257.264C274.768 258.043 275.078 258.79 275.628 259.341C276.179 259.892 276.926 260.202 277.705 260.203H542.099C542.878 260.202 543.625 259.892 544.176 259.341C544.727 258.79 545.036 258.043 545.037 257.264V191.651C545.036 190.872 544.727 190.124 544.176 189.573C543.625 189.023 542.878 188.713 542.099 188.712L277.705 188.712Z" fill="#E6E6E6"/>
<path d="M318.786 241.893C329.801 241.893 338.731 232.96 338.731 221.94C338.731 210.92 329.801 201.987 318.786 201.987C307.771 201.987 298.842 210.92 298.842 221.94C298.842 232.96 307.771 241.893 318.786 241.893Z" fill="#00BFA6"/>
<path d="M364.849 208.638C364.412 208.637 363.979 208.722 363.575 208.889C363.171 209.056 362.804 209.301 362.495 209.61C362.186 209.919 361.94 210.286 361.773 210.689C361.606 211.093 361.52 211.526 361.52 211.963C361.52 212.4 361.606 212.833 361.773 213.237C361.94 213.641 362.186 214.008 362.495 214.317C362.804 214.625 363.171 214.87 363.575 215.037C363.979 215.204 364.412 215.289 364.849 215.289H521.556C522.437 215.289 523.283 214.938 523.906 214.315C524.529 213.691 524.88 212.845 524.88 211.963C524.88 211.081 524.529 210.235 523.906 209.612C523.283 208.988 522.437 208.638 521.556 208.638H364.849Z" fill="#1B67A5"/>
<path d="M364.847 228.591C363.966 228.591 363.12 228.941 362.497 229.565C361.874 230.188 361.523 231.034 361.523 231.916C361.523 232.798 361.874 233.644 362.497 234.268C363.12 234.891 363.966 235.242 364.847 235.242H432.279C433.16 235.242 434.006 234.891 434.629 234.268C435.253 233.644 435.603 232.798 435.603 231.916C435.603 231.034 435.253 230.188 434.629 229.565C434.006 228.941 433.16 228.591 432.279 228.591H364.847Z" fill="#1B67A5"/>
<path d="M218.66 229.936L169.785 255.932L169.166 234.269C185.119 231.605 200.296 226.966 214.329 219.414L219.441 206.78C219.998 205.403 220.903 204.195 222.068 203.274C223.233 202.353 224.617 201.751 226.084 201.527C227.552 201.303 229.053 201.464 230.439 201.995C231.825 202.527 233.05 203.409 233.992 204.557V204.557C235.371 206.236 236.06 208.377 235.92 210.545C235.78 212.714 234.821 214.748 233.238 216.236L218.66 229.936Z" fill="#FFB8B8"/>
<path d="M99.2386 380.025C98.8821 378.716 98.8064 377.347 99.0165 376.008C99.2266 374.668 99.7178 373.388 100.458 372.252L111.194 355.768C113.734 351.869 117.63 349.053 122.128 347.866C126.626 346.679 131.404 347.205 135.535 349.343V349.343C131.023 357.027 131.652 363.768 137.094 369.626C128.646 373.752 120.839 379.077 113.913 385.436C112.649 386.298 111.197 386.845 109.679 387.033C108.16 387.22 106.618 387.041 105.183 386.512C103.747 385.983 102.458 385.118 101.425 383.989C100.391 382.861 99.6411 381.501 99.2386 380.025V380.025Z" fill="#2F2E41"/>
<path d="M220.887 358.471C219.262 361.18 216.969 363.426 214.227 364.993C211.485 366.56 208.386 367.395 205.228 367.419L133.902 367.96L130.809 350.011L162.361 340.726L135.758 320.301L164.836 286.26L217.65 335.506C220.737 338.384 222.743 342.235 223.332 346.415C223.921 350.596 223.058 354.851 220.887 358.471V358.471Z" fill="#1B67A5"/>
<path d="M122.765 481.226H106.061C91.063 378.377 75.7965 275.24 120.909 236.745L174.115 245.41L167.31 290.592L137.614 324.634L122.765 481.226Z" fill="#1B67A5"/>
<path d="M137.449 504.524C136.141 504.881 134.773 504.957 133.434 504.746C132.094 504.536 130.815 504.045 129.679 503.305L111.542 500.866C107.645 498.325 104.829 494.427 103.643 489.928C102.456 485.428 102.982 480.648 105.119 476.515C112.8 481.029 119.538 480.399 125.393 474.955C129.53 483.312 136.346 482.802 142.856 489.843C143.718 491.107 144.266 492.56 144.453 494.079C144.64 495.599 144.462 497.141 143.933 498.577C143.404 500.013 142.539 501.302 141.411 502.337C140.283 503.371 138.925 504.121 137.449 504.524V504.524Z" fill="#2F5675"/>
<path d="M162.36 168.042L131.426 160.615C136.563 150.094 136.986 138.388 134.519 125.954L155.554 125.335C156.213 140.797 158.207 155.241 162.36 168.042Z" fill="#FFB8B8"/>
<path d="M170.862 264.046C148.344 279.397 132.432 264.571 120.291 241.696C121.978 227.699 119.246 210.948 114.186 192.747C111.936 184.72 112.776 176.139 116.541 168.701C120.305 161.262 126.72 155.506 134.52 152.569V152.569L161.123 163.71C183.712 182.13 188.158 202.083 179.683 223.128L170.862 264.046Z" fill="#2F5675"/>
<path d="M106.062 183.516L81.3147 196.513L125.241 222.509L131.353 237.592C131.761 238.598 131.959 239.678 131.937 240.764C131.914 241.85 131.671 242.92 131.221 243.909C130.772 244.897 130.126 245.784 129.322 246.515C128.519 247.246 127.576 247.806 126.549 248.16V248.16C125.382 248.562 124.138 248.689 122.914 248.53C121.69 248.371 120.519 247.931 119.494 247.244C118.468 246.557 117.615 245.642 117.002 244.57C116.389 243.499 116.032 242.3 115.96 241.067L115.342 230.555L59.5125 212.124C57.6314 211.503 55.9163 210.461 54.497 209.079C53.0777 207.697 51.9915 206.009 51.3205 204.145V204.145C50.3425 201.427 50.2928 198.462 51.179 195.713C52.0652 192.963 53.8374 190.586 56.2183 188.952L101.112 158.139L106.062 183.516Z" fill="#FFB8B8"/>
<path d="M130.809 185.992C120.488 181.467 111.103 186.382 99.2564 190.324L97.4004 157.52C109.163 151.248 120.378 149.557 130.809 154.426L130.809 185.992Z" fill="#2F5675"/>
<path d="M143.154 141.584C154.062 141.584 162.904 132.738 162.904 121.826C162.904 110.914 154.062 102.067 143.154 102.067C132.247 102.067 123.404 110.914 123.404 121.826C123.404 132.738 132.247 141.584 143.154 141.584Z" fill="#FFB8B8"/>
<path d="M166.782 119.333C147.228 121.249 132.328 118.049 122.805 108.94V101.604H165.122L166.782 119.333Z" fill="#00BFA6"/>
<path d="M568.021 227.997C565.049 227.988 562.089 227.606 559.211 226.863L558.644 226.707L558.118 226.444C539.097 216.951 523.05 204.411 510.423 189.173C499.97 176.485 491.82 162.08 486.341 146.604C479.788 128.076 476.635 108.525 477.034 88.8865C477.042 88.4742 477.048 88.1559 477.048 87.9367C477.048 78.39 482.372 70.0135 490.61 66.5964C496.915 63.9811 554.162 40.5736 558.298 38.8823C566.088 34.9968 574.398 38.2399 575.728 38.807C578.711 40.0211 631.633 61.5689 643.069 66.99C654.855 72.5772 658 82.6143 658 87.6641C658 110.526 654.023 131.893 646.178 151.17C639.843 166.774 630.864 181.179 619.632 193.759C597.962 218.035 576.286 226.641 576.077 226.717C573.486 227.604 570.761 228.038 568.021 227.997ZM562.924 215.428C564.803 215.847 569.13 216.476 571.95 215.452C575.532 214.152 593.675 204.786 610.628 185.794C634.052 159.553 645.937 126.566 645.955 87.7485C645.913 86.9621 645.352 81.3531 637.89 77.8162C626.676 72.5 571.668 50.1091 571.114 49.8834L570.962 49.8192C569.809 49.3384 566.141 48.3254 563.612 49.6447L563.105 49.8797C562.492 50.1304 501.724 74.9766 495.243 77.6648C490.709 79.5453 489.094 84.2039 489.094 87.9367C489.094 88.2095 489.086 88.6063 489.076 89.1191C488.558 115.679 494.733 181.035 562.924 215.428Z" fill="#E6E6E6"/>
<path d="M560.819 44.3323C560.819 44.3323 499.485 69.4037 492.913 72.1289C486.342 74.854 483.056 81.3944 483.056 87.9348C483.056 94.4752 478.127 179.818 560.819 221.081C560.819 221.081 568.325 223.148 574.019 221.081C579.713 219.015 652 184.133 652 87.6623C652 87.6623 652 77.8517 640.5 72.4014C628.999 66.9511 573.398 44.3323 573.398 44.3323C573.398 44.3323 566.57 41.3346 560.819 44.3323Z" fill="#00BFA6"/>
<path opacity="0.1" d="M567 64V198C567 198 505.459 168.298 506.004 90.2109L567 64Z" fill="black"/>
<path d="M555.752 160L536 134.904L547.487 126.075L556.84 137.958L588.435 105L599 114.892L555.752 160Z" fill="white"/>
</svg>
