<svg width="653" height="511" viewBox="0 0 653 511" fill="none" xmlns="http://www.w3.org/2000/svg">
<path fill-rule="evenodd" clip-rule="evenodd" d="M354.393 484.073C269.617 486.146 176.294 542.056 109.689 486.416C40.9125 428.962 28.1698 317.733 46.6573 226.997C62.5826 148.835 134.702 105.401 196.624 59.74C244.275 24.6015 296.367 -1.53459 354.393 0.0700282C410.847 1.63118 463.84 26.3035 504.14 68.244C544.841 110.601 560.25 167.931 572.445 226.997C589.796 311.039 642.321 410.743 588.06 474.715C533.881 538.59 435.4 482.091 354.393 484.073Z" fill="#93B0F9" fill-opacity="0.15"/>
<g clip-path="url(#clip0_269_2573)">
<path d="M323.144 104.59C334.084 104.59 342.953 95.7326 342.953 84.8059C342.953 73.8793 334.084 65.0215 323.144 65.0215C312.203 65.0215 303.334 73.8793 303.334 84.8059C303.334 95.7326 312.203 104.59 323.144 104.59Z" fill="#FD6584"/>
<path d="M367.479 75.4377C366.92 73.6082 365.838 71.9818 364.366 70.7587C362.893 69.5357 361.095 68.7694 359.192 68.5541C359.147 68.5504 359.103 68.5504 359.058 68.5541C359.005 68.5375 358.95 68.5251 358.895 68.5171C352.262 67.6575 344.888 69.7471 339.924 74.2966C338.082 75.9589 336.608 77.9883 335.599 80.254C334.679 78.9989 333.466 77.9866 332.066 77.3049C330.666 76.6232 329.121 76.2926 327.564 76.3417C325.556 76.4743 323.638 77.222 322.072 78.4831C320.505 79.7441 319.366 81.457 318.81 83.3883C318.748 83.6243 318.765 83.8736 318.857 84.0993C318.95 84.3249 319.112 84.5148 319.321 84.6406C319.918 85.1502 320.628 85.5109 321.391 85.6927C323.031 86.041 324.686 86.3596 326.34 86.6486C329.575 87.2117 332.827 87.6686 336.096 88.0194C338.255 88.2491 340.419 88.4318 342.588 88.5677C347.069 88.8493 351.572 88.9159 356.061 88.7752C358.287 88.7011 360.423 88.627 362.456 87.6489C363.937 86.9213 365.203 85.8206 366.129 84.4553C367 83.1421 367.572 81.6541 367.805 80.0961C368.039 78.5381 367.927 76.948 367.479 75.4377Z" fill="#E6E6E6"/>
<path d="M326.725 104.262C326.687 103.433 326.548 102.611 326.309 101.817C325.748 99.9871 324.664 98.3613 323.191 97.1385C321.717 95.9156 319.918 95.1491 318.015 94.9329C317.973 94.9292 317.931 94.9292 317.889 94.9329C317.833 94.917 317.776 94.9047 317.718 94.8959C314.047 94.4468 310.322 94.8292 306.819 96.0147C301.433 97.8153 296.707 101.446 294.429 106.633C293.508 105.377 292.295 104.364 290.893 103.682C289.492 103.001 287.945 102.671 286.387 102.72C284.379 102.853 282.461 103.601 280.895 104.862C279.328 106.123 278.189 107.836 277.633 109.767C277.575 110.003 277.593 110.251 277.685 110.476C277.777 110.701 277.938 110.891 278.144 111.019C278.742 111.528 279.451 111.888 280.214 112.072C281.861 112.42 283.508 112.738 285.17 113.027C288.405 113.591 291.655 114.047 294.919 114.398C301.551 115.109 308.224 115.362 314.891 115.154C317.11 115.08 319.254 115.006 321.287 114.028C322.766 113.3 324.029 112.199 324.952 110.834C326.252 108.899 326.876 106.588 326.725 104.262V104.262Z" fill="#E6E6E6"/>
<path d="M545.712 385.577H469.015C468.596 379.443 468.633 373.287 469.126 367.158C472.19 329.299 492.814 293.233 523.929 271.395C519.953 285.54 521.996 299.602 526.138 313.72C525.558 313.913 524.978 314.079 524.454 314.299C520.253 315.853 516.398 318.214 513.106 321.248C512.195 322.103 511.229 323.343 511.698 324.529C512.112 325.522 513.355 325.853 514.432 326.073C517.027 326.569 519.622 327.066 522.19 327.535C524.26 327.948 526.331 328.334 528.402 328.748C529.368 328.913 530.334 329.106 531.3 329.299C531.438 329.63 531.521 329.934 531.659 330.237C536.519 343.61 541.819 357.094 544.304 370.798C544.919 374.237 545.343 377.707 545.574 381.193C545.657 382.654 545.712 384.116 545.712 385.577Z" fill="#F2F2F2"/>
<path d="M195.984 335.393C182.952 343.307 174.67 355.55 167.906 369.254C162.02 370.594 156.586 373.445 152.141 377.526C151.202 378.381 150.236 379.622 150.733 380.807C151.147 381.8 152.39 382.131 153.466 382.351C156.034 382.848 158.657 383.344 161.224 383.813C160.976 384.392 160.727 384.998 160.479 385.578H74.3398C78.2501 380.311 82.5804 375.368 87.2883 370.798C88.3098 369.778 89.359 368.813 90.4358 367.82C101.416 357.909 114.025 349.962 127.708 344.327C149.263 335.327 172.835 332.243 195.984 335.393V335.393Z" fill="#F2F2F2"/>
<path d="M374.227 353.417L442.757 359.493L443.491 359.56V67.5145C443.247 67.3441 443.002 67.1737 442.757 67.0032C428.474 57.0259 413.025 48.8292 396.751 42.5957L393.249 90.8328L392.93 95.249L389.465 143.086L388.397 157.802L374.353 351.713L374.227 353.417Z" fill="#E6E6E6"/>
<path d="M204.752 62.076C204.263 62.3872 203.773 62.6984 203.283 63.0245V359.56L204.752 359.427L272.541 353.418L272.414 351.714L258.37 157.802L257.302 143.086L253.837 95.2492L253.518 90.833L249.845 40.2471C234.008 45.7298 218.873 53.0566 204.752 62.076V62.076Z" fill="#E6E6E6"/>
<path d="M203.283 63.0246C202.297 63.6618 201.31 64.3139 200.338 64.9734V363.606C200.338 371.068 204.767 377.322 210.688 378.915C211.655 379.176 212.653 379.308 213.655 379.307H433.854C434.854 379.309 435.85 379.177 436.814 378.915C439.015 378.305 441.01 377.112 442.586 375.462C445.594 372.252 447.237 368.002 447.171 363.606V70.1676C445.955 69.271 444.731 68.3818 443.492 67.5149C443.247 67.3445 443.002 67.174 442.757 67.0036V363.606C442.759 364.567 442.644 365.525 442.416 366.459C441.37 370.868 437.92 374.098 433.854 374.098H213.655C208.744 374.098 204.752 369.393 204.752 363.606V62.0762C204.263 62.3874 203.773 62.6986 203.283 63.0246Z" fill="#E6E6E6"/>
<path d="M444.964 90.8359H202.543V95.2514H444.964V90.8359Z" fill="#E6E6E6"/>
<path d="M370.719 34.5118C369.25 34.1487 367.781 33.8079 366.297 33.4893V153.385H370.719V34.5118Z" fill="#E6E6E6"/>
<path d="M281.213 32C279.736 32.2742 278.26 32.5557 276.791 32.8595V153.386H281.213V32Z" fill="#E6E6E6"/>
<path d="M155.016 371.579C155.015 374.113 155.501 376.623 156.448 378.974C156.811 379.885 157.245 380.767 157.746 381.611C158.392 382.713 159.143 383.75 159.986 384.709C161.85 386.83 164.146 388.53 166.72 389.694C169.294 390.858 172.088 391.46 174.914 391.459H465.231C470.508 391.459 475.569 389.365 479.301 385.638C483.032 381.911 485.129 376.857 485.129 371.586C485.129 366.316 483.032 361.261 479.301 357.534C475.569 353.807 470.508 351.713 465.231 351.713H174.914C169.639 351.719 164.582 353.813 160.852 357.537C157.122 361.261 155.023 366.311 155.016 371.579V371.579Z" fill="#E6E6E6"/>
<path d="M202.543 157.803L443.49 157.803V143.085L202.543 143.085V157.803Z" fill="#E6E6E6"/>
<path d="M333.332 146.765H312.7C312.7 144.618 313.554 142.559 315.074 141.041C316.594 139.523 318.656 138.67 320.806 138.67H325.227C326.291 138.67 327.345 138.879 328.328 139.286C329.312 139.693 330.205 140.289 330.958 141.041C331.711 141.792 332.308 142.685 332.715 143.667C333.122 144.649 333.332 145.702 333.332 146.765V146.765H333.332Z" fill="#E6E6E6"/>
<path d="M0 382.931C6.44517 390.558 13.4163 397.726 20.8625 404.382H619.273C626.719 397.726 633.69 390.558 640.135 382.931H0Z" fill="#DDDDDD"/>
<path d="M294.309 311.197V387.191H347.615V311.197C347.616 310.651 347.441 310.118 347.117 309.678C346.792 309.238 346.335 308.913 345.812 308.752C345.566 308.671 345.307 308.631 345.048 308.633H296.883C296.545 308.633 296.211 308.699 295.899 308.827C295.587 308.956 295.303 309.144 295.064 309.382C294.825 309.621 294.635 309.903 294.505 310.215C294.376 310.526 294.309 310.86 294.309 311.197V311.197ZM315.112 337.309C315.126 335.811 315.732 334.379 316.797 333.325C317.863 332.27 319.302 331.679 320.802 331.679C322.302 331.679 323.742 332.27 324.807 333.325C325.873 334.379 326.479 335.811 326.493 337.309V346.127C326.485 347.629 325.882 349.067 324.816 350.126C323.749 351.186 322.306 351.781 320.802 351.781C319.298 351.781 317.855 351.186 316.789 350.126C315.722 349.067 315.119 347.629 315.112 346.127V337.309Z" fill="#2F2E41"/>
<path d="M294.145 384.761V392.089C294.146 392.469 294.297 392.832 294.565 393.101C294.833 393.371 295.196 393.523 295.576 393.526H346.345C346.726 393.525 347.09 393.372 347.358 393.103C347.627 392.833 347.777 392.469 347.777 392.089V384.761H294.145Z" fill="#3F3D56"/>
<path d="M210.451 196.703V335.457C210.453 337.225 211.157 338.92 212.408 340.171C213.66 341.421 215.358 342.124 217.128 342.125H423.009C424.779 342.124 426.477 341.421 427.728 340.171C428.98 338.92 429.684 337.225 429.686 335.457V196.703C429.681 194.936 428.976 193.243 427.725 191.995C426.473 190.746 424.777 190.044 423.009 190.042H217.128C215.359 190.044 213.664 190.746 212.412 191.995C211.16 193.243 210.455 194.936 210.451 196.703V196.703Z" fill="#3F3D56"/>
<path d="M215 198.429V333.745C215.002 334.689 215.378 335.595 216.047 336.263C216.716 336.931 217.623 337.307 218.569 337.309H421.014C421.96 337.307 422.866 336.931 423.535 336.263C424.204 335.595 424.581 334.689 424.582 333.745V198.429C424.582 197.483 424.206 196.576 423.537 195.906C422.868 195.237 421.961 194.859 421.014 194.857H218.569C217.621 194.859 216.714 195.237 216.045 195.906C215.376 196.576 215 197.483 215 198.429V198.429Z" fill="#00BFA6"/>
<path d="M256.561 395.253C256.767 395.511 257.029 395.719 257.327 395.861C257.625 396.004 257.952 396.077 258.282 396.075H378.724C379.053 396.075 379.378 396.001 379.676 395.859C379.973 395.718 380.235 395.512 380.442 395.256C380.65 395.001 380.798 394.702 380.875 394.382C380.953 394.063 380.958 393.73 380.89 393.408L379.021 384.538C378.943 384.177 378.776 383.84 378.535 383.559C378.294 383.278 377.987 383.062 377.641 382.93C377.39 382.832 377.123 382.782 376.854 382.782H260.144C259.875 382.782 259.608 382.832 259.358 382.93C259.012 383.062 258.704 383.278 258.463 383.559C258.222 383.84 258.055 384.177 257.978 384.538L256.108 393.408C256.042 393.73 256.048 394.062 256.126 394.381C256.204 394.7 256.353 394.998 256.561 395.253Z" fill="#2F2E41"/>
<path d="M372.651 386.603H375.636C375.836 386.603 375.998 386.441 375.998 386.241V384.741C375.998 384.542 375.836 384.38 375.636 384.38H372.651C372.451 384.38 372.288 384.542 372.288 384.741V386.241C372.288 386.441 372.451 386.603 372.651 386.603Z" fill="#3F3D56"/>
<path d="M365.231 386.603H368.216C368.416 386.603 368.578 386.441 368.578 386.241V384.741C368.578 384.542 368.416 384.38 368.216 384.38H365.231C365.031 384.38 364.869 384.542 364.869 384.741V386.241C364.869 386.441 365.031 386.603 365.231 386.603Z" fill="#3F3D56"/>
<path d="M357.813 386.603H360.798C360.998 386.603 361.16 386.441 361.16 386.241V384.741C361.16 384.542 360.998 384.38 360.798 384.38H357.813C357.613 384.38 357.451 384.542 357.451 384.741V386.241C357.451 386.441 357.613 386.603 357.813 386.603Z" fill="#3F3D56"/>
<path d="M350.393 386.603H353.378C353.578 386.603 353.74 386.441 353.74 386.241V384.741C353.74 384.542 353.578 384.38 353.378 384.38H350.393C350.193 384.38 350.031 384.542 350.031 384.741V386.241C350.031 386.441 350.193 386.603 350.393 386.603Z" fill="#3F3D56"/>
<path d="M342.975 386.603H345.96C346.16 386.603 346.322 386.441 346.322 386.241V384.741C346.322 384.542 346.16 384.38 345.96 384.38H342.975C342.775 384.38 342.613 384.542 342.613 384.741V386.241C342.613 386.441 342.775 386.603 342.975 386.603Z" fill="#3F3D56"/>
<path d="M335.555 386.603H338.54C338.74 386.603 338.902 386.441 338.902 386.241V384.741C338.902 384.542 338.74 384.38 338.54 384.38H335.555C335.355 384.38 335.193 384.542 335.193 384.741V386.241C335.193 386.441 335.355 386.603 335.555 386.603Z" fill="#3F3D56"/>
<path d="M328.135 386.603H331.12C331.32 386.603 331.482 386.441 331.482 386.241V384.741C331.482 384.542 331.32 384.38 331.12 384.38H328.135C327.935 384.38 327.773 384.542 327.773 384.741V386.241C327.773 386.441 327.935 386.603 328.135 386.603Z" fill="#3F3D56"/>
<path d="M320.717 386.603H323.702C323.902 386.603 324.064 386.441 324.064 386.241V384.741C324.064 384.542 323.902 384.38 323.702 384.38H320.717C320.517 384.38 320.355 384.542 320.355 384.741V386.241C320.355 386.441 320.517 386.603 320.717 386.603Z" fill="#3F3D56"/>
<path d="M313.297 386.603H316.282C316.482 386.603 316.645 386.441 316.645 386.241V384.741C316.645 384.542 316.482 384.38 316.282 384.38H313.297C313.097 384.38 312.935 384.542 312.935 384.741V386.241C312.935 386.441 313.097 386.603 313.297 386.603Z" fill="#3F3D56"/>
<path d="M305.879 386.603H308.864C309.064 386.603 309.227 386.441 309.227 386.241V384.741C309.227 384.542 309.064 384.38 308.864 384.38H305.879C305.679 384.38 305.517 384.542 305.517 384.741V386.241C305.517 386.441 305.679 386.603 305.879 386.603Z" fill="#3F3D56"/>
<path d="M298.459 386.603H301.444C301.644 386.603 301.807 386.441 301.807 386.241V384.741C301.807 384.542 301.644 384.38 301.444 384.38H298.459C298.259 384.38 298.097 384.542 298.097 384.741V386.241C298.097 386.441 298.259 386.603 298.459 386.603Z" fill="#3F3D56"/>
<path d="M291.041 386.603H294.026C294.226 386.603 294.389 386.441 294.389 386.241V384.741C294.389 384.542 294.226 384.38 294.026 384.38H291.041C290.841 384.38 290.679 384.542 290.679 384.741V386.241C290.679 386.441 290.841 386.603 291.041 386.603Z" fill="#3F3D56"/>
<path d="M283.621 386.603H286.607C286.807 386.603 286.969 386.441 286.969 386.241V384.741C286.969 384.542 286.807 384.38 286.607 384.38H283.621C283.421 384.38 283.259 384.542 283.259 384.741V386.241C283.259 386.441 283.421 386.603 283.621 386.603Z" fill="#3F3D56"/>
<path d="M276.201 386.603H279.187C279.387 386.603 279.549 386.441 279.549 386.241V384.741C279.549 384.542 279.387 384.38 279.187 384.38H276.201C276.001 384.38 275.839 384.542 275.839 384.741V386.241C275.839 386.441 276.001 386.603 276.201 386.603Z" fill="#3F3D56"/>
<path d="M268.783 386.603H271.769C271.969 386.603 272.131 386.441 272.131 386.241V384.741C272.131 384.542 271.969 384.38 271.769 384.38H268.783C268.583 384.38 268.421 384.542 268.421 384.741V386.241C268.421 386.441 268.583 386.603 268.783 386.603Z" fill="#3F3D56"/>
<path d="M261.364 386.603H264.349C264.549 386.603 264.711 386.441 264.711 386.241V384.741C264.711 384.542 264.549 384.38 264.349 384.38H261.364C261.164 384.38 261.001 384.542 261.001 384.741V386.241C261.001 386.441 261.164 386.603 261.364 386.603Z" fill="#3F3D56"/>
<path d="M372.739 390.308H375.724C375.924 390.308 376.086 390.146 376.086 389.946V388.446C376.086 388.247 375.924 388.085 375.724 388.085H372.739C372.539 388.085 372.376 388.247 372.376 388.446V389.946C372.376 390.146 372.539 390.308 372.739 390.308Z" fill="#3F3D56"/>
<path d="M365.319 390.308H368.304C368.504 390.308 368.666 390.146 368.666 389.946V388.446C368.666 388.247 368.504 388.085 368.304 388.085H365.319C365.119 388.085 364.956 388.247 364.956 388.446V389.946C364.956 390.146 365.119 390.308 365.319 390.308Z" fill="#3F3D56"/>
<path d="M357.901 390.308H360.886C361.086 390.308 361.248 390.146 361.248 389.946V388.446C361.248 388.247 361.086 388.085 360.886 388.085H357.901C357.701 388.085 357.538 388.247 357.538 388.446V389.946C357.538 390.146 357.701 390.308 357.901 390.308Z" fill="#3F3D56"/>
<path d="M350.481 390.308H353.466C353.666 390.308 353.828 390.146 353.828 389.946V388.446C353.828 388.247 353.666 388.085 353.466 388.085H350.481C350.281 388.085 350.119 388.247 350.119 388.446V389.946C350.119 390.146 350.281 390.308 350.481 390.308Z" fill="#3F3D56"/>
<path d="M343.063 390.308H346.048C346.248 390.308 346.41 390.146 346.41 389.946V388.446C346.41 388.247 346.248 388.085 346.048 388.085H343.063C342.863 388.085 342.701 388.247 342.701 388.446V389.946C342.701 390.146 342.863 390.308 343.063 390.308Z" fill="#3F3D56"/>
<path d="M335.643 390.308H338.628C338.828 390.308 338.99 390.146 338.99 389.946V388.446C338.99 388.247 338.828 388.085 338.628 388.085H335.643C335.443 388.085 335.281 388.247 335.281 388.446V389.946C335.281 390.146 335.443 390.308 335.643 390.308Z" fill="#3F3D56"/>
<path d="M328.223 390.308H331.208C331.408 390.308 331.57 390.146 331.57 389.946V388.446C331.57 388.247 331.408 388.085 331.208 388.085H328.223C328.023 388.085 327.861 388.247 327.861 388.446V389.946C327.861 390.146 328.023 390.308 328.223 390.308Z" fill="#3F3D56"/>
<path d="M320.805 390.308H323.79C323.99 390.308 324.152 390.146 324.152 389.946V388.446C324.152 388.247 323.99 388.085 323.79 388.085H320.805C320.605 388.085 320.443 388.247 320.443 388.446V389.946C320.443 390.146 320.605 390.308 320.805 390.308Z" fill="#3F3D56"/>
<path d="M313.385 390.308H316.37C316.57 390.308 316.732 390.146 316.732 389.946V388.446C316.732 388.247 316.57 388.085 316.37 388.085H313.385C313.185 388.085 313.023 388.247 313.023 388.446V389.946C313.023 390.146 313.185 390.308 313.385 390.308Z" fill="#3F3D56"/>
<path d="M305.967 390.308H308.952C309.152 390.308 309.314 390.146 309.314 389.946V388.446C309.314 388.247 309.152 388.085 308.952 388.085H305.967C305.767 388.085 305.605 388.247 305.605 388.446V389.946C305.605 390.146 305.767 390.308 305.967 390.308Z" fill="#3F3D56"/>
<path d="M298.547 390.308H301.532C301.732 390.308 301.895 390.146 301.895 389.946V388.446C301.895 388.247 301.732 388.085 301.532 388.085H298.547C298.347 388.085 298.185 388.247 298.185 388.446V389.946C298.185 390.146 298.347 390.308 298.547 390.308Z" fill="#3F3D56"/>
<path d="M291.127 390.308H294.112C294.312 390.308 294.475 390.146 294.475 389.946V388.446C294.475 388.247 294.312 388.085 294.112 388.085H291.127C290.927 388.085 290.765 388.247 290.765 388.446V389.946C290.765 390.146 290.927 390.308 291.127 390.308Z" fill="#3F3D56"/>
<path d="M283.709 390.308H286.694C286.894 390.308 287.057 390.146 287.057 389.946V388.446C287.057 388.247 286.894 388.085 286.694 388.085H283.709C283.509 388.085 283.347 388.247 283.347 388.446V389.946C283.347 390.146 283.509 390.308 283.709 390.308Z" fill="#3F3D56"/>
<path d="M276.289 390.308H279.275C279.475 390.308 279.637 390.146 279.637 389.946V388.446C279.637 388.247 279.475 388.085 279.275 388.085H276.289C276.089 388.085 275.927 388.247 275.927 388.446V389.946C275.927 390.146 276.089 390.308 276.289 390.308Z" fill="#3F3D56"/>
<path d="M268.871 390.308H271.857C272.057 390.308 272.219 390.146 272.219 389.946V388.446C272.219 388.247 272.057 388.085 271.857 388.085H268.871C268.671 388.085 268.509 388.247 268.509 388.446V389.946C268.509 390.146 268.671 390.308 268.871 390.308Z" fill="#3F3D56"/>
<path d="M261.451 390.308H264.437C264.637 390.308 264.799 390.146 264.799 389.946V388.446C264.799 388.247 264.637 388.085 264.437 388.085H261.451C261.251 388.085 261.089 388.247 261.089 388.446V389.946C261.089 390.146 261.251 390.308 261.451 390.308Z" fill="#3F3D56"/>
<path d="M311.16 394.753H340.112C340.312 394.753 340.475 394.591 340.475 394.392V392.892C340.475 392.692 340.312 392.531 340.112 392.531H311.16C310.96 392.531 310.798 392.692 310.798 392.892V394.392C310.798 394.591 310.96 394.753 311.16 394.753Z" fill="#3F3D56"/>
<path d="M229.022 213.498H418.449C418.646 213.494 418.833 213.412 418.971 213.272C419.109 213.131 419.186 212.942 419.186 212.746C419.186 212.549 419.109 212.36 418.971 212.219C418.833 212.079 418.646 211.997 418.449 211.993H229.022C228.825 211.997 228.638 212.079 228.5 212.219C228.362 212.36 228.285 212.549 228.285 212.746C228.285 212.942 228.362 213.131 228.5 213.272C228.638 213.412 228.825 213.494 229.022 213.498V213.498Z" fill="#3F3D56"/>
<path d="M405.553 208.152C407.991 208.152 409.968 206.134 409.968 203.645C409.968 201.155 407.991 199.137 405.553 199.137C403.115 199.137 401.139 201.155 401.139 203.645C401.139 206.134 403.115 208.152 405.553 208.152Z" fill="#3F3D56"/>
<path d="M390.303 208.152C392.742 208.152 394.718 206.134 394.718 203.645C394.718 201.155 392.742 199.137 390.303 199.137C387.865 199.137 385.889 201.155 385.889 203.645C385.889 206.134 387.865 208.152 390.303 208.152Z" fill="#3F3D56"/>
<path d="M375.053 208.152C377.492 208.152 379.468 206.134 379.468 203.645C379.468 201.155 377.492 199.137 375.053 199.137C372.615 199.137 370.639 201.155 370.639 203.645C370.639 206.134 372.615 208.152 375.053 208.152Z" fill="#3F3D56"/>
<path d="M237.396 201.074C237.396 201.181 237.417 201.287 237.457 201.385C237.497 201.484 237.557 201.574 237.632 201.649C237.707 201.725 237.796 201.785 237.895 201.826C237.993 201.868 238.098 201.889 238.205 201.89H249.037C249.251 201.885 249.455 201.796 249.605 201.643C249.754 201.49 249.838 201.285 249.838 201.071C249.838 200.857 249.754 200.651 249.605 200.498C249.455 200.345 249.251 200.257 249.037 200.252H238.205C237.989 200.255 237.783 200.343 237.631 200.497C237.48 200.651 237.395 200.858 237.396 201.074V201.074Z" fill="#3F3D56"/>
<path d="M237.396 204.15C237.396 204.256 237.417 204.362 237.457 204.46C237.497 204.559 237.557 204.649 237.632 204.724C237.707 204.8 237.796 204.86 237.895 204.902C237.993 204.943 238.098 204.964 238.205 204.965H249.037C249.251 204.96 249.455 204.872 249.605 204.719C249.755 204.566 249.839 204.36 249.839 204.146C249.839 203.932 249.755 203.726 249.605 203.573C249.455 203.42 249.251 203.332 249.037 203.327H238.205C237.989 203.33 237.783 203.418 237.631 203.572C237.48 203.726 237.395 203.934 237.396 204.15V204.15Z" fill="#3F3D56"/>
<path d="M237.396 207.217C237.395 207.433 237.48 207.641 237.631 207.795C237.783 207.949 237.989 208.037 238.205 208.039H249.037C249.251 208.034 249.455 207.946 249.605 207.793C249.754 207.64 249.838 207.435 249.838 207.221C249.838 207.007 249.754 206.801 249.605 206.648C249.455 206.495 249.251 206.407 249.037 206.402H238.205C238.098 206.402 237.993 206.424 237.895 206.465C237.796 206.506 237.707 206.566 237.632 206.642C237.557 206.718 237.497 206.807 237.457 206.906C237.417 207.005 237.396 207.11 237.396 207.217V207.217Z" fill="#3F3D56"/>
<path d="M259.603 436.534C259.439 436.615 259.276 436.697 259.113 436.771C258.082 437.282 257.043 437.786 255.997 438.282C252.866 439.772 249.696 441.187 246.486 442.528C238.039 446.056 229.373 449.034 220.541 451.442C219.057 442.202 217.618 420.41 216.238 404.383C215.978 401.367 215.719 398.559 215.459 396.077C215.212 392.818 214.744 389.58 214.057 386.385C213.989 386.135 213.892 385.893 213.767 385.666C213.908 386.948 214.057 390.771 214.198 396.077C214.272 398.559 214.339 401.367 214.413 404.383C214.762 419.81 215.125 440.802 215.489 452.754C214.457 453.005 213.419 453.257 212.38 453.494C211.727 453.65 211.067 453.798 210.406 453.939C209.605 454.117 208.804 454.295 208.003 454.458C207.164 454.636 206.326 454.806 205.488 454.969C191.788 457.657 177.858 459.007 163.896 459C162.969 459 162.049 458.992 161.121 458.985C160.839 458.985 160.558 458.978 160.268 458.97C159.452 458.955 158.606 458.941 157.746 458.918C141.246 458.463 124.855 456.103 108.898 451.887L109.544 404.383L109.655 396.077L109.7 392.928C109.332 393.941 109.112 395.001 109.047 396.077C108.787 398.1 108.52 400.967 108.253 404.383C107.236 417.543 106.19 438.771 105.107 450.849C92.2795 447.204 82.9018 443.877 71.1796 438.023C70.727 437.801 70.267 437.571 69.8145 437.341C69.8961 436.771 69.9851 436.2 70.0667 435.615C71.3947 426.397 69.8293 414.401 71.2983 404.383C72.4186 396.655 73.5759 389.23 74.7407 382.932C76.1504 375.352 77.5822 369.394 78.9993 366.497C80.6315 363.155 82.2637 359.866 83.844 356.716C84.5266 355.36 85.1968 354.029 85.8546 352.723C86.2107 352.019 86.5668 351.322 86.9155 350.641C88.5032 347.536 90.0018 344.668 91.3744 342.127C92.3389 340.341 93.2292 338.726 94.0453 337.31C95.0023 335.643 95.8481 334.265 96.5455 333.22C101.697 325.422 109.361 319.616 118.269 316.763L118.491 316.704L118.706 316.793L118.951 316.904L133.092 311.74L139.406 296.557L171.835 294.564L177.072 298.543L179.751 300.581L182.607 302.752L187.86 306.746L189.351 307.205L191.569 307.887L206.741 312.54L206.897 312.473L207.12 312.532C215.226 315.124 222.321 320.174 227.418 326.981C227.923 327.633 228.39 328.308 228.843 328.989C230.075 330.812 231.736 333.695 233.695 337.31C234.504 338.8 235.357 340.415 236.255 342.127C236.796 343.157 241.47 357.724 246.018 372.603C250.269 386.533 254.409 400.737 254.951 404.383C255.047 405.057 255.151 405.739 255.248 406.413C255.863 410.629 256.472 414.875 257.058 419.017C257.926 425.16 258.772 431.088 259.58 436.385C259.588 436.437 259.595 436.482 259.603 436.534Z" fill="#2F5675"/>
<path opacity="0.2" d="M225.236 382.898L218.932 358.6L213.365 379.567L225.236 382.898Z" fill="black"/>
<path d="M11.743 382.616C12.0698 383.567 12.6899 384.389 13.5141 384.966C14.3382 385.543 15.3242 385.843 16.3303 385.825L35.9848 385.32C36.9983 385.301 37.9782 384.954 38.778 384.332C39.5778 383.71 40.1546 382.846 40.4221 381.87L43.2034 352.166C44.1902 352.613 45.2645 352.833 46.3476 352.811C48.248 352.764 50.0517 351.964 51.3617 350.588C52.6718 349.213 53.381 347.373 53.3333 345.475C53.2856 343.577 52.4849 341.776 51.1074 340.467C49.7298 339.159 47.8883 338.451 45.9878 338.498C45.5549 338.497 45.1231 338.542 44.6997 338.632C44.2393 338.135 43.6797 337.739 43.0569 337.471C42.4341 337.202 41.7619 337.067 41.0836 337.074L10.8504 337.854C10.5996 337.863 10.3501 337.894 10.1046 337.946C9.44163 338.07 8.81279 338.333 8.26044 338.72C7.70809 339.106 7.24504 339.607 6.90248 340.187C6.55992 340.767 6.34579 341.414 6.2745 342.084C6.20321 342.754 6.27642 343.431 6.48919 344.07L11.743 382.616ZM43.7738 350.149L45.7529 343.071C45.9781 342.253 45.9833 341.391 45.7681 340.571C45.8641 340.57 45.9488 340.525 46.0448 340.525C47.4019 340.497 48.7147 341.007 49.6954 341.944C50.6761 342.882 51.2446 344.169 51.2764 345.524C51.3082 346.879 50.8006 348.192 49.8649 349.174C48.9292 350.156 47.6418 350.727 46.2849 350.763C45.4076 350.79 44.5394 350.578 43.7738 350.149V350.149Z" fill="#00BFA6"/>
<path d="M10.1055 337.946C10.7496 341.624 17.9913 344.21 26.6989 343.761C34.7062 343.392 41.2533 340.584 42.4528 337.256C42.0089 337.125 41.5473 337.063 41.0845 337.074L10.8512 337.854C10.6004 337.863 10.3509 337.894 10.1055 337.946V337.946Z" fill="#009985"/>
<path d="M582.511 437.34C582.058 437.57 581.598 437.799 581.146 438.022C569.423 443.875 560.046 447.202 547.218 450.848C546.135 438.77 545.089 417.541 544.072 404.382C543.805 400.966 543.538 398.098 543.279 396.075C543.213 395 542.993 393.939 542.626 392.926L542.67 396.075L542.781 404.382L543.427 451.885C527.47 456.102 511.079 458.461 494.58 458.917C493.719 458.939 492.873 458.954 492.057 458.969C491.768 458.976 491.486 458.984 491.204 458.984C490.276 458.991 489.356 458.998 488.429 458.998C471.042 459.011 453.717 456.914 436.837 452.752C437.2 440.8 437.564 419.809 437.912 404.382C437.987 401.366 438.053 398.558 438.128 396.075C438.268 390.77 438.417 386.947 438.558 385.665C438.433 385.892 438.336 386.133 438.269 386.383C437.581 389.578 437.113 392.817 436.866 396.075C436.607 398.558 436.347 401.366 436.087 404.382C434.707 420.409 433.268 442.201 431.784 451.441C422.952 449.032 414.286 446.055 405.84 442.527C401.388 440.674 397.016 438.676 392.723 436.532C393.539 431.197 394.392 425.218 395.267 419.016C395.95 414.207 396.655 409.265 397.374 404.382C398.487 396.838 436.295 315.384 445.205 312.531L445.428 312.472L445.584 312.538L460.756 307.885L462.974 307.203L464.465 306.744L469.718 302.75L472.574 300.579L475.253 298.542L480.491 294.562L512.92 296.556L519.233 311.738L533.374 316.903L533.619 316.792L533.834 316.703L534.057 316.762C542.964 319.614 550.629 325.421 555.78 333.219C556.477 334.264 557.323 335.642 558.28 337.309C559.096 338.724 559.986 340.34 560.951 342.125C562.323 344.667 563.822 347.534 565.41 350.639C565.758 351.321 566.115 352.017 566.471 352.721C567.131 354.025 567.801 355.356 568.481 356.715C570.061 359.864 571.694 363.154 573.326 366.496C574.743 369.393 576.175 375.35 577.584 382.93C578.749 389.229 579.907 396.653 581.027 404.382C582.496 414.399 580.93 426.396 582.258 435.613C582.34 436.199 582.429 436.769 582.511 437.34Z" fill="#1B67A5"/>
<path d="M487.402 289.112C508.232 289.112 525.118 272.248 525.118 251.444C525.118 230.641 508.232 213.776 487.402 213.776C466.572 213.776 449.686 230.641 449.686 251.444C449.686 272.248 466.572 289.112 487.402 289.112Z" fill="#FFB6B6"/>
<path opacity="0.2" d="M427.088 382.898L433.392 358.6L438.958 379.567L427.088 382.898Z" fill="black"/>
<path d="M594.842 367.066C592.586 398.098 594.923 411.762 582.474 437.347C571.147 442.884 559.348 447.402 547.218 450.848C545.957 451.204 544.693 451.549 543.427 451.885C527.471 456.102 511.079 458.461 494.58 458.917C493.719 458.939 492.873 458.954 492.057 458.969C491.768 458.976 491.486 458.984 491.204 458.984C490.277 458.991 489.357 458.999 488.429 458.999C471.042 459.011 453.718 456.914 436.837 452.752C435.145 452.337 433.461 451.9 431.785 451.441C422.953 449.032 414.286 446.055 405.84 442.527C401.388 440.674 397.016 438.676 392.723 436.532C391.751 436.043 390.779 435.554 389.822 435.05C384.903 426.411 382.106 415.904 382.047 403.278C385.452 381.523 587.319 348.305 594.842 367.066Z" fill="#E6E6E6"/>
<path opacity="0.2" d="M594.834 372.381C594.949 370.46 595.078 368.475 595.228 366.409C587.705 347.647 385.839 380.865 382.434 402.62C382.443 404.614 382.528 406.55 382.672 408.44C390.919 386.968 582.695 355.397 594.834 372.381Z" fill="#888888"/>
<path d="M393.595 353.36L371.502 364.393L388.268 416.86C389.472 420.628 391.63 424.021 394.534 426.71C397.437 429.4 400.987 431.294 404.839 432.21C409.589 433.34 414.576 432.929 419.076 431.038C423.577 429.146 427.357 425.872 429.869 421.691L474.328 345.583C477.479 340.338 478.451 334.071 477.038 328.121C475.625 322.17 471.937 317.007 466.764 313.734V313.734C463.981 311.974 460.859 310.819 457.6 310.344C454.341 309.869 451.019 310.085 447.849 310.977C444.678 311.869 441.732 313.418 439.201 315.523C436.67 317.628 434.611 320.241 433.158 323.193L406.022 380.941L393.595 353.36Z" fill="#1B67A5"/>
<path d="M155.436 286.513C178.355 286.513 196.935 267.957 196.935 245.067C196.935 222.177 178.355 203.621 155.436 203.621C132.517 203.621 113.938 222.177 113.938 245.067C113.938 267.957 132.517 286.513 155.436 286.513Z" fill="#A0616A"/>
<path d="M114.436 216.506C117.81 211.964 122.66 208.735 126.369 204.461C128.405 202.117 130.095 199.46 132.383 197.361C136.635 193.461 142.58 191.863 148.349 191.665C154.672 191.502 160.944 192.829 166.658 195.537C172.371 198.246 177.367 202.259 181.239 207.253C184.254 205.488 187.27 203.722 190.286 201.956C191.477 205.088 192.668 208.219 193.86 211.351C194.837 210.502 196.084 210.027 197.38 210.009C198.675 209.991 199.935 210.431 200.936 211.252C201.937 212.073 202.615 213.222 202.85 214.494C203.084 215.766 202.859 217.081 202.216 218.204C202.934 215.989 206.222 215.519 208.035 216.982C209.847 218.445 210.333 221.049 210.037 223.358C209.666 225.891 208.545 228.255 206.817 230.147C205.09 232.038 202.836 233.371 200.344 233.973C196.409 234.848 191.829 233.928 188.679 236.442C186.154 238.457 185.392 242.126 182.815 244.075C179.64 246.476 175.152 245.366 171.205 245.896C164.299 246.825 158.831 253.879 159.661 260.788C159.036 258.608 158.379 256.365 156.961 254.594C155.543 252.822 153.154 251.625 150.98 252.276C147.384 253.352 146.796 258.246 147.668 261.892C149.978 271.562 158.736 287.192 158.736 287.192C147.365 291.672 133.816 287.436 125.042 278.935C116.268 270.433 111.699 258.396 109.708 246.35C108.02 236.135 108.259 224.82 114.436 216.506Z" fill="#00BFA6"/>
<path d="M534.666 272.209C542.561 254.131 538.089 237.495 528.464 228.67V228.662C524.68 220.193 519.65 213.657 513.893 212.124C511.111 210.338 508.41 208.241 505.413 207.174C504.017 206.652 502.529 206.418 501.04 206.485C499.551 206.553 498.09 206.921 496.747 207.567L495.219 207.159C493.921 203.847 492.4 203.78 490.708 205.959C484.194 202.928 478.326 201.572 473.103 201.572C456.068 201.572 445.993 215.977 443.322 233.389L457.56 237.176L462.508 229.299L460.223 237.887L468.08 239.969C480.039 255.522 465.728 291.4 447.588 311.362C451.906 310.169 456.207 309.161 460.49 308.339L476.055 285.546L466.411 306.293C471.418 305.56 477.806 306.264 484.788 307.679C487.14 304.611 488.379 300.521 487.162 296.876C489.151 300.721 490.523 304.854 491.227 309.124C505.962 312.718 526.06 314.563 536.892 315.926C545.644 313.073 545.667 280.849 534.666 272.209Z" fill="#00BFA6"/>
<path d="M539.803 210.715C545.586 223.647 533.917 229.21 523.228 229.053C513.569 228.911 505.36 222.134 504.867 212.498C504.63 207.871 506.243 203.34 509.352 199.901C512.46 196.462 516.809 194.397 521.442 194.161C531.089 193.668 535.864 201.906 539.803 210.715Z" fill="#00BFA6"/>
<path d="M271.526 421.238L262 405.369L293.673 381.371L306.842 367.484C308.553 365.68 310.708 364.356 313.092 363.645C315.475 362.933 318.004 362.859 320.426 363.429C322.848 363.999 325.077 365.194 326.891 366.894C328.705 368.595 330.041 370.741 330.765 373.118V373.118C331.837 376.642 331.497 380.443 329.816 383.72C328.135 386.998 325.245 389.495 321.756 390.684L301.292 397.662L271.526 421.238Z" fill="#A0616A"/>
<path d="M278.411 420.714L263.58 433.059L259.581 436.386L259.114 436.771C258.083 437.282 257.044 437.786 255.998 438.283C252.867 439.772 249.697 441.187 246.487 442.529C238.04 446.057 229.374 449.034 220.542 451.442C218.865 451.902 217.181 452.339 215.49 452.754C214.458 453.006 213.42 453.258 212.381 453.495C211.728 453.65 211.068 453.799 210.408 453.939C209.606 454.117 208.805 454.295 208.004 454.458C207.165 454.636 206.327 454.806 205.489 454.969C203.233 452.826 201.437 450.246 200.21 447.388C198.983 444.53 198.351 441.452 198.352 438.342C198.352 438.142 198.352 437.934 198.359 437.727L200.741 376.723L201.794 349.685C201.956 343.571 204.507 337.762 208.9 333.5C213.293 329.239 219.181 326.862 225.305 326.878C226.017 326.878 226.722 326.915 227.42 326.982C227.924 327.634 228.392 328.308 228.844 328.99C230.076 330.813 231.738 333.695 233.696 337.311C234.505 338.8 235.358 340.416 236.256 342.127C236.797 343.157 241.471 357.725 246.019 372.603L244.016 388.141L240.396 416.15L255.249 406.414L265.71 399.552L266.949 401.62L270.176 406.999L276.408 417.373L278.411 420.714Z" fill="#2F5675"/>
<path d="M270.279 403.279C270.272 404.539 270.242 405.776 270.175 406.999C270.021 410.371 269.629 413.729 269.003 417.046C267.979 422.617 266.152 428.011 263.58 433.059C263.238 433.733 262.875 434.4 262.504 435.052C261.547 435.556 260.575 436.045 259.603 436.534C259.44 436.615 259.277 436.697 259.113 436.771C254.981 438.823 250.772 440.743 246.486 442.528C238.04 446.056 229.373 449.034 220.541 451.442C218.865 451.902 217.181 452.339 215.489 452.754C212.188 453.569 208.854 454.307 205.488 454.969C191.788 457.657 177.859 459.007 163.897 459C162.969 459 162.049 458.993 161.122 458.985C160.84 458.985 160.558 458.978 160.269 458.97C159.453 458.956 158.607 458.941 157.746 458.919C141.247 458.463 124.855 456.103 108.899 451.887C107.63 451.553 106.366 451.207 105.108 450.849C92.9776 447.404 81.1791 442.886 69.852 437.349C57.4028 411.763 59.7398 398.1 57.4844 367.068C62.1139 355.516 140.437 363.674 200.74 376.723C217.106 380.265 232.138 384.17 244.015 388.141C256.287 392.239 265.182 396.403 268.669 400.315C269.484 401.125 270.044 402.155 270.279 403.279V403.279Z" fill="#E6E6E6"/>
<path opacity="0.2" d="M57.4899 372.381C57.3747 370.46 57.2459 368.475 57.0957 366.409C64.6187 347.647 266.485 380.865 269.89 402.62C269.881 404.614 269.796 406.55 269.652 408.44C261.405 386.968 69.6295 355.397 57.4899 372.381Z" fill="#5983A5"/>
<path d="M392.107 331.024H247.893C244.475 331.023 241.197 330.363 238.78 329.19C236.363 328.016 235.004 326.426 235 324.767V223.258C235.004 221.599 236.363 220.008 238.78 218.835C241.197 217.662 244.475 217.002 247.893 217H392.107C395.525 217.002 398.803 217.662 401.22 218.835C403.637 220.008 404.996 221.599 405 223.258V324.767C404.996 326.426 403.637 328.016 401.22 329.19C398.803 330.363 395.525 331.023 392.107 331.024V331.024Z" fill="#E6E6E6"/>
<path d="M378.719 299.927H261.282C261.184 299.927 261.091 299.889 261.022 299.821C260.953 299.753 260.914 299.662 260.914 299.566V244.312C260.914 244.216 260.953 244.125 261.022 244.057C261.091 243.989 261.184 243.951 261.282 243.951C261.379 243.951 261.473 243.989 261.541 244.057C261.61 244.125 261.649 244.216 261.649 244.312V299.205H378.719C378.816 299.206 378.909 299.244 378.978 299.311C379.046 299.379 379.085 299.471 379.085 299.566C379.085 299.661 379.046 299.753 378.978 299.821C378.909 299.888 378.816 299.926 378.719 299.927V299.927Z" fill="#3F3D56"/>
<path d="M286.81 295.781H276.481C276.201 295.78 275.933 295.668 275.735 295.467C275.537 295.266 275.426 294.994 275.426 294.71V280.266C275.426 279.982 275.537 279.71 275.735 279.509C275.933 279.308 276.201 279.196 276.481 279.195H286.81C287.089 279.196 287.358 279.308 287.555 279.509C287.753 279.71 287.864 279.982 287.865 280.266V294.71C287.864 294.994 287.753 295.266 287.555 295.467C287.358 295.668 287.089 295.78 286.81 295.781Z" fill="#00BFA6"/>
<path d="M306.419 295.781H295.229C294.926 295.78 294.635 295.668 294.421 295.469C294.207 295.27 294.086 295 294.086 294.718V266.782C294.086 266.5 294.207 266.23 294.421 266.031C294.635 265.832 294.926 265.72 295.229 265.72H306.419C306.722 265.72 307.012 265.832 307.226 266.031C307.441 266.23 307.561 266.5 307.562 266.782V294.718C307.561 295 307.441 295.27 307.226 295.469C307.012 295.668 306.722 295.78 306.419 295.781V295.781Z" fill="#00BFA6"/>
<path d="M325.165 295.781H314.836C314.557 295.78 314.288 295.668 314.091 295.467C313.893 295.266 313.782 294.994 313.781 294.71V280.266C313.782 279.982 313.893 279.71 314.091 279.509C314.288 279.308 314.557 279.196 314.836 279.195H325.165C325.445 279.196 325.713 279.308 325.911 279.509C326.109 279.71 326.22 279.982 326.22 280.266V294.71C326.22 294.994 326.109 295.266 325.911 295.467C325.713 295.668 325.445 295.78 325.165 295.781V295.781Z" fill="#00BFA6"/>
<path d="M344.861 295.78H334.532C334.258 295.786 333.994 295.683 333.796 295.494C333.598 295.305 333.483 295.045 333.477 294.771V261.546C333.483 261.272 333.598 261.012 333.796 260.823C333.994 260.634 334.258 260.531 334.532 260.537H344.861C345.134 260.531 345.398 260.634 345.596 260.823C345.794 261.012 345.909 261.272 345.916 261.546V294.771C345.909 295.045 345.794 295.305 345.596 295.494C345.398 295.683 345.134 295.786 344.861 295.78V295.78Z" fill="#00BFA6"/>
<path d="M364.465 295.781H353.276C352.973 295.78 352.682 295.667 352.468 295.466C352.254 295.264 352.133 294.991 352.133 294.706V251.245C352.133 250.96 352.254 250.687 352.468 250.486C352.682 250.285 352.973 250.171 353.276 250.171H364.465C364.769 250.171 365.059 250.285 365.273 250.486C365.488 250.687 365.608 250.96 365.608 251.245V294.706C365.608 294.991 365.488 295.264 365.273 295.466C365.059 295.667 364.769 295.78 364.465 295.781V295.781Z" fill="#00BFA6"/>
<path d="M281.647 275.049C282.792 275.049 283.721 274.12 283.721 272.976C283.721 271.831 282.792 270.902 281.647 270.902C280.502 270.902 279.574 271.831 279.574 272.976C279.574 274.12 280.502 275.049 281.647 275.049Z" fill="#3F3D56"/>
<path d="M300.304 260.536C301.449 260.536 302.377 259.608 302.377 258.463C302.377 257.318 301.449 256.39 300.304 256.39C299.159 256.39 298.23 257.318 298.23 258.463C298.23 259.608 299.159 260.536 300.304 260.536Z" fill="#3F3D56"/>
<path d="M319.999 275.049C321.144 275.049 322.072 274.12 322.072 272.976C322.072 271.831 321.144 270.902 319.999 270.902C318.854 270.902 317.926 271.831 317.926 272.976C317.926 274.12 318.854 275.049 319.999 275.049Z" fill="#3F3D56"/>
<path d="M339.694 254.317C340.839 254.317 341.767 253.156 341.767 251.725C341.767 250.294 340.839 249.134 339.694 249.134C338.549 249.134 337.621 250.294 337.621 251.725C337.621 253.156 338.549 254.317 339.694 254.317Z" fill="#3F3D56"/>
<path d="M358.354 246.024C359.499 246.024 360.428 245.096 360.428 243.951C360.428 242.806 359.499 241.878 358.354 241.878C357.209 241.878 356.281 242.806 356.281 243.951C356.281 245.096 357.209 246.024 358.354 246.024Z" fill="#3F3D56"/>
<path d="M319.569 272.976L300.176 258.827L281.047 272.782L280.609 272.213L300.176 257.938L319.477 272.02L338.656 251.575L338.733 251.544L358.08 243.951L358.353 244.611L339.083 252.174L319.569 272.976Z" fill="#3F3D56"/>
<path d="M377.025 368.53L393.595 360.256L379.787 323.021L376.148 304.244C375.675 301.804 374.569 299.531 372.941 297.652C371.313 295.773 369.22 294.353 366.871 293.535C364.522 292.717 361.999 292.529 359.554 292.99C357.109 293.451 354.828 294.545 352.939 296.162V296.162C350.14 298.558 348.382 301.947 348.037 305.613C347.692 309.279 348.787 312.936 351.09 315.811L364.598 332.675L377.025 368.53Z" fill="#FFB6B6"/>
</g>
<defs>
<clipPath id="clip0_269_2573">
<rect width="653" height="427" fill="white" transform="translate(0 32)"/>
</clipPath>
</defs>
</svg>
