<svg width="620" height="548" viewBox="0 0 620 548" fill="none" xmlns="http://www.w3.org/2000/svg">
<path fill-rule="evenodd" clip-rule="evenodd" d="M321.393 521.073C236.617 523.146 143.294 579.056 76.6888 523.416C7.91249 465.962 -4.83017 354.733 13.6573 263.997C29.5826 185.835 101.702 142.401 163.624 96.74C211.275 61.6015 263.367 35.4654 321.393 37.07C377.847 38.6312 430.84 63.3035 471.14 105.244C511.841 147.601 527.25 204.931 539.445 263.997C556.796 348.039 609.321 447.743 555.06 511.715C500.881 575.59 402.4 519.091 321.393 521.073Z" fill="#93B0F9" fill-opacity="0.15"/>
<g clip-path="url(#clip0_285_4577)">
<path d="M77.0752 281.347C81.203 281.347 85.1618 282.988 88.0806 285.909C90.9994 288.83 92.6392 292.791 92.6392 296.922V296.922C92.6386 300.535 91.3831 304.036 89.0875 306.825C86.7919 309.613 83.5991 311.517 80.0556 312.209V337.684H70.1211V281.347H77.0752Z" fill="#C6C6C6"/>
<path d="M458.31 430.572V435.906C456.051 438.797 453.723 441.63 451.327 444.405C451.07 444.709 450.807 445.006 450.538 445.309C450.132 445.785 449.714 446.254 449.297 446.723V430.572H458.31Z" fill="#CACACA"/>
<path d="M431.866 419.446C429.874 419.449 427.964 420.242 426.555 421.652C425.146 423.061 424.354 424.973 424.352 426.967V437.789C424.354 439.783 425.146 441.694 426.555 443.104C427.964 444.514 429.874 445.307 431.866 445.309H450.539C450.808 445.006 451.071 444.708 451.328 444.405C453.724 441.629 456.052 438.796 458.311 435.906C458.459 435.717 458.608 435.528 458.751 435.34C460.044 433.686 461.313 432.003 462.56 430.309C463.532 428.981 464.499 427.642 465.442 426.291C465.448 426.286 465.454 426.286 465.454 426.28C467.032 424.036 468.571 421.758 470.069 419.446H431.866Z" fill="#C6C6C6"/>
<path d="M479.946 326.811C478.798 326.414 477.592 326.213 476.377 326.216H473.306C472.187 326.217 471.075 326.384 470.006 326.714C467.751 327.423 465.781 328.833 464.381 330.739C462.982 332.645 462.226 334.948 462.223 337.313V427.596C462.223 427.934 462.24 428.266 462.268 428.592C462.318 429.172 462.416 429.746 462.56 430.309C463.532 428.981 464.499 427.642 465.442 426.292C465.448 426.286 465.454 426.286 465.454 426.28C467.032 424.037 468.571 421.759 470.069 419.447C470.875 418.205 471.676 416.951 472.46 415.692C478.121 406.602 483.136 397.124 487.466 387.328V337.313C487.464 334.996 486.737 332.738 485.389 330.855C484.04 328.972 482.137 327.558 479.946 326.811Z" fill="#C6C6C6"/>
<path d="M101.429 430.572V441.349C98.8558 438.27 96.3681 435.122 93.9661 431.906C93.6344 431.465 93.3084 431.019 92.9824 430.572H101.429Z" fill="#CACACA"/>
<path d="M118.861 419.447H85.2734C86.3314 421.078 87.4085 422.69 88.5046 424.283C89.9573 426.406 91.4499 428.503 92.9826 430.573C93.3086 431.019 93.6346 431.465 93.9663 431.906C96.3739 435.123 98.8617 438.27 101.43 441.349C101.91 441.933 102.396 442.511 102.888 443.089C103.517 443.833 104.156 444.573 104.804 445.31H118.861C120.853 445.307 122.762 444.514 124.17 443.104C125.578 441.694 126.369 439.783 126.37 437.79V426.967C126.369 424.974 125.578 423.063 124.17 421.653C122.762 420.243 120.853 419.449 118.861 419.447V419.447Z" fill="#C6C6C6"/>
<path d="M82.5403 327.469C80.9569 326.648 79.1998 326.218 77.4162 326.216H74.3508C72.9003 326.214 71.4638 326.5 70.1245 327.057C68.0954 327.896 66.3604 329.318 65.1388 331.144C63.9173 332.969 63.2641 335.116 63.2617 337.313V376.099C69.0362 391.291 76.4154 405.823 85.274 419.447C86.332 421.078 87.4091 422.69 88.5052 424.283V337.313C88.5037 335.284 87.947 333.293 86.8955 331.558C85.844 329.823 84.3379 328.409 82.5403 327.469V327.469Z" fill="#C6C6C6"/>
<path d="M207.478 495.091L217.553 492.778L213.432 452.789L198.562 456.204L207.478 495.091Z" fill="#9E616A"/>
<path d="M216.644 460.396C216.438 459.691 216.298 458.969 216.226 458.238C216.143 457.375 215.974 456.522 215.723 455.691C215.437 454.936 215.083 454.208 214.665 453.517C214.465 453.15 214.253 452.784 214.065 452.412C213.875 452.04 213.71 451.656 213.573 451.262C207.677 433.835 199.447 410.152 193.74 396.29C190.382 388.135 169.737 385.422 150.258 384.73C147.885 384.644 145.529 384.587 143.224 384.558C142.429 384.546 141.64 384.535 140.856 384.529C138.855 384.518 136.904 384.518 135.029 384.541C134.783 384.541 134.537 384.541 134.291 384.546C132.924 384.558 131.599 384.577 130.316 384.604C121.498 384.775 115.018 385.176 113.863 385.25L103.574 378.777L101.567 377.513L101.355 378.777L99.7369 388.427L96.9746 404.892L103.9 406.838L108.395 408.097L135.029 415.572L140.69 417.163L140.725 417.174L150.258 417.157L176.325 417.111L177.583 420.448C177.132 421.15 176.834 421.941 176.711 422.767C176.589 423.593 176.643 424.435 176.871 425.239C177.098 426.042 177.494 426.788 178.032 427.426C178.57 428.065 179.238 428.581 179.991 428.941L180.969 429.405L192.882 460.951C192.918 463.805 193.809 466.582 195.438 468.924C195.638 469.215 195.856 469.502 196.084 469.782L196.347 470.097L200.928 479.065L203.656 478.435L215.266 475.774L215.323 475.66C215.329 475.643 215.477 475.328 215.695 474.778V474.761C216.604 472.489 218.617 466.279 216.644 460.396Z" fill="#1B67A4"/>
<path d="M244.948 497.751C244.514 495.829 243.704 494.011 242.566 492.403C241.427 490.795 239.982 489.428 238.314 488.382C236.645 487.335 234.786 486.628 232.844 486.304C230.901 485.979 228.914 486.041 226.996 486.488L218.949 482.854L216.696 484.439L207.351 490.998L206.579 491.176L204.074 491.748L207.534 506.84L245.062 498.226L244.948 497.751Z" fill="#DDDDDD"/>
<path d="M195.169 474.48L191.766 502.089L191.651 502.993L191.148 507.108C189.186 506.307 187.231 505.477 185.298 504.625C183.49 503.829 181.697 503.009 179.916 502.164V474.486L195.169 474.48Z" fill="#9E616A"/>
<path d="M121.329 284.681C132.723 284.681 141.959 275.438 141.959 264.036C141.959 252.634 132.723 243.391 121.329 243.391C109.936 243.391 100.699 252.634 100.699 264.036C100.699 275.438 109.936 284.681 121.329 284.681Z" fill="#9E616A"/>
<path d="M197.359 485.017C196.787 484.233 196.192 483.414 196.158 482.63C196.026 479.866 195.889 477.13 195.746 474.452C195.643 472.58 195.54 470.732 195.437 468.923C195.426 468.694 195.409 468.465 195.397 468.242C195.22 465.249 196.106 462.09 196.958 459.028C197.239 458.026 197.519 457.013 197.771 456C198.4 453.743 198.664 451.399 198.554 449.058C197.09 430.521 190.547 413.088 187.614 410.152C183.153 405.688 162.982 395.375 150.257 389.102C147.998 387.986 145.974 387.001 144.315 386.2C142.846 385.485 141.662 384.918 140.855 384.529C140.238 384.237 139.837 384.048 139.7 383.98L139.632 383.945L135.028 384.46L134.29 384.546L130.23 385.004L103.814 387.969L99.736 388.427L93.9656 389.079L88.7556 389.663L88.5612 389.68L88.5268 389.875C88.5268 389.88 88.5154 389.92 88.504 389.995C87.6081 395.652 87.6081 401.415 88.504 407.073C89.1788 410.913 90.4541 414.816 92.7188 418.101C93.0277 418.548 93.3479 418.977 93.6911 419.389C93.7027 419.411 93.7182 419.43 93.7368 419.446C93.8112 419.538 93.8855 419.629 93.9656 419.721V419.727C96.556 422.742 100.033 424.859 103.899 425.776C104.471 425.931 105.055 426.057 105.655 426.16C112.055 427.293 119.283 428.334 126.369 429.25C129.303 429.628 132.214 429.983 135.028 430.315C140.661 430.979 145.922 431.539 150.257 431.986C156.331 432.604 160.597 432.987 161.547 433.067L172.155 482.596C171.323 484.005 170.991 485.654 171.213 487.276C171.435 488.898 172.198 490.397 173.379 491.53L174.248 492.371L175.255 497.087L178.572 501.528L178.989 502.089H193.624L193.704 501.992C193.756 501.923 198.903 495.307 198.554 487.426C198.52 486.614 197.954 485.841 197.359 485.017Z" fill="#1B67A4"/>
<path d="M196.96 319.024C195.852 318.721 194.691 318.665 193.559 318.859C192.426 319.054 191.35 319.495 190.406 320.15C189.463 320.806 188.674 321.661 188.096 322.654C187.518 323.648 187.165 324.756 187.061 325.901L169.92 331.263L170.635 342.482L194.735 334.57C196.669 334.617 198.553 333.952 200.03 332.702C201.506 331.452 202.474 329.703 202.748 327.786C203.022 325.87 202.584 323.92 201.518 322.305C200.451 320.69 198.83 319.523 196.96 319.024V319.024Z" fill="#9E616A"/>
<path d="M185.776 337.59L172.965 342.442L172.637 343.078C172.248 343.833 171.715 344.504 171.067 345.053C170.419 345.601 169.669 346.017 168.861 346.276C168.052 346.534 167.201 346.631 166.355 346.56C165.509 346.49 164.685 346.253 163.931 345.864V345.864L135.136 356.771C135.136 356.771 122.276 343.893 113.121 332.4L116.241 313.193C116.964 308.737 118.5 304.452 120.773 300.552C139.549 304.672 150.327 330.939 150.327 330.939L184.166 324.477L185.776 337.59Z" fill="#00BFA6"/>
<path d="M118.398 283.578C113.233 284.974 107.539 283.118 103.509 279.597C99.478 276.077 96.9567 271.089 95.504 265.936C94.44 262.162 93.9355 257.974 95.6145 254.431C97.2935 250.888 101.812 248.498 105.298 250.288C103.148 247.78 104.222 243.633 106.734 241.488C109.246 239.343 112.695 238.728 115.98 238.391C120.747 237.904 125.671 237.849 130.208 239.395C134.744 240.94 138.866 244.319 140.286 248.9C141.736 249.575 143.369 249.751 144.929 249.398C146.489 249.046 147.889 248.185 148.908 246.952C149.171 248.368 148.96 249.832 148.307 251.117C147.655 252.402 146.598 253.435 145.299 254.058L152.25 251.803C153.446 254.335 151.351 257.469 148.672 258.28C145.994 259.091 143.103 258.204 140.561 257.033C138.019 255.861 135.556 254.38 132.795 253.923C130.034 253.467 126.791 254.354 125.514 256.846C124.845 258.151 124.81 259.68 124.422 261.094C124.033 262.509 123.05 263.975 121.588 264.091C120.665 264.164 119.762 263.672 118.841 263.772C118.276 263.884 117.756 264.157 117.344 264.56C116.932 264.963 116.647 265.477 116.522 266.04C116.293 267.169 116.29 268.332 116.514 269.462L118.28 282.968L118.398 283.578Z" fill="#00BFA6"/>
<path d="M144.315 386.201L143.223 384.558L135.25 372.591L135.09 372.356L137.555 359.559L138.321 355.564L139.997 346.871L139.511 326.971L139.162 312.892L139.111 310.683L137.344 305.292C136.506 302.771 135.16 300.449 133.389 298.469C131.619 296.489 129.461 294.894 127.049 293.783L115.154 288.334C113.754 287.696 112.158 287.641 110.718 288.181C109.277 288.72 108.11 289.811 107.473 291.212C107.419 291.329 107.37 291.447 107.325 291.568C105.695 291.791 98.6204 292.981 92.6212 297.64C88.4185 300.84 85.4845 305.427 84.3402 310.586C84.3287 310.626 84.323 310.666 84.3116 310.706C83.5166 314.26 82.9219 319.869 82.5387 327.469C82.2813 332.494 82.1193 338.382 82.0526 345.131C81.9458 356.382 82.5782 367.627 83.9456 378.795C84.0771 379.859 84.2143 380.918 84.3573 381.983C84.4774 382.876 85.3353 383.728 86.1645 384.547C86.9251 385.296 87.7086 386.075 87.8173 386.779C87.9145 387.397 87.5199 388.044 87.0509 388.719C86.9938 388.805 86.9308 388.891 86.8737 388.976C86.2903 389.806 85.6898 390.671 85.8443 391.58C86.2045 393.629 86.4162 395.713 86.6163 397.727C86.8399 400.501 87.241 403.258 87.8173 405.98C88.0175 406.816 88.2462 407.657 88.5036 408.498C89.1041 410.473 89.8304 412.442 90.5395 414.365C91.1514 416.036 91.7863 417.753 92.3238 419.447C92.4268 419.761 92.524 420.071 92.6155 420.38L92.6613 420.54L92.8271 420.568H92.8386C93.0638 420.166 93.3323 419.79 93.6392 419.447C93.6531 419.425 93.6705 419.406 93.6907 419.389C93.7707 419.292 93.8622 419.189 93.9652 419.08C95.2176 417.713 97.9399 415.257 103.899 411.119C105.232 410.198 106.724 409.196 108.394 408.098C114.519 404.086 123.075 398.86 135.027 392.113C138.024 390.419 141.24 388.627 144.675 386.739L144.315 386.201Z" fill="#00BFA6"/>
<path d="M208.466 512.1C207.077 510.704 205.426 509.597 203.607 508.844C201.788 508.09 199.838 507.705 197.869 507.71L191.653 502.994L190.835 502.37L185.299 504.625C187.232 505.478 189.188 506.308 191.149 507.109C197.286 509.616 203.552 511.855 209.948 513.828C209.498 513.215 209.003 512.637 208.466 512.1V512.1Z" fill="#DDDDDD"/>
<path d="M346.54 494.702L338.754 490.976L349.449 458.408L360.94 463.908L346.54 494.702Z" fill="#FFB6B6"/>
<path d="M398.735 489.453C396.47 490.866 394.177 492.24 391.855 493.573V493.591L391.821 493.596L391.809 493.602L390.929 493.819L389.665 490.477L386.748 482.768L378.799 461.764L391.158 458.713L391.855 461.546L397.082 482.762L398.581 488.829L398.735 489.453Z" fill="#FFB6B6"/>
<path d="M367.215 353.148C368.326 354.953 370.097 356.252 372.151 356.768C374.206 357.284 376.38 356.975 378.21 355.909C378.579 355.686 378.928 355.433 379.254 355.152L403.869 369.288L402.8 354.777L379.589 343.578C378.326 342.308 376.678 341.494 374.902 341.263C373.127 341.031 371.326 341.396 369.78 342.299C368.01 343.363 366.736 345.086 366.236 347.09C365.736 349.093 366.052 351.214 367.114 352.985C367.147 353.04 367.181 353.094 367.215 353.148Z" fill="#FFB6B6"/>
<path d="M393.287 363.965L397.638 366.619L417.179 378.544C418.462 379.347 419.89 379.889 421.383 380.14C422.875 380.391 424.402 380.345 425.876 380.005C427.351 379.666 428.744 379.039 429.976 378.16C431.209 377.281 432.256 376.169 433.059 374.885L433.065 374.875C434.512 372.489 435.024 369.652 434.502 366.91L425.817 323.487C425.496 321.782 424.811 320.167 423.809 318.751C422.807 317.336 421.511 316.154 420.01 315.286C418.51 314.417 416.84 313.884 415.114 313.721C413.388 313.558 411.648 313.771 410.011 314.343C407.261 315.31 404.982 317.29 403.639 319.879C402.295 322.468 401.987 325.472 402.779 328.279L411.86 359.096L397.939 352.601L393.287 363.965Z" fill="#00BFA6"/>
<path d="M473.414 406.781C473.408 406.764 473.397 406.701 473.38 406.604L473.363 406.541C473.323 406.335 473.277 406.106 473.225 405.854C472.059 400.055 470.56 394.328 468.736 388.701C467.656 385.256 466.224 381.93 464.464 378.777C464.407 378.674 464.344 378.571 464.281 378.468L464.069 378.125L462.291 378.777L462.222 378.8L435.183 388.719L427.365 391.586L427.119 391.678L425.787 397.115L407.091 394.694L391.856 392.719L387.481 392.153C385.584 391.905 383.658 392.038 381.813 392.543C379.968 393.048 378.242 393.915 376.735 395.094C375.163 396.314 373.849 397.835 372.87 399.568C371.891 401.302 371.267 403.213 371.033 405.19C370.976 405.625 370.942 406.066 370.925 406.501L369.604 455.817V455.88L370.215 457.105L382.997 482.768H391.856L397.083 482.762H401.332L392.497 460.39L392.697 460.087C393.528 458.811 394.052 457.36 394.228 455.848C394.403 454.335 394.226 452.803 393.709 451.37L394.704 448.486C396.769 442.528 395.791 439.666 394.555 436.049C393.446 433.108 392.794 430.014 392.622 426.875L392.416 422.795C397.604 423.704 402.436 424.718 407.091 425.736C408.647 426.074 410.187 426.415 411.712 426.761C416.053 427.728 420.245 428.661 424.351 429.439C432.667 431.024 440.633 431.992 448.817 431.391C448.977 431.379 449.137 431.368 449.297 431.351C451.288 431.19 453.289 430.933 455.314 430.572C456.452 430.366 457.596 430.132 458.751 429.857C459.071 429.777 459.397 429.697 459.717 429.617C460.607 429.382 461.463 429.038 462.268 428.592C463.413 427.953 464.478 427.18 465.442 426.291C465.448 426.286 465.453 426.286 465.453 426.28C467.032 424.036 468.57 421.759 470.069 419.446C470.875 418.204 471.676 416.951 472.459 415.692C473.603 412.55 474.038 409.379 473.414 406.781Z" fill="#1B67A4"/>
<path d="M473.603 397.515C473.517 397.149 473.408 396.777 473.294 396.417C472.386 393.686 471.328 391.007 470.126 388.393C468.776 385.417 467.157 382.229 465.23 378.778C464.298 377.106 463.295 375.369 462.222 373.564C461.684 372.66 461.126 371.738 460.546 370.8C460.524 370.756 460.499 370.714 460.472 370.674L460.306 370.399L433.553 373.982L423.59 375.315L422.996 380.283L422.853 381.513C422.847 381.513 422.847 381.513 422.853 381.519L422.452 384.873V384.879L421.92 389.308L421.875 389.303L407.091 387.385L391.856 385.411L383.672 384.352C381.775 384.105 379.848 384.237 378.004 384.742C376.159 385.248 374.433 386.115 372.926 387.294C371.354 388.514 370.04 390.035 369.061 391.768C368.082 393.501 367.458 395.412 367.224 397.39C367.173 397.79 367.138 398.202 367.121 398.609L359.401 416.917C354.781 427.866 351.839 439.451 350.673 451.279L345.012 469.393L345.818 469.467L357.816 470.583L360.985 470.881L367.962 460.688C368.757 459.526 369.512 458.33 370.215 457.105C371.373 455.105 372.403 453.033 373.298 450.901L388.39 414.96C389.557 415.16 390.712 415.351 391.856 415.532C397.146 416.391 402.224 417.091 407.091 417.632C422.915 419.401 436.618 419.538 448.817 418.039C452.242 417.621 455.554 417.072 458.751 416.391C459.923 416.144 461.08 415.879 462.222 415.595C462.491 415.532 462.754 415.469 463.017 415.4C465.38 414.79 467.553 413.597 469.337 411.929C471.12 410.261 472.457 408.173 473.225 405.854C474.142 403.167 474.273 400.274 473.603 397.515V397.515Z" fill="#1B67A4"/>
<path d="M416.713 289.422C426.933 289.422 435.218 280.946 435.218 270.49C435.218 260.034 426.933 251.558 416.713 251.558C406.492 251.558 398.207 260.034 398.207 270.49C398.207 280.946 406.492 289.422 416.713 289.422Z" fill="#FFB6B6"/>
<path d="M460.654 371.435C460.625 371.223 460.591 371.011 460.545 370.799C460.105 368.476 458.961 366.198 457.857 363.989C456.805 361.883 455.804 359.891 455.393 357.911C454.987 355.959 455.227 354.002 455.461 352.113C455.713 350.064 455.976 347.947 455.387 345.892C452.399 335.399 448.296 325.257 443.148 315.639C441.849 311.41 439.359 307.646 435.976 304.797C432.593 301.949 428.461 300.138 424.076 299.58C424.587 298.623 424.801 297.535 424.687 296.455C424.616 295.758 424.406 295.081 424.072 294.465C423.737 293.849 423.283 293.306 422.737 292.867C422.213 292.444 421.609 292.129 420.963 291.94C420.316 291.752 419.638 291.693 418.968 291.768L410.367 292.735C408.988 292.908 407.733 293.619 406.875 294.714C406.018 295.808 405.626 297.197 405.786 298.578C405.834 299.004 405.93 299.422 406.072 299.826C398.089 310.002 393.988 319.274 393.611 328.041V328.047C393.565 329.06 393.571 330.074 393.628 331.086C393.809 334.359 394.519 337.582 395.732 340.627C397.164 344.145 399.082 347.445 401.428 350.431C401.909 351.037 402.406 351.632 402.921 352.216C403.401 352.789 403.939 353.389 404.534 354.019L406.038 356.377L407.439 358.58L414.931 375.882L418.745 375.756L419.277 379.562L419.403 380.449L421.874 389.302L422.057 389.966L425.437 388.358L445.602 378.778L460.677 371.612L460.654 371.435Z" fill="#00BFA6"/>
<path opacity="0.2" d="M395.959 340.535C397.679 344.75 400.096 348.644 403.109 352.055C403.625 352.671 404.17 353.277 404.74 353.884L407.668 358.481C418.459 350.386 427.202 318.514 427.202 318.514L415.026 316.144L395.959 340.535Z" fill="black"/>
<path d="M388.588 291.19C389.654 293.023 389.964 295.2 389.451 297.258C388.938 299.315 387.643 301.091 385.841 302.208C385.471 302.429 385.084 302.619 384.683 302.776L385.545 331.165L373.26 323.426L374.325 297.654C373.802 295.939 373.861 294.099 374.493 292.422C375.126 290.744 376.295 289.323 377.819 288.38C379.581 287.313 381.694 286.991 383.693 287.484C385.692 287.976 387.414 289.243 388.48 291.006C388.517 291.067 388.553 291.129 388.588 291.19Z" fill="#FFB6B6"/>
<path d="M386.625 320.449L373.115 322.372L373.696 350.369C373.73 352.366 374.273 354.321 375.275 356.049C376.276 357.777 377.703 359.22 379.419 360.241V360.241C381.515 361.475 383.955 361.994 386.371 361.719C388.788 361.445 391.05 360.391 392.816 358.718L424.711 328.018C426.955 325.887 428.298 322.977 428.463 319.886C428.629 316.795 427.605 313.758 425.602 311.4C423.639 309.074 420.833 307.625 417.802 307.37C414.771 307.114 411.763 308.075 409.439 310.039C409.348 310.116 409.259 310.194 409.17 310.274C408.855 310.556 408.555 310.855 408.272 311.169L387.212 335.414L386.625 320.449Z" fill="#00BFA6"/>
<path d="M399.079 488.737L398.581 488.829L391.856 490.071L389.665 490.477L386.217 491.112L387.441 496.052C388.91 495.256 390.363 494.438 391.81 493.602L391.821 493.596L391.856 493.591V493.573C394.178 492.246 396.471 490.872 398.736 489.453C398.896 489.355 399.056 489.258 399.216 489.149L399.079 488.737Z" fill="#DDDDDD"/>
<path d="M349.026 489.384L340.602 485.343L339.281 484.708L337.171 489.893L322.439 493.138C321.71 493.298 321.052 493.687 320.56 494.248C320.068 494.809 319.768 495.512 319.704 496.256C319.64 496.999 319.816 497.744 320.205 498.38C320.594 499.017 321.176 499.512 321.867 499.794L336.261 505.672L340.831 501.557L339.71 507.08L345.131 509.295L351.073 490.368L349.026 489.384Z" fill="#DDDDDD"/>
<path d="M466.231 262.279C463.086 258.608 461.59 253.738 459.075 249.569C456.561 245.4 452.185 241.669 447.562 242.64C444.375 243.308 441.912 246.122 440.665 249.26C439.419 252.397 439.185 255.857 438.967 259.247C439.044 252.281 434.458 245.528 428.141 243.306C421.824 241.083 414.264 243.562 410.295 249.158C408.562 247.552 406.301 246.637 403.94 246.587C401.579 246.538 399.281 247.357 397.483 248.889C393.933 252.065 393.147 258.109 395.758 262.16C398.369 266.211 404.024 267.719 408.174 265.473L409.641 266.823C408.815 269.714 410.416 273.128 413.108 274.216C415.291 275.098 418.373 274.951 419.19 277.244C419.761 278.846 418.694 280.555 417.559 281.786C416.424 283.017 415.077 284.288 414.94 285.991C414.734 288.561 417.388 290.362 419.801 290.904C425.618 292.211 432.072 289.516 435.425 284.378C435.489 284.279 435.56 284.18 435.635 284.081C437.516 281.673 438.887 278.907 439.664 275.952C440.441 272.997 440.608 269.914 440.154 266.892C439.965 265.704 440.155 264.821 440.973 264.54C444.509 263.325 454.415 265.876 457.413 268.181C460.412 270.487 462.812 273.538 465.7 275.992C468.588 278.446 472.268 280.34 475.935 279.671C478.872 279.136 481.37 277.002 483.05 274.429C484.731 271.855 485.698 268.855 486.564 265.874C480.07 269.628 471.182 268.057 466.231 262.279Z" fill="#00BFA6"/>
<path d="M407.088 375.129V483.985C405.018 485.41 402.921 486.797 400.797 488.145V382.346C400.797 379.279 399.768 376.789 398.504 376.783H303.289C302.019 376.789 300.996 379.279 300.99 382.346V522.828C299.72 522.954 298.451 523.074 297.181 523.177C296.655 523.223 296.123 523.263 295.597 523.303C295.294 522.742 294.997 522.175 294.699 521.603V375.129C294.699 374.282 294.734 373.43 294.791 372.588C295.305 365.446 297.862 360.226 300.853 360.215H400.935C401.297 360.217 401.655 360.293 401.987 360.438C404.492 361.503 406.471 366.173 406.968 372.211C407.048 373.172 407.094 374.151 407.088 375.129Z" fill="#E4E4E4"/>
<path d="M254.317 375.129V522.393C254.231 522.53 254.146 522.662 254.06 522.799C251.91 522.582 249.769 522.332 247.638 522.05V382.346C247.638 379.279 246.545 376.789 245.201 376.783H144.141C142.797 376.789 141.705 379.279 141.705 382.346V479.332C139.446 477.666 137.22 475.959 135.025 474.209V375.129C135.025 374.282 135.06 373.43 135.123 372.588C135.666 365.446 138.382 360.226 141.562 360.215H247.78C248.163 360.216 248.542 360.292 248.896 360.438C251.555 361.503 253.66 366.173 254.191 372.211C254.277 373.172 254.317 374.151 254.317 375.129Z" fill="#E4E4E4"/>
<path d="M220.449 326.191L227.072 355.353L231.304 359.992H234.358L221.774 306.969L221.152 315.977V315.983L220.449 326.191Z" fill="#919191"/>
<path d="M242.504 361.482C242.485 361.437 242.46 361.395 242.43 361.356C242.369 361.219 242.282 361.094 242.173 360.99L241.401 360.217L237.34 356.148C237.042 355.856 236.642 355.692 236.225 355.69H236.208L233.343 355.708L230.878 355.725L227.435 355.748L203.987 355.896L188.575 355.994C188.157 355.999 187.758 356.168 187.464 356.465C187.17 356.761 187.004 357.161 187.002 357.579C187.004 357.81 187.055 358.038 187.151 358.249L187.448 358.884L188.071 360.217L188.883 361.963L189.284 362.822C189.411 363.095 189.614 363.326 189.868 363.488C190.123 363.65 190.418 363.737 190.719 363.737H241.052C241.317 363.732 241.576 363.662 241.808 363.533C242.039 363.404 242.235 363.22 242.378 362.997C242.522 362.774 242.608 362.52 242.63 362.255C242.652 361.991 242.609 361.726 242.505 361.482H242.504Z" fill="#919191"/>
<path opacity="0.17" d="M188.885 361.962L189.282 362.823C189.411 363.096 189.615 363.326 189.869 363.488C190.123 363.649 190.418 363.736 190.719 363.738H241.054C241.319 363.733 241.578 363.663 241.809 363.534C242.041 363.405 242.237 363.221 242.38 362.998C242.523 362.776 242.61 362.521 242.631 362.257C242.653 361.993 242.61 361.728 242.504 361.484C242.487 361.439 242.462 361.396 242.432 361.358L188.885 361.962Z" fill="white"/>
<path opacity="0.17" d="M221.152 315.977V315.983L231.928 359.992H234.359L221.775 306.969L221.152 315.977Z" fill="white"/>
<path d="M238.055 192.819L236.476 192.608C236.043 192.551 235.605 192.668 235.258 192.934L234.315 193.661L223.809 206.813C223.462 207.081 223.236 207.476 223.18 207.911L222.591 212.387L207.927 324.041C207.875 324.455 207.979 324.873 208.219 325.214L215.127 344.272L215.333 344.57L215.779 345.205C216.009 345.528 216.345 345.759 216.729 345.858L217.73 346.109C217.957 346.166 218.194 346.174 218.424 346.133C218.655 346.092 218.874 346.002 219.068 345.869C219.262 345.738 219.426 345.568 219.548 345.368C219.67 345.169 219.749 344.945 219.777 344.713L221.567 331.103V331.097L222.711 322.364L223.677 314.998V314.992L239.484 194.674C239.542 194.239 239.424 193.8 239.157 193.452C238.891 193.105 238.497 192.878 238.063 192.82L238.055 192.819Z" fill="#919191"/>
<path opacity="0.17" d="M234.313 193.662L215.127 344.275L215.335 344.57L215.78 345.203C216.009 345.527 216.346 345.758 216.73 345.856L217.732 346.108C217.959 346.165 218.195 346.172 218.425 346.131C218.655 346.09 218.874 346 219.067 345.869C219.26 345.737 219.423 345.566 219.546 345.367C219.669 345.168 219.748 344.945 219.779 344.713L239.483 194.676C239.541 194.24 239.422 193.8 239.155 193.451C238.888 193.103 238.493 192.875 238.058 192.817L236.475 192.609C236.26 192.58 236.042 192.594 235.833 192.65C235.624 192.706 235.428 192.804 235.256 192.937L234.313 193.662Z" fill="white"/>
<path d="M233.748 197.969L223.566 212.512L211.465 304.656L218.026 317.681L233.748 197.969Z" fill="#00BFA6"/>
<path d="M332.924 326.191L326.301 355.353L322.069 359.992H319.016L331.6 306.969L332.222 315.977V315.983L332.924 326.191Z" fill="#919191"/>
<path d="M364.8 355.994L325.945 355.748L322.497 355.725L320.037 355.708L317.172 355.69H317.149C316.734 355.691 316.335 355.856 316.04 356.148L311.202 360.99C311.094 361.096 311.007 361.22 310.944 361.356C310.914 361.395 310.889 361.437 310.87 361.482C310.765 361.726 310.722 361.991 310.744 362.255C310.766 362.52 310.852 362.774 310.996 362.997C311.139 363.22 311.335 363.404 311.567 363.533C311.798 363.662 312.058 363.732 312.322 363.737H362.655C362.957 363.736 363.253 363.65 363.508 363.488C363.763 363.326 363.967 363.095 364.096 362.822L364.491 361.963L365.303 360.217L366.224 358.249C366.322 358.039 366.373 357.811 366.372 357.579C366.37 357.161 366.204 356.761 365.91 356.465C365.616 356.168 365.217 355.999 364.8 355.994V355.994Z" fill="#919191"/>
<path opacity="0.17" d="M364.49 361.962L364.093 362.823C363.964 363.096 363.76 363.326 363.506 363.488C363.252 363.649 362.957 363.736 362.656 363.738H312.321C312.056 363.733 311.797 363.663 311.566 363.534C311.334 363.405 311.138 363.221 310.995 362.998C310.852 362.776 310.765 362.521 310.744 362.257C310.722 361.993 310.766 361.728 310.871 361.484C310.888 361.439 310.913 361.396 310.944 361.358L364.49 361.962Z" fill="white"/>
<path opacity="0.17" d="M332.222 315.977V315.983L321.446 359.992H319.016L331.6 306.969L332.222 315.977Z" fill="white"/>
<path d="M345.446 324.041L330.193 207.912C330.138 207.476 329.911 207.081 329.564 206.813L319.064 193.661L318.121 192.934C317.771 192.669 317.332 192.552 316.897 192.608L315.318 192.82C314.883 192.876 314.488 193.103 314.22 193.45C313.952 193.798 313.832 194.238 313.889 194.674V194.674L329.696 314.998V315.004L330.662 322.364L331.812 331.103V331.115L333.596 344.713C333.625 344.946 333.703 345.17 333.827 345.37C333.95 345.569 334.115 345.74 334.311 345.869C334.503 346.002 334.722 346.092 334.951 346.133C335.181 346.175 335.417 346.167 335.644 346.11L336.644 345.858C337.028 345.759 337.364 345.528 337.594 345.205L338.04 344.57L338.246 344.272L345.154 325.214C345.397 324.874 345.501 324.455 345.446 324.041V324.041Z" fill="#919191"/>
<path opacity="0.17" d="M319.062 193.662L338.247 344.275L338.039 344.57L337.594 345.203C337.365 345.526 337.029 345.758 336.645 345.856L335.643 346.108C335.416 346.165 335.18 346.172 334.949 346.131C334.719 346.09 334.501 346 334.307 345.869C334.114 345.737 333.951 345.566 333.828 345.367C333.706 345.168 333.626 344.945 333.596 344.713L313.891 194.676C313.834 194.24 313.952 193.8 314.219 193.451C314.487 193.103 314.882 192.875 315.317 192.817L316.899 192.609C317.114 192.58 317.332 192.594 317.542 192.65C317.751 192.706 317.947 192.804 318.118 192.937L319.062 193.662Z" fill="white"/>
<path d="M319.627 197.969L329.808 212.512L341.91 304.656L335.349 317.681L319.627 197.969Z" fill="#00BFA6"/>
<path d="M130.39 383.746C130.392 384.033 130.367 384.321 130.316 384.604C130.293 384.741 130.265 384.873 130.23 385.005C129.952 386.069 129.329 387.011 128.458 387.683C127.588 388.355 126.52 388.719 125.421 388.719H103.9V440.085C103.901 441.17 103.545 442.226 102.888 443.089C102.396 442.511 101.91 441.933 101.429 441.35C98.856 438.27 96.3682 435.123 93.9663 431.906V388.719H84.3584C83.0773 388.718 81.846 388.222 80.9218 387.334C79.9976 386.446 79.452 385.236 79.3988 383.955C79.3457 382.674 79.7891 381.422 80.6366 380.46C81.4841 379.499 82.67 378.902 83.9466 378.795C84.0839 378.784 84.2211 378.778 84.3584 378.778H125.421C126.738 378.777 128.001 379.3 128.933 380.232C129.865 381.164 130.389 382.427 130.39 383.746V383.746Z" fill="#C6C6C6"/>
<path d="M473.316 383.746C473.317 384.752 473.012 385.735 472.442 386.565C471.872 387.395 471.064 388.032 470.125 388.393C469.68 388.563 469.211 388.668 468.735 388.702C468.61 388.713 468.478 388.719 468.352 388.719H458.75V435.34C458.607 435.529 458.458 435.718 458.31 435.907C456.051 438.797 453.723 441.63 451.327 444.406C450.562 443.974 449.926 443.346 449.484 442.587C449.043 441.827 448.812 440.963 448.816 440.085V388.719H427.29C426.655 388.721 426.025 388.599 425.437 388.358C424.696 388.062 424.038 387.591 423.518 386.985C422.998 386.379 422.633 385.657 422.452 384.879V384.873C422.185 383.743 422.327 382.555 422.852 381.519C422.846 381.514 422.846 381.514 422.852 381.514C423.079 381.058 423.376 380.641 423.733 380.277C424.196 379.803 424.749 379.425 425.36 379.168C425.971 378.91 426.627 378.778 427.29 378.778H468.352C469.669 378.778 470.931 379.301 471.862 380.232C472.793 381.163 473.316 382.427 473.316 383.744L473.316 383.746Z" fill="#C6C6C6"/>
<path d="M472.988 287.975C470.944 287.975 468.92 288.377 467.032 289.16C465.143 289.943 463.428 291.09 461.982 292.537C460.537 293.983 459.391 295.7 458.609 297.59C457.826 299.479 457.424 301.505 457.424 303.55V303.55C457.424 307.163 458.68 310.664 460.976 313.453C463.271 316.241 466.464 318.145 470.007 318.837V344.312H479.942V287.975H472.988Z" fill="#C6C6C6"/>
<path d="M201.251 344.848C200.261 344.266 199.154 343.909 198.011 343.801C196.867 343.693 195.713 343.837 194.631 344.224C193.549 344.61 192.565 345.23 191.748 346.038C190.931 346.846 190.301 347.824 189.902 348.902L171.957 349.603L169.539 357.968L195.051 359.275C196.905 359.825 198.897 359.675 200.649 358.853C202.4 358.032 203.79 356.596 204.554 354.818C205.319 353.04 205.405 351.042 204.796 349.205C204.187 347.368 202.926 345.817 201.252 344.848H201.251Z" fill="#9E616A"/>
<path d="M186.51 360.177L168.077 359.947L165.744 359.915L128.24 359.442C128.24 359.442 118.056 349.719 109.188 339.708L110.43 330.711C111.643 321.882 116.02 313.793 122.746 307.952C135.448 316.445 142.813 333.256 142.813 333.256L155.163 338.787C163.855 339.176 172.324 341.658 179.852 346.023L183.914 348.377L186.51 360.177Z" fill="#00BFA6"/>
<path d="M244.426 521.605H310.914C306.379 522.269 301.802 522.794 297.183 523.179H258.157C253.536 522.796 248.959 522.271 244.426 521.605Z" fill="#CCCCCC"/>
<path d="M113.708 42.89H3.82181C2.80921 42.8884 1.83861 42.4853 1.12315 41.7693C0.407699 41.0533 0.00585938 40.0828 0.00585938 39.071C0.00585938 38.0592 0.407699 37.0887 1.12315 36.3727C1.83861 35.6566 2.80921 35.2535 3.82181 35.252H113.708C114.722 35.252 115.694 35.6543 116.411 36.3705C117.127 37.0867 117.53 38.0581 117.53 39.071C117.53 40.0838 117.127 41.0552 116.411 41.7714C115.694 42.4876 114.722 42.89 113.708 42.89V42.89Z" fill="#00BFA6"/>
<path d="M177.153 67.2816H3.82173C2.80814 67.2816 1.83607 66.8793 1.11935 66.1631C0.40264 65.447 0 64.4756 0 63.4628C0 62.45 0.40264 61.4787 1.11935 60.7625C1.83607 60.0464 2.80814 59.644 3.82173 59.644H177.153C178.166 59.644 179.138 60.0464 179.855 60.7625C180.572 61.4787 180.975 62.45 180.975 63.4628C180.975 64.4756 180.572 65.447 179.855 66.1631C179.138 66.8793 178.166 67.2816 177.153 67.2816Z" fill="#00BFA6"/>
<path d="M143.844 90.2611H3.82173C2.80814 90.2611 1.83607 89.8588 1.11935 89.1426C0.402641 88.4265 0 87.4551 0 86.4423C0 85.4295 0.402641 84.4582 1.11935 83.742C1.83607 83.0259 2.80814 82.6235 3.82173 82.6235H143.844C144.858 82.6235 145.83 83.0259 146.546 83.742C147.263 84.4582 147.666 85.4295 147.666 86.4423C147.666 87.4551 147.263 88.4265 146.546 89.1426C145.83 89.8588 144.858 90.2611 143.844 90.2611V90.2611Z" fill="#CACACA"/>
<path d="M82.7793 113.156H3.82173C2.80814 113.156 1.83607 112.754 1.11935 112.038C0.402641 111.321 0 110.35 0 109.337C0 108.325 0.402641 107.353 1.11935 106.637C1.83607 105.921 2.80814 105.519 3.82173 105.519H82.7793C83.7929 105.519 84.765 105.921 85.4817 106.637C86.1984 107.353 86.601 108.325 86.601 109.337C86.601 110.35 86.1984 111.321 85.4817 112.038C84.765 112.754 83.7929 113.156 82.7793 113.156V113.156Z" fill="#CACACA"/>
<path d="M126.397 136.05H3.82155C2.80901 136.048 1.8385 135.645 1.12309 134.929C0.407683 134.213 0.00585938 133.243 0.00585938 132.231C0.00585938 131.219 0.407683 130.249 1.12309 129.533C1.8385 128.817 2.80901 128.414 3.82155 128.412H126.397C127.41 128.414 128.38 128.817 129.096 129.533C129.811 130.249 130.213 131.219 130.213 132.231C130.213 133.243 129.811 134.213 129.096 134.929C128.38 135.645 127.41 136.048 126.397 136.05V136.05Z" fill="#CACACA"/>
<path d="M591.849 509.664L582 509.663L577.314 471.703L591.851 471.704L591.849 509.664Z" fill="#9F616A"/>
<path d="M595.724 523.283L558.123 523.282V522.807C558.123 518.928 559.665 515.209 562.41 512.466C565.155 509.724 568.877 508.183 572.759 508.183H572.76L579.628 502.976L592.443 508.184L595.725 508.184L595.724 523.283Z" fill="#E4E4E4"/>
<path d="M586.11 331.261L581.766 278.34L578.354 258.477L597.459 254.261L603.799 281.455L598.275 332.73C599.389 334.094 600.07 335.76 600.229 337.514C600.389 339.267 600.02 341.029 599.17 342.571C598.32 344.114 597.028 345.367 595.459 346.17C593.891 346.973 592.118 347.29 590.369 347.079C588.619 346.867 586.973 346.138 585.641 344.985C584.31 343.832 583.353 342.307 582.896 340.607C582.438 338.906 582.499 337.108 583.072 335.443C583.645 333.777 584.702 332.321 586.11 331.261H586.11Z" fill="#9F616A"/>
<path d="M539.534 509.664L529.686 509.663L525 471.703L539.536 471.704L539.534 509.664Z" fill="#9F616A"/>
<path d="M523.772 343.258L519.406 350.805C519.406 350.805 514.608 352.115 516.176 367.741C517.744 383.368 517.812 475.951 525.401 487.344L526.774 497.126L541.106 498.495L541.467 489.815L558.556 369.216C558.556 369.216 568.62 487.605 576.946 490.502L579.953 500.366L593.087 500.371L592.311 488.748L593.158 342.035L523.772 343.258Z" fill="#1B67A4"/>
<path d="M518.972 350.23L518.67 350.152C527.682 316.471 525.082 272.857 518.719 226.025L518.719 225.831L541.722 204.777H561.697L581.499 217.547C594.301 223.942 597.21 237.487 597.238 237.623L597.258 237.719L589.414 265.078L595.323 344.197L595.33 344.289L595.296 344.374C593.384 349.219 588.259 348.529 582.326 347.73C576.402 346.932 554.574 354.23 547.88 354.23C534.8 354.23 519.906 350.469 518.972 350.23Z" fill="#E4E4E4"/>
<path d="M577.352 228.211L585.933 224.48L597.239 238.331L606.403 282.716L575.014 277.964L577.352 228.211Z" fill="#E4E4E4"/>
<path d="M445.366 310.056L484.594 274.237L498.227 259.385L513.256 271.903L495.612 293.555L451.648 320.569C451.25 322.284 450.348 323.841 449.058 325.041C447.767 326.24 446.147 327.026 444.406 327.298C442.665 327.57 440.882 327.316 439.287 326.569C437.692 325.821 436.356 324.613 435.453 323.102C434.549 321.59 434.119 319.842 434.217 318.084C434.315 316.326 434.936 314.637 436.002 313.235C437.068 311.832 438.528 310.78 440.197 310.214C441.866 309.647 443.665 309.592 445.366 310.056L445.366 310.056Z" fill="#9F616A"/>
<path d="M483.738 274.627L494.603 260.528C494.693 260.326 503.707 240.198 511.521 231.452C519.536 222.481 525.846 227.069 525.909 227.118L526.066 227.237L526.502 260.366L496.418 296.286L483.738 274.627Z" fill="#E4E4E4"/>
<path d="M567.803 184.947C569.423 174.972 562.644 165.574 552.662 163.955C542.679 162.337 533.274 169.11 531.654 179.085C530.034 189.06 536.813 198.458 546.795 200.077C556.778 201.696 566.183 194.922 567.803 184.947Z" fill="#9F616A"/>
<path d="M532.988 179.3C532.988 179.3 532.841 172.867 532.027 170.021C531.213 167.175 529.586 164.735 530.4 164.735C531.213 164.735 531.62 162.702 531.62 162.702C531.62 162.702 532.434 162.296 532.841 162.702C533.248 163.109 533.655 159.856 533.655 159.856C533.655 159.856 534.062 158.636 534.469 159.45C534.876 160.263 534.876 159.856 535.282 158.636C535.689 157.417 537.724 156.603 537.724 156.603C537.724 156.603 545.456 157.01 546.676 155.384C547.897 153.757 561.732 154.977 564.581 157.01C567.429 159.043 580.043 166.362 578.009 172.461C575.974 178.56 570.117 192.603 568.65 194.011C566.329 196.237 564.722 197.04 553.74 199.223C551.591 199.651 540.621 192.641 540.621 191.421C540.621 190.201 541.944 186.333 539.818 185.802C536.605 184.999 536.243 189.058 535.429 187.839C534.615 186.619 532.988 179.3 532.988 179.3Z" fill="#00BFA6"/>
<path d="M543.408 523.283L505.807 523.282V522.807C505.807 518.928 507.349 515.209 510.094 512.466C512.838 509.724 516.561 508.183 520.442 508.183H520.443L527.311 502.976L540.126 508.184L543.409 508.184L543.408 523.283Z" fill="#E4E4E4"/>
<path d="M618.868 524H3.16576C2.86539 524 2.57733 523.881 2.36494 523.669C2.15254 523.456 2.0332 523.169 2.0332 522.869C2.0332 522.568 2.15254 522.28 2.36494 522.068C2.57733 521.856 2.86539 521.737 3.16576 521.737H618.868C619.168 521.737 619.456 521.856 619.669 522.068C619.881 522.28 620 522.568 620 522.869C620 523.169 619.881 523.456 619.669 523.669C619.456 523.881 619.168 524 618.868 524V524Z" fill="#CACACA"/>
</g>
<path d="M478.809 126.972C478.797 133.622 476.811 140.119 473.103 145.642C469.394 151.164 464.129 155.465 457.974 157.999C451.818 160.532 445.049 161.186 438.521 159.877C431.993 158.569 426.001 155.356 421.302 150.645C416.602 145.935 413.407 139.938 412.12 133.414C410.832 126.889 411.511 120.13 414.07 113.991C416.628 107.852 420.952 102.608 426.495 98.9234C432.037 95.2387 438.549 93.2783 445.206 93.2901C449.63 93.2865 454.011 94.1561 458.097 95.8489C462.184 97.5418 465.895 100.025 469.017 103.155C472.14 106.284 474.612 110 476.293 114.087C477.973 118.175 478.828 122.554 478.809 126.972V126.972Z" fill="#F2F2F2"/>
<path d="M484.471 173.583C503.062 173.583 518.133 158.53 518.133 139.961C518.133 121.392 503.062 106.338 484.471 106.338C465.88 106.338 450.809 121.392 450.809 139.961C450.809 158.53 465.88 173.583 484.471 173.583Z" fill="white"/>
<path d="M470.732 126.81C470.27 129.289 469.512 131.704 468.475 134.003C462.537 146.55 479.448 142.461 485.491 142.461C492.098 142.461 498.42 145.931 497.455 130.511C497.042 123.924 492.098 118.562 485.491 118.562C479.847 118.562 471.912 121.067 470.732 126.81Z" fill="#2F2E41"/>
<path d="M484.501 142.458C489.87 142.458 494.223 138.11 494.223 132.748C494.223 127.385 489.87 123.037 484.501 123.037C479.132 123.037 474.779 127.385 474.779 132.748C474.779 138.11 479.132 142.458 484.501 142.458Z" fill="#FFB6B6"/>
<path d="M477.899 122.849C479.602 121.812 481.554 121.25 483.549 121.224C485.544 121.198 487.509 121.707 489.24 122.7C490.97 123.692 492.402 125.13 493.385 126.864C494.368 128.598 494.867 130.564 494.83 132.556C489.876 133.799 484.671 134.749 479.389 132.853L478.141 129.804L477.405 132.856C475.797 133.513 474.184 134.068 472.571 132.849C472.505 130.863 472.962 128.893 473.897 127.138C474.832 125.383 476.212 123.904 477.899 122.849V122.849Z" fill="#2F2E41"/>
<path d="M510.645 162.318C504.813 168.946 496.605 173.017 487.794 173.653C478.983 174.289 470.274 171.439 463.549 165.717L466.436 157.67C467.089 156.241 468.118 155.016 469.415 154.127C470.711 153.238 472.225 152.718 473.795 152.623L475.632 152.51L480.012 148.737C480.012 148.737 491.813 148.316 491.638 148.115L498.787 152.409L498.781 152.38L501.591 152.552C503.161 152.646 504.675 153.166 505.972 154.055C507.268 154.945 508.298 156.17 508.95 157.599L510.645 162.318Z" fill="#00BFA6"/>
<path d="M484.471 174.004C477.73 174.004 471.14 172.008 465.535 168.267C459.93 164.526 455.561 159.209 452.981 152.989C450.402 146.768 449.727 139.923 451.042 133.319C452.357 126.715 455.603 120.649 460.37 115.888C465.136 111.127 471.21 107.885 477.821 106.571C484.433 105.258 491.286 105.932 497.514 108.508C503.742 111.085 509.065 115.449 512.81 121.047C516.556 126.645 518.555 133.227 518.555 139.961C518.544 148.986 514.95 157.64 508.56 164.022C502.171 170.404 493.507 173.994 484.471 174.004V174.004ZM484.471 106.759C477.896 106.759 471.47 108.707 466.003 112.355C460.537 116.003 456.276 121.188 453.76 127.255C451.244 133.322 450.586 139.998 451.869 146.438C453.151 152.878 456.317 158.794 460.966 163.438C465.615 168.081 471.538 171.243 477.986 172.524C484.434 173.805 491.117 173.148 497.191 170.635C503.265 168.122 508.457 163.866 512.109 158.406C515.762 152.946 517.711 146.527 517.711 139.961C517.701 131.158 514.196 122.719 507.964 116.495C501.733 110.271 493.284 106.769 484.471 106.759Z" fill="#3F3D56"/>
<path d="M366.821 103.666C385.412 103.666 400.483 88.6127 400.483 70.0434C400.483 51.4742 385.412 36.4209 366.821 36.4209C348.229 36.4209 333.158 51.4742 333.158 70.0434C333.158 88.6127 348.229 103.666 366.821 103.666Z" fill="white"/>
<path d="M368.377 73.4733C374.439 73.4733 379.354 68.5647 379.354 62.5096C379.354 56.4545 374.439 51.5459 368.377 51.5459C362.315 51.5459 357.4 56.4545 357.4 62.5096C357.4 68.5647 362.315 73.4733 368.377 73.4733Z" fill="#FFB8B8"/>
<path d="M378.043 55.2671C378.043 55.2671 380.901 49.8101 374.613 49.314C374.613 49.314 369.253 44.4573 363.79 48.4261C363.79 48.4261 360.809 48.4261 359.18 51.7944C359.18 51.7944 356.836 50.9066 356.321 53.2827C356.321 53.2827 354.606 58.2437 356.321 62.7086C358.036 67.1735 358.606 67.6696 358.606 67.6696C358.606 67.6696 357.402 62.1289 364.262 61.6328C371.122 61.1367 377.415 56.8444 377.987 62.3015C378.558 67.7586 379.187 65.2934 379.187 65.2934C379.187 65.2934 384.616 57.4996 378.043 55.2671Z" fill="#2F2E41"/>
<path d="M392.135 92.4003C386.303 99.0283 378.095 103.1 369.284 103.736C360.473 104.372 351.765 101.521 345.039 95.7999L347.926 87.7529C348.579 86.3236 349.609 85.0987 350.905 84.2095C352.201 83.3203 353.716 82.8004 355.286 82.7054L357.122 82.5927L361.502 78.8197C361.502 78.8197 373.304 78.3988 373.129 78.1973L380.277 82.492L380.271 82.4623L383.081 82.6342C384.651 82.7288 386.166 83.2486 387.462 84.1379C388.759 85.0271 389.788 86.2523 390.44 87.6818L392.135 92.4003Z" fill="#00BFA6"/>
<path d="M366.82 104.087C360.079 104.087 353.489 102.091 347.884 98.35C342.279 94.6092 337.911 89.2923 335.331 83.0717C332.751 76.851 332.076 70.0059 333.391 63.4021C334.706 56.7983 337.953 50.7323 342.719 45.9712C347.486 41.2101 353.559 37.9677 360.171 36.6542C366.782 35.3406 373.636 36.0147 379.864 38.5914C386.092 41.1681 391.415 45.5316 395.16 51.13C398.905 56.7285 400.904 63.3105 400.904 70.0437C400.894 79.0695 397.3 87.7227 390.91 94.1049C384.52 100.487 375.857 104.077 366.82 104.087V104.087ZM366.82 36.8424C360.246 36.8424 353.819 38.7896 348.353 42.4378C342.886 46.086 338.626 51.2714 336.11 57.3381C333.594 63.4048 332.936 70.0805 334.218 76.5209C335.501 82.9614 338.667 88.8773 343.316 93.5206C347.964 98.1639 353.887 101.326 360.335 102.607C366.783 103.888 373.467 103.231 379.541 100.718C385.615 98.2048 390.806 93.9493 394.459 88.4894C398.111 83.0294 400.061 76.6103 400.061 70.0437C400.051 61.2412 396.546 52.8021 390.314 46.5779C384.082 40.3536 375.633 36.8524 366.82 36.8424V36.8424Z" fill="#3F3D56"/>
<path d="M450.255 72.5467H407.384C406.235 72.5454 405.134 72.089 404.321 71.2775C403.509 70.4661 403.052 69.3659 403.051 68.2183V41.8451C403.052 40.6975 403.509 39.5973 404.321 38.7858C405.134 37.9744 406.235 37.5179 407.384 37.5166H450.255C451.404 37.5179 452.506 37.9744 453.318 38.7858C454.13 39.5973 454.587 40.6975 454.589 41.8451V68.2183C454.587 69.3659 454.13 70.4661 453.318 71.2775C452.506 72.089 451.404 72.5454 450.255 72.5467V72.5467Z" fill="#E6E6E6"/>
<path d="M433.221 69.1492H410.397C409.321 69.148 408.289 68.7205 407.528 67.9606C406.767 67.2006 406.339 66.1702 406.338 65.0954V44.9668C406.339 43.892 406.767 42.8617 407.528 42.1017C408.289 41.3417 409.321 40.9143 410.397 40.9131H447.24C448.316 40.9143 449.348 41.3418 450.109 42.1017C450.87 42.8617 451.298 43.8921 451.299 44.9668V51.0924C451.294 55.8797 449.387 60.4694 445.998 63.8545C442.609 67.2397 438.014 69.1438 433.221 69.1492Z" fill="white"/>
<path d="M443.566 51.9351H414.073C413.818 51.9351 413.573 51.8339 413.393 51.6537C413.213 51.4736 413.111 51.2292 413.111 50.9744C413.111 50.7196 413.213 50.4752 413.393 50.2951C413.573 50.1149 413.818 50.0137 414.073 50.0137H443.566C443.821 50.0137 444.066 50.1149 444.246 50.2951C444.427 50.4752 444.528 50.7196 444.528 50.9744C444.528 51.2292 444.427 51.4736 444.246 51.6537C444.066 51.8339 443.821 51.9351 443.566 51.9351Z" fill="#00BFA6"/>
<path d="M418.687 55.7316H414.073C413.818 55.7316 413.573 55.6304 413.393 55.4502C413.213 55.27 413.111 55.0256 413.111 54.7708C413.111 54.516 413.213 54.2716 413.393 54.0915C413.573 53.9113 413.818 53.8101 414.073 53.8101H418.687C418.942 53.8101 419.186 53.9113 419.367 54.0915C419.547 54.2716 419.649 54.516 419.649 54.7708C419.649 55.0256 419.547 55.27 419.367 55.4502C419.186 55.6304 418.942 55.7316 418.687 55.7316Z" fill="#00BFA6"/>
<path d="M426.858 59.528H414.073C413.818 59.5275 413.574 59.426 413.394 59.2459C413.214 59.0658 413.113 58.8217 413.113 58.5672C413.113 58.3128 413.214 58.0687 413.394 57.8886C413.574 57.7084 413.818 57.607 414.073 57.6064H426.858C427.113 57.6064 427.357 57.7077 427.538 57.8879C427.718 58.068 427.82 58.3124 427.82 58.5672C427.82 58.822 427.718 59.0664 427.538 59.2466C427.357 59.4268 427.113 59.528 426.858 59.528Z" fill="#00BFA6"/>
<path d="M401.553 77.6383C406.562 77.6383 410.622 73.5828 410.622 68.5801C410.622 63.5774 406.562 59.522 401.553 59.522C396.545 59.522 392.484 63.5774 392.484 68.5801C392.484 73.5828 396.545 77.6383 401.553 77.6383Z" fill="#3F3D56"/>
<defs>
<clipPath id="clip0_285_4577">
<rect width="620" height="524" fill="white"/>
</clipPath>
</defs>
</svg>
