<svg width="539" height="467" viewBox="0 0 539 467" fill="none" xmlns="http://www.w3.org/2000/svg">
<path d="M515.062 436.083L515.606 423.831C521.28 420.794 527.608 419.19 534.041 419.158C525.187 426.406 526.294 440.377 520.291 450.124C518.395 453.149 515.844 455.709 512.826 457.613C509.809 459.517 506.401 460.717 502.858 461.123L495.448 465.665C494.431 459.991 494.656 454.162 496.105 448.583C497.555 443.003 500.195 437.804 503.845 433.344C505.917 430.863 508.293 428.652 510.917 426.765C512.691 431.45 515.062 436.083 515.062 436.083Z" fill="#F2F2F2"/>
<path d="M117.53 422.656L99.6493 417.236C97.3043 407.697 97.3204 397.729 99.6961 388.198C107.059 404.029 128.098 407.654 140.223 420.207C143.975 424.151 146.792 428.89 148.466 434.073C150.14 439.256 150.628 444.749 149.893 450.146L153.807 462.82C145.048 462.187 136.529 459.66 128.839 455.414C121.149 451.167 114.47 445.302 109.262 438.222C106.38 434.222 104.012 429.873 102.215 425.28C109.798 424.419 117.53 422.656 117.53 422.656Z" fill="#F2F2F2"/>
<path d="M501.149 463.662C501.146 464.033 500.999 464.388 500.738 464.651C500.609 464.78 500.456 464.882 500.287 464.952C500.119 465.021 499.938 465.056 499.756 465.056H494.158C493.975 465.056 493.794 465.021 493.624 464.951C493.455 464.881 493.301 464.778 493.172 464.649C493.043 464.519 492.94 464.365 492.87 464.196C492.801 464.026 492.765 463.845 492.766 463.662V294.164C492.766 290.427 491.512 287.395 489.974 287.388H70.4813C68.9356 287.395 67.6893 290.427 67.6823 294.164V462.623C67.6812 462.969 67.5517 463.303 67.3188 463.559C67.086 463.816 66.7665 463.976 66.4221 464.01C65.2942 464.122 64.1662 464.219 63.0452 464.31C63.0174 464.31 62.9895 464.317 62.9617 464.317C62.349 464.373 61.7362 464.414 61.1235 464.463H61.1166C60.7963 463.885 60.4899 463.292 60.1766 462.7C60.0762 462.498 60.0237 462.276 60.0234 462.051V285.373C60.0234 284.341 60.0652 283.303 60.1348 282.278C60.2342 280.871 60.4085 279.47 60.657 278.081C61.8337 271.605 64.4935 267.22 67.5152 267.206H492.933C493.374 267.209 493.81 267.301 494.214 267.478C494.808 267.741 495.344 268.117 495.794 268.586C496.405 269.222 496.927 269.937 497.347 270.713C498.837 273.341 499.902 277.258 500.278 281.818C500.278 281.859 500.285 281.901 500.285 281.943C500.383 283.073 500.431 284.223 500.425 285.373L500.522 300.312L500.585 309.221L500.773 337.176L500.842 347.103L501.149 463.662Z" fill="#E6E6E6"/>
<path d="M538.171 466.786L346.176 467C345.957 467 345.747 466.912 345.592 466.756C345.437 466.601 345.35 466.39 345.35 466.17C345.35 465.951 345.437 465.74 345.592 465.584C345.747 465.429 345.957 465.341 346.176 465.34L538.171 465.126C538.391 465.127 538.601 465.214 538.756 465.37C538.911 465.526 538.998 465.736 538.998 465.956C538.998 466.176 538.911 466.386 538.756 466.542C538.601 466.698 538.391 466.785 538.171 466.786Z" fill="#CACACA"/>
<path d="M299.859 217.684H265.855C265.373 217.684 264.912 217.876 264.573 218.217C264.233 218.558 264.042 219.02 264.043 219.502V273.285H301.675V219.502C301.675 219.263 301.628 219.027 301.537 218.806C301.446 218.585 301.312 218.385 301.143 218.216C300.975 218.047 300.774 217.913 300.554 217.822C300.334 217.73 300.097 217.683 299.859 217.684ZM282.971 248.242C281.908 248.237 280.889 247.812 280.137 247.059C279.385 246.306 278.961 245.287 278.956 244.222V238.019C278.956 236.952 279.379 235.93 280.132 235.176C280.885 234.422 281.906 233.998 282.971 233.998C284.036 233.998 285.057 234.422 285.81 235.176C286.563 235.93 286.986 236.952 286.986 238.019V244.222C286.981 245.287 286.557 246.306 285.805 247.059C285.053 247.812 284.034 248.237 282.971 248.242V248.242Z" fill="#2F2E41"/>
<path d="M356.168 133.75H210.813C209.564 133.752 208.367 134.249 207.484 135.133C206.601 136.017 206.104 137.216 206.102 138.466V236.673C206.103 237.924 206.599 239.123 207.483 240.007C208.366 240.891 209.564 241.389 210.813 241.39H356.168C357.417 241.389 358.614 240.891 359.498 240.007C360.381 239.123 360.878 237.924 360.879 236.673V138.466C360.877 137.216 360.38 136.017 359.497 135.133C358.614 134.249 357.417 133.752 356.168 133.75V133.75Z" fill="#3F3D56"/>
<path d="M354.951 137.155H212.023C211.355 137.157 210.714 137.424 210.242 137.898C209.769 138.371 209.504 139.014 209.504 139.683V235.456C209.505 236.124 209.771 236.765 210.243 237.238C210.715 237.711 211.355 237.977 212.023 237.978H354.951C355.619 237.977 356.259 237.711 356.731 237.238C357.203 236.765 357.469 236.124 357.47 235.456V139.683C357.47 139.014 357.205 138.371 356.733 137.898C356.26 137.424 355.619 137.157 354.951 137.155V137.155Z" fill="white"/>
<path d="M263.926 271.564V276.753C263.926 277.022 264.033 277.28 264.223 277.47C264.413 277.66 264.67 277.767 264.939 277.768H300.778C301.046 277.766 301.303 277.659 301.493 277.469C301.683 277.279 301.79 277.022 301.791 276.753V271.564H263.926Z" fill="#3F3D56"/>
<path d="M327.114 279.574H242.08C241.847 279.574 241.617 279.522 241.407 279.421C241.197 279.321 241.012 279.175 240.865 278.994C240.719 278.813 240.614 278.602 240.559 278.375C240.505 278.149 240.501 277.913 240.549 277.685L241.869 271.41C241.944 271.059 242.136 270.745 242.415 270.519C242.693 270.292 243.041 270.168 243.399 270.167H325.795C326.153 270.168 326.501 270.292 326.779 270.519C327.057 270.745 327.25 271.059 327.325 271.41L328.645 277.685C328.693 277.913 328.689 278.149 328.634 278.375C328.58 278.602 328.475 278.813 328.329 278.994C328.182 279.175 327.997 279.321 327.787 279.421C327.576 279.522 327.347 279.574 327.114 279.574V279.574Z" fill="#2F2E41"/>
<path d="M246.281 271.297H244.342C244.154 271.297 244.002 271.449 244.002 271.637V272.53C244.002 272.718 244.154 272.87 244.342 272.87H246.281C246.469 272.87 246.621 272.718 246.621 272.53V271.637C246.621 271.449 246.469 271.297 246.281 271.297Z" fill="#3F3D56"/>
<path d="M251.519 271.297H249.58C249.392 271.297 249.24 271.449 249.24 271.637V272.53C249.24 272.718 249.392 272.87 249.58 272.87H251.519C251.707 272.87 251.859 272.718 251.859 272.53V271.637C251.859 271.449 251.707 271.297 251.519 271.297Z" fill="#3F3D56"/>
<path d="M256.758 271.297H254.818C254.631 271.297 254.479 271.449 254.479 271.637V272.53C254.479 272.718 254.631 272.87 254.818 272.87H256.758C256.945 272.87 257.097 272.718 257.097 272.53V271.637C257.097 271.449 256.945 271.297 256.758 271.297Z" fill="#3F3D56"/>
<path d="M261.996 271.297H260.057C259.869 271.297 259.717 271.449 259.717 271.637V272.53C259.717 272.718 259.869 272.87 260.057 272.87H261.996C262.184 272.87 262.336 272.718 262.336 272.53V271.637C262.336 271.449 262.184 271.297 261.996 271.297Z" fill="#3F3D56"/>
<path d="M267.234 271.297H265.295C265.107 271.297 264.955 271.449 264.955 271.637V272.53C264.955 272.718 265.107 272.87 265.295 272.87H267.234C267.422 272.87 267.574 272.718 267.574 272.53V271.637C267.574 271.449 267.422 271.297 267.234 271.297Z" fill="#3F3D56"/>
<path d="M272.472 271.297H270.533C270.346 271.297 270.193 271.449 270.193 271.637V272.53C270.193 272.718 270.346 272.87 270.533 272.87H272.472C272.66 272.87 272.812 272.718 272.812 272.53V271.637C272.812 271.449 272.66 271.297 272.472 271.297Z" fill="#3F3D56"/>
<path d="M277.709 271.297H275.77C275.582 271.297 275.43 271.449 275.43 271.637V272.53C275.43 272.718 275.582 272.87 275.77 272.87H277.709C277.896 272.87 278.049 272.718 278.049 272.53V271.637C278.049 271.449 277.896 271.297 277.709 271.297Z" fill="#3F3D56"/>
<path d="M282.947 271.297H281.008C280.82 271.297 280.668 271.449 280.668 271.637V272.53C280.668 272.718 280.82 272.87 281.008 272.87H282.947C283.135 272.87 283.287 272.718 283.287 272.53V271.637C283.287 271.449 283.135 271.297 282.947 271.297Z" fill="#3F3D56"/>
<path d="M288.185 271.297H286.246C286.058 271.297 285.906 271.449 285.906 271.637V272.53C285.906 272.718 286.058 272.87 286.246 272.87H288.185C288.373 272.87 288.525 272.718 288.525 272.53V271.637C288.525 271.449 288.373 271.297 288.185 271.297Z" fill="#3F3D56"/>
<path d="M293.424 271.297H291.484C291.297 271.297 291.145 271.449 291.145 271.637V272.53C291.145 272.718 291.297 272.87 291.484 272.87H293.424C293.611 272.87 293.763 272.718 293.763 272.53V271.637C293.763 271.449 293.611 271.297 293.424 271.297Z" fill="#3F3D56"/>
<path d="M298.662 271.297H296.723C296.535 271.297 296.383 271.449 296.383 271.637V272.53C296.383 272.718 296.535 272.87 296.723 272.87H298.662C298.85 272.87 299.002 272.718 299.002 272.53V271.637C299.002 271.449 298.85 271.297 298.662 271.297Z" fill="#3F3D56"/>
<path d="M303.898 271.297H301.959C301.771 271.297 301.619 271.449 301.619 271.637V272.53C301.619 272.718 301.771 272.87 301.959 272.87H303.898C304.086 272.87 304.238 272.718 304.238 272.53V271.637C304.238 271.449 304.086 271.297 303.898 271.297Z" fill="#3F3D56"/>
<path d="M309.136 271.297H307.197C307.01 271.297 306.857 271.449 306.857 271.637V272.53C306.857 272.718 307.01 272.87 307.197 272.87H309.136C309.324 272.87 309.476 272.718 309.476 272.53V271.637C309.476 271.449 309.324 271.297 309.136 271.297Z" fill="#3F3D56"/>
<path d="M314.375 271.297H312.436C312.248 271.297 312.096 271.449 312.096 271.637V272.53C312.096 272.718 312.248 272.87 312.436 272.87H314.375C314.562 272.87 314.715 272.718 314.715 272.53V271.637C314.715 271.449 314.562 271.297 314.375 271.297Z" fill="#3F3D56"/>
<path d="M319.613 271.297H317.674C317.486 271.297 317.334 271.449 317.334 271.637V272.53C317.334 272.718 317.486 272.87 317.674 272.87H319.613C319.801 272.87 319.953 272.718 319.953 272.53V271.637C319.953 271.449 319.801 271.297 319.613 271.297Z" fill="#3F3D56"/>
<path d="M324.851 271.297H322.912C322.724 271.297 322.572 271.449 322.572 271.637V272.53C322.572 272.718 322.724 272.87 322.912 272.87H324.851C325.039 272.87 325.191 272.718 325.191 272.53V271.637C325.191 271.449 325.039 271.297 324.851 271.297Z" fill="#3F3D56"/>
<path d="M246.22 273.919H244.281C244.094 273.919 243.941 274.071 243.941 274.259V275.152C243.941 275.34 244.094 275.492 244.281 275.492H246.22C246.408 275.492 246.56 275.34 246.56 275.152V274.259C246.56 274.071 246.408 273.919 246.22 273.919Z" fill="#3F3D56"/>
<path d="M251.459 273.919H249.52C249.332 273.919 249.18 274.071 249.18 274.259V275.152C249.18 275.34 249.332 275.492 249.52 275.492H251.459C251.646 275.492 251.799 275.34 251.799 275.152V274.259C251.799 274.071 251.646 273.919 251.459 273.919Z" fill="#3F3D56"/>
<path d="M256.695 273.919H254.756C254.568 273.919 254.416 274.071 254.416 274.259V275.152C254.416 275.34 254.568 275.492 254.756 275.492H256.695C256.883 275.492 257.035 275.34 257.035 275.152V274.259C257.035 274.071 256.883 273.919 256.695 273.919Z" fill="#3F3D56"/>
<path d="M261.933 273.919H259.994C259.806 273.919 259.654 274.071 259.654 274.259V275.152C259.654 275.34 259.806 275.492 259.994 275.492H261.933C262.121 275.492 262.273 275.34 262.273 275.152V274.259C262.273 274.071 262.121 273.919 261.933 273.919Z" fill="#3F3D56"/>
<path d="M267.172 273.919H265.232C265.045 273.919 264.893 274.071 264.893 274.259V275.152C264.893 275.34 265.045 275.492 265.232 275.492H267.172C267.359 275.492 267.512 275.34 267.512 275.152V274.259C267.512 274.071 267.359 273.919 267.172 273.919Z" fill="#3F3D56"/>
<path d="M272.41 273.919H270.471C270.283 273.919 270.131 274.071 270.131 274.259V275.152C270.131 275.34 270.283 275.492 270.471 275.492H272.41C272.598 275.492 272.75 275.34 272.75 275.152V274.259C272.75 274.071 272.598 273.919 272.41 273.919Z" fill="#3F3D56"/>
<path d="M277.648 273.919H275.709C275.521 273.919 275.369 274.071 275.369 274.259V275.152C275.369 275.34 275.521 275.492 275.709 275.492H277.648C277.836 275.492 277.988 275.34 277.988 275.152V274.259C277.988 274.071 277.836 273.919 277.648 273.919Z" fill="#3F3D56"/>
<path d="M282.885 273.919H280.945C280.758 273.919 280.605 274.071 280.605 274.259V275.152C280.605 275.34 280.758 275.492 280.945 275.492H282.885C283.072 275.492 283.224 275.34 283.224 275.152V274.259C283.224 274.071 283.072 273.919 282.885 273.919Z" fill="#3F3D56"/>
<path d="M288.123 273.919H286.184C285.996 273.919 285.844 274.071 285.844 274.259V275.152C285.844 275.34 285.996 275.492 286.184 275.492H288.123C288.311 275.492 288.463 275.34 288.463 275.152V274.259C288.463 274.071 288.311 273.919 288.123 273.919Z" fill="#3F3D56"/>
<path d="M293.361 273.919H291.422C291.234 273.919 291.082 274.071 291.082 274.259V275.152C291.082 275.34 291.234 275.492 291.422 275.492H293.361C293.549 275.492 293.701 275.34 293.701 275.152V274.259C293.701 274.071 293.549 273.919 293.361 273.919Z" fill="#3F3D56"/>
<path d="M298.599 273.919H296.66C296.472 273.919 296.32 274.071 296.32 274.259V275.152C296.32 275.34 296.472 275.492 296.66 275.492H298.599C298.787 275.492 298.939 275.34 298.939 275.152V274.259C298.939 274.071 298.787 273.919 298.599 273.919Z" fill="#3F3D56"/>
<path d="M303.838 273.919H301.899C301.711 273.919 301.559 274.071 301.559 274.259V275.152C301.559 275.34 301.711 275.492 301.899 275.492H303.838C304.025 275.492 304.178 275.34 304.178 275.152V274.259C304.178 274.071 304.025 273.919 303.838 273.919Z" fill="#3F3D56"/>
<path d="M309.076 273.919H307.137C306.949 273.919 306.797 274.071 306.797 274.259V275.152C306.797 275.34 306.949 275.492 307.137 275.492H309.076C309.264 275.492 309.416 275.34 309.416 275.152V274.259C309.416 274.071 309.264 273.919 309.076 273.919Z" fill="#3F3D56"/>
<path d="M314.312 273.919H312.373C312.185 273.919 312.033 274.071 312.033 274.259V275.152C312.033 275.34 312.185 275.492 312.373 275.492H314.312C314.5 275.492 314.652 275.34 314.652 275.152V274.259C314.652 274.071 314.5 273.919 314.312 273.919Z" fill="#3F3D56"/>
<path d="M319.551 273.919H317.611C317.424 273.919 317.271 274.071 317.271 274.259V275.152C317.271 275.34 317.424 275.492 317.611 275.492H319.551C319.738 275.492 319.89 275.34 319.89 275.152V274.259C319.89 274.071 319.738 273.919 319.551 273.919Z" fill="#3F3D56"/>
<path d="M324.789 273.919H322.85C322.662 273.919 322.51 274.071 322.51 274.259V275.152C322.51 275.34 322.662 275.492 322.85 275.492H324.789C324.977 275.492 325.129 275.34 325.129 275.152V274.259C325.129 274.071 324.977 273.919 324.789 273.919Z" fill="#3F3D56"/>
<path d="M289.694 277.065H269.422C269.234 277.065 269.082 277.218 269.082 277.406V278.298C269.082 278.486 269.234 278.639 269.422 278.639H289.694C289.882 278.639 290.034 278.486 290.034 278.298V277.406C290.034 277.218 289.882 277.065 289.694 277.065Z" fill="#3F3D56"/>
<path d="M347.769 150.352H214.033C213.894 150.349 213.761 150.291 213.664 150.192C213.566 150.092 213.512 149.958 213.512 149.819C213.512 149.68 213.566 149.546 213.664 149.446C213.761 149.347 213.894 149.29 214.033 149.287H347.769C347.908 149.29 348.041 149.347 348.138 149.446C348.236 149.546 348.29 149.68 348.29 149.819C348.29 149.958 348.236 150.092 348.138 150.192C348.041 150.291 347.908 150.349 347.769 150.352V150.352Z" fill="#CACACA"/>
<path d="M223.136 146.568C224.858 146.568 226.253 145.14 226.253 143.378C226.253 141.616 224.858 140.188 223.136 140.188C221.415 140.188 220.02 141.616 220.02 143.378C220.02 145.14 221.415 146.568 223.136 146.568Z" fill="#3F3D56"/>
<path d="M233.904 146.568C235.625 146.568 237.021 145.14 237.021 143.378C237.021 141.616 235.625 140.188 233.904 140.188C232.183 140.188 230.787 141.616 230.787 143.378C230.787 145.14 232.183 146.568 233.904 146.568Z" fill="#3F3D56"/>
<path d="M244.67 146.568C246.391 146.568 247.786 145.14 247.786 143.378C247.786 141.616 246.391 140.188 244.67 140.188C242.948 140.188 241.553 141.616 241.553 143.378C241.553 145.14 242.948 146.568 244.67 146.568Z" fill="#3F3D56"/>
<path d="M341.286 140.979H333.638C333.486 140.982 333.342 141.044 333.236 141.152C333.13 141.261 333.07 141.407 333.07 141.558C333.07 141.71 333.13 141.856 333.236 141.964C333.342 142.073 333.486 142.135 333.638 142.138H341.286C341.438 142.135 341.582 142.073 341.688 141.964C341.795 141.856 341.854 141.71 341.854 141.558C341.854 141.407 341.795 141.261 341.688 141.152C341.582 141.044 341.438 140.982 341.286 140.979V140.979Z" fill="#3F3D56"/>
<path d="M341.286 143.155H333.638C333.486 143.158 333.342 143.22 333.236 143.329C333.13 143.437 333.07 143.583 333.07 143.735C333.07 143.886 333.13 144.032 333.236 144.141C333.342 144.249 333.486 144.311 333.638 144.314H341.286C341.438 144.311 341.582 144.249 341.688 144.141C341.795 144.032 341.854 143.886 341.854 143.735C341.854 143.583 341.795 143.437 341.688 143.329C341.582 143.22 341.438 143.158 341.286 143.155V143.155Z" fill="#3F3D56"/>
<path d="M341.286 145.329H333.638C333.486 145.332 333.342 145.394 333.236 145.502C333.13 145.611 333.07 145.757 333.07 145.908C333.07 146.06 333.13 146.206 333.236 146.314C333.342 146.423 333.486 146.485 333.638 146.488H341.286C341.438 146.485 341.582 146.423 341.688 146.314C341.795 146.206 341.854 146.06 341.854 145.908C341.854 145.757 341.795 145.611 341.688 145.502C341.582 145.394 341.438 145.332 341.286 145.329V145.329Z" fill="#3F3D56"/>
<path d="M291.583 181.46H274.872C273.617 181.46 272.6 182.479 272.6 183.736V183.736C272.6 184.993 273.617 186.011 274.872 186.011H291.583C292.839 186.011 293.856 184.993 293.856 183.736V183.736C293.856 182.479 292.839 181.46 291.583 181.46Z" fill="#00BFA6"/>
<path d="M302.379 190.562H264.077C262.822 190.562 261.805 191.581 261.805 192.838V192.838C261.805 194.095 262.822 195.114 264.077 195.114H302.379C303.635 195.114 304.652 194.095 304.652 192.838C304.652 191.581 303.635 190.562 302.379 190.562Z" fill="#E6E6E6"/>
<path d="M302.379 199.665H264.077C262.822 199.665 261.805 200.683 261.805 201.94C261.805 203.197 262.822 204.216 264.077 204.216H302.379C303.635 204.216 304.652 203.197 304.652 201.94C304.652 200.683 303.635 199.665 302.379 199.665Z" fill="#E6E6E6"/>
<path d="M215.338 286.419H173.562C172.085 286.419 170.668 287.007 169.624 288.052C168.579 289.098 167.992 290.517 167.992 291.996C167.992 293.475 168.579 294.893 169.624 295.939C170.668 296.985 172.085 297.573 173.562 297.573H188.88V340.794H200.02V297.573H215.338C216.815 297.573 218.232 296.985 219.277 295.939C220.321 294.893 220.908 293.475 220.908 291.996C220.908 290.517 220.321 289.098 219.277 288.052C218.232 287.007 216.815 286.419 215.338 286.419Z" fill="#3F3D56"/>
<path d="M242.91 364.731H131.172C120.339 364.692 109.882 360.751 101.712 353.631C93.541 346.51 88.2016 336.683 86.6689 325.946L82.7136 311.38C74.527 281.194 62.0572 252.341 45.6854 225.701C38.2024 213.534 34.3509 201.756 43.0989 190.416C43.1733 190.32 43.2466 190.225 43.3186 190.131C50.335 180.987 85.2577 179.008 96.6423 178.623C97.0921 178.608 97.5436 178.6 97.9968 178.6H167.497C167.951 178.6 168.402 178.608 168.851 178.623C174.988 178.802 180.963 180.641 186.14 183.945C191.318 187.25 195.505 191.895 198.259 197.39C201.197 203 202.563 209.301 202.213 215.626C201.863 221.95 199.81 228.062 196.27 233.312C171.857 270.03 164.382 293.054 172.035 307.964C179.437 322.385 202.127 329.759 243.443 331.167C254.545 331.546 259.641 340.202 259.677 348.084C259.711 355.763 254.812 364.24 243.974 364.709C243.622 364.724 243.267 364.731 242.91 364.731Z" fill="#E6E6E6"/>
<path d="M150.154 464.071H191.93C193.407 464.071 194.824 463.483 195.869 462.437C196.913 461.392 197.5 459.973 197.5 458.494C197.5 457.015 196.913 455.596 195.869 454.55C194.824 453.504 193.407 452.917 191.93 452.917H176.612V358.806H165.472V452.917H150.154C148.677 452.917 147.26 453.504 146.215 454.55C145.171 455.596 144.584 457.015 144.584 458.494C144.584 459.973 145.171 461.392 146.215 462.437C147.26 463.483 148.677 464.071 150.154 464.071Z" fill="#C4C4C4"/>
<path d="M146.819 182.093L147.695 187.421C148.109 190.005 149.609 208.255 148.498 210.433C148.4 206.367 140.839 199.976 135.94 201.435L128.251 203.146L123.479 204.209L119.596 205.061L108.31 207.53C108.29 207.399 108.276 207.259 108.256 207.128C108.229 206.963 108.203 206.798 108.169 206.634C107.959 205.574 107.576 204.556 107.035 203.621C106.978 204.874 106.608 206.092 105.961 207.164C105.943 207.192 105.928 207.222 105.915 207.252C105.714 207.577 105.493 207.888 105.253 208.185C105.241 208.192 105.231 208.202 105.223 208.212C105.223 208.212 102.904 171.202 103.147 170.861C103.325 170.618 103.504 170.382 103.691 170.151C103.877 169.914 104.058 169.685 104.252 169.453C104.277 169.431 104.298 169.405 104.314 169.376C104.858 168.731 105.434 168.115 106.04 167.528C106.219 167.356 106.404 167.183 106.588 167.01C109.412 164.395 112.785 162.446 116.46 161.309C116.875 161.181 117.306 161.065 117.744 160.946C118.176 160.837 118.617 160.732 119.06 160.641L119.21 160.61C119.422 160.567 119.641 160.529 119.854 160.493C120.121 160.445 120.39 160.404 120.654 160.372C124.073 159.878 127.556 160.075 130.899 160.948C130.906 160.947 130.907 160.954 130.914 160.952C133.704 161.682 136.356 162.865 138.765 164.453C142.931 167.207 144.552 171.699 145.704 176.743C146.108 178.475 146.448 180.277 146.819 182.093Z" fill="#2F2E41"/>
<path d="M187.965 426.13L195.161 430.044L214.213 403.671L203.59 397.895L187.965 426.13Z" fill="#FFB6B6"/>
<path d="M191.43 416.732L204.495 420.828L202.415 426.309L211.374 439.327C211.816 439.97 212.042 440.738 212.018 441.518C211.994 442.299 211.721 443.051 211.24 443.665C210.758 444.28 210.094 444.724 209.342 444.933C208.591 445.142 207.792 445.105 207.063 444.828L191.854 439.043L191.29 432.625L188.209 437.656L182.475 435.475L191.43 416.732Z" fill="#2F2E41"/>
<path d="M228.729 308.169C227.58 308.449 226.384 308.473 225.225 308.241C224.066 308.008 222.972 307.523 222.02 306.821C221.068 306.119 220.282 305.217 219.716 304.178C219.15 303.138 218.819 301.988 218.745 300.806L157.361 278.696L168.627 268.881L226.888 292.107C228.879 292.115 230.797 292.853 232.28 294.182C233.763 295.512 234.707 297.339 234.934 299.319C235.161 301.299 234.655 303.294 233.511 304.925C232.368 306.556 230.666 307.71 228.729 308.169V308.169Z" fill="#FFB6B6"/>
<path d="M140.215 223.922C140.215 223.922 129.876 224.15 128.957 235.967C128.038 247.785 150.596 277.015 154.091 281.836C157.586 286.656 196.408 292.589 196.408 292.589L209.605 282.996C195.738 274 183.083 267.102 174.59 267.412L140.215 223.922Z" fill="#00BFA6"/>
<path d="M127.535 276.065L130.054 286.902C130.054 286.902 130.079 296.895 131.847 298.738C133.602 300.572 172.199 296.89 172.199 296.89C172.199 296.89 168.107 280.786 168.161 268.602L127.535 276.065Z" fill="#FFB6B6"/>
<path d="M209.071 414.689L195.146 407.02C194.881 388.878 205.78 364.326 218.707 338.61C189.796 343.589 162.521 345.183 138.93 339.161C135.057 338.137 131.742 335.628 129.701 332.177C127.661 328.726 127.058 324.609 128.024 320.717C128.116 320.335 128.222 319.957 128.343 319.582C131.166 310.957 124.835 305.551 130.658 296.064C145.974 290.827 160.523 289.349 173.827 293.973L182.163 312.427L223.481 307.073C225.477 306.835 227.501 306.994 229.435 307.541C231.37 308.089 233.177 309.015 234.753 310.265C236.328 311.515 237.641 313.065 238.616 314.826C239.59 316.587 240.207 318.523 240.431 320.524C240.486 320.973 240.522 321.423 240.539 321.876C232.185 361.091 222.817 396.376 209.071 414.689Z" fill="#2F5675"/>
<path d="M129.448 201.175C138.793 199.26 144.819 190.123 142.906 180.767C140.994 171.411 131.869 165.378 122.524 167.292C113.179 169.207 107.154 178.344 109.066 187.7C110.978 197.056 120.103 203.089 129.448 201.175Z" fill="#FFB6B6"/>
<path d="M121.926 207.452L137.843 206.511C138.514 206.471 139.181 206.642 139.751 207C140.32 207.358 140.764 207.885 141.021 208.507L145.519 219.425L164.214 234.896C164.214 234.896 171.615 244.326 171.633 256.506C171.65 268.685 174.259 296.876 174.259 296.876C174.259 296.876 163.456 281.652 156.789 285.701C155.654 286.39 155.255 287.798 154.067 288.51C153.474 288.866 152.105 288.52 151.507 288.876C142.319 294.337 132.737 299.672 131.841 298.737C130.084 296.9 127.951 287.515 127.951 287.515L113.381 233.915C112.591 231.095 112.434 228.135 112.922 225.247C113.409 222.359 114.529 219.614 116.2 217.211C117.218 215.776 118.285 214.708 119.276 214.532C121.501 214.057 120.318 209.064 121.926 207.452Z" fill="#00BFA6"/>
<path d="M257.326 448.834L264.045 444.157L248.824 415.405L238.908 422.308L257.326 448.834Z" fill="#FFB6B6"/>
<path d="M258.343 429.542L247.813 438.966C231.069 420.286 218.411 394.088 207.685 364.337C179.579 356.096 158.384 342.804 139.881 327.023C133.604 321.705 128.898 314.873 134.252 308.395C134.502 308.092 134.764 307.799 135.036 307.516C141.357 301.012 157.386 302.252 166.775 296.293L187.747 318.738L186.428 324.755L225.821 338.115C227.716 338.78 229.461 339.815 230.956 341.158C232.45 342.502 233.664 344.129 234.527 345.944C235.39 347.76 235.885 349.729 235.985 351.738C236.084 353.746 235.786 355.754 235.106 357.647C234.958 358.074 234.793 358.495 234.609 358.909L258.343 429.542Z" fill="#2F5675"/>
<path d="M253.41 446.938L264.166 438.458L267.508 443.272L283.298 443.223C284.077 443.221 284.838 443.468 285.467 443.929C286.097 444.39 286.563 445.04 286.797 445.785C287.032 446.529 287.022 447.33 286.77 448.068C286.518 448.807 286.037 449.446 285.396 449.892L272.037 459.19L266.429 456.031L268.836 461.418L263.799 464.924L253.41 446.938Z" fill="#2F2E41"/>
<path d="M145.43 342.532C144.341 342.07 143.368 341.374 142.577 340.494C141.786 339.614 141.198 338.571 140.854 337.439C140.509 336.306 140.417 335.112 140.583 333.94C140.749 332.768 141.17 331.647 141.816 330.656L105.781 276.21L120.672 275.076L153.537 328.55C155.129 329.747 156.227 331.486 156.623 333.439C157.019 335.392 156.686 337.423 155.686 339.146C154.687 340.87 153.091 342.167 151.2 342.79C149.31 343.414 147.257 343.322 145.43 342.532Z" fill="#FFB6B6"/>
<path d="M124.711 222.026C124.711 222.026 116.284 216.025 108.496 224.953C100.708 233.88 101.358 270.814 101.285 276.77C101.262 278.635 103.952 282.659 107.658 287.308C109.322 289.395 111.191 291.608 113.11 293.807C114.221 295.08 113.264 297.73 114.38 298.967C115.489 300.197 118.672 300.016 119.727 301.158C124.736 306.578 128.805 310.704 128.805 310.704L145.112 310.905C145.296 298.768 136.995 287.934 126.33 277.464L124.711 222.026Z" fill="#00BFA6"/>
<path d="M147.571 175.834C146.932 176.15 146.312 176.454 145.703 176.743C143.259 177.946 140.734 178.974 138.145 179.821C137.714 178.648 137.057 177.572 136.211 176.652C136.428 177.922 136.318 179.225 135.891 180.44C131.973 181.411 127.86 181.252 124.028 179.981C126.534 184.627 128.385 194.416 128.25 203.146C128.192 207.761 127.568 212.08 126.205 215.184L124.454 209.851C124.292 207.945 123.965 206.058 123.479 204.209C122.305 199.02 121.208 202.489 119.595 205.061L108.309 207.53C108.289 207.399 108.275 207.259 108.255 207.128C108.229 206.963 108.202 206.798 108.168 206.634C107.958 205.574 107.575 204.556 107.034 203.621C106.977 204.874 106.608 206.091 105.96 207.164C105.942 207.192 105.927 207.222 105.914 207.252C105.714 207.577 105.492 207.888 105.252 208.185C105.241 208.192 105.231 208.202 105.222 208.212C97.9355 209.188 92.8277 171.567 103.147 170.867C103.447 170.847 103.504 170.389 103.69 170.151C103.876 169.914 104.057 169.685 104.251 169.453C104.276 169.431 104.297 169.405 104.314 169.376C104.865 168.736 105.436 168.121 106.04 167.528C106.218 167.356 106.403 167.183 106.588 167.01C109.42 164.407 112.791 162.463 116.461 161.316C116.875 161.188 117.305 161.065 117.743 160.946C118.175 160.836 118.616 160.732 119.059 160.641L119.209 160.61C119.421 160.567 119.64 160.529 119.853 160.493C120.121 160.445 120.389 160.404 120.653 160.372C121.642 160.871 122.488 161.613 123.112 162.529L130.322 161.052C130.513 161.013 130.706 160.98 130.899 160.955L130.913 160.952C139.915 159.442 145.702 166.689 147.571 175.834Z" fill="#2F2E41"/>
<path d="M108.275 169.183C106.731 170.298 105.107 171.448 103.223 171.724C101.339 172.001 99.1336 171.089 98.6123 169.255C97.9748 167.014 99.9966 164.972 101.814 163.516L107.576 158.896C108.631 157.959 109.822 157.188 111.109 156.609C111.755 156.324 112.457 156.188 113.163 156.212C113.868 156.236 114.559 156.418 115.185 156.745C115.804 157.164 116.306 157.734 116.643 158.402C116.98 159.07 117.14 159.813 117.109 160.561C117.027 162.059 116.533 163.506 115.682 164.741C114.612 166.41 113.216 167.845 111.578 168.96C109.94 170.075 108.093 170.847 106.149 171.229" fill="#2F2E41"/>
<path d="M151.979 289.207H110.203C108.726 289.207 107.309 289.795 106.264 290.84C105.22 291.886 104.633 293.305 104.633 294.784C104.633 296.263 105.22 297.682 106.264 298.727C107.309 299.773 108.726 300.361 110.203 300.361H125.521V343.582H136.661V300.361H151.979C153.456 300.361 154.873 299.773 155.917 298.727C156.962 297.682 157.549 296.263 157.549 294.784C157.549 293.305 156.962 291.886 155.917 290.84C154.873 289.795 153.456 289.207 151.979 289.207Z" fill="#C4C4C4"/>
<path d="M306.315 466.089L0.828586 466.303C0.60913 466.302 0.398884 466.215 0.243929 466.059C0.0889739 465.904 0.00195312 465.693 0.00195312 465.473C0.00195312 465.253 0.0889739 465.043 0.243929 464.887C0.398884 464.731 0.60913 464.644 0.828586 464.643L306.315 464.429C306.534 464.429 306.744 464.517 306.899 464.673C307.054 464.828 307.141 465.039 307.141 465.259C307.141 465.478 307.054 465.689 306.899 465.845C306.744 466 306.534 466.088 306.315 466.089Z" fill="#CACACA"/>
<path d="M395.215 373.501L402.015 380.921L433.837 358.189L423.8 347.237L395.215 373.501Z" fill="#A0616A"/>
<path d="M409.289 384.001V383.994L408.6 376.584L408.287 376.438L406.456 375.566L397.815 371.474L397.634 371.279L395.9 369.383L386.299 378.208L399.305 392.402L408.224 402.134L408.524 401.855C409.746 400.733 410.735 399.382 411.435 397.878C412.136 396.373 412.532 394.745 412.604 393.087C412.675 391.429 412.419 389.773 411.85 388.214C411.281 386.655 410.411 385.223 409.29 384.001H409.289Z" fill="#2F2E41"/>
<path d="M359.98 447.523L369.604 450.45L385.461 414.676L371.256 410.355L359.98 447.523Z" fill="#A0616A"/>
<path d="M384.899 455.533C384.124 454.066 383.064 452.768 381.783 451.715C380.501 450.662 379.023 449.874 377.435 449.398L373.07 443.368L372.729 443.396L361.191 444.456L360.934 444.379L358.483 443.633L354.695 456.118L385.728 465.557L385.846 465.16C386.33 463.572 386.496 461.904 386.333 460.252C386.171 458.599 385.684 456.996 384.899 455.533V455.533Z" fill="#2F2E41"/>
<path d="M439.341 260.213C439.341 260.213 500.787 319.613 461.942 337.999H449.935C449.935 337.999 446.327 325.165 438.067 314.342C436.933 312.856 432.683 313.158 431.503 311.709C424.297 302.865 416.485 295.269 411.09 295.571L412.381 336.612L414.47 351.252C415.566 358.819 384.612 424.897 384.612 424.897L365.156 417.242C365.156 417.242 385.427 362.817 385.664 354.97L369.42 268.699L439.341 260.213Z" fill="#2F5675"/>
<path d="M444.464 263.142C444.151 263.59 443.741 263.961 443.266 264.23C442.483 264.673 441.635 264.988 440.753 265.164C426.918 268.308 381.724 274.826 369.991 271.717C368.55 271.34 367.61 270.811 367.304 270.113C366.322 267.911 366.447 258.604 367.025 247.366C367.13 245.261 369.448 242.982 369.588 240.779C369.685 239.126 367.603 237.572 367.715 235.892C368.481 224.529 369.469 212.95 370.131 205.63C370.548 200.924 370.834 197.982 370.834 197.982L363.697 152.927L364.031 152.377L364.407 152.189L387.419 140.784L388.672 137.577C389.035 136.654 389.667 135.861 390.485 135.3C391.303 134.74 392.27 134.438 393.261 134.433L408.418 134.37C409.205 134.366 409.981 134.55 410.682 134.906C411.383 135.263 411.989 135.781 412.45 136.42L416.558 142.115L443.712 159.543L443.607 159.864L430.866 198.686L430.803 201.712V201.719L430.33 226.048L431.646 229.346L430.163 234.756C430.163 234.756 430.845 241.078 434.5 245.777C437.815 250.043 442.034 254.491 443.942 258.102V258.109C445 260.103 445.355 261.832 444.464 263.142Z" fill="#00BFA6"/>
<path d="M464.891 334.47L461.607 338.625C461.607 338.625 431.401 359.784 430.363 361.761L425.59 366.284L414.039 353.922L420.046 346.384C424.853 340.351 431.064 335.59 438.134 332.518V332.518L447.34 324.341L464.891 334.47Z" fill="#2F5675"/>
<path d="M445.699 275.084L440.198 221.775L438.746 199.835L454.142 197.047C454.142 197.047 453.532 212.735 455.549 221.587C457.54 230.321 455.813 273.914 455.69 275.079C456.821 276.092 457.618 277.424 457.976 278.899C458.334 280.375 458.236 281.925 457.696 283.344C457.155 284.763 456.196 285.984 454.947 286.846C453.698 287.707 452.218 288.169 450.701 288.17C449.184 288.171 447.703 287.71 446.453 286.85C445.203 285.989 444.243 284.769 443.701 283.351C443.159 281.932 443.06 280.383 443.416 278.906C443.773 277.43 444.569 276.097 445.699 275.084V275.084Z" fill="#A0616A"/>
<path d="M460.717 232.822L440.928 236.923L439.197 230.016L437.18 227.874L433.15 206.735L427.367 194.352L428.87 152.006L443.557 159.805L443.575 159.819C445.821 162.26 447.37 165.754 449.944 169.261C458.055 180.309 458.955 207.156 458.709 221.861C458.705 222.103 458.948 222.357 459.239 222.626C460.62 223.895 461.521 225.603 461.791 227.46C462.06 229.318 461.681 231.212 460.717 232.822V232.822Z" fill="#00BFA6"/>
<path d="M356.087 277.175L361.587 223.866L363.039 201.926L347.643 199.139C347.643 199.139 348.253 214.827 346.236 223.678C344.246 232.412 345.972 276.005 346.095 277.171C344.964 278.183 344.167 279.515 343.809 280.991C343.451 282.467 343.549 284.016 344.09 285.435C344.631 286.854 345.589 288.075 346.838 288.937C348.087 289.799 349.568 290.26 351.085 290.261C352.602 290.262 354.083 289.801 355.333 288.941C356.583 288.08 357.542 286.86 358.084 285.442C358.626 284.024 358.726 282.474 358.369 280.998C358.012 279.522 357.217 278.189 356.087 277.175V277.175Z" fill="#A0616A"/>
<path d="M374.42 196.442L370.131 205.63L368.634 208.83L364.602 229.966L362.59 232.106L360.857 239.015L360.042 238.848L345.351 235.801L341.069 234.916C340.104 233.306 339.723 231.411 339.992 229.553C340.261 227.695 341.163 225.986 342.545 224.717C342.837 224.452 343.081 224.194 343.074 223.95C342.83 209.248 343.728 182.402 351.84 171.352C354.416 167.846 355.962 164.353 358.211 161.913C358.218 161.906 358.218 161.899 358.225 161.899L363.697 152.927L364.031 152.377L364.408 152.188L374.42 196.442Z" fill="#00BFA6"/>
<path d="M400.402 130.05C411.54 130.05 420.57 121.009 420.57 109.857C420.57 98.7051 411.54 89.6646 400.402 89.6646C389.264 89.6646 380.234 98.7051 380.234 109.857C380.234 121.009 389.264 130.05 400.402 130.05Z" fill="#A0616A"/>
<path d="M423.075 100.999C423.006 97.5549 422.616 93.1491 420.207 89.6356C418.174 86.6798 414.073 84.3375 410.25 85.5087C410.293 84.7434 410.123 83.9812 409.759 83.3067C409.395 82.6323 408.852 82.0721 408.189 81.6884C406.741 80.8031 405 80.6428 403.462 80.4964C399.583 80.1339 395.566 79.7574 391.639 80.5033C387.232 81.3399 383.625 83.6125 381.752 86.7426L381.71 86.8402L381.327 88.6945C381.276 88.9432 381.172 89.1779 381.022 89.3825C380.872 89.587 380.679 89.7566 380.457 89.8796C380.235 90.0044 379.988 90.0784 379.734 90.0965C379.48 90.1146 379.225 90.0762 378.988 89.9842C378.728 89.8866 378.447 89.8586 378.173 89.903C377.899 89.9474 377.642 90.0625 377.426 90.2372C377.21 90.4118 377.043 90.6398 376.942 90.8986C376.841 91.1575 376.81 91.4382 376.85 91.7131L376.955 92.452L375.848 92.2429C375.57 92.189 375.283 92.2104 375.016 92.3048C374.749 92.3992 374.512 92.5633 374.33 92.78C374.147 92.9967 374.026 93.2583 373.978 93.5376C373.931 93.817 373.958 94.104 374.058 94.3691L374.365 95.2126C374.136 95.2157 373.91 95.2648 373.701 95.357C373.492 95.4492 373.303 95.5827 373.146 95.7494C372.923 95.9924 372.782 96.3003 372.744 96.6285C372.707 96.9568 372.774 97.2885 372.937 97.5759C374.178 99.6965 375.937 101.467 378.048 102.721C378.997 103.293 380.021 103.732 381.091 104.024C381.313 104.087 381.543 104.143 381.78 104.192C390.329 106.036 399.142 106.301 407.785 104.972C407.276 106.68 407.081 108.465 407.207 110.243C407.486 112.466 408.788 114.3 410.529 114.913C410.923 115.047 411.328 115.145 411.74 115.206C412.135 115.27 412.524 115.366 412.903 115.492C413.463 115.697 413.959 116.047 414.34 116.506C414.722 116.965 414.976 117.516 415.076 118.105C415.176 118.694 415.12 119.298 414.912 119.858C414.704 120.417 414.352 120.912 413.892 121.292C413.892 121.292 415.716 122.805 415.946 122.728C416.842 122.331 417.592 121.663 418.09 120.818C421.565 115.812 423.243 109.148 423.075 100.999Z" fill="#2F2E41"/>
</svg>
