<svg width="400" height="405" viewBox="0 0 400 405" fill="none" xmlns="http://www.w3.org/2000/svg">
<path d="M0 398.939C0 399.442 0.404086 399.846 0.907283 399.846H399.093C399.596 399.846 400 399.442 400 398.939C400 398.436 399.596 398.032 399.093 398.032H0.907283C0.404086 398.032 0 398.436 0 398.939Z" fill="#C4C4C4"/>
<path d="M271.437 181.625H114.639C96.8577 181.625 82.4434 196.035 82.4434 213.81V365.806C82.4434 383.582 96.8577 397.992 114.639 397.992H271.437C289.218 397.992 303.633 383.582 303.633 365.806V213.81C303.633 196.035 289.218 181.625 271.437 181.625L271.437 181.625Z" fill="white"/>
<path d="M271.438 398.754H114.639C96.4666 398.754 81.6816 383.974 81.6816 365.807V213.811C81.6816 195.644 96.4666 180.863 114.639 180.863H271.438C289.611 180.863 304.396 195.644 304.396 213.811V365.807C304.396 383.974 289.611 398.754 271.438 398.754H271.438ZM114.639 182.388C97.3072 182.388 83.2064 196.484 83.2064 213.811V365.807C83.2064 383.133 97.3072 397.229 114.639 397.229H271.438C288.771 397.229 302.871 383.133 302.871 365.807V213.811C302.871 196.484 288.771 182.388 271.438 182.388H114.639V182.388Z" fill="#3F3D56"/>
<path d="M282.797 247.521H219.772C217.099 247.521 214.924 245.347 214.924 242.675C214.924 240.002 217.099 237.828 219.772 237.828H282.797C285.47 237.828 287.645 240.002 287.645 242.675C287.645 245.347 285.47 247.521 282.797 247.521Z" fill="#00BFA6"/>
<path d="M223.67 285.634H162.407C160.862 285.634 159.605 284.377 159.605 282.833C159.605 281.289 160.862 280.034 162.407 280.034H223.67C225.214 280.034 226.47 281.289 226.47 282.833C226.47 284.377 225.214 285.634 223.67 285.634V285.634Z" fill="#00BFA6"/>
<path d="M137.082 192.035H102.106C101.975 192.035 101.869 192.141 101.869 192.271V196.342C101.869 196.472 101.975 196.578 102.106 196.578H137.082C137.213 196.578 137.319 196.472 137.319 196.342V192.271C137.319 192.141 137.213 192.035 137.082 192.035Z" fill="#00BFA6"/>
<path d="M254.894 196.578C256.902 196.578 258.529 194.951 258.529 192.943C258.529 190.936 256.902 189.309 254.894 189.309C252.886 189.309 251.258 190.936 251.258 192.943C251.258 194.951 252.886 196.578 254.894 196.578Z" fill="#3F3D56"/>
<path d="M264.892 196.578C266.9 196.578 268.528 194.951 268.528 192.943C268.528 190.936 266.9 189.309 264.892 189.309C262.884 189.309 261.256 190.936 261.256 192.943C261.256 194.951 262.884 196.578 264.892 196.578Z" fill="#3F3D56"/>
<path d="M274.89 196.578C276.898 196.578 278.526 194.951 278.526 192.943C278.526 190.936 276.898 189.309 274.89 189.309C272.882 189.309 271.254 190.936 271.254 192.943C271.254 194.951 272.882 196.578 274.89 196.578Z" fill="#3F3D56"/>
<path d="M114.258 300.623C114.258 301.126 114.662 301.53 115.165 301.53H270.912C271.416 301.53 271.82 301.126 271.82 300.623C271.82 300.12 271.416 299.716 270.912 299.716H115.165C114.662 299.716 114.258 300.12 114.258 300.623V300.623Z" fill="#3F3D56"/>
<path d="M161.758 76.9132C165.074 74.1743 169.175 73.6645 170.918 75.7742C172.662 77.884 171.387 81.8138 168.069 84.5532C166.759 85.6657 165.202 86.4483 163.527 86.8357L149.332 98.263L144.109 91.4894L158.658 80.9431C159.355 79.3716 160.418 77.9897 161.758 76.9132H161.758Z" fill="#A0616A"/>
<path d="M79.7096 102.696C79.7024 102.191 79.7071 97.7827 82.9717 94.9965C86.7218 91.7959 92.0134 93.0913 93.8694 93.5457C98.1568 94.5953 98.5084 96.4339 102.535 98.323C110.067 101.857 100.629 100.048 105.111 98.915C106.663 98.5227 128.983 96.9753 134.539 93.5567C145.345 86.9082 152.707 82.8765 152.707 82.8765L157.521 92.4996C157.521 92.4996 150.561 102.174 140.766 109.341C130.718 116.692 125.694 120.368 118.059 121.788C117.402 121.911 101.232 124.671 88.208 114.944C85.2373 112.725 79.7944 108.66 79.7096 102.696L79.7096 102.696Z" fill="#2F5675"/>
<path d="M94.6399 78.2228C103.9 78.2228 111.407 70.7184 111.407 61.4612C111.407 52.2041 103.9 44.6997 94.6399 44.6997C85.3798 44.6997 77.873 52.2041 77.873 61.4612C77.873 70.7184 85.3798 78.2228 94.6399 78.2228Z" fill="#A0616A"/>
<path d="M225.951 174.072L208.683 156.402L199.77 165.697L212.634 182.639L225.395 184.098L225.951 174.072Z" fill="#A0616A"/>
<path d="M127.353 140.937C128.363 141.021 131.573 141.663 134.64 139.976C136.734 138.825 137.808 137.112 138.17 136.568C142.669 129.813 159.938 119.279 175.436 118.631C178.946 118.484 181.256 118.891 183.356 119.985C186.333 121.536 187.522 123.759 191.3 128.965C193.367 131.813 195.654 134.496 197.745 137.326C209.991 153.892 214.633 155.192 214.158 160.503C213.632 166.396 207.275 171.986 203.05 171.341C201.319 171.077 200.649 169.874 198.337 167.439C191.559 160.299 188.754 161.618 183.928 156.15C178.294 149.765 179.032 144.472 176.092 144.267C173.366 144.077 172.207 148.594 166.388 154.593C163.724 157.338 161.828 158.597 156.051 162.604C133.552 178.207 133.193 179.304 128.653 180.548C126.666 181.093 112.567 184.957 107.544 178.807C99.6844 169.184 118.253 140.181 127.353 140.937V140.937Z" fill="#00BFA6"/>
<path d="M220.672 178.065C221.942 177.495 223.426 176.828 223.904 175.295C224.227 174.258 224.041 172.979 223.373 172.095C222.602 171.076 221.461 170.941 221.507 170.761C221.577 170.486 224.276 170.594 227.238 171.64C227.797 171.838 230.33 172.763 233.551 175.277C236.132 177.291 235.784 177.695 237.403 178.857C242.371 182.422 247.03 179.612 249.719 182.955C250.756 184.246 251.199 186.078 250.762 187.559C249.885 190.534 245.621 191.558 243.291 192.086C237.679 193.359 233.431 192.32 228.995 191.573C213.91 189.032 205.434 191.346 204.3 187.852C204.085 187.191 204.434 187.247 205.597 182.395C206.745 177.606 206.707 176.291 207.685 175.907C209.157 175.33 210.145 177.956 213.852 178.855C217.138 179.651 219.849 178.434 220.672 178.065V178.065Z" fill="#2F2E41"/>
<path d="M195.252 231.876L190.89 207.562L178.293 210.249L179.421 231.49L189.161 239.861L195.252 231.876Z" fill="#A0616A"/>
<path d="M132.279 149.11C133.068 149.746 135.362 152.08 138.849 152.405C141.228 152.628 143.078 151.814 143.684 151.567C151.201 148.503 171.407 149.481 184.595 157.645C187.582 159.493 189.265 161.127 190.388 163.211C191.98 166.166 191.715 168.672 191.917 175.101C192.027 178.618 192.412 182.121 192.554 185.637C193.381 206.219 196.491 209.901 193.116 214.029C189.37 218.609 180.97 219.666 177.836 216.761C176.553 215.57 176.674 214.199 176.129 210.886C174.53 201.174 171.469 200.691 170.547 193.457C169.471 185.011 173.055 181.045 170.738 179.225C168.588 177.538 165.093 180.625 156.907 182.322C153.162 183.098 150.885 183.076 143.854 183.148C116.473 183.429 115.56 184.135 111.104 182.616C109.155 181.951 95.3175 177.234 94.6158 169.326C93.5177 156.951 125.174 143.375 132.279 149.11H132.279Z" fill="#00BFA6"/>
<path d="M188.642 232.216C190.013 232.458 191.616 232.74 192.872 231.74C193.722 231.063 194.287 229.9 194.23 228.794C194.165 227.517 193.296 226.765 193.436 226.642C193.648 226.454 195.821 228.058 197.684 230.587C198.035 231.064 199.611 233.251 200.864 237.14C201.869 240.255 201.354 240.394 202.041 242.264C204.149 248.003 209.583 248.294 209.929 252.569C210.063 254.219 209.4 255.983 208.207 256.964C205.81 258.933 201.707 257.387 199.482 256.516C194.123 254.419 191.192 251.174 187.941 248.066C176.886 237.495 168.573 234.653 169.597 231.125C169.791 230.457 170.048 230.7 173.736 227.338C177.376 224.019 178.083 222.91 179.108 223.141C180.65 223.49 179.993 226.217 182.555 229.042C184.827 231.545 187.753 232.06 188.642 232.216V232.216Z" fill="#2F2E41"/>
<path d="M96.9252 64.6653C97.5779 62.3311 96.7581 61.4805 97.5937 60.4327C97.5937 60.4327 97.93 60.0111 100.936 58.8733C100.049 53.7286 100.713 52.8586 100.713 52.8586C101.479 51.856 103.012 51.6136 104.056 51.7448C106.264 52.0222 106.655 54.0172 108.067 53.9724C110.019 53.9106 112.359 50.0056 111.633 46.6211C111.04 43.8602 108.485 41.8099 107.844 42.1657C107.209 42.5185 104.923 40.963 104.056 41.2746C103.464 41.4875 100.677 41.2043 100.045 41.4974C99.3548 41.8175 97.3784 43.8104 97.1895 43.5593C95.8763 41.8144 95.9043 41.2052 95.1425 40.8291C93.7926 40.1627 92.3249 41.3944 89.7943 42.6112C84.5876 45.1149 83.063 43.6215 80.6579 45.73C79.443 46.7951 78.7916 48.8308 77.5382 52.8586C75.7854 58.4914 74.9089 61.3079 75.7555 63.997C76.6188 66.7395 77.8901 66.1426 79.7666 70.0118C81.8554 74.3188 81.1355 76.8223 83.1092 77.8087C84.6346 78.571 87.0861 78.0858 88.0116 76.6948C89.5963 74.3133 85.5004 71.0917 86.8974 67.3385C87.755 65.0347 90.4004 63.2878 92.0227 63.7743C93.8571 64.3243 93.9922 67.6122 95.1425 67.5613C96.1275 67.5177 96.8115 65.0721 96.9252 64.6653H96.9252Z" fill="#2F2E41"/>
<path d="M84.2248 80.7044C87.6559 76.8585 101.632 80.8391 102.943 86.9419C103.483 89.4521 101.491 90.512 102.052 93.4022C102.872 97.6296 107.518 97.3414 110.965 101.645C115.861 107.754 110.818 113.726 116.314 123.922C117.488 126.1 118.478 127.936 120.548 129.713C125.297 133.791 129.717 132.393 132.135 136.174C133.944 139.001 133.201 142.486 133.027 143.302C132.313 146.65 130.379 147.465 129.015 150.208C126.748 154.772 129.315 158.122 129.461 163.574C129.644 170.396 126.017 179.852 118.765 182.955C110.617 186.441 100.79 180.668 96.0353 174.936C93.1978 171.515 92.3741 168.36 91.1328 164.465C85.585 147.06 82.4507 148.634 78.2081 134.837C73.3581 119.065 72.4046 100.586 78.2081 94.7388C78.9774 93.9638 81.0943 92.1724 82.4421 88.9469C84.2557 84.6064 82.6889 82.426 84.2248 80.7044L84.2248 80.7044Z" fill="#2F5675"/>
<path d="M134.922 170.231C137.583 173.61 137.995 177.721 135.844 179.413C133.692 181.105 129.793 179.737 127.132 176.357C126.051 175.021 125.305 173.446 124.958 171.763L113.867 157.304L119.598 152.935L130.966 167.037C132.521 167.77 133.878 168.866 134.922 170.231H134.922Z" fill="#A0616A"/>
<path d="M94.3052 95.3616C94.7987 95.2514 99.1165 94.3566 102.511 96.9829C106.411 99.9999 106.222 105.443 106.155 107.352C106.002 111.762 104.274 112.481 103.245 116.807C101.321 124.9 104.985 132.421 107.01 136.577C107.711 138.015 109.962 142.416 114.443 147.156C123.159 156.374 130.935 161.225 130.935 161.225L122.581 168.648C122.581 168.648 109.274 164.594 100.257 156.47C91.0074 148.137 76.7835 118.653 73.8348 111.471C73.5809 110.853 77.1779 120.908 84.0458 106.178C85.6124 102.818 88.4827 96.6614 94.3053 95.3616H94.3052Z" fill="#345F81"/>
<path d="M208.851 321.385C203.541 322.198 199.657 325.597 200.175 328.975C200.694 332.353 205.418 334.431 210.73 333.617C212.857 333.32 214.881 332.519 216.634 331.281L239.09 327.549L237.591 318.676L215.186 321.845C213.142 321.188 210.969 321.03 208.851 321.385V321.385Z" fill="#FFB6B6"/>
<path d="M305.617 293.726L296.91 312.196L253.138 326.927L216.816 328.864L215.906 320.143L255.271 311.915L295.664 292.833L305.617 293.726Z" fill="#00BFA6"/>
<path d="M224.885 363.859L217.068 383.625L206.951 376.73L212.929 356.044L224.885 363.859Z" fill="#FFB6B6"/>
<path d="M192.236 356.503L171.543 376.27L179.82 385.004L200.973 368.455L192.236 356.503Z" fill="#FFB6B6"/>
<path d="M309.496 292.147L309.266 290.538L303.978 280.195L286.504 284.792L289.723 299.042L309.496 292.147Z" fill="#FFB6B6"/>
<path d="M302.137 361.1L302.674 368.005C302.674 368.005 304.896 396.956 286.962 399.255C269.028 401.553 261.211 403.852 250.635 385.924L234.081 356.503L224.412 368.005L211.549 357.883C211.549 357.883 220.746 322.027 228.103 320.648C229.023 320.475 229.942 320.389 230.848 320.37C236.939 320.243 242.68 323.222 246.325 328.102L267.189 356.044L274.776 352.596L302.137 361.1V361.1Z" fill="#2F5675"/>
<path d="M202.813 382.706L206.951 374.891L218.907 383.166C218.907 383.166 221.666 393.279 217.528 394.658C213.389 396.037 201.893 394.198 201.893 394.198C201.893 394.198 180.741 398.795 180.281 394.658C179.821 390.521 189.937 389.601 189.937 389.601L202.813 382.706Z" fill="#2F2E41"/>
<path d="M247.878 377.19L215.919 357.059L199.595 371.673L188.559 358.802C188.559 358.802 208.791 328.922 214.769 327.543C220.747 326.164 230.404 325.245 230.404 325.245L259.833 352.366L247.878 377.19V377.19Z" fill="#2F5675"/>
<path d="M171.084 374.432L181.66 385.924L180.265 387.117C180.265 387.117 177.522 399.063 171.084 395.022C164.646 390.981 164.186 390.061 164.186 390.061C164.186 390.061 145.793 394.198 143.953 386.843C142.114 379.488 147.172 380.867 147.172 380.867L151.765 383.625L171.084 374.432H171.084Z" fill="#2F2E41"/>
<path d="M292.021 289.848C300.148 289.848 306.736 283.263 306.736 275.138C306.736 267.014 300.148 260.428 292.021 260.428C283.895 260.428 277.307 267.014 277.307 275.138C277.307 283.263 283.895 289.848 292.021 289.848Z" fill="#FFB6B6"/>
<path d="M288.572 296.054L309.725 289.619C309.725 289.619 318.002 308.926 316.623 317.66C315.243 326.394 302.675 368.005 302.675 368.005L274.777 352.596C274.777 352.596 274.317 343.403 272.938 339.265C271.558 335.128 267.19 322.487 276.847 311.914C286.503 301.341 288.572 296.054 288.572 296.054V296.054Z" fill="#00BFA6"/>
<path d="M242.017 392.581C238.575 396.704 237.913 401.822 240.538 404.011C243.163 406.201 248.08 404.634 251.523 400.509C252.921 398.88 253.909 396.94 254.403 394.852L268.768 377.199L261.771 371.538L247.072 388.736C245.104 389.596 243.371 390.914 242.017 392.581V392.581Z" fill="#FFB6B6"/>
<path d="M304.798 305.329L309.797 325.126L285.327 364.284L260.347 389.382L252.25 382.667L277.443 351.331L296.54 310.954L304.798 305.329Z" fill="#00BFA6"/>
<path d="M278.457 272.61C282.23 272.601 282.445 272.626 283.055 272.61C287.736 272.487 288.96 270.646 291.332 270.771C295.566 270.995 289.978 292.219 287.653 302.03C285.374 311.653 293.078 320.276 293.631 320.878C301.451 329.379 315.186 330.934 317.543 327.313C319.45 324.383 312.69 319.927 314.324 313.522C315.921 307.262 323.298 307.928 325.36 302.03C327.519 295.853 320.263 292.738 315.703 277.667C313.085 269.011 313.548 267.398 311.105 262.037C304.574 247.707 272.564 253.808 276.157 267.094C276.853 269.664 275.003 272.618 278.457 272.61V272.61Z" fill="#2F2E41"/>
<path d="M325.443 97.9817H170.793C166.419 97.9817 162.861 94.4245 162.861 90.0527V7.92894C162.861 3.55717 166.419 0 170.793 0H325.443C329.816 0 333.374 3.55716 333.374 7.92894V90.0527C333.374 94.4245 329.816 97.9817 325.443 97.9817V97.9817Z" fill="white"/>
<path d="M325.443 97.9817H170.793C166.419 97.9817 162.861 94.4245 162.861 90.0527V7.92894C162.861 3.55717 166.419 0 170.793 0H325.443C329.816 0 333.374 3.55716 333.374 7.92894V90.0527C333.374 94.4245 329.816 97.9817 325.443 97.9817V97.9817ZM170.793 1.32408C167.15 1.32408 164.186 4.28709 164.186 7.92894V90.0527C164.186 93.6946 167.15 96.6576 170.793 96.6576H325.443C329.086 96.6576 332.05 93.6946 332.05 90.0527V7.92894C332.05 4.28709 329.086 1.32408 325.443 1.32408H170.793V1.32408Z" fill="#3F3D56"/>
<path d="M313.506 9.93072C314.604 9.93072 315.493 9.04151 315.493 7.94461C315.493 6.84771 314.604 5.9585 313.506 5.9585C312.409 5.9585 311.52 6.84771 311.52 7.94461C311.52 9.04151 312.409 9.93072 313.506 9.93072Z" fill="#3F3D56"/>
<path d="M318.805 9.93072C319.902 9.93072 320.792 9.04151 320.792 7.94461C320.792 6.84771 319.902 5.9585 318.805 5.9585C317.708 5.9585 316.818 6.84771 316.818 7.94461C316.818 9.04151 317.708 9.93072 318.805 9.93072Z" fill="#3F3D56"/>
<path d="M324.102 9.93072C325.199 9.93072 326.089 9.04151 326.089 7.94461C326.089 6.84771 325.199 5.9585 324.102 5.9585C323.005 5.9585 322.115 6.84771 322.115 7.94461C322.115 9.04151 323.005 9.93072 324.102 9.93072Z" fill="#3F3D56"/>
<path d="M174.12 40.0532C173.573 40.0532 173.127 40.4987 173.127 41.0463C173.127 41.3133 173.23 41.5603 173.417 41.7426C173.606 41.9359 173.854 42.0393 174.12 42.0393H322.779C323.327 42.0393 323.772 41.5939 323.772 41.0463C323.772 40.7793 323.669 40.5323 323.482 40.35C323.293 40.1567 323.046 40.0532 322.779 40.0532H174.12Z" fill="#E6E6E6"/>
<path d="M304.235 39.7222V42.3703H174.119C173.755 42.3703 173.424 42.2247 173.186 41.9797C172.941 41.7414 172.795 41.4104 172.795 41.0462C172.795 40.318 173.391 39.7222 174.119 39.7222H304.235Z" fill="#00BFA6"/>
<path d="M321.122 34.7572H307.878C306.417 34.7572 305.229 33.5696 305.229 32.1091C305.229 30.6486 306.417 29.4609 307.878 29.4609H321.122C322.583 29.4609 323.771 30.6486 323.771 32.1091C323.771 33.5696 322.583 34.7572 321.122 34.7572Z" fill="#E6E6E6"/>
<path d="M234.369 20.8539H175.114C173.653 20.8539 172.465 19.6663 172.465 18.2058C172.465 16.7453 173.653 15.5576 175.114 15.5576H234.369C235.83 15.5576 237.018 16.7453 237.018 18.2058C237.018 19.6663 235.83 20.8539 234.369 20.8539Z" fill="#E6E6E6"/>
<path d="M174.12 69.8447C173.573 69.8447 173.127 70.2902 173.127 70.8378C173.127 71.1048 173.23 71.3518 173.417 71.5341C173.606 71.7274 173.854 71.8308 174.12 71.8308H322.779C323.327 71.8308 323.772 71.3854 323.772 70.8378C323.772 70.5708 323.669 70.3238 323.482 70.1415C323.293 69.9482 323.046 69.8447 322.779 69.8447H174.12Z" fill="#E6E6E6"/>
<path d="M253.242 69.5142V72.1623H174.119C173.755 72.1623 173.424 72.0166 173.186 71.7717C172.941 71.5334 172.795 71.2023 172.795 70.8382C172.795 70.11 173.391 69.5142 174.119 69.5142H253.242V69.5142Z" fill="#00BFA6"/>
<path d="M321.122 64.5488H307.878C306.417 64.5488 305.229 63.3611 305.229 61.9006C305.229 60.4401 306.417 59.2524 307.878 59.2524H321.122C322.583 59.2524 323.771 60.4401 323.771 61.9006C323.771 63.3611 322.583 64.5488 321.122 64.5488Z" fill="#E6E6E6"/>
</svg>
