<svg width="350" height="351" viewBox="0 0 350 351" fill="none" xmlns="http://www.w3.org/2000/svg">
<g clip-path="url(#clip0_815_1831)">
<path d="M139.158 350.989H139.301V351L139.336 350.989H148.444C145.729 350.524 143.02 350.163 140.306 350.685C140.242 350.696 140.185 350.708 140.122 350.725C139.846 350.776 139.571 350.845 139.295 350.92C139.278 350.925 139.255 350.931 139.238 350.937C139.213 350.944 139.19 350.955 139.169 350.971C139.154 350.974 139.141 350.979 139.129 350.989H139.158Z" fill="white"/>
<path d="M181.987 95.3769C182.142 76.3864 182.915 57.2123 184.306 37.8548C184.329 37.4705 184.357 37.092 184.386 36.7077C185.121 26.6303 186.02 16.5165 187.084 6.36649V6.30913C187.083 4.63615 186.417 3.03198 185.233 1.84901C184.05 0.666033 182.444 0.000998331 180.77 0H11.4509C9.78242 0.00327594 8.18276 0.665107 7.00027 1.84139C5.81777 3.01768 5.1482 4.61316 5.13732 6.28045C3.66798 20.258 2.51621 34.1668 1.68205 48.0068C1.64761 48.4599 1.62467 48.9072 1.60171 49.3604C1.18845 56.2029 0.85938 63.0282 0.614489 69.8364C0.59727 70.2379 0.580047 70.6394 0.574308 71.0408C-0.992716 112.813 0.532449 154.644 5.13732 196.191C5.14939 197.857 5.81953 199.452 7.00193 200.627C8.18433 201.802 9.78331 202.463 11.4509 202.466H180.77C182.444 202.465 184.05 201.8 185.233 200.617C186.417 199.434 187.083 197.83 187.084 196.157V196.094C186.251 188.712 185.521 181.282 184.891 173.805C184.799 172.71 184.709 171.614 184.621 170.519C184.185 165.133 183.804 159.726 183.479 154.298C183.41 153.203 183.347 152.107 183.29 151.012C182.676 140.149 182.274 129.201 182.084 118.17C182.061 117.075 182.044 115.985 182.027 114.884C181.958 109.498 181.937 104.091 181.964 98.6634C181.964 97.5679 181.97 96.4724 181.987 95.3769Z" fill="#E9E9E9"/>
<path d="M233 43.0169C232.999 41.3439 232.333 39.7397 231.15 38.5568C229.966 37.3738 228.361 36.7088 226.686 36.7078H57.3672C55.6987 36.711 54.099 37.3729 52.9165 38.5492C51.734 39.7254 51.0645 41.3209 51.0536 42.9882C45.3369 97.459 44.3899 150.966 48.2182 202.466C48.6831 208.838 49.2265 215.178 49.8483 221.485C50.1812 224.863 50.5351 228.232 50.9101 231.591C50.956 232.027 51.0019 232.463 51.0536 232.899C51.0657 234.565 51.7358 236.159 52.9182 237.335C54.1006 238.51 55.6996 239.171 57.3672 239.174H226.686C228.361 239.173 229.966 238.508 231.15 237.325C232.333 236.142 232.999 234.537 233 232.864V232.801C226.153 172.136 226.153 108.305 233 43.0743V43.0169Z" fill="white"/>
<path d="M233 43.0169C232.999 41.3439 232.333 39.7397 231.15 38.5568C229.966 37.3738 228.361 36.7088 226.686 36.7078H57.3672C55.6987 36.711 54.099 37.3729 52.9165 38.5492C51.734 39.7254 51.0645 41.3209 51.0536 42.9882C45.3369 97.459 44.3899 150.966 48.2182 202.466C48.6831 208.838 49.2265 215.178 49.8483 221.485C50.1812 224.863 50.5351 228.232 50.9101 231.591C50.956 232.027 51.0019 232.463 51.0536 232.899C51.0657 234.565 51.7358 236.159 52.9182 237.335C54.1006 238.51 55.6996 239.171 57.3672 239.174H226.686C228.361 239.173 229.966 238.508 231.15 237.325C232.333 236.142 232.999 234.537 233 232.864V232.801C226.153 172.136 226.153 108.305 233 43.0743V43.0169ZM231.852 232.899C231.842 234.262 231.293 235.565 230.326 236.525C229.358 237.486 228.05 238.025 226.686 238.026H57.3672C55.9978 238.024 54.6851 237.48 53.7168 236.512C52.7485 235.545 52.2036 234.233 52.2015 232.864V232.801C52.1613 232.434 52.1212 232.061 52.081 231.694C51.6849 228.184 51.3157 224.664 50.9732 221.135C50.3706 214.947 49.8368 208.723 49.3719 202.466C45.5436 150.995 46.4848 97.5221 52.2015 43.0743V43.0169C52.2036 41.6485 52.7485 40.3367 53.7168 39.3691C54.6851 38.4014 55.9978 37.8569 57.3672 37.8549H226.686C228.051 37.8553 229.361 38.3954 230.328 39.3572C231.296 40.3189 231.844 41.6243 231.852 42.9882C225.005 108.271 225.005 172.171 231.852 232.899Z" fill="#E4E4E4"/>
<path d="M69.0393 95.377C68.6037 95.3781 68.1864 95.5518 67.8788 95.86C67.5712 96.1682 67.3984 96.5857 67.3984 97.021C67.3984 97.4562 67.5712 97.8737 67.8788 98.1819C68.1864 98.4901 68.6037 98.6638 69.0393 98.665H206.636C207.072 98.6638 207.489 98.4901 207.797 98.1819C208.104 97.8737 208.277 97.4562 208.277 97.021C208.277 96.5857 208.104 96.1682 207.797 95.86C207.489 95.5518 207.072 95.3781 206.636 95.377H69.0393Z" fill="#E6E6E6"/>
<path d="M69.0386 105.242C68.6028 105.243 68.1851 105.417 67.8773 105.725C67.5694 106.033 67.3965 106.451 67.3965 106.886C67.3965 107.322 67.5694 107.739 67.8773 108.048C68.1851 108.356 68.6028 108.529 69.0386 108.53H162.448C162.884 108.529 163.302 108.356 163.609 108.048C163.917 107.739 164.09 107.322 164.09 106.886C164.09 106.451 163.917 106.033 163.609 105.725C163.302 105.417 162.884 105.243 162.448 105.242H69.0386Z" fill="#E6E6E6"/>
<path d="M69.0386 114.884C68.6028 114.885 68.1851 115.058 67.8773 115.366C67.5694 115.675 67.3965 116.092 67.3965 116.528C67.3965 116.963 67.5694 117.381 67.8773 117.689C68.1851 117.997 68.6028 118.171 69.0386 118.172H206.635C207.071 118.171 207.489 117.997 207.797 117.689C208.105 117.381 208.278 116.963 208.278 116.528C208.278 116.092 208.105 115.675 207.797 115.366C207.489 115.058 207.071 114.885 206.635 114.884H69.0386Z" fill="#E6E6E6"/>
<path d="M69.0393 124.749C68.6037 124.75 68.1864 124.924 67.8788 125.232C67.5712 125.54 67.3984 125.958 67.3984 126.393C67.3984 126.828 67.5712 127.246 67.8788 127.554C68.1864 127.862 68.6037 128.036 69.0393 128.037H162.449C162.884 128.036 163.302 127.862 163.609 127.554C163.917 127.246 164.09 126.828 164.09 126.393C164.09 125.958 163.917 125.54 163.609 125.232C163.302 124.924 162.884 124.75 162.449 124.749H69.0393Z" fill="#E6E6E6"/>
<path d="M69.0393 151.012C68.6037 151.013 68.1864 151.187 67.8788 151.495C67.5712 151.803 67.3984 152.221 67.3984 152.656C67.3984 153.091 67.5712 153.509 67.8788 153.817C68.1864 154.125 68.6037 154.299 69.0393 154.3H206.636C207.072 154.299 207.489 154.125 207.797 153.817C208.104 153.509 208.277 153.091 208.277 152.656C208.277 152.221 208.104 151.803 207.797 151.495C207.489 151.187 207.072 151.013 206.636 151.012H69.0393Z" fill="#E6E6E6"/>
<path d="M69.0386 160.877C68.6028 160.878 68.1851 161.052 67.8773 161.36C67.5694 161.668 67.3965 162.086 67.3965 162.521C67.3965 162.957 67.5694 163.374 67.8773 163.683C68.1851 163.991 68.6028 164.164 69.0386 164.165H162.448C162.884 164.164 163.302 163.991 163.609 163.683C163.917 163.374 164.09 162.957 164.09 162.521C164.09 162.086 163.917 161.668 163.609 161.36C163.302 161.052 162.884 160.878 162.448 160.877H69.0386Z" fill="#E6E6E6"/>
<path d="M69.0386 170.519C68.6028 170.52 68.1851 170.693 67.8773 171.002C67.5694 171.31 67.3965 171.728 67.3965 172.163C67.3965 172.599 67.5694 173.016 67.8773 173.324C68.1851 173.633 68.6028 173.806 69.0386 173.807H206.635C207.071 173.806 207.489 173.633 207.797 173.324C208.105 173.016 208.278 172.599 208.278 172.163C208.278 171.728 208.105 171.31 207.797 171.002C207.489 170.693 207.071 170.52 206.635 170.519H69.0386Z" fill="#E6E6E6"/>
<path d="M69.0393 180.384C68.6037 180.385 68.1864 180.559 67.8788 180.867C67.5712 181.175 67.3984 181.593 67.3984 182.028C67.3984 182.463 67.5712 182.881 67.8788 183.189C68.1864 183.497 68.6037 183.671 69.0393 183.672H162.449C162.884 183.671 163.302 183.497 163.609 183.189C163.917 182.881 164.09 182.463 164.09 182.028C164.09 181.593 163.917 181.175 163.609 180.867C163.302 180.559 162.884 180.385 162.449 180.384H69.0393Z" fill="#E6E6E6"/>
<path d="M96.2637 74.9638H69.9831C69.6427 74.9634 69.3164 74.8282 69.0757 74.5876C68.835 74.3471 68.6996 74.021 68.6992 73.6809V69.4731C68.6996 69.133 68.835 68.8069 69.0757 68.5664C69.3164 68.3259 69.6427 68.1906 69.9831 68.1902H96.2637C96.6041 68.1906 96.9305 68.3259 97.1711 68.5664C97.4118 68.8069 97.5472 69.133 97.5476 69.4731V73.6809C97.5472 74.021 97.4118 74.3471 97.1711 74.5876C96.9305 74.8282 96.6041 74.9634 96.2637 74.9638Z" fill="#00BFA6"/>
<path d="M187.563 210.31L179.514 212.969C178.172 213.412 176.83 213.855 175.489 214.298C174.246 214.707 172.901 215.193 171.571 215.017C170.652 214.895 169.604 214.367 169.318 213.422C169.047 212.527 169.621 211.592 170.317 211.063C172.238 209.602 174.667 211.089 176.028 212.601C177.693 214.451 178.635 216.839 180.197 218.775C181.587 220.511 183.349 221.914 185.353 222.879C189.337 224.759 194.197 224.559 197.75 221.82C201.994 218.549 202.426 212.88 202.449 207.934C202.441 207.711 202.347 207.5 202.187 207.345C202.026 207.19 201.811 207.103 201.588 207.103C201.365 207.103 201.15 207.19 200.99 207.345C200.829 207.5 200.735 207.711 200.727 207.934C200.707 212.417 200.451 217.911 196.362 220.716C192.444 223.403 187.295 222.69 183.688 219.828C181.677 218.232 180.441 216.152 179.121 213.998C177.833 211.896 176.233 209.857 173.809 209.039C172.769 208.662 171.631 208.655 170.587 209.019C169.542 209.383 168.656 210.097 168.077 211.039C167.813 211.484 167.647 211.979 167.589 212.493C167.531 213.007 167.584 213.527 167.743 214.019C167.903 214.511 168.165 214.964 168.513 215.347C168.861 215.729 169.287 216.033 169.762 216.239C172.573 217.578 175.789 216.009 178.496 215.115L188.021 211.969C189.068 211.623 188.62 209.961 187.563 210.31L187.563 210.31Z" fill="#00BFA6"/>
<path d="M323.708 336.779L318.063 338.637L308.203 317.766L316.534 315.023L323.708 336.779Z" fill="#9F616A"/>
<path d="M327.735 341.519L327.351 340.355L326.34 337.286L325.652 335.198L323.769 335.818L323.379 335.789L318.207 335.439L317.519 335.393L316.497 335.325L315.441 335.25L312.491 339.535H312.485C311.382 339.893 310.362 340.468 309.483 341.224C308.604 341.98 307.884 342.903 307.365 343.939C307.302 344.066 307.245 344.192 307.187 344.318C307.045 344.627 306.924 344.945 306.826 345.27C306.379 346.676 306.296 348.171 306.585 349.618C306.659 349.976 306.753 350.33 306.866 350.679L306.883 350.736L306.952 350.948L307.365 350.811L310.993 349.618L323.7 345.436L326.22 344.605L326.995 344.347H327L328.504 343.853L327.735 341.519Z" fill="#2F2E41"/>
<path d="M270.204 341.686L264.261 341.685L261.434 318.779L270.205 318.779L270.204 341.686Z" fill="#9F616A"/>
<path d="M260.693 241.268L258.059 245.822C258.059 245.822 255.164 246.613 256.11 256.042C256.778 262.701 256.995 292.515 258.677 311.883C259.377 319.944 260.33 326.196 261.676 328.217L262.505 328.958L271.153 329.784L271.371 329.708L274.546 307.295C275.116 303.272 275.031 299.183 274.294 295.187L273.72 288.878L281.682 256.932C281.682 256.932 289.791 277.407 294.956 296.908C296.2 301.602 300.923 304.587 302.714 308.616C303.314 309.965 303.903 311.273 304.479 312.528C308.266 320.791 310.165 326.806 311.601 327.306H312.749L319.637 325.012L320.992 321.608L310.453 290.599L302.562 240.53C287.526 232.451 273.421 231.552 260.693 241.268Z" fill="#1B67A5"/>
<path d="M303.765 173.805C303.246 172.662 302.635 171.563 301.94 170.519C300.349 168.042 298.14 166.023 295.529 164.663L293.267 164.164L289.215 163.269L287.08 160.877L283.579 156.96H271.525L269.913 160.877L268.558 164.164L267.978 165.563L257.659 170.719C257.653 170.719 257.653 170.719 257.647 170.725C257.785 171.757 257.921 172.784 258.055 173.805C258.347 176.025 258.623 178.218 258.881 180.384C259.013 181.485 259.139 182.581 259.26 183.67C259.644 187.089 259.975 190.448 260.253 193.748C260.5 196.696 260.697 199.602 260.844 202.466C261.203 208.97 261.23 215.488 260.924 221.995C260.844 223.527 262.365 225.27 262.245 226.767C262.044 229.211 260.155 231.379 259.822 233.713C259.616 235.147 259.708 236.673 259.346 238.026C259.245 238.422 259.095 238.804 258.898 239.162C258.898 239.168 258.893 239.168 258.893 239.173C254.76 246.549 258.003 243.028 257.618 244.685L257.802 244.731C257.888 244.754 258.152 244.823 258.577 244.921C261.005 245.5 271.015 236.111 277.736 236.111C281.771 236.111 292.452 242.741 296.028 243.223C298.858 243.601 301.383 243.945 302.887 242.621C303.323 242.234 303.657 241.745 303.857 241.198L303.874 241.146L303.868 241.095L303.725 239.173L303.639 238.026L302.41 221.565C301.725 220.715 301.291 219.69 301.159 218.606C301.027 217.522 301.202 216.423 301.664 215.434L301.917 214.9L300.987 202.466L300.815 200.143L300.752 199.357V199.351L300.304 193.346L301.383 190.065V190.06L303.484 183.67L304.563 180.384L305.24 178.319L305.286 178.181C304.925 176.676 304.415 175.21 303.765 173.805Z" fill="#00BFA6"/>
<path d="M314.236 233.117L302.665 203.233L297.291 192.321L307.625 186.616L315.948 201.27L321.527 231.887C322.406 232.487 323.085 233.334 323.477 234.322C323.869 235.31 323.957 236.392 323.729 237.43C323.501 238.468 322.968 239.414 322.198 240.147C321.428 240.88 320.457 241.366 319.408 241.542C318.359 241.719 317.282 241.579 316.314 241.139C315.346 240.699 314.532 239.98 313.976 239.074C313.42 238.168 313.147 237.117 313.194 236.056C313.24 234.994 313.603 233.97 314.236 233.117H314.236Z" fill="#9F616A"/>
<path d="M314.471 191.947L311.509 190.031L308.105 183.67L306.349 180.384L305.241 178.319L304.771 177.436L299.45 173.805L295.857 171.35L292.93 173.805L291.535 174.975L292.901 180.384L293.728 183.67L295.53 190.8L300.816 200.143L302.131 202.466L302.882 203.802L302.888 203.814L302.991 203.992L316.348 203.435L316.767 203.418L316.79 202.466L316.801 202.122C316.807 201.95 316.807 201.778 316.807 201.605C316.805 198.246 316.004 194.936 314.471 191.947Z" fill="#00BFA6"/>
<path d="M213.38 221.232L237.051 199.617L245.278 190.655L254.346 198.209L243.7 211.275L217.171 227.576C216.931 228.611 216.387 229.551 215.608 230.275C214.829 230.998 213.852 231.473 212.801 231.637C211.751 231.801 210.675 231.648 209.712 231.197C208.75 230.745 207.944 230.017 207.399 229.105C206.853 228.192 206.594 227.138 206.653 226.077C206.712 225.016 207.087 223.997 207.73 223.151C208.373 222.304 209.254 221.669 210.261 221.327C211.268 220.986 212.354 220.952 213.38 221.232H213.38Z" fill="#9F616A"/>
<path d="M262.245 183.67L262.199 180.384L262.113 173.805L262.078 171.253L261.981 171.184C261.446 170.834 260.841 170.606 260.207 170.519C259.651 170.426 259.082 170.426 258.526 170.519C258.232 170.564 257.943 170.631 257.659 170.719C257.653 170.719 257.653 170.719 257.647 170.725C255.946 171.336 254.444 172.398 253.303 173.799L253.297 173.805C251.576 175.851 250.05 178.054 248.74 180.384C248.091 181.485 247.471 182.598 246.891 183.67C244.699 187.748 243.12 191.281 243.092 191.345L236.537 199.85L236.629 200.005L238.07 202.466L243.35 211.488L244.188 212.922L246.329 211.78C248.825 210.45 250.792 208.31 251.908 205.712L252.671 202.798L252.953 202.466L260.253 193.748L262.343 191.247L262.245 183.67Z" fill="#00BFA6"/>
<path d="M287.261 145.735C288.238 139.716 284.148 134.045 278.124 133.068C272.101 132.091 266.425 136.179 265.448 142.198C264.47 148.217 268.561 153.889 274.584 154.866C280.608 155.842 286.283 151.755 287.261 145.735Z" fill="#9F616A"/>
<path d="M265.675 136.728C265.183 135.011 264.201 133.539 264.692 133.539C265.184 133.539 265.429 132.312 265.429 132.312C265.429 132.312 265.92 132.066 266.166 132.312C266.411 132.557 266.657 130.594 266.657 130.594C266.657 130.594 266.902 129.858 267.148 130.349C267.393 130.84 267.393 130.594 267.639 129.858C267.884 129.122 269.112 128.631 269.112 128.631C269.112 128.631 273.777 128.877 274.514 127.895C275.251 126.914 283.599 127.65 285.318 128.877C287.036 130.104 293.808 132.297 289.79 139.179C292.086 143.194 288.659 150.355 287.773 151.205C286.373 152.548 285.403 153.033 278.777 154.35C277.48 154.608 274.293 143.768 274.293 143.768C274.293 143.768 266.166 138.446 265.675 136.728Z" fill="#2F2E41"/>
<path d="M270.562 340.791L270.206 340.647L263.812 338.043L262.831 337.647L258.687 340.791H258.681C256.34 340.793 254.095 341.724 252.44 343.379C250.785 345.034 249.855 347.278 249.854 349.618V349.904H272.542V340.791H270.562Z" fill="#2F2E41"/>
<path d="M337.251 350.3C337.251 350.39 337.234 350.479 337.2 350.563C337.166 350.646 337.115 350.722 337.052 350.786C336.989 350.85 336.913 350.9 336.83 350.935C336.747 350.97 336.658 350.988 336.568 350.988H219.881C219.699 350.988 219.525 350.916 219.396 350.788C219.268 350.659 219.195 350.485 219.195 350.303C219.195 350.121 219.268 349.947 219.396 349.818C219.525 349.69 219.699 349.618 219.881 349.618H336.568C336.749 349.618 336.922 349.69 337.05 349.818C337.178 349.946 337.25 350.119 337.251 350.3Z" fill="#CCCCCC"/>
<path d="M56.7824 0C55.8794 16.0407 49.9789 31.3976 39.9071 43.9203C29.8352 56.4431 16.0964 65.5047 0.6144 69.8364C0.597181 70.2379 0.579958 70.6394 0.574219 71.0408C16.377 66.6966 30.4151 57.502 40.7065 44.7551C50.9979 32.0082 57.0227 16.3531 57.9304 0H56.7824Z" fill="white"/>
<path d="M39.2019 0C36.5346 10.1271 31.8326 19.6059 25.3823 27.8591C18.9319 36.1123 10.8681 42.9673 1.68191 48.0068C1.64747 48.4599 1.62452 48.9072 1.60156 49.3604C11.1219 44.2481 19.4819 37.2244 26.1569 28.7302C32.8318 20.2359 37.6776 10.4545 40.39 0H39.2019Z" fill="white"/>
</g>
<defs>
<clipPath id="clip0_815_1831">
<rect width="350" height="351" fill="white"/>
</clipPath>
</defs>
</svg>
