<svg width="67" height="67" viewBox="0 0 67 67" fill="none" xmlns="http://www.w3.org/2000/svg">
<ellipse cx="32.9805" cy="32.706" rx="32.9804" ry="32.7061" transform="rotate(-180 32.9805 32.706)" fill="url(#paint0_linear_232_100)"/>
<path d="M48.3477 16.6309L64.8378 40.7447C62.0451 55.7119 45.2732 65.4131 34.9319 65.4131L17.7189 47.3545L32.7058 37.4224L26.0803 31.874L48.3477 16.6309Z" fill="#767676" fill-opacity="0.32"/>
<rect x="16.2012" y="15.5195" width="34.0984" height="34.9234" rx="8" fill="white"/>
<path d="M33.5312 15.5215H42.3009C46.7192 15.5215 50.3009 19.1032 50.3009 23.5215V42.4449C50.3009 46.8632 46.7192 50.4449 42.3009 50.4449H33.5312V15.5215Z" fill="#494949" fill-opacity="0.09"/>
<path d="M28.3734 25.2204C28.3734 24.0943 28.8207 23.0144 29.6169 22.2182C30.4132 21.4219 31.4931 20.9746 32.6191 20.9746C33.7452 20.9746 34.8251 21.4219 35.6213 22.2182C36.4176 23.0144 36.8649 24.0943 36.8649 25.2204C36.8649 26.3464 36.4176 27.4263 35.6213 28.2226C34.8251 29.0188 33.7452 29.4661 32.6191 29.4661C31.4931 29.4661 30.4132 29.0188 29.6169 28.2226C28.8207 27.4263 28.3734 26.3464 28.3734 25.2204V25.2204ZM32.6191 23.0996C32.3406 23.0996 32.0649 23.1545 31.8076 23.261C31.5503 23.3676 31.3165 23.5238 31.1195 23.7208C30.9226 23.9177 30.7664 24.1515 30.6598 24.4088C30.5532 24.6661 30.4984 24.9419 30.4984 25.2204C30.4984 25.4989 30.5532 25.7746 30.6598 26.0319C30.7664 26.2892 30.9226 26.523 31.1195 26.72C31.3165 26.9169 31.5503 27.0731 31.8076 27.1797C32.0649 27.2863 32.3406 27.3411 32.6191 27.3411C33.1816 27.3411 33.721 27.1177 34.1187 26.72C34.5165 26.3222 34.7399 25.7828 34.7399 25.2204C34.7399 24.6579 34.5165 24.1185 34.1187 23.7208C33.721 23.323 33.1816 23.0996 32.6191 23.0996V23.0996ZM38.9941 26.2829C38.9941 25.8643 39.0766 25.4498 39.2368 25.0631C39.397 24.6763 39.6318 24.3249 39.9277 24.029C40.2237 23.733 40.5751 23.4982 40.9618 23.338C41.3486 23.1778 41.7631 23.0954 42.1816 23.0954C42.6002 23.0954 43.0147 23.1778 43.4014 23.338C43.7882 23.4982 44.1396 23.733 44.4355 24.029C44.7315 24.3249 44.9663 24.6763 45.1265 25.0631C45.2867 25.4498 45.3691 25.8643 45.3691 26.2829C45.3691 27.1282 45.0333 27.939 44.4355 28.5368C43.8378 29.1345 43.027 29.4704 42.1816 29.4704C41.3363 29.4704 40.5255 29.1345 39.9277 28.5368C39.33 27.939 38.9941 27.1282 38.9941 26.2829ZM42.1816 25.2204C41.8998 25.2204 41.6296 25.3323 41.4303 25.5316C41.2311 25.7308 41.1191 26.0011 41.1191 26.2829C41.1191 26.5647 41.2311 26.8349 41.4303 27.0342C41.6296 27.2334 41.8998 27.3454 42.1816 27.3454C42.4634 27.3454 42.7337 27.2334 42.9329 27.0342C43.1322 26.8349 43.2441 26.5647 43.2441 26.2829C43.2441 26.0011 43.1322 25.7308 42.9329 25.5316C42.7337 25.3323 42.4634 25.2204 42.1816 25.2204ZM23.0566 23.0954C22.2113 23.0954 21.4005 23.4312 20.8027 24.029C20.205 24.6267 19.8691 25.4375 19.8691 26.2829C19.8691 27.1282 20.205 27.939 20.8027 28.5368C21.4005 29.1345 22.2113 29.4704 23.0566 29.4704C23.902 29.4704 24.7128 29.1345 25.3105 28.5368C25.9083 27.939 26.2441 27.1282 26.2441 26.2829C26.2441 25.4375 25.9083 24.6267 25.3105 24.029C24.7128 23.4312 23.902 23.0954 23.0566 23.0954ZM21.9941 26.2829C21.9941 26.0011 22.1061 25.7308 22.3053 25.5316C22.5046 25.3323 22.7748 25.2204 23.0566 25.2204C23.3384 25.2204 23.6087 25.3323 23.8079 25.5316C24.0072 25.7308 24.1191 26.0011 24.1191 26.2829C24.1191 26.5647 24.0072 26.8349 23.8079 27.0342C23.6087 27.2334 23.3384 27.3454 23.0566 27.3454C22.7748 27.3454 22.5046 27.2334 22.3053 27.0342C22.1061 26.8349 21.9941 26.5647 21.9941 26.2829ZM24.6886 31.5954C24.3147 32.241 24.1182 32.9742 24.1191 33.7204H19.8691V39.0329C19.869 39.5614 20.0002 40.0817 20.2511 40.547C20.502 41.0122 20.8647 41.4077 21.3065 41.6979C21.7482 41.9881 22.2552 42.164 22.7818 42.2095C23.3084 42.2551 23.8381 42.169 24.3231 41.959C24.4804 42.6624 24.7269 43.3339 25.0456 43.9607C24.2391 44.2864 23.365 44.409 22.5 44.3179C21.635 44.2268 20.8056 43.9246 20.0847 43.4381C19.3638 42.9515 18.7733 42.2954 18.3652 41.5273C17.9571 40.7592 17.7439 39.9026 17.7441 39.0329V33.7204C17.7441 33.1568 17.968 32.6163 18.3665 32.2178C18.7651 31.8192 19.3056 31.5954 19.8691 31.5954H24.6886ZM40.1926 43.9607C40.9992 44.2864 41.8733 44.409 42.7383 44.3179C43.6033 44.2268 44.4326 43.9246 45.1536 43.4381C45.8745 42.9515 46.465 42.2954 46.8731 41.5273C47.2812 40.7592 47.4944 39.9026 47.4941 39.0329V33.7204C47.4941 33.1568 47.2703 32.6163 46.8717 32.2178C46.4732 31.8192 45.9327 31.5954 45.3691 31.5954H40.5496C40.9109 32.2201 41.1191 32.9447 41.1191 33.7204H45.3691V39.0329C45.3693 39.5614 45.238 40.0817 44.9871 40.547C44.7362 41.0122 44.3736 41.4077 43.9318 41.6979C43.4901 41.9881 42.9831 42.164 42.4565 42.2095C41.9299 42.2551 41.4002 42.169 40.9151 41.959C40.7558 42.6624 40.5114 43.3339 40.1926 43.9607V43.9607ZM28.3691 31.5932C27.8056 31.5932 27.2651 31.8171 26.8665 32.2156C26.468 32.6141 26.2441 33.1546 26.2441 33.7182V40.0954C26.2441 41.7861 26.9158 43.4076 28.1113 44.6032C29.3069 45.7987 30.9284 46.4704 32.6191 46.4704C34.3099 46.4704 35.9314 45.7987 37.1269 44.6032C38.3225 43.4076 38.9941 41.7861 38.9941 40.0954V33.7204C38.9941 33.1568 38.7703 32.6163 38.3717 32.2178C37.9732 31.8192 37.4327 31.5954 36.8691 31.5954H28.3691V31.5932ZM28.3691 33.7182H36.8691V40.0954C36.8691 41.2225 36.4214 42.3035 35.6243 43.1006C34.8273 43.8976 33.7463 44.3454 32.6191 44.3454C31.492 44.3454 30.411 43.8976 29.6139 43.1006C28.8169 42.3035 28.3691 41.2225 28.3691 40.0954V33.7204V33.7182Z" fill="url(#paint1_linear_232_100)"/>
<defs>
<linearGradient id="paint0_linear_232_10" x1="32.9805" y1="-3.8147e-05" x2="32.9805" y2="65.4121" gradientUnits="userSpaceOnUse">
<stop stop-color="#44D695"/>
<stop offset="1" stop-color="#185FA5"/>
</linearGradient>
<linearGradient id="paint1_linear_232_100" x1="32.6191" y1="20.9746" x2="32.6191" y2="46.4704" gradientUnits="userSpaceOnUse">
<stop stop-color="#1C69A4"/>
<stop offset="1" stop-color="#41CE96"/>
</linearGradient>
</defs>
</svg>
