<svg width="799" height="687" viewBox="0 0 799 687" fill="none" xmlns="http://www.w3.org/2000/svg">
<path fill-rule="evenodd" clip-rule="evenodd" d="M441.2 609.335C354.056 611.466 258.128 668.907 189.663 611.742C118.966 552.714 105.867 438.438 124.871 345.216C141.241 264.913 215.375 220.289 279.025 173.377C328.007 137.276 381.554 110.423 441.2 112.072C499.23 113.676 553.703 139.024 595.129 182.114C636.966 225.631 652.805 284.532 665.34 345.216C683.176 431.56 737.167 533.996 681.391 599.721C625.7 665.346 524.469 607.299 441.2 609.335Z" fill="#93B0F9" fill-opacity="0.15"/>
<g clip-path="url(#clip0_259_2075)">
<path d="M192.21 87.6758C194.458 87.6758 196.28 85.855 196.28 83.6088C196.28 81.3626 194.458 79.5417 192.21 79.5417C189.963 79.5417 188.141 81.3626 188.141 83.6088C188.141 85.855 189.963 87.6758 192.21 87.6758Z" fill="#E6E6E6"/>
<path d="M212.812 87.6758C215.06 87.6758 216.882 85.855 216.882 83.6088C216.882 81.3626 215.06 79.5417 212.812 79.5417C210.564 79.5417 208.742 81.3626 208.742 83.6088C208.742 85.855 210.564 87.6758 212.812 87.6758Z" fill="#E6E6E6"/>
<path d="M233.413 87.6758C235.661 87.6758 237.483 85.855 237.483 83.6088C237.483 81.3626 235.661 79.5417 233.413 79.5417C231.166 79.5417 229.344 81.3626 229.344 83.6088C229.344 85.855 231.166 87.6758 233.413 87.6758Z" fill="#E6E6E6"/>
<path d="M254.013 87.6758C256.261 87.6758 258.083 85.855 258.083 83.6088C258.083 81.3626 256.261 79.5417 254.013 79.5417C251.765 79.5417 249.943 81.3626 249.943 83.6088C249.943 85.855 251.765 87.6758 254.013 87.6758Z" fill="#E6E6E6"/>
<path d="M274.615 87.6758C276.862 87.6758 278.684 85.855 278.684 83.6088C278.684 81.3626 276.862 79.5417 274.615 79.5417C272.367 79.5417 270.545 81.3626 270.545 83.6088C270.545 85.855 272.367 87.6758 274.615 87.6758Z" fill="#E6E6E6"/>
<path d="M295.214 87.6758C297.462 87.6758 299.284 85.855 299.284 83.6088C299.284 81.3626 297.462 79.5417 295.214 79.5417C292.967 79.5417 291.145 81.3626 291.145 83.6088C291.145 85.855 292.967 87.6758 295.214 87.6758Z" fill="#E6E6E6"/>
<path d="M315.816 87.6758C318.063 87.6758 319.885 85.855 319.885 83.6088C319.885 81.3626 318.063 79.5417 315.816 79.5417C313.568 79.5417 311.746 81.3626 311.746 83.6088C311.746 85.855 313.568 87.6758 315.816 87.6758Z" fill="#E6E6E6"/>
<path d="M336.415 87.6758C338.663 87.6758 340.485 85.855 340.485 83.6088C340.485 81.3626 338.663 79.5417 336.415 79.5417C334.168 79.5417 332.346 81.3626 332.346 83.6088C332.346 85.855 334.168 87.6758 336.415 87.6758Z" fill="#E6E6E6"/>
<path d="M357.017 87.6758C359.265 87.6758 361.087 85.855 361.087 83.6088C361.087 81.3626 359.265 79.5417 357.017 79.5417C354.769 79.5417 352.947 81.3626 352.947 83.6088C352.947 85.855 354.769 87.6758 357.017 87.6758Z" fill="#E6E6E6"/>
<path d="M377.619 87.6758C379.866 87.6758 381.688 85.855 381.688 83.6088C381.688 81.3626 379.866 79.5417 377.619 79.5417C375.371 79.5417 373.549 81.3626 373.549 83.6088C373.549 85.855 375.371 87.6758 377.619 87.6758Z" fill="#E6E6E6"/>
<path d="M192.21 108.522C194.458 108.522 196.28 106.701 196.28 104.455C196.28 102.208 194.458 100.387 192.21 100.387C189.963 100.387 188.141 102.208 188.141 104.455C188.141 106.701 189.963 108.522 192.21 108.522Z" fill="#E6E6E6"/>
<path d="M212.812 108.522C215.06 108.522 216.882 106.701 216.882 104.455C216.882 102.208 215.06 100.387 212.812 100.387C210.564 100.387 208.742 102.208 208.742 104.455C208.742 106.701 210.564 108.522 212.812 108.522Z" fill="#E6E6E6"/>
<path d="M233.413 108.522C235.661 108.522 237.483 106.701 237.483 104.455C237.483 102.208 235.661 100.387 233.413 100.387C231.166 100.387 229.344 102.208 229.344 104.455C229.344 106.701 231.166 108.522 233.413 108.522Z" fill="#E6E6E6"/>
<path d="M254.013 108.522C256.261 108.522 258.083 106.701 258.083 104.455C258.083 102.208 256.261 100.387 254.013 100.387C251.765 100.387 249.943 102.208 249.943 104.455C249.943 106.701 251.765 108.522 254.013 108.522Z" fill="#00BFA6"/>
<path d="M274.615 108.522C276.862 108.522 278.684 106.701 278.684 104.455C278.684 102.208 276.862 100.387 274.615 100.387C272.367 100.387 270.545 102.208 270.545 104.455C270.545 106.701 272.367 108.522 274.615 108.522Z" fill="#E6E6E6"/>
<path d="M295.214 108.522C297.462 108.522 299.284 106.701 299.284 104.455C299.284 102.208 297.462 100.387 295.214 100.387C292.967 100.387 291.145 102.208 291.145 104.455C291.145 106.701 292.967 108.522 295.214 108.522Z" fill="#E6E6E6"/>
<path d="M315.816 108.522C318.063 108.522 319.885 106.701 319.885 104.455C319.885 102.208 318.063 100.387 315.816 100.387C313.568 100.387 311.746 102.208 311.746 104.455C311.746 106.701 313.568 108.522 315.816 108.522Z" fill="#E6E6E6"/>
<path d="M336.415 108.522C338.663 108.522 340.485 106.701 340.485 104.455C340.485 102.208 338.663 100.387 336.415 100.387C334.168 100.387 332.346 102.208 332.346 104.455C332.346 106.701 334.168 108.522 336.415 108.522Z" fill="#E6E6E6"/>
<path d="M357.017 108.522C359.265 108.522 361.087 106.701 361.087 104.455C361.087 102.208 359.265 100.387 357.017 100.387C354.769 100.387 352.947 102.208 352.947 104.455C352.947 106.701 354.769 108.522 357.017 108.522Z" fill="#E6E6E6"/>
<path d="M377.619 108.522C379.866 108.522 381.688 106.701 381.688 104.455C381.688 102.208 379.866 100.387 377.619 100.387C375.371 100.387 373.549 102.208 373.549 104.455C373.549 106.701 375.371 108.522 377.619 108.522Z" fill="#E6E6E6"/>
<path d="M192.21 129.368C194.458 129.368 196.28 127.547 196.28 125.3C196.28 123.054 194.458 121.233 192.21 121.233C189.963 121.233 188.141 123.054 188.141 125.3C188.141 127.547 189.963 129.368 192.21 129.368Z" fill="#E6E6E6"/>
<path d="M212.812 129.368C215.06 129.368 216.882 127.547 216.882 125.3C216.882 123.054 215.06 121.233 212.812 121.233C210.564 121.233 208.742 123.054 208.742 125.3C208.742 127.547 210.564 129.368 212.812 129.368Z" fill="#E6E6E6"/>
<path d="M233.413 129.368C235.661 129.368 237.483 127.547 237.483 125.3C237.483 123.054 235.661 121.233 233.413 121.233C231.166 121.233 229.344 123.054 229.344 125.3C229.344 127.547 231.166 129.368 233.413 129.368Z" fill="#E6E6E6"/>
<path d="M254.013 129.368C256.261 129.368 258.083 127.547 258.083 125.3C258.083 123.054 256.261 121.233 254.013 121.233C251.765 121.233 249.943 123.054 249.943 125.3C249.943 127.547 251.765 129.368 254.013 129.368Z" fill="#E6E6E6"/>
<path d="M274.615 129.368C276.862 129.368 278.684 127.547 278.684 125.3C278.684 123.054 276.862 121.233 274.615 121.233C272.367 121.233 270.545 123.054 270.545 125.3C270.545 127.547 272.367 129.368 274.615 129.368Z" fill="#E6E6E6"/>
<path d="M295.214 129.368C297.462 129.368 299.284 127.547 299.284 125.3C299.284 123.054 297.462 121.233 295.214 121.233C292.967 121.233 291.145 123.054 291.145 125.3C291.145 127.547 292.967 129.368 295.214 129.368Z" fill="#E6E6E6"/>
<path d="M315.816 129.368C318.063 129.368 319.885 127.547 319.885 125.3C319.885 123.054 318.063 121.233 315.816 121.233C313.568 121.233 311.746 123.054 311.746 125.3C311.746 127.547 313.568 129.368 315.816 129.368Z" fill="#E6E6E6"/>
<path d="M336.415 129.368C338.663 129.368 340.485 127.547 340.485 125.3C340.485 123.054 338.663 121.233 336.415 121.233C334.168 121.233 332.346 123.054 332.346 125.3C332.346 127.547 334.168 129.368 336.415 129.368Z" fill="#E6E6E6"/>
<path d="M357.017 129.368C359.265 129.368 361.087 127.547 361.087 125.3C361.087 123.054 359.265 121.233 357.017 121.233C354.769 121.233 352.947 123.054 352.947 125.3C352.947 127.547 354.769 129.368 357.017 129.368Z" fill="#E6E6E6"/>
<path d="M377.619 129.368C379.866 129.368 381.688 127.547 381.688 125.3C381.688 123.054 379.866 121.233 377.619 121.233C375.371 121.233 373.549 123.054 373.549 125.3C373.549 127.547 375.371 129.368 377.619 129.368Z" fill="#E6E6E6"/>
<path d="M192.21 150.213C194.458 150.213 196.28 148.392 196.28 146.146C196.28 143.9 194.458 142.079 192.21 142.079C189.963 142.079 188.141 143.9 188.141 146.146C188.141 148.392 189.963 150.213 192.21 150.213Z" fill="#E6E6E6"/>
<path d="M212.812 150.213C215.06 150.213 216.882 148.392 216.882 146.146C216.882 143.9 215.06 142.079 212.812 142.079C210.564 142.079 208.742 143.9 208.742 146.146C208.742 148.392 210.564 150.213 212.812 150.213Z" fill="#E6E6E6"/>
<path d="M233.413 150.213C235.661 150.213 237.483 148.392 237.483 146.146C237.483 143.9 235.661 142.079 233.413 142.079C231.166 142.079 229.344 143.9 229.344 146.146C229.344 148.392 231.166 150.213 233.413 150.213Z" fill="#E6E6E6"/>
<path d="M254.013 150.213C256.261 150.213 258.083 148.392 258.083 146.146C258.083 143.9 256.261 142.079 254.013 142.079C251.765 142.079 249.943 143.9 249.943 146.146C249.943 148.392 251.765 150.213 254.013 150.213Z" fill="#E6E6E6"/>
<path d="M274.615 150.213C276.862 150.213 278.684 148.392 278.684 146.146C278.684 143.9 276.862 142.079 274.615 142.079C272.367 142.079 270.545 143.9 270.545 146.146C270.545 148.392 272.367 150.213 274.615 150.213Z" fill="#E6E6E6"/>
<path d="M295.214 150.213C297.462 150.213 299.284 148.392 299.284 146.146C299.284 143.9 297.462 142.079 295.214 142.079C292.967 142.079 291.145 143.9 291.145 146.146C291.145 148.392 292.967 150.213 295.214 150.213Z" fill="#E6E6E6"/>
<path d="M315.816 150.213C318.063 150.213 319.885 148.392 319.885 146.146C319.885 143.9 318.063 142.079 315.816 142.079C313.568 142.079 311.746 143.9 311.746 146.146C311.746 148.392 313.568 150.213 315.816 150.213Z" fill="#E6E6E6"/>
<path d="M336.415 150.213C338.663 150.213 340.485 148.392 340.485 146.146C340.485 143.9 338.663 142.079 336.415 142.079C334.168 142.079 332.346 143.9 332.346 146.146C332.346 148.392 334.168 150.213 336.415 150.213Z" fill="#E6E6E6"/>
<path d="M357.017 150.213C359.265 150.213 361.087 148.392 361.087 146.146C361.087 143.9 359.265 142.079 357.017 142.079C354.769 142.079 352.947 143.9 352.947 146.146C352.947 148.392 354.769 150.213 357.017 150.213Z" fill="#E6E6E6"/>
<path d="M377.619 150.213C379.866 150.213 381.688 148.392 381.688 146.146C381.688 143.9 379.866 142.079 377.619 142.079C375.371 142.079 373.549 143.9 373.549 146.146C373.549 148.392 375.371 150.213 377.619 150.213Z" fill="#E6E6E6"/>
<path d="M192.21 171.059C194.458 171.059 196.28 169.238 196.28 166.992C196.28 164.746 194.458 162.925 192.21 162.925C189.963 162.925 188.141 164.746 188.141 166.992C188.141 169.238 189.963 171.059 192.21 171.059Z" fill="#E6E6E6"/>
<path d="M212.812 171.059C215.06 171.059 216.882 169.238 216.882 166.992C216.882 164.746 215.06 162.925 212.812 162.925C210.564 162.925 208.742 164.746 208.742 166.992C208.742 169.238 210.564 171.059 212.812 171.059Z" fill="#00BFA6"/>
<path d="M233.413 171.059C235.661 171.059 237.483 169.238 237.483 166.992C237.483 164.746 235.661 162.925 233.413 162.925C231.166 162.925 229.344 164.746 229.344 166.992C229.344 169.238 231.166 171.059 233.413 171.059Z" fill="#E6E6E6"/>
<path d="M254.013 171.059C256.261 171.059 258.083 169.238 258.083 166.992C258.083 164.746 256.261 162.925 254.013 162.925C251.765 162.925 249.943 164.746 249.943 166.992C249.943 169.238 251.765 171.059 254.013 171.059Z" fill="#E6E6E6"/>
<path d="M274.615 171.059C276.862 171.059 278.684 169.238 278.684 166.992C278.684 164.746 276.862 162.925 274.615 162.925C272.367 162.925 270.545 164.746 270.545 166.992C270.545 169.238 272.367 171.059 274.615 171.059Z" fill="#E6E6E6"/>
<path d="M295.214 171.059C297.462 171.059 299.284 169.238 299.284 166.992C299.284 164.746 297.462 162.925 295.214 162.925C292.967 162.925 291.145 164.746 291.145 166.992C291.145 169.238 292.967 171.059 295.214 171.059Z" fill="#E6E6E6"/>
<path d="M315.816 171.059C318.063 171.059 319.885 169.238 319.885 166.992C319.885 164.746 318.063 162.925 315.816 162.925C313.568 162.925 311.746 164.746 311.746 166.992C311.746 169.238 313.568 171.059 315.816 171.059Z" fill="#E6E6E6"/>
<path d="M336.415 171.059C338.663 171.059 340.485 169.238 340.485 166.992C340.485 164.746 338.663 162.925 336.415 162.925C334.168 162.925 332.346 164.746 332.346 166.992C332.346 169.238 334.168 171.059 336.415 171.059Z" fill="#E6E6E6"/>
<path d="M357.017 171.059C359.265 171.059 361.087 169.238 361.087 166.992C361.087 164.746 359.265 162.925 357.017 162.925C354.769 162.925 352.947 164.746 352.947 166.992C352.947 169.238 354.769 171.059 357.017 171.059Z" fill="#E6E6E6"/>
<path d="M377.619 171.059C379.866 171.059 381.688 169.238 381.688 166.992C381.688 164.746 379.866 162.925 377.619 162.925C375.371 162.925 373.549 164.746 373.549 166.992C373.549 169.238 375.371 171.059 377.619 171.059Z" fill="#E6E6E6"/>
<path d="M192.21 191.905C194.458 191.905 196.28 190.084 196.28 187.838C196.28 185.591 194.458 183.771 192.21 183.771C189.963 183.771 188.141 185.591 188.141 187.838C188.141 190.084 189.963 191.905 192.21 191.905Z" fill="#E6E6E6"/>
<path d="M212.812 191.905C215.06 191.905 216.882 190.084 216.882 187.838C216.882 185.591 215.06 183.771 212.812 183.771C210.564 183.771 208.742 185.591 208.742 187.838C208.742 190.084 210.564 191.905 212.812 191.905Z" fill="#E6E6E6"/>
<path d="M233.413 191.905C235.661 191.905 237.483 190.084 237.483 187.838C237.483 185.591 235.661 183.771 233.413 183.771C231.166 183.771 229.344 185.591 229.344 187.838C229.344 190.084 231.166 191.905 233.413 191.905Z" fill="#E6E6E6"/>
<path d="M254.013 191.905C256.261 191.905 258.083 190.084 258.083 187.838C258.083 185.591 256.261 183.771 254.013 183.771C251.765 183.771 249.943 185.591 249.943 187.838C249.943 190.084 251.765 191.905 254.013 191.905Z" fill="#E6E6E6"/>
<path d="M274.615 191.905C276.862 191.905 278.684 190.084 278.684 187.838C278.684 185.591 276.862 183.771 274.615 183.771C272.367 183.771 270.545 185.591 270.545 187.838C270.545 190.084 272.367 191.905 274.615 191.905Z" fill="#E6E6E6"/>
<path d="M295.214 191.905C297.462 191.905 299.284 190.084 299.284 187.838C299.284 185.591 297.462 183.771 295.214 183.771C292.967 183.771 291.145 185.591 291.145 187.838C291.145 190.084 292.967 191.905 295.214 191.905Z" fill="#E6E6E6"/>
<path d="M315.816 191.905C318.063 191.905 319.885 190.084 319.885 187.838C319.885 185.591 318.063 183.771 315.816 183.771C313.568 183.771 311.746 185.591 311.746 187.838C311.746 190.084 313.568 191.905 315.816 191.905Z" fill="#E6E6E6"/>
<path d="M336.415 191.905C338.663 191.905 340.485 190.084 340.485 187.838C340.485 185.591 338.663 183.771 336.415 183.771C334.168 183.771 332.346 185.591 332.346 187.838C332.346 190.084 334.168 191.905 336.415 191.905Z" fill="#E6E6E6"/>
<path d="M357.017 191.905C359.265 191.905 361.087 190.084 361.087 187.838C361.087 185.591 359.265 183.771 357.017 183.771C354.769 183.771 352.947 185.591 352.947 187.838C352.947 190.084 354.769 191.905 357.017 191.905Z" fill="#E6E6E6"/>
<path d="M377.619 191.905C379.866 191.905 381.688 190.084 381.688 187.838C381.688 185.591 379.866 183.771 377.619 183.771C375.371 183.771 373.549 185.591 373.549 187.838C373.549 190.084 375.371 191.905 377.619 191.905Z" fill="#E6E6E6"/>
<path d="M192.21 212.751C194.458 212.751 196.28 210.93 196.28 208.684C196.28 206.438 194.458 204.617 192.21 204.617C189.963 204.617 188.141 206.438 188.141 208.684C188.141 210.93 189.963 212.751 192.21 212.751Z" fill="#E6E6E6"/>
<path d="M212.812 212.751C215.06 212.751 216.882 210.93 216.882 208.684C216.882 206.438 215.06 204.617 212.812 204.617C210.564 204.617 208.742 206.438 208.742 208.684C208.742 210.93 210.564 212.751 212.812 212.751Z" fill="#E6E6E6"/>
<path d="M233.413 212.751C235.661 212.751 237.483 210.93 237.483 208.684C237.483 206.438 235.661 204.617 233.413 204.617C231.166 204.617 229.344 206.438 229.344 208.684C229.344 210.93 231.166 212.751 233.413 212.751Z" fill="#00BFA6"/>
<path d="M254.013 212.751C256.261 212.751 258.083 210.93 258.083 208.684C258.083 206.438 256.261 204.617 254.013 204.617C251.765 204.617 249.943 206.438 249.943 208.684C249.943 210.93 251.765 212.751 254.013 212.751Z" fill="#E6E6E6"/>
<path d="M274.615 212.751C276.862 212.751 278.684 210.93 278.684 208.684C278.684 206.438 276.862 204.617 274.615 204.617C272.367 204.617 270.545 206.438 270.545 208.684C270.545 210.93 272.367 212.751 274.615 212.751Z" fill="#E6E6E6"/>
<path d="M295.214 212.751C297.462 212.751 299.284 210.93 299.284 208.684C299.284 206.438 297.462 204.617 295.214 204.617C292.967 204.617 291.145 206.438 291.145 208.684C291.145 210.93 292.967 212.751 295.214 212.751Z" fill="#E6E6E6"/>
<path d="M315.816 212.751C318.063 212.751 319.885 210.93 319.885 208.684C319.885 206.438 318.063 204.617 315.816 204.617C313.568 204.617 311.746 206.438 311.746 208.684C311.746 210.93 313.568 212.751 315.816 212.751Z" fill="#E6E6E6"/>
<path d="M336.415 212.751C338.663 212.751 340.485 210.93 340.485 208.684C340.485 206.438 338.663 204.617 336.415 204.617C334.168 204.617 332.346 206.438 332.346 208.684C332.346 210.93 334.168 212.751 336.415 212.751Z" fill="#E6E6E6"/>
<path d="M357.017 212.751C359.265 212.751 361.087 210.93 361.087 208.684C361.087 206.438 359.265 204.617 357.017 204.617C354.769 204.617 352.947 206.438 352.947 208.684C352.947 210.93 354.769 212.751 357.017 212.751Z" fill="#E6E6E6"/>
<path d="M377.619 212.751C379.866 212.751 381.688 210.93 381.688 208.684C381.688 206.438 379.866 204.617 377.619 204.617C375.371 204.617 373.549 206.438 373.549 208.684C373.549 210.93 375.371 212.751 377.619 212.751Z" fill="#E6E6E6"/>
<path d="M192.21 233.596C194.458 233.596 196.28 231.775 196.28 229.529C196.28 227.283 194.458 225.462 192.21 225.462C189.963 225.462 188.141 227.283 188.141 229.529C188.141 231.775 189.963 233.596 192.21 233.596Z" fill="#E6E6E6"/>
<path d="M212.812 233.596C215.06 233.596 216.882 231.775 216.882 229.529C216.882 227.283 215.06 225.462 212.812 225.462C210.564 225.462 208.742 227.283 208.742 229.529C208.742 231.775 210.564 233.596 212.812 233.596Z" fill="#E6E6E6"/>
<path d="M233.413 233.596C235.661 233.596 237.483 231.775 237.483 229.529C237.483 227.283 235.661 225.462 233.413 225.462C231.166 225.462 229.344 227.283 229.344 229.529C229.344 231.775 231.166 233.596 233.413 233.596Z" fill="#E6E6E6"/>
<path d="M254.013 233.596C256.261 233.596 258.083 231.775 258.083 229.529C258.083 227.283 256.261 225.462 254.013 225.462C251.765 225.462 249.943 227.283 249.943 229.529C249.943 231.775 251.765 233.596 254.013 233.596Z" fill="#E6E6E6"/>
<path d="M274.615 233.596C276.862 233.596 278.684 231.775 278.684 229.529C278.684 227.283 276.862 225.462 274.615 225.462C272.367 225.462 270.545 227.283 270.545 229.529C270.545 231.775 272.367 233.596 274.615 233.596Z" fill="#E6E6E6"/>
<path d="M295.214 233.596C297.462 233.596 299.284 231.775 299.284 229.529C299.284 227.283 297.462 225.462 295.214 225.462C292.967 225.462 291.145 227.283 291.145 229.529C291.145 231.775 292.967 233.596 295.214 233.596Z" fill="#E6E6E6"/>
<path d="M315.816 233.596C318.063 233.596 319.885 231.775 319.885 229.529C319.885 227.283 318.063 225.462 315.816 225.462C313.568 225.462 311.746 227.283 311.746 229.529C311.746 231.775 313.568 233.596 315.816 233.596Z" fill="#E6E6E6"/>
<path d="M336.415 233.596C338.663 233.596 340.485 231.775 340.485 229.529C340.485 227.283 338.663 225.462 336.415 225.462C334.168 225.462 332.346 227.283 332.346 229.529C332.346 231.775 334.168 233.596 336.415 233.596Z" fill="#E6E6E6"/>
<path d="M357.017 233.596C359.265 233.596 361.087 231.775 361.087 229.529C361.087 227.283 359.265 225.462 357.017 225.462C354.769 225.462 352.947 227.283 352.947 229.529C352.947 231.775 354.769 233.596 357.017 233.596Z" fill="#E6E6E6"/>
<path d="M377.619 233.596C379.866 233.596 381.688 231.775 381.688 229.529C381.688 227.283 379.866 225.462 377.619 225.462C375.371 225.462 373.549 227.283 373.549 229.529C373.549 231.775 375.371 233.596 377.619 233.596Z" fill="#E6E6E6"/>
<path d="M192.21 254.442C194.458 254.442 196.28 252.621 196.28 250.375C196.28 248.129 194.458 246.308 192.21 246.308C189.963 246.308 188.141 248.129 188.141 250.375C188.141 252.621 189.963 254.442 192.21 254.442Z" fill="#E6E6E6"/>
<path d="M212.812 254.442C215.06 254.442 216.882 252.621 216.882 250.375C216.882 248.129 215.06 246.308 212.812 246.308C210.564 246.308 208.742 248.129 208.742 250.375C208.742 252.621 210.564 254.442 212.812 254.442Z" fill="#E6E6E6"/>
<path d="M233.413 254.442C235.661 254.442 237.483 252.621 237.483 250.375C237.483 248.129 235.661 246.308 233.413 246.308C231.166 246.308 229.344 248.129 229.344 250.375C229.344 252.621 231.166 254.442 233.413 254.442Z" fill="#E6E6E6"/>
<path d="M254.013 254.442C256.261 254.442 258.083 252.621 258.083 250.375C258.083 248.129 256.261 246.308 254.013 246.308C251.765 246.308 249.943 248.129 249.943 250.375C249.943 252.621 251.765 254.442 254.013 254.442Z" fill="#E6E6E6"/>
<path d="M274.615 254.442C276.862 254.442 278.684 252.621 278.684 250.375C278.684 248.129 276.862 246.308 274.615 246.308C272.367 246.308 270.545 248.129 270.545 250.375C270.545 252.621 272.367 254.442 274.615 254.442Z" fill="#E6E6E6"/>
<path d="M295.214 254.442C297.462 254.442 299.284 252.621 299.284 250.375C299.284 248.129 297.462 246.308 295.214 246.308C292.967 246.308 291.145 248.129 291.145 250.375C291.145 252.621 292.967 254.442 295.214 254.442Z" fill="#E6E6E6"/>
<path d="M315.816 254.442C318.063 254.442 319.885 252.621 319.885 250.375C319.885 248.129 318.063 246.308 315.816 246.308C313.568 246.308 311.746 248.129 311.746 250.375C311.746 252.621 313.568 254.442 315.816 254.442Z" fill="#E6E6E6"/>
<path d="M336.415 254.442C338.663 254.442 340.485 252.621 340.485 250.375C340.485 248.129 338.663 246.308 336.415 246.308C334.168 246.308 332.346 248.129 332.346 250.375C332.346 252.621 334.168 254.442 336.415 254.442Z" fill="#E6E6E6"/>
<path d="M357.017 254.442C359.265 254.442 361.087 252.621 361.087 250.375C361.087 248.129 359.265 246.308 357.017 246.308C354.769 246.308 352.947 248.129 352.947 250.375C352.947 252.621 354.769 254.442 357.017 254.442Z" fill="#E6E6E6"/>
<path d="M377.619 254.442C379.866 254.442 381.688 252.621 381.688 250.375C381.688 248.129 379.866 246.308 377.619 246.308C375.371 246.308 373.549 248.129 373.549 250.375C373.549 252.621 375.371 254.442 377.619 254.442Z" fill="#E6E6E6"/>
<path d="M192.21 275.288C194.458 275.288 196.28 273.467 196.28 271.221C196.28 268.975 194.458 267.154 192.21 267.154C189.963 267.154 188.141 268.975 188.141 271.221C188.141 273.467 189.963 275.288 192.21 275.288Z" fill="#E6E6E6"/>
<path d="M212.812 275.288C215.06 275.288 216.882 273.467 216.882 271.221C216.882 268.975 215.06 267.154 212.812 267.154C210.564 267.154 208.742 268.975 208.742 271.221C208.742 273.467 210.564 275.288 212.812 275.288Z" fill="#E6E6E6"/>
<path d="M233.413 275.288C235.661 275.288 237.483 273.467 237.483 271.221C237.483 268.975 235.661 267.154 233.413 267.154C231.166 267.154 229.344 268.975 229.344 271.221C229.344 273.467 231.166 275.288 233.413 275.288Z" fill="#E6E6E6"/>
<path d="M254.013 275.288C256.261 275.288 258.083 273.467 258.083 271.221C258.083 268.975 256.261 267.154 254.013 267.154C251.765 267.154 249.943 268.975 249.943 271.221C249.943 273.467 251.765 275.288 254.013 275.288Z" fill="#E6E6E6"/>
<path d="M274.615 275.288C276.862 275.288 278.684 273.467 278.684 271.221C278.684 268.975 276.862 267.154 274.615 267.154C272.367 267.154 270.545 268.975 270.545 271.221C270.545 273.467 272.367 275.288 274.615 275.288Z" fill="#E6E6E6"/>
<path d="M295.214 275.288C297.462 275.288 299.284 273.467 299.284 271.221C299.284 268.975 297.462 267.154 295.214 267.154C292.967 267.154 291.145 268.975 291.145 271.221C291.145 273.467 292.967 275.288 295.214 275.288Z" fill="#E6E6E6"/>
<path d="M315.816 275.288C318.063 275.288 319.885 273.467 319.885 271.221C319.885 268.975 318.063 267.154 315.816 267.154C313.568 267.154 311.746 268.975 311.746 271.221C311.746 273.467 313.568 275.288 315.816 275.288Z" fill="#E6E6E6"/>
<path d="M336.415 275.288C338.663 275.288 340.485 273.467 340.485 271.221C340.485 268.975 338.663 267.154 336.415 267.154C334.168 267.154 332.346 268.975 332.346 271.221C332.346 273.467 334.168 275.288 336.415 275.288Z" fill="#E6E6E6"/>
<path d="M357.017 275.288C359.265 275.288 361.087 273.467 361.087 271.221C361.087 268.975 359.265 267.154 357.017 267.154C354.769 267.154 352.947 268.975 352.947 271.221C352.947 273.467 354.769 275.288 357.017 275.288Z" fill="#E6E6E6"/>
<path d="M377.619 275.288C379.866 275.288 381.688 273.467 381.688 271.221C381.688 268.975 379.866 267.154 377.619 267.154C375.371 267.154 373.549 268.975 373.549 271.221C373.549 273.467 375.371 275.288 377.619 275.288Z" fill="#E6E6E6"/>
<path d="M427.308 115.889C428.672 115.889 429.981 116.431 430.946 117.395C431.911 118.359 432.453 119.667 432.453 121.031V326.707C432.453 327.382 432.32 328.051 432.061 328.675C431.803 329.299 431.424 329.865 430.946 330.343C430.468 330.82 429.901 331.199 429.277 331.457C428.653 331.716 427.983 331.849 427.308 331.849H279.639C278.964 331.849 278.295 331.716 277.67 331.457C277.046 331.199 276.479 330.82 276.001 330.343C275.523 329.865 275.144 329.299 274.886 328.675C274.627 328.051 274.494 327.382 274.494 326.707V121.031C274.494 119.667 275.036 118.359 276.001 117.395C276.966 116.431 278.275 115.889 279.639 115.889H427.308" fill="#E6E6E6"/>
<path d="M280.238 326.108H426.709V121.629H280.238V326.108Z" fill="white"/>
<path d="M394.121 153.98C394.256 153.98 394.39 154.007 394.514 154.059C394.639 154.11 394.753 154.186 394.848 154.282C394.944 154.377 395.02 154.491 395.071 154.615C395.123 154.74 395.15 154.874 395.15 155.009V157.066C395.15 157.338 395.041 157.6 394.848 157.793C394.655 157.986 394.394 158.094 394.121 158.094H312.826C312.691 158.094 312.557 158.067 312.432 158.016C312.307 157.964 312.194 157.888 312.098 157.793C312.003 157.697 311.927 157.584 311.875 157.459C311.824 157.334 311.797 157.201 311.797 157.066V155.009C311.797 154.874 311.823 154.74 311.875 154.615C311.927 154.491 312.003 154.377 312.098 154.282C312.194 154.186 312.307 154.11 312.432 154.059C312.557 154.007 312.691 153.98 312.826 153.98H394.121" fill="#E6E6E6"/>
<path d="M394.121 163.75C394.394 163.75 394.655 163.858 394.848 164.051C395.041 164.244 395.15 164.506 395.15 164.778V166.835C395.15 167.108 395.041 167.369 394.848 167.562C394.655 167.755 394.394 167.864 394.121 167.864H312.826C312.691 167.864 312.557 167.837 312.432 167.785C312.307 167.734 312.194 167.658 312.098 167.562C312.003 167.467 311.927 167.353 311.875 167.229C311.824 167.104 311.797 166.97 311.797 166.835V164.778C311.797 164.643 311.824 164.51 311.875 164.385C311.927 164.26 312.003 164.147 312.098 164.051C312.194 163.956 312.307 163.88 312.432 163.828C312.557 163.777 312.691 163.75 312.826 163.75H394.121" fill="#E6E6E6"/>
<path d="M394.121 173.52C394.394 173.52 394.655 173.628 394.848 173.821C395.041 174.014 395.15 174.275 395.15 174.548V176.605C395.15 176.877 395.041 177.139 394.848 177.332C394.655 177.525 394.394 177.633 394.121 177.633H312.826C312.553 177.633 312.291 177.525 312.098 177.332C311.905 177.139 311.797 176.877 311.797 176.605V174.548C311.797 174.275 311.905 174.014 312.098 173.821C312.291 173.628 312.553 173.52 312.826 173.52H394.121" fill="#00BFA6"/>
<path d="M394.121 183.503C394.394 183.503 394.655 183.611 394.848 183.804C395.041 183.997 395.15 184.259 395.15 184.531V186.588C395.15 186.861 395.041 187.122 394.848 187.315C394.655 187.508 394.394 187.616 394.121 187.616H312.826C312.691 187.616 312.557 187.59 312.432 187.538C312.307 187.486 312.194 187.411 312.098 187.315C312.003 187.22 311.927 187.106 311.875 186.982C311.824 186.857 311.797 186.723 311.797 186.588V184.531C311.797 184.396 311.824 184.263 311.875 184.138C311.927 184.013 312.003 183.9 312.098 183.804C312.194 183.709 312.307 183.633 312.432 183.581C312.557 183.53 312.691 183.503 312.826 183.503H394.121" fill="#E6E6E6"/>
<path d="M394.121 193.272C394.394 193.272 394.655 193.381 394.848 193.574C395.041 193.767 395.15 194.028 395.15 194.301V196.358C395.15 196.493 395.123 196.626 395.071 196.751C395.02 196.876 394.944 196.989 394.848 197.085C394.753 197.18 394.639 197.256 394.514 197.308C394.39 197.359 394.256 197.386 394.121 197.386H312.826C312.691 197.386 312.557 197.359 312.432 197.308C312.307 197.256 312.194 197.18 312.098 197.085C312.003 196.989 311.927 196.876 311.875 196.751C311.823 196.626 311.797 196.493 311.797 196.358V194.301C311.797 194.166 311.824 194.032 311.875 193.907C311.927 193.783 312.003 193.669 312.098 193.574C312.194 193.478 312.307 193.402 312.432 193.351C312.557 193.299 312.691 193.272 312.826 193.272H394.121" fill="#E6E6E6"/>
<path d="M394.121 203.042C394.394 203.042 394.655 203.15 394.848 203.343C395.041 203.536 395.15 203.798 395.15 204.07V206.127C395.15 206.4 395.041 206.661 394.848 206.854C394.655 207.047 394.394 207.156 394.121 207.156H312.826C312.553 207.156 312.291 207.047 312.098 206.854C311.905 206.661 311.797 206.4 311.797 206.127V204.07C311.797 203.798 311.905 203.536 312.098 203.343C312.291 203.15 312.553 203.042 312.826 203.042H394.121" fill="#E6E6E6"/>
<path d="M313.345 235.906C313.028 235.907 312.725 236.032 312.501 236.256C312.277 236.48 312.151 236.784 312.15 237.1V292.564C312.151 292.88 312.277 293.184 312.501 293.407C312.725 293.631 313.028 293.757 313.345 293.757H393.463C393.78 293.757 394.083 293.631 394.307 293.407C394.531 293.184 394.657 292.88 394.658 292.564V237.1C394.657 236.784 394.531 236.48 394.307 236.256C394.083 236.032 393.78 235.907 393.463 235.906H313.345Z" fill="#00BFA6"/>
</g>
<path d="M549.931 459.935H364.949C349.4 459.935 336.75 447.276 336.75 431.715V246.596C336.75 231.036 349.4 218.376 364.949 218.376H549.931C565.48 218.376 578.129 231.036 578.129 246.596V431.715C578.129 447.276 565.48 459.935 549.931 459.935V459.935ZM364.949 222.892C351.867 222.892 341.262 233.504 341.262 246.596V431.715C341.262 444.807 351.867 455.42 364.949 455.42H494.524C538.206 455.42 573.618 419.982 573.618 376.268V246.596C573.618 233.504 563.013 222.892 549.931 222.892H364.949V222.892Z" fill="#F2F2F2"/>
<path d="M384.891 242.142C376.136 242.142 369.014 249.27 369.014 258.031V282.901C369.014 291.663 376.136 298.79 384.891 298.79H409.743C418.498 298.79 425.62 291.663 425.62 282.901V258.031C425.62 249.27 418.498 242.142 409.743 242.142H384.891Z" fill="#F2F2F2"/>
<path d="M384.891 312.154C376.136 312.154 369.014 319.282 369.014 328.043V352.913C369.014 361.675 376.136 368.803 384.891 368.803H409.743C418.498 368.803 425.62 361.675 425.62 352.913V328.043C425.62 319.282 418.498 312.154 409.743 312.154H384.891V312.154Z" fill="#F2F2F2"/>
<path d="M384.891 382.167C376.136 382.167 369.014 389.294 369.014 398.056V422.926C369.014 431.687 376.136 438.815 384.891 438.815H409.743C418.498 438.815 425.62 431.687 425.62 422.926V398.056C425.62 389.294 418.498 382.167 409.743 382.167H384.891Z" fill="#F2F2F2"/>
<path d="M401.369 181.465C390.338 181.465 381.363 190.446 381.363 201.486V232.822C381.363 243.862 390.338 252.843 401.369 252.843H432.683C443.715 252.843 452.689 243.862 452.689 232.822V201.486C452.689 190.446 443.715 181.465 432.683 181.465H401.369V181.465Z" fill="#00BFA6"/>
<path d="M504.463 269.039C493.431 269.039 484.457 278.02 484.457 289.059V320.396C484.457 331.436 493.431 340.417 504.463 340.417H535.777C546.808 340.417 555.783 331.436 555.783 320.396V289.059C555.783 278.02 546.808 269.039 535.777 269.039H504.463Z" fill="#00BFA6"/>
<path d="M459.642 584.457L453.281 584.403L450.465 559.275L459.854 559.355L459.642 584.457Z" fill="#A0616A"/>
<path d="M439.266 594.58C439.252 596.147 440.514 597.437 442.085 597.451L454.734 597.557L456.948 593.065L457.761 597.58L462.533 597.623L461.328 581.522L459.668 581.411L452.895 580.944L450.711 580.797L450.672 585.353L440.512 592.249C439.739 592.775 439.273 593.646 439.266 594.58H439.266Z" fill="#2F5675"/>
<path d="M492.009 584.457L485.648 584.403L482.832 559.275L492.221 559.355L492.009 584.457Z" fill="#A0616A"/>
<path d="M471.633 594.58C471.619 596.147 472.881 597.437 474.453 597.451L487.101 597.557L489.315 593.065L490.128 597.58L494.901 597.623L493.695 581.522L492.035 581.411L485.263 580.944L483.078 580.797L483.039 585.353L472.879 592.249C472.106 592.775 471.641 593.646 471.633 594.58V594.58Z" fill="#2F5675"/>
<path d="M434.681 381.3L460.467 382.115L484.895 387.548C484.895 387.548 482.452 390.536 490.595 398.685C490.595 398.685 501.453 417.699 493.853 436.17L490.595 510.054C490.595 510.054 500.092 562.137 492.836 578.713L483.246 579.313L467.019 510.655L459.109 436.713L455.309 509.511C455.309 509.511 469.847 559.477 460.667 579.313L450.281 578.713L432.509 509.511C432.509 509.511 424.909 429.651 425.995 414.439C427.081 399.228 434.681 381.3 434.681 381.3H434.681Z" fill="#00BFA6"/>
<path d="M521.274 264.552C517.749 265.465 515.631 269.066 516.544 272.593C516.962 274.21 517.948 275.525 519.228 276.393L519.228 276.402L518.728 288.524L527.997 292.816L528.737 274.164L528.672 274.166C529.476 272.733 529.753 271.002 529.309 269.285C528.397 265.758 524.799 263.639 521.274 264.552V264.552Z" fill="#A0616A"/>
<path d="M469.47 307.813C467.523 305.881 466.393 303.262 466.351 300.415C466.294 296.595 468.207 293.127 471.468 291.14C475.223 288.851 479.919 289.083 483.431 291.729L512.537 313.66L517.723 282.067L528.858 285.654L526.201 326.793C526.015 329.671 524.39 332.206 521.854 333.574C519.317 334.943 516.308 334.908 513.804 333.483L471.741 309.534C470.896 309.052 470.135 308.472 469.47 307.812V307.813Z" fill="#1B67A5"/>
<path d="M425.089 246.88C426.949 250.013 425.92 254.061 422.79 255.923C421.356 256.777 419.731 257.016 418.211 256.731L418.205 256.738L410.032 265.698L400.43 262.216L413.027 248.448L413.071 248.495C413.509 246.911 414.529 245.486 416.052 244.58C419.182 242.718 423.228 243.748 425.089 246.88V246.88Z" fill="#A0616A"/>
<path d="M428.619 313.724L381.899 301.094C379.118 300.342 376.956 298.246 376.118 295.487C375.28 292.728 375.909 289.783 377.801 287.609L404.858 256.522L415.288 261.82L396.744 287.91L432.843 292.843C437.199 293.439 440.697 296.583 441.753 300.854C442.671 304.563 441.59 308.373 438.862 311.045C436.829 313.038 434.184 314.102 431.443 314.101C430.506 314.101 429.557 313.977 428.619 313.724H428.619Z" fill="#1B67A5"/>
<path d="M495.226 392.17L429.894 395.169C428.1 392.442 428.586 388.342 431.098 383.208C440.586 363.821 433.381 327.147 428.533 308.05C427.173 302.692 430.824 297.365 436.321 296.815L442.481 296.199L448.175 278.804H468.117L476.39 288.263L490.431 296.799C487.875 323.143 476.986 360.342 492.499 378.998C495.892 383.078 496.854 387.49 495.226 392.17V392.17Z" fill="#1B67A5"/>
<path d="M455.61 279.206C466.338 279.206 475.034 270.503 475.034 259.767C475.034 249.032 466.338 240.329 455.61 240.329C444.882 240.329 436.186 249.032 436.186 259.767C436.186 270.503 444.882 279.206 455.61 279.206Z" fill="#A0616A"/>
<path d="M477.59 247.325C480.292 237.464 450.838 229.009 445.114 236.949C444.318 235.82 441.377 235.135 440.027 235.481C438.677 235.827 437.542 236.693 436.435 237.531C434.912 238.702 433.334 239.914 432.4 241.597C431.459 243.273 431.314 245.558 432.58 247.013C433.584 248.169 435.347 254.316 436.856 254.621C437.908 254.835 438.794 255.008 439.555 255.133C440.233 254.143 441.963 252.899 441.838 251.7C442.863 252.379 442.488 253.573 442.282 254.794C441.594 258.858 426.101 290.318 434.975 281.048C435.854 281.567 436.94 282.052 438.193 282.495C440.318 279.288 442.062 275.507 443.211 271.552L443.219 271.625C443.614 275.062 446.124 277.882 449.445 278.844C462.764 282.706 473.539 277.04 477.245 266.821C475.888 264.064 475.297 264.364 475.419 264.282C477.112 263.14 479.44 263.887 480.168 265.796C480.383 266.36 480.578 266.84 480.747 267.202C482.678 260.29 484.975 261.287 477.59 247.325H477.59Z" fill="#494949"/>
<path d="M468.401 240.17L467.04 233.209C466.926 232.624 466.818 231.989 467.081 231.454C467.42 230.767 468.291 230.483 469.048 230.592C469.806 230.702 470.373 231.394 471.127 231.528C473.748 231.991 477.212 229.401 478.151 235.955C478.543 238.687 482.9 238.976 484.355 241.321C485.81 243.666 485.989 247.051 484.003 248.967C482.417 250.498 479.87 250.674 477.81 249.893C475.75 249.111 474.096 247.532 472.652 245.867C471.208 244.202 469.901 242.4 468.235 240.957" fill="#494949"/>
<path d="M478.628 250.758C473.313 250.015 469.69 248.081 467.86 245.009C465.465 240.988 467.07 236.561 467.139 236.374L468.262 236.792C468.247 236.833 466.792 240.886 468.896 244.405C470.533 247.143 473.863 248.881 478.794 249.57L478.628 250.758V250.758Z" fill="#00BFA6"/>
<path d="M503.57 175.543C487.945 175.543 475.23 162.819 475.23 147.182C475.23 131.545 487.945 118.822 503.57 118.822C519.196 118.822 531.91 131.545 531.91 147.182C531.91 162.819 519.196 175.543 503.57 175.543ZM503.57 130.166C494.194 130.166 486.566 137.799 486.566 147.182C486.566 156.566 494.194 164.199 503.57 164.199C512.947 164.199 520.574 156.566 520.574 147.182C520.574 137.799 512.947 130.166 503.57 130.166V130.166Z" fill="#00BFA6"/>
<path d="M547.173 194.816C545.784 194.816 544.392 194.309 543.299 193.282L516.7 168.336C514.414 166.195 514.298 162.606 516.44 160.321C518.576 158.028 522.163 157.914 524.449 160.061L551.048 185.006C553.334 187.147 553.45 190.737 551.308 193.022C550.193 194.215 548.684 194.816 547.173 194.816V194.816Z" fill="#00BFA6"/>
<path d="M264.691 583.82C266.618 583.941 267.683 581.544 266.225 580.148L266.08 579.571C266.099 579.525 266.118 579.479 266.138 579.432C268.087 574.782 274.691 574.814 276.624 579.471C278.339 583.605 280.522 587.746 281.06 592.116C281.301 594.046 281.193 596.011 280.765 597.905C284.783 589.12 286.898 579.527 286.898 569.88C286.898 567.456 286.765 565.033 286.494 562.615C286.271 560.637 285.964 558.672 285.567 556.724C283.416 546.197 278.758 536.17 272.041 527.796C268.811 526.029 266.118 523.268 264.492 519.958C263.907 518.764 263.449 517.479 263.232 516.171C263.6 516.219 264.618 510.618 264.341 510.274C264.853 509.497 265.77 509.11 266.329 508.351C269.111 504.577 272.944 505.236 274.945 510.365C279.219 512.524 279.26 516.104 276.638 519.548C274.969 521.738 274.74 524.703 273.276 527.048C273.426 527.241 273.583 527.428 273.734 527.621C276.496 531.166 278.885 534.977 280.899 538.98C280.329 534.531 281.17 529.171 282.602 525.716C284.233 521.779 287.29 518.463 289.981 515.06C293.214 510.972 299.844 512.756 300.414 517.938C300.419 517.988 300.425 518.038 300.43 518.088C300.03 518.314 299.638 518.554 299.256 518.807C297.074 520.251 297.828 523.637 300.414 524.036L300.472 524.045C300.327 525.486 300.08 526.915 299.719 528.32C303.172 541.684 295.717 546.551 285.073 546.77C284.838 546.89 284.609 547.011 284.374 547.126C285.452 550.164 286.314 553.282 286.952 556.441C287.525 559.232 287.922 562.054 288.145 564.888C288.422 568.463 288.398 572.057 288.097 575.626L288.115 575.5C288.88 571.569 291.013 567.897 294.11 565.352C298.723 561.56 305.241 560.163 310.218 557.115C312.613 555.647 315.683 557.544 315.265 560.323L315.245 560.456C314.504 560.758 313.781 561.108 313.082 561.5C312.682 561.725 312.291 561.965 311.908 562.218C309.726 563.663 310.48 567.048 313.066 567.447L313.124 567.456C313.166 567.463 313.203 567.469 313.245 567.475C311.973 570.495 310.202 573.299 307.985 575.717C305.826 587.383 296.553 588.49 286.633 585.092H286.627C285.542 589.819 283.958 594.438 281.921 598.839H265.112C265.052 598.652 264.998 598.459 264.943 598.272C266.498 598.369 268.064 598.278 269.595 597.995C268.348 596.464 267.1 594.92 265.853 593.389C265.823 593.358 265.799 593.328 265.775 593.298C265.142 592.514 264.504 591.737 263.871 590.953L263.871 590.952C263.831 588.546 264.12 586.147 264.691 583.82Z" fill="#F2F2F2"/>
<path d="M202.336 598.889C202.336 599.505 202.83 600 203.446 600H716.759C717.374 600 717.869 599.505 717.869 598.889C717.869 598.273 717.374 597.778 716.759 597.778H203.446C202.83 597.778 202.336 598.273 202.336 598.889Z" fill="#CCCCCC"/>
<path d="M624.101 572.293H616.205L617.615 528.594L638.484 529.721L624.101 572.293Z" fill="#FFB8B8"/>
<path d="M625.177 597.406C622.794 598.493 620.798 589.683 618.787 591.658C613.164 597.183 607.354 598.386 599.848 595.974L599.674 595.944C599.221 595.799 598.802 595.563 598.443 595.251C598.084 594.939 597.792 594.557 597.585 594.129C597.378 593.701 597.26 593.235 597.238 592.76C597.216 592.285 597.291 591.81 597.458 591.365C597.658 590.832 597.985 590.355 598.409 589.977C598.834 589.598 599.345 589.327 599.897 589.189L605.877 587.695L615.268 571.185L624.853 570.538C626.991 573.262 628.482 576.435 629.216 579.818C629.949 583.201 629.906 586.706 629.089 590.07C628.219 593.62 626.876 596.631 625.177 597.406Z" fill="#00BFA6"/>
<path d="M699.117 566.516L691.774 569.42L677.008 528.265L696.829 521.641L699.117 566.516Z" fill="#FFB8B8"/>
<path d="M709.359 589.473C707.542 591.361 702.445 583.902 701.302 586.478C698.105 593.683 693.145 596.938 685.278 597.455L685.105 597.492C684.63 597.523 684.154 597.458 683.706 597.3C683.257 597.141 682.845 596.894 682.495 596.572C682.145 596.25 681.864 595.86 681.668 595.426C681.473 594.993 681.368 594.524 681.36 594.048C681.35 593.479 681.478 592.916 681.734 592.407C681.989 591.899 682.365 591.46 682.827 591.128L687.839 587.54L690.497 568.735L699.173 564.608C702.162 566.355 704.716 568.757 706.643 571.633C708.57 574.509 709.819 577.785 710.297 581.213C710.794 584.834 710.653 588.128 709.359 589.473Z" fill="#00BFA6"/>
<path d="M675.147 355.508L663.024 358.625C662.107 358.861 661.148 358.888 660.219 358.705C659.29 358.522 658.413 358.134 657.653 357.568C656.894 357.002 656.271 356.274 655.83 355.436C655.389 354.598 655.141 353.672 655.104 352.726C655.071 351.856 655.217 350.988 655.533 350.177C655.85 349.366 656.33 348.628 656.944 348.011C657.558 347.393 658.292 346.909 659.102 346.587C659.911 346.266 660.778 346.114 661.649 346.142L672.327 346.487L692.903 338.996L673.455 324.496L675.711 304.198L713.612 334.618C714.288 335.16 714.845 335.836 715.247 336.604C715.65 337.371 715.889 338.213 715.951 339.078V339.078C716.055 340.53 715.651 341.974 714.81 343.163C713.968 344.352 712.74 345.212 711.334 345.597C702.454 352.842 689.515 355.061 675.147 355.508Z" fill="#FFB8B8"/>
<path d="M647.51 279.388C658.412 279.388 667.25 270.553 667.25 259.653C667.25 248.754 658.412 239.918 647.51 239.918C636.608 239.918 627.77 248.754 627.77 259.653C627.77 270.553 636.608 279.388 647.51 279.388Z" fill="#FFB8B8"/>
<path d="M671.763 286.718L645.255 297.431C646.033 289.054 643.837 280.67 639.051 273.749L661.047 268.675C660.761 275.391 664.394 281.394 671.763 286.718Z" fill="#FFB8B8"/>
<path d="M676.556 332.672C655.188 334.382 643.499 331.545 625.514 321.113L632.282 305.325C631.942 302.948 632.265 300.523 633.214 298.318C634.163 296.112 635.702 294.21 637.662 292.822L644.69 287.846L666.122 281.644L667.083 281.692C669.934 281.834 672.636 283.011 674.681 285.002C676.726 286.992 677.976 289.66 678.195 292.506C682.851 306.417 682.881 319.863 676.556 332.672Z" fill="#1B67A5"/>
<path d="M672.326 365.658L626.641 360.583L623.257 345.923C615.756 334.603 619.03 324.234 627.769 314.347C643.699 324.568 658.485 328.984 679.658 325.624C674.027 339.314 668.827 352.769 672.326 365.658Z" fill="#1B67A5"/>
<path d="M707.857 536.506L671.479 534.532L659.635 440.369L650.047 533.969L606.9 531.995C620.062 470.462 629.205 412.046 626.641 358.328L671.761 362.275C687.053 378.394 694.646 404.125 699.115 434.73C703.585 465.335 707.187 500.815 707.857 536.506Z" fill="#2F5675"/>
<path d="M669.24 241.688C672.988 241.688 676.025 238.651 676.025 234.904C676.025 231.158 672.988 228.121 669.24 228.121C665.493 228.121 662.455 231.158 662.455 234.904C662.455 238.651 665.493 241.688 669.24 241.688Z" fill="#00BFA6"/>
<path d="M662.249 233.244C662.361 231.523 663.124 229.909 664.384 228.731C665.644 227.553 667.306 226.9 669.031 226.904C668.891 226.886 668.752 226.864 668.609 226.855C666.813 226.74 665.045 227.342 663.694 228.53C662.342 229.718 661.518 231.394 661.403 233.189C661.287 234.985 661.89 236.752 663.078 238.104C664.266 239.455 665.943 240.279 667.738 240.394C667.881 240.403 668.022 240.4 668.163 240.4C666.452 240.183 664.887 239.322 663.788 237.993C662.69 236.663 662.139 234.965 662.249 233.244V233.244Z" fill="#2F2E41"/>
<path d="M662.211 236.14C656.16 231.122 638.803 237.5 637.683 240.874C629.5 241.989 623.305 246.762 623.305 255.249V255.249C628.17 257.242 633.703 256.996 639.684 255.249C649.219 263.017 649.872 272.782 644.074 283.999L651.208 284.141L660.05 271.221L660.473 284.326L676.825 283.999V265.218C676.878 258.973 675.44 252.806 672.631 247.228C670.083 242.279 666.129 239.389 662.211 236.14Z" fill="#00BFA6"/>
<path d="M646.983 269.322C648.775 269.322 650.228 267.289 650.228 264.781C650.228 262.272 648.775 260.239 646.983 260.239C645.191 260.239 643.738 262.272 643.738 264.781C643.738 267.289 645.191 269.322 646.983 269.322Z" fill="#FFB8B8"/>
<path d="M622.164 438.946C622.466 438.946 622.756 439.066 622.97 439.28C623.183 439.494 623.303 439.783 623.303 440.085V485.649C623.303 485.951 623.183 486.24 622.97 486.454C622.756 486.668 622.466 486.788 622.164 486.788H589.464C589.161 486.788 588.872 486.668 588.658 486.454C588.444 486.24 588.324 485.951 588.324 485.649V440.085C588.324 439.783 588.444 439.494 588.658 439.28C588.872 439.066 589.161 438.946 589.464 438.946H622.164" fill="#00BFA6"/>
<path d="M626.64 422.043L627.745 441.179C627.816 442.411 627.612 443.643 627.147 444.787C626.682 445.93 625.969 446.955 625.058 447.788C624.148 448.621 623.063 449.241 621.884 449.603C620.704 449.965 619.458 450.059 618.237 449.88C613.374 449.165 613.263 444.41 614.455 439.643L618.997 421.48C630.14 381.54 633.148 342.338 632.584 304.105C632.561 302.808 632.801 301.52 633.29 300.319C633.778 299.118 634.505 298.028 635.427 297.115C636.348 296.203 637.445 295.486 638.651 295.009C639.857 294.532 641.148 294.304 642.444 294.339C643.709 294.376 644.954 294.662 646.108 295.182C647.262 295.701 648.301 296.444 649.167 297.367C650.033 298.29 650.707 299.374 651.152 300.559C651.596 301.743 651.802 303.004 651.757 304.268C650.18 349.164 643.63 389.934 626.64 422.043Z" fill="#FFB8B8"/>
<defs>
<clipPath id="clip0_259_2075">
<rect width="250.465" height="267.103" fill="white" transform="translate(172.869 79.5417)"/>
</clipPath>
</defs>
</svg>
