<svg width="71" height="69" viewBox="0 0 71 69" fill="none" xmlns="http://www.w3.org/2000/svg">
<ellipse cx="34.8056" cy="33.6823" rx="34.8057" ry="33.6824" transform="rotate(-180 34.8056 33.6823)" fill="url(#paint0_linear_247_1104)"/>
<path d="M51.022 17.1276L68.4249 41.9612C65.4775 57.3752 47.7774 67.366 36.8637 67.366L18.6981 48.7683L34.5144 38.5397L27.5222 32.8257L51.022 17.1276Z" fill="#767676" fill-opacity="0.32"/>
<rect x="17.0986" y="15.9824" width="35.9856" height="35.966" rx="8" fill="white"/>
<path d="M35.3867 15.9844H45.0846C49.5028 15.9844 53.0846 19.5661 53.0846 23.9844V43.9504C53.0846 48.3686 49.5028 51.9504 45.0846 51.9504H35.3867V15.9844Z" fill="#494949" fill-opacity="0.09"/>
<g clip-path="url(#clip0_247_1104)">
<path d="M32.9688 32.8125C32.745 32.8125 32.5304 32.9014 32.3721 33.0596C32.2139 33.2179 32.125 33.4325 32.125 33.6563C32.125 33.88 32.2139 34.0946 32.3721 34.2529C32.5304 34.4111 32.745 34.5 32.9688 34.5H39.7188C39.9425 34.5 40.1571 34.4111 40.3154 34.2529C40.4736 34.0946 40.5625 33.88 40.5625 33.6563C40.5625 33.4325 40.4736 33.2179 40.3154 33.0596C40.1571 32.9014 39.9425 32.8125 39.7188 32.8125H32.9688Z" fill="url(#paint1_linear_247_1104)"/>
<path d="M22.8438 22.6875C22.62 22.6875 22.4054 22.7764 22.2471 22.9346C22.0889 23.0929 22 23.3075 22 23.5313C22 23.755 22.0889 23.9696 22.2471 24.1279C22.4054 24.2861 22.62 24.375 22.8438 24.375H24.7169L25.3936 27.0868L27.9214 40.5615C27.9576 40.7549 28.0602 40.9295 28.2115 41.0552C28.3628 41.1809 28.5533 41.2498 28.75 41.25H30.4375C29.5424 41.25 28.6839 41.6056 28.051 42.2385C27.4181 42.8715 27.0625 43.7299 27.0625 44.625C27.0625 45.5201 27.4181 46.3786 28.051 47.0115C28.6839 47.6444 29.5424 48 30.4375 48C31.3326 48 32.1911 47.6444 32.824 47.0115C33.4569 46.3786 33.8125 45.5201 33.8125 44.625C33.8125 43.7299 33.4569 42.8715 32.824 42.2385C32.1911 41.6056 31.3326 41.25 30.4375 41.25H42.25C41.3549 41.25 40.4965 41.6056 39.8635 42.2385C39.2306 42.8715 38.875 43.7299 38.875 44.625C38.875 45.5201 39.2306 46.3786 39.8635 47.0115C40.4965 47.6444 41.3549 48 42.25 48C43.1451 48 44.0036 47.6444 44.6365 47.0115C45.2694 46.3786 45.625 45.5201 45.625 44.625C45.625 43.7299 45.2694 42.8715 44.6365 42.2385C44.0036 41.6056 43.1451 41.25 42.25 41.25H43.9375C44.1342 41.2498 44.3247 41.1809 44.476 41.0552C44.6273 40.9295 44.7299 40.7549 44.7661 40.5615L47.2973 27.0615C47.3201 26.9397 47.3158 26.8144 47.2847 26.6945C47.2536 26.5746 47.1965 26.463 47.1174 26.3676C47.0383 26.2722 46.9392 26.1955 46.8271 26.1427C46.715 26.09 46.5926 26.0626 46.4688 26.0625H26.8769L26.1934 23.3271C26.1479 23.1444 26.0426 22.9823 25.8943 22.8664C25.746 22.7505 25.5632 22.6876 25.375 22.6875H22.8438ZM29.4503 39.5625L27.2346 27.75H45.4529L43.2372 39.5625H29.4503V39.5625ZM32.125 44.625C32.125 45.0726 31.9472 45.5018 31.6307 45.8182C31.3143 46.1347 30.8851 46.3125 30.4375 46.3125C29.9899 46.3125 29.5607 46.1347 29.2443 45.8182C28.9278 45.5018 28.75 45.0726 28.75 44.625C28.75 44.1774 28.9278 43.7482 29.2443 43.4318C29.5607 43.1153 29.9899 42.9375 30.4375 42.9375C30.8851 42.9375 31.3143 43.1153 31.6307 43.4318C31.9472 43.7482 32.125 44.1774 32.125 44.625V44.625ZM43.9375 44.625C43.9375 45.0726 43.7597 45.5018 43.4432 45.8182C43.1268 46.1347 42.6976 46.3125 42.25 46.3125C41.8024 46.3125 41.3732 46.1347 41.0568 45.8182C40.7403 45.5018 40.5625 45.0726 40.5625 44.625C40.5625 44.1774 40.7403 43.7482 41.0568 43.4318C41.3732 43.1153 41.8024 42.9375 42.25 42.9375C42.6976 42.9375 43.1268 43.1153 43.4432 43.4318C43.7597 43.7482 43.9375 44.1774 43.9375 44.625V44.625Z" fill="url(#paint2_linear_247_1104)"/>
</g>
<defs>
<linearGradient id="paint0_linear_247_110" x1="34.8056" y1="-0.000114441" x2="34.8056" y2="67.3647" gradientUnits="userSpaceOnUse">
<stop stop-color="#44D695"/>
<stop offset="1" stop-color="#185FA5"/>
</linearGradient>
<linearGradient id="paint1_linear_247_1104" x1="34.8864" y1="31.4318" x2="36.3437" y2="34.5" gradientUnits="userSpaceOnUse">
<stop stop-color="#1962A4"/>
<stop offset="1" stop-color="#40CA96"/>
</linearGradient>
<linearGradient id="paint2_linear_247_1104" x1="22.9205" y1="22.8409" x2="33.3523" y2="43.7045" gradientUnits="userSpaceOnUse">
<stop stop-color="#1962A4"/>
<stop offset="1" stop-color="#40CA96"/>
</linearGradient>
<clipPath id="clip0_247_1104">
<rect width="27" height="27" fill="white" transform="translate(22 21)"/>
</clipPath>
</defs>
</svg>
