<svg width="71" height="69" viewBox="0 0 71 69" fill="none" xmlns="http://www.w3.org/2000/svg">
<ellipse cx="34.8056" cy="33.6823" rx="34.8057" ry="33.6824" transform="rotate(-180 34.8056 33.6823)" fill="url(#paint0_linear_247_1130)"/>
<path d="M51.022 17.1276L68.4249 41.9612C65.4775 57.3752 47.7774 67.366 36.8637 67.366L18.6981 48.7683L34.5144 38.5397L27.5222 32.8257L51.022 17.1276Z" fill="#767676" fill-opacity="0.32"/>
<rect x="17.0986" y="15.9824" width="35.9856" height="35.966" rx="8" fill="white"/>
<path d="M35.3867 15.9844H45.0846C49.5028 15.9844 53.0846 19.5661 53.0846 23.9844V43.9504C53.0846 48.3686 49.5028 51.9504 45.0846 51.9504H35.3867V15.9844Z" fill="#494949" fill-opacity="0.09"/>
<path d="M30.4375 47.125H28.75V44.3125H25.375V47.125H23.6875V44.3125C23.6879 43.8154 23.8659 43.3387 24.1823 42.9872C24.4986 42.6357 24.9276 42.438 25.375 42.4375H28.75C29.1974 42.438 29.6264 42.6357 29.9427 42.9872C30.2591 43.3387 30.4371 43.8154 30.4375 44.3125V47.125ZM47.3125 47.125H45.625V44.3125H42.25V47.125H40.5625V44.3125C40.5629 43.8154 40.7409 43.3387 41.0573 42.9872C41.3736 42.6357 41.8026 42.438 42.25 42.4375H45.625C46.0724 42.438 46.5014 42.6357 46.8178 42.9872C47.1341 43.3387 47.3121 43.8154 47.3125 44.3125V47.125ZM38.875 47.125H37.1875V44.3125H33.8125V47.125H32.125V44.3125C32.1254 43.8154 32.3034 43.3387 32.6198 42.9872C32.9361 42.6357 33.3651 42.438 33.8125 42.4375H37.1875C37.6349 42.438 38.0639 42.6357 38.3803 42.9872C38.6966 43.3387 38.8746 43.8154 38.875 44.3125V47.125Z" fill="url(#paint1_linear_247_1130)"/>
<path d="M35.5 41.5C36.432 41.5 37.1875 40.6605 37.1875 39.625C37.1875 38.5895 36.432 37.75 35.5 37.75C34.568 37.75 33.8125 38.5895 33.8125 39.625C33.8125 40.6605 34.568 41.5 35.5 41.5Z" fill="url(#paint2_linear_247_1130)"/>
<path d="M27.0625 41.5C27.9945 41.5 28.75 40.6605 28.75 39.625C28.75 38.5895 27.9945 37.75 27.0625 37.75C26.1305 37.75 25.375 38.5895 25.375 39.625C25.375 40.6605 26.1305 41.5 27.0625 41.5Z" fill="url(#paint3_linear_247_1130)"/>
<path d="M43.9375 41.5C44.8695 41.5 45.625 40.6605 45.625 39.625C45.625 38.5895 44.8695 37.75 43.9375 37.75C43.0055 37.75 42.25 38.5895 42.25 39.625C42.25 40.6605 43.0055 41.5 43.9375 41.5Z" fill="url(#paint4_linear_247_1130)"/>
<path d="M31.2812 37.75C32.2132 37.75 32.9688 36.9105 32.9688 35.875C32.9688 34.8395 32.2132 34 31.2812 34C30.3493 34 29.5938 34.8395 29.5938 35.875C29.5938 36.9105 30.3493 37.75 31.2812 37.75Z" fill="url(#paint5_linear_247_1130)"/>
<path d="M39.9785 37.75C40.9105 37.75 41.666 36.9105 41.666 35.875C41.666 34.8395 40.9105 34 39.9785 34C39.0465 34 38.291 34.8395 38.291 35.875C38.291 36.9105 39.0465 37.75 39.9785 37.75Z" fill="url(#paint6_linear_247_1130)"/>
<path d="M43.9375 32.125H27.0625C26.6151 32.1245 26.1861 31.9268 25.8698 31.5753C25.5534 31.2238 25.3754 30.7471 25.375 30.25V22.75C25.3754 22.2529 25.5534 21.7762 25.8698 21.4247C26.1861 21.0732 26.6151 20.8755 27.0625 20.875H43.9375C44.3849 20.8755 44.8139 21.0732 45.1302 21.4247C45.4466 21.7762 45.6246 22.2529 45.625 22.75V30.25C45.6246 30.7471 45.4466 31.2238 45.1302 31.5753C44.8139 31.9268 44.3849 32.1245 43.9375 32.125ZM27.0625 22.75V30.25H43.9375V22.75H27.0625Z" fill="url(#paint7_linear_247_1130)"/>
<defs>
<linearGradient id="paint0_linear_247_1130" x1="34.8056" y1="-0.000114441" x2="34.8056" y2="67.3647" gradientUnits="userSpaceOnUse">
<stop stop-color="#44D695"/>
<stop offset="1" stop-color="#185FA5"/>
</linearGradient>
<linearGradient id="paint1_linear_247_1130" x1="25.5221" y1="33.645" x2="36.7754" y2="45.9595" gradientUnits="userSpaceOnUse">
<stop stop-color="#1D6DA3"/>
<stop offset="1" stop-color="#42D195"/>
</linearGradient>
<linearGradient id="paint2_linear_247_1130" x1="33.76" y1="37.3062" x2="35.8233" y2="41.3344" gradientUnits="userSpaceOnUse">
<stop stop-color="#1D6DA3"/>
<stop offset="1" stop-color="#42D195"/>
</linearGradient>
<linearGradient id="paint3_linear_247_1130" x1="25.5222" y1="36.8485" x2="27.3721" y2="41.3734" gradientUnits="userSpaceOnUse">
<stop stop-color="#1D6DA3"/>
<stop offset="1" stop-color="#42D195"/>
</linearGradient>
<linearGradient id="paint4_linear_247_1130" x1="41.174" y1="36.8485" x2="44.359" y2="41.1909" gradientUnits="userSpaceOnUse">
<stop stop-color="#1D6DA3"/>
<stop offset="1" stop-color="#42D195"/>
</linearGradient>
<linearGradient id="paint5_linear_247_1130" x1="29.2291" y1="33.1875" x2="31.6492" y2="37.5457" gradientUnits="userSpaceOnUse">
<stop offset="0.215457" stop-color="#1D6DA3"/>
<stop offset="1" stop-color="#42D195"/>
</linearGradient>
<linearGradient id="paint6_linear_247_1130" x1="37.9264" y1="33.1875" x2="40.3464" y2="37.5457" gradientUnits="userSpaceOnUse">
<stop stop-color="#1D6DA3"/>
<stop offset="1" stop-color="#42D195"/>
</linearGradient>
<linearGradient id="paint7_linear_247_1130" x1="30.4649" y1="22.2035" x2="34.9903" y2="40.3052" gradientUnits="userSpaceOnUse">
<stop stop-color="#1D6DA3"/>
<stop offset="1" stop-color="#42D195"/>
</linearGradient>
</defs>
</svg>
