<svg width="600" height="568" viewBox="0 0 600 568" fill="none" xmlns="http://www.w3.org/2000/svg">
<path fill-rule="evenodd" clip-rule="evenodd" d="M318.485 546.448C236.372 548.107 145.981 592.857 81.4682 548.323C14.8524 502.337 2.51003 413.311 20.4167 340.686C35.8418 278.126 105.696 243.362 165.672 206.815C211.827 178.691 262.282 157.772 318.485 159.056C373.166 160.306 424.494 180.053 463.529 213.622C502.951 247.524 517.876 293.411 529.687 340.686C546.493 407.953 597.368 487.755 544.812 538.958C492.335 590.083 396.948 544.862 318.485 546.448Z" fill="#93B0F9" fill-opacity="0.15"/>
<path d="M171.417 73.9098C174.854 75.1766 180.889 76.2183 187.874 77.0558C206.867 79.3361 232.894 80.1455 232.894 80.1455C232.894 80.1455 366.692 91.2479 466.97 49.956C466.97 49.956 481.556 42.3057 468.026 32.0091C465.942 30.4705 463.727 29.1187 461.406 27.9693L461.241 27.8039C459.702 26.3807 458.039 25.0982 456.271 23.9717C451.076 20.611 442.304 16.6275 431.626 18.4328L168.252 61.0514C168.252 61.0514 158.632 69.1838 171.417 73.9098Z" fill="#1B67A5"/>
<path d="M223.895 54.5939L168.759 15.4556L144.459 19.6608L168.253 61.0512C168.253 61.0512 223.261 61.4911 223.895 54.5939Z" fill="#1B67A5"/>
<path d="M362.703 30.8159L252.879 0L235.177 3.70198L284.787 26.03L300.291 43.3857L362.703 30.8159Z" fill="#1B67A5"/>
<path d="M187.874 77.0555C206.867 79.3358 232.894 80.1452 232.894 80.1452C232.894 80.1452 366.692 91.2476 466.97 49.9557C466.97 49.9557 481.556 42.3054 468.026 32.0088L467.98 32.1988C467.98 32.1988 446.342 46.8308 342.958 59.0453L187.874 77.0555Z" fill="#2F5675"/>
<path d="M205.527 76.2108L156.427 96.2691L144.092 94.9002L173.46 72.815C173.46 72.815 208.984 65.2315 205.527 76.2108Z" fill="#1B67A5"/>
<path d="M450.175 34.3422C452.518 34.3809 457.885 30.4502 461.223 27.8039C459.684 26.3807 458.02 25.0982 456.253 23.9717C453.562 26.0373 448.775 29.3804 446.113 29.2502C442.269 29.0918 446.647 34.2788 450.175 34.3422Z" fill="#DADADA"/>
<path d="M227.113 145.546L258.637 147.196L347.27 87.4016L363.724 76.2992L371.715 70.9046C356.721 58.2362 295.547 75.708 295.547 75.708C294.375 76.6968 294.002 78.3402 294.055 80.156C294.157 83.5554 295.754 87.5459 296.37 88.9817C296.517 89.3336 296.609 89.5201 296.609 89.5201L227.113 145.546Z" fill="#1B67A5"/>
<path d="M32.6102 309.084L43.2598 235.549L33.8636 234.531C24.0416 233.469 14.8988 239.235 11.628 248.557C5.71434 256.138 2.25713 265.036 2.10239 275.704C-1.7216 286.602 3.99791 298.68 14.8517 302.627L32.6102 309.084V309.084Z" fill="#F2F2F2"/>
<path d="M31.4031 505.701L38.5584 505.87L42.5469 473.724L31.9874 473.474L31.4031 505.701Z" fill="#FFB8B8"/>
<path d="M55.9511 520.629C55.9511 521.838 55.0933 522.818 54.0352 522.818H39.8325C39.8325 522.818 38.4348 517.199 32.7364 514.781L32.3431 522.818H25.0164L25.9041 509.896C25.9041 509.896 23.9442 502.983 28.0145 499.449C32.0849 495.915 28.788 496.407 28.788 496.407L30.3892 488.41L41.4606 489.712L41.542 502.266L46.9149 514.727L54.7956 518.62C55.497 518.966 55.9511 519.756 55.9511 520.629L55.9512 520.629H55.9511Z" fill="#00BFA6"/>
<path d="M57.5457 505.457L64.701 505.626L68.6895 473.48L58.13 473.23L57.5457 505.457Z" fill="#FFB8B8"/>
<path d="M82.0937 520.385C82.0937 521.594 81.2359 522.574 80.1778 522.574H65.975C65.975 522.574 64.5774 516.956 58.8789 514.538L58.4856 522.574H51.159L52.0467 509.652C52.0467 509.652 50.0867 502.739 54.1571 499.205C58.2275 495.672 54.9306 496.164 54.9306 496.164L56.5318 488.166L67.6032 489.468L67.6846 502.022L73.0575 514.483L80.9382 518.376C81.6396 518.723 82.0936 519.512 82.0936 520.385L82.0938 520.385H82.0937Z" fill="#00BFA6"/>
<path d="M36.9423 231.161L62.7107 235.642C64.486 231.099 73.0794 218.56 73.8155 214.112C75.7292 202.546 67.1061 191.883 55.4157 191.011H55.4156C44.2032 190.174 37.3724 192.274 36.4181 202.954C36.0836 206.697 31.2087 210.075 30.227 213.703C24.8107 233.718 35.6469 226.896 36.9423 231.161V231.161Z" fill="#00BFA6"/>
<path d="M75.6319 314.99L77.3125 340.759L70.0966 484.335L56.7961 481.841L47.8214 364.847L44.5419 483.885L28.8568 484.445L17.8335 344.65C16.9912 333.969 19.7907 323.317 25.7758 314.43V314.43L75.6319 314.99V314.99Z" fill="#2F5675"/>
<path d="M43.1422 232.083H63.7014L68.3504 239.365L84.5957 246.088L75.6328 309.948L77.8735 337.397C65.2086 341.695 35.8172 348.346 14.5586 330.791L33.6192 296.504L29.1377 248.328L37.8205 240.428L43.1422 232.083V232.083Z" fill="#1B67A5"/>
<path d="M54.5157 228.462C45.937 228.462 38.9826 221.508 38.9826 212.929C38.9826 204.35 45.937 197.396 54.5157 197.396C63.0944 197.396 70.0488 204.35 70.0488 212.929C70.0488 221.508 63.0944 228.462 54.5157 228.462Z" fill="#FFB8B8"/>
<path d="M16.1713 352.298C16.5052 350.612 16.4305 348.99 16.0355 347.659L20.2305 331.797L12.6244 330.021L9.18795 346.303C8.3154 347.383 7.6284 348.854 7.29455 350.54C6.53187 354.392 7.90074 357.908 10.352 358.394C12.8032 358.879 15.4086 356.15 16.1713 352.298V352.298Z" fill="#FFB8B8"/>
<path d="M39.5 244.688C39.5 244.688 29.9769 240.766 25.4955 248.049C21.014 255.331 9.25018 341.039 9.25018 341.039L19.0534 342.439L38.3796 273.257L39.5 244.688Z" fill="#1B67A5"/>
<path d="M32.6885 293.972L40.6406 238.215L33.8667 243.633L32.6885 293.972Z" fill="#F2F2F2"/>
<path d="M36.8716 258.541C38.1437 259.849 39.6057 260.761 41.0072 261.219L52.3376 274.448L58.4746 268.872L46.3203 256.053C45.9023 254.639 45.0312 253.152 43.7592 251.844C40.8533 248.855 36.9558 247.931 35.0538 249.781C33.1518 251.63 33.9657 255.552 36.8716 258.541V258.541Z" fill="#FFB8B8"/>
<path d="M74.2121 242.241C74.2121 242.241 84.9125 243.465 85.7247 247.921C86.5368 252.376 80.7447 293.753 80.7447 293.753L72.6958 302.285L41.2497 264.825L50.7078 258.885L65.2431 270.306L74.2121 242.241Z" fill="#1D6EB0"/>
<path d="M56.4195 193.483C62.7378 194.595 68.8605 198.016 72.1384 203.53C75.4163 209.045 81.4223 216.729 77.068 221.44C75.563 223.068 73.6457 224.301 72.2918 226.057C69.9881 229.045 69.6554 233.244 70.8042 236.838C71.953 240.432 74.4166 243.48 77.2352 245.988C71.202 245.366 65.6959 241.08 63.6123 235.383C62.6482 232.748 62.4519 229.586 64.1018 227.315C64.9694 226.121 66.2474 225.305 67.3495 224.323C70.1921 221.79 68.3665 217.965 68.3496 214.158C68.3327 210.35 67.8534 207.702 64.9885 205.195C63.0155 206.771 56.4731 206.391 53.98 205.986C51.4869 205.582 44.5146 215.157 43.1414 213.037C40.4532 216.493 42.2925 209.372 42.7972 213.721C43.1582 216.832 45.201 219.516 45.8169 222.586C46.3529 225.259 45.7671 228.039 44.8257 230.597C42.702 236.367 38.7205 241.436 33.6183 244.866C36.5642 240.7 39.6354 236.147 39.5385 231.045C39.4666 227.261 31.4042 212.8 30.2752 209.188C28.1147 202.275 34.0605 201.266 38.6599 195.672C42.6991 190.759 50.5072 192.277 56.6987 193.731" fill="#00BFA6"/>
<g clip-path="url(#clip0_261_2357)">
<path d="M462.819 520.835C455.345 514.506 450.805 504.507 451.995 494.774C453.186 485.04 460.561 476.092 470.126 474.025C479.692 471.958 490.596 477.679 493.502 487.044C495.101 468.99 496.943 450.179 506.522 434.805C515.194 420.883 530.216 410.922 546.496 409.14C562.776 407.358 579.916 414.089 590.069 426.966C600.223 439.842 602.709 458.563 595.598 473.347C590.359 484.237 580.708 492.342 570.596 498.936C537.921 520.064 498.731 528.656 460.238 523.131" fill="#F2F2F2"/>
<path d="M573.971 414.461C560.538 425.426 548.215 437.689 537.18 451.073C519.909 471.948 505.934 495.352 495.74 520.47C494.994 522.303 497.963 523.101 498.701 521.289C515.38 480.466 542.005 444.485 576.143 416.637C577.676 415.386 575.492 413.221 573.971 414.461Z" fill="white"/>
<path d="M192.024 525.167H149.633C148.201 525.165 146.828 524.595 145.815 523.58C144.802 522.565 144.232 521.188 144.23 519.753V431.459C144.232 430.024 144.802 428.648 145.815 427.633C146.828 426.618 148.201 426.047 149.633 426.045H192.024C193.456 426.047 194.829 426.618 195.842 427.633C196.855 428.648 197.425 430.024 197.426 431.459V519.753C197.425 521.188 196.855 522.565 195.842 523.58C194.829 524.595 193.456 525.165 192.024 525.167Z" fill="#00BFA6"/>
<path d="M250.207 344.582C249.261 344.583 248.353 344.96 247.683 345.632C247.013 346.303 246.636 347.213 246.635 348.164V519.752C246.636 520.703 247.013 521.613 247.683 522.284C248.353 522.956 249.261 523.333 250.208 523.334H292.596C293.542 523.333 294.45 522.956 295.12 522.284C295.79 521.613 296.167 520.703 296.168 519.753C296.168 519.752 296.168 519.752 296.168 519.752M250.207 344.582L292.597 343.582C293.809 343.583 294.971 344.066 295.828 344.925C296.685 345.784 297.167 346.949 297.168 348.163V519.753L296.168 519.752M250.207 344.582H292.596C293.543 344.583 294.45 344.96 295.12 345.632C295.79 346.303 296.167 347.213 296.168 348.163C296.168 348.164 296.168 348.164 296.168 348.164M250.207 344.582L296.168 348.164M296.168 519.752V348.164M296.168 519.752V348.164M250.205 527H250.207H292.597V526L292.598 527C294.516 526.998 296.355 526.233 297.711 524.875C299.067 523.516 299.829 521.674 299.831 519.754V519.753L299.831 348.163L299.831 348.162C299.829 346.242 299.067 344.4 297.711 343.041C296.355 341.683 294.516 340.918 292.598 340.916H292.597L250.207 340.916L250.205 340.916C248.287 340.918 246.448 341.683 245.093 343.041C243.737 344.4 242.975 346.242 242.973 348.162V348.163L242.973 519.753L242.973 519.754C242.975 521.674 243.737 523.516 245.093 524.875C246.448 526.233 248.287 526.998 250.205 527Z" fill="#F2F2F2" stroke="#F2F2F2" stroke-width="2"/>
<path d="M350.778 527H350.779H393.169V526L393.17 527C395.089 526.998 396.927 526.233 398.283 524.875C399.639 523.516 400.401 521.674 400.403 519.754V519.753V239.046V239.044C400.401 237.124 399.639 235.282 398.283 233.924C396.927 232.565 395.089 231.8 393.17 231.798H393.169L350.779 231.798L350.778 231.798C348.859 231.8 347.021 232.565 345.665 233.924C344.309 235.282 343.547 237.124 343.545 239.044V239.046L343.545 519.753L343.545 519.754C343.547 521.674 344.309 523.516 345.665 524.875C347.021 526.233 348.859 526.998 350.778 527ZM350.779 232.798H393.169C394.822 232.8 396.407 233.459 397.575 234.63C398.744 235.801 399.401 237.389 399.403 239.046L350.779 232.798ZM348.256 236.514C348.925 235.843 349.833 235.465 350.779 235.464H393.169C394.115 235.465 395.023 235.843 395.692 236.514C396.362 237.185 396.74 238.096 396.741 239.047V519.752C396.74 520.702 396.362 521.613 395.692 522.284C395.022 522.956 394.115 523.333 393.168 523.334H350.78C349.833 523.333 348.926 522.956 348.256 522.284C347.586 521.613 347.209 520.703 347.207 519.752V239.046C347.209 238.096 347.586 237.185 348.256 236.514Z" fill="#F2F2F2" stroke="#F2F2F2" stroke-width="2"/>
<path d="M494.682 525.583H452.291C450.859 525.582 449.486 525.011 448.473 523.996C447.46 522.981 446.89 521.604 446.889 520.169V124.513C446.89 123.078 447.46 121.702 448.473 120.687C449.486 119.672 450.859 119.101 452.291 119.099H494.682C496.114 119.101 497.487 119.672 498.5 120.687C499.513 121.702 500.083 123.078 500.084 124.513V520.169C500.083 521.604 499.513 522.981 498.5 523.996C497.487 525.011 496.114 525.582 494.682 525.583Z" fill="#00BFA6"/>
<path d="M231.041 281.216C231.195 280.001 231.081 278.767 230.708 277.601C230.334 276.435 229.71 275.365 228.879 274.467C228.049 273.569 227.032 272.865 225.9 272.403C224.768 271.942 223.549 271.734 222.329 271.796L207.553 244.634L204.229 256.295L214.351 281.189C214.591 283.236 215.571 285.125 217.107 286.497C218.643 287.868 220.627 288.628 222.685 288.631C224.742 288.634 226.729 287.881 228.269 286.515C229.809 285.148 230.796 283.262 231.041 281.215V281.216Z" fill="#A0616A"/>
<path d="M117.199 388.463L125.429 394.484L152.521 365.536L140.374 356.649L117.199 388.463Z" fill="#A0616A"/>
<path d="M135.723 413.755L109.856 394.831L117.152 384.816L133.025 396.429C135.675 398.368 137.449 401.283 137.955 404.532C138.461 407.781 137.658 411.099 135.723 413.755V413.755L135.723 413.755Z" fill="#2F5675"/>
<path d="M160.74 420.335L170.93 420.334L175.778 380.945L160.738 380.946L160.74 420.335Z" fill="#A0616A"/>
<path d="M190.584 429.816L158.558 429.818L158.557 417.418L178.21 417.417C181.491 417.417 184.639 418.723 186.959 421.048C189.28 423.374 190.584 426.528 190.584 429.816V429.816V429.816Z" fill="#2F5675"/>
<path d="M191.344 266.707C191.344 266.707 196.331 315.019 183.863 348.337L174.72 411.642H158.927L160.59 336.676L154.771 270.039C154.771 270.039 166.408 240.052 191.344 266.707Z" fill="#1B67A5"/>
<path d="M137.318 270.039L153.942 327.513L121.525 379.156L137.733 392.9L174.721 335.01L163.916 264.208L137.318 270.039Z" fill="#1B67A5"/>
<path d="M179.712 141.158C190.986 141.158 200.126 131.999 200.126 120.7C200.126 109.401 190.986 100.242 179.712 100.242C168.437 100.242 159.297 109.401 159.297 120.7C159.297 131.999 168.437 141.158 179.712 141.158Z" fill="#A0616A"/>
<path d="M162.669 148.843C162.669 148.843 175.137 140.514 189.267 158.839L193.008 274.204C193.008 274.204 182.202 259.211 159.76 273.371C137.318 287.531 132.331 271.705 132.331 271.705C132.331 271.705 116.539 152.592 162.669 148.843Z" fill="#2F5675"/>
<path d="M188.262 158.548C191.848 158.742 195.235 160.259 197.773 162.805C200.31 165.352 201.818 168.748 202.007 172.342L204.644 222.56L222.099 270.039L212.125 278.369L179.709 221.727L173.072 175.171C172.768 173.037 172.94 170.862 173.575 168.802C174.21 166.743 175.293 164.85 176.745 163.261C178.198 161.671 179.984 160.424 181.976 159.609C183.967 158.794 186.114 158.432 188.262 158.548V158.548Z" fill="#2F5675"/>
<path d="M164.71 136.046C168.047 139.608 174.245 137.696 174.68 132.829C174.714 132.451 174.712 132.071 174.673 131.693C174.448 129.537 173.206 127.58 173.503 125.304C173.571 124.737 173.781 124.197 174.115 123.735C176.775 120.166 183.018 125.331 185.528 122.1C187.067 120.119 185.258 117 186.439 114.786C187.997 111.864 192.614 113.305 195.51 111.705C198.731 109.924 198.539 104.971 196.418 101.958C193.832 98.2842 189.298 96.3236 184.82 96.041C180.342 95.7584 175.895 96.9715 171.714 98.6041C166.965 100.459 162.254 103.023 159.331 107.208C155.777 112.298 155.435 119.141 157.212 125.093C158.294 128.714 161.985 133.136 164.71 136.046Z" fill="#00BFA6"/>
<path d="M599.009 525.647H60.9888C60.7268 525.646 60.4758 525.541 60.2908 525.355C60.1058 525.169 60.002 524.917 60.002 524.655C60.002 524.392 60.1058 524.14 60.2908 523.955C60.4758 523.769 60.7268 523.664 60.9888 523.663H599.009C599.271 523.664 599.522 523.769 599.707 523.955C599.892 524.14 599.996 524.392 599.996 524.655C599.996 524.917 599.892 525.169 599.707 525.355C599.522 525.541 599.271 525.646 599.009 525.647Z" fill="#F2F2F2"/>
</g>
<defs>
<clipPath id="clip0_261_2357">
<rect width="540" height="430" fill="white" transform="translate(60 96)"/>
</clipPath>
</defs>
</svg>
