<svg width="71" height="69" viewBox="0 0 71 69" fill="none" xmlns="http://www.w3.org/2000/svg">
<ellipse cx="34.8056" cy="33.6823" rx="34.8057" ry="33.6824" transform="rotate(-180 34.8056 33.6823)" fill="url(#paint0_linear_247_1118)"/>
<path d="M51.022 17.1276L68.4249 41.9612C65.4775 57.3752 47.7774 67.366 36.8637 67.366L18.6981 48.7683L34.5144 38.5397L27.5222 32.8257L51.022 17.1276Z" fill="#767676" fill-opacity="0.32"/>
<rect x="17.0986" y="15.9824" width="35.9856" height="35.966" rx="8" fill="white"/>
<path d="M35.3867 15.9844H45.0846C49.5028 15.9844 53.0846 19.5661 53.0846 23.9844V43.9504C53.0846 48.3686 49.5028 51.9504 45.0846 51.9504H35.3867V15.9844Z" fill="#494949" fill-opacity="0.09"/>
<path d="M43.542 21.5835H30.6254C29.2007 21.5835 28.042 22.7421 28.042 24.1668V31.3821L21.9622 37.462C21.7816 37.6426 21.6586 37.8727 21.6088 38.1232C21.559 38.3738 21.5846 38.6334 21.6823 38.8694C21.78 39.1054 21.9455 39.3071 22.1579 39.4491C22.3703 39.591 22.6199 39.6668 22.8754 39.6668V46.1252C22.8754 46.4677 23.0115 46.7963 23.2537 47.0385C23.4959 47.2807 23.8245 47.4168 24.167 47.4168H44.8337C45.1763 47.4168 45.5048 47.2807 45.7471 47.0385C45.9893 46.7963 46.1254 46.4677 46.1254 46.1252V24.1668C46.1254 22.7421 44.9668 21.5835 43.542 21.5835ZM33.2087 44.8335H25.4587V37.6182L29.3337 33.7432L33.2087 37.6182V44.8335ZM43.542 44.8335H35.792V39.6668C36.0477 39.6674 36.2979 39.592 36.5106 39.4501C36.7234 39.3083 36.8892 39.1065 36.9871 38.8702C37.0849 38.634 37.1104 38.374 37.0602 38.1233C37.01 37.8725 36.8865 37.6424 36.7053 37.462L30.6254 31.3821V24.1668H43.542V44.8335Z" fill="url(#paint1_linear_247_1118)"/>
<path d="M33.2077 26.75H35.791V29.3333H33.2077V26.75ZM38.3743 26.75H40.9577V29.3333H38.3743V26.75ZM38.3743 31.9567H40.9577V34.5H38.3743V31.9567ZM38.3743 37.0833H40.9577V39.6667H38.3743V37.0833ZM28.041 38.375H30.6243V40.9583H28.041V38.375Z" fill="url(#paint2_linear_247_1118)"/>
<defs>
<linearGradient id="paint0_linear_247_1118" x1="34.8056" y1="-0.000114441" x2="34.8056" y2="67.3647" gradientUnits="userSpaceOnUse">
<stop stop-color="#44D695"/>
<stop offset="1" stop-color="#185FA5"/>
</linearGradient>
<linearGradient id="paint1_linear_247_1118" x1="33.8547" y1="21.5835" x2="33.8547" y2="47.4168" gradientUnits="userSpaceOnUse">
<stop stop-color="#1D6DA3"/>
<stop offset="1" stop-color="#42D195"/>
</linearGradient>
<linearGradient id="paint2_linear_247_1118" x1="34.4993" y1="26.75" x2="34.4993" y2="40.9583" gradientUnits="userSpaceOnUse">
<stop stop-color="#1D6DA3"/>
<stop offset="1" stop-color="#42D195"/>
</linearGradient>
</defs>
</svg>
