<svg width="71" height="69" viewBox="0 0 71 69" fill="none" xmlns="http://www.w3.org/2000/svg">
<ellipse cx="34.8056" cy="33.6823" rx="34.8057" ry="33.6824" transform="rotate(-180 34.8056 33.6823)" fill="url(#paint0_linear_247_1093)"/>
<path d="M51.022 17.1276L68.4249 41.9612C65.4775 57.3752 47.7774 67.366 36.8637 67.366L18.6981 48.7683L34.5144 38.5397L27.5222 32.8257L51.022 17.1276Z" fill="#767676" fill-opacity="0.32"/>
<rect x="17.0986" y="15.9824" width="35.9856" height="35.966" rx="8" fill="white"/>
<path d="M35.3867 15.9844H45.0846C49.5028 15.9844 53.0846 19.5661 53.0846 23.9844V43.9504C53.0846 48.3686 49.5028 51.9504 45.0846 51.9504H35.3867V15.9844Z" fill="#494949" fill-opacity="0.09"/>
<path d="M35.5 33.375C36.1188 33.375 36.6486 33.1545 37.0896 32.7135C37.5299 32.2732 37.75 31.7438 37.75 31.125C37.75 30.5063 37.5299 29.9764 37.0896 29.5354C36.6486 29.0951 36.1188 28.875 35.5 28.875C34.8813 28.875 34.3518 29.0951 33.9115 29.5354C33.4705 29.9764 33.25 30.5063 33.25 31.125C33.25 31.7438 33.4705 32.2732 33.9115 32.7135C34.3518 33.1545 34.8813 33.375 35.5 33.375ZM35.5 35.625C34.2625 35.625 33.2031 35.1844 32.3219 34.3031C31.4406 33.4219 31 32.3625 31 31.125C31 29.8875 31.4406 28.8281 32.3219 27.9469C33.2031 27.0656 34.2625 26.625 35.5 26.625C36.7375 26.625 37.7969 27.0656 38.6781 27.9469C39.5594 28.8281 40 29.8875 40 31.125C40 32.3625 39.5594 33.4219 38.6781 34.3031C37.7969 35.1844 36.7375 35.625 35.5 35.625ZM35.5 48C33.6438 48 31.8955 47.6482 30.2552 46.9447C28.6142 46.242 27.1799 45.2768 25.9521 44.049C24.7236 42.8205 23.758 41.3861 23.0553 39.7459C22.3518 38.1049 22 36.3563 22 34.5C22 32.6438 22.3518 30.8951 23.0553 29.2541C23.758 27.6139 24.7236 26.1795 25.9521 24.951C27.1799 23.7233 28.6142 22.758 30.2552 22.0553C31.8955 21.3518 33.6438 21 35.5 21C37.3563 21 39.1049 21.3518 40.7459 22.0553C42.3861 22.758 43.8205 23.7233 45.049 24.951C46.2768 26.1795 47.242 27.6139 47.9447 29.2541C48.6482 30.8951 49 32.6438 49 34.5C49 36.3563 48.6482 38.1049 47.9447 39.7459C47.242 41.3861 46.2768 42.8205 45.049 44.049C43.8205 45.2768 42.3861 46.242 40.7459 46.9447C39.1049 47.6482 37.3563 48 35.5 48ZM35.5 45.75C36.85 45.75 38.1156 45.5344 39.2969 45.1031C40.4781 44.6719 41.5562 44.0625 42.5312 43.275C41.9125 42.5812 41.0031 41.9767 39.8031 41.4615C38.6031 40.9455 37.1688 40.6875 35.5 40.6875C33.8313 40.6875 32.3969 40.9455 31.1969 41.4615C29.9969 41.9767 29.0875 42.5812 28.4687 43.275C29.4437 44.0625 30.5219 44.6719 31.7031 45.1031C32.8844 45.5344 34.15 45.75 35.5 45.75ZM26.8375 41.7C27.7375 40.725 28.9469 39.9375 30.4656 39.3375C31.9844 38.7375 33.6625 38.4375 35.5 38.4375C37.3375 38.4375 39.0111 38.7375 40.5209 39.3375C42.0299 39.9375 43.2344 40.725 44.1344 41.7C44.9594 40.7062 45.6018 39.6 46.0615 38.3813C46.5205 37.1625 46.75 35.8688 46.75 34.5C46.75 32.9438 46.4545 31.4861 45.8635 30.1271C45.2732 28.7674 44.467 27.5768 43.4448 26.5553C42.4233 25.533 41.2326 24.7264 39.8729 24.1354C38.5139 23.5451 37.0563 23.25 35.5 23.25C33.9625 23.25 32.5094 23.5451 31.1406 24.1354C29.7719 24.7264 28.5768 25.533 27.5553 26.5553C26.533 27.5768 25.7267 28.7674 25.1365 30.1271C24.5455 31.4861 24.25 32.9438 24.25 34.5C24.25 35.8688 24.475 37.1674 24.925 38.3959C25.375 39.6236 26.0125 40.725 26.8375 41.7V41.7Z" fill="url(#paint1_linear_247_1093)"/>
<defs>
<linearGradient id="paint0_linear_247_109" x1="34.8056" y1="-0.000114441" x2="34.8056" y2="67.3647" gradientUnits="userSpaceOnUse">
<stop stop-color="#44D695"/>
<stop offset="1" stop-color="#185FA5"/>
</linearGradient>
<linearGradient id="paint1_linear_247_1093" x1="26.05" y1="23.3625" x2="38.5375" y2="46.65" gradientUnits="userSpaceOnUse">
<stop stop-color="#1A65A4"/>
<stop offset="1" stop-color="#42D096"/>
</linearGradient>
</defs>
</svg>
